<?xml version="1.0" encoding="UTF-8"?>
<svg id="_レイヤー_1" data-name="レイヤー 1" xmlns="http://www.w3.org/2000/svg" viewBox="0 0 220.7 236.8">
  <defs>
    <style>
      .cls-1 {
        fill: #0ed83a;
      }

      .cls-2 {
        fill: #13d93e;
      }

      .cls-3 {
        fill: #020302;
      }

      .cls-4 {
        fill: #050c06;
      }

      .cls-5 {
        fill: #e3f5e7;
      }

      .cls-6 {
        fill: #a1ddae;
      }
    </style>
  </defs>
  <path class="cls-2" d="M198.68,141.63c1.22.27,2.7.48,4.01.07.76-.24,1.06.27,1.57.42l-1.22,3.46-.09,2.1c.79.8.57,1.38.36,2.34-.39,1.8-.1,3.81-.08,5.71,0,.88.46,1.96.91,2.62.41.59,1.56.99,2.21.66.35-.18,1.14-.94,1.5-.58.82.82,1.39.4,2.26.57l2.32.44c1.1.21,2.25.71,3.52.49.86.9-.29,2.31.6,4.4-.9.21-1.73.43-1.89,1.44l1.57-.52c0,.29.13.64-.02,1.15l-3.05.18-3.04-.31c-1.23-.13-2.17-.11-3.37-.05-.83.04-1.83-.48-2.71.04s-1.62,1.48-1.71,2.38l-.19,1.93c-.11,1.07-.23,1.82-.09,3.01l-.55,2.93c.35,1,.31,1.47-.07,2.17-.56,1.03-1.37.81-2.39.85-1.08.05-1.76-.02-2.76-.41-.76-.29-1.93-.01-2.61-.71-.21-1.76.06-3.45.45-5.22-.71-.97-.68-2.4.24-3.32.44-1.24.64-2.58.23-3.79.68-.19,1.56-.24,1.92-1.11-.86-.2-1.44.3-2.13.43l-1.26-.67c-.89.61-1.71,1.03-2.87.87-.34.85-.45,1.7-.49,2.53l-1.1-.36-2.52.11-1.54.24c-.07-.28-.34-.67-.8-.73l-2-.25c-1.29-.16-1.63-.71-2.12-1.62-.65-1.22-.94-2.23-.42-3.56-.09-.09-.14-.42-.1-.54,1.02.21.2-1.59.75-3.8-.45-.82-.75-1.95.01-2.65.38-.35.96-.5,1.06-1h.27s2.81.04,2.81.04c1.54.02,2.96.46,4.4.47h.52c.27.3.77.72,1.27.67l1.79-.18.06-1.5c.03-.61.29-1.18.22-1.83,1.08.1.17-2.12.36-2.75l.48-1.59s.05-.09.06-.13c.46-.93-.36-2.19.15-3.81,1.07.26,3.24-2.22,5.31-1.76ZM199.38,163.63c-1.02-.28-1.39.57-2.35,1.06.78.25,1.81-.06,2.35-1.06Z"/>
  <path class="cls-4" d="M207.24,149.87v.52s0,.26,0,.26v.26c-.09.05-.23.16-.25.26-.09.42-.24.74-.5,1.22.61.52.38,1.44.59,1.95.42,1.03,4.94.18,6.22.83l1.44.73,3.35-.13c1.16.5,2.38.89,2.4,2.48.01.86.44,2.28.03,3.12-.47.96-.31,1.4-.28,2.44.02.5-.5,1.18-.19,1.8.24.5.14,1.62-.03,2.22l-.55,2.11c-.37.16-.58.75-1.39.9l-2.11.37c-1.03-.74-2.18-.27-3.26-.43l-2.84-.42c-.57-.08-1.34-.72-2.03-.3-.62.38-1.23.53-2.01.18-.41,1.41.19,2.81-.44,3.33.18-.88.07-1.89-.22-2.83l-1.24.22c-.08-.91.84-.8,1.31-1.11,1.67-1.11,3.07-2.24,5.23-2.78-.86-.52-1.82-.57-2.88-.35-1.63.34-3.49-1.07-4.55,1.37-.18.4-.41.57-.72.57.09-.9.85-1.87,1.71-2.38s1.88,0,2.71-.04c1.21-.06,2.15-.08,3.37.05l3.04.31,3.05-.18c.16-.51.03-.86.02-1.15,0-.14.27-.36.39-.46.2-.18.06-.33-.06-.46-.9-2.09.26-3.5-.6-4.4-1.26.22-2.42-.28-3.52-.49l-2.32-.44c-.88-.17-1.44.25-2.26-.57-.36-.36-1.15.4-1.5.58-.65.33-1.8-.06-2.21-.66-.46-.66-.91-1.75-.91-2.62-.02-1.89-.31-3.91.08-5.71.21-.96.42-1.54-.36-2.34l.09-2.1,1.22-3.46c.64.18,1.63-.64,2.37.17,1.23,1.36,1.76,4.57.02,4.85.36.26.63.6.62,1.17l-.03,1.56Z"/>
  <path class="cls-4" d="M194.36,165.41c-.05.11-.2.39-.19.57,0,.11.34.15.39.11.4,1.21.21,2.55-.23,3.79-.92.93-.95,2.35-.24,3.32-.39,1.77-.66,3.46-.45,5.22.68.7,1.86.42,2.61.71,1.01.38,1.68.45,2.76.41,1.03-.04,1.83.18,2.39-.85.38-.7.42-1.17.07-2.17l.55-2.93c-.15-1.19-.02-1.94.09-3.01.4.02.83-.15,1.33.21l-1.02,1.04.2,2.66c.06.72-.39,1.1-.26,1.93l-.43,2.65c-.08.5.87.51,1.2.42-.52.66-1.53.96-2.39,1.24-.68.21-.94.75-1.47,1.1l-1.89,1.26c-.46-.53-3.25.56-4.29-.49-1.44-1.47-2.6-.96-3.11-1.71-.29-.42-.55-2.58-.37-3.87.14-1.01-.08-1.89-.05-2.92.01-.66.64-1.51.19-2.28.35-.26.9-.76.7-1.28l-.49-1.28,1.01-1.31c1.16-.1,2.18-.82,2.99-1.79-.98.11-1.44.8-2.14,1.1h-.8s-.39.54-.39.54c-.17.24-.64.45-.9.36.03-.83.15-1.69.49-2.53,1.16.16,1.98-.26,2.87-.87l1.26.67Z"/>
  <path class="cls-3" d="M205.4,173.56c-.27,1.34-.7,2.61-.43,4.16.06.32-.21.59-.29.75-.23.07-.32.27-.3.49,0,.1-.02.2-.05.28-.44.06-.89-.13-1.2.25-.32.08-1.28.08-1.2-.42l.43-2.65c-.12-.83.32-1.21.26-1.93l-.2-2.66,1.02-1.04c-.5-.35-.93-.19-1.33-.21l.19-1.93c.31,0,.55-.17.72-.57,1.06-2.43,2.93-1.03,4.55-1.37,1.06-.22,2.02-.17,2.88.35-2.16.54-3.55,1.67-5.23,2.78-.46.31-1.38.2-1.31,1.11l1.24-.22c.29.95.39,1.96.22,2.83Z"/>
  <path class="cls-5" d="M204.34,179.24c.81.4-.13,1.08-.16,1.5-.54-.22-.88.5-1.2.61-1.14.38-2.32.62-2.64,1.82-.4-.03-.98.28-1.73.01-.3-.11-.83.35-1.22-.1l1.89-1.26c.52-.35.79-.89,1.47-1.1.87-.27,1.87-.58,2.39-1.24.3-.38.75-.19,1.2-.25Z"/>
  <path class="cls-5" d="M198.73,141.34l-.05.29c-2.07-.45-4.24,2.02-5.31,1.76-.07-.02-.21.02-.32,0,.08-.44-.11-1.01.16-1.51.32-.59,4.79-1.65,5.15-1.11l.38.56Z"/>
  <path class="cls-4" d="M204.18,180.74c.08,1-.35,1.99-1.2,2.6-.93.66-1.78-.1-2.64-.17.32-1.2,1.5-1.44,2.64-1.82.33-.11.67-.82,1.2-.61Z"/>
  <path class="cls-6" d="M207.24,149.87l.03-1.56c.01-.57-.26-.9-.62-1.17,1.74-.28,1.21-3.49-.02-4.85-.74-.81-1.73.01-2.37-.17-.51-.15-.81-.66-1.57-.42-1.32.41-2.79.2-4.01-.07l.05-.29,1.27.17c1.63-.25,3.02-.18,4.69.02.52.06,1.57-.62,2.07.09.25.35.99.95,1.11,1.4.75,2.84-.7,4.75-.32,6.13.07.25-.1.69-.3.72Z"/>
  <path class="cls-6" d="M189.74,168.14c.26.09.73-.12.9-.36l.34.16-1.01,1.31c-.57-1.48-2.98-.27-3.85-1.36l2.52-.11,1.1.36Z"/>
  <path class="cls-6" d="M188.44,154.5c-1.44-.02-2.86-.45-4.4-.47l-2.81-.04c.07-.34.53-.65,1.04-.57l6.17,1.08Z"/>
  <path class="cls-6" d="M179.15,161.44c.35-.88.32-1.91.19-2.9l-.4-3.2,2.03-1.36c-.09.5-.68.66-1.06,1-.76.7-.47,1.84-.01,2.65-.55,2.2.27,4-.75,3.8Z"/>
  <path class="cls-6" d="M184.58,168.14l-.69-.45c-.16-.11-.56.22-.81.49-.66-.81-1.37-.9-2.24-.51-.58-.47-1.23-.79-1.61-1.3.44-1.37-1.66-2.2.02-4.39-.52,1.33-.23,2.34.42,3.56.49.92.83,1.46,2.12,1.62l2,.25c.46.06.73.45.8.73Z"/>
  <path class="cls-6" d="M192.31,151.67c-.04-.41.06-.81.3-1.34-.92-.93-.43-2.45.54-3l-.48,1.59c-.19.62.72,2.85-.36,2.75Z"/>
  <path class="cls-6" d="M193.21,147.2c-.13-.35-.26-.69-.64-1.08l.47-2.73c.11.02.25-.02.32,0-.51,1.62.31,2.88-.15,3.81Z"/>
  <path class="cls-6" d="M219.47,169.94l.55-2.11c.17-.6.28-1.72.03-2.22.54,1.73.73,3.77-.58,4.33Z"/>
  <path class="cls-6" d="M82.52,15.9c-.84.24-1.54.53-2.43.91-.6.26-1.46.1-1.87.7.13-.85,1.2-.74,1.73-1.09.93-.62,1.52-1.07,2.57-.52Z"/>
  <path class="cls-6" d="M188.96,154.51c.42-.58.83.53,2.27.12.47-.13.61-.59.86-1.13l-.06,1.5-1.79.18c-.5.05-1-.37-1.27-.66Z"/>
  <path class="cls-6" d="M70.14,24.95c-.64.26-.45.92-.51,1.53-.11,1.04-.75,1.94-.64,2.88l-.32-.03c.25-.46-.06-1.19.1-1.73.18-.61.57-1.1.49-1.82-.07-.62.48-.84.72-1.13l.16.3Z"/>
  <path class="cls-4" d="M185.31,67.69l.22-1.66c.08-.71.48-1.28.33-1.92.72,1.05.03,3.48-.55,3.58Z"/>
  <path class="cls-6" d="M218.1,155.76l-3.35.13c.93-.98,2.27-.59,3.35-.13Z"/>
  <path class="cls-4" d="M185.86,63.84c-.39-.44-.39-1.34-.04-1.79.2.52.04,1.26.04,1.79Z"/>
  <path class="cls-6" d="M121.44,2.58c-.4-.54-.82-.99-1.49-.8-.01-.13.26-.57.52-.49.55.17.83.83.97,1.29Z"/>
  <path class="cls-4" d="M178.72,85.76l.68-2.12c.15.78.01,1.7-.68,2.12Z"/>
  <path class="cls-4" d="M174.78,98.62c-.2-.02-.26-.22-.24-.38s.16-.3.24-.4v.78Z"/>
  <path class="cls-6" d="M83.48,16.42c-.35-.13-.55-.48-.8-.7-.15-.09-.08-.25.05-.28.42.36.61.64.75.98Z"/>
  <path class="cls-4" d="M179.68,83.17c-.02-.22.07-.42.27-.52-.09.19-.14.35-.27.52Z"/>
  <path class="cls-4" d="M183.55,71.83c-.12.04-.21-.03-.22-.16-.01-.14.13-.29.24-.36l-.02.51Z"/>
  <path class="cls-6" d="M77.7,18c-.05-.21.04-.45.26-.51.03.19-.07.43-.26.51Z"/>
  <path class="cls-4" d="M204.39,178.96c-.02-.22.07-.42.3-.49-.07.14-.07.41-.3.49Z"/>
  <path class="cls-4" d="M84.67,16.45c-.16.11-.35.27-.54.28.08-.21.3-.31.54-.28Z"/>
  <path class="cls-6" d="M207.25,150.64v-.26c.13.06.14.2,0,.26Z"/>
  <path class="cls-6" d="M206.99,151.16c.02-.1.16-.21.25-.26-.05.1-.16.19-.25.26Z"/>
  <path class="cls-4" d="M174.54,99.39l.23-.28c0,.11-.15.21-.23.28Z"/>
  <path class="cls-4" d="M173.74,100.15c.11-.23.3-.4.54-.5-.11.24-.28.43-.54.5Z"/>
  <path class="cls-6" d="M194.56,166.09c-.06.04-.39,0-.39-.11,0-.18.14-.46.19-.57.69-.14,1.27-.63,2.13-.43-.37.87-1.24.92-1.92,1.11Z"/>
  <path class="cls-6" d="M216.24,165.25l-1.57.52c.16-1.01.99-1.23,1.89-1.44.12.13.26.28.06.46-.11.1-.39.33-.39.46Z"/>
  <path class="cls-6" d="M199.38,163.63c-.54,1.01-1.57,1.32-2.35,1.06.96-.49,1.33-1.34,2.35-1.06Z"/>
  <g>
    <path class="cls-2" d="M25.37,35.2c.36.53.94.46,1.49.68l1.11.45c-.21.61-1.57-.03-2.05.69-.98,1.47.23,3.24-1.28,3.72.51,1.37.67,2.69.47,4-.32.19-.8.26-.98.82-.24.75-1.03.86-1.53,1.3-.38.34-.5.83-1.06.78-.64-.06-1.12.48-1.62.9l-2.48,2.08c1.79.59,2.26-1.99,3.85-1.93.81.03.87-.4,1.17-.8.58-.77,1.79-1.02,2.77-1.08-.33,1.34-.03,3.33,1.42,3.45,1.18.09,2.49,1.21,4.78,1.31.73.03,1.35-.07,2.06.18-.55,1.06-1.49,1.38-2.62,1.86-.56.24-1.02,1.47-1.63,1.58-.85.14-.95.57-1.46.95l-6.7,4.96c-1.81,1.34-3.44,2.87-5.48,3.86-.12-1.75.45-3.48.47-5.25.02-1.43-1.94-1.72-2.93-1.3-1.21.52-1.5,1.01-1.83,2.23-.14.52-.86,1-.39,1.87.13.25.11.86.14,1.24-.47.14-.94-.18-1.03-.63-.02-.08-.05-.15-.1-.23.26-.03.42-.21.43-.39.02-.32-.3-.46-.61-.48l-5.25-.4c-.99-.08-2.04-.12-2.73-.86-.42-.45-.72-1.21-.54-1.82.11-.36.56-.78,1.01-.97.7-.29,1.2-.72,1.54-1.6-.89.08-1.57.47-2.07,1.07-.31.03-.66.14-.91-.21-.11-.16-.21-.42-.42-.61-.2-.8-.45-1.51.36-2.33-.28-.48-.9-1.39-.69-1.89.44-1.08.02-2.29.86-4.87.25-.78,1.52-.62,2.08-.68,1.01.47,2.73.47,3.12-.29l2.05.78,4.1.08,1.32.47c.27-.8.44-1.71,0-2.32l.17-1.44c-.23-.74-.72-1.56-.32-2.31.47-.87.55-1.7.01-2.59-.28-.46.27-1.07.27-1.46,0-.99.53-1.47,1.09-2.04.93-.93,2.3-1.43,3.68-.73,1.05.53,2.16.47,3.3.42,1.25-.05,2.5.28,3.59-.21Z"/>
    <path class="cls-4" d="M40.05,50.45c.06.16.4.31.45.48.22.74-1.33,1.63-.24,3.53l.13,2.13c.05.85.04,1.45-.26,2.11.74,1.35.84,3.62-.87,4.3-.88.35-2.25-.19-3,.33-.91-.38-1.89.06-2.85-.02-1.12-.09-2.1-.43-3.11-.23l-.49-.12c-.31-.07-.64-.12-.83.01-.31.22-.18.79-.24,1.12l-.66,3.66c-.15.82.33,1.7.17,2.51-.65.54.26,2.15-.51,3.2-.51.7-1.48,1.61-2.41,1.88l-2.97-.4c-.51-.07-.89.49-1.28.71-1.43-.35-2.7-.45-4.16-.54l-1.94-1.2c-.24,1.11-2.65.84-2.91.61-.2-.18-.24-.77-.38-1.09-.77-.32-.92-.94-1.05-1.58.17-.76-.26-2.17.41-2.79.78-.7,1.96-.86,2.29-1.9.9.04,1.37-.91,2.25-1.08-.16,1.35-1.26,2.33-.63,4.62,1.23-.17,2.36.57,3.48.5.89-.05,1.5-.66,2.5.04.56.39,1.9.4,2.41-.23.48-.59.01-1.82.34-2.43.59-1.1.8-3.55.51-5.06-.17-.92.35-1.95.37-2.88,1.02-.84,2.18-1.85,3.3-2.56.74.75,1.46.54,2.3.24,1.22-.44,2.58.43,3.71.62.96.16,1.64-.39,2.7,0-.43-.74.21-1.39.24-1.92.07-1.11-.37-2.15.08-3.34.2-.54.1-1.22.08-1.74,1.36-.28,1.5-1.72,3.07-1.48Z"/>
    <path class="cls-5" d="M40.05,50.45c-1.57-.24-1.71,1.2-3.07,1.48-.55.05-.91.27-1.2.97l-1.41,1.04c-.61,1-1.53,1.05-2.5,1.22-.45.31-.88,1.32-1.73,1.27-.6-.03-.77.83-1.07.95-.5.2-.92.51-1.21.69-1.12.71-2.28,1.72-3.3,2.56-1.58,1.31-3.01,1.57-4.1,2.96-.52.66-1.82.75-2.51,1.25-.81.6-1.46,1.05-2.37,1.23s-1.35,1.12-2.25,1.08l.16-.71,1.25-.7c.25-.14.87-.46.84-.82,2.03-.99,3.66-2.52,5.48-3.86l6.7-4.96c.51-.38.61-.81,1.46-.95.61-.1,1.08-1.34,1.63-1.58,1.13-.48,2.07-.8,2.62-1.86.26-.5,1.3-.61,1.73-1.02l.91-.88c.94-.26,1.77-.64,2.18-1.47.25.08.86-.21,1.04.25l.72,1.81Z"/>
    <path class="cls-4" d="M29.1,44.81l-.26,2.43,2.62.22c1.51.56,2.73.46,4.28.2.79-.13,1.92.53,2.53.73-.41.83-1.23,1.21-2.18,1.47l-.91.88c-.43.41-1.47.52-1.73,1.02-.7-.25-1.33-.15-2.06-.18-2.3-.1-3.61-1.22-4.78-1.31-1.45-.11-1.74-2.11-1.42-3.45.13-.53.84-1.36,1.44-1.5l2.45-.51Z"/>
    <path class="cls-4" d="M28.82,42.64l-3.71,2.11c.2-1.31.04-2.63-.47-4,1.51-.48.3-2.25,1.28-3.72.48-.72,1.85-.08,2.05-.69,1.91.78,1.42,3.78.85,6.31Z"/>
    <path class="cls-5" d="M28.82,42.64c-.13.56.11,1.58.29,2.17l-2.45.51c-.6.14-1.31.97-1.44,1.5-.98.06-2.19.31-2.77,1.08-.35.04-.71,0-.91-.25.56.05.68-.44,1.06-.78.5-.44,1.28-.55,1.53-1.3.18-.55.66-.62.98-.82l3.71-2.11Z"/>
    <path class="cls-6" d="M25.37,35.2c-1.08.49-2.34.15-3.59.21-1.13.05-2.25.11-3.3-.42-1.39-.7-2.75-.2-3.68.73.26-1.11,1.87-1.9,3.17-1.43,1.7.61,3.07.96,4.95.59.66-.13,1.9.12,2.44.32Z"/>
    <path class="cls-6" d="M1.7,57.44c.19-.02.47.31.53.53-.45.18-.9.6-1.01.97-.18.6.12,1.36.54,1.82.69.74,1.74.79,2.73.86l5.25.4c.31.02.63.16.61.48-.01.18-.17.37-.43.39.07-.12-.25-.64-.4-.55-2.3.36-7.34-.46-8.19-1.32s-.52-2.69-.94-4.39c.2.19.31.46.42.61.24.34.6.24.91.21Z"/>
    <path class="cls-6" d="M11.04,63.74c.01.16.3.56.08.74-1.35,1.16-.16,2.08-.08,3.76.9-.55,1.56-1.27,2.46-1.78l-.16.71c-.33,1.03-1.51,1.2-2.29,1.9-.68.61-.25,2.03-.41,2.79-.2-.96-.58-1.95-.07-3.05.4-.85-.21-1.41-.26-2.19l-.19-2.94c0-.14-.31-.34-.4-.49-.04-.06.19-.22.28-.09.09.45.56.77,1.03.63Z"/>
    <path class="cls-6" d="M29.82,62.97c-.98.45-.71,1.26-.86,2.13-.24,1.35-.69,2.47-.42,3.93.08.43,0,1.02-.28,1.25.16-.81-.32-1.69-.17-2.51l.66-3.66c.06-.33-.07-.9.24-1.12.19-.14.52-.09.83-.01Z"/>
    <path class="cls-6" d="M8.15,47.33c1.06-.63,2.62.3,3.81-.7.26.41.9.67,1.23.39.45-.38.34-1.04.39-1.46.43.61.26,1.52,0,2.32l-1.32-.47-4.1-.08Z"/>
    <path class="cls-6" d="M36.27,63.33c-1.03.72-4.19.31-5.96-.24,1.01-.2,1.98.14,3.11.23.97.07,1.94-.37,2.85.02Z"/>
    <path class="cls-6" d="M6.1,46.55c-.39.76-2.1.76-3.12.29,1.04-.11,2.18-.65,3.12-.29Z"/>
    <path class="cls-4" d="M15.59,64.96c.02.35-.59.68-.84.82l-1.25.7c-.9.5-1.56,1.22-2.46,1.78-.08-1.68-1.27-2.61.08-3.76.22-.19-.07-.58-.08-.74-.03-.38,0-.99-.14-1.24-.47-.86.25-1.34.39-1.87.34-1.22.62-1.71,1.83-2.23.99-.42,2.95-.14,2.93,1.3-.02,1.78-.58,3.51-.47,5.25Z"/>
    <path class="cls-6" d="M21.53,47.64c.2.26.56.29.91.25-.3.4-.36.83-1.17.8-1.58-.07-2.06,2.52-3.85,1.93l2.48-2.08c.5-.42.98-.96,1.62-.9Z"/>
    <path class="cls-5" d="M2.22,57.97c-.06-.23-.34-.55-.53-.53.49-.6,1.18-.99,2.07-1.07-.33.88-.83,1.31-1.54,1.6Z"/>
    <path class="cls-1" d="M24.57,60.65c-.02.92-.55,1.96-.37,2.88.29,1.51.07,3.96-.51,5.06-.32.61.14,1.83-.34,2.43-.51.63-1.85.62-2.41.23-1-.7-1.61-.09-2.5-.04-1.12.07-2.24-.67-3.48-.5-.63-2.29.47-3.26.63-4.62.91-.18,1.56-.63,2.37-1.23.69-.51,1.99-.59,2.51-1.25,1.09-1.39,2.52-1.65,4.1-2.96Z"/>
    <path class="cls-2" d="M36.98,51.93c.02.52.13,1.2-.08,1.74-.45,1.19,0,2.24-.08,3.34-.03.53-.67,1.18-.24,1.92-1.07-.38-1.74.16-2.7,0-1.13-.19-2.49-1.06-3.71-.62-.85.3-1.57.51-2.3-.24.29-.18.71-.49,1.21-.69.3-.12.47-.99,1.07-.95.85.05,1.28-.96,1.73-1.27.97-.17,1.89-.22,2.5-1.22l1.41-1.04c.29-.71.65-.93,1.2-.97Z"/>
  </g>
  <path class="cls-2" d="M190.98,167.94l-.34-.16.39-.55h.8c.71-.29,1.16-.98,2.14-1.09-.82.97-1.84,1.69-2.99,1.79Z"/>
  <g>
    <path class="cls-1" d="M87.01,25.97l.7.02c-.06.34.09.53.42.54.26,0,.56.01.65-.29l.48.06c.06.12.3.25.41.19.15-.07.2-.36.16-.49l.96.02c-.03.24.3.67.62.64,1-.1,1.44.58,2.16.92.91.43,2.05.13,2.9.21l.28.03c-.04.07-.03.27.03.34.08.09.26.17.47.19,1.06-.03,1.98.16,2.86.74,1.01-.49,1.83.07,2.46.89l3.34.52c.94.15,1.74.61,2.61.37l.28.02c-.18,1.55,1.21-.3,2.32,1.08,1.79.71,4.82.84,5.64,1.38,1.45.96,3.21,1.09,4.96,1.5,2.11.5,4.02,1.57,6.18,1.75.66.06,1.34.71,2.08.41.18.46.65.7,1.08.8-1.18.65-2.14,1.67-3.4,2.33l-2.55,1.34c-.45.24-.98.5-1.3.65-.6.28-.95.69-1.75,1.29.71.39,1.44-.2,1.96-.76l.55.04c.18.01.39-.03.54-.13,1.37-.86,2.74-1.6,4.34-2.22,1.43-.55,2.58-2.05,4.23-2.4.5.23,1.33,1.2,1.84,1.1,1.23-.28,1.29.42,1.92.77,3.42,1.92,6.64,1.08,8.03,2.84,1.63-.04,2.62,1.16,4.11,1.43-.03.25-.23.52-.54.72l-1.39.88c-1.13.41-1.9,1.17-2.97,1.67-.77.36-1.83.93-2.32,1.49-1.12.05-1.33,1.07-2.4,1.51,1.16.26,1.98-.45,2.6-1.16,1.02-.07,1.83-.6,2.86-1.09.69-.71,2.16-.73,2.82-1.31,1.16-1.01,2.21-1.51,3.57-2.11,1.41.53,1.51,1.34,2.84.9l2.46,1.89,2.93.96c2.79.91,8.85,3.89,10.1,3.52.26-.08.74.18.87.33.14.17.23.48.2.74-.77.74-1.9,1-2.85,1.59-.72.45-1.29.81-2.11.9-.76.08-1.03,1.3-2.33,1.4-.72.05-1.4.44-1.52,1.22,1.62-.32,2.98-1.11,3.92-2.22.51.23,2.07-.63,3.42-1.2.79-.33,1.35-.71,1.45-1.57.71.56.96,1.67,1.54,2.39.5.61.26.94.36,1.59.17,1.08.82,2.27,1.23,3.29l1.78,4.41c.6,1.5,1.55,3.14,1.94,5.49.77,1.12,1.04,1.98.19,3.23-.25.37-.06,1.2-.11,1.59l-.04.33c-.83,1.19-1.28,2.65-1.24,4.11,0,.35-.22.67-.25.98-.45.12-.43.46-.52.83l-1.06,4.03c-.66.22-.62,1.03-.72,1.64-.12.71-.74,1.27-.52,2.05-.9.73-1.32,1.86-1.12,3l-.05,1.24c-.61.33-.72,1.03-.67,1.68.02.22-.02.5-.08.71-1.55.34-.52,2.02-1.64,3.23l-.35,2.44c-.05.67-.73.64-1.25.89-.82.39-1.58,1.33-2.55,1.25-1.38-.11-1.67,1.03-2.65,1.47l-2.11.96c-.32.14-1,.58-1.34.7-1.73.64-3.57,1.32-5.05,2.49-.9.77-1.86,1.47-3.13,1.5-.74,1.01-1.87,1.34-2.87,1.86-.63-1.6,1.04-3.17,1.08-4.62.03-1,.11-1.5.59-2.33l.63-2.7,1.48-2.94c.2-.4.57-.9.34-1.4-.78-1.69,1.23-2.63,1.71-4.73l.97-4.2,1.98-5.72c.3-.85.13-1.76.44-2.63l.84-2.31c.56-1.55.65-3.38.85-5.08l-1.44-2.81-.69-2.81c-.95-.82-1.19-1.99-1.3-3.23-1.04-.61-1.54-1.53-1.7-2.79-1.3.25-1.95-.06-2.79-.83-.44-.41-1.73.16-2.24-.09-.91-.44-1.78-1.03-2.71-1.06-.8-1.78-2.95-.49-4.86-1.66-.29-.17-.5-.86-1.07-.71-1.14.3-2.44.07-3.19-.98-.76-.12-1.65.2-2.37-.19-.4-.22-1.24-.44-1.56-.74-.9-.86-1.99-.81-3.19-1.04-.47-.09-.88-1.07-1.83-.75-1.45.5-4.38-.61-5.73-1.65l-2.64-.15c-.76-.66-1.8-.64-2.6-1.03-.9-.45-1.29-.73-2.39-.81l-3.2-1.35c-2.18.46-3.92-.42-5.6-1.57-.81-.16-2.49.22-3.11-.45-.71-.76-1.08-.54-2.04-.68-2.39-.33-4.76-1.11-7.05-1.9-1.25-.43-2.33.05-3.52.62l-3.3,1.61c-1.31.64-3.05.92-4.02,2.17-1.16,1.5-2.12,3.02-2.81,4.87l-2.2,5.87c.45.91-.04,1.67-.89,2.15-.14,1.51-.58,2.83-1.36,4.12.36,1.21-.04,2.27-.91,3.16.02.96-.55,1.62-.86,2.43l-.12,2.21c-.94.6-1.28,1.5-.91,2.65-.97.78-1.24,1.87-.99,3.09-.93.94-1.53,1.98-1.4,3.29-1.54,2.13.22,5.01-2.32,6.8.27,2.26-1.05,2.91-1.04,4.33-.81,1-2.13,1.13-3.17,1.74-.7.42-1.09,1.3-1.93,1.7-.61.29-1.22.7-1.87,1.31,1.3.25,2.11-.64,2.95-1.3l2.02-1.59c.42-.33,1.09-.21,1.45.15-.67,1.11-.95,2.42-1.09,3.83l-.65,1.15-.95,3.52c0,1.43-.48,2.15-.88,3.38l-1.12,3.45-1.05,3.61c-.26.9-.59,1.8-.9,2.74l-1.1,3.31c-.37,1.1-.7,2.08-.72,3.15l-.02.54s-.21-.06-.29-.03c-1.9.73-2.4,1.96-3.53,2.28-.8.22-1.53,1.04-1.86,1.89-1.15-.11-2.8,1.01-3.22,2.06-.79-.25-1,.45-1.42.68l-2.51,1.39c-.76.42-1.83,1.08-1.73,2.02-.52.12-.86.53-1.36.52-.04-.09-.15-.21-.23-.26-.15-.1-.28,0-.31.1-.03.12.03.37-.02.44l-.62.92s-.13-.01-.17,0c-.22.08-.29.33-.24.53-3.02-.37-3.8,3.66-6.87,3.75l.26-1.65c-.16-1.04.27-1.5.68-2.31l.28-2.32-.02-.54c.23.09.47-.02.48-.17l.04-.73c.63-1.45.91-2.87,1.08-4.41l.85-.59c-.99-1.14.22-1.91.37-2.69.29-1.52.03-3.15,1.68-4.02-.25-.99-.27-1.89.15-2.75l1.28-2.65v-.26c.11.03.31.03.4-.02-.16-.99-.1-1.76.12-2.54l.15-.55c.12.03.29.05.46,0,.15-.05.24-.32.17-.51,1.18,0,1.24-1.03,2.06-1.26,1.28.07,3.1-.98,3.05-2.09.47-.45,1.1-1.21,1.74-1.25l.69-.04c.16,0,.18-.41.16-.58,1.41-.86,2.55-2.33,3.55-2.49.15-.02.39.03.53-.15.06-.08.08-.27.1-.37.13-.49.85-.93,1.32-1.17l2.08-1.05c.74-.37.97-1.44,1.98-1.65.35-.07.78-.51.65-1.14-.73.37-1.62.51-2.36,1l-4.77,3.21c-.94.63-1.57,1.23-2.74,1.45l-1.34,1.39c-.79.27-1.17.72-1.79,1.1-1.19.73-2.4,1.26-3.51,2.19-.15.12-.6.22-.76.17s-.18-.44-.2-.6c.03-.69.26-1.53.21-2.3-.07-1.05-.33-2.02.77-2.76.19-.13.51-.51.52-.73.01-.25-.37-.67-.29-.95l.42-1.42c-.12-.87.54-1.22.96-1.63.1-2.6,1.71-5.31,2.16-7.57.27-1.37.63-2.55,1.73-3.56.2-.85-.31-2.39.32-3.23,1.15-1.52,1.02-3.13,1.14-3.7.22-1.07.87-2.26.99-3.46.02-.25.74-.5.68-.75-.05-.23-.11-.63-.35-1.02,1.2-.51,1.53-1.66,1.29-2.97.84-.74,1.18-1.69,1.11-2.8.21-.95.25-2,.87-2.74.54-.65.52-1.26.73-1.92.63-.28.81-1.04,1-1.8.11-1.39.62-2.54,1.68-3.52-.07-1.26.2-2.38.92-3.43.07-1.11.16-2.25.92-2.92.2,1.33,1.48,2.02,2.89,1.87.62-.07,1.29-.17,1.65-.54.84-.86-.08-3.34,1.72-4.85.21-.18.22-.58.06-.66-.09-.22.24-.61.49-.58.91.1,1.29-.72,1.83-.96,1.03-.46,1.72-.51,2.55-1.46.25-.29,1.21-.24,1.28-1.17l-1.6.15c-.56,1.26-3.38,1.95-3.91,2.4.8-1.54,1.03-3.11,1.21-4.87.12-1.19,1.94-4.19,2.87-8.4.23-1.05,1.04-1.94.89-3.18,1.58.5,2.25-.04,3.18-.75.69-.52,1.54-.71,2.13-1.48.26-.35,1.15-.21,1.5-.3.42-.11.44-.64.39-.87.13-.12.32-.29.5-.33.79-.18,1.64-.21,2.29-.71.46.37,1.03.06,1.44-.47.55-.03,1.1-.26,1.05-.75l.37-.12c.2.37.7.24,1.07.26ZM77.43,43.26c-1.24.08-1.72.87-2.68,1.41,1.08.16,2.13-.56,2.68-1.41ZM159.83,59.56l2.14-.86c-.44-.52-2.72.48-2.78.67-.04.12-.01.27.06.32.1.06.33-.03.58-.13Z"/>
    <path class="cls-1" d="M168.78,104.04l-.93,3.29c-.14,1.56-.78,2.75-1.14,4.2-.15.62.15,1.37-.32,2.11-.56.88-.42,2.02-.71,2.95l-.86,2.69c-.69,2.16-1.21,4.51-2.04,6.21l-.12,1.42-1.59,4.84-1.86,5.61-.32,2.38c-.15,1.1-.73,2.36.6,3.1l1.48.37c-.33.35-.67,1.25-.78,1.76l-.45,1.96-.54,1.7c-.46,1.46-1.04,3.42-1.15,4.31-.07.57-.47.94-.57,1.49l-.83,4.62c-.06.34-.56.53-.9.72.07,1.41-.52,2.89-.74,4.26-.13.81-.47,1.05-.65,1.76l-.93,3.82c-.46.72-.27,1.29-.64,2.13l-1.49,3.44-.13,2.27c-.05.81-.12,1.38-.49,2.13l-.7,1.41c-.2.4-.48,1.18-.58,1.64l-.46,2.06c-.22,1-.35,1.89-.91,2.79-.78,1.27-.86,2.67-1.21,4l-.5,1.9c-.19.71-.83,1.39-.66,2.34.04.24-.39.5-.56.52l-.83,2.72c-.26.86-.75,1.49-.62,2.43-.12.05-.22.17-.29.25,0,.08-.03.19-.04.26-.97.11-1.57.55-2.29,1.34l-2.24,1.2,2.59-.73c.36-.24.56-.92,1.31-1.03.22.62.03,1.27-.08,1.8-.34,1.69-.2,2.69-.86,2.96-.79.1-1,1.16-2.75,1.19-.68,1.14-2.12,1.4-3.02,2.13s-1.58.82-2.54,1.44l-2.14,1.36c-1.03.66-1.96,1.36-3.26,1.61-.13.91-.66,1.45-1.65,1.21l-2.47,1.82c-.61.82-1.2,1.04-1.93,1.53-1.08.73-1.87,1.4-3.27,1.66l-1.8,1.64c-1.38.42-2.14,1.16-3.16,2.1l-3.38,1.71c-.61.63-.82,1.03-1.48,1.43-.52-.33-1.12-.49-1.75-.67l-4.23-1.2-.88.19c-.21.05-.5-.41-.6-.96-1.15.4-2.11.09-3.04-.7-1.62-.02-3.14-.49-4.54-1.44-.99.44-1.83.3-2.29-.73-1.22.2-2.15-.15-3.19-.67l-2.05-.23c-.49-.48-.79-1.06-1.53-.95.67-.2,1.16-.93,1.77-1.36l1.77-1.26c.87-1.13,2.04-1.42,3.14-2.09l2.01-1.82,1.78-1.1c.9-.56,2.71-2.75,4.26-2.86.3-.29.6-.71.92-.83l.31.47c2.11.05,3.94,1.06,6.01,1.31,1.12.13,2.86-.77,3.58-1.4l1.19-1.04,1.64-.88c1.05-.56,1.75-1.31,2.81-1.88l1.95-1.05c1.03-.55,1.59-1.07,2.64-1.36.98-.28.99-2.12,1.37-2.84.5-.95,1-1.49.73-2.62l1.29-1.38.23-2.29c.39-.63.86-1.13.75-1.74-.03-.18.07-.4-.33-.55.15-.44.82-.95.96-1.49l.99-3.67.57-1.97c.24-.83.35-1.28.59-2.1l1.61-5.42c.39-1.3.36-3.81,1.76-4.8.23-.59.46-1.88.41-2.54-.06-.96.69-1.41.81-2.03.33-1.65.48-3.21,1.19-4.78.61-1.33.69-2.62.98-4.04.1-.5.97-1.06.65-1.89-.38-1.02.53-1.75.76-2.44l.78-2.36.79-3.38c.14-.59.39-1.52.81-2.04-.19-1.3.66-2.53,1.06-3.71.33-.97.38-3.74,1.94-5.41l-.3-1.77c.53-.62.94-1.42.87-2.22-.08-1,.61-1.41.9-2.21.27-.72-.21-1.96.44-2.65.79-.84,1.13-1.74,1.36-2.83l.5-2.33.78-2.33c.37-1.12,1.23-2.34,1.01-3.63-.31-1.83.79-2.23,1.46-3.96.11-.28.58-.56.43-1.04,1.01.15,1.82-.29,2.58-.97,1.17-1.04,2.61-1.29,3.85-1.91,1.05-.53,1.91-.76,3.09-1.14l2.08-1.45c.62-.43,1.73-.5,2.37-.86,1.35-.77,2.45-1.5,3.82-2.16.68-.33,1.22-1.25,2.2-.73ZM130.01,189.27c0-.16-.13-.29-.29-.29s-.29.13-.29.29.13.29.29.29.29-.13.29-.29ZM129.14,189.95c-.79.12-1.41,0-1.77.75.71-.03,1.24-.42,1.77-.75ZM129.82,210.39c.81.08,1.03-.54.96-.75-.51-.18-1.11.57-.96.75ZM129.43,210.65c0-.12-.1-.22-.22-.22s-.22.1-.22.22.1.22.22.22.22-.1.22-.22Z"/>
    <path class="cls-1" d="M119.69,1.78h.26c.67-.18,1.1.26,1.49.8.1-.04.23-.04.3-.02-.01.08.17.3.26.27,1.02-.28,1.83.55,2.81.75l3.65.74-4.71,2.87c-.51.29-1.08.31-1.34,1.14,2.09.29,4.36-2.29,7.3-3.07,1.08-.29,2.16.44,3.09.46.71.21,1.43.75,2.1.88-.27,1.47,1.06,1.81,2.39,3.32.76.86,2.11.67,3.07,1.02l3.04,1.14c.84.31,1.5.94,2.42.89l-2.71,1.34c-1.4.23-2.29.62-3.26,1.5-1.08.98-2.69,1.22-3.91,1.96-1.32.81-2.54,1.64-3.89,2.34-.93.49-1.94.64-2.32,1.77-.16-.08-.31-.06-.41,0-.14.07-.19.24-.13.38s.27.21.38.13c.11-.08.13-.18.16-.26.74-.61,2.16-.81,3.01-1.39,1.35-.93,2.46-1.77,4.27-1.95l1.67-1.06c1.64-.26,2.77-.94,4.06-1.93l3.14-1.37c.65-.6,1.22-.46,1.74-.7.67.36,1.32.43,2.12.53l1.66.8c1.38-.09,2.07.97,3.09,1.25,1.12.31,2.19.38,2.39,1.94.16,1.24.72,2.43,1.98,3.13l.43,1.85c.87.5,1.15,1.38.95,2.37l-.53,2.61c-.14.68-.41,1.49-.7,2.05-.36.67-.16,1.12-.36,1.67l-1.2,3.29-1.45,5.76-1.25.53c-.28-.92-1.06-.89-1.78-1.18-.85-.34-1.52-.96-2.54-1.05-1.64-.16-3.19-1-4.71-1.31-1.28-.26-2.05-.31-3.03-1.28-.89-.88-3.2-.63-3.77-1.35l2.46-1.75c.55-.39,1.18-.21,1.8-.82.47-.46,1.79-.28,2.25-1.44-1.1.02-2.61.42-2.51,1.18-.68-.23-1.15.49-1.63.63-.71.21-1.38.6-2.05,1.09l-.81.09c-.15.02-.27.22-.18.47-.35.03-.97-.14-1.26.06-.36-1.05-2.22-.28-3.34-1.15-.53-.41-.95-.84-1.59-.75-.21.03-.6-.04-.79.07-.16-.75-.83-.74-1.45-.89l-2.55-.61c-.64-.15-1-.72-1.81-.77-1.16-.07-2.28-.62-3.39-.93l-8.61-2.4c-.77-.22-1.61-.48-2.25-.13-.29-.1-.67-.15-.91-.36-.65-.59-3.07-.81-4.55-1.7.1-.12.15-.44.16-.6.59-.22.69-.81.98-1.39.94-1.89-.21-2.76,1.45-3.63.25-1.38.63-2.7,1.13-4.04l1.18-3.19c.85-1.28.71-2.69,1.78-4.67.73-1.35,1.05-2.35.65-3.96-.2-.77-.47-2.15-1.61-2.11l-1.83.78c-.03-.24-.16-.92.13-1l2.01-.58c.55-.16,1.22-.45,1.71-.06.67.53,1.32.27,1.99.42l2.93.64c.39.09,1,.55,1.3-.02ZM128.23,22.44c-.22.29.09.54.32.47.11-.03.27.07.39-.16.11-.19-.04-.35-.14-.38-.14-.04-.49-.04-.57.06ZM127.79,22.9l-.13.13.13.13.13-.13-.13-.13Z"/>
    <path class="cls-4" d="M31.85,167.09l-.95,1.85c-.17,2.05-.41,4.36-1.19,6.06-.4.87-.37,2.01-.76,2.91l-1.69,3.9c-.42,2.25-.89,4.27-2.02,6.29-.27.48-.23,1.6.1,1.97.84.95,1.24,1.76,1.49,2.98l.8.92c-.51.28-.87.53-1.28.99.68.18,1.04-.11,1.51-.33l1.43,1.59.58,1.98,1.32.75c.22,1.2.9,2.1,2.04,2.58.34,1.62,2.69,3.86,3.99,4.27l4.46,1.37c.74.23,1.19.59,1.9.75l4.37,1.05c.61.15.85.79,1.68.65s1.58.46,2.32.72l4.22,1.48c.87.31,1.55,1,2.61.99,1.28,0,2.27.53,3.43.9,1.66.54,3.37.66,4.8,1.74l-4.1,2.55c-.67.42-1.14.92-1.25,1.61-.72.3-1.37.82-2.17.81l-2.12-.04c-.85-1.9-2.26-.87-4.31-1.16-.68-.59-2.09-.47-2.69-.85-.68-.45-1.15-.52-2.09-.64s-1.82-.9-2.87-.87c-.72.03-1.3-.68-1.75-1.08-2.86.23-4.52-1.96-6.17-1.05-.9-1.43-2.82-1.41-3.65-1.76-.59-.25-1.14-.64-1.78-.35-1.05-.75-2.19-1.54-3.62-1.64l-.59-1.56c-.97.17-1.41-.62-2.02-.94-.7-.37-.99-.81-1.14-1.52l-1.09-.61c-.34-.19.21-1.03-.05-1.33l-2-2.34c-.3-.36-.19-.6-.66-.97-.56-.44-1.26-1.15-1.4-1.78.21-.1.44-.26.54-.57.32-1,1.79-.28,1.53-1.21-.16-.58-1.26.5-2.32.64-.13-.57-.02-1.23.21-1.86.17-.46-.27-.8-.36-1.06-.43-1.33,1.15-2.01,1.41-2.92l.9-3.19-.09-.86c-.02-.17.37-.35.67-.52.48-.27.42-1.13.23-1.54-.43-.91.08-1.23.44-1.89.65-1.16.31-3.3.92-4.49.56-1.08.71-2.21.69-3.38.26-.3.65-.77.55-1.29-.15-.78.36-1.38.47-2.05.09-.51-.31-1.05.44-1.43.62-.31.71-.87.57-1.44.54-.14.93-.51,1.31-1.04.72-1,3.12-2.69,4.23-2.75ZM24.44,196.05c.11.3.92.16,1.21,0,.37-.21.81-.45.59-1.23-.73.97-2.04.55-1.8,1.23Z"/>
    <path class="cls-1" d="M57.23,127.99c-.41,1.04-.5,2.22-.8,3.45l-.89,3.73c-.11.47-.56.68-.52,1.33.14,2.09-1.08,2.7-.99,3.83-.24-.05-.56.12-.5.33l.2.7c-1.06,1.93-1.6,1.54-1.88,1.72-.24-.41-.64-.32-.81-.16-.27.24-.35.53-.37.88l-1.8.89c-.52.26-1.02.4-1.09,1.09-.01.1-.14.22-.19.31-.31-.09-.69-.12-1.03.07-.21.11-.3.45-.25.71l-.23.17c-.63.05-1.35.29-1.34,1-.81.31-1.13,1.47-2.09,1.57-.24.02-.48.01-.72.14s-.19.47-.29.62c-.08.14-.39.29-.46.44-.09.19.02.46.29.34-.08.08-.19.21-.3.25-.68-.26-1.02.58-1.43.69-2.48.67-1.98.99-3.74,2.64-.57.41-1.5.61-1.55,1.49-1.08-.36-2.55,1.65-2.6,2.13-.68-.32-1.46-.12-2.18.08-.17-.2-.27-.52-.16-.68l.5-.68.64-2.61c.23-.95.19-1.79,1.14-2.24-.21-.54-.21-.94-.21-1.36.1-.34.61-.89.53-1.23-.23-.54.37-.98.4-1.35.08-.8.19-1.42.41-2.16.13-.44-.48-1.36.33-1.82-.12-.88.61-1.3,1.36-1.41.59-1.27,1.53-2.16,2.87-2.3.56-1.12,1.52-1.77,2.78-1.66.83-.96,1.8-1.6,3.1-1.78l1.54-1.26c.83-1.14,1.66-2.34,3.06-2.95l2.29-.45c-.07-2.81,1.49-1.8,3.73-3.42l.78.03.42-.72,2.05-.41Z"/>
    <path class="cls-3" d="M180.91,49.05c.36.2.7.28,1.08.29-.15,1.54.97,1.97.8,3.18-.08.57-.11,1.3.51,1.54-.01.07,0,.18.01.25.15.49.35.97.82,1.27-.03.07-.08.18-.06.27-.12.03-.25.13-.26.26-.02.14-.05.38,0,.51.47,1.28-.22,1.7.7,2.36l.32.23.25,1.27c.12.62.54,1.03.74,1.55-.35.45-.35,1.35.04,1.79v.27c.15.63-.25,1.21-.33,1.92l-.22,1.66c-.42.07-.43,1-.75,1.29-.75.68-1.23,1.38-.99,2.33-.11.06-.25.21-.24.36,0,.13.1.19.22.16,0,.76-.26,1.38-1.02,1.83l.31,1.27c-.86.82-.98,1.86-1.37,2.79-.14.34-.39.64-.23,1.08-.15.15-.33.57-.23.75-.25.16-.53.52-.53.8,0,.22.28.58.12.91l-.65,1.4c-.2.09-.29.3-.27.52-.1.12-.24.32-.29.48l-.68,2.12c-.22.69-.09,1.57-.15,2.38-.84.41-1.11,1.08-.9,1.97l-1.05.84c.42,1.5-.07,3.11-1.39,4.01l.25,1.68c-.51.32-.7.77-.71,1.19-.08.1-.22.23-.24.4s.04.36.24.38v.5s-.24.28-.24.28c-.08.06-.21.17-.25.26-.24.09-.43.27-.54.5-.09.02-.24.06-.34.04-.36-.06-.7.11-1.12.31l-.89.44c-.09.15-.96.03-.89-.24l1.37-4.94c.06-.21.1-.49.08-.71.76-.15.65-1.08.67-1.68l.05-1.24c.19.06.41-.05.41-.19v-.58c.15-.78.92-1.48.71-2.24s.4-1.34.52-2.05c.72-.16.57-1.06.72-1.64l1.06-4.03c.18.05.45-.05.47-.2l.05-.62c.03-.31.26-.63.25-.98.24.08.47-.06.47-.21l.02-.83c.03-1.12.62-2.07.75-3.07l.04-.33c.84-.16.79-1.28.96-1.88.33-1.2.05-1.73-.35-2.85l-1.03-2.86c-.31-.87-.1-2.28-.82-3.02-.62-.64-.5-1.58-.91-2.24-1.02-1.64-1.77-3.25-1.51-5.34-1.4-1-2.03-2.79-1.33-4.24.49.02.78-.37,1.24-.59l2.6-1.24,3.9-1.83ZM182.53,74.67c-.04-.32-.38-.23-.31.05-.09.58.53.43.31-.05ZM180.07,80.33l-.13.13.13.13.13-.13-.13-.13Z"/>
    <path class="cls-4" d="M166.85,38.06l1.67,1.13c.71.48,1.75.16,2.6.16.18,1.05.76,1.24,1.56,1.42l2.3.52c1.45.72,3.03,1.4,4.09,2.61l1.41,1.61c.69.79.91,1.47,1.28,2.24-1.01.73-2.38.72-3.46,1.34l-2.29,1.32-1.78,1.26c-.47.33-.85.6-1.05,1.03-.7,1.45-.07,3.24,1.33,4.24-.26,2.09.49,3.7,1.51,5.34.41.66.29,1.61.91,2.24.72.74.51,2.15.82,3.02l1.03,2.86c.4,1.12.68,1.65.35,2.85-.17.6-.12,1.72-.96,1.88.05-.39-.14-1.23.11-1.59.85-1.25.58-2.11-.19-3.23-.39-2.36-1.33-4-1.94-5.49l-1.78-4.41c-.41-1.03-1.06-2.21-1.23-3.29-.1-.65.14-.98-.36-1.59-.58-.71-.83-1.83-1.54-2.39v-.12c.04-.26-.04-.58-.19-.74-.13-.16-.61-.41-.87-.33-1.25.37-7.31-2.61-10.1-3.52l-2.93-.96-2.46-1.89c-1.33.44-1.43-.36-2.84-.9l3.89-1.74c1.17-.52,2.33-1,3.33-1.8.8-.65,1.87-.45,2.54-.8,1.04-.55,1.72-1.26,3-1.49.7-.12,1.45-.88,2.25-.81Z"/>
    <path class="cls-3" d="M105.89,24.6c-.01.16-.07.47-.16.6-.28.29-.15.68.07.92.51.56,1.32.06,2.41.47.72.27,1.39.38,2.07.31.24.22.62.27.91.36.47.79,1.57,1.15,2.55.94.48-.1.76.31,1.02.37l3.93.9c1.39.32,2.71.38,3.68,1.62,1.66-.25,3.24.02,4.62.99.46.17,1.54-.18,1.99.31.65.72,1.44,1.05,2.28.61.19-.1.58-.04.79-.07-.11.44.36.47.61.64,2.04,1.38,2.8.83,3.28,1.51-.36.73-1.3,1.09-2.07,1.53-.58.33-1.02.72-1.58.81-.67-.5-1.58-.68-2.3-.39s-1.42-.36-2.08-.41c.03-.37-.17-.61-.6-.71l-2.97-.71-.54-.94c-4.66.76-7.51-2.39-10.31-2.25-1.01.05-1.99-.24-2.56-1.07l-2.13-.03-.28-.02c.02-.07.03-.28-.03-.34,0,0-3.82-.92-5.89-1.03-.95-1.17-2.26-1.33-3.68-1.55-.75-.12-1.49-.58-2.18-.15l-.28-.03c.05-1.34-2.65.58-3.37-1.45l-2.31-.31-.96-.02-.62-.04c-.24-.23-.4-.47-.5-.73-.15-.39,2.13-1.73,2.92-1.66.16.02.38,0,.49-.05.14-.07.23-.3.22-.47.1-.02.21-.06.3-.11l.31-.04c.19-.03.22-.27.2-.45l1.49-.3c.17-.03.46.08.65-.05.21-.14.12-.43.16-.59.06-.2.42-.46.62-.51l.65-.16c.12-.03.23-.15.32-.24.16-.13.34-.22.54-.27.02.3.35.37.57.23.16-.1.14-.4.17-.52l2.05-1.26c1.47.06,1.63.55,2.41.45l.98-.14c.21-.65.22-1.26.19-1.84.13-.34.56-.76.83-.95,1.29-.9,2.54-1.72,4.18-2.52.51.79.34,1.74-.28,2.5s-.32,1.96-.86,2.76c-.33.49-1.2.6-.98,1.58.4,1.76-.84,2.6-.95,3.98ZM101.78,24.45l-2.59-.66c-.74-.19-1.24-.7-2.2-.52.11,1.61,2.81,2.07,4.79,1.18Z"/>
    <path class="cls-3" d="M95.47,18.51c.14.29.48.33.79.24.21.08.65-.03.84.06s.26.43.24.66c-.44.25-.73.65-1.37.51-.58-.13-1.48-.01-1.53.68-.01.18-.12.31-.2.44-.2-.03-.48-.06-.68.02s-.21.45-.11.62l-.34.1-.62.32c-.22-.03-.48.16-.65.24-.52-.01-1.13.17-1.39.68-.4.79-1.57.69-2.23,1.08-.89.52-1.39,1.06-2.58.83-.22-.04-.38.69-.24.83l-.75-.03c-1.42.31-3.55,1.13-3.86,1.98-.18.04-.37.21-.5.33-2.9.36-3.45,3.45-6.19,1.51-.95.84-1.42,1.57-1.69,2.75-.2.84-1.01,1.74-.95,2.66.09,1.36-.57,1.94-1.65,2.49-.67.34-1.29.83-2.16.25-.83-.55-.75-3.24,1.09-4.01-.34-.69-.46-1.31-.27-1.89,0-.03.02-.06.01-.1l.42-1.13c.21-.58.12-.86.08-1.27-.1-.94.53-1.84.64-2.88.07-.6-.12-1.27.51-1.53.56-.17.74-1.08,1.27-1.38.92-.52,1.81-1.46,2.78-1.81,1.3-.46,2.65-.83,3.61-1.9.25-.27,1.21-.16.91-.87.41,0,.74-.2,1.1-.39.8-.42,1.87-.44,2.51-1.07.43-.43.99-.73,1.55-.77l.26-.02c.18-.01.38-.17.54-.28l3.86.5c.84.11,1.39.53,2.28.62.8.08,1.7.08,2.5.3.75.2,1.37.86,2.15.63ZM85.84,21.01c-.61-.44-1.01-.16-1.3.08-.2.17-.43.54-.3,1.04.6-.24.94-.59,1.6-1.12ZM82.11,22.64c0-.16-.13-.29-.29-.29s-.29.13-.29.29.13.29.29.29.29-.13.29-.29ZM75.81,29.46h-.17s.17,0,.17,0h.34s-.17,0-.17,0h-.17Z"/>
    <path class="cls-4" d="M136.74,224.58c-.27.89-.18,2.29-.79,3.18-1.11,1.63-3.38,2.22-5.25,2.26-.59,1.34-2.55,1.51-3.94,1.91-.64.18-1.26.75-2.05.45-.49.38-.7,1.11-1.25,1.35l-2.91.19c-.18.24-.29.87-.56.91-.21.03-.88-.1-1.08.06-.73.57-1.55.91-2.47,1.19-.98.3-1.81.91-3,.67l-5.17-1.08c-.75-.16-1.29-.93-2.27-.79-.36.05-.63-.34-.72-.55,3.01-1.03,4.12-4,7.42-4.62,2.22.51,3.16-.67,3.43-.75l3.31-1.04c.98-.72,1.89-1.36,3.16-1.47l2.1-.94c.7-.31,1.27-.38,2.01-.62l3.33-1.07c1.93-.62,3.31-2.24,6.51-.46.25.3.15.97.2,1.23Z"/>
    <path class="cls-4" d="M84.82,220.89c.73-.1,1.03.48,1.53.95l2.05.23c1.04.52,1.97.87,3.19.67.46,1.03,1.3,1.17,2.29.73,1.4.95,2.92,1.42,4.54,1.44.93.79,1.89,1.1,3.04.7.11.55.39,1,.6.96l.88-.19,4.23,1.2c.63.18,1.24.34,1.75.67l-3.05,1.81c-.7.42-1.11,1.13-1.99,1.37-1.97.56-2.45,1.93-3.45,1.86l-1.92-.73c-.97-.37-1.66-.8-2.74-.93l-2.88-1.38c-.4-.19-.87.24-1.28.55-.8-1.01-1.99-.81-3.01-1.21-1.14-.45-2.39-.88-3.5-.76-.34-.54-1.05-.65-1.6-.87-.34-.13-.75-.86-1.27-.63l-1.11.5c-.34-.3-.31-1.01-.6-1.14-.75-.34-1.85.35-2.57-.78.48-.01.64-.39,1.02-.65l2.29-1.57,1.63-1.43c.69-.61,1.12-1.15,1.93-1.4Z"/>
    <path class="cls-2" d="M140.46,211.92c-.29,1.29-.46,2.66-1.21,3.88-.83,1.34-.1,2.51-1.2,2.96-.24,2.01-.74,3.96-1.31,5.83-.05-.27.05-.94-.2-1.23-3.19-1.78-4.58-.16-6.51.46l-3.33,1.07c-.74.24-1.32.31-2.01.62l-2.1.94c-1.28.12-2.19.76-3.16,1.47l-3.31,1.04c-.27.09-1.2,1.26-3.43.75.16-1.04,1.03-1.36,1.88-1.85.54-.31.83-.92,1.64-1.17l1.51-1.41c1.1-.11,1.3-.59,1.93-1.3.38-.44,1.91-.52,2.08-1.09.31-1.05.86-.8,1.51-1.29l3.58-2.71c.62-.47,2.58-1.23,3.41-2.5,1.53-.69,2.79-1.39,3.86-2.67s4.36-2.25,5.45-3.56c.4-.48.74-1.03,1.46-1.06.31,1.39-.33,1.92-.54,2.84Z"/>
    <path class="cls-4" d="M173.51,101.65l-1.81,6.48c-.32,1.15-.58,2.28-1.77,2.87.62,1.61,0,3.03-.65,4.52-.27.62-.23,1.25-.85,1.78l-.14,1.81c-.54.69-.62,2.59-1.14,3.54-.6,1.11-.85,2.23-1.02,3.51-.02.39-.59.96-.73,1.48l-.5,1.84-1.13,3.39c-.07,1,.08,1.93-1,2.52.44,1.19-.28,2.31-.46,3.45s-.8,1.97-1.08,3.04c-.12.46.09.96-.24,1.32l-1.48-.37c-1.33-.74-.75-2-.6-3.1l.32-2.38,1.86-5.61,1.59-4.84.12-1.42c.83-1.7,1.35-4.05,2.04-6.21l.86-2.69c.3-.93.15-2.06.71-2.95.47-.73.17-1.49.32-2.11.36-1.45.99-2.64,1.14-4.2l.93-3.29c.22-.78,1.02-1.17,1.69-1.51,1.17-.59,2.21-1.61,3.04-.88Z"/>
    <path class="cls-4" d="M163.52,36.96l-4.87,2.25-2.65,1.75,1.45-5.76,1.2-3.29c.2-.54,0-1,.36-1.67.3-.56.57-1.37.7-2.05l.53-2.61c.2-1-.08-1.87-.95-2.37l-.43-1.85c-1.26-.7-1.82-1.89-1.98-3.13-.2-1.56-1.27-1.62-2.39-1.94-1.02-.29-1.71-1.35-3.09-1.25l-1.66-.8c-.8-.11-1.44-.17-2.12-.53l3.5-1.64c1.22.34,2.35.75,3.64,1.19l3.28,1.11,2.73,1.73c-.42,1.29.98,1.55,1.36,2.14.64,1.02.46,2.41,1.43,3.26.61.53.39,1.5.62,2.04.86,2.08.66,5.19-.76,7.07-.2.15-.76.24-.84.6-.06.26-.11.65.01.99.33.9-.54,1.57-.63,2.27-.09.74.3,1.43-.36,1.98.76.27,1.32.61,1.9.51Z"/>
    <path class="cls-5" d="M141.77,207.44c.36.65-.24,1.35-.36,1.95-.2,1.01-.01,1.91-.95,2.53.21-.91.85-1.44.54-2.84-.71.03-1.06.58-1.46,1.06-1.08,1.31-4.41,2.31-5.45,3.56s-2.33,1.98-3.86,2.67c-.83,1.27-2.79,2.03-3.41,2.5l-3.58,2.71c-.65.49-1.2.24-1.51,1.29-.17.57-1.69.65-2.08,1.09-.63.72-.83,1.19-1.93,1.3l-1.51,1.41c-.8.25-1.09.86-1.64,1.17-.86.49-1.73.8-1.88,1.85-3.3.63-4.41,3.59-7.42,4.62l-4.84-1.03c1,.06,1.48-1.3,3.45-1.86.88-.25,1.29-.96,1.99-1.37l3.05-1.81c.66-.39.87-.8,1.48-1.43l3.38-1.71c1.02-.93,1.79-1.68,3.16-2.1l1.8-1.64c1.4-.26,2.2-.93,3.27-1.66.72-.49,1.32-.71,1.93-1.53l2.47-1.82c.99.25,1.52-.3,1.65-1.21,1.3-.25,2.23-.95,3.26-1.61l2.14-1.36c.96-.61,1.68-.74,2.54-1.44.9-.73,2.34-.99,3.02-2.13,1.75-.02,1.96-1.09,2.75-1.19Z"/>
    <path class="cls-4" d="M68.6,215.98c.78-.17,1.49.55,2.23.72.89.2,1.47.15,2.24.66.89.58,2.28.39,3.18.91l1.78,1.03c1.85.22,3.61.4,5.08,1.41l-2.3,1.51c-.76.5-1.35.82-2.06,1.37l-2.39,1.85c-.39-.26-1.21-.01-1.75-.63-.88-1.01-2.41-.56-3.47-.65-.99-.14-1.92-1.45-2.93-1.34-.89.09-1.42.28-2.25-.2-.77-.45-1.68-.71-2.62-.67-.39-.38-.61-.74-1.08-1.02-.49.36-1.06.34-1.33-.08l1.38-1.12,5.64-3.66c.19-.12.49-.11.64-.09Z"/>
    <path class="cls-4" d="M80.3,28.09c.04.22.02.76-.39.87-.34.09-1.23-.05-1.5.3-.59.78-1.44.96-2.13,1.48-.94.71-1.6,1.25-3.18.75.15,1.24-.66,2.13-.89,3.18-.92,4.22-2.74,7.21-2.87,8.4-.18,1.76-.41,3.33-1.21,4.87-.86.73-1.51,1-2.77,1.39-.95.29-1.79,1.46-2.87,1.55-.45-.86.13-1.53.37-2.33.26-.86.25-1.35,1-1.93.31-.6.46-1.9.42-2.57-.05-.9.17-1.57.39-2.37.55,0,.77-.45,1.12-.8.95-.96,2.08-1.43,3.26-2.42-1-.33-2.14,0-2.95,1.13-.31-.46-.03-.74.01-1.05l.39-2.67c.38-.99.88-1.78.97-2.89.04-.55.57-1.09,1.01-1.14-.19.57-.08,1.19.27,1.89-1.85.77-1.92,3.45-1.09,4.01.87.59,1.49.09,2.16-.25,1.08-.55,1.74-1.13,1.65-2.49-.06-.92.76-1.82.95-2.66.28-1.18.74-1.91,1.69-2.75,2.74,1.94,3.29-1.15,6.19-1.51Z"/>
    <path class="cls-5" d="M59.66,145.34c.18.42.55.31.79.35-.23.75-.83,1.14-1.55,1.6l-1.71,1.1c-1.24,1.11-2.56,1.9-3.92,2.85l-2.03,1.42c-.66.46-1.5.91-2.05,1.64-.64.85-1.6,1.17-2.32,1.8-.88.77-1.69,1-2.69,1.51-.58.29-1.05,1.8-1.85,1.86-1.39.09-2.06.6-2.91,1.65-.96,1.19-2.87,2-4.66,3.23l-1.69,1.16c-.62.43-1.25.74-1.23,1.57-1.11.06-3.5,1.75-4.23,2.75-.38.53-.77.9-1.31,1.04-.49-1.91-.09-2.38.75-3.14l.41-.37c1.38-.05,1.48-1.55,2.39-1.79,1.1-.29,2.63-.94,2.95-2.1,1.16-.03,2.14-.69,2.7-1.71,1.77-.45,3.56-2.21,4.92-3.5.97-.27,1.71-.54,2.24-1.51l1.97-1.01c1.08-1.63,3.01-1.47,5.09-3.77.55-.6,1.31-1.52,2.05-1.67.82-.17,1.25-.38,1.99-.92l4.47-3.25c.62-.45.76-.71,1.43-.81Z"/>
    <path class="cls-4" d="M105.89,24.6c.12-1.38,1.36-2.22.95-3.98-.22-.97.65-1.09.98-1.58.53-.8.25-2.03.86-2.76s.8-1.7.28-2.5c-1.64.8-2.89,1.62-4.18,2.52-.52-2.32,2.17-2.08,1.23-4.47l1.34-2.28c.32-.55.26-1.24.73-1.59.61-.46.57-1.33.5-2.05,0-.08,0-.2.02-.27.44-.13.58-.6.51-1.03l-.05-.28c.75-.32.61-1.42.55-1.96l1.83-.78c1.14-.03,1.41,1.34,1.61,2.11.41,1.61.09,2.62-.65,3.96-1.07,1.98-.93,3.38-1.78,4.67l-1.18,3.19c-.5,1.34-.88,2.66-1.13,4.04-1.66.87-.51,1.75-1.45,3.63-.29.58-.39,1.17-.98,1.39Z"/>
    <path class="cls-5" d="M166.85,38.06c-.8-.07-1.55.68-2.25.81-1.29.23-1.96.94-3,1.49-.67.35-1.74.15-2.54.8-.99.8-2.16,1.28-3.33,1.8l-3.89,1.74c-1.36.61-2.41,1.1-3.57,2.11-.66.57-2.13.59-2.82,1.31-1.04.48-1.84,1.02-2.86,1.09-.08-.08-.14-.17-.2-.34.48-.56,1.54-1.13,2.32-1.49,1.08-.5,1.84-1.26,2.97-1.67l1.39-.88c.31-.19.51-.47.54-.72,1.32-.07,2.36-.96,3.52-1.65l1.62-.96,1.25-.53,2.65-1.75,4.87-2.25c.56-.1.98.42,1.63.47.74.06,1.23.31,1.71.63Z"/>
    <path class="cls-5" d="M173.4,100.19c-.18.42.14,1.06.11,1.46-.84-.73-1.87.3-3.04.88-.67.34-1.47.73-1.69,1.51-.98-.52-1.53.41-2.2.73-1.37.66-2.48,1.39-3.82,2.16-.64.36-1.76.43-2.37.86l-2.08,1.45c-1.18.38-2.04.62-3.09,1.14-1.25.62-2.68.87-3.85,1.91-.77.68-1.57,1.12-2.58.97-.13-.02-.27-.04-.24-.22l.41-.52c.99-.52,2.12-.85,2.87-1.86,1.28-.03,2.23-.73,3.13-1.5,1.48-1.17,3.32-1.85,5.05-2.49.34-.13,1.02-.56,1.34-.7l2.11-.96c.97-.44,1.27-1.58,2.65-1.47.98.08,1.73-.86,2.55-1.25.53-.25,1.2-.22,1.25-.89l.88.16c.34.06.5-.41.62-.64l.89-.44c.41-.2.76-.37,1.12-.31Z"/>
    <path class="cls-5" d="M100.62,208.66l-.03.39-.11.5c-.32.12-.62.55-.92.83-1.56.11-3.36,2.3-4.26,2.86l-1.78,1.1-2.01,1.82c-1.1.67-2.27.96-3.14,2.09l-1.77,1.26c-.6.43-1.1,1.15-1.77,1.36-.8.25-1.24.79-1.93,1.4l-1.63,1.43-2.29,1.57c-.38.26-.54.63-1.02.65-.55-.11-1.13-.19-1.59-.5l2.39-1.85c.71-.54,1.3-.86,2.06-1.37l2.3-1.51,1.26-1.13,1.26-.71c.54-1.44,2.79-1.48,4.28-3.16.74-.83,1.34-1,2.27-1.5.49-.26,1.54-1.58,3.24-2.36,1.29-.6,2.6-1.77,3.59-2.56.08-.06.15-.21.3-.19.13.02.42,0,.57-.08.11-.07.19-.26.17-.44l.57.07Z"/>
    <path class="cls-4" d="M149.62,11.32c-.65.32-1.17.77-1.87,1l-1.91.64c-.91.05-1.57-.58-2.42-.89l-3.04-1.14c-.95-.36-2.31-.16-3.07-1.02-1.33-1.51-2.65-1.85-2.39-3.32l2.65.52c.55.11,1.41.62,1.75.96.82.82,1.19,1.01,2.35.86,1.07-.14,2.39.89,3.48,1.03,1.52.18,3.71.74,4.46,1.36Z"/>
    <path class="cls-5" d="M54.83,104c-.2,0-.41.04-.53.18-.07.09-.1.23-.1.35-1,.16-2.14,1.63-3.55,2.49-.4-.03-.81.16-.85.62-.64.04-1.27.8-1.74,1.25-.37.35-.97,1.06-1.52,1.21-.75.14-1.35.25-1.53.88-.82.24-.88,1.26-2.06,1.26-.35,0-.54.19-.63.52l-.15.55h-.31s.25-1.89.25-1.89c.06-.42-.03-.78-.12-1.23.46-.25,1.38-.77,1.41-1.29.02.16.05.55.2.6s.61-.04.76-.17c1.11-.92,2.32-1.45,3.51-2.19.61-.38.99-.83,1.79-1.1l1.34-1.39c1.17-.21,1.8-.82,2.74-1.45l4.77-3.21c.74-.5,1.62-.63,2.36-1,.13.63-.3,1.06-.65,1.14-1.01.21-1.24,1.28-1.98,1.65l-2.08,1.05c-.47.23-1.19.68-1.32,1.17Z"/>
    <path class="cls-2" d="M58.59,124.64l-1.36,3.35-2.05.41-.42.72-.78-.03c-2.23,1.62-3.79.61-3.73,3.42l-2.29.45c-1.4.61-2.23,1.81-3.06,2.95l-1.54,1.26c-1.3.18-2.27.82-3.1,1.78-1.26-.11-2.22.54-2.78,1.66-1.35.14-2.29,1.03-2.87,2.3-.75.12-1.48.53-1.36,1.41-.81.46-.2,1.38-.33,1.82-.22.74-.33,1.35-.41,2.16-.04.37-.63.81-.4,1.35-.17-.07-.47-.25-.49-.44s.29-.33.33-.6l.23-1.5c.49-.62.26-1.21.31-1.91.05-.87.78-1.87.51-2.85.62-.25.99-.66,1.1-1.33l.55-3.33c.11-.69.8-1.09.54-2.02-.12-.42.17-.93.54-.96l-.28,2.32c-.41.8-.84,1.26-.68,2.31l-.26,1.65c3.06-.09,3.84-4.12,6.87-3.75.28.04.37-.32.24-.53.04-.02.13-.02.17,0,.44.18,2.64-.7,2.53-1.72-.1-.94.97-1.6,1.73-2.02l2.51-1.39c-.05.27.02.47.18.54.29.13.45-.23.57-.3.52-.24.58-.67.68-.92.42-1.05,2.07-2.17,3.22-2.06.7.07.87-.33,1.51-.97l.49-.49c.08-.08-.06-.35-.15-.43,1.13-.32,1.63-1.55,3.53-2.28Z"/>
    <path class="cls-5" d="M151.12,12.06l-3.5,1.64c-.52.24-1.09.11-1.74.7l-3.14,1.37c-1.29.99-2.42,1.68-4.06,1.93l-1.67,1.06c-1.8.18-2.91,1.02-4.27,1.95-.85.59-2.26.79-3.01,1.39-.06-.13-.03-.18,0-.24.39-1.13,1.39-1.29,2.32-1.77,1.35-.7,2.57-1.53,3.89-2.34,1.21-.74,2.83-.98,3.91-1.96.97-.88,1.86-1.27,3.26-1.5l2.71-1.34,1.91-.64c.7-.23,1.22-.68,1.87-1,.33.27,1.1.63,1.5.74Z"/>
    <path class="cls-4" d="M31.08,159.42c1.61.25,2.55.95,2.17,1.61-.52.91-.24,1.71-.44,2.45-.32,1.17-1.85,1.82-2.95,2.1-.91.24-1.01,1.74-2.39,1.79l-.04-2.34c1.02-.98-.28-2.97,1.59-3.35.45-.09.35-.95.47-1.22.47-.2.97-.5,1.07-1.06.15,0,.38-.03.51.03Z"/>
    <path class="cls-5" d="M67.49,49.56c-1.46.92-2.98,1.25-4.48,2.73-.4.39-1.41.33-1.79.75,0-.12-.13-.26-.29-.26-.08-.75.36-1.34.89-1.85l.67-.05c1.09-.09,1.93-1.26,2.87-1.55,1.26-.38,1.92-.65,2.77-1.39.53-.45,3.35-1.14,3.91-2.4l1.6-.15c-.07.92-1.03.88-1.28,1.17-.83.95-1.52,1.01-2.55,1.46-.54.24-.91,1.06-1.83.96-.26-.03-.59.37-.49.58Z"/>
    <path class="cls-6" d="M181.74,47.76l.96,1.96c.11.22-.13.6-.04.73.08.12.39.26.59.39l-.19,1.65-.28.04c.17-1.21-.94-1.64-.8-3.18.02-.18.05-.61-.08-.78-.11-.15-.5-.09-.74-.04-.18.04-.21.37-.26.53l-3.9,1.83-2.6,1.24c-.46.22-.76.6-1.24.59.21-.43.58-.69,1.05-1.03l1.78-1.26,2.29-1.32c1.08-.62,2.45-.61,3.46-1.34Z"/>
    <path class="cls-5" d="M132.81,5.71c-.93-.03-2.02-.75-3.09-.46-2.94.78-5.21,3.36-7.3,3.07.25-.83.83-.85,1.34-1.14l4.71-2.87c1.24.25,2.43.8,3.81.84.34.01.48.37.54.56Z"/>
    <path class="cls-2" d="M83.48,16.42c.18.07.32.16.39.34-.56.04-1.12.35-1.55.77-1.07-.54-2.02.13-2.51,1.07-.36.19-.69.39-1.1.39-.77,0-1.4.47-2.03.85.09-.26.21-.54.23-.82.04-.49.33-.84.78-1.03.19-.08.28-.32.26-.51.07-.02.19,0,.27.02.41-.6,1.27-.45,1.87-.7.89-.38,1.59-.66,2.43-.91,0-.08.05-.14.16-.18.26.21.45.56.8.7Z"/>
    <path class="cls-4" d="M78.72,19c.29.72-.67.6-.91.87-.97,1.06-2.31,1.43-3.61,1.9-.97.35-1.86,1.28-2.78,1.81-.53.3-.71,1.21-1.27,1.38l-.16-.3c1.14-1.34,2.44-2.87,4.14-3.5.61-.23,1.62-.19,1.77-1.09l.26-.25.54.05c.64-.38,1.27-.85,2.03-.85Z"/>
    <path class="cls-5" d="M64.67,41.68c.36-1.32.63-2.97,1.44-3.13-.04.31-.33.59-.01,1.05.81-1.13,1.95-1.46,2.95-1.13-1.18.99-2.31,1.45-3.26,2.42-.35.35-.56.8-1.12.8Z"/>
    <path class="cls-6" d="M119.69,1.78c-.3.57-.91.1-1.3.02l-2.93-.64c-.67-.15-1.32.11-1.99-.42-.49-.39-1.16-.1-1.71.06l-2.01.58c-.29.08-.15.76-.13,1,.06.54.2,1.63-.55,1.96l.15-2.45c.03-.51.36-.94.63-1.09.23-.14,1.04.06,1.25-.11.75-.61,1.68-.99,2.6-.37.72.49,1.33.22,2.08.38l2.42.55c.5.11.95.7,1.49.52Z"/>
    <path class="cls-5" d="M31.85,158.37c-.05.44-.46.76-.77,1.06-.13-.06-.37-.03-.51-.03-.51.15-.88.55-1.07,1.06-.12.27-.02,1.13-.47,1.22.07-.53-.07-1.1-.28-1.75l.66-.98c.08-.06.29-.05.32-.22.02-.1,0-.23-.05-.29.72-.2,1.5-.4,2.18-.08Z"/>
    <path class="cls-6" d="M61.22,53.04l-.05.7c-.77.66-.85,1.81-.92,2.92-.72,1.05-.99,2.17-.92,3.43-1.07.97-1.57,2.13-1.68,3.52-.19.76-.37,1.53-1,1.8l.96-3.05c.29-.93.56-1.58,1.26-2.23-.17-1.33.01-2.91,1.04-3.58-.27-2.24,1.13-2.87,1.03-3.77.16,0,.3.13.29.26Z"/>
    <path class="cls-2" d="M35.71,134.15l.96-4.13c.18-.76.29-1.04.75-1.7.34-.48-.08-1.66.15-2.25.89-.55.69-1.21.57-2-.15-.96,1.07-1.8,1.38-2.49.02-2.14.64-4.12,2.12-5.45l-1.28,2.65c-.42.86-.4,1.77-.15,2.75-1.65.87-1.38,2.5-1.68,4.02-.15.78-1.35,1.55-.37,2.69l-.85.59c-.17,1.54-.46,2.96-1.08,4.41l-.04.73c0,.15-.24.26-.48.17Z"/>
    <path class="cls-2" d="M29.67,158.44c.05.06.07.19.05.29-.03.18-.24.16-.32.22-.47-.2-.46-.74-.42-1.22.02-.26.56-.49.63-.8l1.02-4.4c.23-.15.58-.36.63-.61-.02-.24-.16-.54-.06-.76.06-.13.28-.21.37-.29,0,.42,0,.81.21,1.36-.95.45-.91,1.29-1.14,2.24l-.64,2.61-.5.68c-.11.15-.01.48.16.68Z"/>
    <path class="cls-2" d="M142.63,204.47c.11-.53.29-1.18.08-1.8-.75.11-.95.79-1.31,1.03l-2.59.73,2.24-1.2c.72-.78,1.32-1.23,2.29-1.34l-.12,1.87c-.03.4-.2.74-.59.7Z"/>
    <path class="cls-5" d="M100.37,18.78l-2.05,1.26c-.3-.04-.59.04-.73.29-.2.05-.38.14-.54.27l-.32.24-.65.16.02-.58-.13-.43c.63.14.93-.26,1.37-.51.92-.53,2-.74,3.03-.7Z"/>
    <path class="cls-6" d="M62.48,50.87l-.67.05c-.43-.92.22-1.6.5-2.39.39-1.08.78-1.84,1.44-2.78.31-.45.13-1.42.53-1.71.04.66-.11,1.96-.42,2.57-.76.57-.75,1.06-1,1.93-.24.8-.82,1.47-.37,2.33Z"/>
    <path class="cls-6" d="M61.68,219.63l.64.1-1.38,1.12c-.25.26-.57.26-.9.15-.28-.1-.51-.24-.54-.55.8.01,1.45-.51,2.17-.81Z"/>
    <path class="cls-6" d="M19.51,199.95l-.25-1.14c1.06-.14,2.16-1.22,2.32-.64.26.93-1.21.22-1.53,1.21-.1.31-.33.47-.54.57Z"/>
    <path class="cls-2" d="M42.16,113.31c-.22.78-.28,1.55-.12,2.54-.09.05-.28.05-.39.02,0-.41,0-.9-.15-1.36-.19-.55.31-.91.35-1.22h.31Z"/>
    <path class="cls-4" d="M68.98,29.36c.04.4.13.69-.08,1.27l-.42,1.13-.22-1.39c-.07-.45.25-.75.41-1.03l.32.03Z"/>
    <path class="cls-6" d="M27.47,167.38l-.41.37c-.3-.86-.3-2.07.36-2.71l.04,2.34Z"/>
    <path class="cls-6" d="M75.89,20.06c-.15.9-1.17.87-1.77,1.09-.03-.47.23-.85.52-.97.42-.17.88-.15,1.26-.12Z"/>
    <path class="cls-4" d="M184.51,59c-.93-.67-.23-1.08-.7-2.36.69.55,1.13,1.52.7,2.36Z"/>
    <path class="cls-4" d="M102.79,19.22c.74-.49.86-1.2,1.17-1.98.04.59.02,1.19-.19,1.84l-.98.14Z"/>
    <path class="cls-6" d="M108.09,7.96l-.02-1.28c0-.44.22-.7.52-.76.07.71.11,1.59-.5,2.05Z"/>
    <path class="cls-6" d="M143.66,201.38c-.13-.93.36-1.56.62-2.43l.83-2.72c.27.64-.07,1.44-.35,2.04-.1.23.24.85.05,1-1.11.89-.42,1.35-1.15,2.1Z"/>
    <path class="cls-4" d="M183.29,54.06c-.61-.24-.59-.97-.51-1.54l.28-.04c-.06.5.32,1.02.23,1.57Z"/>
    <path class="cls-4" d="M184.12,55.59c-.46-.3-.67-.78-.82-1.27.44.21,1.05.76.82,1.27Z"/>
    <path class="cls-6" d="M76.69,19.85l-.54-.05c.25-.24.43-.62.77-.77-.02.27-.14.55-.23.82Z"/>
    <path class="cls-4" d="M180.48,80.34c0-.28.28-.63.53-.8.1.2.12.33.04.48-.14.26-.39.33-.57.31Z"/>
    <path class="cls-4" d="M181.24,78.79c-.16-.44.09-.74.23-1.08.09.39.04.81-.23,1.08Z"/>
    <path class="cls-4" d="M185.08,60.49l-.25-1.27c.36.26.65.93.25,1.27Z"/>
    <path class="cls-4" d="M96.26,18.75c-.3.09-.65.05-.79-.24.28-.08.57.15.79.24Z"/>
    <path class="cls-6" d="M108.61,5.64c.11-.37.23-.76.51-1.03.08.43-.07.9-.51,1.03Z"/>
    <path class="cls-2" d="M143.37,201.64c.07-.09.17-.2.29-.25l-.29.25Z"/>
    <path class="cls-6" d="M122,2.83c-.09.03-.27-.19-.26-.27.11.04.21.15.26.27Z"/>
    <path class="cls-4" d="M183.8,56.12c.02-.12.14-.23.26-.26-.08.1-.17.18-.26.26Z"/>
    <path class="cls-4" d="M138.91,35.32c.57.72,2.88.48,3.77,1.35.99.97,1.75,1.02,3.03,1.28,1.52.31,3.07,1.15,4.71,1.31,1.02.1,1.7.71,2.54,1.05.72.29,1.51.26,1.78,1.18l-1.62.96c-1.17.69-2.2,1.58-3.52,1.65-1.48-.27-2.48-1.47-4.11-1.43-1.39-1.76-4.61-.92-8.03-2.84-.64-.36-.69-1.05-1.92-.77-.52.1-1.35-.87-1.84-1.1,1.17-.61,1.59-1.12,3.13-1.62.61-.2,1.14-.97,1.8-1.06.09-.01.2,0,.28.03Z"/>
    <path class="cls-4" d="M61.17,53.74l.05-.7c.38-.41,1.4-.36,1.79-.75,1.5-1.48,3.02-1.81,4.48-2.73.16.07.15.48-.06.66-1.8,1.51-.88,3.99-1.72,4.85-.36.37-1.03.47-1.65.54-1.41.16-2.69-.54-2.89-1.87Z"/>
    <path class="cls-5" d="M138.24,34.77c.15-.01.41-.08.48.11.04.11-.08.34-.09.41-.66.09-1.19.86-1.8,1.06-1.53.5-1.96,1.01-3.13,1.62-1.65.34-2.8,1.85-4.23,2.4-1.6.61-2.97,1.36-4.34,2.22.02-.14-.04-.28-.17-.36-.12-.08-.32,0-.37.13-.04.09-.01.23,0,.37l-.55-.04-.21-.53c.32-.15.84-.41,1.3-.65l2.55-1.34c1.25-.66,2.21-1.69,3.4-2.33.45.11.89-.36,1.23-.41.57-.09,1-.48,1.58-.81.77-.44,1.71-.8,2.07-1.53.33.02.73-.01,1.04-.24.29-.2.91-.03,1.26-.06Z"/>
    <path class="cls-4" d="M127.91,36.61c-2.16-.18-4.07-1.25-6.18-1.75-1.75-.42-3.51-.54-4.96-1.5-.82-.55-3.85-.67-5.64-1.38-1.11-1.38-2.5.47-2.32-1.08l2.13.03c.57.83,1.55,1.12,2.56,1.07,2.79-.14,5.65,3.01,10.31,2.25l.54.94,2.97.71c.44.1.64.35.6.71Z"/>
    <path class="cls-6" d="M67.37,95.99c-.36-.37-1.03-.48-1.45-.15l-2.02,1.59c-.84.66-1.65,1.55-2.95,1.3.65-.6,1.25-1.02,1.87-1.31.84-.39,1.23-1.28,1.93-1.7,1.04-.62,2.36-.74,3.17-1.74.09.06.28.15.36.26.11.16-.13.42-.32.51-.13.54-.37.9-.57,1.24Z"/>
    <path class="cls-4" d="M90.45,23.07l1.89-.03c.01.17-.07.41-.22.47-.11.05-.33.07-.49.05-.79-.08-3.07,1.26-2.92,1.66.1.26.26.51.5.73l.05.34-.48-.06c-.29-.29-.68-.24-1.07-.25l-.7-.02c0-.27-.23-.53-.52-.65-.2-.08-.4.13-.55.39l-.37.12-.18-.02c-.13-.14.03-.87.24-.83,1.19.23,1.7-.31,2.58-.83.66-.39,1.83-.29,2.23-1.08Z"/>
    <path class="cls-4" d="M171.88,95.75l-1.37,4.94c-.07.27.8.39.89.24-.12.23-.28.7-.62.64l-.88-.16.35-2.44c1.12-1.21.09-2.88,1.64-3.23Z"/>
    <path class="cls-4" d="M108.52,30.87c-.88.24-1.68-.23-2.61-.37l-3.34-.52c-.63-.82-1.46-1.38-2.46-.89-.88-.58-1.8-.76-2.86-.74-.21-.02-.39-.1-.47-.19-.06-.07-.07-.27-.03-.34.69-.44,1.42.03,2.18.15,1.41.22,2.73.37,3.68,1.55,2.07.1,5.88,1.02,5.89,1.03.06.06.05.27.03.34Z"/>
    <path class="cls-6" d="M171.22,53.16c-.09.86-.65,1.24-1.45,1.57-1.36.57-2.91,1.43-3.42,1.2-.1-.15-.07-.29-.07-.4.82-.09,1.39-.46,2.11-.9.94-.58,2.07-.84,2.85-1.59v.12Z"/>
    <path class="cls-4" d="M96.47,27.79c-.85-.08-1.99.22-2.9-.21-.72-.34-1.15-1.02-2.16-.92-.32.03-.65-.4-.62-.64l2.31.31c.72,2.04,3.42.12,3.37,1.45Z"/>
    <path class="cls-2" d="M166.28,55.53c0,.11-.02.25.07.4-.94,1.12-2.3,1.9-3.92,2.22.11-.78.79-1.17,1.52-1.22,1.3-.1,1.57-1.32,2.33-1.4Z"/>
    <path class="cls-4" d="M176.86,79.58c-.04-1.46.42-2.93,1.24-4.11-.13,1.01-.73,1.95-.75,3.07l-.02.83c0,.15-.23.29-.47.21Z"/>
    <path class="cls-4" d="M84.65,25.78c-.34.56-1.23.44-1.57,1.27-.65.5-1.5.53-2.29.71.3-.85,2.44-1.67,3.86-1.98Z"/>
    <path class="cls-6" d="M44.32,134.97c.11,1.03-2.09,1.9-2.53,1.72l.62-.92c.22-.03.42-.12.55-.28.5.01.84-.4,1.36-.52Z"/>
    <path class="cls-2" d="M159.83,59.56c-.25.1-.48.19-.58.13-.08-.05-.1-.2-.06-.32.06-.2,2.35-1.19,2.78-.67l-2.14.86Z"/>
    <path class="cls-2" d="M85.39,25.81l.18.02c.05.49-.5.72-1.05.75-.41.53-.98.84-1.44.47.34-.82,1.22-.71,1.57-1.27l.75.03Z"/>
    <path class="cls-6" d="M142.38,48.86c.06.17.12.26.2.34-.62.71-1.44,1.42-2.6,1.16,1.07-.43,1.28-1.45,2.4-1.51Z"/>
    <path class="cls-4" d="M172.67,92.12c-.19-1.14.23-2.28,1.12-3,.21.76-.57,1.46-.71,2.24v.58c0,.14-.22.25-.41.19Z"/>
    <path class="cls-4" d="M132.29,37.41c-.34.05-.77.52-1.23.41-.43-.1-.9-.34-1.08-.8.72-.29,1.64-.11,2.3.39Z"/>
    <path class="cls-6" d="M55.06,126.92c.09.08.23.35.15.43l-.49.49c-.64.64-.81,1.04-1.51.97.33-.84,1.06-1.66,1.86-1.89Z"/>
    <path class="cls-6" d="M77.43,43.26c-.55.86-1.61,1.57-2.68,1.41.96-.54,1.44-1.33,2.68-1.41Z"/>
    <path class="cls-6" d="M123.83,42.14l.21.53c-.52.56-1.25,1.15-1.96.76.8-.6,1.16-1,1.75-1.29Z"/>
    <path class="cls-5" d="M49.98,130.87c-.1.25-.15.69-.68.92-.12.07-.27.44-.57.3-.15-.07-.22-.27-.18-.54.42-.23.63-.93,1.42-.68Z"/>
    <path class="cls-2" d="M45,110.97c.18-.63.78-.74,1.53-.88.55-.14,1.15-.85,1.52-1.21.05,1.11-1.77,2.16-3.05,2.09Z"/>
    <path class="cls-4" d="M172.62,93.36c-.02.6.09,1.53-.67,1.68-.05-.65.06-1.35.67-1.68Z"/>
    <path class="cls-4" d="M175.03,85.42c-.15.58,0,1.48-.72,1.64.1-.62.06-1.43.72-1.64Z"/>
    <path class="cls-2" d="M87.01,25.97c-.38-.01-.87.12-1.07-.26.15-.26.35-.48.55-.39.29.12.53.38.52.65Z"/>
    <path class="cls-2" d="M88.78,26.24c-.08.31-.38.3-.65.29-.33,0-.48-.21-.42-.54.38.01.78-.04,1.07.25Z"/>
    <path class="cls-2" d="M50.65,107.02c.02.17,0,.57-.16.58l-.69.04c.04-.45.45-.65.85-.62Z"/>
    <path class="cls-4" d="M176.09,81.39c.09-.36.07-.71.52-.83l-.05.62c-.01.16-.28.25-.47.2Z"/>
    <path class="cls-2" d="M54.83,104c-.03.1-.04.29-.1.37-.14.18-.37.13-.53.15,0-.11.03-.26.1-.35.11-.14.32-.19.53-.18Z"/>
    <path class="cls-2" d="M42.94,112.24c.07.2-.02.47-.17.51-.17.06-.34.03-.46,0,.09-.33.28-.51.63-.52Z"/>
    <path class="cls-2" d="M89.83,26c.04.13,0,.42-.16.49-.11.05-.35-.07-.41-.19l-.05-.34.62.04Z"/>
    <path class="cls-2" d="M42.96,135.49c-.13.17-.33.26-.55.28.05-.07-.01-.32.02-.44.03-.11.15-.21.31-.1.07.05.18.17.23.26Z"/>
    <path class="cls-6" d="M125.13,42.58c-.15.1-.36.14-.54.13-.02-.13-.04-.28,0-.37.05-.13.26-.2.37-.13.13.09.19.22.17.36Z"/>
    <path class="cls-6" d="M41.38,137.23c-.04-.2.03-.45.24-.53.13.21.04.57-.24.53Z"/>
    <path class="cls-2" d="M129.14,189.95c-.53.32-1.06.72-1.77.75.37-.74.99-.62,1.77-.75Z"/>
    <path class="cls-2" d="M129.82,210.39c-.15-.18.45-.94.96-.75.07.21-.15.83-.96.75Z"/>
    <circle class="cls-2" cx="129.72" cy="189.27" r=".29"/>
    <circle class="cls-2" cx="129.21" cy="210.65" r=".22"/>
    <path class="cls-4" d="M131.25,32.99c-.84.44-1.63.11-2.28-.61-.44-.49-1.53-.14-1.99-.31-1.38-.96-2.95-1.24-4.62-.99-.97-1.23-2.3-1.3-3.68-1.62l-3.93-.9c-.25-.06-.53-.48-1.02-.37-.98.21-2.08-.15-2.55-.94.64-.35,1.47-.08,2.25.13l8.61,2.4c1.11.31,2.23.86,3.39.93.81.05,1.18.62,1.81.77l2.55.61c.62.15,1.29.14,1.45.89Z"/>
    <path class="cls-4" d="M110.28,26.9c-.68.07-1.34-.04-2.07-.31-1.09-.41-1.91.09-2.41-.47-.22-.24-.35-.63-.07-.92,1.48.89,3.9,1.11,4.55,1.7Z"/>
    <path class="cls-4" d="M136.98,34.83c-.31.23-.71.26-1.04.24-.47-.68-1.24-.13-3.28-1.51-.25-.17-.72-.19-.61-.64.64-.08,1.06.34,1.59.75,1.12.87,2.99.1,3.34,1.15Z"/>
    <path class="cls-6" d="M141.28,33.11l.08.45-2.46,1.75c-.08-.02-.19-.04-.28-.03.02-.06.13-.3.09-.41-.07-.2-.33-.13-.48-.11-.1-.25.03-.46.18-.47l.81-.09c.67-.49,1.34-.88,2.05-1.09Z"/>
    <path class="cls-6" d="M143.16,32.75l-.25-.26c-.1-.76,1.4-1.16,2.51-1.18-.47,1.16-1.78.98-2.25,1.44Z"/>
    <path class="cls-5" d="M142.91,32.48l.25.26c-.62.61-1.24.43-1.8.82l-.08-.45c.48-.14.95-.86,1.63-.63Z"/>
    <path class="cls-2" d="M128.23,22.44c.08-.1.43-.1.57-.06.1.03.25.18.14.38-.12.23-.29.13-.39.16-.23.06-.54-.18-.32-.47Z"/>
    <path class="cls-2" d="M129.75,21.88c-.02.06-.05.11,0,.24-.03.07-.05.18-.16.26-.12.08-.32.02-.38-.13s-.01-.31.13-.38c.1-.05.24-.07.41,0Z"/>
    <rect class="cls-2" x="127.7" y="22.94" width=".18" height=".18" transform="translate(21.15 97.11) rotate(-45)"/>
    <path class="cls-1" d="M82.15,205.23c-.99.36-1.84,1.04-2.51,1.88-2.16.04-2.22,2.28-3.97,2.32-.49.01-.57.23-.8.39l-4.3,2.96c-.92.63-1.55,1.31-2.49,1.95l-1.06.73c-1.43-1.09-3.14-1.21-4.8-1.74-1.16-.38-2.16-.91-3.43-.9-1.06,0-1.74-.69-2.61-.99l-4.22-1.48c-.74-.26-1.46-.87-2.32-.72s-1.07-.51-1.68-.65l-4.37-1.05c-.71-.17-1.15-.53-1.9-.75l-4.46-1.37c-1.3-.4-3.65-2.65-3.99-4.27-1.14-.49-1.82-1.38-2.04-2.58l-1.32-.75-.58-1.98-1.43-1.59c.81-.37,1.62-.97,2.2-1.67l.53-.19c.12-.04.18-.4.19-.59-.7-.24-.81.4-1.05.6-.26.22-.94,0-1.17.69-.12.37-.7.36-.93.49l-.8-.92c-.26-1.22-.65-2.04-1.49-2.98-.33-.37-.36-1.49-.1-1.97,1.13-2.02,1.6-4.04,2.02-6.29l1.69-3.9c.39-.9.36-2.04.76-2.91.78-1.7,1.03-4.01,1.19-6.06l.95-1.85c-.02-.84.61-1.15,1.23-1.57l1.69-1.16c1.78-1.23,3.69-2.04,4.66-3.23.85-1.06,1.52-1.56,2.91-1.65.8-.05,1.27-1.56,1.85-1.86,1-.51,1.81-.74,2.69-1.51.71-.63,1.68-.95,2.32-1.8.54-.73,1.39-1.17,2.05-1.64l-.44,1.45c-.96,1.76-.88,3.61-1.3,5.5l-.37,1.67-1.05,2.71c.04,1.3-.47,2.26-.7,3.41l-.43,2.18-.71,3.36-.67,2.4c-.16,1.44.02,2.68-.81,3.98l-.38,1.95c-.48,1.2-.86,3.04.08,4.13.83.95,1.24,1.81,1.76,2.97.7,1.55,2.84,2.96,3.31,4.64l3.55,1.3c.82.3,1.51.66,1.91,1.47,1.37-.49,2.6-.18,3.8.59l3.19,1.14c.79.28,1.27.32,2.07.63l3.27,1.23c1.15.43,2.51.62,3.35,1.48.34-.1.86-.25,1.1-.18.18.06.43.47.63.67.83-.2,1.86.43,2.55.6,1.24.3,1.68.67,2.65,1.37.62.45,2.24-.05,2.97.54l1.56,1.38ZM31.62,191.61c1.33-.13,1.94-1.02,2.61-1.79-1.12.41-1.78,1.07-2.61,1.79Z"/>
    <path class="cls-5" d="M75.23,210.91c-1.2.83-2.07,2-2.9,2.28-1.01.34-1.43.75-2.19,1.53-.41.42-1.47.49-1.54,1.26-.15-.02-.45-.04-.64.09l-5.64,3.66-.64-.1c.11-.69.58-1.2,1.25-1.61l4.1-2.55,1.06-.73c.94-.64,1.57-1.32,2.49-1.95l4.3-2.96c.2-.15.86.03.75.24l-.4.84Z"/>
    <path class="cls-5" d="M29.73,192.79l.34.17c-.58.7-1.39,1.3-2.2,1.67-.47.22-.83.51-1.51.33.4-.47.77-.71,1.28-.99.23-.13.8-.12.93-.49.24-.7.91-.48,1.17-.69Z"/>
    <path class="cls-6" d="M24.44,196.05c-.24-.68,1.07-.26,1.8-1.23.21.78-.22,1.02-.59,1.23-.28.16-1.1.3-1.21,0Z"/>
    <path class="cls-2" d="M51.77,150.32c-.74.15-1.5,1.07-2.05,1.67-2.08,2.3-4.02,2.13-5.09,3.77l-1.97,1.01c-.53.97-1.27,1.24-2.24,1.51-1.36,1.28-3.14,3.05-4.92,3.5-.56,1.02-1.54,1.68-2.7,1.71.2-.74-.08-1.54.44-2.45.38-.66-.56-1.37-2.17-1.61.31-.3.72-.62.77-1.06l2.11-1.51c.13-.1.56-.16.71-.39.06-.09.01-.24-.22-.23.05-.88.98-1.08,1.55-1.49.08.16.09.28.07.37-.09.34.44.29.46-.03,1.29-.15,1.76-.89,2.3-1.85.26-.2.87-.51,1.01-.78.56-.1,1.29-.3,1.34-1.03.1-.04.22-.18.3-.25,1.44-.48,2.64-1.44,3.87-2.49l2.17-1.12c.52-.62.96-.91,1.57-1.37,1.01-.75,2.05-1.75,3.32-2.01.23-.34.47-.93.86-.97-.3.77.1,1.7-.14,2.5l-1.36,4.63Z"/>
    <path class="cls-5" d="M39.74,152.1l.1.34c-.14.27-.75.58-1.01.78-.54.96-1.01,1.7-2.3,1.85-.02.33-.55.38-.46.03.02-.09.02-.2-.07-.37,1.76-1.65,1.26-1.97,3.74-2.64Z"/>
    <path class="cls-6" d="M34.45,156.23c.23-.01.28.14.22.23-.16.23-.58.29-.71.39l-2.11,1.51c.06-.48,1.53-2.49,2.6-2.13Z"/>
    <path class="cls-2" d="M46.07,147.05c-.08.66-.7.98-1.34,1,0-.7.71-.95,1.34-1Z"/>
    <path class="cls-6" d="M41.17,151.41c-.05.73-.77.93-1.34,1.03l-.1-.34c.41-.11.75-.95,1.43-.69Z"/>
    <path class="cls-2" d="M51.85,143.08c-.38.24-.68.48-1.18.72.02-.34.1-.63.37-.88.17-.16.58-.26.81.16Z"/>
    <path class="cls-2" d="M47.59,146.09c-.27.46-.77.77-1.28.78-.05-.26.04-.6.25-.71.33-.18.71-.15,1.03-.07Z"/>
    <path class="cls-2" d="M48.87,144.69c-.01.66-.49,1.1-1.09,1.09.07-.7.58-.84,1.09-1.09Z"/>
    <path class="cls-2" d="M42.65,149.61c-.12.46-.51.75-1.01.76.09-.16.05-.49.29-.62s.48-.12.72-.14Z"/>
    <path class="cls-2" d="M54.03,140.33v.84c-.05.12-.16.19-.3.19l-.2-.7c-.06-.21.26-.38.5-.33Z"/>
    <path class="cls-4" d="M181.99,49.35c-.38,0-.72-.1-1.08-.29.05-.15.08-.49.26-.53.24-.05.63-.11.74.04.13.17.1.6.08.78Z"/>
    <path class="cls-4" d="M182.53,74.67c.22.48-.4.63-.31.05-.07-.28.27-.38.31-.05Z"/>
    <rect class="cls-4" x="179.98" y="80.37" width=".18" height=".18" transform="translate(-4.15 150.9) rotate(-45)"/>
    <path class="cls-4" d="M101.78,24.45c-1.98.89-4.68.43-4.79-1.18.96-.18,1.46.34,2.2.52l2.59.66Z"/>
    <path class="cls-6" d="M96.1,20.42l-.02.58c-.2.05-.56.31-.62.51-.36.09-.65.3-.82.63l-1.49.3-.05-.6.34-.1c.35-.1.6-.33.78-.63.08-.13.19-.26.2-.44l1.66-.25Z"/>
    <path class="cls-2" d="M93.11,21.84l.05.6c.01.18-.02.42-.2.45-.04-.34-.36-.22-.31.04-.09.05-.2.09-.3.11l-1.89.03c.25-.5.87-.69,1.39-.68.25-.02.45-.13.65-.24l.62-.32Z"/>
    <path class="cls-4" d="M98.33,20.04c-.03.12,0,.42-.17.52-.22.13-.55.07-.57-.23.14-.25.43-.33.73-.29Z"/>
    <path class="cls-4" d="M95.46,21.5c-.04.15.05.44-.16.59-.19.13-.49.01-.65.05.16-.33.45-.54.82-.63Z"/>
    <path class="cls-4" d="M96.73,20.84l.32-.24c-.09.09-.2.21-.32.24Z"/>
    <path class="cls-4" d="M92.95,22.89l-.31.04c-.05-.27.27-.39.31-.04Z"/>
    <path class="cls-4" d="M82.32,17.53c-.64.63-1.71.65-2.51,1.07.48-.95,1.43-1.61,2.51-1.07Z"/>
    <path class="cls-4" d="M85.84,21.01c-.66.53-1,.88-1.6,1.12-.13-.5.1-.87.3-1.04.29-.24.69-.52,1.3-.08Z"/>
    <path class="cls-4" d="M95.97,19.99l.13.43-1.66.25c.05-.69.95-.8,1.53-.68Z"/>
    <path class="cls-4" d="M94.23,21.1c-.18.3-.44.53-.78.63-.1-.16-.1-.54.11-.62s.48-.04.68-.02Z"/>
    <circle class="cls-4" cx="81.82" cy="22.64" r=".29"/>
    <path class="cls-4" d="M92.49,22.16c-.2.11-.4.22-.65.24.17-.08.43-.27.65-.24Z"/>
    <polygon class="cls-4" points="75.81 29.46 75.98 29.46 76.15 29.47 75.98 29.47 75.81 29.47 75.64 29.47 75.81 29.46"/>
    <path class="cls-1" d="M83.74,205.24c.97-.13,1.91.09,2.71.92,1.32-.27,2.3.26,3.02,1.2.44.59,1.3.01,1.71.07,3.11.44,3.31,2.23,5.68,1.44l2.16.43c-.99.78-2.3,1.96-3.59,2.56-1.71.79-2.75,2.1-3.24,2.36-.93.5-1.53.67-2.27,1.5-1.5,1.68-3.75,1.72-4.28,3.16l-1.26.71-1.26,1.13c-1.47-1.01-3.22-1.19-5.08-1.41l-1.78-1.03c-.9-.52-2.3-.33-3.18-.91-.77-.51-1.34-.45-2.24-.66-.74-.17-1.45-.88-2.23-.72.07-.77,1.13-.84,1.54-1.26.76-.78,1.18-1.19,2.19-1.53.82-.28,1.7-1.45,2.9-2.28l2.55-1.76c1.78-1.23,3.71-2.36,5.02-3.9h.94Z"/>
    <path class="cls-2" d="M29.49,160.46c.2-.52.56-.92,1.07-1.06-.1.56-.61.86-1.07,1.06Z"/>
    <path class="cls-6" d="M82.8,205.25c-1.32,1.55-3.24,2.68-5.02,3.9l-2.55,1.76.4-.84c.11-.21-.55-.39-.75-.24.23-.16.3-.38.8-.39,1.75-.04,1.81-2.27,3.97-2.32.66-.84,1.52-1.52,2.51-1.88.2-.07.46,0,.65.02Z"/>
    <path class="cls-6" d="M31.62,191.61c.83-.71,1.49-1.38,2.61-1.79-.67.76-1.28,1.65-2.61,1.79Z"/>
    <path class="cls-2" d="M30.07,192.96l-.34-.17c.24-.2.35-.84,1.05-.6,0,.18-.06.54-.19.59l-.53.19Z"/>
    <g>
      <path class="cls-3" d="M148.94,112.53l-.41.52c-.87-.14-1.52.7-2.3,1-.82.32-1.28.68-2.01,1.14l-1.88,1.2c-.57,0-.9.38-1.39.66l-7.53,4.28c1.11.35,1.95-.46,2.69-1.19l1.56-.61c.6-.79,1.19-.76,1.94-1.08.99-.43,1.9-1.13,3.08-1.21.53-.04.61-.58.73-.84l3.93-2.23c.38-.22.73-.03.98.14-.67,1.72-1.77,2.13-1.46,3.96.22,1.3-.64,2.51-1.01,3.63l-.78,2.33-.5,2.33c-.23,1.09-.57,1.99-1.36,2.83-.65.69-.17,1.93-.44,2.65-.29.8-.98,1.21-.9,2.21.06.8-.34,1.6-.87,2.22l.3,1.77c-1.56,1.67-1.6,4.44-1.94,5.41-.4,1.18-1.25,2.42-1.06,3.71-.41.52-.67,1.45-.81,2.04l-.79,3.38-.78,2.36c-.23.7-1.14,1.42-.76,2.44.31.83-.55,1.39-.65,1.89-.29,1.41-.37,2.71-.98,4.04-.72,1.57-.86,3.13-1.19,4.78-.13.62-.87,1.07-.81,2.03.04.67-.19,1.95-.41,2.54-1.4.99-1.37,3.5-1.76,4.8l-1.61,5.42c-.24.82-.35,1.27-.59,2.1l-.57,1.97-.99,3.67c-.15.54-.81,1.05-.96,1.49-.61.59-1.97.6-2.56,1.67.75.53,1.36-1.07,2.89-1.12.11.61-.36,1.11-.75,1.74l-.23,2.29-1.29,1.38c.27,1.13-.23,1.67-.73,2.62-.38.72-.39,2.57-1.37,2.84-1.05.3-1.61.81-2.64,1.36l-1.95,1.05c-1.06.57-1.77,1.32-2.81,1.88l-1.64.88-1.19,1.04c-.72.63-2.46,1.53-3.58,1.4-2.06-.25-3.9-1.25-6.01-1.31l-.31-.47.11-.5c.62.05,1-.46,1.52-.79,1.06-.67,2.17-1.19,2.92-2.26.92-.05,1.4-.49,1.93-1.12,1.33-1.6,4.38-1.98,5.53-4.15,1.01-.12,1.94-.48,2.41-1.4.23-.45,1.18-.83,1.61-1.09l1.05-.64c.61-.38,1.06-.81,1.67-1.3,1.33-1.05,3.11-1.14,3.05-1.96,0-.14-.3-.34-.48-.34-.51,0-.67.62-1.21,1.09-1.21.37-2.42.89-3.02,1.95-1.03.44-2.09.83-2.79,1.75-.94.18-1.59.97-2.33,1.51-.34.25-.85.34-1.36.47-.24.85-.89.97-1.5,1.4l-3.94,2.77c-1.2.84-2.55,1.3-3.72,2.45-.42.4-1.25.52-1.31,1.28l-.57-.07c-.17-.04-.38-.04-.54.03s-.24.3-.19.48c-.14-.02-.22.13-.3.19l-2.16-.43c-2.37.79-2.56-1-5.68-1.44-.41-.06-1.27.51-1.71-.07-.72-.95-1.69-1.48-3.02-1.2-.8-.82-1.73-1.05-2.71-.92l1.41-1.01c.57-.72,1.21-1,1.86-1.54l2.1-1.73c-2.06.28-3.15,2.51-5.07,2.95-.71.16-1.11.79-1.24,1.33-.18-.01-.45-.09-.65-.02l-1.56-1.38c-.72-.59-2.34-.09-2.97-.54-.97-.7-1.41-1.07-2.65-1.37-.69-.17-1.73-.8-2.55-.6-.2-.2-.45-.61-.63-.67-.24-.08-.76.08-1.1.18-.84-.86-2.2-1.05-3.35-1.48l-3.27-1.23c-.81-.3-1.28-.35-2.07-.63l-3.19-1.14c-1.2-.77-2.43-1.07-3.8-.59-.4-.81-1.09-1.17-1.91-1.47l-3.55-1.3c-.47-1.67-2.61-3.09-3.31-4.64-.52-1.16-.94-2.02-1.76-2.97-.95-1.09-.56-2.93-.08-4.13l.38-1.95c.83-1.3.65-2.54.81-3.98l.67-2.4.71-3.36.43-2.18c.22-1.15.74-2.11.7-3.41l1.05-2.71.37-1.67c.42-1.89.34-3.73,1.3-5.5l.44-1.45,2.03-1.42c1.36-.95,2.68-1.74,3.92-2.85l1.71-1.1c.73-.46,1.32-.85,1.55-1.6.95.16,1.45-.26,2.18-.88l1.36-1.16c1.01-.86,2.12-1.27,2.71-2.66-.88.48-1.49.78-2.33.99-1.91.49-2.75,3.05-4.7,3.35-.67.1-.81.36-1.43.81l-4.47,3.25c-.74.54-1.17.75-1.99.92l1.36-4.63c.24-.8-.16-1.73.14-2.5.84-.09,1.29-.9,1.99-1.35.57-.37,1.18-.27,1.68-.97l2.14-1.05c.63-.99,1.09-1.57,2.2-2.07.34-.15.67-.8,1.25-.77,1.05.05,1.64-.59,2.15-1.45.33-.55,1.54-.44,1.9-.89.49-.6.8-1.52,1.59-1.52.05.05.15.18.22.22.15.08.25-.03.25-.11l.04-.4.24-.23c.89.24,1.21-.28,1.66-.71.64-.61,1.53-1.18,2.38-1.72.73-.47,1.74-.38,2.35-1.28.39-.58,1.14-.93,1.77-.99.65-.1,1.19.44,1.82.63,1.06.32,1.96.62,2.78,1.52.92-.37,1.72-.12,2.32.66l1.61.12c.8.39,1.52.35,2.27.64l3.37,1.31c.12.92.42,2.33-.17,3.15-.86,1.2-2.28,3.85-2.66,5.16s-1.42,2.38-2.01,3.58l-1.03,2.09c-.56,1.14-1.55,2.03-1.69,3.4-.96.54-1.47,1.41-1.29,2.54l-2.18,4.04c-.62,1.16-1.12,1.96-1.47,3.26-.15.55-.76,1.66-1.19,2.04-.71.65-.84,1.17-1.12,2.1-.29.98-.77,1.8-.98,2.85-.43,2.05-2.15,4.04-1.79,5.02.12.33.6,1.09,1.08.66l2.04-1.79c.87-.76,1.78-1.06,2.49-1.64,1.05-1.02,1.75-2.16,3.26-2.78l2.2-2.03c1.21-.5,1.68-1.07,2.4-2.07.61-.83,2.01-1.14,2.81-1.77l2.44-1.91c.65-.51.89-.69,1.34-1.35.95-1.4,2.46-2.59,3.96-3.47l2.75-2.32c1.14-.45,1.88-.84,2.23-2.07.91,0,1.62-.52,2.32-1.18,1.17-1.09,2.76-1.62,3.65-3.08.52-.85,1.74-1.22,2.44-1.89,1.33-1.29,2.75-2.06,4.42-2.9l1.47-1.48c.93-.94,2.95-2.39,3.31-2.38.87.03,1.1-1.03,1.54-1.25,1.13-.55,1.84-1.51,2.82-2.1.72-.43,1.17-.79,1.82-1.33.69-.58,1.59-.63,1.98-1.62.25-.61.67-2.1-.26-2.53-.87-.41-2.04-.7-3-1.05l-4.15-1.5c-1.67-.61-3.13-.95-4.69-1.83-.94-.53-2.27-.44-3.39-.99-.63-.31-2.36.58-3.35-2.6l1.87-4.67,1.26-2.89c.64-1.46,1.21-2.82,1.92-4.25l1.87-3.77c.25-.51.45-.94.36-1.46,1.64-.12,1.81-1.58,2.6-1.64s1.13-.63,1.87-1.15c.54-.38,1.58-.31,1.78-1.09l.52-.04c.25-.02.55-.46.4-.56-.4-.27-.79.19-1.04.2-.89.05-2.56,1.12-2.72,1.5-.23.52-.47.67-.97.72-.28.03-.73.57-1.04-.01.99-1.02,1.17-2.71,1.59-4.18.96-.78,1.37-1.93,1.43-3.17,1.22-1.67,1.7-4.47,2.59-5.98.5-.85,1.18-1.11,1.05-2.4-.09-.88,1.17-2.64.85-3.34-.45-.98-2.16,2.07-4.04,2.47-1.16.25-1.55,1-2.06,1.68-2.26.43-2.07,2.21-3.05,2.09-.86-.11-1.18.8-1.62,1.21-1.29,1.19-3.5,2.06-4.15,3.39l-1.55.9c-.51.84-1.02,1.05-1.87,1.39s-1.47,1.47-2.19,2.06c-1.5-.2-1.92.87-2.58,1.88-.61.93-2.77,2.13-3.35,3-.67,1.01-1.87,1.31-2.65,2.05-.63.59-1.25,1.54-1.81,2.21-.66.79-.9.78-1.85,1.16-.75.3-1.55,1.45-2.16,2.09-.41.44-.44,1.13-1.37.97l-.75,1.93c-1.11-.36-1.37.61-1.9.98-.96.67-1.47,1.17-2.18,2.1-.43.57-1.42,1.05-1.89,1.62l-1.05,1.25c-1.08.8-1.42,1.74-2.24,2.73-.44.53-1.63.72-2.11,1.46-.7,1.07-1.75,1.65-2.62,2.56-.02.02-1.16,1.8-1.15,1.78,0,.13.01.32.22.39.04.13-.02.63-.26.74-1.38.67-2.37,1.72-3.63,2.56-.7.46-1.35.76-2.08,1.29l-3.73,2.66c-.79.56-1.38,1.16-2.24,1.42-.74,1.03-1.34,1.99-2.96,1.71-.45.91-1.41,1.69-2.19,2.35-.87.74-1.47,1.63-2.66,1.51v-.84c-.1-1.13,1.11-1.74.98-3.83-.04-.65.41-.86.52-1.33l.89-3.73c.3-1.24.39-2.41.8-3.45l1.36-3.35c.09-.03.28-.01.29.03.31.36.33-.06.31-.19-.03-.2-.1-.38-.29-.36.02-1.07.36-2.05.72-3.15l1.1-3.31c.31-.94.64-1.84.9-2.74l1.05-3.61,1.12-3.45c.4-1.24.88-1.95.88-3.38l.95-3.52.65-1.15c.14-1.41.42-2.72,1.09-3.83.2-.34.45-.7.57-1.24.2-.08.43-.34.32-.51-.08-.11-.27-.2-.36-.26-.01-1.41,1.31-2.06,1.04-4.33,2.54-1.8.78-4.67,2.32-6.8-.13-1.31.47-2.35,1.4-3.29-.25-1.21.02-2.31.99-3.09-.37-1.15-.03-2.05.91-2.65l.12-2.21c.31-.81.88-1.46.86-2.43.87-.88,1.27-1.94.91-3.16.78-1.29,1.22-2.61,1.36-4.12.86-.48,1.34-1.24.89-2.15l2.2-5.87c.69-1.85,1.65-3.37,2.81-4.87.97-1.25,2.71-1.53,4.02-2.17l3.3-1.61c1.19-.58,2.27-1.06,3.52-.62,2.28.79,4.66,1.56,7.05,1.9.96.13,1.33-.08,2.04.68.63.67,2.31.29,3.11.45,1.68,1.15,3.42,2.02,5.6,1.57l3.2,1.35c1.1.08,1.49.36,2.39.81.8.39,1.84.37,2.6,1.03l2.64.15c1.35,1.04,4.28,2.14,5.73,1.65.95-.33,1.37.66,1.83.75,1.19.23,2.29.18,3.19,1.04.31.3,1.16.52,1.56.74.72.39,1.61.07,2.37.19.76,1.05,2.05,1.29,3.19.98.57-.15.78.54,1.07.71,1.91,1.17,4.06-.12,4.86,1.66.93.03,1.79.61,2.71,1.06.5.24,1.8-.32,2.24.09.83.77,1.49,1.08,2.79.83.16,1.26.66,2.17,1.7,2.79.11,1.24.35,2.41,1.3,3.23l.69,2.81,1.44,2.81c-.19,1.71-.29,3.53-.85,5.08l-.84,2.31c-.31.87-.14,1.77-.44,2.63l-1.98,5.72-.97,4.2c-.48,2.09-2.49,3.03-1.71,4.73.23.49-.14,1-.34,1.4l-1.48,2.94-.63,2.7c-.48.84-.56,1.33-.59,2.33-.04,1.45-1.72,3.02-1.08,4.62ZM135.27,92.27c1.44-1.52,3.05-1.22,4.25-2.17l1.79-1.42-1.72.21c-.96,2.28-3.36.92-5.25,3.53-.16.21.43.37.59.2l.34-.35ZM128.92,94.9c.92.07,1.41.06,2-.06.82-.18,1.44-1,1.33-1.91-.94,1.28-2.29,1.11-3.33,1.97ZM129.01,95.11c-.98.53-1.44,1.22-2.49,1.39-.89.14-1.94.54-1.98,1.67,1.34-1.34,4.09-1,4.47-3.06ZM64.24,121.46c-1.12-.57-1.9.96-3.51,1.94,1.3.44,1.88-1.01,3.51-1.94ZM75.39,134.96c-.43.37-1.08.44-1.3,1.34.89-.41,1.71-.82,2.12-1.62.17-.34.91-.43,1.03-1.18-.86-.26-1.86.57-1.85,1.47ZM73.27,136.63c-1.32.18-2.44.85-3.01,2.09.74.17,1.04-.26,1.51-.72.44-.43,1.19-.44,1.5-1.37ZM129.06,151.68c.87.61,1.4-.08,1.95-.45l3.03-2.02,1.22-.45c.37-.52.71-.86,1.2-1.19.27-.42-.29-.72-.37-.19-.56.09-.94.42-1.07.92-.16-.26-.34-.34-.46-.34s-.42.18-.5.29c-.7.96-1.61,1.14-2.49,1.73l-2.51,1.71ZM128.39,152.57c.47.05.61-.34.61-.5,0-.09-.32-.16-.4-.09l-.39.34c-.42.16-.14.56.18.26ZM131.72,163.42c.73-.1,1.09-.62.92-1.29-1,.93-1.81,1.33-3.11,1.61.87.58,1.5-.23,2.19-.32ZM56.9,173.17c.72-.72,3.2-1.83,4.74-2.58.58-.28.97-.98,1.78-1.06.23-.02.58-.33.61-.73-.34.06-1.46.03-1.77.38-.55.99-1.59.88-2.33,1.36s-1,1.66-2.39,1.24c-.77-.24-1.47,1.16-1.34,1.28.09.08.56.25.69.12ZM118.56,170.21l2.43-.75c.14-.04.19-.57.2-.77-2.13.04-3.47,1.9-5.17,2.54-.5.19-.94.38-1,1.14,1.51-.25,2.57-.95,3.54-2.16ZM108.23,177.04l1.99-1.36c.73-.5,1.48-.68,2.11-1.26l2.25-2.05c-1.2-.25-1.6,1.29-2.74,1.85l-3.13,1.54c-.73.36-1.73.49-1.84,1.71.37-.03.99-.18,1.36-.43ZM91.73,198.8l-.13.13.13.13.13-.13-.13-.13ZM91.22,199.05c-1.16.45-1.62.78-2.21,1.3-.12.3.15.64.52.58,1.02-.18,1.75-1.04,1.68-1.87Z"/>
      <path class="cls-2" d="M58.88,124.67l.02-.54c.18-.02.25.15.29.36.02.13,0,.55-.31.19Z"/>
      <path class="cls-6" d="M148.53,113.05c-.04.17.11.2.24.22.14.48-.33.77-.43,1.04-.26-.18-.6-.36-.98-.14l-3.93,2.23h-1.08s1.88-1.21,1.88-1.21c.73-.45,1.18-.82,2.01-1.14.78-.3,1.43-1.14,2.3-1Z"/>
      <path class="cls-6" d="M124.64,192.31c.39.15.29.37.33.55-1.53.05-2.14,1.66-2.89,1.12.59-1.08,1.95-1.08,2.56-1.67Z"/>
      <path class="cls-5" d="M112.42,104.64l.04.4c0,.26-.19.92-.52.92-1.11,0-1.53.62-2.29,1.13-.79.53-1.7.77-2.3,1.62-.83,1.16-2.78.24-3.49,1.87-.53,1.21-2.44,1.22-5.09,2.89l-3.78,2.38c-1.09,1.16-2.2,1.44-3.53,2.27l-2.21,1.37-2.1,1.23c-.34.2-1.03.66-1.34.91-1.9,1.49-4.38,2.57-5.1,3.39-.81.93-1.34,1.63-2.68,1.72-.55.04-.96.75-.94,1.18-.63.06-1.38.41-1.77.99-.6.9-1.61.81-2.35,1.28-.85.54-1.74,1.11-2.38,1.72-.67.03-1.22.29-1.66.71l-.24.23c-.19-.03-.54.04-.51.29-.79,0-1.11.92-1.59,1.52-.36.45-1.57.34-1.9.89-.51.86-1.09,1.5-2.15,1.45-.58-.03-.92.62-1.25.77-1.12.5-1.57,1.08-2.2,2.07l-2.14,1.05c-.5.7-1.11.6-1.68.97-.7.46-1.15,1.26-1.99,1.35-.39.04-.63.64-.86.97-1.27.26-2.31,1.26-3.32,2.01-.62.46-1.05.75-1.57,1.37l-2.17,1.12c-1.23,1.05-2.43,2.01-3.87,2.49-.27.12-.39-.15-.29-.34.07-.15.38-.3.46-.44.49-.01.89-.31,1.01-.76.96-.1,1.28-1.25,2.09-1.57.64-.02,1.26-.33,1.34-1l.23-.17c.51-.01,1.01-.32,1.28-.78.05-.09.18-.21.19-.31.61.01,1.08-.43,1.09-1.09l1.8-.89c.49-.24.8-.48,1.18-.72.28-.18.82.21,1.88-1.72.14,0,.25-.08.31-.19,1.19.12,1.79-.77,2.66-1.51.78-.66,1.74-1.44,2.19-2.35,1.62.28,2.23-.68,2.96-1.71.86-.26,1.45-.86,2.24-1.42l3.73-2.66c.74-.52,1.38-.83,2.08-1.29,1.26-.83,2.25-1.89,3.63-2.56.24-.12.29-.61.26-.74.74.09,1.46-.25,2.16-.72l4.19-2.79c1.39-.92,2.51-1.77,4.13-2.31.73-.25,1.53-1,2.19-1.4l4.98-3.02c.77-.46,1.15-1.11,2.06-1.55l2.26-1.11c.4-.2.71-.86,1.26-.76.21.04.52-.02.76-.12.2-.09.31-.38.27-.62.14,0,.39-.04.51.01l.2.2c.12.13.27,0,.29-.14l.04-.38c.03-.28.42-.37.52-.52.19.03.36.02.57-.04.15-.04.26-.22.2-.41,1.35-.26,2.62-1.3,3.67-2.3,1.62-1.08,2.8-.96,4.31-2.39l1.88-.89c.66-.6,1.56-.73,2.18-1.05Z"/>
      <path class="cls-6" d="M60.45,145.7c-.24-.04-.61.07-.79-.35,1.95-.3,2.79-2.86,4.7-3.35.84-.21,1.44-.52,2.33-.99-.59,1.39-1.7,1.8-2.71,2.66l-1.36,1.16c-.72.62-1.23,1.04-2.18.88Z"/>
      <path class="cls-6" d="M112.45,200.3l.04.42c-1.16,2.17-4.21,2.55-5.53,4.15-.53.63-1,1.07-1.93,1.12-.75,1.08-1.85,1.59-2.92,2.26-.52.33-.9.84-1.52.79l.03-.39c.06-.76.89-.87,1.31-1.28,1.18-1.14,2.53-1.6,3.72-2.45l3.94-2.77c.61-.43,1.26-.55,1.5-1.4.51-.13,1.02-.22,1.36-.47Z"/>
      <path class="cls-6" d="M100.04,208.6c.02.17-.05.37-.17.44-.15.09-.44.1-.57.08-.06-.18.01-.41.19-.48s.37-.07.54-.03Z"/>
      <path class="cls-1" d="M116.84,102.73c.09.51-.1.94-.36,1.46l-1.87,3.77c-.71,1.43-1.28,2.79-1.92,4.25l-1.26,2.89-1.87,4.67c.99,3.18,2.72,2.29,3.35,2.6,1.12.56,2.45.46,3.39.99,1.56.88,3.02,1.23,4.69,1.83l4.15,1.5c.97.35,2.13.64,3,1.05.93.43.5,1.92.26,2.53-.4.99-1.29,1.04-1.98,1.62-.64.54-1.09.9-1.82,1.33-.99.59-1.69,1.55-2.82,2.1-.44.21-.66,1.27-1.54,1.25-.36-.01-2.38,1.45-3.31,2.38l-1.47,1.48c-1.67.84-3.09,1.61-4.42,2.9-.7.67-1.92,1.04-2.44,1.89-.89,1.46-2.48,1.99-3.65,3.08-.7.65-1.42,1.18-2.32,1.18-.35,1.23-1.09,1.62-2.23,2.07l-2.75,2.32c-1.5.88-3.01,2.07-3.96,3.47-.45.66-.68.84-1.34,1.35l-2.44,1.91c-.8.62-2.2.93-2.81,1.77-.73,1-1.19,1.58-2.4,2.07l-2.2,2.03c-1.5.62-2.21,1.76-3.26,2.78-.71.59-1.62.88-2.49,1.64l-2.04,1.79c-.48.42-.96-.34-1.08-.66-.37-.97,1.36-2.96,1.79-5.02.22-1.05.69-1.87.98-2.85.28-.92.41-1.45,1.12-2.1.42-.39,1.04-1.49,1.19-2.04.35-1.3.85-2.11,1.47-3.26l2.18-4.04c-.17-1.14.34-2,1.29-2.54.14-1.36,1.13-2.26,1.69-3.4l1.03-2.09c.59-1.2,1.65-2.32,2.01-3.58s1.8-3.96,2.66-5.16c.58-.81.28-2.22.17-3.15l-3.37-1.31c-.75-.29-1.46-.25-2.27-.64l-1.61-.12c-.6-.79-1.4-1.03-2.32-.66-.82-.9-1.72-1.2-2.78-1.52-.62-.19-1.17-.73-1.82-.63-.02-.43.39-1.14.94-1.18,1.33-.09,1.86-.79,2.68-1.72.72-.82,3.2-1.9,5.1-3.39.31-.24,1-.7,1.34-.91l2.1-1.23,2.21-1.37c1.33-.83,2.44-1.11,3.53-2.27l3.78-2.38c2.65-1.66,4.56-1.68,5.09-2.89.72-1.63,2.67-.71,3.49-1.87.6-.84,1.51-1.08,2.3-1.62s1.18-1.13,2.29-1.13c.33,0,.51-.65.52-.92,2.51-.54,3.19-2.22,4.39-2.31ZM114.01,135.64c-1.29.39-2.85,1.67-4.17,2.69-.69.54-2.23.41-2.26,1.93l4.1-2.54c.84-.52,1.95-.73,2.38-1.69.95-.24,2.14-.1,2.84-1.29-1.06.02-1.99.63-2.89.9ZM103.74,141.87c-.7-.01-.87.68-1.43.93l-2.48,1.12-.81.05c-.14,0-.26.23-.23.44l-3.31,1.58c-.45.21-.61.41-1.1.75l-2.4,1.68c-.64.45-.96.99-1.8,1.12-.29.05-.83.57-.91.94l2.2-1.04c.9-.43,1.48-1.12,2.5-1.39.62-.17,1.13-.76,1.27-1.27l3.76-1.38.96-1c1.06-.03,1.91-.8,2.88-1.34.47-.26.93-.4.9-.96,1.01,0,1.97-.49,2.92-1.31-1.39-1.27-2.32,1.09-2.91,1.08Z"/>
      <path class="cls-1" d="M118.24,100.65l-1.31,1.35c-1.56-.15-2.22,1.67-3.39,1.81-.74.09-.84.63-1.12.82-.62.32-1.51.45-2.18,1.05l-1.88.89c-1.51,1.43-2.68,1.31-4.31,2.39-1.05.99-2.32,2.03-3.67,2.3-.12-.21-.34-.36-.55-.2-.22.17-.13.52-.23.66-.1.15-.49.24-.52.52-.24-.03-.45.08-.53.32-.13-.06-.37,0-.51-.01-.49-.01-1.01.2-1.02.74-.55-.1-.86.56-1.26.76l-2.26,1.11c-.9.44-1.29,1.09-2.06,1.55l-4.98,3.02c-.67.4-1.46,1.16-2.19,1.4-1.62.55-2.74,1.39-4.13,2.31l-4.19,2.79c-.7.47-1.41.8-2.16.72-.21-.06-.23-.26-.22-.39,0,.02,1.14-1.76,1.15-1.78.87-.91,1.92-1.49,2.62-2.56.48-.73,1.67-.92,2.11-1.46.81-.99,1.16-1.93,2.24-2.73l1.05-1.25c.47-.57,1.46-1.06,1.89-1.62.71-.92,1.22-1.43,2.18-2.1.54-.37.79-1.35,1.9-.98l.75-1.93c.93.15.96-.53,1.37-.97.61-.64,1.41-1.79,2.16-2.09.95-.38,1.19-.37,1.85-1.16.56-.67,1.18-1.62,1.81-2.21.78-.74,1.98-1.04,2.65-2.05.58-.87,2.74-2.07,3.35-3,.66-1.01,1.08-2.08,2.58-1.88.72-.6,1.33-1.72,2.19-2.06s1.35-.55,1.87-1.39l1.55-.9c.65-1.34,2.86-2.2,4.15-3.39.44-.41.75-1.31,1.62-1.21.99.12.79-1.66,3.05-2.09.51-.68.9-1.43,2.06-1.68,1.88-.4,3.59-3.46,4.04-2.47.32.71-.94,2.46-.85,3.34.14,1.28-.54,1.55-1.05,2.4-.89,1.51-1.37,4.31-2.59,5.98-.06,1.24-.47,2.39-1.43,3.17-.42,1.47-.6,3.15-1.59,4.18Z"/>
      <path class="cls-4" d="M142.34,116.39h1.08c-.12.27-.2.82-.73.85-1.18.08-2.08.78-3.08,1.21-.75.33-1.34.3-1.94,1.08l-1.56.61c-.74.72-1.58,1.54-2.69,1.19l7.53-4.28c.49-.28.82-.66,1.39-.66Z"/>
      <path class="cls-6" d="M56.9,173.17c-.14.14-.6-.03-.69-.12-.13-.11.56-1.51,1.34-1.28,1.39.42,1.67-.76,2.39-1.24s1.78-.36,2.33-1.36c.31-.35,1.43-.31,1.77-.38-.03.4-.39.7-.61.73-.81.09-1.2.78-1.78,1.06-1.55.75-4.02,1.86-4.74,2.58Z"/>
      <path class="cls-4" d="M129.06,151.68l2.51-1.71c.88-.6,1.79-.77,2.49-1.73.08-.11.37-.29.5-.29s.3.08.46.34c.13-.5.51-.83,1.07-.92.08-.53.63-.23.37.19-.48.33-.83.67-1.2,1.19l-1.22.45-3.03,2.02c-.54.36-1.08,1.06-1.95.45Z"/>
      <path class="cls-4" d="M108.23,177.04c-.37.25-.99.4-1.36.43.11-1.22,1.11-1.35,1.84-1.71l3.13-1.54c1.14-.56,1.54-2.1,2.74-1.85l-2.25,2.05c-.63.58-1.38.76-2.11,1.26l-1.99,1.36Z"/>
      <path class="cls-6" d="M118.56,170.21c-.97,1.21-2.03,1.91-3.54,2.16.06-.76.5-.95,1-1.14,1.7-.64,3.04-2.5,5.17-2.54,0,.2-.06.73-.2.77l-2.43.75Z"/>
      <path class="cls-4" d="M135.27,92.27l-.34.35c-.16.17-.75.02-.59-.2,1.89-2.61,4.29-1.24,5.25-3.53l1.72-.21-1.79,1.42c-1.2.95-2.81.65-4.25,2.17Z"/>
      <path class="cls-2" d="M117.55,197.59l.02-.56c.6-1.06,1.8-1.58,3.02-1.95.54-.46.7-1.09,1.21-1.09.18,0,.47.2.48.34.05.82-1.72.91-3.05,1.96-.61.48-1.06.92-1.67,1.3Z"/>
      <path class="cls-4" d="M129.01,95.11c-.39,2.06-3.13,1.72-4.47,3.06.04-1.13,1.09-1.53,1.98-1.67,1.06-.17,1.52-.85,2.49-1.39Z"/>
      <path class="cls-6" d="M122.98,98.44l.12.4c-.2.78-1.24.71-1.78,1.09-.74.52-1.04,1.08-1.87,1.15l-.17-.42c.5-.05.74-.2.97-.72.17-.38,1.83-1.45,2.72-1.5Z"/>
      <path class="cls-2" d="M73.27,136.63c-.31.93-1.06.94-1.5,1.37-.47.46-.77.89-1.51.72.57-1.24,1.7-1.91,3.01-2.09Z"/>
      <path class="cls-4" d="M128.92,94.9c1.04-.87,2.38-.69,3.33-1.97.11.91-.51,1.74-1.33,1.91-.58.12-1.08.13-2,.06Z"/>
      <path class="cls-4" d="M83.74,205.24h-.94c.13-.53.53-1.16,1.24-1.32,1.93-.44,3.01-2.68,5.07-2.95l-2.1,1.73c-.65.54-1.29.82-1.86,1.54l-1.41,1.01Z"/>
      <path class="cls-2" d="M119.28,100.66l.17.42c-.79.06-.96,1.52-2.6,1.64-.03-.23.03-.5.09-.72l1.31-1.35c.31.58.76.04,1.04.01Z"/>
      <path class="cls-6" d="M91.22,199.05c.07.83-.67,1.7-1.68,1.87-.38.06-.65-.27-.52-.58.59-.52,1.05-.85,2.21-1.3Z"/>
      <path class="cls-5" d="M114.78,198.79l.11.53c-.47.92-1.4,1.27-2.41,1.4l-.04-.42c.74-.54,1.4-1.33,2.33-1.51Z"/>
      <path class="cls-4" d="M64.24,121.46c-1.63.93-2.21,2.38-3.51,1.94,1.61-.98,2.4-2.51,3.51-1.94Z"/>
      <path class="cls-6" d="M117.57,197.03l-.02.56-1.05.64c-.43.26-1.38.64-1.61,1.09l-.11-.53c.69-.92,1.76-1.32,2.79-1.75Z"/>
      <path class="cls-4" d="M131.72,163.42c-.69.09-1.32.9-2.19.32,1.3-.28,2.11-.69,3.11-1.61.17.68-.19,1.2-.92,1.29Z"/>
      <path class="cls-4" d="M76.21,134.67c-.31.04-.61.1-.82.29,0-.9.99-1.73,1.85-1.47-.13.75-.86.84-1.03,1.18Z"/>
      <path class="cls-6" d="M76.21,134.67c-.4.81-1.22,1.22-2.12,1.62.22-.9.87-.96,1.3-1.34.21-.18.51-.25.82-.29Z"/>
      <path class="cls-4" d="M70.59,131.9c-.45.43-.77.95-1.66.71.43-.42.98-.68,1.66-.71Z"/>
      <path class="cls-4" d="M123.1,98.84l-.12-.4c.25-.01.64-.47,1.04-.2.15.11-.15.55-.4.56l-.52.04Z"/>
      <path class="cls-4" d="M128.39,152.57c-.32.3-.6-.09-.18-.26l.39-.34c.09-.07.4,0,.4.09,0,.16-.14.55-.61.5Z"/>
      <path class="cls-4" d="M68.69,132.84l-.04.4c0,.08-.1.19-.25.11-.07-.04-.17-.17-.22-.22-.02-.25.32-.32.51-.29Z"/>
      <rect class="cls-6" x="91.64" y="198.84" width=".18" height=".18" transform="translate(-113.8 123.13) rotate(-45)"/>
      <path class="cls-6" d="M116.93,102c-.06.22-.12.5-.09.72-1.2.09-1.87,1.77-4.39,2.31l-.04-.4c.29-.19.38-.73,1.12-.82,1.18-.14,1.83-1.97,3.39-1.81Z"/>
      <path class="cls-6" d="M98.05,112.55c.05.24-.06.53-.27.62-.24.1-.55.16-.76.12.01-.54.53-.75,1.02-.74Z"/>
      <path class="cls-6" d="M100.39,111.27c.06.19-.05.37-.2.41-.21.06-.38.07-.57.04.09-.13,0-.49.23-.66s.42,0,.55.2Z"/>
      <path class="cls-6" d="M99.09,112.25l-.04.38c-.01.13-.17.27-.29.14l-.2-.2c.07-.24.29-.35.53-.32Z"/>
      <path class="cls-6" d="M114.01,135.64c.02.17.03.31.05.39-.43.96-1.54,1.17-2.38,1.69l-4.1,2.54c.03-1.52,1.57-1.39,2.26-1.93,1.31-1.03,2.88-2.31,4.17-2.69Z"/>
      <path class="cls-2" d="M95.47,145.99l-.24.79c-.15.51-.65,1.1-1.27,1.27-1.02.28-1.59.97-2.5,1.39l-2.2,1.04c.08-.36.62-.89.91-.94.84-.14,1.15-.67,1.8-1.12l2.4-1.68c.49-.34.65-.54,1.1-.75Z"/>
      <path class="cls-5" d="M99.95,144.39l-.96,1-3.76,1.38.24-.79,3.31-1.58c.4-.19.85,0,1.17-.02Z"/>
      <path class="cls-6" d="M103.74,141.87v.23c.02.55-.44.69-.91.96-.97.54-1.81,1.31-2.88,1.34-.33,0-.77-.17-1.17.02-.03-.21.09-.43.23-.44l.81-.05,2.48-1.12c.56-.25.74-.94,1.43-.93Z"/>
      <path class="cls-5" d="M103.74,142.09v-.23c.6,0,1.53-2.35,2.92-1.08-.94.82-1.91,1.31-2.92,1.31Z"/>
      <path class="cls-2" d="M114.06,136.03c-.02-.08-.03-.22-.05-.39.9-.27,1.83-.88,2.89-.9-.7,1.19-1.89,1.05-2.84,1.29Z"/>
    </g>
  </g>
</svg>