<?xml version="1.0" encoding="UTF-8"?>
<svg id="_レイヤー_1" data-name="レイヤー 1" xmlns="http://www.w3.org/2000/svg" viewBox="0 0 242.05 245.98">
  <defs>
    <style>
      .cls-1 {
        fill: #0dd939;
      }

      .cls-2 {
        fill: #112e12;
      }

      .cls-3 {
        fill: #030803;
      }

      .cls-4 {
        fill: #f5d260;
      }

      .cls-5 {
        fill: #081208;
      }

      .cls-6 {
        fill: #a5fd86;
      }
    </style>
  </defs>
  <path class="cls-6" d="M208.53,154.69c-.78-.43-2.15-.75-2.71.27-.6,1.1-1.17,2.41-1.45,3.69l.09,2.13c.02.42.7,1.26.5,1.65-.52,1.05-.46,1.76-.44,2.86l.09,4.41c.02.96.37,1.95.94,2.8.31.46,1.47.96,2.13.81.56-.13,1.6-1.08,2.12-.55.85.86,1.51.35,2.36.5s1.54.42,2.52.47c1.27.07,2.52.72,3.91.68.38-.01.57.83.46,1.11-.49,1.24-.09,2.36.05,3.56l-.24,2.26c-1.15-.09-2.12.01-3.22.33-1.16-.38-2.25-.49-3.38-.07-1.15-.66-2.36-.67-3.59-.39l-2.68-.28c-2.11,1.04-2.61,3.18-2.73,5.31-.06,1.08-.14,1.86.02,3.01l-.55,3.3c.31,1.34.18,2.62-.88,3.6-1.8-.66-3.01.38-4.11-.39-.66-.45-1.35-.09-1.98-.33l-1.77-.67c.07-1.47-.24-3.05.14-4.47.25-.96.31-1.46-.15-2.39-.5-1,.33-2.2.78-3.07.6-1.15.51-3.58-.55-4.13-1.36-.71-2.1.13-3.49.08-1.4,2.06-.52,3.49-.83,4.01-.57-.17-.49-.74-.67-1.24-.57-1.62-2.76-.52-4.16-1.45-.81.33-1.7-.04-2.44-.13-.69-.09-1.12-.09-1.82-.28-1.02-.28-2.1.02-2.99-1.18-.1-.91-.54-1.97-1.16-2.91l.9-3.32c.52-1.92-.09-3.77-.25-5.78.81-.72,2.07-2.15,3.35-2.14,2.89.03,5.63.64,8.42,1.1.53.09,1.52.35,1.92-.21.64-1.29,1.03-3.41.84-4.38s-.53-1.95.33-2.84c.59-.61.13-1.03.05-1.66-.16-1.32.15-3.23.62-4.56,1.43-1.11,3.4-1.46,5.17-1.49.89.87,1.92,1.13,3.11.95,1.41-.35,2.77.09,4.14.04.73-.03,1.41-.65,2.12.13l1.18,1.28Z"/>
  <path class="cls-6" d="M38.91,64.21l-.57-.54c.05-.15.04-.36.04-.52v-.91c0-.14-.02-.38.04-.51.1-.2.2-.4.2-.6,0-.25-1.38-1.78-2.18-1.13-.23.14-.74.03-1.01.02-.25-.02-.5,0-.77.19-.29.58-.42,1.15-.38,1.72l-.05.81c-.03.56-.25.75-.61,1.19-.32.39.11,1.4.42,1.74l-.06,2.26c-.26-.02-.47.11-.57.3-.14.25-.16.65.03.94,1.02,1.65.16,2.81,1.02,3.79.3.34.78.35,1.23.37.52.02,1.31.13,1.67.53.52.58,1.28.54,2.04.64l.52.07c.66.09,1.62.37,2.39.17.72-.19,1.09-.47,1.86-.04.19.11.76.03.92.18.61.59-.14,1.72.17,2.38.06.11.01.37.02.49-.56,0-.56.47-.48.87s.2.72.6.91c-.05.06-.14.2-.14.28-.6.09-.46.94-.5,1.39l-2.14.27c-1.57-.68-3.07-.86-4.75-.55-.26.05-2.99-.42-3.52.33-.17.24-.26.67-.36,1-.04.14-.18.38-.27.49-.12.15-.24.28-.24.51l-.03,1.16c-.24-.06-.41.07-.44.22-.06.27,0,.64,0,.84v.47s.03,1.71.03,1.71c.01.58-.38,1.09-.42,1.46.11.46.44.84.09,1.24v.46c-.99.06-.04,2.23-.57,2.41l-1.58.6c-.12-.09-.39-.06-.51-.03-.03-.5-.42-.76-1.01-.75-.66.01-1.14.2-1.68.56-.42-1.25-1.71-.51-3.47-.79l-.04-1.72c.85-1.06,1.22-2.51,1.07-3.94-.18-1.69.52-3.27.51-4.92,0-.93-1.46-1.43-2.15-1.37-.88.07-2.1.34-2.41,1.27l-.67,1.99-.03.3c-.42.15-1.07-.2-1.53-.15-1.44.15-2.55-.25-3.94-.5-1.06-.18-2.56-.33-2.78-1.71-.25-1.6-.33-3.4-.9-4.94.27-.17.65-.34.71-.5s-.11-.58-.27-.74c-.62-.66-.13-1.49-.09-2.13.06-1.03-.12-1.66.34-2.73.2-.46.09-1.2.56-1.51,1.05-.71,2.36.09,4.29-.5.9-.28,1.29.33,2.01.48s1.77-.41,2.63.14c.5.32,1.01-.34,1.33-.33.24.01.6.52.97.38.27-.1.49-.33.55-.84l.23-1.9c-1.22-2.19.66-3.28-.15-4.46-.49-.71-.06-1.21.05-1.79.35-1.91,2.34-4.1,4.36-3.27,3,1.23,4.4.08,6.77.77.93.27,1.6.73,2.6.93.53.1,1.43,1.04,1.37,1.59-.13,1.28-.49,2.34-.37,3.51Z"/>
  <path class="cls-5" d="M208.53,154.69c.84.91.72,1.55,1.38,2.31-.26.84-.08,1.57.14,2.46.16.63-.65,1.88-.26,2.45.54.78.13.82.01,1.51-.14.77.59,1.88-.11,2.6-.4.42-.29,1.21-.21,1.73-1.15.97,2.24,1.69,4.44.68l.89.34c-.03.31.37.79.75.64,1.7-.7,2.12.46,3.4.77.29.07.49-.17.36-.48l.53.03c.15.21.39.26.58.27.34.02.47-.24.41-.51h.46s.12-.01.12-.01c.04-.01.1-.06.12-.12-.02-.02-.02-.08,0-.11.95.06,2.02.5,2.23,1.37.72.96.56,1.95.15,3.02.76.86.79,1.91-.02,2.78.73,1.07.51,2.14-.33,3.01l-.17,3.25c-.29.82-.76,1.39-.65,2.33.13,1.1-.75,1.83-1.65,2.06s-1.62-.29-2.29-.22c-1.62.17-2.92-.18-4.53-.47l-3.07.03c-.51,0-1.43.73-2.04-.2-1.06.58-1.15,1.88-.89,3.23l-.73,2.53c-.17.71-.37,1.2-.39,1.93l-.15,3.93-.02.25c-.12.04-.24.1-.3.21l-.06.11-1.56,2.17c-.5.69-1.62-.06-2.12.1-1.09.34-1.98.51-3.07.08-1-.4-2.13-.17-3.26-.16-.33-.12-.64-.5-.92-.34-.7.45-1.72.39-2.5.07l-3.02-1.23c-.66-.27-1.57-1.26-1.58-2l-.08-5.18c0-.57.21-1.09.19-1.52,1.11.12.12-1.85.74-2.46.75-.74,1.15-1.88.4-2.62,0-.11-.04-.38.03-.49.31-.52-.57-1.95.83-4.01,1.39.05,2.13-.79,3.49-.08,1.07.56,1.15,2.98.55,4.13-.45.87-1.28,2.07-.78,3.07.47.93.41,1.42.15,2.39-.37,1.42-.06,3-.14,4.47l1.77.67c.63.24,1.32-.12,1.98.33,1.1.76,2.31-.27,4.11.39,1.06-.98,1.19-2.27.88-3.6l.55-3.3c-.16-1.15-.08-1.92-.02-3.01.12-2.14.62-4.28,2.73-5.31l2.68.28c1.23-.27,2.43-.27,3.59.39,1.13-.42,2.23-.32,3.38.07,1.1-.32,2.08-.42,3.22-.33l.24-2.26c-.13-1.2-.53-2.32-.05-3.56.11-.28-.08-1.12-.46-1.11-1.39.04-2.64-.61-3.91-.68-.98-.05-1.67-.32-2.52-.47s-1.52.36-2.36-.5c-.53-.54-1.57.42-2.12.55-.66.15-1.82-.34-2.13-.81-.56-.85-.92-1.83-.94-2.8l-.09-4.41c-.02-1.09-.08-1.81.44-2.86.2-.39-.48-1.23-.5-1.65l-.09-2.13c.28-1.28.84-2.59,1.45-3.69.56-1.03,1.93-.71,2.71-.27ZM221.66,169.7l.13-.13c-.13-.2-.33,0-.13.13Z"/>
  <path class="cls-3" d="M36.45,59.99c1.67.74,1.35,1.76,1.98,1.74-.06.13-.04.37-.04.51-.43-.08-.55.15-.5.61.03.27.11.46.49.31,0,.15.01.37-.04.52l-.6,1.82c-.12.37-.01.73.24.91l-.03,1.07-.24,1.92c-.04.3.12.59.35.66.12.04.24-.02.41-.05l.67-.12c.21-.04.41-.06.53-.31.47-.14,1.3-.05,1.83.17,1.79.75,3.54.08,5.67.23,1.51.61,2.07,2.46,2.62,3.8.34.84.51.97.01,1.94-.24.47.42,1.49.37,2.07-.1,1.2-.61,2.33-.41,3.43-.43.8.69,1.88-.81,3.41.1.1.08.23.06.3-.09.04-.24.16-.24.25v.25s-.26.22-.26.22c-.9.57-1.87.65-2.93.8-.87.12-1.36-.3-2.04-.39-1.41-.18-2.82.06-4.14-.19-.51-.1-1-.5-1.72-.41.38,2.04-1.22,3.51-.62,5.51.34,1.12,0,1.98-.5,2.95-.22.43.42,1.04.54,1.39.26.71-.14,2.01-.78,2.51-1.14.9-2.4.33-3.57.28-.87-.03-1.47.29-2.32-.2-.49-.15-1.54.47-2.09.3l-1.12-.36-3.51-.21c-.83-.05-.9.06-1.58-.38-1.31-.85-2.67-1.84-3.17-3.48-.14-.45.41-.83.51-1.11.59-1.75.34-3.43.53-5.24.08-.75.7-1.54.14-2.23.21.02.37-.16.28-.37-.04-.09-.12-.16-.25-.13v-.27s.04-.3.04-.3c1.02-.18.6-1.87,2.13-2.41.6-.21,1.91-.52,2.17.34.57,1.9-.23,3.93-.28,5.83-.02.84.23,1.56-.33,2.34-.24.34-.05.64-.04.88l.04,1.72c0,.36.1.63.42.72.23.06.64-.17.91-.13.82.11,1.64.69,2.53.34.82-.33,1.58-.29,2.31.06.12-.03.39-.06.51.03.5.38,1.91.22,2.14-.48.29-.9,0-1.79,0-2.53v-.46c.2.07.5-.02.5-.16v-.57c0-1.26.44-2.41.21-3.65-.02-.09-.4-.08-.42-.03v-.47c.35.05.5-.21.49-.41l-.04-.65.03-1.16c.15.01.34.02.48-.16.1-.12.01-.35-.24-.35.09-.11.23-.36.27-.49.33-.08.61-.29.88-.61.82-.6,1.88-.59,2.8-.09,1.66-.64,3.16-.32,4.71.41.81-.01,1.93-.5,2.78-.23l.1-1.91c0-.08.09-.22.14-.28l-.13-1.78c0-.12.04-.38-.02-.49.65-.49.76-2.11.09-2.68-1-.85-2.37-.38-3.5-.37-.73,0-1.48-.36-1.93.36l-.52-.07c-.01-.26-.21-.57-.59-.59l-1.46-.04c-.36-.4-1.15-.51-1.67-.53.04-.5-.55-.59-.88-.8-.63-.4-.36-1.28-.44-1.84-.15-1.04-.41-1.85-.39-2.77l.06-2.26c.05-1.73,1.12-3.06.19-2.93l.05-.81c.39-.07.24-.55.46-.88l.69-1.03c.28.01.78.12,1.01-.02Z"/>
  <path class="cls-6" d="M39.4,85.85c-.1,0-.31-.05-.43.04l-.25,2.3c-.11,1.01-.52,1.86,0,2.89-.58.67-.68,1.43-.37,2.19-.12.88-.38,1.84-1.24,2.02-.13-.35-.76-.96-.54-1.39.49-.97.83-1.83.5-2.95-.6-2,.99-3.46.62-5.51.72-.09,1.21.31,1.72.41Z"/>
  <path class="cls-2" d="M195.72,200.23c.29-.16.6.22.92.34,1.13,0,2.26-.24,3.26.16,1.09.44,1.98.27,3.07-.08.5-.16,1.62.59,2.12-.1l1.56-2.17c.34.65-.16,1-.48,1.49-.42.63-.59,1.12-1.13,1.3-.68.23-1.15-.08-1.79-.09-1.11-.02-2.4.51-3.5.04s-2.14-.48-3.34-.1c-.26-.03-.6-.6-.69-.8Z"/>
  <path class="cls-6" d="M188.72,190.37l-.06-1.82c-.02-.51.51-.93.38-1.6s.23-1.42.82-1.66c.75.74.35,1.88-.4,2.62-.62.61.37,2.58-.74,2.46Z"/>
  <path class="cls-6" d="M215.43,168.5c-.16.08-.4.25-.59.27l-.89-.34c-.44-.17-1.11-.32-1.58-.01-.74.48-1.18-.02-1.75-.29-.29-.14-1.01.25-1.11-.38-.08-.52-.2-1.31.21-1.73l-.06,1.57c1.29-.27,2.25.13,3.39.31.89.14,1.66.14,2.39.62Z"/>
  <path class="cls-2" d="M207.04,197.81l.15-3.93c.03-.73.22-1.22.39-1.93l.73-2.53c.27,1.4-.14,2.44-.65,3.62l-.19,3.48c-.03.52-.11,1-.42,1.29Z"/>
  <path class="cls-6" d="M39.12,69.63c.03.07.02.18.01.26l-.67.12c-.33-1.48.21-2.62-.51-2.54l.03-1.07c.02-.7.14-1.54.89-1.71-.36.92-.07,1.99.14,2.98.14.66-.11,1.38.1,1.96Z"/>
  <path class="cls-6" d="M221.32,169.22v.25s-.46.01-.46.01c-.33,0-.82-.09-.99.24l-.53-.03c-.97-.05-1.74-.81-2.46-1.39,1.92-.41,3.13.84,4.45.92Z"/>
  <path class="cls-2" d="M219.33,169.69c.13.31-.07.55-.36.48-1.28-.31-1.7-1.47-3.4-.77-.37.16-.78-.33-.75-.64.19-.02.43-.18.59-.27.47.03.98-.1,1.44-.2.72.58,1.49,1.34,2.46,1.39Z"/>
  <path class="cls-6" d="M48.95,84.62c1.5-1.52.38-2.6.81-3.41.38.65.62,1.55.4,2.37-.16.63-.62,1.07-1.22,1.03Z"/>
  <path class="cls-2" d="M38.91,64.21c.01.14.01.35-.04.48-.74.18-.86,1.02-.89,1.71-.26-.17-.36-.54-.24-.91l.6-1.82.57.54Z"/>
  <path class="cls-2" d="M138.15,230.55c-.36.82-1.18.91-2.07,1.13l-2.22.55c-.36.09-.74.85-1.33.57,1.05-1.28,3.03-1.4,4.64-1.53.24-.24.53-.74.98-.72Z"/>
  <path class="cls-2" d="M39.67,69.58c-.13.25-.33.28-.53.31,0-.08.01-.19-.01-.26.18.01.36,0,.55-.05Z"/>
  <path class="cls-2" d="M20.14,85.17l.03-.5c.13-.03.21.04.25.13.09.21-.07.39-.28.37Z"/>
  <path class="cls-2" d="M221.32,169.46v-.25s.25.01.25.01c-.02.03-.02.09,0,.11l.23.22c-.13-.2-.33,0-.13.13l-.22-.24h-.12Z"/>
  <path class="cls-6" d="M48.77,85.16c0-.09.15-.2.24-.25-.04.11-.13.21-.24.25Z"/>
  <path class="cls-6" d="M48.51,85.63l.25-.22c0,.12-.17.17-.25.22Z"/>
  <path class="cls-2" d="M206.71,198.28c.06-.11.19-.17.3-.21-.01.16-.12.29-.3.21Z"/>
  <path class="cls-2" d="M23.85,91.07c0-.24-.2-.55.04-.88.56-.78.31-1.49.33-2.34.05-1.9.85-3.93.28-5.83-.26-.86-1.56-.55-2.17-.34-1.54.54-1.11,2.24-2.13,2.41l.67-1.99c.31-.93,1.53-1.2,2.41-1.27.69-.06,2.14.44,2.15,1.37,0,1.66-.7,3.23-.51,4.92.15,1.43-.22,2.88-1.07,3.94Z"/>
  <path class="cls-2" d="M34,82.23c.1-.33.19-.76.36-1,.53-.75,3.27-.28,3.52-.33,1.68-.31,3.18-.13,4.75.55l2.14-.27c.04-.45-.09-1.3.5-1.39l-.1,1.91c-.85-.27-1.98.22-2.78.23-1.55-.73-3.05-1.05-4.71-.41-.93-.5-1.98-.5-2.8.09-.27.32-.55.53-.88.61Z"/>
  <path class="cls-2" d="M45.27,77.25c-.31-.66.44-1.79-.17-2.38-.16-.15-.73-.07-.92-.18-.78-.44-1.14-.15-1.86.04-.77.2-1.73-.08-2.39-.17.46-.71,1.2-.35,1.93-.36,1.12-.02,2.5-.48,3.5.37.67.57.56,2.2-.09,2.68Z"/>
  <path class="cls-2" d="M30.05,93.77c-.73-.35-1.49-.39-2.31-.06-.88.35-1.71-.23-2.53-.34-.27-.04-.68.2-.91.13-.32-.08-.41-.36-.42-.72,1.76.28,3.05-.46,3.47.79.55-.36,1.03-.55,1.68-.56.59-.01.98.25,1.01.75Z"/>
  <path class="cls-2" d="M33.99,67.92c-.02.92.24,1.74.39,2.77.08.55-.19,1.44.44,1.84.34.21.92.3.88.8-.45-.02-.93-.03-1.23-.37-.87-.97,0-2.14-1.02-3.79-.18-.3-.17-.69-.03-.94.11-.19.31-.32.57-.3Z"/>
  <path class="cls-2" d="M32.7,90.78c-.01.74.29,1.63,0,2.53-.23.71-1.64.86-2.14.48l1.58-.6c.52-.18-.42-2.36.56-2.41Z"/>
  <path class="cls-2" d="M32.71,90.33c.35-.4.02-.78-.09-1.24.04-.37.43-.88.42-1.46l-.04-1.71s.4-.05.42.03c.23,1.24-.22,2.38-.22,3.65v.57c0,.14-.29.23-.49.16Z"/>
  <path class="cls-2" d="M34.05,65.66c-.31-.34-.74-1.35-.42-1.74.37-.44.58-.64.61-1.19.93-.13-.15,1.2-.19,2.93Z"/>
  <path class="cls-2" d="M38.43,61.73c-.63.03-.31-1-1.98-1.74.81-.65,2.19.89,2.18,1.13,0,.2-.11.4-.2.6Z"/>
  <path class="cls-2" d="M35.44,60.01l-.69,1.03c-.22.33-.08.81-.46.88-.04-.57.1-1.14.38-1.72.26-.18.52-.21.77-.19Z"/>
  <path class="cls-2" d="M39.41,74.49c-.76-.1-1.53-.06-2.04-.64l1.46.04c.38.02.57.33.59.59Z"/>
  <path class="cls-2" d="M45.29,77.74l.13,1.78c-.4-.2-.52-.53-.6-.91s-.08-.87.48-.87Z"/>
  <path class="cls-2" d="M38.39,62.24v.91c-.39.16-.46-.03-.5-.31-.06-.46.07-.68.5-.61Z"/>
  <path class="cls-2" d="M33.45,84.39l.04.65c.01.2-.14.46-.48.41,0-.2-.06-.57,0-.84.03-.14.21-.28.44-.22Z"/>
  <path class="cls-2" d="M33.48,83.23c0-.23.13-.36.24-.51.25,0,.33.22.24.35-.14.18-.34.17-.48.16Z"/>
  <path class="cls-2" d="M213.94,168.42c-2.2,1.01-5.59.29-4.44-.68.1.62.82.24,1.11.38.57.27,1.01.77,1.75.29.47-.3,1.15-.16,1.58.01Z"/>
  <path class="cls-2" d="M220.86,169.48c.06.27-.07.53-.41.51-.2-.01-.43-.06-.58-.27.17-.33.66-.23.99-.24Z"/>
  <path class="cls-2" d="M38.47,70.01c-.17.03-.29.09-.41.05-.22-.07-.38-.37-.35-.66l.24-1.92c.72-.08.18,1.06.51,2.54Z"/>
  <g>
    <path class="cls-1" d="M169.82,54.75l4.29,1.45,2.29,1.03c.71-.08,1.11-.18,1.61.1s.33.97.55,1.28c1.27,1.77,1.33,2.12,1.69,3.86.23,1.11.87,2.25,1.3,3.3l1.57,3.88c.46,1.14.99,1.98,1.25,3.24.13.62.72,1.27.49,2.08.95.83,1.07,2.19.25,3.11.09,1.3-.43,2.44-1.07,3.56l-.34,2.6-.81,1.96-.9,2.79c-.49,1.51-1.18,3.73-1.47,4.2-1.08,1.77-.74,4.04-1.79,6.08-.45.87-.65,1.43-.91,2.39l-1.02,3.9-1.59,4.5c-.25,1.46-.66,2.84-1.02,4.3l-1.03,4.15c-.23.93-.29,1.69-.65,2.61-.85,2.12-1.02,4.53-2.06,6.58-.32.62-.17,1.16-.38,1.81l-1.29,3.91-1.72,5.43c-.38,1.19-.51,2.19-.62,3.38-.04.45-.64,1.02-.34,1.69.53,1.21,1.29,1.04,1.47,1.62.27.86-.45,2.57-1.05,3.84-.34.71-.3,1.49-.78,2.22l-.28,2.4c-.93,1.68-.94,3.45-1,3.65l-.43,1.61c-1.04.83-.26,2.09-1.44,4l-.24,1.45c-.48,1.16-.49,2.27-.76,3.48l-.3,1.36c-1.31.27-.58,2.36-1.82,4.06-.6.82-.65,1.02-.59,2.06.03.5-.06,1.58-.25,2.13l-1.14,3.3c-.11.31-.72.58-.51,1.19.16.48-.23.92-.31,1.28-.29,1.32-.38,2.73-1.17,3.91-1.06,1.6-.46,3.98-1.94,6.65-.81,1.47-.88,3.25-.93,3.38l-.8,1.78c-.46,1.02-.67,1.3-.7,2.38-.03.91-.49,2.2-.8,3.07l-.66,1.85c-.24.69-.2,1.6-.47,2.16-.38.8-.44,1.52-.74,2.27-.66,1.67-1.43,3.25-1.4,5.12-.5.02-.75.18-.88.33s-.04.58-.07.74l-.56,2.71c-.21,1.02-.61,1.92-.62,2.91l-2.56-.75c-.91-.27-2.15.63-3.06.95l-4,1.41c-.76.27-1.41.28-2.12.62l-1.82.86c-1.29.13-2.24.75-3.25,1.43-.89.59-2.04.62-3.02.93l-1.25.75c-3.79.62-4.62-1.23-6.69-1.77l-4.82-1.25c-.67-.18-1.37-.18-1.75-.78-1,.4-1.71-.31-2.59-.57-1.48-.45-2.99-.45-4.32-1.47h-1.84c-.46-.77-1.01-.74-1.82-.78l-2.45-.89c-.31-.11-1.26.37-1.44-.02-.39-.84-.95-.57-1.49-.81-2.23-.96-4.34-1.28-6.67-1.81-.73-.19-1.43-1.2-2.52-1.11s-1.98-.67-2.85-1.01c-.79-.3-1.6-.24-2.42-.59l-2.38-1.01c-1.66-.7-3.22-1.13-4.91-1.6-1.09-.31-2.05-.93-3.27-.85-1.06.07-1.67-.63-2.49-.94l-4.34-1.64-2.8-.69c-.69-.17-1.06-.7-1.89-.85-1.04-.19-2.31-.23-3.28-.6-.6-.23-1-.6-1.67-.81l-5.06-1.59c-1.57-.79-2.64-2.44-3.44-3.9-.98-.48-1.53-1.2-1.69-2.29l-1.57-.94c.22-1.43-.72-2.1-1.34-3.02l-1.19-1.76c-.48-.7-.34-1.64-1.21-2.33-.42-.33-.91-1.32-.69-1.87l1.44-3.53c.4-.98.43-2.04.61-3.11l1.65-3.86c.1-1.39.16-2.4.91-3.73,1.06-1.87.38-4.67,1.35-6.05l.41-1.98c.14-.65,1.19-1.19,1.13-1.95-.06-.81-.25-1.51.05-2.37.22-.61-.46-1.19-.92-1.36-1.29-.48-1.9,1.61-3.13,1.96l.56-1.59c.08-.19.77-.07.85-.26.21-.5-.62-1.26.15-2.32-.31-.8-.11-1.5.34-2.19.74-1.11.52-2.84,1.09-4.1l.53-.53-.05-.71.82-1.35-.41-.79.43-.68c.01-.75-.03-1.43.59-1.99-.48-.74-.31-1.53.31-2.1-.5-1.19.09-1.58.7-2.26.75-.83.3-2.66.81-3.61s.48-1.57.71-2.49l1.27-5.06c.18-.73.27-.99.72-1.63.32-.45-.06-1.6.15-2.16.85-.53.66-1.15.54-1.91-.14-.92,1.02-1.74,1.36-2.4,0-1.64.31-3.12,1.29-4.49.7-.65.95-1.51.49-2.43.46-1.31.83-2.68.54-4.02,1.51-.22,1.81-3.18,1.46-4.36-.3-1.02,1.01-1.58,1.27-2.3-.02-.52-.78-1.36.23-1.91-.21-.86.1-1.63.94-1.91-.12-2.37,1.5-4.98,1.98-7.3.27-1.32.58-2.44,1.67-3.42.18-.86-.33-2.43.38-3.22.57-.64,1.1-2.4.98-3.4.28-1.16,1.02-2.22.87-3.56.46,0,.76-.27.76-.47,0-.28-.04-.56-.41-1,1.49-.43,1.18-1.67,1.49-2.8.22-.8,1.07-1.44.92-2.49-.2-1.42.73-2.5,1.17-3.64.85-2.2,1.08-4.96,2.42-6.1-.13-1.18.02-2.76.89-3.31l.34-2.24c.58.78,1.16,1.28,2.02,1.54.48.14.92.26,1.49.18.02.71-1.05,1.32-1.12,1.98-.07.71-.29,1.31-.38,1.86-.26,1.75-.71,3.78-1.54,5.3-.16.29.23.99-.5,1.21-.22.07-.38.68-.27.9.4.75-.09,1.04-.35,1.63-.23.52-.62,1.59-.57,2.19.09,1.04-.58,1.46-1.14,2.24-.51.71-.09,2.35-1.34,2.84l.07,2.05c-.96.55-.81,1.45-1.1,2.36-.16.52-.82.99-.46,1.58.8,1.33,2.96.72,3.69-.03l.29-1.87c.52-.47.65-.87.84-1.47l.84-2.68c.26-.83.55-1.16.48-2.17-.03-.53.74-1.36.6-2.1-.08-.42.64-.54.82-.71.61-.55.31-1.94.56-2.56.89-2.19,2.37-4.15,1.93-5.66l1.12-.99c-.29-.94.06-1.54.34-2.33.22-.61.18-1.26.9-1.6,1.3-.62-.38-2.74,1.81-3.15-.49-1.05.58-1.86.77-2.5-.16-1.1.13-1.63.9-2.42.37-.38.65-.88,1.27-1.07.52-.16,1.49-.61,1.84-.98.56-.57,1.12-.7,1.82-1.04s1.24-1.16,2.39-.69c.4-.86,1.14-1.13,2.02-.96l2.74-1.68,2.98-1.02c.52-.18,1.21,0,1.46-.85l1.37.05c.73-1.04,1.75-1.27,2.89-1.4.98-.11,1.51-1.97,3.76-1.6.65-.54,1.33-.82,2.26-.7.3-.79.89-1.18,1.82-.83.66-1.26,2.05-1.67,3.32-1.14.24-.6.63-1.04,1-1.18.85-.34,1.51.79,2.99.11.6.93,1.35.71,2.25.83,1.53.21,3.22.48,4.6,1.11s2.91,1.45,4.86,1.25c1.07-.11,2.71.49,3.6,1.05.8.5.94.68,1.91.72.91.03,2.65.29,3.45.83,1.03.69,1.76,1.18,3.01,1.34,2.37.31,4.13,2.12,5.49,1.77.23-.06.57.57.63.82.52-.24,1.24-.52,1.64-.15.19.17.09.78.29.85.73.26,2.19-.69,3.24,1.1.59.13,1.34.45,1.95.66l3.32,1.16c.64.22.75,1.01,1.74.73.25-.07.91.06,1.02.32l.4.91c1.28-.12,2.6.37,3.55,1.15.8.65,1.63.57,2.52.8.31.08,2.62,1.58,3.01.17.29-1.05-.83-1.44-.92-2.36ZM96.87,49.93c-1.22-.06-1.25,1.24-2.38,1.84-.27.05-.73-.22-.96.16-.16.26-.25.76-.43.92-.35.22-.62.93-.94,1.19-.7.57-.52,1.16-.67,1.79-.09.38-1.05.65-.38,1.54-1.05.66-1.05,1.75-.62,2.59l-1.27,2.06c-.46.74-.76,1.48-.41,2.3-.26.36-.63.83-1.09,1.23.24,1.14-.19,2.64-.78,3.46-.08.11-.37.18-.42.29-.08.15.14.29.23.35.02.16-.13.58,0,.71-.96-.09-.7,1.04-.97,1.45-.6.91-.79,1.99-.93,2.8-.07.41-1.06.77-.57,1.35-.17.07-.19.43-.26.58s-.26.31-.26.53.03.51-.06.71l-.19.41c-.11.24.02.53.35.6-.7.78-1.02,1.79-.86,2.7-.27.4-.71.95-.56,1.49.19.68-.87,1.2-1.2,1.65-.04.9.12,1.62-.61,2.33-.87.85-.75,2.22-1.15,3.27l-.74,1.97c-.38,1.02-.67,1.69-.57,2.88.05.61-.47,1.38-.31,1.97l-.68.15c-.45.09-.23.68-.37.86-.34.43-.15,1.64-.35,2.15-.29.76-1.55,2.33-1.61,4.98-.14.44-.78.87-.7,1.74l-.83,2.07-.66,2.55c-.1.39-.18.9-.25,1.26-.26.33-.59.69-.45,1.22.06.22.03.49.03.73l.08.6c-1.12,1.61-2.02,3.36-1.56,5.33-.33.09-.9.84-.74,1.18.54,1.14-.72,1.51-.84,2.07-.2.92-.09,1.82-.65,2.65-.28.41-.52,1.46-.66,1.93.72,1.68-1.25,2.04-.58,4.61-.76.16-1.12,1.16-1.18,1.88l-.12,1.46c-.19.08-.41.23-.45.41-.09.39,0,.7.29.88l-1.03,2.69c-.1.25.05.91-.09,1.1-.49.66-.71,1.29-.39,2.14-.32.16-.6.28-.72.44-.16.24.08.98-.04,1.22-.96,1.91.03,2.04-.67,3.23-.11-.05-.32-.07-.42,0-.14.09-.14.34-.14.52l-.18,3.64c-1.16.87-.37,1.97-1.12,3.16l-.47.13c-.19.05-.15.34-.19.46-.14.42-.07.85-.07,1.22,0,.8.03,2.18-.4,2.91-.53.91-.81,1.31-.47,2.3.21.61-.63,1.53-.66,2.17-.04,1.03-.11,1.58-.69,2.39l-.64,1.78c-.06.17.27.76.17.86l-.54.53c-.5.5-.14,1.55.19,2.38-1.2.66-1.12,1.54-.9,2.73.11.62-.32,1.51-.16,2.1l-.66,1.11c-.39.66-.42,1.12-.17,1.64l-.49,1.68c-.16.55-.83.86-.57,1.53.17.45.54.94,1.1.98-.01.63.17,1.49.77,1.92.88.64.95,1.52,1.4,2.37.87,1.67,2.85,2.92,3.17,4.46l4.73,1.91c.29.12.46.79.75.85.43.08.76-.13,1.24-.33.48,0,1.33.34,1.75.62.67.44,1.2.38,1.9.68l1.65.72c.87.38,1.43.42,2.36.69l1.91.57c-.04.44-.04,1.58.51,1.79l3.07,1.18c.35.14.87,0,1.16,0,.12.44.56.79.99.86.32.05.83.39,1.21.19,1.06-.55,1.65.04,2.67.61.45.25,1.61-.12,1.84.92l2.16-.1c.62.89,1.62,1.32,2.64,1.1,1.35,1.49,3.2.34,4.34,1.64,1.12-.16,1.85.35,2.46,1.18l2.31.12c.98.48,1.81,1.02,2.82.64.09.95,2.67.8,4.81,2.41.48.36,1.4.03,1.86.04.71.02,1.06.78,1.6,1.11,1.46.88,3.69.64,4.78-1.01l.66.08c-.78.98-.68,2.24.24,3.2.33.34.71.49,1.19.42.4-.06.56-.39.87-.88l1.49-.57c.44-.51,3.15-2.22,3.65-2.35.78-.19,1.18-1,1.8-1.31.84-.42,1.68-.73,2.13-1.69.1-.22.85-.25,1.03-.41.59-.53,1.07-1.06,1.86-1.35,2.04-.75,1.48-2.6,3.22-2.26.34-.4.46-.87,1.24-1.02.59-.11.72-1.32.41-1.84-.4-.68-.33-1.55.15-2.16,1.18-1.52,2.38-5.12,2.29-7.13.05-.45,1.07-1.02.84-1.74-.33-1.01.35-1.89.47-2.72.16-1.12.49-1.68.9-2.62l.76-1.72c.51-1.17.52-3.17,1.12-4.35l.71-3.48c.51-.89.41-1.56.67-2.51l1.32-4.7.49-2.47c.18-.93.4-1.6.51-2.5,1.03-1.82,1.36-3.61,1.79-5.6.16-.74.37-1.2.37-2.13,0-1.3,1.31-2.57,1.53-3.93.08-.48-.09-1.11.23-1.5.55-.66.77-1.37.37-2.19.09-.28.48-.57.61-.78.03-2.4,1.55-4.38,1.45-5.52-.1-1.27.08-1.92.84-2.85l.57-2.8c.17-.83.07-1.54.27-2.26.37-1.31.71-2.33.67-3.76-.06-1.84,1.67-3.14,1.55-3.67-.5-2.2.82-2.51.85-4.22.67-.12.4-.91.56-1.36l.87-2.37c.06-.17.05-.4.11-.57.04-.03.15-.05.19-.11.1-.14-.02-.27-.18-.23l.3-1.94.91-2.76c.3-.91.52-1.8,1.12-2.57l-.37-1.31c.84-.95.82-2.04,1.14-3.18.28-1.02,1.27-2.02,1.01-3.31-.16-.78-1.53-1.36-2.14-1.11-1.1.44-1.17,1.34-1.46,2.12-.59,1.57-.95,2.96-1.43,4.59-.18.62-.99,1.31-.56,2.06-.78.82-1.03,2.27-1.3,3.19l-.22.72-.21.54c-.67,1.67-.42,3.86-1.4,5.5-.45.75-.62,1.3-.51,2.13-.29.42-.59,1.12-.76,1.8-.44,1.8-1.05,3.39-1.1,5.28-.01.57-.45,1.06-.9,1.09.03-.36-.15-.77-.54-1.07.48-.88.44-1.84.75-2.81l.75-2.42c.3-.95,1.14-1.95.93-3.05-.21-1.16.2-2.26.9-3.16,1.43-1.82.45-4.25,1.69-5.81.47-.59.32-1.62.55-2.41.35-1.22.88-2.1,1-3.52l1.77-3.8c-.46-1.95.75-3.62,1.91-5.38.39-2.75,1.06-5.38,2.27-7.83.62-1.25.34-3.23,1.24-5.22.34-.76.7-1.22.81-2.15l.46-3.87c-1.15-2.06-1.6-3.2-2.15-5.42-.12-.49-1.18-.99-.8-1.77.58-.04,1.57.07,2.09-.37s.14-1.55-.51-1.67l-.44-1.3c-1.7-1.09-2.98-.52-3.83-1.63-.87.34-1.58,0-1.88-.82-2.86-.11-4.42-1.66-4.53-1.65-.2.03-.55,0-.76-.08-.26-.09-.51-.14-.84-.05l-2.12-.83c-.01-.17-.06-.37-.14-.48-.35-.47-1.34-.08-1.79-.25l-2.17-.82c-.96-.36-2.32-1.4-3.77-1.5l-1.26-.44h-.67c-.32-.02-.47-.55-.61-.74-1.83.11-3.49-1.54-4.62-1.21-.52.15-.85-.09-1.26-.16.02-.17.09-.54,0-.65-.1-.12-.51-.07-.7-.04-.97.15-1.68-.35-2.45-.35h-.55s-1.62-1.05-1.62-1.05c-.33-.21-.79,0-1.1.15l-.87-.68c-.98.81-1.72-.04-2.49-.16-.99-.15-1.84-.41-2.77-.64-.1-.28-.23-.47-.36-.62-.04-.05-1.81-.29-3.29-.44l-.66-.71c-.12-.13-.6.18-.84.18h-.52c-.37-.44-.99-.48-1.49-.23l-2.43-1.04c-.66-.28-1.41.13-2.3-.09-1.59-.39-3.19-1.31-4.81-1.42-1.5-.1-2.6-.4-4.01-.81-1.09-.32-2.27.61-3.26.78-.74.13-1.39.3-1.86.63Z"/>
    <path class="cls-3" d="M144.93,222.86c1.27.38.46,1.42,1.1,2.6.48.88-.23,1.1-.52,1.53-.69.99-1.25,1.63-2.6,1.68-.79.03-1.51.86-2.04,1.31-1.1-.35-1.81.62-2.72.57-.46-.02-.74.48-.98.72-1.61.13-3.59.25-4.64,1.53-.51.62-.97.58-1.65.82l-5.69,2.05c-.21.08-.68-.2-.73-.04l-.22.72c-.18.61-1.47,1.21-2.15,1.04l-.82-.81-1.04.15c-.87-.14-2.16-.26-2.87-.75-1.03-.72-1.83-.9-2.99-1.29-.67-.22-1.18-.87-2.12-.82-.81.05-1.63-.38-2.23-.99-1.49.06-2.78-.51-3.97-1.47-2.08-.05-4.01-.68-5.91-1.5-.22.22-.7.11-.75-.07-.24-1.05-1.04-.87-1.73-1.06-.84-.24-1.25-.39-2.07-.32-1.28.11-2.44-.93-3.53-1.47-2.11.2-4.58-1.02-6.65-1.68-1.03-.33-2.24-.27-3.21-1.06l-1.53-.14c-1.51-1.61-3.8-.24-5.48-1.86-.36.16-.76.21-.93,0s-.3-.38-.42-.78c-1.64.65-2.96-.14-4.25-1.14-.76-.07-1.85-.3-2.61-.41l-2.2-.32c-.86-.12-1.32-.67-1.75-.96-3.75-.24-7.5-2.95-9.83-2.76-.65.05-1.19.24-1.54-.51-.33-.7-.91-.31-1.37-.41-.76-.17-1.9-.26-2.46-.65-.81-.57-1.25-.74-2.28-.83-.37-.03-1.05-.53-1.55-.23-1.07-1.95-2.69-.22-5.1-1.59l-1.51-2.48-1.6-2.54c-.82-.68-1.13-1.3-1.13-2.4-1.05-2.09-2.09-1.81-2.43-3.03-.14-.51-1.36-1.14-1.37-1.69-.02-.81.04-1.37-.04-2.2l-.25-2.46c-.04-.4.55-.87.96-1.03-.41-.89-.41-1.69.4-2.29-.04-1.54.51-2.8,1.27-4.1l.44-2.78s1.38-3.77,1.6-4.03c.58-.69.32-1.31.42-2.12s1.11-1.71.71-2.83l1.14-.47c-.29-.63-.4-1.02-.32-1.58.04-.3.54-.56.8-.88l.26-2.66.97-1.87c-.61-1.07-.03-1.77.33-2.75.24-.66-.03-1.66.91-1.93,1.23-.36,1.84-2.44,3.13-1.96.46.17,1.14.76.92,1.36-.31.86-.12,1.56-.05,2.37.06.76-.99,1.31-1.13,1.95l-.41,1.98c-.97,1.37-.3,4.18-1.35,6.05-.75,1.33-.81,2.35-.91,3.73l-1.65,3.86c-.18,1.06-.21,2.12-.61,3.11l-1.44,3.53c-.22.55.27,1.54.69,1.87.88.69.74,1.63,1.21,2.33l1.19,1.76c.62.92,1.56,1.59,1.34,3.02l1.57.94c.16,1.09.71,1.81,1.69,2.29.8,1.46,1.86,3.11,3.44,3.9l5.06,1.59c.67.21,1.08.58,1.67.81.96.38,2.23.42,3.28.6.83.15,1.19.68,1.89.85l2.8.69,4.34,1.64c.82.31,1.43,1.01,2.49.94,1.22-.08,2.18.54,3.27.85,1.69.47,3.26.9,4.91,1.6l2.38,1.01c.83.35,1.63.28,2.42.59.88.34,1.79,1.1,2.85,1.01s1.79.92,2.52,1.11c2.34.54,4.45.85,6.67,1.81.54.23,1.11-.03,1.49.81.18.38,1.12-.1,1.44.02l2.45.89c.8.04,1.36,0,1.82.77h1.84c1.33,1.02,2.84,1.03,4.32,1.48.88.26,1.59.98,2.59.57.38.6,1.07.6,1.75.78l4.82,1.25c2.07.54,2.9,2.39,6.69,1.77l1.25-.75c.98-.31,2.13-.33,3.02-.93,1.01-.68,1.96-1.3,3.25-1.43l1.82-.86c.71-.34,1.36-.36,2.12-.62l4-1.41c.91-.32,2.14-1.22,3.06-.95l2.56.75Z"/>
    <path class="cls-6" d="M173.23,133.71l.48-1.01c.1-1.42.52-2.61,1.35-3.66-.1.67-.21.99-.74,1.63-.21,1.54.19,2.92-1.09,3.04Z"/>
    <path class="cls-6" d="M177.67,119.17c-.02-.91,0-1.89.7-2.53.2.9-.46,1.71-.7,2.53Z"/>
    <path class="cls-4" d="M99.78,32.16l.58-.09c.04.66.9.51,1.21.72,1.3.86,2.46.82,3.9,1.17l2.56.63,2.25.7c1.02.32,1.99.81,3.05.79l.98-.02c.98.57,2.11.78,3.21.79h.45c-.02.1,0,.27.07.34.08.09.25.16.46.16h1.27c.08.06.16.14.21.23.32.59,1.13.69,1.76.7l.96.02c.19.3.8.22,1.19.32l1.57.41c1.68.71,3.32,1.13,5.26,1.46l2.34.82c1.3.46,5.71,1.73,6.2,1.81,1.55.23,2.94.38,4.29,1.29l1.66.18c.3.75.93.91,1.61,1.18,1.07.31,2.12.48,3.13,1.1,1.26-.34,2.55.22,3.38,1.24l1.58.14c1.36.84,2.73,1.36,4.26,1.9l2.3.8c1.08.38,1.59.41,2.4,1.18.97.93,2.64,1.01,3.83,1.58l2.12,1.01c.09.93,1.21,1.31.92,2.36-.39,1.41-2.69-.09-3.01-.17-.89-.23-1.72-.15-2.52-.8-.95-.78-2.27-1.27-3.55-1.15l-.4-.91c-.11-.26-.77-.39-1.02-.32-.99.28-1.1-.51-1.74-.73l-3.32-1.16c-.61-.21-1.36-.53-1.95-.66-1.05-1.79-2.51-.85-3.24-1.1-.2-.07-.1-.68-.29-.85-.4-.37-1.12-.09-1.64.15-.06-.26-.4-.88-.63-.82-1.35.35-3.11-1.46-5.49-1.77-1.25-.17-1.98-.65-3.01-1.34-.8-.54-2.54-.8-3.45-.83-.98-.04-1.11-.22-1.91-.72-.89-.56-2.53-1.16-3.6-1.05-1.95.2-3.43-.59-4.86-1.25s-3.07-.9-4.6-1.11c-.9-.12-1.64.1-2.25-.83-1.48.68-2.14-.44-2.99-.11-.36.14-.76.58-1,1.18-1.26-.54-2.65-.12-3.32,1.14-.93-.35-1.52.04-1.82.83-.93-.12-1.61.17-2.26.7-2.26-.37-2.79,1.49-3.76,1.6-1.15.12-2.16.36-2.89,1.4l-1.37-.05c-.25.85-.94.67-1.46.85l-2.98,1.02-2.74,1.68c-.88-.17-1.62.1-2.02.96-1.15-.47-1.68.35-2.39.69s-1.26.47-1.82,1.04c-.35.36-1.31.82-1.84.98-.62.19-.9.69-1.27,1.07-.78.79-1.06,1.32-.9,2.42-.19.63-1.26,1.45-.77,2.5-2.19.41-.51,2.53-1.81,3.15-.72.34-.68.99-.9,1.6-.28.78-.63,1.39-.34,2.33l-1.12.99c.44,1.51-1.04,3.47-1.93,5.66-.25.61.04,2.01-.56,2.56-.19.17-.91.29-.82.71.14.74-.63,1.57-.6,2.1.06,1.01-.22,1.33-.48,2.17l-.84,2.68c-.19.61-.31,1.01-.84,1.47l-.29,1.87c-.73.76-2.88,1.36-3.69.03-.36-.59.3-1.06.46-1.58.29-.92.14-1.81,1.1-2.36l-.07-2.05c1.25-.49.83-2.13,1.34-2.84.56-.78,1.23-1.19,1.14-2.24-.05-.6.34-1.67.57-2.19.26-.58.74-.88.35-1.63-.11-.21.05-.83.27-.9.73-.22.34-.93.5-1.21.83-1.52,1.28-3.55,1.54-5.3.08-.56.31-1.15.38-1.86.07-.66,1.14-1.27,1.12-1.98,2.18-.33,1.38-2.25,1.97-4.41l.61-.93c.57-.88.72-2.05,1.14-3.04.04-.12.01-.34,0-.46.4-.08.57-.65.63-1.11.26-2.04.76-3.87,1.65-5.68.7-1.42.91-2.93,1.33-4.4.31-1.07.95-1.98.93-3.24,1.48.29,2.29-.16,3.24-.96l.65-.55,1.32-.94c.51.05,1.07.1,1.56-.15.25-.13.27-.55.22-.73l.27-.28,2-.45c.51-.11.77-.56.74-.99.13-.04.41-.06.54-.05,1.25.17,1.56-1,2.64-.47,1.01.49,2.25.7,3.18.27Z"/>
    <path class="cls-4" d="M160.7,117.97c-.2-.04-.46.3-.01.34-.06.17-.05.4-.11.57-.87.29-1.08,1.28-1.31,2.15-.09.34-.45.64-.45.97,0,.21.12.48.32.61-.03,1.71-1.35,2.02-.85,4.22.12.53-1.61,1.83-1.55,3.67.04,1.43-.3,2.45-.67,3.76-.2.72-.1,1.43-.27,2.26l-.57,2.8c-.76.93-.94,1.57-.84,2.85.09,1.15-1.42,3.12-1.45,5.52-.13.21-.52.5-.61.78.41.82.18,1.53-.37,2.19-.32.39-.15,1.02-.23,1.5-.23,1.36-1.53,2.63-1.53,3.93,0,.93-.21,1.38-.37,2.13-.43,1.99-.77,3.78-1.79,5.6-.12.9-.33,1.57-.51,2.5l-.49,2.47-1.32,4.7c-.26.95-.16,1.62-.67,2.51l-.71,3.48c-.6,1.18-.6,3.18-1.12,4.35l-.76,1.72c-.41.94-.74,1.5-.9,2.62-.12.83-.8,1.71-.47,2.72.24.72-.78,1.29-.84,1.74.09,2.01-1.1,5.61-2.29,7.13-.47.61-.55,1.48-.15,2.16.3.52.18,1.72-.41,1.84-.78.15-.9.62-1.24,1.02-1.74-.34-1.18,1.51-3.22,2.26-.78.29-1.27.82-1.86,1.35-.18.16-.93.19-1.03.41-.45.97-1.29,1.28-2.13,1.69-.62.31-1.02,1.11-1.8,1.31-.51.13-3.21,1.84-3.65,2.35l-1.49.57c-.32.49-.47.82-.87.88-.47.07-.85-.08-1.19-.42-.92-.96-1.02-2.22-.24-3.2.23.04.48-.16.6-.37.06.02.14,0,.2,0,.15,0,.27-.1.3-.24h.21c.11-.06.21-.15.26-.26l.26-.2c.8.04,1.36-.81,1.99-1.17.83-.47,1.48-.92,2.32-1.47.56-.36,1.43-.41,1.59-1.27.26.11.48.13.58.09.12-.05.22-.29.2-.41.39-.03.87-.32.91-.73.72.02,1.43-.41,1.76-1.03.16.08.37-.1.49-.17.22-.14.4-.28.51-.53.06-.13.23-.33.23-.5.52-.02.85-.43,1.05-.87.17.07.36.1.49-.05.08-.1.15-.21.18-.33.08-.06.16-.12.25-.14,2.27-.56,2.06-4.18,2.08-4.26l.86-3.19c.2-.74.12-1.22.34-1.92l1.35-4.35c.1-.33.71-.55.61-1.18-.06-.39-.19-1.44.19-1.69.79-.53.38-1.8.68-2.36.45-.81.86-1.29.71-2.43-.08-.63.76-1.66.69-2.54l.56-1.64c-.08-1.55.35-2.82.96-4.16.72-1.55.67-3.26,1.15-4.78l1.53-4.85c.25-.8-.14-1.75.6-2.47.1-.1.02-.61.01-.78,0-.19-.08-.45-.44-.4.41-.49.42-1.12.64-1.8l1.38-4.18c.39-1.17.94-3.46.97-4.34.47-.51.8-1.06.93-1.73l.23-1.22,1.35-4.22c-.16-.1-.14-.38-.09-.47.31-.31.2-.88.25-1.27l.25-1.71c.96-.59.91-1.81,1.3-2.66.24-.54,0-1.22.04-1.69.35-.58.67-.78.48-1.61l.14-1.63c.45-.03.89-.53.9-1.09.05-1.89.66-3.48,1.1-5.28.17-.68.47-1.38.76-1.8-.12-.84.06-1.39.51-2.13.99-1.64.74-3.84,1.4-5.5.14,0,.46.04.66-.08.18-.11.1-.42-.06-.43l-.39-.03.22-.72c.15.04.29.02.39-.04.11-.07.12-.26.18-.41l.77-2c.07-.19.24-.34.15-.53-.04-.08-.12-.16-.18-.21-.43-.75.38-1.44.56-2.06.47-1.63.83-3.02,1.43-4.59.3-.79.36-1.69,1.46-2.12.61-.24,1.98.33,2.14,1.11.26,1.29-.72,2.29-1.01,3.31-.32,1.14-.29,2.23-1.14,3.18l.37,1.31c-.59.77-.82,1.66-1.12,2.57l-.91,2.76-.3,1.94Z"/>
    <path class="cls-2" d="M164.36,71.11c-1.01.07-1.69-.61-2.51-1.22l-2.16-.47c-.68-.83-1.29-.55-2.14-.98l-2.05-1.03c.48-.8,1.06-1.74.47-2.76-.15-.26-.86-.47-.7-.98.11-.02,1.67,1.53,4.53,1.65.3.81,1.01,1.16,1.88.82.85,1.1,2.12.54,3.83,1.63l.44,1.3c.65.12,1.04,1.23.51,1.67s-1.51.33-2.09.37Z"/>
    <path class="cls-6" d="M160.58,118.88l-.87,2.37c-.17.45.11,1.24-.56,1.36-.2-.13-.32-.41-.32-.61,0-.33.36-.63.45-.97.22-.87.44-1.86,1.31-2.15Z"/>
    <path class="cls-2" d="M135.27,57.11l-2.39-.42c-.24-.04-.46-.01-.64-.15-.11-.08-.18-.28-.12-.48.78,0,1.48.51,2.45.35.19-.03.6-.09.7.04.09.11.02.48,0,.65Z"/>
    <path class="cls-2" d="M151.55,62.73c-.76.13-1.6.06-1.92-.73.44.17,1.43-.22,1.79.25.08.11.12.31.14.48Z"/>
    <path class="cls-2" d="M65.73,136.42l.83.98-.98.31c-.29-.18-.38-.49-.29-.88.04-.18.26-.33.45-.41Z"/>
    <path class="cls-2" d="M117.03,52.1c-.35.16-.74.41-1.18.47-.21-.1-.32-.5-.31-.7.5-.24,1.12-.21,1.49.22Z"/>
    <path class="cls-2" d="M77.85,97.03c.06.23.11.64,0,.82-.16.27-.76.31-1.05.19.14-.18-.08-.76.37-.86l.68-.15Z"/>
    <path class="cls-2" d="M60.03,157.67c0-.37-.07-.8.07-1.22.12-.02.25-.06.48-.02.11.55-.13.95-.55,1.24Z"/>
    <path class="cls-2" d="M83.73,203.24c-.38.2-.89-.13-1.21-.19.1-.35.43-.29.63-.32.4-.08.71.05.58.51Z"/>
    <path class="cls-2" d="M119.28,211.61c-.12.21-.36.4-.6.37l-.66-.08.05-.78,1.2.49Z"/>
    <path class="cls-2" d="M154.51,63.6c.05.29-.09.38-.35.39-.33,0-.35-.33-.49-.44.33-.09.58-.04.84.05Z"/>
    <path class="cls-6" d="M157.48,115.01l.21-.54.39.03c.16,0,.24.32.06.43-.2.12-.52.07-.66.08Z"/>
    <path class="cls-6" d="M160.69,118.31c-.45-.04-.19-.38.01-.34.15-.04.27.1.18.23-.04.06-.14.08-.19.11Z"/>
    <path class="cls-2" d="M62.63,148.54c-.13.23-.16.53-.57.51,0-.18,0-.42.14-.52.1-.07.31-.04.42,0Z"/>
    <path class="cls-2" d="M90.41,34.14c.05.17.03.6-.22.73-.49.25-1.05.2-1.56.15.59-.42,1.15-.63,1.78-.88Z"/>
    <g>
      <path class="cls-3" d="M122.21,12.99c-.68.36-1.5,2.85-2.08,4.54l-2.43,7.08c-.26.77-.1,1.25-1.01,1.64-.36.2-.08,1.29-.13,1.72-.14,1.2-.99,2.27-1.43,3.16.42,1.28,2.21.98,3.82,1.62,1.44.57,2.76.82,4.21.92,1.14.08,2.32.96,3.47,1.11,1.84.23,3.37.78,5.01,1.48l3.24.74c.69.45,1,.62,1.89.69l3.22,1.1c.34.12.98-.1,1.26.2.68.71,1.42,1.05,2.42,1.1,1.43.06,2.66.99,3.95,1.33,1.13.3,2.29.34,3.23,1.07.59.46,1.32,1.1,2.15.99s1.25.36,1.93.56l4.81,1.4,2.03.88c.37.16,1.27,1.21,1.5.52l1.17-3.51.4-2.02c.25.07.44-.06.48-.2.07-.29,0-.62.04-.85l.04-.28c.09.04.22.02.28-.03.06-.06.11-.22.16-.38l.47-1.51c.11-.37-.1-.9.12-1.36.31-.64.35-1.21.45-1.79.45-.05.62-.48.69-1.04l.24-2c.02-.14-.05-.36.03-.49.49-.85-.03-1.9-.88-2.57.03-1.17-.63-1.94-1.62-2.54l-.87-2.57c-.11-.33-.42-.35-.6-.39-.11-.05-.36-.2-.43-.3-.19-.42-1.09-.49-1.47-.69-1.33-.68-4.12-1.36-6.11-2.09l-8.03-2.95c-1.2-.44-2.22-.56-2.78-1.42-.38-.58-1.61-.72-1.62-1.68l-.02-.92c0-.46.22-.82.59-1.32.64.42,1.26.03,1.89.06,2.82.12,3.88,1.56,5.4,1.62.26.01.63-.18.77-.08.15.11.32.51.44.81,1.32.04,2.78.3,3.8,1.33,1.06-.11,1.98.1,2.74.98,1.21-.44,2.07.82,2.98,1.03,1.09.25,1.57.62,2.56.99l2.5.94c.69.26,1.34.55,1.52,1.5.4,2.16,1.39,4.09,2.72,5.87l.44,1.29c.87.97,1.94,2.26,1.59,3.69l-.73,3.05c-.12.5-.47.99-.64,1.57l-.78,2.66c-.21.72-.32,1.44-.92,1.97,1.04.84,2.18,1.01,3.29,1.53.45.21.79.8,1.46.73.38-.04.6.58.81.64.86.24,2.02.35,2.66,1.05,1.79,1.96,2.03.63,3.69,1.23,1.37,2.36,4.17.4,5.24,2.36l1.18,2.17c-.52.97-.32,1.94.53,2.67-.3,1.37-.08,2.53.91,3.5-.13,1.16.59,2.17,1.07,2.94-.25,2.11.31,4.12,1.9,5.64l.93,3.18c.31,1.05-1.16,1.43-1.36,2.04-.28.83.55,1.97-.36,2.66-.47.36-.84,1.05-.7,1.71.21.94-.31,1.41-.59,2.13-.52,1.33-.63,2.87-1.44,4.17-.42.67-.85,1.11-1.06,2.07l-.53,2.43c-1.65,1.52-.05,2.96-1.52,3.59-.03,1.16-.44,2.16-1.29,2.97.44,2.74-1.44,3.77-.76,5.07-.71.36-.97.86-1.16,1.57l-1.3,4.86c-.11.39-.67.6-.49,1.29.22.85-.18,1.72-.89,2.21.15.53.25,1.07.11,1.62l-.87,3.35c-.2.75-.62,1.2-.65,2.08-.03.7-.2,1.55-.67,1.98-.71.64-.72,1.62-.7,2.53l-.49,1.72c-.52,1.81-1.38,3.91-1.24,4.45.21.86-.51,1.33-.61,1.99l-.26,1.71c-.84,1.05-1.25,2.25-1.35,3.66l-.48,1.01c.19.22.31.53.2.88-.88.8-1.07,1.84-.91,3-1.84,2.22-.28,3.64-1.58,5.43l-.49,1.96c-.96.33-1.95.5-2.89.56-.18-.58-.94-.41-1.47-1.62-.29-.67.3-1.24.34-1.69.11-1.19.24-2.19.62-3.38l1.72-5.43,1.29-3.91c.21-.65.07-1.2.38-1.81,1.05-2.05,1.21-4.46,2.06-6.58.37-.92.42-1.68.65-2.61l1.03-4.15c.36-1.46.77-2.84,1.02-4.3l1.59-4.5,1.02-3.9c.25-.97.46-1.52.91-2.39,1.05-2.04.71-4.31,1.79-6.08.29-.48.99-2.69,1.47-4.2l.9-2.79.81-1.96.34-2.6c.64-1.12,1.16-2.26,1.07-3.56.82-.92.69-2.28-.25-3.11.23-.81-.36-1.46-.49-2.08-.26-1.25-.79-2.1-1.25-3.24l-1.57-3.88c-.42-1.05-1.07-2.19-1.3-3.3-.35-1.74-.42-2.09-1.69-3.86-.22-.31-.04-1-.55-1.28s-.9-.18-1.61-.1l-2.29-1.03-4.29-1.45-2.12-1.01c-1.19-.57-2.86-.65-3.83-1.58-.8-.77-1.32-.81-2.4-1.18l-2.3-.8c-1.53-.53-2.9-1.05-4.26-1.9l-1.58-.14c-.84-1.03-2.13-1.58-3.38-1.24-1.01-.62-2.06-.78-3.13-1.1-.68-.27-1.31-.43-1.61-1.18l-1.66-.18c-1.35-.91-2.74-1.06-4.29-1.29-.5-.08-4.9-1.35-6.2-1.81l-2.34-.82c-1.94-.33-3.58-.74-5.26-1.46-.05-.62-2.12-1.28-2.76-.74l-.96-.02c-.14-.76-1.08-.8-1.76-.7-.05-.09-.13-.18-.21-.24.02-.11,0-.26-.06-.35-.06-.1-.22-.18-.43-.18l-1.31.03h-.45c.06-.03.04-.38-.05-.4l-2.32-.5c-.41-.09-.6.11-.85.11l-.98.02c.08-.09-.16-.6-.33-.57-1,.18-1.43-.49-2.18-.75-.85-.3-1.86-.52-2.7-.7l-2.44-.51c-1.28-.27-2.17-.28-3.26-1.01-.49-.32-1.56-.43-2.05-.47l-.58.09c-.71-.46-1.82-.18-2.62-.54-.91-.41-1.64-.45-2.51.13l-.59.2c-.12.04-.19.23-.09.41-.13-.02-.41,0-.54.05-1.39.77-2.73.75-2.74,1.44l-.27.28c-.64.25-1.19.46-1.78.88l-1.32.94-2.1.41c-.71.16-1.94.07-2.12,1-.24,1.23-.84,2.29-1.16,3.46-.34,1.25-.6,3.3-1.19,4.08-.82,1.11-1.98,5.82-1.89,6.99,0,.12.04.35,0,.46-.67-.05-1.37,1.88-1.14,3.04l-.61.93c-1.24.02-.18,1.85-1.18,3.08-.83,1.01-1.76.69-2.28,1.15-.85-.25-1.43-.75-2.02-1.54l1.1-3.08c.14-.39-.02-3.04,1.74-3.85-.8-1.67.59-2.87.8-5.21,1.59-.41.11-1.92,1.74-4.75l.2-1.25c.53-1.26,1.04-2.45,1.3-3.76.05-.27-.13-.63-.02-.78.09-.13.59-.32.6-.47-.09-.23-.65-.67-.48-.96l1.3-2.21c-.68-.74-.54-1.37-.36-2.12.19-.8.86-.91,1.53-1.37,1.27-.87,2.57-1.54,3.93-2.23.72-.37,1.29-.84,1.97-1.08.82-.29,1.55-.64,2.51-.9.49-.13,1.11-1.23,1.67-1.19,1.32.07,2.26-.41,2.72-1.5.41-.97,1.71-.76,2.6-.86.99-.11,1.5-.03,2.48.24l3.61,1.01c1,.77,1.65.35,2.78.52l4.23.64c1.12.17,1.96.47,3.06,1.03-.18-1.28.57-2,1.16-2.62-.09-1.77.53-3.77,1.8-5.09-.16-.83.28-1.4.71-2.02.77-1.13,1.25-2.62,1.68-3.95.22-.66-.05-1.29.6-1.73.52-.35,1.11-.9,1.94-.98,1.16-.11,1.95,2.38,1.68,4.5ZM110.45,30.34c-1.87-.21-3.57-1.53-3.55-.53,0,.25.15.56.52.64l2.01.42c.42.09.86.04,1.01-.53Z"/>
      <path class="cls-1" d="M143.38,13.24l.02.92c-.92.28-1.67-.21-2.53-.39-1.16-.25-2.4-.17-3.35-1.14-.36.28-1.24.67-1.44.38-.59-.86-1.27-.31-1.79-.46-1.09-.32-2.07-.68-3.31-.07-.77-.64-1.85-.73-2.87-.41-1.12-.87-2.02-.52-3.22-.23-.49.12-1.56-.55-1.97.38-.16.37-.42.62-.73.78.26-2.12-.52-4.61-1.68-4.5-.83.08-1.42.64-1.94.98-.08-.36.18-1.56.66-1.62.9-.11,1.43-.25,2.13-.71.76-.5,1.85.55,2.5.55,1.63,0,3.25.28,4.48,1.19.48-.29.73-.55,1.25-.64.31.46.71,1.35,1.3,1.38,1.22.07,2.02.41,3.06.94l3.13.56c1.19.57,2.34.61,3.59.96.89.24,1.72,1.14,2.7,1.16Z"/>
      <path class="cls-1" d="M93.87,22.32c-.46,1.09-1.4,1.57-2.72,1.5-.56-.03-1.18,1.06-1.67,1.19-.96.26-1.69.61-2.51.9.08-.67.69-1.11,1.23-1.63.77-.74,1.48-1.45,2.64-1.5.55-.92,2.53-1.12,3.02-.45Z"/>
      <path class="cls-2" d="M77.11,56.34c-.59,2.16.21,4.08-1.97,4.41-.57.08-1-.03-1.49-.18.51-.46,1.44-.14,2.28-1.15,1.01-1.22-.05-3.06,1.18-3.08Z"/>
      <path class="cls-1" d="M162.32,23.02c.35-.16.75-.16,1.1-.03.08.1.32.25.43.3-.08.38.41.87.45,1.23.17,1.51,1.13,2.22,1.92,3.35.44.62.54,1.87,1.26,2.39.23.17.06,1.04.33,1.11-.07.13-.01.36-.03.49-.25-.01-.45.15-.5.5l-.42,2.54c-.1.58-.14,1.15-.45,1.79-.22.46,0,.99-.12,1.36-.83.14-.81,1.21-.91,1.92l-.04.28c-.32-.07-.52.17-.51.41s.03.46,0,.65l-.4,2.02-1.17,3.51c-.23.69-1.12-.35-1.5-.52l-2.03-.88-4.81-1.4c-.69-.2-1.08-.68-1.93-.56s-1.56-.53-2.15-.99c-.94-.73-2.1-.77-3.23-1.07-1.29-.34-2.52-1.27-3.95-1.33-1-.04-1.74-.38-2.42-1.1-.29-.3-.92-.09-1.26-.2l-3.22-1.1c-.89-.07-1.2-.24-1.89-.69l-3.24-.74c-1.64-.7-3.17-1.25-5.01-1.48-1.15-.14-2.33-1.03-3.47-1.11l.04-2.25c.09-.31.56-.6.77-.96-.7-.72-.03-1.51,0-2.07.06-.96-.02-1.26.53-2.1.24-.36.23-.9.71-1.32.6-.53.42-1.84.7-2.61.25-.7.99-1.19.85-1.99-.06-.34-.28-.97.19-1.37,1.92.81,4.75-.27,7.49.38,1.3.31,2.05.56,3.38.25l3.22.28c.86-.27,1.04.41,1.64.45l3.92.25,2.26.89c.33.13,1.14-.76,1.61-.32,1.63,1.52,2.79-.33,3.46,1.43.44-.27.7-.41.98-.49.32-.1.57.32.83.42,1.59.65,3.15.84,4.8,1.14.74.13,1.5.06,1.79-.64Z"/>
      <path class="cls-4" d="M143.4,14.16c.02.95,1.24,1.09,1.62,1.68.56.86,1.58.98,2.78,1.42l8.03,2.95c2,.73,4.79,1.42,6.11,2.09-.08.34.06.59.37.72-.29.71-1.04.78-1.79.64-1.65-.3-3.21-.49-4.8-1.14-.26-.11-.51-.52-.83-.42-.28.09-.55.22-.98.49-.66-1.76-1.83.08-3.46-1.43-.47-.44-1.28.45-1.61.32l-2.26-.89-3.92-.25c-.6-.04-.78-.72-1.64-.45l-3.22-.28c-1.33.31-2.08.06-3.38-.25-2.74-.65-5.57.44-7.49-.38-.47.4-.25,1.03-.19,1.37.13.8-.6,1.3-.85,1.99-.28.78-.1,2.09-.7,2.61-.48.42-.47.96-.71,1.32-.55.84-.47,1.14-.53,2.1-.04.56-.7,1.35,0,2.07-.21.35-.68.65-.77.96l-.04,2.25c-1.45-.1-2.78-.35-4.21-.92-1.61-.64-3.4-.34-3.82-1.62.45-.88,1.29-1.96,1.43-3.16.05-.43-.23-1.52.13-1.72.92-.38.75-.87,1.01-1.64l2.43-7.08c.58-1.69,1.4-4.19,2.08-4.54.3-.16.57-.41.73-.78.41-.93,1.48-.26,1.97-.38,1.2-.28,2.1-.64,3.22.23,1.02-.32,2.09-.23,2.87.41,1.25-.62,2.22-.25,3.31.07.51.15,1.19-.4,1.79.46.2.29,1.08-.1,1.44-.38.95.98,2.18.9,3.35,1.14.86.18,1.6.66,2.53.39Z"/>
      <path class="cls-2" d="M87.31,35.96l-.65.55c-.95.8-1.76,1.25-3.24.96.02,1.26-.62,2.17-.93,3.24-.42,1.47-.64,2.99-1.33,4.4-.89,1.82-1.39,3.64-1.65,5.68-.06.47-.23,1.03-.63,1.11-.09-1.18,1.07-5.89,1.89-6.99.58-.78.85-2.83,1.19-4.08.32-1.18.92-2.23,1.16-3.46.18-.93,1.41-.84,2.12-1l2.1-.41Z"/>
      <path class="cls-2" d="M113.33,36.08c-1.06.02-2.03-.47-3.05-.79l-2.25-.7-2.56-.63c-1.44-.35-2.61-.32-3.9-1.17-.3-.2-1.17-.06-1.21-.72.49.05,1.56.15,2.05.47,1.09.72,1.98.74,3.26,1.01l2.44.51c.84.18,1.86.4,2.7.7.75.26,1.18.93,2.18.75.17-.03.41.48.33.57Z"/>
      <path class="cls-2" d="M99.78,32.16c-.93.44-2.17.22-3.18-.27-1.08-.52-1.39.64-2.64.47-.1-.18-.03-.37.09-.41l.59-.2c.87-.59,1.6-.55,2.51-.13.8.36,1.92.08,2.62.54Z"/>
      <path class="cls-2" d="M167.83,31.38c-.27-.07-.11-.95-.33-1.11-.72-.53-.82-1.77-1.26-2.39-.79-1.13-1.75-1.84-1.92-3.35-.04-.35-.54-.85-.45-1.23.18.05.49.06.6.39l.87,2.57c.99.6,1.65,1.37,1.62,2.54.85.67,1.37,1.72.88,2.57Z"/>
      <path class="cls-5" d="M110.45,30.34c-.15.58-.59.62-1.01.53l-2.01-.42c-.37-.08-.52-.39-.52-.64-.03-.99,1.68.32,3.55.53Z"/>
      <path class="cls-2" d="M117.52,36.86c-1.1,0-2.23-.21-3.21-.79.25,0,.44-.2.85-.11l2.32.5c.09.02.11.37.05.4Z"/>
      <path class="cls-2" d="M93.42,32.42c.03.43-.23.88-.74.99l-2,.45c0-.69,1.35-.67,2.74-1.44Z"/>
      <path class="cls-2" d="M78.86,52.37c-.42.99-.57,2.16-1.14,3.04-.23-1.16.48-3.08,1.14-3.04Z"/>
      <path class="cls-2" d="M167.8,31.87l-.24,2c-.07.56-.23.99-.69,1.04l.42-2.54c.06-.35.25-.51.5-.5Z"/>
      <path class="cls-2" d="M125.46,39.05l-1.57-.41c-.39-.1-1-.03-1.19-.32.64-.55,2.71.11,2.76.74Z"/>
      <path class="cls-2" d="M166.31,38.06l-.47,1.51c-.05.16-.1.32-.16.38-.06.05-.19.07-.28.03.09-.71.08-1.78.91-1.92Z"/>
      <path class="cls-2" d="M119.77,37.35h-1.27c-.21.01-.38-.06-.46-.15-.06-.07-.09-.24-.07-.34l1.31-.03c.21,0,.36.08.43.18.06.08.07.24.06.35Z"/>
      <path class="cls-2" d="M121.74,38.29c-.63-.02-1.44-.11-1.76-.7.68-.1,1.62-.05,1.76.7Z"/>
      <path class="cls-2" d="M163.42,22.99c-.35-.13-.75-.14-1.1.03-.31-.12-.45-.38-.37-.72.39.2,1.28.27,1.47.69Z"/>
      <path class="cls-2" d="M165.36,40.26c-.03.23.04.56-.04.85-.03.14-.23.27-.48.2.04-.18.01-.42,0-.65s.19-.48.51-.41Z"/>
    </g>
    <path class="cls-2" d="M119.99,211.37l.26-.26c-.06.11-.15.2-.26.26Z"/>
    <path class="cls-2" d="M119.48,211.61c.08-.1.18-.19.3-.24-.02.15-.15.24-.3.24Z"/>
    <path class="cls-2" d="M132.63,202.81c.01-.14.08-.24.18-.33-.04.12-.1.23-.18.33Z"/>
    <g>
      <path class="cls-6" d="M115.85,54.9l1.35.02c1.22,1.3,2.8.52,3.86,1.08.48.26.89.65,1.4.54s1.07.24,1.57.28c.62.05,1.22.38,1.81.46,1.23.17,1.92.66,2.96,1.32.52.12,1.44-.19,2.15.34l2,.4c.77.75,1.35.99,2.35.83,0,.18.07.44.18.51.17.1.45.05.57.07,1.19,1.02,2.75-.33,3.85,1.29l2.03.13c.21.39.35.64.76.83.54.25,1.12.48,1.73.18.6.18,1.13.56,1.6,1.26,1.22-.76,1.98.02,2.97.55.82.44,2.08.16,2.91.82.27.21.7.09.9.11.46.71,1.05,1.38,1.96,1.44l.73.04,2.05,1.03c.85.42,1.46.15,2.14.98l2.16.47c.82.62,1.5,1.3,2.51,1.22-.39.78.68,1.28.8,1.77.55,2.22,1,3.36,2.15,5.42l-.46,3.87c-.11.93-.47,1.4-.81,2.15-.9,1.99-.62,3.97-1.24,5.22-1.21,2.45-1.88,5.08-2.27,7.83-1.16,1.76-2.38,3.44-1.91,5.38l-1.77,3.8c-.12,1.42-.65,2.3-1,3.52-.22.79-.08,1.82-.55,2.41-1.24,1.56-.26,3.99-1.69,5.81-.7.9-1.12,2-.9,3.16.2,1.1-.64,2.1-.93,3.05l-.75,2.42c-.3.97-.27,1.94-.75,2.81-1.95-.29-2.05,1.86-2.61,2.82-.59,1.02-1.4,1.94-1.02,3.08-.08.24-.02.53.01.76-.39.12-.67.58-.57.98.2.8.19,1.73-.5,2.23l-.37.27c-.25.18.05.36.13.49.15.25.08.69.05.96-.98.65-1.23,1.91-1.47,2.99-.12.54-.32,1.05-.2,1.62.03.15-.11.43-.16.59-.35.07-.55.81-.45,1.16.29,1.01-.51,1.34-.76,1.92-.29.66-.35,1.39-.69,2.03-.64,1.21-.63,2.45-.83,3.72-.17,1.1-.66,2.23-.76,3.31-.02.19-.58.4-.72.48-.18.11.17.68.12.88l-1.02,3.71c-.02.09-1.8,3.29-1.19,4.46-.37.11-.5.39-.54.71-.05.43-.11.87,0,1.3-.16-.03-.38,0-.49.08-.17.14-.4.91-.29,1.58.17,1.02-.24,2.03-.41,3.03-.65.08-.39.74-1.21,2.06l-.3,1.81c-.08.48-.4,1.24-.12,1.71-1.58.28-.85,2.36-2.04,4.35.24.59.26,1.09.34,1.56-.05.15-.28.46-.42.5-1.19-.1-.32,1.94-.83,2.54-.71.83-.51,1.37-.54,2.31-.02.69-.39,1.61-.5,2.45l-.83,1.27-.21,2.55-.25.95c-.27,1.01-1.08,1.03-1.01,2.05-.51-.11-.77.55-1.12.72-.55.28-1.02.49-1.45.89l-.65.16c-.18.05-.27.35-.24.59l-.5.04c-.4.03-.78.31-.72.72l.04.33c-1.37-.27-2.33.71-3.47,1.47-.65.43-1.74.67-1.99,1.36-.11.22-.57.5-.8.53-.53.05-1.09.14-1.21.79-.07.37-.58.65-.94.69-.22.02-.41.09-.52.31l-1.38.18c0-.31-.25-.41-.48-.44-.22-.03-.44.13-.6.2-.45-.07-.98-.33-1.44-.27-.27-1.12-1.49-1.08-2.5-1-.95.07-1.97-.88-2.71-.4-.03-.49-.55-.66-.99-.71l-.23-.31c-.1-.13-.14-.27-.26-.38-.22-.2-.36.05-.51.11-.33.14-2.94-.53-3.57-1.59-1.49-.07-3.07-.13-4.18-1.24s-2.95-.23-4.8-1.36c-1.7-1.03-2.78-.54-3.67-1.29-.3-.25-1.23-.06-1.64-.25-.83-.37-1.54-.61-2.34-.61-.04-.37-.21-.63-.56-.8-.29-.15-.62-.09-.92.02l-1.25-.52c-.89-.37-2.02-.63-3.12-.6l-2.1.81-1.91-.57c-.93-.28-1.49-.31-2.36-.69l-1.65-.72c-.7-.3-1.23-.24-1.9-.68-.42-.28-1.28-.63-1.75-.62-.48.2-.81.41-1.24.33-.28-.05-.45-.73-.75-.85l-4.73-1.91c-.32-1.54-2.3-2.79-3.17-4.46-.44-.85-.52-1.74-1.4-2.37-.61-.44-.78-1.3-.77-1.92l2.36.18c.49-1.12.16-2.3.02-3.32l1.01-1.36.12-1.54c.05-.64-.09-.98-.01-1.39l.31-1.61c.4-.02.66-.26.75-.59.09-.36.04-.7-.21-1.05.69-.4.36-1.59.6-2.11.61-1.3.79-2.53.75-4.01l.5-2.55c.03-.17.56-.48.63-.63.08-.19.06-.47-.12-.72-.11-.15.02-.44.2-.49.24-.07.41-.25.48-.42.12-.32.08-.71-.27-.84.11-.44.06-1.07.3-1.48.28,0,.22-.33.26-.5l.24-1.24c.1-.53.3-.81.62-1.36l.11-1.56.08-1.05.14-.9c.06-.12.22-.36.32-.45.13-.07.43-.1.42-.27l-.04-.66.3-1.85c.18-.19.54-.41.66-.76.11-.31.15-.66-.17-.91l-.02-.39c1.18-.48.11-1.26,1.06-3.09.39-.75.56-1.45.45-2.28.83-.32.74-1.43.73-2.19v-.79c.07.04.38.03.37-.05-.04-.2-.11-.54-.37-.83,1.06-.5,1.22-1.28,1.33-2.25l.17-1.48c.97-.63-.29-1.39.85-2.32.13-.19-.18-.81-.15-1.05.03-.25.49-.5.71-.69.08-.59-.11-1.33.08-1.81.03-.08-.02-.28-.03-.36,1.12.1.39-1.57.9-2.29.29-.41.37-.76.42-1.13.03-.22.31-.55.17-.95-.23-.68.2-1.09.35-1.63.19-.71-.04-1.5.42-2.08.07,0,.17-.02.25,0,.13.03.36.05.47-.14.11-.2-.14-.27-.17-.38-.09-.32.2-.87.39-1.21.49-.88.35-1.74.34-2.7l.42-1.28c1.91-2.38,1.44-5.9,3.26-8.86-1.01-1.96,2.17-3.19,1.38-6.07-.05-.18.6-.33.67-.54.7-2.08.35-3.8,1.26-4.63.5-.46.67-1.08.34-1.8.86-.84,1.23-1.82.77-3.07,1.1-.73,1.54-1.85,1.35-3.16.17-.64.16-1.71.55-2.2.64-.81.52-1.51.86-2.42.28-.75,1.18-1.5.72-2.39.15-.38.64-.61.78-.98l1.55-4.15c.37-.98.39-1.82.72-2.76.2-.58.93-1.01.62-1.83-.24-.64.06-1.4.41-1.99l1.11-1.85c.26-.44-.13-1.19.13-1.67.2.03.47.03.53-.21l.72-2.89c.52-.66.71-.84.86-1.56.13-.62,1.04-1.46.36-2.17.42-.17.55-.56.6-.95.03-.24.25-.51.46-.73.97-1.01-.33-2.09.67-2.27.46.08.87-.07,1.07-.5.07-.14.23-.29.24-.49.64.07.99-.25,1.28-.62.33-.16.84-.45,1.28-.76,1-.7,2.44-.24,3.53-.38s1.57.08,2.42.6c1.01.62,3.32-.61,4.52,1.01,2.63-.45,4.22,1.18,6.22,1.2ZM134.59,83.7l-.53.21c-.49.2-.87.5-.98,1.05-.68-.16-1.45.21-1.49.93-.83-.05-1.19.73-1.22,1.48l-.26.03c-.34.04-.58.41-.73.77-.37-.2-1.01.03-1.27.35-.22.27-.51.44-.43.91-.27.36-.89.38-1.4.54-.48.15-.5.93-.45,1.27-.35.24-.74.04-1.17,0-.33-.02-.48.66-.68.82l-1.8,1.36c-.58.99-1.04,1.31-1.98,1.91-.86.54-1.48,1.6-2.69,1.92-.48.13-.7,1.1-1.07,1.31-.52.3-.9.9-1.35,1.12-1.69.85-2.91,1.94-4.22,3.24-.39.39-.74.64-1.13,1.17-.27.37-1.52.65-2.85,2.57-.26.38-1.34.43-1.3,1.34-1.05.08-1.52.77-1.72,1.76-1.03.04-1.71.48-1.94,1.52-.81-.03-1.43.38-1.37,1.06-.65-.11-.9.15-1.29.68-.22.3-.63.41-.76.75-.11.28-.53.64-.43,1l-1.96,1.73c-.14-.06-.38-.04-.54-.02-.4.02-.7.31-.73.71l-.05.76c-1.38-.1-1.42,1.22-2.83,2.06-.44.26-.66.67-.5,1.11l-.58.27c-.38.18-1.14.17-1.29.65l-.2.66c-.15.49-1.63-.13-1.67.7l-1.28,1.43c-.18.2-.68.26-.76.67-.18.93-1.86.11-2.66,2.86-.69-.02-1.44.21-1.51.94-1.04.52-.98,1.7-.61,2.7s1.54,1.21,2.6.99c1.81-.38,2.82,1.67,5.25,1.31.67-.1,1.76.26,2.49.57.5.21,1.08,1.22,1.79.92,1.09-.46,2.02,0,2.81.64.52.02,1.23.35,1.78.61.51.24,1.84-.6,2.23.43.11.29-.58.8-1.01.77-.14.66-.23,1.21-.18,1.76-.51.24-.54.89-.85,1.36-.34.51-.9.83-.77,1.48-.93.19-.77,1.21-1.14,1.85-.43.74-1.22,1.53-1.06,2.27-.29.01-.49.32-.66.43-.53.07-.73.79-.66,1.4.04.32-.07.68-.16.95-.58.03-.97.42-1.05,1.16-.68.45-.86,1.14-.75,1.81l-.99,2.15c-.55,1.19-1.41,2.23-1.68,3.46-.02.08-.01.23,0,.3-.47-.11-.58.44-.82.59-.99.6-1.92,2.96-2.03,4.67l-.88,1.31c.24.96-.83,1.21-1.05,1.63-.19.73-.36,1.7-.63,2.4-.38.96-.99,2-1.49,2.9-.21.12-.55.19-.74.43-.09.12.05,1.94-1.15,3.16-.82.84-1.49,1.98-.84,3.19.27.5,2.6.52,3.04.13.33-.29.56-.72.5-1.2.4-.06.88-.32.89-.72v-.29s1.29-.91,1.29-.91l1.08-.27c.31-.08.39-.64.35-1l1.17-.07c.04-.38.08-.63.2-.9.09-.22.46-.23.62-.3.7,0,1.28-.44,1.22-1.16,1.33.13.83-.73,1.76-1.48l1.23-.99c.28-.22.79,0,1.09-.27.21-.2.37-.6.42-.98.45-.17,1.01-.27,1.2-.74.02-.04.02-.12.01-.16.3-.05.42-.32.51-.55.08-.14.41-.28.42-.5.2.02.38,0,.59-.08.14-.06.24-.25.22-.45h1.38c-.02-1.11.82-.97,1.38-1.42l1.76-1.41c.76-.6,1.35-1.44,1.86-2.18,2.43.16,2.2-2.61,3.67-2.36.12.02.28.25.38.19.12-.06.16-.4.15-.52-.03-.4.48-.9.67-1.21,1.12,0,1.83-.67,2.68-1.29.79-.58,1.89-1.12,1.75-2.2.6-.03,1.06-.45,1.31-1.02l1.18.23,1.14-1.19c.3-.84.86-1.1,1.39-1.58.61-.56.9-.57,1.65-.8,1.28-.4,2.07-2.02,3.06-2.87.37-.28.93-.19,1.39-.19.09-1.86,2.51-2.1,3.71-3.64,1.16.23,2.16-.84,2.42-1.95.55.04,1.07.04,1.62-.17.28-1.95,2.39-.62,2.38-2.81.63.12,1.42.05,1.52-.71,1.89-.22,1.48-1.77,2.72-1.91.9-.11.97-.87,1.4-1.29,1.32-1.29,2.64-2.6,2-3.6-.41-.64-.98-.19-1.54-.11l-3.45-.96-.19-.99-1.01.21h-.68c-.08-.24-.24-.38-.44-.48-.23-.1-.53-.09-.58.28-.59-.1-.97-.42-1.41-.9s-1.2-.69-1.8-.41l-.76.05c-.24-.53-.93-.5-1.5-.46-.31-.74-1.36-.81-1.9-1.02-.86-.33-1.3-.82-2.41-.91-.42-.03-1.01-.58-1.58-.37l-1.57-.31c-.11-.29-.35-.43-.63-.42v-.25s.57-1.36.57-1.36c.21-.5.36-.74.16-1.13-.12-.23.2-.54.24-.73.64-.01.71-.45.86-.91.16-.51.56-.99.38-1.59.27-.03.46-.13.61-.25.26-.2.09-.83.21-1.03l1.14-1.88c.51-.83.83-1.79.68-2.96l1.23-.89c-.27-1.66.46-2.87,1.74-3.9.44-.36.14-1.57.45-1.95.51-.61.7-1.07,1.07-1.8.19-.37,1.06-.52.87-1.43-.12-.57.22-1.37.38-1.86.23,0,.28-.3.24-.49-.02-.09,0-.2,0-.29.55.04.98-.39.99-.94v-.8c1.22-.42.05-1.98,1.61-2.1l.16-1.19c.42-.49.52-.91.73-1.32.26-.51.7-1.18.69-1.77.2.1.24-.04.23-.14-.01-.12.01-.34.06-.42.28-.5.55-1.47.27-2.11.34-.06.7-.43.77-.87l.36-2.14c.1-.58-1.41-1.85-2.16-1.57-.13.05-.16.28-.19.4Z"/>
      <path class="cls-5" d="M85.78,80.83c.46.89-.44,1.63-.72,2.39-.34.91-.21,1.62-.86,2.42-.39.49-.38,1.55-.55,2.2.19,1.3-.25,2.43-1.35,3.16.46,1.24.08,2.22-.77,3.07.33.72.16,1.34-.34,1.8-.91.83-.56,2.55-1.26,4.63-.07.21-.72.36-.67.54.8,2.88-2.38,4.11-1.38,6.07-1.83,2.96-1.35,6.48-3.26,8.86-.2-.79.17-1.45.76-2.02l-.03-1.56c-.29-.61-1.07-1.19-1.7-1.25l-1.01.39.66-2.55.83-2.07c-.08-.87.57-1.3.7-1.74.06-2.65,1.32-4.22,1.61-4.98.2-.51,0-1.72.35-2.15.3.12.89.08,1.05-.19.11-.18.06-.59,0-.82-.16-.59.36-1.36.31-1.97-.1-1.19.18-1.86.57-2.88l.74-1.97c.4-1.05.27-2.42,1.15-3.27.73-.72.58-1.43.61-2.33.33-.45,1.39-.97,1.2-1.65.2.05.82.13.99-.12.29-.43-.04-1.13-.43-1.37-.16-.91.17-1.92.86-2.7.14-.15.48-.3.37-.61-.07-.21-.31-.34-.52-.4.09-.2.06-.49.06-.71.16.02.37.02.5-.15.1-.13,0-.39-.24-.38.07-.15.09-.5.26-.58.45.09.43-.55.62-.7.36-.29,1.35-.5,1.78-.5s.48.54.09.6c-.42-.24-.99.43-.78.57.58.41,1.16.6,1.25,1.31-.46.1-.79.14-1.06.46.28.29.43.75.32.93-.32.55-1.71-.4-2.07.4.53.51,1.05,1.21,1.35,1.8Z"/>
      <path class="cls-5" d="M115.55,51.87c-.01.19.1.6.31.7.44-.07.83-.31,1.18-.47h.52c.08.36-.22.67-.37.93,1.11,1.43-1.13.68-1.34,1.88-2-.02-3.59-1.65-6.22-1.2-1.19-1.62-3.51-.39-4.52-1.01-.84-.51-1.31-.73-2.42-.6s-2.53-.32-3.53.38c-.44.31-.95.59-1.28.76-.28-.21-.62-.34-.89-.27-.34.1-.38.59-.39.89,0,.2-.17.35-.24.49-.47-.14-1.02-.03-1.07.5-1,.18.3,1.26-.67,2.27-.21.22-.42.49-.46.73-.27,0-.92.14-1,.41-.09.31.3.48.4.54.68.71-.23,1.55-.36,2.17-1.11.09-1.87-.56-2.74-1-.42-.84-.42-1.93.62-2.59-.67-.89.3-1.16.38-1.54.15-.63-.04-1.22.67-1.79.32-.26.59-.97.94-1.19,1.89-.41,3.99-1.37,3.77-2.91.48-.33,1.12-.5,1.86-.63.99-.17,2.17-1.09,3.26-.78,1.41.41,2.51.71,4.01.81,1.62.11,3.22,1.03,4.81,1.42.88.22,1.64-.2,2.3.09l2.43,1.04Z"/>
      <path class="cls-3" d="M83.26,199.54c.07.32.25.63.47.71.33.13.73.07,1.01.07.81,0,1.51.24,2.34.61.41.18,1.34,0,1.64.25.89.75,1.98.26,3.67,1.29,1.85,1.12,3.7.26,4.8,1.36s2.69,1.17,4.18,1.24c.64,1.06,3.25,1.73,3.57,1.59.17.29.49.33.77.27l.23.31c.19.35.29.77.25,1.18l-1.23.92c-1.01.37-1.84-.16-2.82-.64l-2.31-.12c-.61-.83-1.34-1.34-2.46-1.18-1.14-1.3-2.99-.15-4.34-1.64-1.03.23-2.02-.2-2.64-1.1l-2.16.1c-.23-1.04-1.39-.67-1.84-.92-1.02-.57-1.61-1.16-2.67-.61.13-.46-.19-.59-.58-.51-.2.04-.53-.03-.63.32-.43-.07-.87-.42-.99-.86-.07-.27-.29-.94-.65-.82-.8.26-2.56-.28-2.61-.66-.03-.25.14-.92.42-.84l.86.22c.74-.6,1.59-.93,2.46-1.07l1.25.52Z"/>
      <path class="cls-3" d="M134.79,193.84c.15.93-.39,1.63-.72,2.46l-.38.03c-.1,0-.19.2-.12.34.04.08.2.15.26.2.2.69.41,1.82-.31,2.32-.11.08-.38.11-.46.22-.08.09,0,.36.13.37l.35.03c0,.91.19,1.8-.48,2.51-.09.02-.18.08-.25.14-.1.09-.17.19-.18.33-.12.15-.31.12-.49.05-.22-.09-.69-.16-.88-.03-.27.19-.18.66-.17.9,0,.17-.17.37-.23.5-.25.08-.44.27-.51.53-.12.07-.33.25-.49.17-.23-.12-1.68.2-1.76,1.03-.04.41-.52.7-.91.73-.34.04-.63.06-1.1-.18-.18.65-.88.69-1.3,1.02-1.04.82-2.04,1.57-3.41,1.5-.2.84-1.07.99-.87,1.89l-.26.2-.26.26h-.21c-.12.06-.22.14-.3.24-.06,0-.14.02-.2,0l-1.2-.49-.05.78c-1.09,1.65-3.32,1.89-4.78,1.01-.54-.33-.9-1.08-1.6-1.11-.01-.28-.2-.53-.34-.84-.33-.75.18-1.41.85-1.63.46-.06.99.2,1.44.27.05.27.24.45.42.52.37.15.49-.23.66-.28l1.38-.18c.08.06.26.29.37.21.2-.13.17-.39.14-.52.36-.04.87-.32.94-.69.28.01.71,0,.99-.14.17-.09.25-.4.21-.65.23-.03.69-.31.8-.53.65-.26,1.27.04,1.65.64.33.53.75,0,1-.11.86-.4,1.56-.8,1.59-1.91.51.05.99-.1,1.11-.49.09-.29.15-.64.11-.95l-.04-.33c.22.02.47-.05.6-.22.1-.15.13-.34.12-.5l.5-.04c.66.2,1.24.72,1.85,1.11.72-.65.4-1.55.56-2.29l.95-.46c.13-.06.11-.53.09-.73-.07-1.02.75-1.04,1.01-2.05.29,0,.56-.14.68-.37.19-.35-.02-.66-.43-.58l.21-2.55c1.22.18,1.11-1.47,1.64-1.87.69-.52,1.27-.13,2.06.21Z"/>
      <path class="cls-5" d="M61.86,164.05c.18.25.2.53.12.72-.07.15-.59.46-.63.63l-.5,2.55c.04,1.48-.14,2.71-.75,4.01-.25.52.09,1.71-.6,2.11-.61.35-.41.96-.54,1.64l-.31,1.61c-.52.53-1.11.43-1.9.74.5.28,1.27.15,1.39.81.05.29-.7.39-.92.29.19.3.27.63.19.77-.1.16-1.11.38-1.61.22-.16-.05-.22-.43-.03-.54l.65-.34c.48-.25-.07-1.24-.49-1.46-.16-.58.28-1.47.16-2.1-.22-1.18-.3-2.06.9-2.73-.33-.83-.7-1.88-.19-2.38l.54-.53c.1-.1-.23-.69-.17-.86l.64-1.78c.57-.81.64-1.36.69-2.39.03-.64.87-1.55.66-2.17.84.11,1.37,1.31,2.69,1.18Z"/>
      <path class="cls-5" d="M66.55,137.4c.67,0,1.19.54,1.78.78.05.39-.46.49-.68.63-.26.5.04,1.31.05,1.78v.79c-.57.41-1.05.5-2.01.5.68.54.85,1.13,1.29,1.69.11.83-.06,1.53-.45,2.28-.32.02-.61.08-.95.3.1.98-.15,1.91-.11,2.8l.02.39c-.31.12-.66.37-.81.68s.05.78.32.99l-.3,1.85c-.4.11-.5.54-.38.93-.11.09-.26.33-.32.45-.5-.04-1.3.08-1.78-.23l-.34-1.31.18-3.64c.41.02.43-.28.57-.51.7-1.19-.3-1.33.67-3.23.12-.24-.12-.98.04-1.22.11-.17.39-.28.72-.44-.32-.85-.11-1.48.39-2.14.14-.19,0-.85.09-1.1l1.03-2.69.98-.31Z"/>
      <path class="cls-5" d="M149.62,62c.33.78,1.16.86,1.92.73l2.12.83c.14.12.16.44.49.44.26,0,.41-.1.35-.39.21.07.56.11.76.08-.16.51.55.71.7.98.59,1.01,0,1.95-.47,2.76l-.73-.04c-.17-.86-1.13-1.35-1.96-1.44-.2-.02-.64.1-.9-.11-.83-.66-2.09-.38-2.91-.82-.99-.53-1.75-1.31-2.97-.55-.46-.7-1-1.08-1.6-1.26-.18-.74-1.24-.55-1.73-.18-.41-.19-.55-.44-.76-.83-.37-.68-.97-1.48-.4-2.33l.87-.62,1.26.44c1.45.1,2.82,1.14,3.77,1.5l2.17.82Z"/>
      <path class="cls-5" d="M72.93,121.66c-.45.58-.23,1.37-.42,2.08-.14.54-.58.96-.35,1.63.14.4-.14.73-.17.95l-1.17.81c-.23-.42-.55-.58-.75-.62-.28-.05-.43.19-.41.44.06.66,1.14.93,1.27,1.52.1.42-.22.9-.26,1.28.02.08.07.28.03.36-.86.58-.72,1.87-2.87,1.71.34.7.9.4,1.44.5-.67.5-1.52.63-2.26.78-.67-2.57,1.3-2.93.58-4.61.13-.47.38-1.52.66-1.93.57-.83.45-1.73.65-2.65.12-.56,1.38-.93.84-2.07-.16-.34.41-1.09.74-1.18l1.58,1.47c.3-.32.57-.44.86-.47Z"/>
      <path class="cls-3" d="M74.62,115.95l-.42,1.28c0,.95.15,1.82-.34,2.7-.19.34-.48.89-.39,1.21-.26.05-.36.3-.3.52-.08-.02-.17,0-.25,0-.28.03-.56.15-.86.47l-1.58-1.47c-.46-1.97.45-3.72,1.56-5.33l.36-.23c.09-.06,0-.35-.13-.36l-.31-.02c0-.24.02-.51-.03-.73.31,0,.59-.15.72-.41.14-.29.08-.68-.27-.82.06-.35.15-.86.25-1.26l1.01-.39c.63.05,1.41.64,1.7,1.25l.03,1.56c-.59.57-.96,1.23-.76,2.02Z"/>
      <path class="cls-3" d="M91.11,65.61c-.26.48.13,1.23-.13,1.67l-1.11,1.85c-.35.59-.65,1.35-.41,1.99-.42-.02-.57.33-.89.68-.41.44-1.62.15-1.8-.45-.07-.23.23-.75-.02-.99-.13-.13.02-.55,0-.71.2-.12.24-.37.19-.64.59-.82,1.02-2.32.78-3.46.46-.4.83-.87,1.09-1.23.22-.31,1.17-.29.99-1.01-.04-.17-.38-.48-.37-.66,0-.13.41-.51.56-.48,1.19.62,1.75,2.3,1.13,3.45Z"/>
      <path class="cls-3" d="M60.77,155.85c.06.1.12.15.22.19.12.04.25-.07.34-.09.68-.13,1.35.06,1.99.25.23.51-.38.91-.63,1.2-.02.61.17,1.22.36,1.69l-.24,1.24c-.13-.05-.38-.03-.48.15-.05.1.14.29.23.35-.24.42-.19,1.05-.3,1.48-.1.4-.35.79-.2,1.26-.18.05-.31.34-.2.49-1.32.13-1.85-1.07-2.69-1.18-.34-.98-.06-1.39.47-2.3.42-.73.4-2.11.4-2.91.42-.29.65-.69.55-1.24-.22-.04-.36,0-.48.02.04-.12,0-.41.19-.46l.47-.13Z"/>
      <path class="cls-2" d="M89.46,71.11c.31.82-.42,1.25-.62,1.83-.33.95-.35,1.79-.72,2.76l-1.55,4.15c-.14.37-.63.6-.78.98-.31-.59-.83-1.3-1.35-1.8.36-.79,1.75.16,2.07-.4.11-.19-.05-.64-.32-.93.27-.32.61-.36,1.06-.46-.1-.72-.67-.9-1.25-1.31-.2-.14.37-.81.78-.57.39-.07.34-.61-.09-.6s-1.41.21-1.78.5c-.19.16-.17.8-.62.7-.49-.58.5-.94.57-1.35.14-.81.33-1.89.93-2.8.27-.41.01-1.54.97-1.45.25.25-.05.76.02.99.18.59,1.39.89,1.8.45.32-.35.47-.7.89-.68Z"/>
      <path class="cls-5" d="M112.15,209.34c-.67.21-1.17.88-.85,1.63.13.3.33.56.34.84-.47-.02-1.38.32-1.86-.04-2.14-1.62-4.72-1.46-4.81-2.41l1.23-.92.74-.48c.74-.48,1.76.48,2.71.4,1.01-.08,2.23-.12,2.5,1Z"/>
      <path class="cls-3" d="M132.11,56.07c-.06.2,0,.39.12.48.18.13.4.1.64.15l2.39.42c.4.07.74.31,1.26.16-.1.26.03.69.21.67l.76-.08c.65.27.72,1.07.58,1.6s-.47,1.28-1.25,1.24c-.23-.01-.62-.25-.76.06-.13-.02-.4.03-.57-.07-.12-.07-.18-.33-.18-.51-2.09-2.14-4.48-1.23-4.13-2.59.13-.5.47-1.02.38-1.53h.55Z"/>
      <path class="cls-2" d="M142.41,59.23l-.87.62c-.57.86.03,1.66.4,2.33l-2.03-.13c-1.1-1.62-2.66-.28-3.85-1.29.14-.3.53-.07.76-.06.78.04,1.1-.68,1.25-1.24s.07-1.33-.58-1.6l-.76.08c-.19.02-.31-.41-.21-.67,1.12-.33,2.79,1.32,4.62,1.21.14.2.29.73.61.73h.67Z"/>
      <path class="cls-2" d="M152.27,129.75c.38.3.57.71.54,1.07l-.14,1.63c.19.84-.13,1.04-.48,1.61-.03.47.21,1.15-.04,1.69-.93-.43-1.66-1.64-2.72-1.43-.54.11-.66.95-.78,1.32-.38-1.14.43-2.07,1.02-3.08.56-.96.65-3.1,2.61-2.82Z"/>
      <path class="cls-3" d="M57.53,181.61c.14,1.03.47,2.2-.02,3.32l-2.36-.18c-.56-.04-.92-.54-1.1-.98-.26-.67.41-.98.57-1.53l.49-1.68c1.14-.63,1.55.29,2.42,1.05Z"/>
      <path class="cls-2" d="M131.56,56.06c.09.5-.25,1.02-.38,1.53-.35,1.36,2.04.45,4.13,2.59-1,.16-1.58-.08-2.35-.83l-2-.4c-.71-.53-1.63-.22-2.15-.34-1.05-.66-1.73-1.15-2.96-1.32-.59-.08-1.19-.41-1.81-.46.57-.42,1.29-.29,1.92-.5.32-.11.63.34.82.63.83-.17,1.68.01,2.2.83.49-.04,1.03-.03,1.44-.19s.4-.58.37-.82c-.04-.36-.13-.81-.67-.79-.28.01-.64.05-.88-.12-.18-.13-.2-.54-.4-.69.31-.14.77-.36,1.1-.15l1.62,1.04Z"/>
      <path class="cls-2" d="M122.7,53.69c-.39-.09-.97.19-1.16.47-.68,1.04.62,1.59.92,2.38-.51.11-.92-.28-1.4-.54-1.06-.57-2.63.22-3.86-1.08l-1.35-.02c.21-1.2,2.44-.45,1.34-1.88.14-.25.44-.57.37-.92.24,0,.72-.3.84-.18l.66.71c1.49.15,3.25.39,3.29.44.13.15.25.35.36.62ZM119.71,54.65c.19-.7-.07-1.19-.44-1.45-.46-.32-.78-.07-1.14.14s-.71.9-.28,1.09.93.27,1.03.81c.04.2.61.19.67-.02l.15-.57ZM120.57,54.7c.76.13.98-1.34.33-1.48-.48-.1-.84,1.4-.33,1.48Z"/>
      <path class="cls-2" d="M70.71,130.1c-.2.47,0,1.22-.08,1.81-.22.19-.68.44-.71.69-.03.24.28.85.15,1.05-1.15.93.12,1.69-.85,2.32-.73-.72-1.53-1.47-2.66-1.38l-.71.38c.06-.71.42-1.72,1.18-1.88s1.59-.28,2.26-.78c-.54-.1-1.09.2-1.44-.5,2.15.15,2-1.13,2.87-1.71Z"/>
      <path class="cls-2" d="M93.22,60.96c-.15.72-.34.9-.86,1.56l-.72,2.89c-.06.23-.33.24-.53.21.62-1.16.06-2.84-1.13-3.45-.16-.03-.56.35-.56.48,0,.18.33.49.37.66.18.72-.77.7-.99,1.01-.36-.82-.05-1.56.41-2.3l1.27-2.06c.87.44,1.64,1.1,2.74,1Z"/>
      <path class="cls-3" d="M125.47,54.33c-.04.29.2.46.51.72.36.3.13.95-.04,1.27-.63.21-1.35.09-1.92.5-.5-.04-1.03-.4-1.57-.28-.3-.79-1.6-1.35-.92-2.38.19-.28.77-.57,1.16-.47.94.23,1.79.49,2.77.64Z"/>
      <path class="cls-2" d="M82.01,199.01c-.87.14-1.72.47-2.46,1.07l-.86-.22c-.29-.07-.45.59-.42.84.05.38,1.81.92,2.61.66.36-.12.58.55.65.82-.29,0-.8.14-1.16,0l-3.07-1.18c-.55-.21-.55-1.35-.51-1.79l2.1-.81c1.1-.03,2.23.23,3.12.6Z"/>
      <path class="cls-5" d="M128.83,55.17c.2.16.22.56.4.69.24.17.6.14.88.12.54-.02.62.42.67.79.03.23.05.66-.37.82s-.95.15-1.44.19c-.52-.82-1.37-.99-2.2-.83-.19-.29-.51-.74-.82-.63.17-.32.4-.97.04-1.27-.31-.26-.55-.43-.51-.72.77.12,1.51.97,2.49.16l.87.68Z"/>
      <path class="cls-3" d="M69.21,135.97l-.17,1.48c-.39.02-.76.35-.71.73-.59-.24-1.11-.78-1.78-.78l-.83-.98.12-1.46.71-.38c1.13-.09,1.92.67,2.66,1.38Z"/>
      <path class="cls-2" d="M57.53,181.61c-.87-.76-1.28-1.68-2.42-1.05-.25-.53-.22-.99.17-1.64l.66-1.11c.43.22.97,1.21.49,1.46l-.65.34c-.2.1-.13.49.03.54.51.16,1.51-.06,1.61-.22.09-.14,0-.47-.19-.77.21.11.97,0,.92-.29-.12-.66-.89-.53-1.39-.81.79-.31,1.38-.21,1.9-.74-.08.41.06.75.01,1.39l-.12,1.54-1.01,1.36Z"/>
      <path class="cls-2" d="M96.87,49.93c.22,1.54-1.88,2.5-3.77,2.91.18-.16.27-.66.43-.92.23-.38.69-.1.96-.16,1.13-.6,1.16-1.9,2.38-1.84Z"/>
      <path class="cls-2" d="M64,154.23l-.14.9c-.3-.5-.85-.87-1.34-.66-.34-.02-.64.12-.8.4-.34.16-.52.72-.38,1.08-.09.02-.22.13-.34.09-.11-.04-.17-.09-.22-.19.75-1.19-.04-2.29,1.12-3.16l.34,1.31c.48.31,1.27.2,1.78.23Z"/>
      <path class="cls-6" d="M157.91,113.75c.28-.92.53-2.37,1.3-3.19.06.05.14.13.18.21.09.19-.07.33-.15.53l-.77,2c-.06.15-.06.34-.18.41-.1.06-.24.08-.39.04Z"/>
      <path class="cls-2" d="M82.42,82.96c-.15-.54.29-1.1.56-1.49.38.24.72.94.43,1.37-.17.25-.78.18-.99.12Z"/>
      <path class="cls-5" d="M71.95,114c-.14-.53.18-.89.45-1.22.35.14.42.53.27.82-.13.26-.41.41-.72.41Z"/>
      <path class="cls-2" d="M83.84,78.77c-.32-.07-.46-.36-.35-.6l.19-.41c.21.05.45.19.52.4.11.31-.23.46-.37.61Z"/>
      <path class="cls-5" d="M72.06,115.33l-.08-.6.31.02c.13,0,.22.3.13.36l-.36.23Z"/>
      <path class="cls-2" d="M83.75,77.06c0-.22.19-.38.26-.53.24,0,.34.24.24.38-.13.17-.34.17-.5.15Z"/>
      <path class="cls-2" d="M86.93,69c.05.27,0,.52-.19.64-.09-.06-.31-.2-.23-.35.05-.11.34-.18.42-.29Z"/>
      <path class="cls-5" d="M125.92,91.8c.42.49,1.09.82,1.32,1.44-.07.1-.08.25-.07.34-.33.09-.78.1-1.15.35-.18.12-.15.52-.1.62-.51.94-1.08,1.81-2.33,1.83-.58.9-1.39,1.43-2.33,1.86l-1.31,1.93c-1.48.31-2.57,1.19-2.9,2.69-.56-.04-.94-.08-1.43.05-.11.78-.39,1.39-.99,1.77l-3.2,2.01c-.65.41-.74,1.75-1.67,1.98-2.16.54-1.56,2.43-3.75,2.97-.33.49-.57,1.24-1.06,1.54-.28-.06-.79-.26-.99-.07s-.32.55-.34.82c-.08.94-1.23.95-1.56,1.36-.5-.06-.95-.14-1.39.05-.55.64-1.01,1.68-1.89,1.93-.52.11-1.13-1.21-.85-1.59.15-.2.32-.39.36-.56.03-.11-.12-.26-.2-.35-.1-.37.32-.72.43-1,.61-.21,1.2-.35,1.92-.34l.13-1.09c-.06-.68.56-1.09,1.37-1.06.23-1.04.91-1.48,1.94-1.52.2-.99.67-1.68,1.72-1.76-.04-.91,1.04-.96,1.3-1.34,1.33-1.92,2.58-2.2,2.85-2.57.38-.53.74-.78,1.13-1.17,1.3-1.3,2.52-2.39,4.22-3.24.45-.22.83-.82,1.35-1.12.37-.21.59-1.19,1.07-1.31,1.21-.32,1.83-1.37,2.69-1.92.93-.59,1.4-.92,1.98-1.91l1.8-1.36,1.95-.25Z"/>
      <path class="cls-5" d="M149.09,146.08l-.23,1.22c-.3-.04-.88,0-.88.28l-.04,1.46c-.03.88-.58,3.17-.97,4.34l-1.38,4.18c-.22.68-.23,1.31-.64,1.8-1.31,1.56-.36,3.08-1.79,5.46.32.9.27,1.81-.4,2.59.27,1.16-.81,2.09-.97,2.99-.18,1.02-.36,1.49-.68,2.44l-.74,2.18c-.19.55-.47,1.05-.47,1.53l-.3.12c-.09.04-.12.15-.07.22.08.1.22.15.27.18.22.45-.15,1.09-.23,1.53l-1.37.29c-1.32-2.12-.96-2.28-.67-3.97.17-1,.58-2.02.41-3.03l.96-.93-.19-.73c-.11-.43-.06-.86,0-1.3.17-.03.49-.01.69-.15.21-.15-.07-.41-.15-.56-.61-1.17,1.16-4.37,1.19-4.46l1.02-3.71c.06-.2-.3-.78-.12-.88.14-.09.7-.29.72-.48.11-1.08.59-2.22.76-3.31.2-1.27.19-2.51.83-3.72.34-.64.4-1.37.69-2.03.25-.57,1.05-.91.76-1.92-.1-.35.1-1.09.45-1.16.13-.03.41.1.56-.13.05-.08.05-.3-.11-.36l-.29-.11c-.11-.57.08-1.08.2-1.62.56-.22,1.4.03,1.76-.57l-.8-.59c-.16-.12.25-.71.45-.62.84.41,1.34.97,1.82,1.81l-.89.4.83,1.3Z"/>
      <path class="cls-5" d="M84.84,127.81c-.24.33-.26.8-.65,1.18s.13.78.28,1.01c.21.32.42.59.88.55.65-.06,1.15.58,1.93.65.44.04,1.29-.55,1.83-.12,1.34,1.06,2.97,1.38,4.61.93.34.86,1.19.89,1.72,1.13,1.18.53,1.93.47,3.15.49.72,0,1.62,1.29,2.44,1.07.14.19.32.39.49.44.69.23,1.54-.92,1.68-.41.23.83.23,1.7-.01,2.4-.22.62-.73,1.08-.71,1.79-.56.1-1.2.62-1.15,1.23.07.78-.39,1.34-.77,1.95-.35.01-.69-.03-1.12.1.04.38-.08.72-.3.84-.16.09-.4.13-.68.16l.42,1.67c.38.87-.8,1.46-1.06,2.02-.42.89-.28,1.85-1.27,2.34-1.04.52-2.09.46-2.96-.43-.08-.61.13-1.33.66-1.4.17.17.51.18.6.01.05-.09.09-.29.05-.44-.16-.74.62-1.52,1.06-2.27.37-.63.21-1.65,1.14-1.85l1.04.02-.35-1.05c.96-.3.98-1.04.92-1.81-.04-.55.05-1.09.18-1.76.43.04,1.12-.48,1.01-.77-.39-1.03-1.72-.19-2.23-.43-.55-.26-1.26-.59-1.78-.61-.79-.64-1.72-1.1-2.81-.64-.71.3-1.3-.71-1.79-.92-.73-.31-1.82-.67-2.49-.57-2.43.36-3.44-1.69-5.25-1.31-.01-.19-.13-.35-.26-.38-.17-.03-.35-.03-.64.07l-.53-1.47c-.26-.7-.77-1.21-.56-1.91.07-.73.81-.96,1.51-.94-.04.16.21.42.36.34.28-.58.82-.96,1.44-.9Z"/>
      <path class="cls-5" d="M91.5,158.74c.09.38-.27.96-.75,1.31.79,1.05-.22,1.82-.62,2.66-.38.78-.51,1.5-1.17,2.15-.33.32-.36,1.21-1.06,1.42l-.38,1.74c-.62.67-1.17.98-1.51,1.72-.2.42-.91.71-.53,1.46.07.14-.2.65-.05.66l.75.05.45.25c.27.14.61,0,.65-.34.03-.26-.23-.48-.29-.66-.08-.29.13-.72.19-1,.44-.25.96-.55,1.49-.49.88.1,1.89.07,2.5-.71.32.23.66.42.51.87l-.26.92c-.93.74-.43,1.61-1.76,1.48-.32-.03-.84.04-.94.35l-.28.8c-.17.07-.53.08-.62.3-.11.27-.16.51-.2.9l-1.17.07c-.74.05-1.44.17-1.6,1.15l-.77-.67c-.29-.25-.43.09-.49.22-.18.37.17.69.14,1.48v.29c-.22-.03-.49-.04-.71.11-.17.11-.22.39-.2.62.06.48-.17.91-.5,1.2-.44.39-2.77.37-3.04-.13-.65-1.21.03-2.35.84-3.19,1.19-1.23,1.05-3.04,1.15-3.16.19-.24.53-.31.74-.43.81-.28,1.57-.04,2.5-.03l-.84-1.38c.53-.01.87.19,1.44-.17-.92-.1-1.33-.55-1.61-1.32.27-.7.45-1.67.63-2.4.22-.42,1.29-.67,1.05-1.63l.88-1.31c.1-1.71,1.04-4.07,2.03-4.67.24.11.64.18.8-.01.1-.11.05-.44.03-.57-.01-.07-.02-.23,0-.3l1.58-.62c-.41-.33-.63-.66-.58-.91.07-.35.64-.34.89-.51.16-.1-.25-.65-.12-.78.2-.18.67-.18,1.06.01.18-.32,0-.68-.11-.96.55-.39.82-.14,1.13.1.2.16.58.64.25.9-.18.1-.79.03-.83.29l-.14.96c-.41.65-.76,1.21-.58,1.93Z"/>
      <path class="cls-5" d="M132.08,96.95v.8c-.52.03-.95.41-1,.94,0,.09-.02.2,0,.29-.11-.05-.38-.03-.47.12-.06.1.16.3.23.37-.16.49-.5,1.29-.38,1.86.19.91-.69,1.06-.87,1.43-.37.72-.56,1.18-1.07,1.8-.31.37-.01,1.59-.45,1.95-1.28,1.04-2.01,2.24-1.74,3.9l-1.23.89c.15,1.18-.18,2.13-.68,2.96h-1.92c-.06.43-.06.69-.25,1.07-.47-.43-.85-.62-1.35-.6.32-.7-.03-2.08.46-2.75s.79-1.19,1.2-1.86c.29-.48.89-.67.65-1.58-.09-.34.23-.81.5-.92.19.07.45-.03.46-.17l.05-.61c.02-.2.3-.44.29-.69.37-.09.71-.34.97-.62.31-.33,0-.74,0-1.11l.03-1.18c.3-.03.47-.3.4-.65.79-.3.72-1.49.95-2.02.81-.83,1.85-1.79,1.53-3.06.52-.01.88-.35,1.25-.75.74-.81,1.85-.51,2.46.2Z"/>
      <path class="cls-3" d="M107.85,154.51c.01.46.41.8.9,1.15-.08.55-.16,1.12-.37,1.47-.18.31-.7.81-.67,1.21-.24-.02-.46.08-.53.32-1.47-.25-1.24,2.51-3.67,2.36-.51.73-1.11,1.57-1.86,2.18l-1.76,1.41c-.56.45-1.39.3-1.38,1.41h-1.38c-.17,0-.4-.08-.63.03-.15.07-.18.31-.18.49,0,.22-.33.36-.42.5,0-.16-.09-.24-.19-.29-.15-.08-.39,0-.37.23l.05.61s0,.12-.01.16c-1.05.17-1.8-.41-2.41-.01l-.36-.45c.35,0,.68-.2.72-.52l.09-.77c.02-.2.35-.41.3-.7.03-.45.63-.51.87-.76l1.84-1.93,1.95-1.39c.64-.95,1.35-1.08,2.16-1.68l1.55-1.14,1.05-1.13c.81-.51,1.41-1.11,2.5-1.21.26-.16.66-.63.76-.88.69.16.94-.47,1.43-.68Z"/>
      <path class="cls-3" d="M135.81,87.89c.28.65,0,1.62-.27,2.11-.14,0-.38.04-.47.22-.05.1.11.26.18.34,0,.6-.43,1.27-.69,1.77-.92-.04-.31,1-2.45,2.54-.29.21-.33.83-.91.71-.4-.08-1.18-.15-1.06-.77l.66-.46c.13-.09-.15-.57-.2-.8l.48-.76c.04-.06.26,0,.36-.05.08-.03.17-.1.11-.25-.04-.09-.18-.14-.22-.19l-.02-.54c1.35-.1.02-1,1.04-3l-.26-.17c-.44.36-.58,1-.76,1.5-.36.97-.95,1.61-2.17,1.73-.12,1.11-1.08,1.62-1.92,1.4-.24-.62-.9-.94-1.32-1.44l-.1-.56c-.06-.33-.03-1.12.45-1.27.51-.16,1.13-.18,1.4-.54.15-.04.38-.14.43-.27.06-.18.07-.45,0-.64.26-.32.91-.56,1.27-.35.14.08.43.35.65.08.15-.19.09-.66.09-.85l.26-.03c.42-.17.86-.19,1.53.03-.18-.65-.32-1.01-.31-1.51.04-.72.81-1.09,1.49-.93.28.06.53.24.94.18l.04-1.23.53-.21c.49.1,1.01.13,1.52.43-.31,1.55.68,2.44-.26,3.08-.15.1-.18.23-.21.33-.03.14.11.26.16.36Z"/>
      <path class="cls-5" d="M127.63,142.58c-1.2,1.54-3.63,1.78-3.71,3.64-.46,0-1.02-.09-1.39.19-.99.85-1.78,2.47-3.06,2.87-.75.24-1.04.24-1.65.8-.53.48-1.09.75-1.39,1.58l-1.14,1.19-1.18-.23c-.83-.16-1.63-.61-1.84-1.46-.08-.65.27-1.3,1.09-1.4l.71-1.03c1.18.17,1.84-.41,2.37-1.35l1.05-.79,1.21.08c-.03-.35.05-.76.26-.81l.69-.16c.47-.11.54-.74.61-1.08.32-.63,1.11-.69,1.65-1.09l3.12-2.33c.33-.25.7-.78.86-1.07l1.39-.38c1-.32,2.2,1.08,1.66,2.11-.22.43-.85.1-1.06.06-.36.03-.27.51-.26.67Z"/>
      <path class="cls-5" d="M130.6,126.81c0,.13.02.27.07.34.06.08.23.15.42.14l1.3-.08c.44.48.82.8,1.41.9.3.05.66.18,1.02.19h.68c-.12.36.02.77.4.77h.8s3.45.97,3.45.97c.57-.08,1.14-.53,1.54.11.64,1-.68,2.31-2,3.6-.43.42-.5,1.19-1.4,1.29-1.24.15-.83,1.69-2.72,1.91-.6-.9-1.57-1.27-1.56-2.47,0-1.42,1.66-1.13,2.5-2.44l-2.51-.46c-.17-.23-.35-.79-.63-.8l-.81-.03c-.1-.04-.21-.21-.39-.22-.16-.01-.35.03-.35.27l-.77-.24-.17-.95c-.02-.08-1.84-.98-2.3-.52l-.23-.04c.2-.56.38-1.47.28-2l1.2-.18.76-.05Z"/>
      <path class="cls-3" d="M120.24,123.11v.25c-.07.19,0,.45.16.47.17.02.38-.07.47-.05l1.57.31c.19.62.55,1.02,1.02,1.6.15-.39.64-.79.89-.63,1.25.79,2.29,1.03,2.09.31.55.21,1.59.28,1.9,1.02l.3.64c.1.53-.08,1.44-.28,2l-1.68.22c-.21-.38-.44-.79-.72-1-.1-.07-.15-.28-.4-.21-.11.03-.18.15-.11.28l-1.23-.02c.05-.19-.04-.4-.19-.46-.19-.08-.39-.09-.57-.07v-.45c0-.13.06-.44.02-.61-.03-.13-.31-.21-.53-.04-.1.08-.24.11-.21.39-.18-.05-.56-.04-.75,0,.07-.35-.18-.51-.4-.51l-.73.07c-.38-.48-1.3-.7-1.87-.81-.08-.16-.24-.45-.39-.4l-.93.26c-.37-.45-.86-1.27-1.1-1.78.14-.89.93-1.3,1.55-1.35.88-.07,1.51-.02,2.11.57Z"/>
      <path class="cls-3" d="M93.46,122.66c-.4.6-1.18.8-1.63,1.36s-.89,1.07-1.39,1.6c-.47.49-.54,1.06-1.35,1.41s-1.59,1.94-2.59,1.79c-.33-.05-.7.13-.72.4l-.08.83c-.1.03-.23.07-.33.06l-.91-.11c-.15-.23-.68-.63-.28-1.01s.41-.85.65-1.18l1.24-1.68c.28-.38.28-.89.39-1.3l1.28-1.43c.47-.12,1.19.19,1.7.21.54-1.23,1.45-1.55,1.47-2.22l.58-.27c.46-.21,1.09-.08,1.51.27.35.29.54.74.46,1.26Z"/>
      <path class="cls-3" d="M152.14,135.75c-.38.84-.33,2.06-1.3,2.66l-.25,1.71c-.47-.06-.6.24-.55.63.03.22-.02.57.3.63-.05.1-.06.37.09.47-.48.09-.65.5-1.07.81-.32.24-1.37.14-1.49-.29-.13-.48-.11-.88-.49-1.04.03-.27.1-.71-.05-.96.27-.18.31-.48.24-.76.69-.5.7-1.43.5-2.23.22.02.59-.24.79-.49.11-.14.17-.43-.22-.49-.03-.23-.09-.52-.01-.76.12-.37.24-1.21.78-1.32,1.06-.21,1.79,1,2.72,1.43Z"/>
      <path class="cls-3" d="M138.71,179.59c.25.89.07,1.67-.15,2.49-.43.01-1.23.38-1.15.8.05.15.44.53.31.68-.65.7.15,1.14-.43,1.45-.23.13-.43.29-.43.56,0,.11.08.25.12.36-.04.44-.07.87.06,1.32-.94.02-.5,1.86-2.35,1.84.09-1.28-1.09-1.23-.89-2.16.14-.04.37-.35.42-.5.35-1.07,1.03-2.36,2.2-3.07-.5-.67-.39-1.2-.06-1.72s-.28-.85-.44-1.12c-.28-.47.04-1.23.12-1.71.35-.17.75-.35,1.1-.31.81.1.96.98,1.59,1.1Z"/>
      <path class="cls-2" d="M133.79,186.94c-.2.93.98.88.89,2.16,1.85.03,1.41-1.81,2.35-1.84.1.34-.44.85-.44,1.19,0,1.12-.26,1.81-.63,2.78-.18.5.19,1.29-.67,1.74-.23.12-.54.62-.5.87-.79-.33-1.37-.73-2.06-.21-.53.4-.42,2.05-1.64,1.87l.83-1.27c.12-.84.48-1.76.5-2.45.03-.94-.18-1.48.54-2.31.52-.6-.36-2.64.83-2.54Z"/>
      <path class="cls-5" d="M132.94,135.58c.52.59,1.11,1.31,1.12,2.08.01,2.19-2.1.86-2.38,2.81-.56.21-1.07.21-1.62.17-.24-.59-1.12-1.42-1.11-2.15,0-.4.32-1.35.73-1.38,2.23-.21,1.18-2.15,3.27-1.52Z"/>
      <path class="cls-5" d="M119.96,115.64c1.23-.16,2.04.72,2.48,1.75.18.6-.21,1.08-.38,1.59-.27-.06-.64-.03-.7.21l-.16.7c-.04.19-.36.49-.24.73-.35.08-.54.44-.94.6l-.57.22c-.14.05-.12.35-.04.7-.54.09-1.5-.13-1.58-.78-.1-.77.37-1.49.46-2.15.23-.02.36-.29.3-.51.31-.09.63-.3.8-.52.29-.39-.04-.69-.14-.96-.24-.71.18-1.27.71-1.58Z"/>
      <path class="cls-5" d="M111.34,152.01c.59.33,1.38.96,1.47,1.63.14,1.08-.96,1.62-1.75,2.2-.85.62-1.56,1.29-2.68,1.29.2-.35.28-.92.37-1.47-.48-.35-.89-.69-.9-1.15.26-.12.51-.04.53-.45v-.66c.12-.16.4-.34.54-.48.08.24.17.43.45.54l.03-1.04c.43-.45,1.33-.75,1.94-.41Z"/>
      <path class="cls-3" d="M93.4,149.75c1.02-.05,1.45.64,1.88,1.52.25.5-.14,1.14-.17,1.61-.05,1.02-.84,1.08-1.11,1.58-.56.02-.96-.16-1.33-.56l-1.08-1.17c-.11-.67.07-1.36.75-1.81.08-.75.47-1.13,1.05-1.16Z"/>
      <path class="cls-2" d="M94.82,117.95c-.05.9.94,1.8,1.84,2.11-.66.24-.84.86-1.39,1.27l-1.8,1.32c.07-.52-.12-.97-.46-1.26-.41-.35-1.05-.49-1.51-.27-.16-.44.06-.84.5-1.11,1.4-.84,1.44-2.16,2.83-2.06Z"/>
      <path class="cls-2" d="M118.3,119.2c-.09.66-.56,1.37-.46,2.15.08.65,1.04.87,1.58.78-.08-.34-.1-.64.04-.7l.57-.22c.4-.15.59-.52.94-.6.2.39.05.63-.16,1.13l-.57,1.36c-.6-.59-1.23-.64-2.11-.57-.61.05-1.41.46-1.55,1.35.24.51.72,1.33,1.1,1.78l.93-.26c.16-.04.32.25.39.4-.62.42-2.65.08-2.92-.36-.19-.31-.16-.79.01-1.3l1.51-4.41c.13-.39.37-.52.68-.54Z"/>
      <path class="cls-2" d="M124.98,204.53c.04.31-.02.66-.11.95-.12.39-.6.54-1.11.49-.03,1.11-.74,1.51-1.59,1.91-.25.12-.67.65-1,.11-.37-.61-.99-.9-1.65-.64.26-.7,1.34-.93,1.99-1.36,1.14-.76,2.1-1.74,3.47-1.47Z"/>
      <path class="cls-2" d="M94.01,154.45c-.49.93-1.05,1.7-1.66,2.69-.29.47-.17,1.37-.85,1.6-.18-.72.17-1.28.58-1.93l.14-.96c.04-.26.65-.19.83-.29.33-.26-.05-.74-.25-.9-.32-.24-.59-.5-1.13-.1.11.28.29.64.11.96-.4-.19-.86-.2-1.06-.01-.14.13.27.68.12.78-.24.16-.82.16-.89.51-.05.25.17.58.58.91l-1.58.62c.28-1.23,1.13-2.26,1.68-3.46l.99-2.15,1.08,1.17c.36.4.76.58,1.33.56Z"/>
      <path class="cls-2" d="M134.56,92.34c-.21.41-.31.83-.73,1.32l-.16,1.19c-1.55.12-.38,1.68-1.6,2.1-.61-.71-1.72-1.01-2.46-.2-.37.41-.72.74-1.25.75-.05-.2-.06-.77.06-.82l.8-.32.67-2.03c.16-.48.3-.73.7-.78.06.23.33.71.2.8l-.66.46c-.12.62.66.69,1.06.77.58.11.62-.5.91-.71,2.14-1.53,1.52-2.58,2.45-2.54Z"/>
      <path class="cls-2" d="M93.72,165.31c.05.29-.28.5-.3.7-.29-.11-.7-.06-.83.15-.22.36-.19.86.02,1.13l.36.45c.1.24.15.41.28.54.27.28.65.31.93.21-.06.38-.21.78-.42.98-.3.28-.82.05-1.09.27l-1.23.99.26-.92c.15-.45-.19-.64-.51-.87-.38-.27-.75-.37-1.23-.22-.15-.93,1.03-.97,1.46-1.45.74-.81,1.06-2.18,2.32-1.97Z"/>
      <path class="cls-3" d="M96.13,116.51c.88.4,1.66.97,1.74,1.95.03.38.01.77-.26,1.12-.22.28-.62.37-.95.49-.9-.32-1.89-1.21-1.84-2.11l.05-.76c.4,0,.71-.31.73-.71.16-.01.4-.04.54.02Z"/>
      <path class="cls-2" d="M150.44,141.86l-1.35,4.22-.83-1.3.89-.4c-.48-.84-.99-1.4-1.82-1.81-.2-.1-.61.5-.45.62l.8.59c-.36.59-1.2.35-1.76.57.24-1.08.49-2.34,1.47-2.99.38.15.35.56.49,1.04.12.43,1.17.53,1.49.29.41-.31.58-.72,1.07-.81Z"/>
      <path class="cls-2" d="M134.2,186.43c-.09-.48-.1-.97-.34-1.56,1.19-1.99.46-4.07,2.04-4.35.16.27.79.58.44,1.12s-.44,1.05.06,1.72c-1.18.71-1.85,2-2.2,3.07Z"/>
      <path class="cls-2" d="M128.94,138.49c0,.73.87,1.56,1.11,2.15-.26,1.1-1.27,2.17-2.42,1.95,0-.16-.1-.64.26-.67.21.05.83.37,1.06-.06.53-1.03-.66-2.43-1.66-2.11l-1.39.38c.53-.93,2.05-1.91,3.05-1.64Z"/>
      <path class="cls-2" d="M102.06,115.28c-.37.46-.92.64-1.37,1.08-.61.59-.92,1.14-1.86,1.42-.29.09-.64.68-.96.68-.08-.98-.87-1.55-1.74-1.95l1.96-1.73c.07.09.23.23.2.35-.05.17-.22.36-.36.56-.28.38.33,1.7.85,1.59.89-.25,1.34-1.29,1.89-1.93.45-.19.89-.12,1.39-.05Z"/>
      <path class="cls-2" d="M124.41,114.24l-1.14,1.88c-.12.2.05.82-.21,1.03-.15.11-.34.22-.61.25-.44-1.03-1.26-1.92-2.48-1.75.29-.17.7-.66.93-.92.5-.03.88.17,1.35.6.19-.38.18-.64.25-1.06h1.92ZM122.84,115.23l-.12.12.12.12.12-.12-.12-.12Z"/>
      <path class="cls-2" d="M83.53,133c-1.06.22-2.21.05-2.6-.99s-.44-2.17.61-2.7c-.21.7.3,1.2.56,1.91l.53,1.47c.3-.1.48-.1.64-.07.13.02.24.19.26.38Z"/>
      <path class="cls-2" d="M86.47,124.83c-.11.4-.11.92-.39,1.3l-1.24,1.68c-.61-.06-1.15.32-1.44.9-.15.08-.4-.18-.36-.34.8-2.76,2.48-1.94,2.66-2.86.08-.41.58-.47.76-.67Z"/>
      <path class="cls-2" d="M139.58,178.62c-.09.53-.26.86-.87.97-.62-.12-.78-1-1.59-1.1-.35-.04-.75.15-1.1.31l.3-1.81c.82-1.31.57-1.98,1.21-2.06-.29,1.69-.65,1.85.67,3.97l1.37-.29Z"/>
      <path class="cls-2" d="M134.03,134.48c-.02,1.2.95,1.57,1.56,2.47-.1.76-.89.82-1.52.71,0-.77-.6-1.48-1.12-2.08.27-.53.51-1.08,1.08-1.1Z"/>
      <path class="cls-2" d="M129.61,201.07c.01.2.03.67-.09.73l-.95.46c-.16.73.16,1.64-.56,2.29-.61-.38-1.19-.91-1.85-1.11-.03-.24.05-.55.24-.59l.65-.16c.42-.4.89-.61,1.45-.89.35-.18.61-.83,1.12-.72Z"/>
      <path class="cls-2" d="M135.81,87.89c-.04-.1-.19-.21-.16-.36.02-.1.06-.23.21-.33.94-.64-.05-1.53.26-3.08-.51-.3-1.03-.33-1.52-.43.03-.11.06-.35.19-.4.75-.28,2.26,1,2.16,1.57l-.36,2.14c-.07.44-.43.81-.77.87Z"/>
      <path class="cls-2" d="M96.53,149.22c.26,1.01-.25,1.77-1.25,2.04-.43-.87-.86-1.56-1.88-1.52.09-.27.2-.64.16-.95.87.89,1.92.95,2.96.43Z"/>
      <path class="cls-2" d="M82.03,172.12c.5-.91,1.12-1.94,1.49-2.9.28.78.7,1.22,1.61,1.32-.57.35-.91.15-1.44.17l.84,1.38c-.93,0-1.7-.25-2.5.03Z"/>
      <path class="cls-2" d="M72,126.32c-.05.37-.12.72-.42,1.13-.51.72.23,2.39-.9,2.29.04-.38.36-.85.26-1.28-.14-.59-1.21-.86-1.27-1.52-.02-.25.13-.48.41-.44.21.03.52.2.75.62l1.17-.81Z"/>
      <path class="cls-2" d="M126.44,125.38c.2.71-.84.48-2.09-.31-.25-.16-.74.25-.89.63-.47-.58-.82-.99-1.02-1.6.57-.21,1.16.34,1.58.37,1.12.09,1.55.58,2.41.91Z"/>
      <path class="cls-2" d="M112.27,151.15c.21.86,1.01,1.3,1.84,1.46-.24.57-.71.99-1.31,1.02-.08-.66-.88-1.3-1.47-1.63,0-.56.35-.8.93-.86Z"/>
      <path class="cls-5" d="M63.86,155.13l-.08,1.05c-.13,0-.33.05-.46.02-.64-.18-1.31-.38-1.99-.25-.13-.36.04-.92.38-1.08.14.02.44.31.69.2.17-.07.12-.47.12-.6.49-.21,1.05.16,1.34.66Z"/>
      <path class="cls-2" d="M86.46,174.64c.04.36-.04.93-.35,1l-1.08.27-1.28.91c.03-.79-.31-1.11-.14-1.48.06-.13.2-.47.49-.22l.77.67c.16-.99.86-1.11,1.6-1.15Z"/>
      <path class="cls-2" d="M90.91,121.39c-.02.67-.92.99-1.47,2.22-.51-.02-1.23-.33-1.7-.21.04-.83,1.52-.21,1.67-.7l.2-.66c.15-.48.91-.47,1.29-.65Z"/>
      <path class="cls-2" d="M67.71,141.38c0,.76.11,1.87-.73,2.19-.44-.56-.61-1.14-1.29-1.69.96,0,1.44-.1,2.02-.5Z"/>
      <path class="cls-2" d="M69.05,137.45c-.11.97-.28,1.75-1.33,2.25.26.3.33.63.37.83.02.09-.3.09-.38.05,0-.47-.31-1.28-.05-1.78.22-.14.72-.24.68-.63s.32-.71.71-.73Z"/>
      <path class="cls-2" d="M63.78,156.17l-.11,1.56c-.31.55-.51.82-.62,1.36-.18-.47-.38-1.08-.36-1.69.24-.3.86-.69.63-1.2.13.04.33-.01.46-.02Z"/>
      <path class="cls-2" d="M66.53,145.84c-.95,1.84.12,2.62-1.06,3.09-.05-.88.21-1.82.11-2.8.34-.21.63-.28.95-.3Z"/>
      <path class="cls-2" d="M100.57,112.34l-.13,1.09c-.72,0-1.31.13-1.92.34.13-.35.54-.45.76-.75.39-.53.64-.79,1.29-.68Z"/>
      <path class="cls-2" d="M131.59,85.9c-.01.49.12.86.31,1.51-.67-.21-1.11-.2-1.53-.03.03-.75.39-1.53,1.22-1.48Z"/>
      <path class="cls-5" d="M95.38,167.76c-.19.47-.75.57-1.2.74-.27.1-.65.07-.93-.21-.13-.13-.18-.29-.28-.54.61-.4,1.36.18,2.41.01Z"/>
      <path class="cls-2" d="M65.01,151c-.27-.21-.48-.68-.32-.99s.5-.56.81-.68c.31.25.27.6.17.91-.12.34-.48.56-.66.76Z"/>
      <path class="cls-2" d="M154.77,67.37c-.91-.05-1.5-.73-1.96-1.44.82.08,1.79.58,1.96,1.44Z"/>
      <path class="cls-2" d="M125.82,91.24l.1.56-1.95.25c.2-.15.36-.84.68-.82.43.05.83.25,1.17,0Z"/>
      <path class="cls-2" d="M138.72,170.24l.19.73-.96.93c-.11-.67.11-1.44.29-1.58.1-.08.33-.11.49-.08Z"/>
      <path class="cls-2" d="M59.5,174.08c.25.35.3.69.21,1.05-.08.33-.35.57-.75.59.13-.69-.07-1.29.54-1.64Z"/>
      <path class="cls-2" d="M84.74,200.32c-.27,0-.67.06-1.01-.07-.22-.08-.4-.39-.47-.71.31-.11.63-.17.92-.02.35.17.52.44.56.8Z"/>
      <path class="cls-2" d="M97.9,53.23c-.29.37-.63.69-1.28.62.01-.3.05-.8.39-.89.27-.08.6.06.89.27Z"/>
      <path class="cls-2" d="M132.39,127.22l-1.3.08c-.19,0-.36-.07-.42-.14-.05-.07-.07-.22-.07-.34.6-.28,1.36-.06,1.8.41Z"/>
      <path class="cls-2" d="M89.67,172.21c.06.72-.52,1.15-1.22,1.16l.28-.8c.11-.31.62-.38.94-.35Z"/>
      <path class="cls-2" d="M134.06,83.92l-.04,1.23c-.41.06-.66-.12-.94-.18.11-.55.49-.85.98-1.05Z"/>
      <path class="cls-2" d="M144.42,63.2c-.6.3-1.19.07-1.73-.18.48-.37,1.55-.56,1.73.18Z"/>
      <path class="cls-2" d="M136.71,129.09h-.8c-.37-.01-.52-.42-.4-.78l1.01-.21.19.99Z"/>
      <path class="cls-2" d="M98.69,140.02c.06.76.04,1.51-.92,1.81l.35,1.05-1.04-.02c-.14-.65.43-.96.77-1.48.31-.47.33-1.12.85-1.36Z"/>
      <path class="cls-2" d="M129.83,126.86l-1.2.18-.3-.64c.57-.04,1.26-.07,1.5.46Z"/>
      <path class="cls-2" d="M118.72,207.89c.04.26-.05.57-.21.65-.28.15-.71.15-.99.14.12-.65.67-.74,1.21-.79Z"/>
      <path class="cls-2" d="M148.08,137.39c-.1-.4.18-.86.57-.98.39.06.34.35.22.49-.2.25-.58.51-.79.49Z"/>
      <path class="cls-2" d="M106.94,207.94l-.74.48c.05-.42-.06-.83-.25-1.18.44.04.95.22.99.71Z"/>
      <path class="cls-2" d="M94.19,57.84c-.06.39-.18.78-.6.95-.11-.06-.49-.23-.4-.54.08-.28.73-.41,1-.41Z"/>
      <path class="cls-2" d="M114.67,209.85c-.17.05-.29.43-.66.28-.18-.07-.37-.25-.42-.52.16-.07.38-.24.6-.2.23.04.48.14.48.44Z"/>
      <path class="cls-2" d="M132.07,97.74c0,.54-.44.97-.99.94.05-.52.48-.91.99-.94Z"/>
      <path class="cls-2" d="M122.07,118.98c-.15.46-.22.9-.86.91l.16-.7c.05-.24.43-.27.7-.21Z"/>
      <path class="cls-2" d="M130.62,199.02l.25-.95c.41-.08.62.23.43.58-.12.23-.4.38-.68.37Z"/>
      <path class="cls-2" d="M129.37,88.17c.15-.36.39-.73.73-.77,0,.19.07.66-.09.85-.22.27-.5,0-.65-.08Z"/>
      <path class="cls-5" d="M62.06,163.56c-.14-.47.11-.86.2-1.26.35.12.39.52.27.84-.07.17-.24.35-.48.42Z"/>
      <path class="cls-2" d="M138.72,168.94c.04-.32.17-.6.54-.71.08.14.36.4.15.56-.2.14-.52.12-.69.15Z"/>
      <path class="cls-2" d="M88.93,158.62c.02.14.07.46-.03.57-.16.19-.56.12-.8.01.24-.15.35-.69.82-.59Z"/>
      <path class="cls-2" d="M83.73,177.11c-.02.4-.5.66-.89.72-.03-.22.02-.5.2-.62.22-.14.48-.14.7-.11Z"/>
      <path class="cls-2" d="M95.59,116.48c-.01.4-.33.7-.73.71.03-.4.32-.69.73-.71Z"/>
      <path class="cls-2" d="M134.83,128.3c-.37,0-.73-.14-1.02-.19.05-.37.35-.39.58-.28.2.09.36.23.44.47Z"/>
      <path class="cls-2" d="M96.38,54.35c-.2.42-.61.57-1.07.5.05-.52.6-.64,1.07-.5Z"/>
      <path class="cls-2" d="M125.66,203.47c0,.16-.02.35-.12.5-.13.18-.38.24-.6.22-.05-.41.32-.68.72-.72Z"/>
      <path class="cls-2" d="M97.13,166.02c.02.2-.08.39-.22.45-.2.09-.39.09-.59.08,0-.18.03-.42.18-.49.23-.11.46-.03.63-.03Z"/>
      <path class="cls-2" d="M64.7,152.84l.04.66c.01.18-.29.2-.42.27-.13-.39-.02-.82.38-.93Z"/>
      <path class="cls-5" d="M95.9,167.04c-.09.23-.21.51-.51.55l-.05-.61c-.02-.22.22-.31.37-.23.1.05.18.14.19.29Z"/>
      <path class="cls-2" d="M127.67,89.43c-.09-.46.21-.64.43-.91.06.18.06.45,0,.64-.05.13-.28.22-.43.27Z"/>
      <path class="cls-2" d="M105.72,206.93c-.28.06-.6.02-.77-.27.15-.06.29-.3.51-.11.12.11.17.25.26.38Z"/>
      <path class="cls-2" d="M147.35,140.38c-.08-.13-.38-.31-.13-.49l.37-.27c.07.27.03.58-.24.76Z"/>
      <path class="cls-2" d="M131.08,98.97c.04.19-.01.48-.24.49-.06-.07-.28-.27-.23-.37.09-.15.36-.17.47-.12Z"/>
      <path class="cls-2" d="M135.54,90.01c-.04.08-.07.29-.06.42.01.1-.03.24-.23.14-.07-.08-.23-.24-.18-.34.09-.18.33-.21.47-.22Z"/>
      <path class="cls-2" d="M94.88,146.97c.03.15,0,.35-.05.44-.09.17-.43.16-.6-.01.17-.11.37-.41.66-.43Z"/>
      <path class="cls-2" d="M145.57,146.55c.05-.16.19-.45.16-.59l.29.11c.16.06.16.28.11.36-.16.23-.43.1-.56.13Z"/>
      <path class="cls-2" d="M120.88,123.78c-.09-.02-.3.07-.47.05-.16-.02-.23-.28-.15-.47.27-.01.52.13.63.42Z"/>
      <path class="cls-5" d="M107.71,158.34c0,.11-.03.45-.15.52-.11.06-.26-.17-.38-.19.07-.24.29-.34.53-.32Z"/>
      <path class="cls-5" d="M73.18,121.66c-.06-.22.03-.47.3-.52.03.11.28.18.17.38-.1.18-.34.16-.47.14Z"/>
      <path class="cls-2" d="M116.57,209.37c.02.13.05.39-.14.52-.12.08-.29-.16-.37-.21.11-.21.3-.28.52-.31Z"/>
      <path class="cls-2" d="M62.82,160.33c-.03.17.02.5-.26.5-.08-.06-.28-.25-.23-.35.1-.18.35-.2.48-.15Z"/>
      <path class="cls-1" d="M133.07,202.33c.66-.71.48-1.61.48-2.51v-.62c.71-.5.5-1.63.3-2.32.2-.15.18-.43.23-.57.33-.83.87-1.53.72-2.46-.04-.25.27-.75.5-.87.86-.45.48-1.24.67-1.74.36-.97.63-1.66.63-2.78,0-.34.54-.85.44-1.19-.13-.45-.09-.88-.06-1.32.46-.05.66-.5.79-.97l.8-2.89c.23-.82.4-1.59.15-2.49.61-.11.78-.45.87-.97.07-.44.45-1.08.23-1.53.13-.15.13-.36.1-.53,0-.48.28-.98.47-1.53l.74-2.18c.32-.96.5-1.42.68-2.44.16-.9,1.24-1.83.97-2.99.67-.79.72-1.7.4-2.59,1.42-2.38.48-3.9,1.79-5.46.36-.05.43.22.44.4,0,.17.09.68-.01.78-.74.72-.35,1.66-.6,2.47l-1.53,4.85c-.48,1.52-.43,3.22-1.15,4.78-.62,1.34-1.05,2.6-.96,4.16l-.56,1.64c.07.88-.77,1.9-.69,2.54.15,1.14-.26,1.62-.71,2.43-.31.56.11,1.83-.68,2.36-.37.25-.25,1.3-.19,1.69.1.62-.5.85-.61,1.18l-1.35,4.35c-.22.69-.14,1.18-.34,1.92l-.86,3.19c-.02.08.19,3.7-2.08,4.26Z"/>
      <path class="cls-2" d="M127.19,206.68c.02.13-.08.37-.2.41-.1.04-.33.02-.58-.09-.16.86-1.03.9-1.59,1.27-.84.55-1.48.99-2.32,1.47-.64.36-1.2,1.21-1.99,1.17-.2-.89.67-1.05.87-1.89,1.37.07,2.37-.68,3.41-1.5.42-.33,1.12-.37,1.3-1.02.48.24.76.22,1.1.18Z"/>
      <path class="cls-2" d="M148.86,147.3c-.13.68-.46,1.23-.93,1.73l.04-1.46c0-.28.59-.32.88-.28Z"/>
      <path class="cls-2" d="M129.87,204.92c-.34.62-1.05,1.05-1.76,1.03.08-.83,1.53-1.15,1.76-1.03Z"/>
      <path class="cls-2" d="M132.14,202.85c-.2.44-.53.85-1.05.87,0-.24-.1-.71.17-.9.19-.13.66-.06.88.03Z"/>
      <path class="cls-2" d="M150.6,140.12c-.06.39.06.95-.25,1.27-.32-.07-.27-.42-.3-.63-.05-.39.08-.7.55-.63Z"/>
      <path class="cls-2" d="M130.35,204.75c.08-.26.26-.44.51-.53-.11.25-.29.38-.51.53Z"/>
      <path class="cls-2" d="M133.53,199.2v.62s-.33-.03-.33-.03c-.13-.01-.21-.28-.13-.37.09-.1.35-.14.46-.22Z"/>
      <path class="cls-2" d="M134.07,196.3c-.06.14-.03.42-.23.57-.06-.05-.22-.13-.26-.2-.08-.14.01-.33.12-.34l.38-.03Z"/>
      <path class="cls-3" d="M119.71,54.65l-.15.57c-.06.21-.63.22-.67.02-.1-.54-.58-.61-1.03-.81s-.09-.88.28-1.09.68-.46,1.14-.14c.37.26.62.75.44,1.45Z"/>
      <path class="cls-3" d="M120.57,54.7c-.51-.09-.16-1.59.33-1.48.65.14.44,1.61-.33,1.48Z"/>
      <path class="cls-3" d="M62.52,154.46c0,.13.05.52-.12.6-.24.11-.54-.18-.69-.2.17-.28.47-.42.8-.4Z"/>
      <path class="cls-1" d="M131.32,91.79l.02.54c-.23-.01-.28.3-.25.48l-.48.76c-.41.05-.54.29-.7.78l-.67,2.03-.8.32c-.12.05-.11.62-.06.82.32,1.27-.73,2.23-1.53,3.06-.23.53-.15,1.72-.95,2.02-.13.05-.33.12-.4.25s0,.3,0,.4l-.03,1.18c-.12-.07-.55-.11-.64.06-.31.56-.34,1.14-.33,1.66,0,.24-.27.49-.29.69-.21-.04-.39.06-.45.21-.08.17-.05.44-.06.58-.27.12-.59.58-.5.92.25.91-.36,1.1-.65,1.58-.4.68-.7,1.18-1.2,1.86s-.14,2.05-.46,2.75c-.23.26-.64.75-.93.92-.52.31-.95.87-.71,1.58-.4-.03-.63.21-.69.45-.08.37-.05.75.02,1.03.06.21-.07.49-.3.51-.31.03-.55.15-.68.54l-1.51,4.41c-.17.51-.2.99-.01,1.3.27.44,2.3.79,2.92.36.57.11,1.48.33,1.87.81.3.38.54.58,1.13.44.19-.04.56-.06.75,0,.21.13.43.27.7.26v.45c.01.19-.01.43.15.5.22.09.45.03.61.03l1.23.02c.05.05.14.13.2.16.16.07.32-.03.32-.22.29.21.51.62.72,1l1.68-.22.23.04c1.03.59,1.42,1.14,2.47,1.47l.77.24c.1.05.22.2.38.22.18.02.38-.03.35-.27l.81.03c.28.01.46.56.63.8l2.51.46c-.84,1.31-2.5,1.02-2.5,2.44-.57.02-.81.57-1.08,1.1-2.1-.63-1.04,1.31-3.27,1.52-.41.04-.72.98-.73,1.38-1-.27-2.52.71-3.05,1.64-.16.29-.53.82-.86,1.07l-3.12,2.33c-.54.4-1.33.46-1.65,1.09-.93.08-2.57,1.15-2.77,1.97l-1.05.79c-.54.94-1.2,1.51-2.37,1.35l-.71,1.03c-.82.11-1.17.75-1.09,1.4-.59.06-.93.3-.93.86-.61-.34-1.51-.04-1.94.41l-.49.5c-.14.14-.42.32-.54.48-.81.14-.6.75-1.76,1.13-.25.08-.15.48-.2.66-.11.25-.5.72-.76.88-1.09.11-1.69.7-2.5,1.21l-1.05,1.13-1.55,1.14c-.82.6-1.52.73-2.16,1.68l-1.95,1.39-1.84,1.93c-.24.25-.84.31-.87.76-1.25-.21-1.58,1.17-2.32,1.97-.43.48-1.61.52-1.46,1.45-.5.16-.97.47-1.27.93-.53-.06-1.05.24-1.49.49-.2.11-.6.3-.82.31-.28,0-.34-.54-.36-.72.35-.74.89-1.05,1.51-1.72l.38-1.74c.7-.21.74-1.1,1.06-1.42.66-.65.79-1.37,1.17-2.15.4-.83,1.41-1.61.62-2.66.48-.35.84-.93.75-1.31.68-.22.56-1.13.85-1.6.61-.99,1.17-1.77,1.66-2.69.26-.5,1.05-.56,1.11-1.58.02-.46.41-1.11.17-1.61.99-.28,1.51-1.03,1.25-2.04.99-.49.85-1.45,1.27-2.34.26-.56,1.44-1.15,1.06-2.02.34-.18.36-.66.63-1.08l1.05-1.69c.38-.61.84-1.17.77-1.95.62-.05,1.16-.6,1.15-1.23-.01-.7.5-1.17.71-1.79.39,0,.68-.18.94-.42.2-.19.53-2.47.13-2.86-.28-.27-1.01-.42-1.47-.09-1.13.8-1.89.26-1.75.95-.82.22-1.72-1.06-2.44-1.07-1.21-.01-1.97.04-3.15-.49-.53-.24-1.38-.26-1.72-1.13-1.63.45-3.27.13-4.61-.93-.54-.43-1.39.16-1.83.12-.79-.07-1.29-.7-1.93-.65l.03-.44c.1.01.23-.03.33-.06.54-.16.79-.69.8-1.23,1,.15,1.8-1.44,2.59-1.79s.89-.92,1.35-1.41c.5-.53.92-1.02,1.39-1.6s1.23-.76,1.63-1.36l1.8-1.32c.55-.41.74-1.03,1.39-1.27.33-.12.73-.21.95-.49.27-.35.29-.74.26-1.12.32,0,.67-.59.96-.68.94-.27,1.25-.83,1.86-1.42.45-.44,1-.62,1.37-1.08.33-.41,1.48-.42,1.56-1.36.02-.27.14-.63.34-.82s.72,0,.99.07c.49-.3.73-1.06,1.06-1.54,2.19-.54,1.59-2.42,3.75-2.97.93-.23,1.02-1.57,1.67-1.98l3.2-2.01c.6-.38.88-.98.99-1.77.49-.13.87-.09,1.43-.05.34-1.5,1.43-2.39,2.9-2.69l1.31-1.93c.94-.42,1.75-.96,2.33-1.86,1.24-.02,1.82-.89,2.33-1.83.32.04.66.03.96-.17.22-.15.31-.5.3-.8,0-.08,0-.24.07-.34.84.22,1.8-.3,1.92-1.4,1.22-.12,1.82-.76,2.17-1.73.48.02-.06.56-.02,1.68Z"/>
      <path class="cls-2" d="M127.17,93.58c.02.3-.08.65-.3.8-.29.2-.63.21-.96.17-.04-.11-.08-.51.1-.62.37-.24.82-.25,1.15-.35Z"/>
      <path class="cls-2" d="M139.9,176.56c.03.17.03.38-.1.53-.05-.04-.19-.08-.27-.18-.05-.07-.03-.19.07-.22l.3-.12Z"/>
      <path class="cls-2" d="M103.17,137.12c.24-.69.24-1.57.01-2.4-.14-.51-1,.65-1.68.41-.17-.06-.35-.25-.49-.44-.15-.69.61-.14,1.75-.95.47-.33,1.19-.19,1.47.09.41.39.08,2.67-.13,2.86-.26.25-.55.42-.94.42Z"/>
      <path class="cls-2" d="M100.54,142.09l-1.05,1.69c-.26.42-.29.9-.63,1.08l-.42-1.67c.28-.03.52-.07.68-.16.22-.13.34-.47.3-.84.43-.13.77-.09,1.12-.1Z"/>
      <path class="cls-2" d="M102.46,138.9c.01.64-.52,1.18-1.15,1.23-.05-.62.58-1.13,1.15-1.23Z"/>
      <path class="cls-2" d="M85.37,130.1l-.03.44c-.46.04-.67-.23-.88-.55l.91.11Z"/>
      <path class="cls-2" d="M87.18,170.15c-.06.29-.27.72-.19,1-.27-.03-.52.04-.68.25-.1.13-.14.32-.13.5l-.75-.05c-.15,0,.12-.51.05-.66-.38-.75.33-1.05.53-1.46.02.18.08.73.36.72.21,0,.62-.19.82-.31Z"/>
      <path class="cls-3" d="M91.17,168.95c-.61.78-1.63.81-2.5.71.3-.46.77-.76,1.27-.93s.85-.05,1.23.22Z"/>
      <path class="cls-3" d="M86.99,171.15c.05.18.32.4.29.66-.04.33-.38.48-.65.34l-.45-.25c0-.19.03-.37.13-.5.16-.21.41-.28.68-.25Z"/>
      <path class="cls-2" d="M125.46,104.41c0,.37.31.78,0,1.11-.26.28-.59.53-.97.62-.02-.52.01-1.1.33-1.66.09-.17.52-.13.64-.06Z"/>
      <path class="cls-2" d="M124.2,106.82l-.05.61c-.01.15-.27.24-.46.17,0-.13-.02-.4.06-.58.07-.14.24-.25.45-.21Z"/>
      <path class="cls-2" d="M125.89,102.58c.08.35-.09.61-.4.65,0-.09-.07-.26,0-.4s.27-.2.4-.25Z"/>
      <path class="cls-2" d="M108.38,153.39v.66c-.02.41-.27.34-.53.45-.49.21-.74.84-1.43.68.05-.18-.05-.58.2-.66,1.16-.37.95-.99,1.76-1.13Z"/>
      <path class="cls-5" d="M93.42,166.01l-.09.77c-.04.32-.36.52-.72.52-.22-.27-.25-.77-.02-1.13.13-.21.54-.27.83-.15Z"/>
      <path class="cls-2" d="M131.32,91.79c-.04-1.12.49-1.65.02-1.68.18-.5.32-1.14.76-1.5l.26.17c-1.02,2.01.31,2.9-1.04,3Z"/>
      <path class="cls-2" d="M131.09,92.81c-.03-.18.02-.49.25-.48.05.04.19.09.22.19.06.15-.03.22-.11.25-.1.04-.32-.02-.36.05Z"/>
      <path class="cls-2" d="M120.26,144.61c-.07.34-.14.97-.61,1.08l-.69.16c-.2.05-.28.46-.26.81l-1.21-.08c.2-.82,1.84-1.89,2.77-1.97Z"/>
      <path class="cls-2" d="M131.07,130.55c-1.05-.33-1.44-.88-2.47-1.47.46-.45,2.29.44,2.3.52l.17.95Z"/>
      <path class="cls-2" d="M132.58,130.75c.02.24-.18.29-.35.27-.16-.02-.28-.17-.38-.22,0-.25.19-.29.35-.27.18.02.29.18.39.22Z"/>
      <path class="cls-2" d="M122,127.07c-.59.14-.82-.06-1.13-.44l.73-.07c.22,0,.47.15.4.51Z"/>
      <path class="cls-2" d="M123.45,127.32c-.27.01-.5-.13-.7-.26-.03-.27.11-.31.21-.39.21-.17.5-.09.53.04.04.17-.03.48-.03.61Z"/>
      <path class="cls-2" d="M124.22,128.31c-.16,0-.39.06-.61-.03-.17-.07-.14-.31-.14-.5.18-.01.37-.01.57.07.15.06.24.27.19.46Z"/>
      <path class="cls-2" d="M125.96,128.27c0,.19-.16.28-.32.22-.06-.03-.14-.1-.2-.16-.07-.13,0-.25.11-.28.26-.07.31.14.4.21Z"/>
      <path class="cls-2" d="M86.5,128.81c0,.54-.26,1.07-.8,1.23l.08-.83c.02-.27.39-.45.72-.4Z"/>
      <path class="cls-2" d="M138.56,182.08l-.8,2.89c-.13.47-.33.91-.79.97-.04-.12-.12-.25-.12-.36,0-.27.2-.43.43-.56.58-.32-.22-.75.43-1.45.13-.14-.26-.52-.31-.68-.08-.42.73-.79,1.15-.8Z"/>
      <path class="cls-2" d="M119.26,117.22c.09.27.43.57.14.96-.16.22-.49.43-.8.52-.08-.28-.11-.66-.02-1.03.05-.23.29-.47.69-.45Z"/>
      <path class="cls-2" d="M108.91,152.92l.49-.5-.03,1.04c-.29-.11-.37-.3-.45-.54Z"/>
      <rect class="cls-5" x="122.75" y="115.27" width=".17" height=".17" transform="translate(-45.59 120.65) rotate(-45)"/>
    </g>
  </g>
</svg>