<?xml version="1.0" encoding="UTF-8"?>
<svg id="_レイヤー_1" data-name="レイヤー 1" xmlns="http://www.w3.org/2000/svg" viewBox="0 0 241.21 245.98">
  <defs>
    <style>
      .cls-1 {
        fill: #2a2a2a;
      }

      .cls-2 {
        fill: #494949;
      }

      .cls-3 {
        fill: #e9ce94;
      }

      .cls-4 {
        fill: #6d6d6d;
      }

      .cls-5 {
        fill: #8e8e8d;
      }

      .cls-6 {
        fill: #9e9d9a;
      }
    </style>
  </defs>
  <path class="cls-5" d="M65.02,136.06c-.41.1-1.26-.79-1.09-1.19.28-.62.43-1.14.52-1.75.07-.03.29-.02.37.06.11.09.17.33.17.58l.02,2.31Z"/>
  <path class="cls-6" d="M134.95,116.52c-.16-.65.31-1.18.94-1.29-.12.54-.5.97-.94,1.29Z"/>
  <path class="cls-5" d="M46.1,133.75c-.08.3-.34.61-.64.64-.03-.09-.04-.32.03-.44.14-.21.4-.23.61-.2Z"/>
  <path class="cls-5" d="M150.49,154.15l.05.49c-.4-.06-.84-.23-.95-.67.26.16.62.24.9.18Z"/>
  <path class="cls-5" d="M76.88,80.91c-.31-.1-.58-.34-.65-.65.27.11.53.35.65.65Z"/>
  <path class="cls-5" d="M148.63,153.32c-.14-.08-.26-.17-.32-.32l.32.32Z"/>
  <path class="cls-3" d="M86.8,125.76l-.34-.28c.11,0,.26.19.34.28Z"/>
  <path class="cls-5" d="M147.68,152.35c-.31-.07-.62-.33-.64-.64.29.11.52.34.64.64Z"/>
  <g>
    <path class="cls-5" d="M111.6,155.44l.85.15-1.93.62c-1.27.4-2.33.79-3.53.99l-.03-.59c.39.03.73-.31,1-.36.53-.06,1.17.09,1.6-.37h.96c.25,0,.47-.15.65-.3.09-.08.33-.15.44-.13Z"/>
    <path class="cls-5" d="M193.39,145.91c.05-.1.08-.21.09-.31.78-.01,1.62-.97,1.6-1.78l.3-.07c.07.57-.15,1.1-.45,1.55-.35.52-.87.73-1.54.6Z"/>
    <path class="cls-5" d="M145.72,149.73v.76c-.27-.21-.56-.23-.64-.69l.04-.34.6.27Z"/>
    <path class="cls-5" d="M105.64,156.99l.05.5-1.61-.02.09-.44c.43-.03,1,.26,1.47-.05Z"/>
    <path class="cls-5" d="M119.86,152.49l-1.31.93-.03-.42c.12,0,.28-.03.41-.1.17-.09.15-.42.15-.59l.78.18Z"/>
    <path class="cls-4" d="M145.12,149.46l-.04.34c-.12-.17-.54-.31-.61-.64l.65.3Z"/>
    <g>
      <path class="cls-6" d="M102.02,183.79c-.66,0-1.52.92-1.59,1.38l-.71,4.16c-.07.39-.12.65.03.86.12.17.47.39.84.39l18.67.05c.6,0,1.19.48,1.46.75.94.99-.34,2.75-.7,6.16-.1.99-1.31,2.26-2.48,2.26l-30.64-.04c-1.39,0-1.94-1.42-1.68-2.54l7.32-32.34c.39-1.74.8-3.25,2.46-4.16l29.26-.02c.61,0,1.1.19,1.33.47.34.42.38,1.13.24,1.71l-.75,3.19c-.28,1.19-.97,2.93-2.27,3.51l-18.91.15c-.1,1.98-.64,3.5-1.28,5.66l15.91.17c.78,0,2.33-.2,2.66.64.71,1.79-.16,3.69-.65,5.4-.33,1.14-.67,2.17-2.06,2.17l-16.48.04ZM98.15,189.7l1.08-4.74c.27-1.2,1.19-2.01,2.47-2.01l16.74-.08c1.58-2.52,2.42-6.43.68-6.43l-15.37-.02c-.95,0-2.38-.46-2.12-1.59l1.12-4.93c.15-.67.95-1.44,1.67-1.44l17.26-.04c1.05,0,1.76-.71,1.96-1.66l.73-3.53c.16-.78-.56-1.56-1.46-1.56l-27.12.03c-1.03,0-1.63,1.63-1.78,2.35l-.93,4.58c-.61,1.57-.72,3.16-1.09,4.73l-1.29,5.44-1.21,5.52-1.17,4.98-1.51,6.85c-.13.6-.97,2.31.08,2.32l29.97.09c1.21,0,1.84-.96,2.01-1.97l.65-3.87c.09-.55-1.17-.91-1.72-.91l-18.48-.09c-.81,0-1.32-1.38-1.18-2.01Z"/>
      <path class="cls-2" d="M98.15,189.7c-.14.62.37,2,1.18,2.01l18.48.09c.55,0,1.81.35,1.72.91l-.65,3.87c-.17,1.01-.8,1.97-2.01,1.97l-29.97-.09c-1.05,0-.21-1.72-.08-2.32l1.51-6.85,1.17-4.98,1.21-5.52,1.29-5.44c.37-1.58.48-3.17,1.09-4.73l.93-4.58c.15-.72.75-2.34,1.78-2.35l27.12-.03c.9,0,1.62.78,1.46,1.56l-.73,3.53c-.2.96-.91,1.66-1.96,1.66l-17.26.04c-.72,0-1.52.77-1.67,1.44l-1.12,4.93c-.26,1.13,1.16,1.59,2.12,1.59l15.37.02c1.74,0,.9,3.91-.68,6.43l-16.74.08c-1.28,0-2.2.81-2.47,2.01l-1.08,4.74Z"/>
      <g>
        <path class="cls-2" d="M150.85,161.64c-.09.29.05.59.24.61l.75.06c.65.06,1.32.09,1.64-.43.51.22,1.29.07,1.86.09-.12.35.09.73.49.67.17-.03.38-.14.49-.36l.62.02c-.03.88,2.16,1.46,2.61.91l.96.28c-.11.27-.03.59.19.67.17.07.37.07.51.06.68-.03,1.06.63,1.53.88.55.61.57,1.83.86,2.38,2.78,1.07,1.95,6.93.41,10.26-.09.18-.22.43-.24.61-.74-.02-1.28.53-1.34,1.29-.24.17-.4.7-.91.63-.28-.04-.65.07-.94.2s-.45.45-.37.83l-.93.3c-1.03.33-2.62.36-2.97,1.49-.03.11-.25.23-.35.28l-1.82.12-1.88.44c-.27.06-.17.68-.02.79h-1.03s-.33-.39-.33-.39c-.79-.48-2.06.03-2.88.4h-.33s-4.14-.08-4.14-.08c-1.1-.02-2.15-.34-3.29-.02-.33.1-1.2-.08-1.41.29-.16.29-.41.7-.44,1.09-.12-.18-.13-.21-.21-.27-.1-.07-.61.03-.62.13l-.38,2.49c-.02.15-.07.45,0,.57-.61.52-.6,1.46-.72,2.2l-.11.64c-.53.46-.66,1.34-.24,1.91l.03.65c-.8.23-.99,1.52-.74,2.21.08.2.09.47.08.68-.64.32-1.24.96-1.62,1.57h-7.94c-.71-.02-1.12-.56-1.1-1.24l.07-2.28c.47.04.64-.22.85-.6.23-.42-.12-.7-.14-.99-.1-1.28.23-2.59.59-3.81,1.48-.55,1.02-2.89,1.03-2.99l.23-2.53c.54.04.77-.33.91-.85.1-.36-.06-.74-.22-1.04l.53-3.76c1.21-.36,1.49-1.98,1.1-2.96-.14-.37-.09-.9-.05-1.28.25.09.51-.04.56-.24l.15-.64c.26-1.16.64-2.22.62-3.28l-.04-1.6c1.24-.23,1.85-3.33,1.3-4.81-.1-.15-.05-.51-.06-.69l1.71-1.19,15.27-.23,1.61-.15ZM141.6,177.99l4.15.02c1.75,0,3.82-.1,5.21-1.14.35-.26,1.19-.06,1.47-.9.06-.18.67-.08.87-.08.82-.02,1.53-1.15,1.71-2.12.43-2.4-.56-3.98-2.86-4.8-.84-.3-1.72-.89-2.63-.43-.23.11-.6.16-.87.16.04-.1.05-.35-.02-.45-.08-.11-.34-.22-.6-.22l-4.81.14c-.71.02-1.36.96-1.5,1.61l-1.45,6.61c-.21.97.59,1.6,1.34,1.61Z"/>
        <path class="cls-6" d="M166.55,169.68c-.34-.09-.42.32-.12.31h.46s-.07.9-.07.9l-.6.06c-.39-2.31-1.37-4.75-3.5-5.86-.47-.25-.85-.91-1.53-.88-.01-.48-.3-.62-.69-.74l-.96-.28c-.86-.26-1.69-.88-2.61-.91l-.62-.02c-.19-.36-.64-.3-.99-.31-.57-.02-1.35.13-1.86-.09-.85-.36-1.72-.32-2.62-.24l-1.61.15c0-.35-.25-.49-.61-.48l-14.28.11c-1.22,0-2.11.73-2.09,1.79,0,.18-.04.54.06.69-.52,1.78-1.35,2.99-1.3,4.81l.04,1.6c-1.01,1.15-1.16,2.7-1.32,4.16-.04.38-.1.91.05,1.28-.73.84-.96,1.94-1.1,2.96l-.53,3.76c-.71.28-.63,1.22-.69,1.89l-.23,2.53-1.03,2.99c-.36,1.22-.68,2.53-.59,3.81-.61.33-.69.98-.71,1.59l-.07,2.28c-.02.68.39,1.23,1.1,1.23h7.94c.82.02,1.56-.77,1.62-1.55.02-.21,0-.48-.08-.68l.46-.02c.86.52.55,1.37.19,2.08-.32.63-1.07,1.12-1.91,1.12h-8.85c-.51.01-1.27-.29-1.47-.6s-.47-1.04-.35-1.57l7.63-33.56c.25-1.11.54-2.62,1.59-3.19l21.25.11,4.5,1.02,3.38,1.56c1.8.83,2.99,2,3.79,3.62.43.87,1.12,1.56.93,2.56Z"/>
        <path class="cls-6" d="M166.64,174.16c-.9,6.26-9.18,9.88-10.01,9.59l.04-.65,2.21-1c.27-.12.4-.36.39-.52l.93-.3c.57-.18,1.22-.33,1.31-1.02.51.07.67-.46.91-.63.59-.18,1.25-.52,1.34-1.29.02-.18.16-.43.24-.61.33-.03.62-.2.79-.58l1.32-3.02.53.03Z"/>
        <path class="cls-6" d="M147.67,184.72c-.04.22-.26.33-.62.33h-6.68c-2.07.01-1.15,3.35-2.65,6.02l-.37.03c.04-.73.26-1.53-.16-2.16-.08-.12-.03-.42,0-.57.48-.05,1.13-1.43,1.21-2.35.04-.39.28-.8.44-1.09.2-.37,1.08-.2,1.41-.29,1.13-.33,2.19,0,3.29.02l4.14.08Z"/>
        <path class="cls-6" d="M137.74,191.77c.04,1.25-.89,4.98-1.87,4.57-.07-.92.9-1.02.28-2.01l-.03-.65c.61-.42.72-1.2.72-1.89l.9-.02Z"/>
        <path class="cls-6" d="M155.95,183.36v.39c-.76.47-1.62.98-2.52.97l.7-1.24,1.82-.12Z"/>
        <path class="cls-4" d="M136.15,194.34c.62.99-.35,1.09-.28,2.01v.19s-.46.02-.46.02c-.26-.69-.07-1.98.74-2.21Z"/>
        <path class="cls-5" d="M154.14,183.47l-.7,1.24h-1.2c-.14-.12-.25-.74.02-.81l1.88-.44Z"/>
        <path class="cls-3" d="M166.82,170.89c.35.31.46.73.46,1.17,0,.4-.13.73-.53.88l-.26-.39-.27-1.6.6-.06Z"/>
        <path class="cls-5" d="M150.87,184.32v.4s-2.88,0-2.88,0c.81-.37,2.08-.88,2.88-.4Z"/>
        <polygon class="cls-5" points="137.35 191.1 137.72 191.07 137.74 191.77 136.84 191.79 136.36 191.78 136.47 191.14 137.35 191.1"/>
        <path class="cls-6" d="M166.49,172.55l.26.39c.09.14.2.41.14.56h-.78s-.09-.5-.09-.5c-.06-.35.14-.56.46-.46Z"/>
        <path class="cls-5" d="M156.68,183.1l-.04.65c-.17-.06-.47,0-.67,0v-.39c.09-.05.31-.18.34-.28l.38.03Z"/>
        <path class="cls-3" d="M166.9,173.51l-.25.65-.53-.03c.07-.16.04-.46,0-.63h.78Z"/>
        <path class="cls-3" d="M166.89,169.98h-.46c-.29.01-.22-.39.12-.3.19,0,.36.15.34.3Z"/>
        <polygon class="cls-6" points="151.2 184.72 150.88 184.72 150.87 184.32 151.2 184.72"/>
        <path class="cls-5" d="M148.64,168.69l-4.16.03c-.58,0-1.36.2-1.58.62-.18.35-.28.88-.3,1.27-.8,0-1.19,1.74-1.08,3.25l.07.93c-.33-.17-.78.07-.69.44.04.17.16.37.37.51,0,.18-.06.47-.14.63-.3.61.41,1.08.47,1.61-.74,0-1.55-.64-1.34-1.61l1.45-6.61c.14-.66.79-1.59,1.5-1.61l4.81-.14c.26,0,.52.1.6.22.07.1.06.35.02.45Z"/>
        <path class="cls-4" d="M149.25,161.79l-15.27.23-1.71,1.19c-.02-1.07.87-1.78,2.09-1.79l14.28-.11c.36,0,.61.13.61.48Z"/>
        <path class="cls-4" d="M166.22,170.96l.27,1.6c-.32-.1-.53.11-.46.46l.09.49c.03.17.06.48,0,.63l-1.32,3.02c-.17.38-.46.55-.79.58,1.54-3.33,2.37-9.2-.41-10.26-.29-.56-.32-1.77-.86-2.38,2.13,1.11,3.11,3.55,3.5,5.86Z"/>
        <path class="cls-6" d="M148.33,176.72c.1.29-.05.54-.24.59-.26.08-.71.11-1.05.11h-1.06c-.19-.01-.36.27-.23.58l-4.15-.02c-.05-.54-.76-1-.47-1.61,1.94,1.59,4.86.03,7.2.35Z"/>
        <path class="cls-5" d="M153.28,175.89l-.11-.77.28-.31c1.13.01,1.2-2.71.91-3.31-.08-.17-.3-.29-.59-.23l-.32-.32c.12-.44-.03-.86-.38-1.04-.41-.22-.81-.25-1.22-.25h-1.29c-.07-.55-.63-.81-1.05-1.13.91-.46,1.79.13,2.63.43,2.3.83,3.29,2.4,2.86,4.8-.17.97-.89,2.1-1.71,2.12Z"/>
        <path class="cls-6" d="M148.64,168.69c.27,0,.64-.05.87-.16.42.32.98.58,1.05,1.13l-1.61-.29-6.05-.03c.22-.42,1-.61,1.58-.62l4.16-.03Z"/>
        <path class="cls-4" d="M131.02,168.71c-.05-1.82.78-3.03,1.3-4.81.55,1.48-.06,4.58-1.3,4.81Z"/>
        <path class="cls-5" d="M149.58,176.75c.41.2.85.11,1.37.12-1.38,1.03-3.46,1.14-5.21,1.14-.13-.31.04-.59.23-.59h1.06c.34.01.79-.02,1.05-.1.19-.06.34-.3.24-.59.35.05.9-.14,1.26.03Z"/>
        <path class="cls-4" d="M129.74,174.47c.16-1.46.31-3,1.32-4.16.03,1.06-.36,2.12-.62,3.28l-.15.64c-.04.2-.3.33-.56.24Z"/>
        <path class="cls-4" d="M128.68,178.71c.14-1.02.37-2.13,1.1-2.96.39.99.11,2.6-1.1,2.96Z"/>
        <path class="cls-4" d="M138.4,186.02c-.08.92-.73,2.3-1.21,2.35l.38-2.49c.02-.11.52-.2.62-.13.09.06.1.1.21.27Z"/>
        <path class="cls-4" d="M159.27,181.58c0,.16-.11.4-.39.52l-2.21,1-.38-.03c.35-1.13,1.94-1.16,2.97-1.49Z"/>
        <path class="cls-4" d="M137.35,191.1l-.88.04c.13-.74.11-1.68.72-2.2.42.63.2,1.43.16,2.16Z"/>
        <path class="cls-4" d="M153.47,161.88c-.32.53-.98.49-1.64.43l-.75-.06c-.18-.02-.32-.32-.24-.61.9-.08,1.77-.12,2.62.24Z"/>
        <path class="cls-4" d="M126.21,189.88l1.03-2.99c0,.09.44,2.44-1.03,2.99Z"/>
        <path class="cls-4" d="M127.47,184.36c.06-.67-.02-1.62.69-1.89.16.29.32.68.22,1.04-.14.53-.37.89-.91.85Z"/>
        <path class="cls-6" d="M153.28,175.89c-.19,0-.81-.1-.87.08-.27.84-1.12.64-1.47.9-.53,0-.96.08-1.37-.12,1.26-.44,2.44-1.01,3.59-1.63l.11.77Z"/>
        <path class="cls-4" d="M159.55,163.2c-.45.55-2.64-.03-2.61-.91.91.03,1.74.66,2.61.91Z"/>
        <path class="cls-4" d="M136.84,191.79c0,.69-.11,1.47-.72,1.89-.42-.57-.29-1.45.24-1.91h.48Z"/>
        <path class="cls-4" d="M124.91,195.28c.02-.61.1-1.26.71-1.59.02.28.37.57.14.99-.21.39-.38.65-.85.6Z"/>
        <path class="cls-4" d="M163.76,178.35c-.09.77-.75,1.11-1.34,1.29.06-.75.61-1.31,1.34-1.29Z"/>
        <path class="cls-4" d="M161.51,180.27c-.09.69-.74.84-1.31,1.02-.09-.37.07-.7.37-.83s.66-.23.94-.2Z"/>
        <path class="cls-4" d="M156.32,162.27c-.11.21-.32.33-.49.36-.4.07-.61-.31-.49-.67.35,0,.8-.05.99.31Z"/>
        <path class="cls-4" d="M135.49,197.23c-.06.79-.8,1.57-1.62,1.57.37-.61.97-1.25,1.62-1.57Z"/>
        <path class="cls-4" d="M161.2,164.22c-.14,0-.33,0-.51-.06-.21-.08-.29-.41-.19-.67.39.12.68.26.69.74Z"/>
        <path class="cls-6" d="M142.6,170.61c-.04,1.15-.21,2.42-1.08,3.25-.11-1.51.28-3.26,1.08-3.25Z"/>
        <path class="cls-6" d="M141.59,174.79c.03.36.04.78-.32.95-.21-.15-.33-.34-.37-.51-.09-.37.37-.61.69-.44Z"/>
        <path class="cls-6" d="M153.45,174.81c.4-1.15.36-2.35.31-3.54.29-.06.51.06.59.23.29.6.22,3.32-.91,3.31Z"/>
        <path class="cls-6" d="M153.44,170.95l-1.6-1.29c.41,0,.81.03,1.22.25.35.18.51.6.38,1.04Z"/>
      </g>
    </g>
    <g>
      <g>
        <path class="cls-1" d="M138.7,84.43v7.06c.01,1.37-.27,2.62-.61,3.79-.21-.04-.48-.05-.64.22-.1.17.14.31.2.43l.09,1.3c-.34.02-.71.19-.66.53.24,1.56-.61,1.23-.97,2.08-.31.71-1.13.92-2.01.84l-1.07,1.78c-.36.6-.96.9-.99,1.55-.65.23-1.08.89-1.81,1.15l-1.62.57c-1.07.37-1.88,1.13-2.99,1.51-.08.5.35.93.29,1.19l-.18.77c-.08.36,1.35.54,1.42,2.24,1.28.79,2.03,2.13,2.65,3.45.38.81.95,1.31,1.29,2.31.2.59,1.21,1.16,1,2.16s.59,1.63,1,2.36c.61,1.11.03,3.42.8,4.21.69.7,1.4-1.16.87-3.07l.57-4.08.43-2.02,1.95-2.71c.63-2.25,1.78-3,1.53-5.22.5-.48.76-.61,1.24-1.51.56.95.12,1.92-.27,2.93-1.04,2.67.09,5.47-1.18,9.44-.97,3.03-.75,6.34-.19,9.61l1.4,4.27,2.01,3.91,3.08,4.39c1.2,1.72,3.21,3.79,5.13,4.29l2.66,1.93c1.6.24,2.68.32,3.94,1.36l2.29.47c.91.78,1.55.84,2.77.93l5.89.44c2,.15,4.08-.37,6.15-.68l2.16-1.33c.75-.46,1.39-.62,2.19-1.06l3.81-2.14c1.17-.65,2.07-.9,2.99-2l2.26-1.16c.22-1.38,1.31-1.89,2.1-2.77.61-.69,1.51-2.99,2.75-4.64,1.54-2.04,1.64-4.29,2.77-5.47,1.36-1.41,1.35-2.78,1.72-4.56.17-.83.76-2.09,1.12-2.94s1.37-1.23.98-2.61c-.21-.76.3-1.71.76-2.29.92-1.15.57-2.7.9-3.94l1.1-4.1c.39-1.46,1.36-2.99.99-4.63-.29-1.25.7-2.02.84-2.93.2-1.23.52-2.41.62-3.57.15-1.77-.27-3.46.82-5.14.33-.5.23-1.33.1-1.79l-.1-.36c.29.26.69.23.95-.07.33.66.86,1.3,1.61,1.35l.03,8.01c-.13-.04-.39-.06-.48.03-.26.24-.4,2.09.22,2.54l-.06.96c-.21-.01-.5.02-.66.14-.2.15-.32.45-.32.8l.02,2.57v.96c-1.07-.23-.09.92-1.23,2.94-.17.29-.13.7-.11,1.06.02.3.37.51.77.48.76,1.63.05,3.5-.57,5.28-.31.9-.33,2.3-.74,2.97-.17-.02-.57.06-.67.24-.07.13.07.4.26.47v.61c-.16-.04-.49-.01-.58.21s.21.37.3.48l.09.97c-.4.3-.5.8-.42,1.26l-.19.34c-.24,0-.52.09-.64.26-.09.13-.18.41-.17.62.07,1.19-.73,1.86-.97,2.87l-.6,2.55-1.24,2.61c-.88,1.86-1.62,3.75-2.46,5.34-.41.77-1.21,1.54-1.19,2.59-.16.33-.85.73-.84,1.19.02.81-.83,1.76-1.6,1.78-.24,0-.73.03-.94.33l-1.14,1.73c-1.72,2.61-3.98,5.59-6.75,6.88l-2.8,1.3c-2.28,1.06-4.87,2.71-7.21,2.49l-2.61.91c-2.66-.16-5.43.41-8.01-.23-1.68-.41-3.15-.86-4.92-1.2-.88-.17-1.88-.88-2.86-1.31l-3.05-1.35c-.96-.42-1.65-1.2-2.73-1-.28.05-.64-.02-.9-.18-.02-.09.02-.23.04-.32.06-.41-.07-.83-.4-1.09-.25-.2-.6-.37-.91-.29l-.32.08c-.09.02-.22.02-.32,0-.11-.3-.34-.52-.64-.64v-.32c-.01-.12-.22-.33-.33-.34.06-.62-.45-1.08-.99-1.33l-.6-.27-.65-.3-.06-.28c.25.15.62.22.57-.25-.03-.31-.14-.3-.36-.56l-4.95-5.69c-.02-.1-.11-.27-.15-.36l-1.11-2.17c-.34-.66-.94-1.25-.86-2.06.11-1.23-.51-1.81-1.07-2.78l-.26-2.87c-.44-.78-.98-1.36-1.78-2.06-.76,1.2-.85,2.55-.8,3.99.03.88-1.1,1.64-1.17,2.28-.18,1.53-.38,2.53-1.35,3.55-1.45,2.56-1.81,5.14-4.69,6.29-.48,1.17-1.45,1.81-2.73,1.98-.25,2.36-3.03,1.89-4.59,4.15,0,.17.02.5-.15.59-.13.07-.28.09-.41.1-.71-.1-1.85-.29-1.93.63l-.32-.08c-.41-.1-.85.19-.99.6l-.94.14c-.14-.36-.47-.33-.6-.13l-.45.71s-.11-.01-.16-.01c.08-.14-.1-.54-.32-.48-.64.15-.95.68-1.22,1.08-.11-.02-.35.05-.44.13.03-.2-.09-.3-.19-.34-.19-.07-.46.07-.46.18v.46s-.96,0-.96,0c-.12-.39-.54-.31-.8-.35-.54-.09-.92.11-.8.72-.26.05-.61.39-1,.36-.45-.03-.95.15-1.32.38-.47.31-1.04.02-1.47.05-1.18.08-2.28.01-3.47-.79-1.87.31-4.1.66-5.98.03-1.18-.4-2.1-.84-3.46-.72-1.23.11-2.37-.35-3.25-1.17-1.45.14-2.67-.24-3.45-1.44-1.55.18-2.66-.45-3.86-1.26-.69-.8-1.51-1.02-2.44-1.39-1.59-.64-2.9-1.79-4.32-2.73l-.49-.62c-.08-.1-.38.03-.5.19l-.18.02-.4-.26c-.16-.3-.28-.62-.32-.96.05-.38-.37-.38-.32,0h-.33c-.05-.11-.21-.24-.31-.32l.21-.52c.32-.78-.75-1.31-1.49-1.49-.3-.07-.53-.27-.64-.55-.05-1.14-.56-2.18-1.75-2.76l-.41-1.77c-.79-.82-1.5-1.42-2-2.27v-.2s0-2.31,0-2.31c0-.25-.07-.49-.17-.58-.09-.07-.3-.09-.37-.06.17-1.12,1.01-2.39,2.12-2.58.19.71,1.02.08,1.37.14,1.01.18,1.9.19,2.34-.97l2.95-.47c1.69-1.9,4.09-.08,4.63-2.52.18,0,.55.06.69-.05,1.77,1.04,3.21-.48,6-.61.58-.03,1.19-.24,1.61-.6h.3s.34.29.34.29c.08.08.2.31.31.35l-.32-.03c-.7-.02.09.96-.17,2.16-.84.88-1.58,1.96-3.01,2.06-1.36-.15-2.62.26-3.6,1.28-2.07-.35-3.68.51-5.52,1.04-1.7.48-3.72.22-4.84,2-.55.87.13,2.25.86,2.88.45.39.16,1.32.41,1.55l3.26,3.13c1.06,1.01,1.65,1.88,2.92,2.63,1.64.97,4.41,3.96,8.39,5.14,1.32.39,2.52,1.53,4.23,1,.85.96,1.96,1.32,3.19,1l5.1.46,1.18.63c.31.16.8-.5,1.23-.53l8.62-.74,3.08-.94c.65-.2,1.86-.76,2.56-1.09l4.88-2.31c.74-.35,1.95-1.36,2.64-1.96,2.12-1.8,3.62-4.09,5.27-6.27.52-.69.65-1.55,1.29-2.29l.53-2.54c1.28-1.6,1.36-4.62,1.17-7.02l-.27-3.45c-.1-1.2-.53-1.61-.84-2.45-.4-1.1-.71-1.91-1.27-2.92-.6-1.08-.68-2.19-1.66-3.26-.4-.44-.54-1.51-1.44-1.33.02-.19,0-.51.11-.67.66-1.01-.94-1.23-3.02-3.85l-1.79-1.39c-.43-.33-.51-.81-.46-1.29.1-.89,1.28-1.11,1.3-2.11.17,0,.5-.05.64.03.89.51,1.61-.46,2.35-.81.97-.47,1.76-.62,2.64-1.25l1.67-1.2c1.1-.79,2.52-1.19,3-2.5.04-.12.13-.26.22-.37.73.04,1.26-.53,1.27-1.27,0-.08.08-.26-.17-.32,1.35-.21,1.77-1.49,2.3-2.44l1.35-2.45.27-3.61c.61-1.01,1.54-1.98.77-3.05l.03-.69c0-.19.22-.37.22-.51.36.07.71.09,1.02.25Z"/>
        <path class="cls-3" d="M132.58,70.07c-.65-.26-1.69-.65-2.13-1.12-.49-.52-.7-.99-1.66-.91-.34-1.86-4.36-1.58-7.38-1.27-1.33.14-2.38-.05-3.62.61-1.64.88-3.83.33-5.52.9l-3.13,1.06c-1.22.41-2.01,1.06-3.43,1.15-.81.05-1.8.76-2.78.52-1.15,1.9-2.74,3.15-4.84,3.58l-5.02,4.88c-.86.83-1.83,1.49-2.85,1.82-.23-.92-1.55-.7-2.08-1.09-1.14-.84-2.13-1.1-3.47-1.4-1.77-.39-3.48-1.69-5.25-1.19-.45.13-.97.04-1.41-.05.12-.3.62-.4.89-.71l2.84-3.28c.61-1.56,1.93-2.49,3.13-3.56,7.6-6.76,19.43-9.81,29.46-8.36,1.44.21,3.02-.24,4.2,1.07,1.66-.27,3.28.04,4.42,1.24,1.34-.3,2.18.43,3.19.94,1.98.99,4.1,2.41,5.67,4.01.33.34.93.52.75,1.15Z"/>
        <path class="cls-1" d="M108.22,75.25c.21.79,1.32.69,1.91.31l.7-.05c.56.89,2.01,1.32,3.16,1.23.87-.07,1.09.79,1.55,1.02,1.6.81,2.86,1.73,3.16,3.59,1.24.68,1.58,1.99,1.42,3.33,1.07,1.68,1.31,3.63.56,5.41-.91.26-2.01.88-2.74.38l-1.02-.71-.34.13-.32-.31v-.33c.18-.11.31-.3.33-.48.03-.32-.3-.33-.38-.46-.23-.37-.48-1.1-.48-1.54.12,0,.29-.03.38-.1.74-.53-.51-1.86-.69-2.29-1.42-3.35-6.31-4.83-9.2-3.49l-2.38,1.1c-1.03.48-2.05.63-2.92,1.28l-3.07,2.29c-.47.35-.73.7-.8,1.14-.63-.1-1,.38-1.45.77-1.98,1.7-3.32-1.03-5.95-.73-.17-.23-.51-.34-.62-.68-.06-.19-.39-.42-.59-.46-.67-.13-2.86-1.39-5.25-2.27-1.17-.43-2.32-.64-3.3-1.28-.16.14-.35.12-.48.15.17-.29-.01-.5-.23-.47s-.51.07-.75.03c-1.03-.18-1.12-1.34-1.22-2.1-.09-.62,0-1.25.57-1.56.48.36,1.13.31,1.69.26,1.04-.09,1.94.31,2.88.96l3.08.8c.92.24,1.91.71,2.85,1.02.4.13.95,1.05,1.47.76.37,1.21,2.68,2.11,3.76,1.28s2.04-2.04,4.41-2.75l1.97-1.7c1.1-.18,1.46-1.03,2.2-1.38,1.3-.62,4.11,0,4.57-1.92l1.59-.17Z"/>
        <path class="cls-1" d="M95.01,100.97c.22.04.59.08.79,0-.18,1.56.41,3.52-.26,5.09-.45,1.06-1.53,2.22-.76,3.36.07.24,0,.7,0,.96-.39.36-.36,1.01-.09,1.3.31.33,1.3.5,1.68.23,3.02-2.13,5.25.67,7.73.33l1.58-.24c.22,1.23,1.19,1.3,2.24,1.68,1.31.48,2.52,1.9,3.73,2.74,1.12.78,1.74,3.71,2.61,4.74s.14,3,.58,4.14.87,1.76.01,2.94l-.6,3.08c-.16.81-.79,1.12-1,2.05-.12.5-1.38.82-1.85.54-.6-.36-.95-.75-1.58-.87.17-.68-.29-1.48.08-2.21l.64-1.24c.17-.34.27-.63.3-1.02.2.1.2.32.56.72l.51-2.87c-.24-1.26-.58-2.37-.72-3.7-.13-1.26-1.4-2.32-1.92-3.36-1.24-2.5-4.38-3.92-7.1-3.88l-4.09.06c-1.52.02-2.77.37-4.16.12-1.15-.21-2.68.17-3.57-.76-.65-2.59,1.88-4.72.41-5.91l-.04-2.16c-.01-.57.36-.72.41-.95,1-.55,1.05-1.78,1.34-2.91l.53-2.17c.69-.04,1.36.01,2.04.13Z"/>
        <path class="cls-4" d="M131,70.69c.34-.04.63-.02.99.07.38.1.61.38.6.83-.68.11-.99.78-1.27,1.34h-.91c-.13-.01-.31-.06-.49,0-.21.07-.26.37-.14.59l-.35-.03c-.3-.02-.64.1-.84.35-.13.17-.18.44-.17.66-.97,0-1.2,1.36-2.54,1.28,0-.18-.09-.28-.19-.33-.18-.09-.41.07-.43.19,0,.1,0,.35-.12.44l-.48.34c-.85.02-1.38.28-1.82.91-.54.76-1.52,1.29-2.34,1.69-.54-.17-1.28.04-1.38.63s.86,1.75,1.52,1.5,1.72-.61,2.16-1.02c1.32-1.21,2.62-1.58,4.04-2.45l2.9-1.79c.76-.47,1.17-.64,1.89-1.14s1.89-.33,2.57-1.4c.56.57.48.99.43,1.59-.08,1.06-2.65,1.65-4.67,2.04-.31.75-.64,1.71-1.55,2.37l-3.2,2.35c-1.07.31-1.42.4-2.27,1.21-.37.35-1.46.37-1.55,1.11-.08.69-.18,1.41.25,1.98-.13.08-.23.84.1.94.69.2,1.25-.72,1.22-1.25.18-.04.5-.03.66.01.06.07.13.24.22.28.24.12.36-.04.37-.16l.04-.52c.03-.38.87-.62,1.25-.84l1.43-.82c2.24-1.27,4.5-2.07,4.38-3.07l.62.03c.13.13.29.23.43.2.12-.02.42-.16.46-.25.32-.86,1.31-.79,1.78-1.13.77-.57,1.3-.73,2.08-.65.12-.25.62-.43.65-.13l.06.61.03,2.91c-1.14.35-2.59,1-2.95,2.24-.4-.04-.84.1-1.22.29-.48.23-1.59.44-1.91.95-.73,1.16-2.02.77-3.98,2.48-1.33,1.16-2.81,1.69-4.19,2.61s-2.51,1.67-3.97,2.5c-.75.43-1.32,1.74-2.62.97-.72-.43,1.06-.87,1.05-1.94,0-.4-.1-.89-.69-.84v-.6s-.04-1.09-.04-1.09l1.02.71c.73.5,1.82-.12,2.74-.38.75-1.78.51-3.72-.56-5.41.17-1.34-.17-2.64-1.42-3.33-.3-1.87-1.56-2.78-3.16-3.59-.46-.23-.69-1.09-1.55-1.02-1.15.09-2.6-.34-3.16-1.23,2.55-.2,3.08.69,4.98.76l.32,1.15c.09.33.97.65,1.45.39l5.02-2.73,3.49-1.97,3.37-1.78c.57-.3.95-.72,1.55-.64Z"/>
        <path class="cls-6" d="M132.58,70.07c.13.05.24.17.32.27.16.6.22,1.71.64,2.27,1.05.67,1.88,1.41,2.21,2.67l.8,3.04-1.15-.23-.95.77c-1.31.04-2.08.59-2.46,1.77l-.62-.03c-.51-.03-2.33,1.16-3.74,2.04-.82.52-2.16.59-2.07,1.85-.37.21-1.21.45-1.25.84-.26,0-.62.09-.64.39-.16-.04-.49-.05-.66-.01l-1.32.3c-.43-.57-.33-1.29-.25-1.98.09-.74,1.17-.76,1.55-1.11.85-.81,1.2-.9,2.27-1.21l3.2-2.35c.9-.66,1.23-1.62,1.55-2.37,2.02-.39,4.59-.98,4.67-2.04.04-.6.13-1.02-.43-1.59-.68,1.06-1.87.91-2.57,1.4s-1.13.67-1.89,1.14l-2.9,1.79c-1.41.87-2.72,1.25-4.04,2.45-.44.4-1.51.77-2.16,1.02s-1.61-.92-1.52-1.5c.58.14,1.24,0,1.38-.63.82-.39,1.8-.93,2.34-1.69.77,0,1.62-.15,1.82-.91l.48-.34c.27.02.54-.22.73-.3,1.34.08,1.56-1.28,2.54-1.28.23,0,.5-.02.7-.14.29-.18.36-.57.31-.87l.35.03c.12,0,.3.02.41-.04.19-.1.26-.35.23-.56h.91c.41.46.84.09,1.01-.19.24-.39.26-.8.26-1.14,0-.45-.22-.73-.6-.83-.36-.09-.65-.12-.99-.07.02-.2-.09-.51-.24-.6-.4-.24-1.93.67-1.71-.02.21-.63.95-.73,1.39-1.12.44.46,1.49.86,2.13,1.12Z"/>
        <path class="cls-3" d="M109.56,130.87h.32c-.37.71.09,1.52-.08,2.2l-.37,1.53c-.29.22-.81.72-1.09,1.17-.97-.12-1.78.67-2.33,1.19-2.29.47-4.64.11-7.05.16-1.73.04-3.57.28-5.14-.49-.45-.22-.63-1.21-1.66-.96-1.77.44-2.55-2.59-4.94-4.22l-.06-2.19c0-.28-.06-.67.04-.93.31-.77-.04-1.54-.42-2.26l.32.03c1.14.48.33,2.3.63,3.21,1.25,3.84,6.18,6.83,10.57,7.15.7.05,1.38.55,2.19.35l4.26-1.05c5.62-1.39,4.16-4.27,4.3-4.55.08-.15.31-.28.48-.33Z"/>
        <path class="cls-4" d="M104.17,157.04l-.09.44c-.33.52-.96.81-1.61.35-.44-.31-.99-.66-1.59-.66h-6.99c-2.15-1.46-4.92-.38-6.85-2.24-1.33.26-2.02-.53-2.97-1.11l-2.69-.56-2.75-1.95c-1.59-.53-2.72-1.02-3.96-2.28-.58-.6-1.48-.99-1.72-1.88.12-.16.42-.29.5-.19l.49.62c1.42.94,2.73,2.09,4.32,2.73.93.37,1.74.59,2.44,1.39,1.2.81,2.3,1.43,3.86,1.26.78,1.2,2,1.58,3.45,1.44.89.81,2.02,1.28,3.25,1.17,1.36-.13,2.28.32,3.46.72,1.88.64,4.11.28,5.98-.03,1.19.8,2.29.87,3.47.79Z"/>
        <path class="cls-3" d="M116.97,91.44c-.05,2.73-3.46,5.1-6.41,6.47-1.21.56-2.96.08-3.91,1.34h-4.77s-2.63.26-2.63.26c-1.23.13-2.39.45-3.74.08-.39,0-.73,1.11-.51,1.38-.67-.12-1.35-.17-2.04-.13l-.4.04c.54-.59,1.42-1.62,2.32-1.9l6.3-.18,5.44-.81c3.55.1,9.63-3.45,9.92-7.16h.43s-.01.6-.01.6Z"/>
        <path class="cls-2" d="M126.53,108.56l.64.21c.08.03.23.02.34-.01l.05,1.27c.05.83.69,1.71,1.48,1.65l.41-.03c.49,1.79,1.21,3.62,2.88,4.77.1,1.9.34,3.63,1.31,3.56l.7,4.6.42-1.74c.54,1.91-.18,3.77-.87,3.07-.77-.79-.19-3.1-.8-4.21-.41-.73-1.21-1.34-1-2.36s-.8-1.57-1-2.16c-.34-1-.91-1.51-1.29-2.31-.62-1.32-1.37-2.66-2.65-3.45-.08-1.7-1.51-1.88-1.42-2.24l.18-.77.62.15Z"/>
        <path class="cls-4" d="M139.51,142.02c-1.85-.91-2.43-2.94-2.95-4.93-.32-1.23-1.15-2.13-.68-3.7.11-.36-.2-.87-.37-1.08-1.13-1.43-.99,2.33-1.77,3.25-.4.48-1.06.91-.84,1.7.42,1.47-.75,2.23-1.17,3.17l-1.2,2.67c-.88,1.96-2.29,2.98-3.86,4.37-.69.61-1.33,1.36-2.55,1.11.02,2.38-1.47,1.94-4.26,3.92l-.78-.18c1.57-2.26,4.35-1.78,4.59-4.15,1.28-.17,2.25-.81,2.73-1.98,2.88-1.15,3.24-3.73,4.69-6.29.98-1.02,1.18-2.02,1.35-3.55.07-.64,1.21-1.4,1.17-2.28-.06-1.44.04-2.79.8-3.99.8.7,1.34,1.28,1.78,2.06l.26,2.87c.56.97,1.18,1.55,1.07,2.78-.08.82.52,1.4.86,2.06l1.11,2.17Z"/>
        <path class="cls-4" d="M115.74,86.75c0-.75-2.27-5.3-4.22-4.57-.76-1.19-2.06-1.65-3.32-.96-.93-.15-1.73.12-2.24.92l-2.02.14c-.24,1.3-1.59.91-2.2,1.35l-4.64,3.33-.05-.29c.07-.44.33-.79.8-1.14l3.07-2.29c.87-.65,1.89-.8,2.92-1.28l2.38-1.1c2.9-1.34,7.79.14,9.2,3.49.18.44,1.43,1.77.69,2.29-.1.07-.26.1-.38.1Z"/>
        <path class="cls-4" d="M110.82,128.59c.19-2.34.26-5-1.14-7.14l-1.65-2.52c-.99-1.52-4.89-2.7-5.84-2.7l-.03-.71c2.72-.04,5.86,1.37,7.1,3.88.52,1.04,1.79,2.1,1.92,3.36.14,1.33.48,2.44.72,3.7l-.51,2.87c-.36-.39-.36-.62-.56-.72Z"/>
        <path class="cls-5" d="M77.86,126.72c-.54,2.43-2.94.62-4.63,2.52l-2.95.47c-.43,1.15-1.32,1.14-2.34.97-.35-.06-1.18.57-1.37-.14.56-.1.81-.58,1.36-.95l1.45.3c.23-.49.48-.9.76-1.1.38-.27.9.04,1.31.1.94.14,1.54-.94,2.3-1.06l2.25-.33c.68-.1,1.28-.77,1.86-.77Z"/>
        <path class="cls-3" d="M136.69,78.3h-.14s-.8-3.03-.8-3.03c-.33-1.26-1.16-2-2.21-2.67-.42-.56-.48-1.67-.64-2.27.56-.02.8.3,1.14.83l2.22,3.46c.55.85.48,1.84,1.32,2.63.25.23.26,1.06-.02,1.15-.23.07-.68-.13-.88-.11Z"/>
        <path class="cls-4" d="M88.44,85.57l-.07.45c-.92.39-1.89-.74-2.7-.97-2.61-.75-6.12-1.68-5.78-3.03.99.64,2.14.85,3.3,1.28,2.38.88,4.58,2.14,5.25,2.27Z"/>
        <path class="cls-5" d="M130.35,111.65l-.1.37c.02.95.98,1.53,1.34,2.34-.01.06,0,.16.03.22.07.14.21.25.34.31,1.01.93,1.06,2.24,1.34,3.51l.35,1.6c-.97.07-1.21-1.66-1.31-3.56-1.67-1.15-2.39-2.98-2.88-4.77h.9Z"/>
        <path class="cls-4" d="M69.18,143.06h-.33c-.05-.11-.22-.24-.32-.31.15-.47,0-.74-.3-.99l-1.85-1.55c-.14-1.13-.29-1.9-1.61-2.15l.25-1.8c.5.85,1.22,1.45,2,2.27l.41,1.77c1.19.58,1.7,1.62,1.75,2.76Z"/>
        <path class="cls-5" d="M126.54,107.83v.73s-.63-.15-.63-.15c.06-.26-.36-.69-.29-1.19,1.11-.37,1.92-1.13,2.99-1.51l1.62-.57c.74-.26,1.16-.92,1.81-1.15.06-.02.14,0,.29.06l-1.58,1.89c-1.24-.3-1.7.44-2.57,1.02-.41.27-1.63.07-1.64.86Z"/>
        <path class="cls-4" d="M136.49,99.83c-.1.47-.17,1.24-.51,1.61s-1.19.26-1.64.39c-.29,1.09-1.43,1.55-2.01,2.24-.15-.06-.23-.08-.29-.06.03-.65.63-.96.99-1.55l1.07-1.78c.88.08,1.7-.13,2.01-.84h.38Z"/>
        <path class="cls-6" d="M135.33,118.77l-.57,4.08-.42,1.74-.7-4.6-.35-1.6c1.09.15.92,1.46,1.02,2.58.54-.93.11-2.06.26-3.1.05-.18.3-.2.38-.12l-.09.51c-.04.24.1.51.47.51Z"/>
        <path class="cls-5" d="M137.75,97.22l-.09-1.3c.41-.05.36-.4.44-.65.34-1.16.62-2.41.62-3.79v-7.06s-.03-.67-.03-.67h.37s-.08,11.22-.08,11.22c-.14.8-.88,1.66-1.22,2.24Z"/>
        <path class="cls-5" d="M97.05,86.67l.05.29c-.94.67-1.29,1.68-2.49,1.7-1.37.03-2.12-.33-3.2-1.21-.45-.36-1.4-.27-1.76-.75,2.63-.3,3.97,2.43,5.95.73.45-.39.82-.87,1.45-.77Z"/>
        <path class="cls-5" d="M90.32,114.94c-.07-.07-.31-.09-.44-.09l.05-2.85c.02-1.16.01-2.14.8-2.96,1.46,1.18-1.06,3.31-.41,5.91Z"/>
        <path class="cls-6" d="M102.15,115.51l.03.71h-8.33s.04-.53.04-.53c1.39.25,2.65-.1,4.16-.12l4.09-.06Z"/>
        <path class="cls-3" d="M139.05,83.75h-.37c-.01-.31-.39-.52-.51-.74-.19-.34-.33-.66-.71-.82l-.03-2.91c.75.06.69,1.09.9,1.61.47,1.14.73,1.83.72,2.86Z"/>
        <path class="cls-5" d="M136.55,78.31h.14s.03.48.03.48c-.78-.08-1.31.08-2.08.65-.47.35-1.46.28-1.78,1.13-.04.09-.33.23-.46.25-.14.03-.29-.07-.43-.2.38-1.18,1.16-1.73,2.46-1.77l.95-.77,1.15.23Z"/>
        <path class="cls-4" d="M92.97,100.84l-.53,2.17c-.29,1.13-.34,2.36-1.34,2.91l.4-1.69c.29-1.22.23-2.43,1.06-3.34l.4-.04Z"/>
        <path class="cls-4" d="M90.32,114.94c.89.92,2.42.55,3.57.76l-.04.54c-1.47,0-4.13.55-3.97-1.38.13,0,.37.02.44.09Z"/>
        <path class="cls-4" d="M84.51,125.66l.04.41c-2.79.13-4.22,1.65-6,.61l2.09-.37c1.18-.57,2.82-.65,3.86-.65Z"/>
        <path class="cls-4" d="M77.2,79.62c.11.76.2,1.92,1.22,2.1.25.04.53,0,.75-.03s.4.18.23.47c-.55.15-1.36.39-1.86-.02-.32-.26-.48-.74-.66-1.24-.11-.3-.38-.53-.65-.65-.03-.17-.05-.44-.01-.62h.98Z"/>
        <path class="cls-3" d="M130.35,111.65h-.9s-.41.04-.41.04c-.02-.83-.68-1.45-1.48-1.65l-.05-1.27c1.02.86,2.06,1.8,2.84,2.88Z"/>
        <path class="cls-4" d="M71.3,145.11l-.55-.11c-.63-.23-.91-.4-.85-.97.01-.12-.06-.31-.09-.41.74.18,1.81.71,1.49,1.49Z"/>
        <path class="cls-5" d="M77.73,77.63l.03.43c-.56.31-.65.94-.57,1.56h-.98c.16-.81.69-1.81,1.51-1.99Z"/>
        <path class="cls-4" d="M113.14,154.85c-.14.35-.37.64-.7.75l-.85-.15c.27-.4.59-.93,1.22-1.08.22-.05.4.34.32.48Z"/>
        <path class="cls-4" d="M118.52,153l.03.42c-.48.34-1.24.39-1.96.21.08-.91,1.22-.73,1.93-.63Z"/>
        <path class="cls-2" d="M137.75,97.22c.33,1.17-.41,2.09-1.25,2.61h-.38c.36-.85,1.21-.52.97-2.08-.05-.33.32-.5.66-.53Z"/>
        <path class="cls-4" d="M106.96,156.61l.03.59c-.4.07-.8.3-1.29.3l-.05-.5c.36-.24.87-.42,1.32-.38Z"/>
        <path class="cls-4" d="M79.43,77.62l.02.7c-.56.05-1.21.1-1.69-.26l-.03-.43.29-.06c.44.09.96.18,1.41.05Z"/>
        <path class="cls-4" d="M116.27,153.55v.41c-.13.44-.52.65-.96.65l-.03-.46c.14-.41.57-.7.99-.6Z"/>
        <path class="cls-3" d="M131.58,114.35c-.36-.81-1.32-1.38-1.34-2.34,1,.29,1.54,1.33,1.34,2.34Z"/>
        <path class="cls-4" d="M114.35,154.28v.32c-.26.29-.67.38-1.05.26l.45-.71c.12-.2.46-.22.6.13Z"/>
        <path class="cls-3" d="M86.16,125.47c-.42.36-1.03.58-1.61.6l-.04-.41c.44,0,1.2-.42,1.65-.19Z"/>
        <path class="cls-5" d="M116.27,89.56c0,.2.14.38.32.31l.34-.13.05,1.09h-.43c-.27-.43-.74-1.12-.28-1.61v.33Z"/>
        <path class="cls-4" d="M109.88,130.86h-.32c-.13-.64.31-1.15.96-1.24l-.64,1.24Z"/>
        <path class="cls-5" d="M72.06,145.95c.04.34.16.66.32.96-.4-.22-.76-.53-.97-.96h.33s.32,0,.32,0Z"/>
        <polygon class="cls-5" points="115.29 154.15 115.31 154.6 114.35 154.6 114.35 154.28 115.29 154.15"/>
        <path class="cls-5" d="M68.53,142.75c-.3-.23-.39-.6-.3-.99.31.26.45.52.3.99Z"/>
        <path class="cls-4" d="M116.27,89.23c.04-.24-.02-.67-.06-.94.08.13.41.14.38.46-.02.18-.15.37-.33.48Z"/>
        <path class="cls-5" d="M89.03,86.03c-.15,0-.48-.08-.66,0l.07-.45c.21.04.53.27.59.46Z"/>
        <path class="cls-5" d="M71.1,145.63c-.19-.15-.24-.48-.34-.64l.55.11-.21.52Z"/>
        <path class="cls-3" d="M127.17,108.78l-.64-.21v-.73c.32.23.53.57.64.95Z"/>
        <path class="cls-5" d="M69.81,143.62c.04.1.11.29.09.41-.49-.14-.85-.5-1.06-.96h.33c.11.28.34.48.64.55Z"/>
        <path class="cls-5" d="M116.27,153.96v-.41s.32.08.32.08c-.04.1-.21.26-.32.33Z"/>
        <path class="cls-3" d="M131.95,114.88c-.13-.06-.27-.17-.34-.31.15.07.24.21.34.31Z"/>
        <path class="cls-4" d="M72.78,147.17c-.19.03-.3-.18-.4-.26l.4.26Z"/>
        <path class="cls-4" d="M123.03,111.92c-1.42.41-2.39,1.37-3.51,2.33l-4.15,3.57c-.66.57-.54,1.81-.01,2.56,1.88-.72,3.22-2.12,4.8-3.2.67-.46,4.65-1.78,4.32-3.95h.58c-.11.17-.09.49-.11.68-.21,1.75.7,1.76.99,2.9-.82-.45-1.2.68-1.64.86-1.28.52-2.35,1.07-2.15,2.54.04.3.53.61.74.67.34.09,2.46-1.72,3.33-3.21.33-.14,1.01.26.93.68-.21,1.26.78,1.86,1.04,2.77.36,1.27.94,2.43,1.15,3.67.43,2.48.63,5.17-.08,7.54-.24.78-1.24,1.35-.94,2.5.24.91-.63,1.64-.92,2.26-.43.96-.61,1.58-1.26,2.34l-1.18,1.4-2.48,2.89c-.75.87-1.61,1.29-2.26,1.95-.78.79-1.24.77-2.2,1.23-1.87.9-4.07,2.3-5.36,2.61-.55.13-1.07,1.31-2.18,1-1.78-.5-3.47.52-5.09.75-3.79.53-7.49.74-11.23.08-1.45-.26-2.87-1.19-4.46-.91-1.22.21-2.1-.92-2.89-1.08-1.25-.24-1.73-.48-2.65-1.15-1.12-.82-3.4-.94-4.6-2.48s-3.28-2.5-4.68-4.01l-3.16-3.4c-.47-1.25-.3-2.3-1.87-3.32,1.63-.3,1.94-.55,2.82-1.29.74-.62,2.58.1,3.4-.41.86-.54,1.47-1.23,2.68-.97,1.35.29,2.22-.55,3.24-1.01,1.24-.55,2.97,0,4.03-.81.19-.56.38-1.41,1.11-1.24l.06,2.19c2.39,1.63,3.17,4.65,4.94,4.22,1.03-.25,1.21.74,1.66.96,1.58.77,3.41.53,5.14.49,2.41-.05,4.76.31,7.05-.16.54-.52,1.36-1.31,2.33-1.19.28-.46.8-.95,1.09-1.17.34.39.57.88,1.02,1.08.34.15.98-.55,1.34-.6,1.46-.23,1.94-.82,2.56-1.99.46-.86,1.27-1.62.91-2.85-.31-1.08.42-1.65.85-2.43.29-1.02.35-3.09-.06-4.05l-.99-2.3c-.55-1.29-1.14-2.21-1.42-3.71-.11-.61-1.11-1.24-1.03-1.89.28-.01.57.02.92-.05.23-.05.31-.48.09-.71l.47-.14c.55-.16,1.17-.05,1.82-.32.41-.17.61-.88.64-1.43.41-.22.93-.55,1.24-.92.27.06.52.08.83-.02.18-.06.33-.35.24-.63l.95-.54c.42-.24.9-.38,1.34-.71.39.59,1.26,1.16,1.87,1.55Z"/>
        <path class="cls-2" d="M86.62,128.24c.21.1.42.09.59.1-.1.26-.05.65-.04.93-.74-.17-.93.68-1.11,1.24-1.06.81-2.8.25-4.03.81-1.02.46-1.9,1.3-3.24,1.01-1.2-.26-1.82.44-2.68.97s-2.65-.21-3.4.41c-.88.74-1.19.99-2.82,1.29,1.57,1.03,1.4,2.08,1.87,3.32l3.16,3.4c1.4,1.51,3.44,2.42,4.68,4.01s3.48,1.66,4.6,2.48c.91.67,1.4.91,2.65,1.15.79.15,1.68,1.29,2.89,1.08,1.59-.28,3.01.65,4.46.91,3.74.66,7.44.45,11.23-.08,1.62-.23,3.3-1.25,5.09-.75,1.11.31,1.63-.87,2.18-1,1.29-.31,3.49-1.71,5.36-2.61.95-.46,1.41-.44,2.2-1.23.64-.65,1.51-1.07,2.26-1.95l2.48-2.89,1.18-1.4c.65-.76.83-1.39,1.26-2.34.28-.62,1.15-1.35.92-2.26-.3-1.15.71-1.72.94-2.5.71-2.37.5-5.06.08-7.54-.21-1.24-.79-2.4-1.15-3.67-.26-.92-1.25-1.52-1.04-2.77.07-.43-.6-.82-.93-.68.16-.39-.21-.63-.28-.87-.29-1.14-1.19-1.15-.99-2.9.9-.18,1.03.89,1.44,1.33.98,1.07,1.05,2.18,1.66,3.26.57,1.01.88,1.82,1.27,2.92.3.84.74,1.25.84,2.45l.27,3.45c.19,2.4.12,5.43-1.17,7.02l-.53,2.54c-.64.74-.77,1.61-1.29,2.29-1.65,2.18-3.16,4.47-5.27,6.27-.7.59-1.9,1.6-2.64,1.96l-4.88,2.31c-.7.33-1.91.89-2.56,1.09l-3.08.94-8.62.74c-.43.04-.92.7-1.23.53l-1.18-.63-5.1-.46c-1.23.32-2.34-.04-3.19-1-1.71.52-2.91-.61-4.23-1-3.98-1.18-6.75-4.17-8.39-5.14-1.26-.75-1.86-1.61-2.92-2.63l-3.26-3.13c-.24-.23.05-1.17-.41-1.55-.73-.63-1.41-2.01-.86-2.88,1.12-1.78,3.14-1.51,4.84-2,1.84-.52,3.45-1.38,5.52-1.04.99-1.03,2.24-1.43,3.6-1.28,1.43-.1,2.17-1.18,3.01-2.06Z"/>
        <path class="cls-5" d="M134.26,94.65c-.64.58-1.5,1.44-1.53,2.28.25.06.18.24.17.32-.71,0-1.22.58-1.27,1.27-.09.11-.18.25-.22.37-.96-.11-1.53.82-2.29,1.24-.94.52-1.56.83-2.36,1.57-.95.88-3.55,1.11-5.02,2.96-.14-.08-.48-.03-.64-.03-.4,0-.72.19-1.09.53l-1.48,1.39c-.11-.16-.28-.77-.51-.78-.59-.03-1.04,1.47-1.78.97-.42-.28-.32-.62-.18-.99.45-1.19,1.73-1.1,2.46-1.7,1.87-1.55,3.61-3,5.82-3.87.44-.17,1.29-.91,1.54-1.34.46-.81,1.33-.77,2.24-1.02,2.79-.79,5.31-4.64,6.15-3.15Z"/>
        <path class="cls-6" d="M137.69,83.55v.63c-.02.14-.23.32-.24.51-1.24-.02-2.08,1.01-3.23,1.67-.44.25-1.07.31-.94.92l-.43-.08c-2.38.99-4.64,3.36-4.91,3.31s-.92-.04-1.12-.31c.27-1.4,2.56-2.48,4.39-3.4.4-.2.64-1.07,1.46-1.09.44,0,.72-.67.61-.99.39-.18.82-.33,1.22-.29,1.32.14,1.39-1.55,3.2-.88Z"/>
        <path class="cls-2" d="M121.1,104.61c-.01,1-1.2,1.21-1.3,2.11-.05.48.03.96.46,1.29l1.79,1.39c2.08,2.62,3.68,2.84,3.02,3.85h-.58c-.13-.83-.9-.97-1.46-1.32-.61-.38-1.48-.96-1.87-1.55-.23-.67-.73-1.33-1.39-1.56-.18-.07-.48-.27-.61-.4-.21-.22-.44-.62-.58-.92-.12-.26-.06-.67-.05-.96l1.48-1.39c.37-.34.68-.54,1.09-.53Z"/>
        <path class="cls-2" d="M131.4,98.88c-.47,1.31-1.89,1.71-3,2.5l-1.67,1.2c-.88.63-1.67.78-2.64,1.25-.74.36-1.46,1.32-2.35.81,1.47-1.85,4.07-2.08,5.02-2.96.79-.73,1.41-1.05,2.36-1.57.75-.42,1.33-1.35,2.29-1.24Z"/>
        <path class="cls-2" d="M135.02,94.49c-.18-.06-.37-.1-.47-.06l.3-1.95c.56.02.92-.4.95-1.05l.24-4.19c.42-.41,1.17-.89,1.11-1.49-.01-.11.18-.29.27-.36.76,1.07-.16,2.04-.77,3.05l-.27,3.61-1.35,2.45Z"/>
        <path class="cls-5" d="M137.46,84.69l-.03.69c-.09.07-.28.25-.27.36-1.39.07-2.57,1.79-3.87,1.54-.12-.61.51-.67.94-.92,1.14-.66,1.98-1.69,3.23-1.67Z"/>
        <path class="cls-4" d="M132.73,96.92c.03-.84.89-1.7,1.53-2.28.09-.08.2-.19.29-.22.1-.04.29,0,.47.06-.52.95-.95,2.22-2.3,2.44Z"/>
        <path class="cls-4" d="M87.2,128.34c-.16,0-.38,0-.59-.1.26-1.2-.53-2.18.17-2.16.38.72.73,1.49.42,2.26Z"/>
        <path class="cls-2" d="M132.9,97.24c-.01.73-.53,1.31-1.27,1.27.05-.69.56-1.27,1.27-1.27Z"/>
        <path class="cls-4" d="M109.55,155.88c-.43.45-1.06.31-1.6.37-.12-.61.26-.81.8-.72.26.04.67-.04.8.35Z"/>
        <path class="cls-2" d="M138.68,83.76l.02.67c-.31-.16-.66-.18-1.02-.25v-.63c.09-.17.33-.39.49-.54.12.22.5.43.51.75Z"/>
        <path class="cls-4" d="M111.15,155.57c-.18.15-.39.31-.65.31v-.46c0-.11.26-.26.46-.18.11.04.22.14.19.34Z"/>
        <path class="cls-2" d="M138.1,95.28c-.07.25-.03.6-.44.65-.06-.12-.3-.26-.2-.43.16-.27.43-.26.64-.22Z"/>
        <path class="cls-4" d="M72.06,145.95h-.32c-.05-.38.37-.38.32,0Z"/>
        <path class="cls-6" d="M128.79,68.04c-.72.06-1.15.28-1.9.75l-2.86,1.75c-.96.59-1.57,1.21-2.84,1.63-.63.21-1.34,1.43-2.37.34.69-.23,1.1-1.29,1.6-1.53,1.03-.5,2.05-.79,3.01-1.53s1.75-1.16,3.15-1.72c-2.06-1.41-3.64-.14-5.21,1.02-.92.68-2.82.6-3.49,1.9-.37.71-1.1.88-1.56,1.3-.84.77-1.5.73-2.42,1.22l-2.32,1.24c-.39.21-.65,1.04-1.42.78-.54-.18-1.35.01-1.94.08l-1.59.17c-.73.08-1.46.14-2.19.4-.65-.19-1.55-.17-1.67.61-.91.04-1.6.43-2.25,1.27l-1.41.47c-1.02.81-1.9,1.83-3.16,2.25s-2.09,1.62-3.15,2.25c-.77.46-1.89-.49-2.38-.77l-.18-.6c1.02-.34,1.99-.99,2.85-1.82l5.02-4.88c2.09-.43,3.69-1.68,4.84-3.58.98.24,1.97-.47,2.78-.52,1.43-.09,2.21-.74,3.43-1.15l3.13-1.06c1.69-.57,3.88-.02,5.52-.9,1.24-.66,2.29-.47,3.62-.61,3.01-.32,7.04-.59,7.38,1.27ZM105.72,72.92l2.19-1.64c-1.68-1.34-5.69,2.1-5.41,2.73.14.32.61.46.93.18.71-.59,1.61-.77,2.29-1.28Z"/>
        <path class="cls-5" d="M128.79,68.04c.96-.08,1.17.39,1.66.91-.44.39-1.19.49-1.39,1.12-.23.69,1.31-.21,1.71.02.15.09.26.4.24.6-.6-.08-.98.34-1.55.64l-3.37,1.78-3.49,1.97-5.02,2.73c-.47.26-1.35-.06-1.45-.39l-.32-1.15c-1.9-.07-2.43-.96-4.98-.76l-.7.05.03-.39c.77.26,1.03-.57,1.42-.78l2.32-1.24c.92-.49,1.58-.45,2.42-1.22.46-.42,1.2-.59,1.56-1.3.67-1.3,2.57-1.22,3.49-1.9,1.57-1.16,3.16-2.43,5.21-1.02-1.41.56-2.23,1.02-3.15,1.72s-1.98,1.03-3.01,1.53c-.5.24-.91,1.31-1.6,1.53,1.03,1.09,1.73-.13,2.37-.34,1.27-.41,1.88-1.04,2.84-1.63l2.86-1.75c.76-.46,1.18-.68,1.9-.75ZM117.09,74.57l1.4-.79c-1.26-1.82-4.13,1-3.86,1.36.59.77,1.69-.14,2.45-.57Z"/>
        <path class="cls-5" d="M90.23,81.29l.18.6c-.19-.03-.54-.1-.69-.02-.52.29-1.07-.63-1.47-.76-.94-.31-1.92-.78-2.85-1.02l-3.08-.8c-.94-.65-1.84-1.06-2.88-.96l-.02-.7c1.77-.5,3.48.79,5.25,1.19,1.34.3,2.33.56,3.47,1.4.52.38,1.85.16,2.08,1.09Z"/>
        <path class="cls-4" d="M106.63,75.41c-.46,1.92-3.27,1.3-4.57,1.92-.74.35-1.1,1.2-2.2,1.38l-1.97,1.7c-2.37.7-3.35,1.94-4.41,2.75s-3.39-.07-3.76-1.28c.14-.08.5,0,.69.02.49.28,1.61,1.23,2.38.77,1.06-.64,1.86-1.82,3.15-2.25s2.14-1.45,3.16-2.25l1.41-.47c.64-.84,1.33-1.23,2.25-1.27l1.16.02c.26,0,.63-.18.51-.63.73-.26,1.46-.32,2.19-.4Z"/>
        <path class="cls-4" d="M110.15,75.17l-.03.39c-.58.38-1.69.48-1.91-.31.58-.06,1.4-.25,1.94-.08Z"/>
        <path class="cls-4" d="M116.59,89.88c-.18.07-.32-.11-.32-.31l.32.31Z"/>
        <path class="cls-4" d="M106.65,99.25l1.97.5c-.91,1.28-2.23,1.48-3.26,2.29l-1.98,1.56c-2.82,1.83-5.7,3.58-8.05,6.15-.36.39.73,1.02,1.02.66.02.45-.33.69-.71.58-.35-.1-.64-.33-.88-.59.01-.27.08-.72,0-.96l1.52-2.94c.63-1.31-.1-3,.49-4.37.29-.66.17-1.06-.37-1.39.8-.33,1.63.39,2.41-.24.26-.21.44-.61.44-.96l2.63-.27h4.77Z"/>
        <path class="cls-2" d="M106.91,111.69c0,.32.12.63.36.8.21.16.5.12.68.18.49.16.91.34,1.21.72.57.7,1.66.98,2.26,1.63l.3.32c.09.1.26-.01.38-.06.17-.07.41-.02.58-.04l-.07.62c-.08.65.92,1.28,1.03,1.89.28,1.49.87,2.42,1.42,3.71l.99,2.3c.41.96.35,3.03.06,4.05-.43.79-1.16,1.35-.85,2.43.36,1.23-.45,1.99-.91,2.85-.63,1.17-1.1,1.76-2.56,1.99-.35.06-1,.75-1.34.6-.45-.2-.68-.69-1.02-1.08l.37-1.53c.62.11.97.51,1.58.87.46.28,1.73-.04,1.85-.54.22-.93.85-1.23,1-2.05l.6-3.08c.86-1.18.44-1.77-.01-2.94s.25-3.16-.58-4.14c-.87-1.03-1.49-3.96-2.61-4.74-1.21-.84-2.42-2.26-3.73-2.74-1.05-.38-2.02-.45-2.24-1.68-.02-.1,0-.21.02-.38.37.07.84.05,1.22.05Z"/>
        <path class="cls-2" d="M96.35,110.41l1.63-.02c2.9-.03,6.01-.17,6.1,1.87-2.48.33-4.72-2.47-7.73-.33-.38.27-1.37.1-1.68-.23-.27-.29-.3-.95.09-1.3.24.26.53.49.88.59.38.11.73-.13.71-.58Z"/>
        <path class="cls-2" d="M96.42,100.72c.54.33.65.73.37,1.39-.59,1.37.13,3.07-.49,4.37l-1.52,2.94c-.78-1.14.3-2.3.76-3.36.68-1.58.08-3.53.26-5.09l.63-.26Z"/>
        <path class="cls-5" d="M99.26,99.52c0,.35-.18.76-.44.96-.77.63-1.6-.09-2.41.24l-.63.26c-.2.08-.57.04-.79,0-.21-.26.12-1.37.51-1.38,1.35.37,2.52.04,3.74-.08Z"/>
        <path class="cls-4" d="M137.15,85.74c.06.59-.7,1.08-1.11,1.49l-.24,4.19c-.04.66-.4,1.07-.95,1.05l-.08-.38c-.03-.16.02-.53-.15-.56-.39-.08-1.57.13-2.01.41-.28.18-.35.58-.27.9-.18.1-.52.1-.7.19l-2.03,1.14c-.82.46-1.73.55-1.86,1.47l-.27.26c-1.29.5-2.46,1.29-3.77,2.06l-2.41,1.42c-.71.42-1.16.63-1.87,1.09l-3.88,2.45-3.82,2.92c-.29.22-.67.28-.82.75-1-.22-1.57.56-2.43,1.09l-1.97,1.21c-1.03.63-2,1.2-2.56,2.41l1.74.33c-.03.17-.04.28-.02.38l-1.58.24c-.09-2.04-3.2-1.9-6.1-1.87-.24-.82,1.21-.4,3.06-2.42.54-.59,1.4-.6,1.9-1.01,1.37-1.11,2.75-1.89,4.18-2.8l5.59-3.54,3.74-2.59c1.28-.88,2.51-1.16,3.64-2.38.71-.76,1.52-.86,2.26-1.31s1.13-.94,2.14-1.2l2.58-1.96c1.4-.06,1.67-.31,2.54-1.14,1.46-1.39,3.56-1.82,3.24-2.85l.43.08c1.3.26,2.48-1.46,3.87-1.54Z"/>
        <path class="cls-5" d="M133.27,84.72c.11.32-.16.98-.61.99-.82.02-1.06.89-1.46,1.09-1.83.92-4.12,2-4.39,3.4.2.27.87.26,1.12.31.27.05,2.53-2.32,4.91-3.31.32,1.03-1.78,1.46-3.24,2.85-.87.83-1.14,1.08-2.54,1.14l-2.58,1.96c-1.02.25-1.38.72-2.14,1.2s-1.55.55-2.26,1.31c-1.13,1.22-2.36,1.49-3.64,2.38l-3.74,2.59-5.59,3.54c-1.42.9-2.81,1.69-4.18,2.8-.51.41-1.37.42-1.9,1.01-1.84,2.02-3.3,1.59-3.06,2.42l-1.63.02c-.29.35-1.38-.27-1.02-.66,2.35-2.57,5.23-4.31,8.05-6.15l1.98-1.56c1.03-.81,2.35-1.01,3.26-2.29l-1.97-.5c.95-1.26,2.7-.78,3.91-1.34,2.95-1.37,6.36-3.75,6.41-6.47.59-.04.69.44.69.84.01,1.07-1.77,1.51-1.05,1.94,1.3.77,1.87-.55,2.62-.97,1.46-.84,2.65-1.63,3.97-2.5,1.38-.92,2.86-1.45,4.19-2.61,1.96-1.71,3.25-1.32,3.98-2.48.32-.51,1.43-.72,1.91-.95Z"/>
        <path class="cls-5" d="M131.36,80.6c.12,1.01-2.14,1.8-4.38,3.07l-1.43.82c-.08-1.26,1.25-1.33,2.07-1.85,1.4-.88,3.23-2.07,3.74-2.04Z"/>
        <path class="cls-5" d="M137.45,82.19c.39.15.53.48.71.82-.16.15-.4.37-.47.54-1.8-.67-1.88,1.02-3.2.88.36-1.24,1.81-1.89,2.95-2.24Z"/>
        <path class="cls-5" d="M132.6,71.59c0,.34-.02.75-.26,1.14-.18.28-.6.65-1.01.2.29-.56.6-1.23,1.27-1.34Z"/>
        <path class="cls-5" d="M123,85.71c.04.52-.53,1.45-1.22,1.25-.33-.1-.24-.86-.1-.94l1.32-.3Z"/>
        <path class="cls-5" d="M124.69,76.43c-.2.76-1.05.9-1.82.91.44-.62.97-.88,1.82-.91Z"/>
        <path class="cls-5" d="M129.43,73.49c.05.3-.02.69-.31.87-.19.12-.47.14-.7.14-.01-.22.03-.49.17-.66.2-.25.54-.37.84-.35Z"/>
        <path class="cls-5" d="M120.52,79.02c-.14.63-.8.77-1.38.63.1-.59.84-.8,1.38-.63Z"/>
        <path class="cls-5" d="M130.41,72.92c.04.2-.03.45-.23.56-.11.06-.29.05-.41.04-.12-.22-.07-.52.14-.59.19-.06.37-.01.49,0Z"/>
        <path class="cls-5" d="M124.3,85.32l-.04.52c-.01.12-.13.27-.37.16-.09-.05-.16-.21-.22-.28.02-.3.38-.4.64-.39Z"/>
        <path class="cls-5" d="M125.89,75.78c-.18.08-.46.33-.73.3.12-.09.11-.34.12-.44.01-.12.25-.28.43-.19.1.05.2.15.19.33Z"/>
        <path class="cls-5" d="M129.04,111.69c-.79.05-1.43-.83-1.48-1.65.8.21,1.46.82,1.48,1.65Z"/>
        <path class="cls-6" d="M124.49,113.23c.33,2.17-3.65,3.49-4.32,3.95-1.59,1.08-2.93,2.48-4.8,3.2-.52-.75-.65-1.99.01-2.56l4.15-3.57c1.11-.96,2.08-1.91,3.51-2.33.56.35,1.33.49,1.46,1.31Z"/>
        <path class="cls-6" d="M119.77,108.81c.18.78.38,1.53.05,2.28l-.95.54-.75.1c-.3.04-.21.42-.33.56-.31.37-.83.7-1.24.92l-1.47.8c-.49.27-.94.44-.99.95l-.47.14-.94.14c-.17.03-.41-.03-.58.04l-.38-1.75c1.41.18,1.86-.88,2.61-1.42l3.6-2.61c.5-.36,1.06-.47,1.23-1.09.13.13.43.33.61.4Z"/>
        <path class="cls-5" d="M125.94,116.82c.06.24.44.48.28.87-.87,1.49-2.99,3.3-3.33,3.21-.22-.06-.7-.38-.74-.67-.2-1.47.88-2.02,2.15-2.54.44-.18.82-1.31,1.64-.86Z"/>
        <path class="cls-5" d="M116.55,113.2c-.03.55-.24,1.26-.64,1.43-.65.28-1.27.16-1.82.32.05-.51.5-.69.99-.95l1.47-.8Z"/>
        <path class="cls-5" d="M121.16,110.37c-.45.34-.92.47-1.34.71.33-.75.13-1.49-.05-2.28.66.24,1.16.9,1.39,1.56Z"/>
        <path class="cls-5" d="M113.62,115.1c.22.23.14.66-.09.71-.35.07-.64.04-.92.05l.07-.62.94-.14Z"/>
        <path class="cls-5" d="M118.87,111.63c.09.29-.06.58-.24.63-.31.1-.57.08-.83.02.11-.14.03-.52.33-.56l.75-.1Z"/>
        <path class="cls-6" d="M134.77,92.09l.08.38-.3,1.95c-.09.03-.21.14-.29.22-.84-1.48-3.36,2.36-6.15,3.15-.9.26-1.77.21-2.24,1.02-.25.43-1.1,1.17-1.54,1.34-2.22.87-3.95,2.31-5.82,3.87-.73.6-2.01.51-2.46,1.7-.14.37-.24.71.18.99.74.5,1.18-1.01,1.78-.97.23.01.4.62.51.78-.01.28-.07.69.05.96-1.07.11-2.99,1.55-4.52,2.62l-2.45,1.71c-.85.6-1.56,1.32-2.95.8.5-1.06,1.46-1.47,2.33-2.1l3.14-2.29c.34-.25.88-.03.89-.59,0-.29,0-.67-.22-.73-1.83-.54-3.86,2.16-6.04,3.61l-1.91.73c-2.14-1.85,3.59-3.11,4.07-4.64.15-.47.53-.53.82-.75,1.11.25,1.6-.6,2.41-1.13l5.63-3.63c.87-.56,1.27-.84,2.18-1.37l2.04-1.17c.58-.33,1.31-.92,1.98-1.26.73-.37,1.64-.4,1.52-1.4l.27-.26c.79.18,1.35-.51,2.08-.85.91-.42,1.84-.72,1.81-1.76.17-.1.52-.1.7-.19.77-.43,1.53-.82,2.44-.75Z"/>
        <path class="cls-5" d="M110.9,106.6c-.48,1.53-6.21,2.79-4.07,4.64l1.91-.73c2.19-1.45,4.22-4.16,6.04-3.61.22.06.22.44.22.73,0,.56-.55.34-.89.59l-3.14,2.29c-.88.64-1.83,1.05-2.33,2.1,1.39.52,2.1-.2,2.95-.8l2.45-1.71c1.54-1.07,3.46-2.51,4.52-2.62.13.3.37.7.58.92-.17.62-.73.73-1.23,1.09l-3.6,2.61c-.75.55-1.2,1.6-2.61,1.42l.38,1.75c-.12.05-.29.16-.38.06l-.3-.32c-.09-.46-.18-1.15-.46-1.44-.47-.48-1.27-.31-1.8-.19-.31-.38-.73-.56-1.21-.72.04-.32-.07-.71-.31-.85-.23-.13-.5-.14-.73-.13-.39,0-.85.02-1.22-.05l-1.74-.33c.55-1.21,1.53-1.78,2.56-2.41l1.97-1.21c.86-.53,1.43-1.31,2.43-1.09Z"/>
        <path class="cls-5" d="M105.72,72.92c-.68.51-1.59.68-2.29,1.28-.32.27-.79.14-.93-.18-.27-.63,3.73-4.07,5.41-2.73l-2.19,1.64Z"/>
        <path class="cls-5" d="M104.44,75.81c.11.45-.25.64-.51.63l-1.16-.02c.13-.78,1.02-.8,1.67-.61Z"/>
        <path class="cls-6" d="M117.09,74.57c-.77.43-1.86,1.34-2.45.57-.27-.35,2.6-3.17,3.86-1.36l-1.4.79Z"/>
        <path class="cls-4" d="M111.42,115.02c-.6-.65-1.69-.92-2.26-1.63.53-.12,1.33-.29,1.8.19.28.28.37.97.46,1.44Z"/>
        <path class="cls-4" d="M107.95,112.68c-.18-.06-.46-.02-.68-.18-.24-.18-.37-.48-.36-.8.22,0,.5,0,.73.13.24.14.35.53.31.85Z"/>
        <path class="cls-5" d="M127.48,95.9c.12,1-.79,1.03-1.52,1.4-.67.34-1.4.92-1.98,1.26l-2.04,1.17c-.91.52-1.31.81-2.18,1.37l-5.63,3.63c-.82.52-1.3,1.38-2.41,1.13l3.82-2.92,3.88-2.45c.72-.45,1.17-.67,1.87-1.09l2.41-1.42c1.31-.77,2.48-1.56,3.77-2.06Z"/>
        <path class="cls-5" d="M131.63,93.04c.03,1.04-.9,1.34-1.81,1.76-.73.34-1.28,1.03-2.08.85.13-.92,1.04-1.01,1.86-1.47l2.03-1.14Z"/>
        <path class="cls-5" d="M134.77,92.09c-.9-.07-1.66.32-2.44.75-.08-.32,0-.72.27-.9.44-.28,1.62-.49,2.01-.41.17.03.11.4.15.56Z"/>
      </g>
      <g>
        <path class="cls-1" d="M51.95,85.01l.2,1,.04,1.94v1.6s0,1.61,0,1.61l-.03,7c-.23.14-.41.51-.12.64l.75.34c.26.12.64,0,.93,0h2.63c.36,0,.42-.44.31-.62l.64-.02,11.38.09c.52.33,1.12,1.33,1.77,1.25.55.66.72,2.07.58,2.8-.03.15-.41.25-.25.53.13.23.43.23.61.2v1.22s-.46.08-.46.08c-.16.03-.28.24-.17.41.09.14.39.23.61.22v.6c-.53.79-.4,1.77-.04,2.59l.09,1.88c-.44.23-.31.71-.37,1.06l-.16.95c-.79.08-1.44.84-1.7,1.56-3.95,1.12-7.53-.72-10,1.27-.77.62-1.9.97-2.26,1.88-.08-.03-.2-.05-.35-.18l-1.77,1.58-.72,1.51c0,.09.02.24-.02.32-.12.08-.25.19-.31.33-.03.08-.02.23,0,.32-.32-.05-.72-.11-1.06.06-.25.12-.32.6-.22.89-.24,0-.49.13-.57.28-.15.3-.12.71-.08.99.01.1-.11.27-.2.33-1.58-.18.49,2.17-.8,5.35.36.15.53.09.67.08-.02.08-.01.26.01.36.3,1.21-.07,2.98-1.4,3.67-.81.42-2.19.18-3.04.12-1.05-.07-1.62.44-2.3.58-3.3.69-7.67,1.02-7.15-.75.06-.2.23-.56-.06-.73-.19-.12-.56-.04-.78-.03-.32.01-.46-.38-.33-.63.34-.68.05-1.42.05-2.24v-7.69s.33-3.82.33-3.82c.05-.65.86-1.21.5-2.02-.2-.45-.46-1.35-1.34-1.34l-3.1.03c-1.38.01-2.62.09-4.14-.21-.6-.12-1.42.31-1.89.34.03-.26-.23-.41-.39-.28l-.29.25-4.11-.06c-1.1-.02-2.04-.34-2.99-.31-.58.02-.89-.67-1.24-.83-.2-.48-.62-1.7-.09-2.03,1.15-.72,2.73-.1,3.91-.34,2.28-.46,4.27-.11,6.5-.09l10.55.09c1.05,0,2.07.81,1.97,1.95-.15,1.57.17,2.93.22,4.5.03.95-.64,2.1.08,2.88-.12.31-.04.84-.05,1.19-.36-.04-.76.11-.87.35-.63,1.29,1.46,1.97-.14,3.97-.63.79-.32,3.18.6,3.78,1.18.77,2.61.14,3.97.25.87.07,2.73.01,3.03-.97l-.03-9.84.17-2.24c.34.06.72-.09.83-.33.65-1.4-1.16-3.1,1.29-4.64.66-.41,1.15-.83,2.05-.83l10.59-.04c1.58,0,3.09-.49,4.8-.22.73-2.09.5-4.09.4-6.21-.05-1.12-.22-1.74-1.38-2.24-.27-.11-.65-.63-1.08-.5-.27.08-.59.55-.85.99l-11.46-.18c-.44-.21-.84-1.1-1.74-.9-1.11.25-2.65-.99-2.42-2.27.34-1.97.04-3.73-.02-5.73-.07-2.45.51-4.83.16-7.37-.17-1.22.78-2.89,1.89-2.56.26.43.47,1.55,1.17,1.23Z"/>
        <path class="cls-3" d="M50.91,82.92c-.81-.45-1.81-.12-2.55.44-.71.53-.93,1.43-1.02,2.31-1.13.5-2.05,1.6-3.13,2.26s-1.57,1.01-2.14,2.16l-2.98,3.37c-.83,2.25-.23,4.6-.39,7.02-.47.52-1.41,1.48-2.25,1.48l-9.77.03c-.39-.31-.87-.98-1.28-1.03-.88-.11-3.65.96-4.09,2.64-.32,1.21-2.01,1.78-2.56,2.78-.62,1.14.1,2.91-.55,4.01l-.89.25c-.12.03-.3.04-.43.02l.05-8.94c0-.83.75-1.42,1.59-1.24l7.76.03,10.8-.11.1-19.07c0-.6,1.11-1.04,1.6-1.04l10.5.08c1.06,0,1.73,1.78,1.63,2.56Z"/>
        <path class="cls-2" d="M50.91,82.92l.3.16c.16.66.59,1.23.73,1.92-.7.31-.91-.8-1.17-1.23-1.11-.33-2.06,1.34-1.89,2.56.35,2.54-.23,4.92-.16,7.37.06,2,.36,3.76.02,5.73-.22,1.28,1.32,2.52,2.42,2.27.89-.2,1.3.69,1.74.9l11.46.18c.26-.44.58-.9.85-.99.43-.13.81.38,1.08.5,1.15.49,1.33,1.12,1.38,2.24.1,2.12.33,4.12-.4,6.21-1.71-.27-3.22.21-4.8.22l-10.59.04c-.91,0-1.39.42-2.05.83-2.45,1.53-.63,3.24-1.29,4.64-.11.24-.49.39-.83.33.1-1.28-.27-2.41-.3-3.91-.01-.74,1.2-1.97,1.91-2.06l3.19-.41.98-.04c.71-.03,1.63-.12,1.57-.98l.4.06.54-.03c.06.67.72.97,1.36.94,1.82-.09,3.85.34,5.73-.31.86-.3,1.6-.98,2.56-.53.22.1.46.31.76.19s.26-.41.35-.57c.32-.59.09-1.35.29-1.94.53-1.53.15-3.51-.71-3.57l-.65-.05-4.56-.08c-.54,0-1.31.24-1.89.4-3.06-1.23-6.55.07-9.32-1.24-.99-.47-2.19-2.38-2.15-3.41.05-1.45.29-2.23-.02-3.66-.24-1.12-.64-2.8-.09-3.87.72-1.41,1.14-2.69-.11-4.07,1.04-1.34.87-2.84.82-4.29.75-.56,1.74-.89,2.55-.44Z"/>
        <path class="cls-5" d="M70.14,113.56c.06-.5.6-.81.78-1.19l.16-.95c.39.06.7-.11.68-.53,0-.21-.24-.37-.31-.52l-.09-1.88c.57-.7.55-1.92.03-2.59v-.6s.01-.7.01-.7v-1.22c.02-.29-.01-.58-.35-.73.14-.74-.04-2.14-.58-2.8v-.39c1.49.31,1.41,1.87,1.34,3.14.32.72.47,1.32.49,2.14l.11,5.01c.02,1.12,0,1.91-.87,2.74l-.44.96c-.1.23-.67.19-.96.12Z"/>
        <path class="cls-4" d="M69.21,113.94l.25.34c-.31.29-.63.54-1.27.58l-2.37.16c-1.53.1-3.3-.53-4.84.07-1.95.77-2.73,2.46-4.03,2.01.36-.92,1.49-1.26,2.26-1.88,2.47-2,6.05-.15,10-1.27Z"/>
        <path class="cls-4" d="M36.55,121.6h-.57s.08-4.59.08-4.59l.69-.71s-.98-1.79-2.17-1.12c-.11-.05-.24-.28-.45-.24-.15.02-.23.09-.18.26-.34.09-.73-.19-.99-.3v-.44s3.09-.03,3.09-.03c.88,0,1.14.89,1.34,1.34.36.8-.44,1.37-.5,2.02l-.32,3.82Z"/>
        <path class="cls-2" d="M70.47,99.46v.39c-.65.08-1.25-.91-1.77-1.25l-11.38-.09-.05-.41,10.28-.13c1.32.03,2.4.43,2.91,1.49Z"/>
        <path class="cls-2" d="M36.55,121.6v7.69c-.01.82.28,1.57-.06,2.24h-.63c-.61-1.99.06-6.11.12-9.95h.57Z"/>
        <path class="cls-4" d="M52.07,131.78l-1.09,1.75c-.87.37-2.18.54-3.11.44l-1.77-.21c-.2-.02-.47,0-.61.2-.08.12-.06.35-.03.44l-.66.13v-.84c.69-.14,1.26-.65,2.31-.58.85.06,2.23.3,3.04-.12,1.33-.69,1.69-2.46,1.4-3.67.78.25.92,1.84.52,2.47Z"/>
        <path class="cls-5" d="M37.66,132.93c-.52,1.77,3.85,1.44,7.15.75v.84c-2.21.43-4.58.19-7.01.16-.89-.01-1.15-1.28-.97-1.84l.83.09Z"/>
        <path class="cls-5" d="M26.22,114.55c-.03.24.23.39.39.26l.28-.23c.46-.03,1.28-.46,1.89-.34,1.52.29,2.76.22,4.14.21v.44s-5.57.1-5.57.1c-.31,0-.72.6-.88.48l-.68-.49-6.6-.3-.07-.5c.95-.03,1.89.29,2.99.31l4.11.06Z"/>
        <path class="cls-5" d="M52.83,98.21l-.66-.03.03-7h.32c.18.31.33.73.32,1.25v5.79Z"/>
        <path class="cls-4" d="M51.67,123.53c-.1.26-.2.68-.08,1.01.06.17.38.29.6.26l.03.63-.68,3.52c-.13.02-.31.08-.67-.08,1.29-3.18-.78-5.53.8-5.35Z"/>
        <path class="cls-5" d="M57.27,98.1l.05.41-.64.02-2.27-.03c-.27,0-.49.09-.59.21-.08.09-.11.31-.08.44-.29,0-.67.12-.93,0l.02-.63c1.35-.9,2.97-.68,4.44-.42Z"/>
        <path class="cls-6" d="M17.31,110.64c-.33.43-.34.94-.41,1.48-.11.8.46.99.99,1.24.34.16.66.85,1.24.83l.07.5c-.8-.04-1.78-.63-2.48-1.21-.79-.65-.61-2.32.17-2.81.13.01.3.01.43-.02Z"/>
        <path class="cls-5" d="M52.07,131.78c.39-.63.26-2.22-.52-2.47-.02-.1-.03-.28-.01-.36l.68-3.52c.63,1.03.36,2.35-.29,3.43.7.95.86,2.17.15,2.92Z"/>
        <path class="cls-5" d="M52.55,85.98l-.4.03-.2-1c-.14-.69-.57-1.26-.73-1.92.54.09,1.25.35,1.28,1.07l.06,1.82Z"/>
        <path class="cls-5" d="M56.61,116.91c.15.46.14,1.17-.23,1.31l-1.08.41c-.28.7-.41,1.47-1.19,1.37l.72-1.51,1.77-1.58Z"/>
        <path class="cls-6" d="M52.84,87.96h-.66s-.04-1.95-.04-1.95l.4-.03c.31.64.29,1.25.29,1.98Z"/>
        <path class="cls-5" d="M52.52,123.19c-.28.49-.37,1.05-.33,1.6-.22.03-.54-.09-.6-.26-.12-.32-.02-.75.08-1.01.09-.07.21-.23.2-.33h.65Z"/>
        <rect class="cls-5" x="52.19" y="87.96" width=".66" height="1.6"/>
        <path class="cls-6" d="M52.84,89.56c0,.57.07,1.15-.33,1.61h-.32s0-1.61,0-1.61h.65Z"/>
        <path class="cls-5" d="M53.8,120.96c-.6.39-.95.97-1.29,1.59v-.64c-.09-.29-.02-.78.23-.89.35-.16.74-.11,1.06-.06Z"/>
        <path class="cls-2" d="M70.91,112.37c-.18.38-.72.69-.78,1.19-.05.37-.47.52-.67.71l-.25-.34c.26-.72.91-1.49,1.7-1.56Z"/>
        <path class="cls-2" d="M52.83,98.21v.32s-.03.63-.03.63l-.75-.34c-.3-.13-.11-.5.12-.64l.66.03Z"/>
        <path class="cls-4" d="M52.52,121.92v.64c-.2.17-.17.45,0,.64h-.65c-.04-.28-.07-.69.08-.99.08-.16.33-.28.57-.28Z"/>
        <path class="cls-2" d="M37.66,132.93l-.83-.09c.03-.11-.02-.26-.01-.34v-.32c.22,0,.59-.09.78.03.29.17.12.53.06.73Z"/>
        <path class="cls-5" d="M34.57,115.17c.04.25-.24.41-.38.27l-.26-.26c-.04-.17.04-.23.18-.26.21-.04.35.19.45.24Z"/>
        <path class="cls-5" d="M36.49,131.54c-.13.25.01.65.33.63v.32c-.66-.11-.81-.46-.96-.95h.63Z"/>
        <path class="cls-4" d="M53.8,120.64c.06-.13.19-.25.31-.33-.05.13-.19.25-.31.33Z"/>
        <path class="cls-4" d="M52.51,110.41l-3.19.41c-.71.09-1.92,1.32-1.91,2.06.03,1.5.4,2.64.3,3.91l-.17,2.24-.51-.02c-.06,0-.16.04-.22.02.1-1.32.38-2.67.17-4.32-1.95.55-3.17,2.13-4.7,3.38-1.01.82-.68.68-1.26,2.22-.72-.79-.05-1.93-.08-2.88-.05-1.57-.37-2.93-.22-4.5.11-1.14-.92-1.94-1.97-1.95l-10.55-.09c-2.23-.02-4.22-.37-6.5.09-1.18.24-2.76-.38-3.91.34-.53.33-.1,1.55.09,2.03-.52-.25-1.09-.44-.99-1.24.07-.54.08-1.05.41-1.48l.89-.25.69-.02c.74-.02,1.43-.38,2.31-.05.39.15.79.03,1.07-.2s.46-.59.47-.96c.3-.08.94-.04,1.24.06.71.25,1.48.24,2.28.23.64,0,1.58-.17,2.17.05,1.06.49,2.21.61,3.59.64l3.49.07c2.51.05,5.6-.39,6.1,1.37,1.94-2.25,4.69-4.49,5.97-2.69-3.1,1.82-7.4,4.22-5.69,6.37.47-.53,1.78-.71,2.21-1.12,1.77-1.68,4.13-3.92,5.88-5.06l1.9-1.23c.83-.54,1.5-1.21,2.53-.3-1.22.83-1.98,1.7-1.9,2.88Z"/>
        <path class="cls-6" d="M46.81,119.04c-.68-.24-.95.72-1.29.95-.92.64-2.05.62-2.85,1.38-.47.44-.91.63-1.46.58-.03-.17-.13-.32-.24-.44,0-.35-.07-.88.05-1.19.58-1.54.24-1.4,1.26-2.22,1.53-1.24,2.75-2.83,4.7-3.38.21,1.65-.07,3-.17,4.32Z"/>
        <path class="cls-2" d="M40.98,121.5c.11.12.22.27.24.44.03.2.04.43-.03.63-.29.79.25,1.54.11,2.59s-.76,2.68-.11,3.66c.62.93,2.38.23,3.24.27s1.55.16,2.07-.2c.77-.54.34-1.47.38-2.23.14-2.27.42-4.59-.1-6.66l.25-.99.51.02.03,9.84c-.3.98-2.16,1.04-3.03.97-1.36-.11-2.79.52-3.97-.25-.92-.6-1.23-2.99-.6-3.78,1.59-2-.49-2.68.14-3.97.12-.24.51-.39.87-.35Z"/>
        <path class="cls-2" d="M56.68,98.53c.11.18.05.63-.31.63h-2.63c-.02-.13,0-.35.08-.45.1-.12.32-.21.59-.21l2.27.03Z"/>
        <path class="cls-2" d="M71.35,108.49c-.36-.83-.49-1.8.03-2.59.51.67.54,1.9-.03,2.59Z"/>
        <path class="cls-2" d="M71.07,111.42c.06-.34-.07-.82.37-1.06.07.15.31.31.31.52.01.42-.3.59-.68.53Z"/>
        <path class="cls-4" d="M26.9,114.58l-.28.23c-.16.13-.42-.02-.39-.26l.29-.25c.15-.13.42.02.39.28Z"/>
        <path class="cls-2" d="M71.41,103.38c-.18.03-.48.03-.61-.2-.16-.28.22-.38.25-.53.34.15.37.44.36.73Z"/>
        <path class="cls-2" d="M71.4,104.59v.7c-.23.02-.52-.07-.62-.22-.11-.16.01-.38.17-.41l.44-.08Z"/>
        <path class="cls-6" d="M47.34,85.67c.78.7-.99,1.24-.18,2.82.25.48.38,1.19.11,1.69-.18.34-.67.58-1.31.9,1.05.88,1.02,1.82.95,2.97-.12,2.01.46,4.05-.2,5.97l-1.35,1.6c-.61.73-1.35,1.28-1.21,2.52l3.57-2.53,1.84,1.73c.57.53,1.48.22,2.45.41-.64.27-.94.74-1.48,1.15l-2.15,1.67c-1.29,1-2.84,1.6-4.46,1.04.75-.58.81-1.7.28-1.87l-2.55,2.26c-.52-.32-.87-1.06-1.24-1.12-.52-.08-.84.51-.77.78.1.35.45.77.86,1.17-.91.77-2.07.13-3.03.27-2.56.37-4.83.3-7.4-.02-.59-.07-1.36-.09-1.64.41-.59-.22-1.52-.05-2.17-.05.04-.15.04-.4-.05-.49-.35-.33-2.01-.37-2.23.25-.3-.1-.94-.14-1.24-.06-1.46.59-2.59-.41-3.55.11-.28.15-.4.7-.31,1.1l-.69.02c.65-1.1-.07-2.88.55-4.01.54-1,2.24-1.57,2.56-2.78.44-1.68,3.21-2.75,4.09-2.64.4.05.89.72,1.28,1.03l9.77-.03c.84,0,1.78-.97,2.25-1.48.16-2.42-.44-4.77.39-7.02l2.98-3.37c.56-1.15,1.1-1.53,2.14-2.16s2-1.75,3.13-2.26Z"/>
        <path class="cls-5" d="M61.12,103.51c-.59,1.35-2.1,1.83-3.18,2.71-.59.48-.8,1.04-1.79,1.13-.38.04-.96.68-1.07,1.01-.1.3.23.83.37,1.09l-.4-.06c-.39-.06-.82-.03-1.26.18-.23.11-.38.48-.32.8l-.98.04c-.08-1.18.68-2.04,1.9-2.88-1.03-.91-1.7-.24-2.53.3l-1.9,1.23c-1.76,1.14-4.11,3.38-5.88,5.06-.43.41-1.73.59-2.21,1.12-1.71-2.15,2.59-4.55,5.69-6.37-1.28-1.8-4.03.44-5.97,2.69-.51-1.75-3.59-1.32-6.1-1.37l-3.49-.07c-1.38-.03-2.53-.15-3.59-.64.28-.51,1.05-.49,1.64-.41,2.57.32,4.84.39,7.4.02.96-.14,2.12.5,3.03-.27-.41-.4-.76-.82-.86-1.17-.07-.27.25-.86.77-.78.38.06.72.8,1.24,1.12l2.55-2.26c.54.17.48,1.29-.28,1.87,1.62.57,3.17-.03,4.46-1.04l2.15-1.67c.54-.42.84-.88,1.48-1.15-.97-.19-1.89.12-2.45-.41l-1.84-1.73-3.57,2.53c-.14-1.24.59-1.8,1.21-2.52l1.35-1.6c.66-1.92.08-3.96.2-5.97.07-1.16.11-2.09-.95-2.97.63-.32,1.12-.56,1.31-.9.27-.5.14-1.21-.11-1.69-.82-1.58.96-2.12.18-2.82.09-.88.31-1.77,1.02-2.31.04,1.45.21,2.95-.82,4.29,1.25,1.38.83,2.66.11,4.07-.55,1.07-.15,2.75.09,3.87.31,1.43.07,2.21.02,3.66-.04,1.02,1.16,2.94,2.15,3.41,2.77,1.31,6.26.02,9.32,1.24.57-.16,1.35-.41,1.89-.4Z"/>
        <path class="cls-6" d="M65.69,103.59l.26,5.2-3.86.49c-1.51.19-4.66-.33-5.5-.05l-.59.2-.54.03c-.14-.26-.48-.79-.37-1.09.11-.33.69-.98,1.07-1.01.99-.09,1.2-.65,1.79-1.13,1.08-.88,2.59-1.37,3.18-2.71l4.56.08Z"/>
        <path class="cls-5" d="M66.34,103.64c.55,1.78-.07,3.37.71,3.57-.2.58.03,1.35-.29,1.94-.4-.14-1.06-.13-1.11.38-.95-.45-1.7.23-2.56.53-1.88.65-3.91.22-5.73.31-.13-.45-.43-.82-.77-1.14.84-.28,3.99.24,5.5.05l3.86-.49-.26-5.2.65.05Z"/>
        <path class="cls-4" d="M67.04,107.21c-.77-.2-.16-1.79-.71-3.57.85.06,1.23,2.04.71,3.57Z"/>
        <path class="cls-4" d="M55.06,109.39c.05.86-.86.96-1.57.98-.06-.32.09-.69.32-.8.43-.21.86-.24,1.26-.18Z"/>
        <path class="cls-4" d="M56.59,109.23c.34.33.64.69.77,1.14-.65.03-1.3-.27-1.36-.94l.59-.2Z"/>
        <path class="cls-4" d="M66.75,109.15c-.09.16-.06.45-.35.57s-.54-.08-.76-.19c.05-.52.71-.52,1.11-.38Z"/>
        <path class="cls-5" d="M46.81,119.04c.06.02.16-.02.22-.02l-.25.99-2.75,2.01c-.75.58-1.94.41-2.84.56.07-.2.06-.44.03-.63.54.05.99-.14,1.46-.58.8-.75,1.93-.73,2.85-1.38.34-.24.61-1.19,1.29-.95Z"/>
        <path class="cls-5" d="M22.74,109.15c-.01.37-.21.75-.47.96-.28.23-.68.34-1.07.2-.88-.33-1.57.03-2.31.05-.09-.4.03-.94.31-1.1.95-.53,2.08.48,3.55-.11Z"/>
        <path class="cls-5" d="M26.26,109.44c-.8,0-1.57.02-2.28-.23.22-.62,1.87-.59,2.23-.25.09.09.09.33.05.49Z"/>
        <path class="cls-4" d="M46.78,120c.52,2.07.23,4.39.1,6.66-.05.76.39,1.69-.38,2.23-.51.36-1.19.24-2.07.2s-2.63.66-3.24-.27c-.65-.98-.03-2.62.11-3.66s-.4-1.8-.11-2.59c.89-.14,2.08.03,2.84-.56l2.75-2.01Z"/>
      </g>
    </g>
    <g>
      <path class="cls-3" d="M206.33,82.47l-.39-.04c-.5-.67-.83-1.36-1.11-2.33l-1.03-1.43c.22-1.13-.34-1.7-.72-2.49-.63-1.29-1.11-2.48-1.89-3.57-.23-.33-.3-.61-.9-.81-1.4-.46-1.63-2.33-2.89-2.56,0-.06.02-.12,0-.18-.14-.6-.79-.83-1.39-.71-.1-.85-1.77-.85-3.14-2.86-5.38-1.27-9.73,1.64-14.76,1.26l-1.27,1.02c-1.62-.03-2.82.23-4.19,1.02l-2.34.42c-.85.72-1.54.79-2.45,1.23-.67.33-2.16,1.52-4.34,2.71l-2.05,1.12c-.81.44-1.43,1.37-2.09,2.03-.87.86-1.98,1.36-2.51,2.64-1.23,0-2.08.67-2.23,1.89-1.75,1.78-3.48,3.58-4.78,5.74-.45.74-.61,1.6-1.47,2.11-1.11.67-2.65,4.2-4.1,6.74-.49.86-.48,1.46-1,2.38l-2.12,3.69c-.22,1.4-.57,2.19-1.21,3.37-.47.87-.55,1.47-1.52,2.13-.61.41.06,2.38-.38,2.96s-1.21.83-1.11,1.83c.04.48-.41.94-.89.83l.92-4.47c.04-2.51.49-4.49,1.28-6.84.41-1.23-.06-2.65,1.1-3.84l.43-2.64c.78-1.15.88-2.32,1.39-3.55l1.3-3.15c.31-.76.77-1.58,1.16-2.36l1.38-2.78c.32-.64.73-1.44,1.14-2.05l1.27-1.92c.93-1.4,1.8-2.85,2.99-4.05,1.45-1.47,2.46-3.21,4.14-4.48l4.9-3.7,2.03-1.15,2.97-1.52c.91-.46,1.78-.19,2.67-1.01.46-.42,1.93-.22,2.57-.56,1.46-.76,2.92-1.04,4.58-.88,1.35.13,2.58-.29,3.86-.21l3.47.23c2.06-.41,3.62.49,5.43.9s4.55,1.4,6.11,2.31l2.84,1.64,5.45,5.07,2.2,3.4c1.96,3.03,1.64,4.98,2.84,6.1.34.32.17,1.19-.15,1.35Z"/>
      <path class="cls-6" d="M196.02,68.35l-3.08,1.18c-.65.25-1.13,1.49-1.99,1.06-.35-.18-.58-.24-.86.04-.33.34-.41.67-.41,1.02h-.61c-.75,0-1.37.5-1.36,1.24-1.57-.14-1.54,1.32-2.46,1.08-.13-.03-.31-.08-.53-.05s-.32.33-.25.57c-1.46.87-3.35,1.08-5.05.72.03-1.33,2.16-.28,2.2-1.5.02-.44-.46-.59-.98-.94-.43-.29.25-.98.83-.68.95.5,1.57,1.64,2.08,1.02l.82-1c.95-.03,1.91-.52,2.8-1.08.65-.41,1.97-.62,2.25-1.5l1.5-.31c.31-.07.31-.77.47-1.39.55.22,1.83.67,2.23-.09.29-.54-.95-.82-1.42-.62-1.23-1.29-2.75-1.44-4.29-.42-.73.49-2.51.23-3.1.97-1.01,1.28-1.98,1.42-3.41,1.92-2.26.79-4.08,3.77-5.22,3.69-.22-.02-.55.21-.58.47-.02.18.23.4.33.54l-.21,1.19.06.36c-.66-.19-1.45-.11-2.13-.04l-.35.03c.23-.55-.63-.62-.83-.83-.57-.67.68-1.15.99-1.53,1.16-1.39,2.83-2.26,4.42-3.16.6-.34.84-1.47,2.16-1.41-2.37-1.99-5.97,2.65-9.07,3.85-1.08.42-3.6.78-4.33,2.75-.12.32-1.02.51-1.01.81,0,.32.23.75.38,1.1-.48,1-.98-.56-1.8-.35-.28.07-1.91,1.57-2.29,3.01l-1.84,1.32-4.08,2.13c-.67.35-1.46,1.05-1.94,1.51-2.5-.03-4.99,4.06-4.75,4.38.12.16.56.23,1.03.14.84-.25.98,1.07-.02.78-1.16,1.97-3.57,1.53-3.82,3.25-.1.67.47,1.04.99,1.64-.89.25-1.36-.23-1.98-.35l-.31,1.92c-1.08.22-1.74,2-1.13,2.63.69.45,1.21-.81,1.62-.9,1.11-.25,2.85-1.62,4.55-2.54l2.09-1.13c.56-.3,1.34-.92,1.78-1.39,2.21.11,3.68-2.29,4.2-1.18.09.2.01.62-.05.83-.02.08-.03.22,0,.3-.12-.02-.32-.03-.46.04-.18.1-.24.38-.17.59l-.36-.02c-.75-.05-1.35.92-1.99,1.08-1.85.46-2.96,1.67-4.54,2.54-.8.44-.96.56-1.25,1.2-.53,1.16-2.03,1.6-3.1,2.23l-1.66.98c-1.88,1.11-3.52,2.7-4.5,4.5-.86.52-1.46,1.4-1.49,2.58.24,1.12-.38,1.83-.84,2.68-.63,1.16-1.13,2.26-1.94,3.16-.43-.76-.02-1.67.12-2.33.48.11.94-.35.89-.83-.09-1,.66-1.24,1.11-1.83s-.23-2.55.38-2.96c.97-.65,1.06-1.26,1.52-2.13.64-1.19.99-1.98,1.21-3.37l2.12-3.69c.53-.92.51-1.51,1-2.38,1.45-2.54,2.99-6.08,4.1-6.74.86-.51,1.02-1.37,1.47-2.11,1.3-2.16,3.02-3.97,4.78-5.74.15-1.22,1-1.89,2.23-1.89.53-1.28,1.64-1.79,2.51-2.64.67-.66,1.29-1.59,2.09-2.03l2.05-1.12c2.18-1.19,3.67-2.38,4.34-2.71.91-.45,1.6-.51,2.45-1.23l2.34-.42c1.37-.79,2.56-1.05,4.19-1.02l1.27-1.02c5.03.37,9.38-2.54,14.76-1.26,1.36,2.01,3.03,2.01,3.14,2.86Z"/>
      <path class="cls-2" d="M205.11,91.53c.13.46.22,1.29-.1,1.79-1.09,1.68-.67,3.37-.82,5.14-.1,1.15-.42,2.34-.62,3.57-.15.91-1.13,1.68-.84,2.93.38,1.64-.6,3.17-.99,4.63l-1.1,4.1c-.33,1.24.02,2.79-.9,3.94-.47.58-.98,1.53-.76,2.29.39,1.39-.61,1.75-.98,2.61s-.95,2.11-1.12,2.94c-.37,1.79-.36,3.15-1.72,4.56-1.13,1.17-1.23,3.42-2.77,5.47-1.24,1.65-2.14,3.96-2.75,4.64-.78.88-1.88,1.38-2.1,2.77l-2.26,1.16c-.91,1.1-1.82,1.35-2.99,2l-3.81,2.14c-.8.45-1.44.6-2.19,1.06l-2.16,1.33c-2.06.31-4.14.83-6.15.68l-5.89-.44c-1.21-.09-1.85-.15-2.77-.93l-2.29-.47c-1.26-1.04-2.34-1.12-3.94-1.36l-2.66-1.93c-1.92-.5-3.92-2.57-5.13-4.29l-3.08-4.39-2.01-3.91-1.4-4.27c-.55-3.26-.77-6.58.19-9.61,1.26-3.96.13-6.77,1.18-9.44.39-1.01.83-1.98.27-2.93-.48.9-.75,1.03-1.24,1.51.25,2.22-.9,2.97-1.53,5.22l-1.95,2.71-.43,2.02c-.37,0-.51-.26-.47-.51l.09-.51c.07-.41.1-.83,0-1.23.44-.33.82-.75.94-1.29l.06-.27c.82-.9,1.32-2,1.94-3.16.46-.85,1.08-1.55.84-2.68.04-1.19.64-2.06,1.49-2.58l1.37.4c-.05.75-.5,2-.32,2.75.38,1.57.16,2.49-.59,4.04-.38.79-.28,2.35-.34,3.37l-.3,5.5c-.57.64-1.21,1.08-1.11,2.04.08.72.6,1.06,1.01,1.78,1.01,1.79-.83,5.09,1.53,5.85l.1,2.09c1.19.67,1.24,1.99,1.3,3.15,1.96,1.37,2.36,3.15,2.64,3.54,2.77,3.72,5.21,4.02,7.59,5.89l3.58,1.23c.99.71,2.35.64,3.21,1.19,1.19.76,1.74.93,3.2.91,4.7-.09,8.7,1.23,12.41-1.44.91-.66,1.49-.69,2.46-1.23l2.39-1.32,1.86-1.11c1.12-.67,2.33-1.48,3.46-2.25,1.1-.01,1.67-.77,1.55-1.89,2.19-1.03,3.13-4.24,3.99-4.97s.89-1.62,1.24-2.37l1.33-2.84c1.07-2.29,2.61-4.24,2.24-6.96.75-1.22,1.81-2.28,2.28-3.54.42-1.11-.15-2.74.5-3.69.61-.9,1.19-1.52.92-2.78-.03-1.3.09-2.62,1.27-3.47-.35-2.1.69-3.76.93-5.67l.63-5.14c1.29-.81,1.14-3.47.55-5.24.12-.96,1.2-1.24.97-2.3.32-.24.56-.57,1.04-.52Z"/>
      <path class="cls-3" d="M207.93,90.84c-.23-.37-.58-.57-1-.63l-1.19-.19c-.61-.1-.86.68-.72,1.15l.1.36c-.48-.04-.72.29-1.04.52-1.21.92-2.17,2.04-3.16,3.35l-1.57.92c-.55.82-.99,1.41-1.68,1.88h-.96c-1.22.02-1.61,1.14-2.4,1.32-.25.06-.75-.33-.45-.71l1.98-2.45-.02-.24c.93-.18,1.85-.94,2.37-1.85.72-1.27,1.79-1.59,2.67-2.5l5.63-5.8c-.34-.45-.36-.8-.36-1.01s.22-.45.48-.54c.69.49.95,1.33,1.02,2.23l.3,4.18Z"/>
      <path class="cls-4" d="M193.49,145.6c-.01.11-.04.22-.09.31-.52.94-1.48,2.06-1.79,3.16-.37,1.32-1.27,1.5-2.03,2.27-.89.91-1.47,1.98-2.69,2.81-.89.6-2.13,1.47-3.25,1.7s-1.51.79-2.37,1.18l-2.69,1.21c-2.48,1.12-5.36,1.82-8.09,1.73l-2.3-.08c-1.8-.06-3.65.16-5.09-.25l-5.01-1.42c-1.23-.35-2.42-.6-3.53-1.29l-1.96-1.2c-.7-.43-1.23-.99-2.05-1.11l-.05-.49c1.08-.2,1.77.58,2.73,1l3.05,1.35c.97.43,1.98,1.14,2.86,1.31,1.77.34,3.24.79,4.92,1.2,2.58.63,5.35.07,8.01.23l2.61-.91c2.34.22,4.93-1.43,7.21-2.49l2.8-1.3c2.77-1.29,5.03-4.27,6.75-6.88l1.14-1.73c.2-.31.69-.33.94-.33Z"/>
      <path class="cls-6" d="M206.3,83.15c0,.16.18.3.33.32l-.02.95c-.26.09-.48.33-.48.54s.02.56.36,1.01l-5.63,5.8c-.88.91-1.95,1.23-2.67,2.5-.51.91-1.43,1.68-2.37,1.85-.04-.51.13-.75.64-1.04,1.22-.68,1.56-2.28,2.65-3.15.56-.44,1.86-.44,1.99-1.49.4-.15.83-.32.95-.56.21-.44.39-1.09-.19-1.51-1.34,1.47-4.1,1.84-4.44.97-.42-1.07,1.5-2.42,3.42-3.04l3.3-2.06c.78-.49,1.84-.52,1.82-1.47v-.35s.38.04.38.04l-.04.68Z"/>
      <path class="cls-4" d="M203.22,125.78c-.15.98-.01,2.36-.61,3.32-.76,1.22-.67,2.4-1.26,3.69l-1.18,2.57c-.37.8-1.17,1.34-1.08,2.41.04.52-1.2,2.77-2.26,3.88l-.39,1.59c-.08.31-.63.45-1.05.52l-.3.07c-.01-.46.68-.86.84-1.19-.02-1.06.78-1.82,1.19-2.59.84-1.59,1.58-3.48,2.46-5.34l1.24-2.61.6-2.55c.24-1.02,1.03-1.68.97-2.87-.01-.21.08-.5.17-.62.12-.17.4-.27.64-.26Z"/>
      <path class="cls-5" d="M206.96,107.51l-.31,1.61-.02,7.36-1,2.53c-.67,1.69-.68,3.65-1.52,5.21l-.29-.04-.09-.97c.31-.08.3-.44.3-.69v-.61c.46.02.29-.52.41-.71.41-.67.43-2.07.74-2.97.61-1.79,1.33-3.66.57-5.28-.04-1.35.56-2.38.57-4.47v-.96s.32,0,.32,0h.33Z"/>
      <path class="cls-4" d="M144.4,148.87l-3.72-3.93c-.75-.79-1.2-1.56-1.02-2.56l4.95,5.69c.22.26.33.25.36.56.05.47-.32.39-.57.25Z"/>
      <path class="cls-6" d="M206.96,107.51h-.33s.64-3.52.64-3.52l.06-.96c.36-.65.22-1.5.25-2.24h.32s-.05,5.06-.05,5.06c0,.73-.38,1.38-.9,1.67Z"/>
      <path class="cls-5" d="M207.93,90.84l-.02,9.93h-.32s.01-.32.01-.32l-.03-8.01-.32-1.6c-.04-.19-.23-.47-.33-.64.43.07.77.26,1,.63Z"/>
      <path class="cls-4" d="M149.62,153.65c-.35-.05-.68-.16-.99-.33l-.32-.32v-.32s0-.41,0-.41c.31-.08.66.09.91.29.33.26.46.68.4,1.09Z"/>
      <path class="cls-4" d="M146.71,151.06c-.49.04-.71-.33-1-.57v-.76c.55.24,1.06.71,1,1.33Z"/>
      <path class="cls-2" d="M204.11,124.21c-.19.35.03,1.15-.71,1.23-.08-.47.02-.96.42-1.26l.29.04Z"/>
      <polygon class="cls-5" points="148.32 152.68 147.99 152.35 148.32 152.27 148.32 152.68"/>
      <path class="cls-3" d="M206.63,83.47c-.15-.02-.34-.16-.33-.32.16,0,.33.16.33.32Z"/>
      <path class="cls-5" d="M147.03,151.4c-.09-.03-.33-.22-.32-.34.11.02.32.23.32.34Z"/>
      <path class="cls-2" d="M206.31,108.46c0,2.09-.61,3.12-.57,4.47-.4.04-.76-.18-.77-.48-.02-.35-.06-.76.11-1.06,1.14-2.02.16-3.17,1.23-2.94Z"/>
      <path class="cls-2" d="M207.27,103.98l-.64,3.52h-.32s-.02-2.57-.02-2.57c0-.35.12-.65.32-.8.16-.12.45-.16.66-.14Z"/>
      <path class="cls-4" d="M206.92,90.2c.1.17.29.44.33.64l-1.29.25c-.26.31-.66.34-.95.07-.14-.48.11-1.25.72-1.15l1.19.19Z"/>
      <path class="cls-2" d="M207.25,90.84l.32,1.6c-.74-.04-1.28-.69-1.61-1.35l1.29-.25Z"/>
      <path class="cls-2" d="M207.6,100.45v.33c-.04.75.1,1.6-.26,2.24-.63-.45-.49-2.3-.22-2.54.09-.09.35-.07.48-.03Z"/>
      <path class="cls-2" d="M204.03,122.51c0,.26.02.61-.3.69-.09-.11-.39-.25-.3-.48s.42-.25.59-.21Z"/>
      <path class="cls-2" d="M204.44,121.19c-.12.19.06.73-.41.71-.19-.07-.33-.34-.26-.47.1-.18.5-.26.67-.24Z"/>
      <path class="cls-1" d="M175.79,75.83c1.15.34,1.92-.67,4.17,1l2.04.47,2.32,1.93c.91.76,2.31,1.42,2.65,2.66.3,1.08.81,1.8,1.38,2.53l.04,2.83v1.03s0,1.27,0,1.27c0,.69.39,1.38-.17,2.41l-1.6-2.93-.33-1.09c-.09-.3-.59-.36-.92-.28v-.9c-.01-.12.13-.33.07-.55s-.42-.29-.65-.19h-.22s-.06-.46-.06-.46c-.02-.15-.19-.11-.39,0l-.24.15c.09-.98-1.08-1.07-1.59-1.53-2.42-2.19-5.16-1.98-7.9-.23-.98.62-2.42.92-2.68,2.2-.17.57-.88.54-1.27.76-1.25.71-1.68,1.94-2.57,3.01-.68.83-2.02,1.21-1.59,2.58-1.25.17-1.35,1.31-1.71,2.48-.21.68-1.28,1.57-1.52,2.24l-1.01,2.75c-.35.95-.78,1.61-1.2,2.42-.74,1.4-.92,2.61-1.38,4.11-.3.97-1.16,1.57-1.02,2.96l-1.02,2.96-.36,3.77c-.23-.03-.55.02-.73.13-.53.35-.12,1.8-.96,1.42,0-1.3-.54-2.8-.85-3.86,1.64-3.17-.11-5.53,1.6-8.49l.7-3.82c.51-.89,1.13-1.55,1.01-2.73-.13-1.29,1.04-3.82,2.12-4.79l.58-2.45c.87-.77.81-1.48,1.2-2.48.24-.62,2.47-2.84,2.33-4.03l-.03-.29c.69.09.95-.35,1.41-.86l1.69-1.83c.84-.91,1.49-1.92,2.53-2.64.18-.13-.03-.42-.12-.5-.12-.1-.03-.57.12-.57l.49.02c.28.01.67-.04.93-.2s.36-.55.3-.85h.29c.48-.04.96-.13,1.43-.34.44-.2.63-.71.56-1.21.68-.07,1.47-.15,2.13.04Z"/>
      <path class="cls-5" d="M173.31,75.82c-.59.06-1.1.27-1.6.59l-1.33-.46.09,1.66-.32.78-.49-.02c-.16,0-.25.46-.12.57l-.95.08c-.76.06-1.35.5-1.35,1.27-.12.37-.35.67-.66.9-.92.3-1.72,1.03-1.93,1.98-.06.28-.35.76-.61.9-.44.23-.7.55-.62,1.09l-1.01.59c-.42.06-1.36-.38-1.87.02l-3.6,2.78c-.85.66-1.26.94-2.39,1.28-.56.17-1.18,1.23-2.01,1.66,1.08.74,2.17.02,2.42-1.06h3s1.59-.84,1.59-.84l.13,1.99-.13,1.16-1.27.37c.06-.21.14-.64.05-.83-.53-1.11-1.99,1.29-4.2,1.18-.44.47-1.22,1.09-1.78,1.39l-2.09,1.13c-1.7.92-3.44,2.29-4.55,2.54-.41.09-.92,1.36-1.62.9-.61-.62.05-2.41,1.13-2.63l.31-1.92c.62.11,1.09.6,1.98.35-.52-.6-1.09-.97-.99-1.64.26-1.72,2.67-1.28,3.82-3.25,1,.29.86-1.03.02-.78-.47.09-.91.02-1.03-.14-.24-.32,2.26-4.41,4.75-4.38.47-.46,1.26-1.16,1.94-1.51l4.08-2.13,1.84-1.32c.38-1.45,2.02-2.95,2.29-3.01.82-.2,1.32,1.35,1.8.35-.16-.35-.38-.78-.38-1.1s.9-.49,1.01-.81c.73-1.96,3.24-2.33,4.33-2.75,3.1-1.2,6.7-5.83,9.07-3.85-1.32-.06-1.56,1.08-2.16,1.41-1.59.9-3.26,1.77-4.42,3.16-.32.38-1.56.86-.99,1.53.2.21,1.06.28.83.83Z"/>
      <path class="cls-5" d="M179.42,75.21l-.35.25c-.06-.12-.22-.21-.33-.26.08-.25,0-.82-.39-.93-.85-.25-1.68-.08-2.42.01-.09-.14-.34-.36-.33-.54.02-.26.35-.49.58-.47,1.14.09,2.97-2.9,5.22-3.69,1.43-.5,2.4-.64,3.41-1.92.59-.74,2.36-.49,3.1-.97,1.54-1.02,3.06-.87,4.29.42.47-.2,1.71.08,1.42.62-.4.75-1.68.31-2.23.09-.16.62-.16,1.33-.47,1.39l-1.5.31c-.28.88-1.6,1.09-2.25,1.5-.88.56-1.84,1.05-2.8,1.08l-.82,1c-.51.62-1.12-.52-2.08-1.02-.57-.3-1.25.39-.83.68.53.36,1,.5.98.94-.04,1.22-2.17.17-2.2,1.5Z"/>
      <path class="cls-4" d="M159.53,92.73c-.17,1.54-2.79,1.83-2.22,5.17-.83-.19-1.38.45-2.08.79-1.45.7-2.72,1.4-3.73,2.74-.73.14-1.79.04-2.38.47l-3.72,2.69c-.62.45-1.29.57-1.92,1.01l-1.89,1.35-1.37-.4c.98-1.8,2.62-3.4,4.5-4.5l1.66-.98c1.06-.63,2.56-1.07,3.1-2.23,2.03-.52,3.59-1.92,5.46-2.91.94-.5,2.11-.82,2.32-1.91l.36.02c.12,0,.33.04.44-.03.19-.12.24-.39.19-.6-.02-.08-.02-.22,0-.3l1.27-.37Z"/>
      <path class="cls-4" d="M196.02,68.35c.6-.12,1.24.11,1.39.71-.76.39-1.49,1.02-1.7,1.87-.2,0-.46.01-.66-.08-.74-.37-1.43.63-1.65,1.31-1.5-.18-1.67.73-3.12,1.35l-3.12,1.35c-.58.25-1.02.68-1.08,1.18-.4-.13-.66.25-.9.28-.43.05-1.06.32-.9.83.11.35.23.9.55,1.19-.62.01-1.24-.32-1.67-.89-1.22-1.67-3.51-.8-4.1-2l.35-.25c1.7.37,3.59.15,5.05-.72.23-.13.8.03.78-.52.92.24.89-1.22,2.46-1.08.71.06,1.3-.57,1.36-1.24h.61c.6,0,1.07-.44,1.27-1.06.86.43,1.34-.8,1.99-1.06l3.08-1.18Z"/>
      <path class="cls-5" d="M157.27,94.01c-.21,1.08-1.38,1.41-2.32,1.91-1.87.99-3.43,2.39-5.46,2.91.29-.63.45-.76,1.25-1.2,1.58-.87,2.69-2.08,4.54-2.54.64-.16,1.24-1.13,1.99-1.08Z"/>
      <path class="cls-4" d="M178.75,75.2c-1-.39-2.02-.04-3.02.27l.21-1.19c.74-.09,1.57-.26,2.42-.01.4.11.47.68.39.93Z"/>
      <path class="cls-2" d="M178.75,75.2c.11.04.27.14.33.26.6,1.2,2.88.32,4.1,2,.42.58,1.05.91,1.67.89l.34.31c-.04.23.12.4.24.51l2.2,2.15c.55.54.44,2.15,1.38,2.16l-.05.91-.6.05c-.58-.73-1.09-1.45-1.38-2.53-.34-1.24-1.75-1.91-2.65-2.66l-2.32-1.93-2.04-.47c-2.24-1.67-3.01-.66-4.17-1l-.06-.36c1-.31,2.02-.66,3.02-.27Z"/>
      <path class="cls-2" d="M173.31,75.82l.35-.03c.07.5-.13,1.01-.56,1.21-.47.22-.95.31-1.43.33l.04-.91c.5-.32,1.01-.54,1.6-.59Z"/>
      <path class="cls-5" d="M189.07,71.64c-.05.68-.65,1.3-1.36,1.24-.01-.75.6-1.24,1.36-1.24Z"/>
      <path class="cls-5" d="M190.94,70.59c-.2.61-.67,1.06-1.27,1.06,0-.35.08-.68.41-1.02.27-.28.51-.21.86-.04Z"/>
      <path class="cls-5" d="M158.26,93.4c.05.21,0,.48-.19.6-.11.07-.32.04-.44.03-.07-.21,0-.49.17-.59.14-.08.34-.07.46-.04Z"/>
      <path class="cls-5" d="M185.25,73.97c.03.55-.55.39-.78.52-.08-.24.04-.55.25-.57s.4.02.53.05Z"/>
      <path class="cls-4" d="M205.95,82.78c.02.95-1.04.98-1.82,1.47l-3.3,2.06c-1.92.62-3.84,1.97-3.42,3.04.34.87,3.1.5,4.44-.97.57.42.4,1.06.19,1.51-.11.24-.55.41-.95.56-.12,1.05-1.43,1.05-1.99,1.49-1.09.87-1.43,2.47-2.65,3.15-.51.29-.69.53-.64,1.04l.02.24c-1.58-.33-2.69,2.94-5.38,5.21-.54.46-.98.79-.71,1.56.38,1.08,2.73.16,3.96-1.21.7-.79,1.18-1.7,2.12-2.37.49-.35.86-.82.89-1.34h.96c.21.3.73.42,1.07.26.21-.1.28-.67.57-.89l2.3-1.78c.42-.77.86-1.18,1.51-1.45.58,1.77.74,4.43-.55,5.24l-.63,5.14c-.23,1.91-1.28,3.57-.93,5.67-1.18.85-1.3,2.17-1.27,3.47.27,1.25-.31,1.88-.92,2.78-.64.95-.08,2.58-.5,3.69-.47,1.26-1.53,2.32-2.28,3.54.38,2.72-1.16,4.67-2.24,6.96l-1.33,2.84c-.35.74-.37,1.64-1.24,2.37s-1.81,3.94-3.99,4.97c.12,1.13-.46,1.88-1.55,1.89-1.13.77-2.34,1.59-3.46,2.25l-1.86,1.11-2.39,1.32c-.96.53-1.54.57-2.46,1.23-3.71,2.68-7.71,1.35-12.41,1.44-1.46.03-2.01-.15-3.2-.91-.86-.55-2.22-.48-3.21-1.19l-3.58-1.23c-2.38-1.88-4.82-2.17-7.59-5.89-.29-.39-.68-2.17-2.64-3.54-.06-1.16-.11-2.47-1.3-3.15l-.1-2.09c-2.37-.76-.53-4.07-1.53-5.85-.4-.72-.93-1.06-1.01-1.78-.1-.95.54-1.4,1.11-2.04l.3-5.5c.06-1.02-.04-2.59.34-3.37.74-1.56.97-2.47.59-4.04,1.33.55,2-.49,3.02-1.01.83-.42,1.73-.46,2.42-1.18,1.28-1.34,3.25-1.38,4.8-2.54l3.14-2.35c.28-.21.82-.28,1.11-.26-1.08,2.69-1.46,5.59-1.29,8.67-1.08,1.06-1.15,2.37-1.01,3.89.66,1.67,1.17,3.49,1.36,5.29.33.24.94.16,1.2.08l.22,6.34c.19.6,1.53,1.27,1.1,2.31-.54,1.31.63,1.7.98,2.36.51.97.35,1.69,1.32,2.42,1.27.94,2.34,2.76,4.06,3.2l6.49.2c.83.03,1.2-.7,1.65-.9,2.67-1.21,6.09-4.78,7.41-7.45l1.14-2.32c.44-.9.92-1.56,1.33-2.63.2-.53,1.19-.85.88-1.93s.57-1.92,1.07-2.72c.44-.72-.02-2.24.61-2.87.93-.92,1.17-2.09.61-3.02-.06-.41-.06-1.17.14-1.52.43-.54,1.22-1.17,1.3-2.07l.36-3.72c-.28-.11-.48-.07-.64-.05.03-.27,0-.72.13-.95.21-.38.27-.72.31-1.15.04-.48-.08-.92-.66-.8v-3.83s.77,0,.77,0c.66,0,.93-3.93.04-6.22-.31.36-.26.58-.31.75-.05.16-.27.32-.54.29l-.02-4.38c-.37-.35-.97-.7-1.07-1.16l-.5-2.45h.38s.22,0,.22,0c.04.33.23.63.56.74v.9s1.12,2.87,1.12,2.87c.36.93.96,1.78,1.46,2.66.86-.46,1.29-1.16,1.29-1.87,0-.63-.07-1.63-.84-1.76v-1.27c.19.06.62-.02.67-.19.05-.21-.04-.68-.2-.78-.1-.06-.32-.06-.46-.06l-.04-2.83.6-.05c.51.48.14,1.51.32,2.01.27.74.12,1.76.08,2.49.56,1.12,1.74-.13,2.33-.38.91-.38,1.75-.42,2.41-1.2,1.27-1.49,3.44-1.45,5.44-2.9.86-.63,1.54-.92,2.49-1.43.78-.43,1.76-1.51,2.77-.91l.53.75c.13.18.41.21.64-.03ZM186.29,99.81l-.16.16.16.16.16-.16-.16-.16ZM186.61,100.45l-.16.16.16.16.16-.16-.16-.16Z"/>
      <path class="cls-5" d="M157.32,97.91c.12.69-.37,2.17-1.18,1.88-.95-.34-1.25-.1-2.24.54l-2.44,1.59c-.98.63-1.95.61-2.92,1.32l-2.96,2.15c-.96.7-4.09,1.85-2.85,2.76.09.07,2.96-.44,4.15-1.75.74-.81,1.81-.7,2.65-1.23l3.96-2.5c.82-.52,1.43-1.46,2.53-1.28.07.11.22.28.14.39l-.38.58c-.29-.02-.83.05-1.11.26l-3.14,2.35c-1.55,1.16-3.52,1.2-4.8,2.54-.69.73-1.6.77-2.42,1.18-1.02.52-1.69,1.56-3.02,1.01-.18-.74.27-2,.32-2.75l1.89-1.35c.63-.45,1.3-.56,1.92-1.01l3.72-2.69c.58-.42,1.64-.32,2.38-.47,1.02-1.34,2.28-2.04,3.73-2.74.7-.34,1.25-.98,2.08-.79Z"/>
      <path class="cls-6" d="M195.83,96.37l-1.98,2.45c-.31.38.2.77.45.71.79-.19,1.19-1.3,2.4-1.31-.02.52-.39.99-.89,1.34-.94.67-1.42,1.58-2.12,2.37-1.22,1.37-3.58,2.29-3.96,1.21-.27-.76.17-1.1.71-1.56,2.69-2.27,3.8-5.55,5.38-5.21Z"/>
      <path class="cls-6" d="M203.1,94.36c-.66.27-1.09.68-1.51,1.45l-2.3,1.78c-.29.22-.35.79-.57.89-.34.15-.85.03-1.07-.27.7-.47,1.14-1.06,1.68-1.88l1.57-.92c.99-1.31,1.95-2.43,3.16-3.35.23,1.06-.85,1.34-.97,2.3Z"/>
      <path class="cls-5" d="M201.19,72.61c.78,1.09,1.26,2.28,1.89,3.57.39.79.95,1.36.72,2.49l1.03,1.43c.28.97.61,1.66,1.11,2.33v.35c-.22.23-.51.2-.63.03l-.53-.75c-1.01-.6-1.99.49-2.77.91-.94.51-1.62.8-2.49,1.43-1.99,1.46-4.17,1.41-5.44,2.9-.66.78-1.5.82-2.41,1.2-.59.25-1.77,1.51-2.33.38.04-.73.19-1.76-.08-2.49l.99-1.03c1.33.37,1.88-.39,2.71-1.13.37-.34,1.15.48.82.96-.19.27-.45.57-1.13.93-.19.1.31.79.62.66.2-.08.63-.15.83-.38,1.01-1.17,4.38-2.14,4.97-2.52l2.13-1.37c.76-.49,1.35-.96,2.43-1.16-.59-.73-1.82-1.05-2.17-.53l-.61.92c-.26.38-1.86-.52-2.06.14l-.27.85c-.23.72-1.06.28-1.52-.03-.41-.28-.28-1.25.16-1.37.41.35,1.21.29,1.23-.08l-1.45-1.46c-1.05-.62-1.95.32-2.78.85-.33.21-1.08.21-1.03.75.03.29.34.61.61.87.25.25.03.55-.11.6-.73.28-1.02-.87-2.2-.69-.9.14-.57,1.27-2.44,1.31.06-1.26,1.32-1.67,2.54-2.03l2.94-2.04c1.21-.33,2.09-.74,3.12-1.37l4.72-2.89-2.46-2.31,1.33-.22Z"/>
      <path class="cls-6" d="M201.19,72.61l-1.33.22c-1.1-.22-2.08.72-2.9,1.11-.96.46-1.35.6-2.14,1.27l-4.01,1.7c-.43.97-1.23,1.14-2.14,1.45-1.14.4-2.08.98-3.25.8-.12-.12-.28-.28-.24-.51v-2.32c.24-.03.5-.41.9-.28.31.1.95.01,1.23-.33,1.18-1.47,3.03-.63,2.96-2.2,1.45-.63,1.62-1.53,3.12-1.35.82.1,1.42-.51,1.65-1.31.2.1.45.08.66.08.91,0,1.6-.82,1.7-1.69,1.25.23,1.49,2.1,2.89,2.56.61.2.67.48.9.81Z"/>
      <path class="cls-5" d="M197.4,69.24c-.1.88-.79,1.7-1.7,1.69.21-.85.94-1.48,1.7-1.87.01.05,0,.12,0,.18Z"/>
      <path class="cls-2" d="M164.06,85.07c.14,1.19-2.09,3.41-2.33,4.03-.39,1.01-.33,1.71-1.2,2.48l-.58,2.45c-1.08.97-2.25,3.51-2.12,4.79.12,1.18-.5,1.85-1.01,2.73l-.7,3.82c-1.71,2.95.04,5.31-1.6,8.49.31,1.06.86,2.56.85,3.86.84.39.43-1.07.96-1.42.18-.11.49-.17.73-.13l-.86,2.66c-.12.38.09.72.34.82v.27s-.22.04-.22.04c-.16.03-.3.14-.29.33-.26.08-.87.16-1.2-.08-.19-1.8-.71-3.62-1.36-5.29-.13-1.52-.06-2.83,1.01-3.89-.18-3.08.21-5.98,1.29-8.67l.38-.58c.07-.11-.07-.29-.14-.39l.13-1.6c.81.29,1.3-1.2,1.18-1.88-.58-3.34,2.05-3.64,2.22-5.17l.13-1.16c.69-.76,1.12-2.01,1.01-3.02l-.07-.67c.45.01.81-.33,1.14-.53.15-.09.49.04.62-.27.1-.23.05-.47.06-.7v-.65s.99-.59.99-.59c.18-.1.46-.07.65-.08Z"/>
      <path class="cls-5" d="M166.66,92.54c-.25.34-.46.79-1.14,1.18-.38.22-.2,1.37-.27,1.82-1.6,1.92-3.21,5.66-4.09,8.24-.36,1.06-1.53,1.95-.86,3.44-1.22.95-1.46,2.34-1.35,3.85-.89.73-1.25,1.66-.99,2.83-.03,1.48.13,2.9-.33,4.14-.46-.05-.88.21-.93.58l-.15,1.03c-.26-.09-.47-.44-.34-.82l.86-2.66.36-3.77,1.02-2.96c-.13-1.39.72-1.99,1.02-2.96.46-1.49.65-2.71,1.38-4.11.43-.8.85-1.47,1.2-2.42l1.01-2.75c.25-.67,1.31-1.56,1.52-2.24.36-1.16.46-2.31,1.71-2.48l.37.04Z"/>
      <path class="cls-4" d="M183.89,85.72c-.24.14-.61.28-.98,0l-1.83-1.34c-2.49-1.83-4.31-.99-6.35.23l-2.37,1.42-.65.12c.27-1.29,1.7-1.58,2.68-2.2,2.75-1.74,5.48-1.95,7.9.23.51.46,1.69.56,1.59,1.53Z"/>
      <path class="cls-2" d="M188.39,89.57c.76.13.84,1.14.84,1.76,0,.71-.43,1.42-1.29,1.87-.49-.87-1.1-1.73-1.46-2.66l-1.11-2.87c.33-.07.83-.02.92.28l.33,1.09,1.6,2.93c.56-1.03.16-1.72.17-2.41Z"/>
      <path class="cls-2" d="M169.53,78.95c.09.08.3.37.12.5-1.03.72-1.69,1.73-2.53,2.64l-1.69,1.83c-.47.51-.72.95-1.41.86v-.72c.26-.13.55-.61.61-.9.97-.19,1.78-1.02,1.93-1.98.31-.23.54-.53.66-.9.69-.07,1.25-.57,1.35-1.27l.95-.08Z"/>
      <path class="cls-4" d="M170.42,87.32l-1.1,1.72c-.56.88-.64,1.49-1.5,2.15-.39.31-.9.98-1.17,1.35l-.37-.04c-.43-1.36.91-1.75,1.59-2.58.88-1.07,1.32-2.3,2.57-3.01l-.02.41Z"/>
      <polygon class="cls-4" points="171.71 76.42 171.67 77.33 171.37 77.34 170.46 77.62 170.37 75.96 171.71 76.42"/>
      <path class="cls-2" d="M171.37,77.34c.06.31-.03.68-.3.85s-.65.21-.93.2l.32-.78.91-.28Z"/>
      <path class="cls-5" d="M172.36,86.03c-.39.75-1.06,1.39-1.94,1.29l.02-.41c.39-.22,1.1-.19,1.27-.76l.65-.12Z"/>
      <path class="cls-2" d="M188.41,88.3v-1.03c.13,0,.35,0,.45.06.16.1.26.57.2.78-.04.17-.47.26-.65.19Z"/>
      <path class="cls-4" d="M164.03,84.78l.03.29c-.18.02-.47-.02-.65.08-.09-.55.17-.86.62-1.09v.72Z"/>
      <path class="cls-2" d="M185.37,86.77c-.33-.11-.52-.41-.56-.74.23-.1.59-.02.65.19s-.08.43-.08.55Z"/>
      <path class="cls-2" d="M184.59,86.03h-.38s-.07-.45-.07-.45c.2-.12.37-.16.39,0l.06.46Z"/>
      <path class="cls-6" d="M162.41,85.74v.65c-.43.1-.68.5-.66.96-.34.21-.7.54-1.14.53-.15,0-.35.02-.53.12-.24.12-.18.42-.25.64l-.29.94-1.59.83h-3c-.25,1.09-1.34,1.81-2.42,1.07.83-.43,1.46-1.49,2.01-1.66,1.13-.34,1.54-.62,2.39-1.28l3.6-2.78c.52-.4,1.45.03,1.87-.02Z"/>
      <path class="cls-4" d="M160.67,88.55c.11,1-.32,2.26-1.01,3.02l-.13-1.99.29-.94.85-.09Z"/>
      <path class="cls-4" d="M166.57,81.19c-.15.95-.97,1.78-1.93,1.98.21-.95,1.02-1.68,1.93-1.98Z"/>
      <path class="cls-4" d="M168.59,79.03c-.11.7-.66,1.19-1.35,1.27,0-.77.59-1.2,1.35-1.27Z"/>
      <path class="cls-5" d="M190.28,73.52c.07,1.57-1.78.73-2.96,2.2-.28.34-.92.43-1.23.33.05-.5.5-.93,1.08-1.18l3.12-1.35Z"/>
      <path class="cls-5" d="M185.19,76.33v2.32s-.35-.31-.35-.31c-.32-.29-.44-.84-.55-1.19-.16-.51.47-.78.9-.83Z"/>
      <path class="cls-5" d="M195.05,70.85c-.22.81-.82,1.41-1.65,1.31.22-.69.9-1.68,1.65-1.31Z"/>
      <path class="cls-6" d="M156.03,120.29c0-.19.14-.3.29-.33-.03.27.06.56.32.7.24,1.45-.29,3.18.56,4.47.98,1.49.28,6.66,5.78,10.32,2.15,1.43,4.22,1.63,6.58.71,4.35-1.7,7.01-4.98,9.29-9.06l1.15-2.05c.58-1.05,1.38-2.01,1.19-3.44.94-.83,1.27-1.89,1.1-3.12,1.08-.97,1.26-2.34,1.24-3.58,1,.08.83-.72,1.36-1.61.56.94.31,2.11-.61,3.02-.64.63-.17,2.14-.61,2.87-.49.81-1.37,1.65-1.07,2.72s-.68,1.39-.88,1.93c-.41,1.07-.88,1.73-1.33,2.63l-1.14,2.32c-1.32,2.67-4.73,6.23-7.41,7.45-.45.2-.82.93-1.65.9l-6.49-.2c-1.72-.44-2.79-2.25-4.06-3.2-.98-.73-.82-1.45-1.32-2.42-.35-.66-1.52-1.06-.98-2.36.44-1.04-.9-1.71-1.1-2.31l-.22-6.34Z"/>
      <path class="cls-6" d="M189.28,86.4c-.18-.5.19-1.52-.32-2.01l.05-.91c1.87-.03,1.54-1.17,2.44-1.31,1.18-.18,1.47.97,2.2.69.14-.05.36-.35.11-.6-.27-.26-.59-.58-.61-.87-.05-.54.7-.54,1.03-.75.84-.53,1.73-1.48,2.78-.85l1.45,1.46c-.02.37-.82.43-1.23.08-.44.12-.58,1.1-.16,1.37.46.31,1.29.75,1.52.03l.27-.85c.21-.66,1.81.24,2.06-.14l.61-.92c.35-.52,1.58-.2,2.17.53-1.08.2-1.67.67-2.43,1.16l-2.13,1.37c-.6.38-3.96,1.35-4.97,2.52-.2.24-.63.3-.83.38-.31.13-.81-.56-.62-.66.68-.37.94-.66,1.13-.93.33-.48-.44-1.29-.82-.96-.83.74-1.38,1.51-2.71,1.13l-.99,1.03Z"/>
      <path class="cls-6" d="M185.84,99.19l.2-2.92-.25-2.25c.27.03.49-.13.54-.29.05-.17,0-.4.31-.75.89,2.28.61,6.22-.04,6.22h-.76Z"/>
      <path class="cls-6" d="M185.04,111.76l-.46-.21.27-2.42c.4.06.84-.14.91-.7l.3-2.5c.16-.02.36-.06.64.05l-.36,3.72c-.09.89-.87,1.53-1.3,2.07Z"/>
      <path class="cls-3" d="M186.06,105.92l-.3,2.5c-.07.56-.51.76-.91.7-.15-1.52.18-2.85.93-4.15h.4c-.13.23-.1.68-.13.95Z"/>
      <path class="cls-3" d="M184.9,113.28c-.53.89-.36,1.69-1.36,1.61-.02-1.69.88-1.88,1.04-3.35l.46.21c-.21.35-.2,1.11-.14,1.52Z"/>
      <path class="cls-6" d="M186.19,104.97h-.4c.31-.54.05-1.4.05-1.95.57-.11.7.32.66.8-.04.43-.1.77-.31,1.15Z"/>
      <rect class="cls-6" x="186.17" y="99.86" width=".23" height=".23" transform="translate(-16.13 161) rotate(-45)"/>
      <rect class="cls-6" x="186.49" y="100.5" width=".23" height=".23" transform="translate(-16.49 161.42) rotate(-45)"/>
      <path class="cls-6" d="M156.14,99.79l-.13,1.6c-1.1-.18-1.71.76-2.53,1.28l-3.96,2.5c-.84.53-1.91.42-2.65,1.23-1.19,1.31-4.06,1.82-4.15,1.75-1.24-.91,1.89-2.06,2.85-2.76l2.96-2.15c.97-.7,1.94-.68,2.92-1.32l2.44-1.59c.99-.64,1.29-.88,2.24-.54Z"/>
      <path class="cls-4" d="M199.86,72.83l2.46,2.31-4.72,2.89c-1.03.63-1.91,1.04-3.12,1.37l-2.94,2.04c-1.22.36-2.48.78-2.54,2.03-.94,0-.83-1.62-1.38-2.16l-2.2-2.15c1.17.18,2.12-.4,3.25-.8.9-.32,1.7-.49,2.14-1.45l4.01-1.7c.79-.66,1.18-.81,2.14-1.27.82-.39,1.8-1.33,2.9-1.11Z"/>
      <path class="cls-3" d="M157.61,118.04c-1.06,2.82.78,5.53-.4,7.08-.85-1.29-.32-3.02-.56-4.47l-.12-.74v-.27s.16-1.03.16-1.03c.05-.37.47-.62.93-.58Z"/>
      <path class="cls-4" d="M161.74,87.35c-.02-.46.23-.86.67-.96,0,.23.04.47-.06.7-.13.31-.47.18-.62.27Z"/>
      <path class="cls-5" d="M160.6,87.89l.07.67-.85.09c.07-.22.01-.52.25-.64.18-.1.38-.13.53-.12Z"/>
      <path class="cls-5" d="M156.65,120.65c-.26-.14-.36-.43-.32-.7l.2-.04.12.74Z"/>
    </g>
  </g>
</svg>