<?xml version="1.0" encoding="UTF-8"?>
<svg id="_レイヤー_1" data-name="レイヤー 1" xmlns="http://www.w3.org/2000/svg" viewBox="0 0 241.21 245.98">
  <defs>
    <style>
      .cls-1 {
        fill: #99d9f6;
      }

      .cls-2 {
        fill: #26b0fb;
      }

      .cls-3 {
        fill: #020202;
      }

      .cls-4 {
        fill: #031149;
      }

      .cls-5 {
        fill: #60c8f8;
      }

      .cls-6 {
        fill: #1e64b8;
      }
    </style>
  </defs>
  <path class="cls-6" d="M92.74,193.76c-.17,1.17,0,2.3.82,3.35-.47,1.39-.32,2.68-.3,4.12-.42.61-.81,1.52-.42,2.18.6,1.01.61,1.87.47,3.02l-.24,2.02c-.06.5.46,1.47.11,2-.64.96-.44,1.68-.32,2.74.09.77-.12,1.6.1,2.48s0,1.9-.89,2.2c-.66.22-1.7.55-2.32.56-1.09-.55-1.81-.3-2.94-.15l-4.27.55-2.92.28c-1.62.16-3.27-.31-4.85.31-.16.06-.31.08-.46.08-.09,0-.2-.05-.16-.2.6-.44,1.43-.17,1.81-.77,1.23.34,2.58.33,3.88.22s2.43-.62,3.88-.43c.23.03.52-.18.5-.4l2.82.09c.22,0,.44-.04.54-.29l1.73.03c.18,0,.32.42.69.25.14-.06.19-.31.13-.49.16.01.37-.03.54.05.64.28,1.49-.33,1.49-1.16l.03-4.61c0-.24.03-.53-.04-.76.68-.45.77-1.44.3-2.05l-.04-1.29c.72-1.51.03-3.21.05-4.9.03-2.39.81-5.32-.33-7.26.23-.48-.06-1.19-.08-1.7l.68-.08Z"/>
  <path class="cls-6" d="M92.72,176.74l-.63-.32c.04-.19.18-.53.1-.72-.62-1.49.74-2.59.02-3.36v-1.03s-.19-2.56-.19-2.56l.19-1.05c.02-.12.06-.4-.01-.51.48-1,.04-2.21.04-3.38v-1.53s-.02-.52-.02-.52c-.02-1.25-1.44-2.35-1.84-3.35,1.58.88,2.48,2.43,2.32,4.28s.39,3.91-.24,5.91c.44,2.17.33,4.33.03,6.56l.24,1.59Z"/>
  <path class="cls-6" d="M92.75,193.49l-.43-4.38c-.01-.13-.17-.35-.13-.5.1-.46-.33-.87-.47-1.37,1.43-2.79.32-4.13.37-5.18l.12-2.49.03-1.24c0-.37.09-.71.46-.84-.09,1.36.02,2.69-.21,4.17l.6,3.35c.13.74-.89,1.56-.75,2.34l.94,5.13c.09.49-.21.96-.53,1.02Z"/>
  <path class="cls-3" d="M31.13,163.57v.77s0,6.19,0,6.19l.03,4.14c0,.44-.24.7-.53.77l.12-4.53.27-14.53.12,7.19Z"/>
  <path class="cls-6" d="M66.69,218.82c.22.18.49.24.77.22-.76.79-1.9.85-3.08.78-1.59-.1-3.08.24-4.57.14l-2.39-.15c-.1-.25.02-.46.17-.49.19-.04.67-.13.82-.08,1.17.43,2.03.13,3.14.12l4.11-.05c.23,0,.4-.06.48-.16.06-.07.07-.25.04-.34h.5Z"/>
  <path class="cls-6" d="M51.23,219.55h.51c.61.67,1.68-.41,3.93.2.52.14,1.05.05,1.48.06.02.1-.09.26-.28.26h-12.58c-.32,0-.54-.35-.54-.52,1.92.8,4.08-.5,6.29.17.48.14.89.15,1.18-.17Z"/>
  <path class="cls-3" d="M31.1,198.65c-.5-1.25-.7-2.84-.35-4.25.25-1-.06-1.75-.07-2.73l-.06-5.39c.53.36.72,1.33.49,2.02-.33,1-.03,1.69-.04,2.64l-.03,4.81.06,2.91Z"/>
  <path class="cls-3" d="M32.12,66.85l.03,2.55v2.85s.06,4.65.06,4.65c-.76-1.53-.39-3.21-.39-4.94v-4.56c0-.57-.38-.93.07-1.39-.13.35.23.63.23.84Z"/>
  <path class="cls-3" d="M30.62,183.69l.04-2.8c.02-1.14.04-2.01,0-3.16l-.03-1.27c.27.08.49.34.5.77l.02,5.17c0,.61-.03,1.14-.54,1.28Z"/>
  <path class="cls-6" d="M32.15,48.52v-2.06s.02-5.41.02-5.41c0-.66-.16-1.33.46-1.56-.16.5-.4,1.09-.11,1.7s-.03,1.12-.04,1.72l-.09,5.35c0,.18-.12.28-.24.27Z"/>
  <path class="cls-3" d="M32.24,61.24c0,.57-.16,1.16-.07,1.73-.25-.07-.27-.4-.28-.75l-.08-2.65.1-5.1c0-.19.14-.28.27-.26l.06,7.03Z"/>
  <path class="cls-3" d="M32.14,84.39c-.75-.91-.73-4.18.09-5.68-.49,1.82.16,3.61-.09,5.68Z"/>
  <polygon class="cls-3" points="145.81 73.54 145.81 73.8 145.5 73.79 145.71 65.56 145.81 73.54"/>
  <path class="cls-3" d="M64.1,21.43l-3.1-.03c-.67,0-1.26.24-1.79.26-.09-.2.03-.43.18-.47.2-.05.65.06.87.02,1.38-.27,2.76-.56,3.84.22Z"/>
  <path class="cls-3" d="M77.25,22.41l-6.2.08c-.36,0-.59-.09-.75-.28l2.69-.06c1.49-.02,2.94-.19,4.27.26Z"/>
  <path class="cls-3" d="M31.12,203.81v2.06c-.17-.03-.27-.22-.27-.5l-.03-2.59c0-.77-.11-1.52.29-2.08v3.1Z"/>
  <path class="cls-3" d="M145.81,78.96l-.05.48c-.54-1.49.03-3.28-.26-4.85l.31-.02v4.39Z"/>
  <path class="cls-3" d="M137.77,192.75c-.35-.78-.65-3.13.05-3.39l-.05,3.39Z"/>
  <path class="cls-3" d="M32.15,48.52v1.81s0,.26,0,.26c-.16-.03-.27-.23-.27-.5v-3.13c0-.28.1-.47.27-.5v2.06Z"/>
  <path class="cls-3" d="M32.72,29.46v-3.92c.35.61.37,3.18,0,3.92Z"/>
  <path class="cls-6" d="M32.68,65.8c-.45.13-.6.6-.56,1.05,0-.21-.36-.49-.23-.84.24-.24.29-.89.78-.99v.78Z"/>
  <path class="cls-1" d="M199.34,87.28l.07-2.13c0-.08-.07-.24-.08-.4l.37-.09v2.03c-.01.33-.12.49-.36.59Z"/>
  <path class="cls-6" d="M33.96,216.76v.73c-.37-.12-.44-.48-.54-.76l.54.03Z"/>
  <path class="cls-6" d="M32.65,38.2c-.76-.53-.54-2.02,0-3.07.18.38-.09,1.09-.2,1.56-.15.63.14,1.06.19,1.51Z"/>
  <path class="cls-6" d="M102.48,57.05c-.16-.12-.35-.21-.56-.28.02-.09.03-.23-.02-.34-.08-.17-.29-.11-.42-.12.03-.25.03-.62-.13-.83-.18-.24-.54-.32-.82-.35.07-.22-.01-.42-.21-.52l.11-.67,2.04,3.12Z"/>
  <path class="cls-6" d="M145.81,74.57l-.31.02c-.06-.32,0-.5,0-.79h.3v.78Z"/>
  <path class="cls-6" d="M99.68,52.64l-.26-.26c.13,0,.25.13.26.26Z"/>
  <path class="cls-6" d="M92.71,177.24v-.25c.12.06.12.19,0,.25Z"/>
  <path class="cls-6" d="M100.44,53.69c-.33-.16-.63-.46-.76-.79.34.15.64.42.76.79Z"/>
  <path class="cls-4" d="M146.15,78.95h-.34s0-4.38,0-4.38v-.77s0-.26,0-.26l.54-.25c-.4.57-.14,1.17-.14,1.84-.01,1.27-.4,2.62-.06,3.82Z"/>
  <g>
    <path class="cls-1" d="M42.44,26.33c.56.41,1.26.25,2.16.28-.44.78-.95,1.34-1.65,1.89-.51,2.12.08,4.33,0,6.59l-.1,2.58-.1,3.62c-.03,1.21-.15,2.51.55,3.57.27.4.83.23,1.14.1.4-.18.47-.79.83-1.13.65-.62,1.55-1.04,1.97-1.9.57-1.19,1.73-1.7,2.59-2.56.71-.71,1.21-1.48,2.05-2.11l1.72-2.03c1.39,1-1.31,1.82-2.96,6.02-.19.48-1.05.79-1.06,1.33l-.37-.03c-.61-.05-1.19.48-1.1,1.08l.03.19c-.18,0-.4.04-.54.15-.23.18-.28.48-.26.73,0,.08-.05.25-.02.34-.82-.06-1.11.83-1.62,1.27-3.02,2.59-2.99,4.72-2.83,8.18.06,1.31-.29,2.71-.15,4.09.18,1.8-.1,3.39-.22,5.2-.08,1.18.71,2.5,0,3.65-.16.25-.57.47-.58.84,0,.25.56.54.63.83.37,1.51.15,3.42-.39,4.87-.4,1.08-.14,1.43.4,2.29s-.02,2.27-.04,3.19l-.08,3.95,2.63-.78c.32-.09,1.88-2.51,2.31-3.94.32-1.08,1.67-1.53,2.42-2.12.62-.48.89-1.27,1.33-1.85l3.56-4.67.81-2.03c2.61-.25,1.62-3.58,4.33-5.66,1.03-.79,3.13-1.61,3.88-3.38.65-1.53,1.78-2.49,3.13-3.37l1.72-2.84c.46-.76.98-1.34.78-2.18l-.12-.48c.19.02.4-.05.51-.21s.14-.37.15-.55l.34-.02c.5-.03.91-.26.92-.77.6.14,1.49-1.29,2.06-2.57.73-1.63,2.45-2.55,3.4-3.98,1.43-2.16,2.96-4,4.65-5.94l1.89-2.18-2.41-3.57c-.43-.64-.89-1.19-.92-1.93.01-.17.11-.35.22-.43.18-.12.41-.06.56-.09-.21.8.19,1.3.63,1.95l2.61,3.86c.73,1.08,1.84,2.09,2.32,3.29.3.74.73.94,1.1,1.49l8.47,12.47c.26.38.61.57.9.8-.05.24-.34.39-.51.45-.5,0-.64-.32-.91-.72l-1.99-2.87c-.26-.37-.39-.89-.69-1.12-.16-.13-.14-.59-.55-.53.03-.06.04-.16.03-.23-.03-.44-.37-.79-.81-.84.18-1.19-.98-1.13-1.04-1.95-.04-.57-.47-1.02-1.02-1.13v-.43c0-.57-.48-1-1.04-1.11.04-.41-.11-.8-.5-.98-.02-.3-.23-.55-.54-.57l.05-.45c-.56-1.01-1.19-2.06-2.48-2.83-.68,1.62-1.6,2.49-2.98,3.19-.45.76-1.2,1.71-1.83,2.47s-.87,2.42-3.16,3.9c-.53.34-.7,1.8-1.39,2.06-1.01.38-1.06,1.17-1.63,1.78l-4.25,4.57c-.27.44-.14,1.72-.86,1.89-.63.15-.94.78-1.33,1-3.43,1.91-1.17,3.81-3,4.22-1.53.34-2.1,1.63-2.55,2.93-.9,2.61-3.69,3.39-4.97,5.59l-1.95,2.35c-.78.94-1.14,1.82-2.01,2.73l-.91,2.62-1.65.95c-.73.78-.73,1.99-1.3,2.85-.41.63-.77,1.32-1.1,1.96l-2.33.8c-.56,3.13-2.73,3.67-2.7,5.29l.16,8.13.26,5.39c.04.79,1.07,4.3.89,9.22-.02.61,1.05,2.91,1.79,2.18.14-.14.08-.48.2-.63s.41-.38.57-.52c.35-.28.58-.61.74-1.19.51,0,.82.02,1.37.19-.53.4-.58.86-.92,1.42l-1.83,2.96c-.17,1.38-.42,3.39.04,4.73.87,2.52.88,4.42,2.18,6.77.64.91,1.85-.45,2.12-1.16l2.66-3.25c.42-.51.27-1.03.88-1.53,1.7-1.4,1.93-2.62,3.58-4.6.73-.87,1.25-1.73,2.1-2.58.4-.4,1.18-1.09,1.42-1.58.65-1.34,1.05-2.57,2.28-3.5,1.1-.84,2.19-1.95,2.99-3.11.48-.7.53-1.96,1.99-1.64-.69,1.5-1.42,3.02-2.58,4.09-1.34,1.23-2.12,2.86-3.29,4.2-.65.75-1.45,1.01-1.65,2.25l-1.39,1.38c-.73,1.87-1.84,3.16-3.16,4.59-.46.5-.57,1.15-1.27,1.66-1.35.98-1.85,3.21-3.48,3.99-1.73,2.23-3.21,4.99-2.27,7.65.17.48.95.84.7,1.67-.28.94.49,1.49.78,2.11.46,1,.76,1.9,1.39,2.89l1.07,1.67c.55.86.79,1.39,1.13,2.32l2.45,3.44c.19.27.15,1.08.47,1.26,1.46.82,3.32,3.61,2.61,4.71l-.99-.04c-.56-.02-1.16-.11-1.62.21-.11.06-.37.05-.51.05.12-.21,0-.41-.13-.46s-.53-.3-.67-.26c-2.4.78-4.48-.88-6.1.59-.12-.11-.39-.16-.52-.19-.44-.38-1.14,0-1.68.06l-.6.06c-.66-.75-2.14.21-2.48-.14-.84-.87-1.6-1.16-2.8-.78-.48.15-1.31-.03-1.72.26s-.76.37-1.13.37c-.14,0-1.02-1.79-4.74-.35l-.31-.15c.46-.23.53-.74.53-1.36l-.02-38.35-.47-.91c.95.66,2.62.78,3.31-.43.35-.61.47-1.32.93-1.93.21-.28.15-.86-.01-1.16-.12-.22-.36-.41-.73-.48.03-.13.02-.45,0-.59.65-.16.88-.76.95-1.48.24-2.45.13-4.82-.02-7.27-.05-.78.34-1.64-.07-2.4-.15-.27-.63-.4-.87-.47l.06-1.32c.9-.7.68-2.92,0-4.37.14-.18.02-.65.04-.87.99-.74.97-2.26.37-3.31-.4-.71.48-1.32.5-1.84.09-1.98.44-4.22-.16-6.05-.4-1.22-.42-1.65.04-2.86.71-1.85-.04-4.22.1-6.17.11-1.58-.09-2.86-.01-4.41l.12-2.59.05-3.1-.02-.97c-.03-1.6-.28-3.18-.24-4.76l.03-1.2c.24.03.3-.25-.01-.23.32-.79.17-1.56.16-2.38,1-1.27,1.13-4.22.75-5.6-.41-1.52-.83-2.94.37-4.3-.07-.68-.36-1.51-.22-2.17.2-.93-.35-1.44-.44-2.14l-.38-3.1-.02-2.53c.18-.03.39-.22.38-.5-.05-1.17.69-2.45.88-4.13.78.04,2.06-.04,2.89-.28Z"/>
    <path class="cls-3" d="M33.48,155.29c-.03.72.35,1.21.82,1.75.61.7-.06,1.96.03,2.71.18,1.5.18,2.83.24,4.33.06,1.35-.3,2.38-.52,3.68l.12,2.29c.03.6-.05,1.89.12,2.51.42,1.5-.15,2.62-.16,4.03l-.11,9.66c0,.78.19,1.29.06,2.14-.22,1.36-.21,2.92-.04,4.3l.28,2.35c.12,1.02.53,2.22.02,3.23-.29.57-.62,1.18-.36,1.89.79,2.14.54,4.27.29,6.46-.22,1.98.14,6.28.59,6.74.34.35.99.63,1.64.53,1.35-.2,2.58.17,3.87.17h6.43c.91,0,1.49-.23,2.45-.05,1.11.21,2.54.21,3.68.02,2.32-.38,4.49-.15,6.78-.02l3.11-.21,2.3-.02,6.35-.04c1.97-.01,3.78-.19,5.76.1h2.33c1.58-.01,3.02-.36,4.6-.21l.05-2.03c.44-1.02.69-1.84.33-2.83.08-.15.13-.41.13-.59v-1.81s0-.98,0-.98v-2.39s0-2.04,0-2.04v-39.37c-.36-.75-1.06-2.08-.06-2.67.23-.43.08-1.17.07-1.82.33.09.36.31.5.44.2.18.38-.06.42-.19l.25-.81c.38.65.95.61,1.7.84l1.63.5c.31.09.57.19.6.52.04.55.34.94.88,1.28.8.5.46,2.13,1.53,2.08v.52c-1.17-.15-.08,1.63-.29,4.39-.02.24.2.42.26.52.07.11.03.39.01.51-1.21-.06-.74,3.21-.35,3.58.07.07.25.08.35.03v1.03s-.77,2.56-.77,2.56c-.07.26.12.56.25.68.11.1.33.15.51.12.07.19-.06.54-.1.72l-.35,1.8c.22.1.37.1.5.11l-.03,1.24c0-.05-.45-.03-.47.07l-.2,2.45c.26,1.29.87,2.65.14,3.94-.51.9-.5,2.18.52,2.57-.04.16.12.38.13.5-.37.04-.39.36-.38.75l.12,3.97c.02.51.31,1.22.08,1.7-.19.39-.19.62-.07,1.16.45,2.11-.08,4.2-.1,6.37,0,1.22.48,2.36.18,3.62-.1.41.26.78.26,1.01l.04,1.29c-.34.58-.52,1.42-.3,2.05.08.23.05.52.04.76-1.25.09.43,3.25-1.52,5.77-.17-.07-.37-.03-.54-.05-.28-.02-.64-.05-.82.24l-1.73-.03c-.12,0-.29-.28-.41-.23-.16.07-.19.39-.14.52l-2.82-.09c-1.64-.05-3.73-.34-4.38.83-1.3.11-2.65.12-3.88-.22-2.22.48-4.36-.34-5.43.3-.3-.12-.95-.11-1.25,0-.09-.36-.4-.33-.66-.33-.34,0-.49.2-.39.54-.08-.02-.18,0-.25,0h-.52c.04-.3-.13-.49-.37-.54-.26-.05-.43.09-.4.33h-.5s-6.64.09-6.64.09c-1.1.01-2.19-.38-3.2.46l-2.04-.49-2.56.68h-.51c-3.41-1.4-5.72.76-7.38-.83l-5-.28c-1.23-.07-2.39-.67-3.6-.69h-1.03c-.07-.07-.15-.23-.25-.26v-.73c0-.66-.37-1.28-1.05-1.31v-.76c0-.11.03-.26-.03-.4-.06-.16-.3-.24-.49-.19l-.23-.51-.36-2.57c-.2-1.42.59-2.84.13-4.27.18-1.56-.02-3.03-.56-4.53.81-1.29.89-2.68.55-4.11-.98-1.69-.14-3.41-.25-5.09l-.21-3.09c-.11-1.73-.24-3.26.03-4.99.2-1.27-.49-2.96.02-4.19.37-.89.35-1.38.21-2.37l-.38-2.67.1-4.13c.01-.55.43-1.08.34-1.67l-.2-1.18c.59-1.01.28-3.25.13-5.07.45-2.71-.18-5.38.69-8.13l1.08-.25Z"/>
    <path class="cls-4" d="M113.08,151.94l-.05.81c-.09.04-.34.36-.56.39-1.39.06-2.74-.48-3.73-1.48.08-1.28-.56-1.99-.59-3.07l-.03-.36c1.06.86,1.25,1.96,1.61,3.26.17.62,1.72,1.03,2.16.62.7-.64-.22-1.52-.37-2.05-.21-.73-.5-1.29-1.01-2l-1.07-1.49-.8-1.27c-.67-1.08-1.6-1.98-2.3-3-.28-.4-.25-.96-.82-1.42-1.49-1.2-1.95-3.32-3.27-3.92-.12-.05-.2-.55-.26-.56l-.65-.05c-.31-.47-.32-1.28-.39-1.86-.31.07-.71.15-.76.02l-.38-.95c-.15-.38-.84-.43-.9-.86-.06-.39.06-.74.19-1.1l-.8-.04c-.08,0-.19.15-.06.24.08.05.3.2.29.34-.23.2-.43.08-.56-.06-.21-.22-.37-.57-.38-.77.35-.21.61-.74.41-1.19-.08.3-.68.56-.84.38l-.12-2.04-.88.83c-.34-1.53-1.59-1.88-1.79-3.62-.09-.74-1.21-1.26-1.61-1.82-.6-.84-1.05-1.54-1.84-2.13-.06-.35.34-.99.33-1.4,0-1.23-.94-2.23-1.6-3.18l-3.72-5.35c-.22-.32-1.46.05-1.46.44l.03,14.08,1.27.69c-.73.83-.36,1.75-.41,2.72-.06,1.03-.29,2.02.32,2.94-.26.58-.46,1.3-.45,2.02l.07,7.67c.49,1.25.69,2.54-.07,3.71l.07,9.25,1.72,1.48c1.01-.44,2.01.24,2.17,1.1l-1.63-.5c-.75-.23-1.32-.2-1.7-.84l-.25.81c-.04.13-.23.36-.42.19-.14-.13-.16-.35-.5-.44,0,.65.16,1.39-.07,1.82-1,.59-.3,1.93.05,2.67v39.37c-.44.2-.87-1.37-.73-2.03.4-1.85.46-3.7-.34-5.46.42-1.31.45-2.59.11-3.91-.08-.5-.09-.96-.03-1.47.75-.88.7-2.02-.01-2.93l-.1-9.69c0-.97-.37-1.62-.22-2.67.49-3.39-.48-5.11-.29-5.97.18-.79.33-2.43-.07-3.09-.45-.74-.49-1.13-.57-2-.18-1.8-3.75-.22-5.88-.86-1.17-.35-2.12-.76-3.46-.71l-2.2.08c-1.17.37-2.07.09-3.23,0l-2.57-.22-4.71-.19c-.58-.02-1.01-.73-1.55-.73-.57,0-.77.45-1.31.72-.7.35-2.13.36-2.76,0-1.12-.66-1.8-.38-2.87.05-.52.21-1.85.32-2.27-.06-.52-.47-.7-.63-1.54-.68l-2.21-.13c-1.09.28-1.91,0-2.94-.01l-5.4-.04c-.74,0-1.76.73-1.76,1.5v3.08c.67,3.06-.44,5.68.34,8.96.34,1.43-.2,2.21-.23,3.51l-.25,11.24c-.04,1.72-.03,3.1.18,4.75.18,1.4-.3,2.86.12,4.38.58,2.12-1.03,4.76.79,7.4-.65.68-.69,1.28-.79,2.09-.21,1.79-.58,4.07.69,5.61.88.79,2.72.08,3.76.17l2.3.18c.95-.17,1.74.18,2.61.18l7.26-.04c.83-.91,1.96-1,2.8-.1l2.52-.39c1,.56,1.98.46,2.82-.37,1.13.63,2.18.36,3.26,0l6.54-.16c.79-.02,1.34,0,2.12.01h5.64s2.78-.29,2.78-.29c.93-.1,1.72-.7,2.75-.51l.75-1.39c.36.99.1,1.81-.33,2.83l-.05,2.03c-1.59-.15-3.02.2-4.6.2h-2.33c-1.98-.28-3.79-.11-5.76-.09l-6.35.04-2.3.02-3.11.21c-2.29-.13-4.46-.37-6.78.02-1.13.19-2.57.19-3.68-.02-.96-.18-1.54.05-2.45.05h-6.43c-1.29,0-2.52-.37-3.87-.17-.66.1-1.3-.18-1.64-.53-.45-.46-.81-4.76-.59-6.74.25-2.2.5-4.33-.29-6.46-.26-.71.07-1.32.36-1.89.51-1.01.1-2.21-.02-3.23l-.28-2.35c-.16-1.38-.17-2.94.04-4.3.14-.84-.07-1.35-.06-2.14l.11-9.66c.02-1.41.58-2.53.16-4.03-.17-.62-.09-1.91-.12-2.51l-.12-2.29c.21-1.3.57-2.33.52-3.68-.06-1.51-.06-2.84-.24-4.33-.09-.74.58-2-.03-2.71-.47-.54-.85-1.03-.82-1.75l1.98.44c.99-.17,1.71-.01,2.66-.01h4.08c.86.01,1.2.33,1.69.77,1.29.28,2.8.19,4.15.01l.81-.66c.47-.39,1.9,1.5,3.51.34.64-.46,1.42.19,1.93.16,1.22-.08,2.18.27,3.21.29l4.56.13c1.76.05,3.39-.41,5.18.06l2.77.08.73.42c.07.04,1.29-1.18,4.7.07,1.21.44,2.34.14,3.67.28.96.1,2.49-.3,2.48-1.65l-.09-17.15c0-1.63-.02-2.87-.01-4.54l.03-10.62-.05-5.31c-1.25-1.83-.7-4.46-.41-6.98l-.42-1.03-.04-5.68c.44-.45,1.01-1.04,1.5-1.32,1.24-.14,1.66,1.15,2.32,1.55,1.53.91,2.48,2.14,2.67,3.96,1.11.64,1.85,1.67,2.23,2.94.2.65.87,1.23,1.04,2,.1.45,1.06.51,1.37.68.66,1.21,1.25,2.69,2.11,3.36l.41,1.54c.55.59.63,1.04,1,1.74.32.61,1.56,1.17,1.69,2.03.43,2.9,3.46,3.03,3.03,5.99,1.85.84,2.56,2.57,3.37,4.24.34.71.93,1.03,1.11,2.03.12.65,1.01,1.47,1.39,2.09l2.67,4.34c.42.68.59,1.4,1.01,2.05,1.11,1.74,2.72,3.27,3.02,5.46.12.9-.23,1.92.53,2.55Z"/>
    <path class="cls-4" d="M50.19,20.91c.07.14.19.23.23.54l-8.2-.09c-2.69-.03-5.23-.32-7.85.2-.5.82-.64,1.51-1,2.53.52-.47.9.04,1.17,0,1.56-.22,4.03.23,6.12-.06,2.31-.33,4.41-.01,6.7-.04l5.37-.05c.83,0,1.34.04,2.12.04h13.4s-2.63-.61-2.63-.61c1.56-.69,3.04-.36,4.5-.34,2.46.03,4.92-.04,7.37.36.02.47.58.6.89.74l.46,1.64c.84.09,1.09.68,1.03,1.36l-1.57.51c-1.56.5-2.89.25-4.32-.34l-3.89-.54c-1.05-.41-1.96-.71-3.02.04-.65.47-1.44-.36-1.95-.39l-4.9-.27c-.87-.05-1.96-.29-2.83-.24-2.65.15-5.07.34-7.73-.04-1.01-.14-2.29-.07-3.21-.44-1.42-.57-2.44-.31-3.87.02s-3.1.12-4.54.93c-1.14,3.32.35,6.66-1.16,8.16-.71.71,1.61,2.76.14,5.5.27.58.5,1.24.37,2.07-.12.74.59,2.23.02,2.93-.71.87-.05,1.7-.21,2.43-.28,1.26-.9,2.23.03,3.54.16.23-.03,4.02-1.33,5.03.64.58.82,1.21.86,2.04l.13,2.79c-.17,1.43-.33,2.71-.33,4.2l-.04,21.27c-.49.49-.93,1.04-.86,1.8l.8,1.44c.23,1.61.23,3.5-.06,5.04-.17.9-.46,1.1-.02,2.06.54,1.16.08,2.79.09,4.01l.1,8.5c.02,1.63-1.72,3.34-3.08,2.62l.53-6.48c.07-.73-.26-1.54-.02-2.31.77-2.45-1.29-5.59.15-8.65.51-1.09.26-2.01-.47-2.88,1.93-2.2-.44-3.75.31-7.33.21-1.02.91-1.98.3-3.01-.37-.62-.34-1.16-.39-1.95-.09-1.2-.54-2.51-.04-3.65.11-.09.51-.23.49-.34l-.14-.65c.24-.8-.34-1.64-.44-2.33-.32-2.24.12-4.3-.03-6.48l-.18-2.55.25-1.87c-.39-2.89.21-5.66-.19-7.62-.31-1.5.05-2.53.24-3.97s-.72-3.08-.41-4.57c.35-1.68.28-3.22-.03-4.88-.22-1.17.16-2.22.31-3.24.19-1.34-.28-2.75-.46-4.04-.07,1.39-.29,2.75-.18,4.05.17,2.05-.03,4,0,6.04.04,2.15-.13,4.23-.23,6.48-.05,1.17.43,2.08.09,3.4-.52,2.02.04,4.72-.34,6.91l.32,2.3c-.45-.05-.56-.56-.71-.97l-.06-7.03c0-.18.21-.42-.04-.73-.37-.46-.05-.79-.04-1.1.38-.19.54-.55.57-.91.03-.46-.14-.9-.51-1.14v-1.81c.12,0,.23-.09.24-.27l.09-5.35c.01-.6.33-1.09.04-1.72s-.05-1.21.11-1.7c.11-.35.06-.9.02-1.28-.06-.45-.35-.88-.19-1.51.11-.47.38-1.18.2-1.56-.66-1.41.74-2.87-.47-4.34.46-.42.36-.99.53-1.33.37-.74.35-3.31,0-3.92-.87-1.49.7-4.29,1.79-4.53l2.33-.52c2.77-.62,6.55.45,7.72.3.58-.07,1.47.48,2-.48l1.1.64c.87-.41,1.76-.33,2.53-.04ZM33.29,25.84c.25-.27.23-1.02.05-1.57,0,0-.08.05-.14.14-.01.47-.09.96.09,1.44ZM33.45,27.62h-.26v4.9h.26v-4.9Z"/>
    <path class="cls-6" d="M109.46,140.65c-.1.53.52.76.65,1.06.29.66.63,1.94,1.45,2.45.94.59.95,1.41,1.3,2.39.31.84,1.62,1.74,1.45,2.85-.13.83-1.04,1.64-.71,2.56h-.52c-.77-.64-.41-1.66-.53-2.56-.3-2.2-1.92-3.72-3.02-5.46-.42-.66-.59-1.37-1.01-2.05l-2.67-4.34c-.38-.62-1.27-1.43-1.39-2.09-.18-1-.77-1.32-1.11-2.03-.81-1.68-1.51-3.41-3.37-4.24.43-2.95-2.6-3.08-3.03-5.99-.13-.86-1.36-1.42-1.69-2.03-.36-.7-.45-1.15-1-1.74l-.41-1.54c-.86-.67-1.45-2.15-2.11-3.36-.31-.17-1.27-.24-1.37-.68-.17-.77-.85-1.35-1.04-2-.39-1.27-1.12-2.3-2.23-2.94-.19-1.82-1.14-3.05-2.67-3.96-.66-.39-1.08-1.68-2.32-1.55-.49.29-1.06.88-1.5,1.32l.04,5.68.42,1.03c-.29,2.51-.84,5.15.41,6.98l.05,5.31-.03,10.62c0,1.67,0,2.91.01,4.54l.09,17.15c0,1.35-1.52,1.76-2.48,1.65-1.33-.14-2.46.16-3.67-.28-3.41-1.25-4.63-.03-4.7-.07l-.73-.42-2.77-.08c-1.79-.47-3.42-.01-5.18-.06l-4.56-.13c-1.03-.03-1.99-.38-3.21-.29-.51.03-1.29-.62-1.93-.16-1.61,1.16-3.04-.72-3.51-.34l-.81.66c-1.35.17-2.86.27-4.15-.01-.49-.44-.83-.75-1.69-.76h-4.08c-.95-.01-1.67-.17-2.66,0l-1.98-.44-1.08.25c-.59.14-.95.87-.95,1.6l-.05,5.93c0,.28-.09.47-.27.5l-.12-7.19c0-.37.51-.96.81-1.11l1.88-.94.31.15c0,1.55,2.4-1.19,4.41.84l3.21-.37c1.11-.13,2-.2,2.72.9l2.53-.72.6-.06c-.04.11-.13.24-.07.51l1.75-.57c.13.03.41.09.52.19l6.91.14c.14,0,.4.01.51-.05.21.33.56.31.95.31.33,0,.71-.02.67-.53l.99.04c.51.02,1.03.28,1.57.18,2.22-.41,4.48-.18,6.83-.05l3.9.2c.79.04,1.28.46,2.18.47,1.92.03,3.85.41,5.87.08l.13-8.57.5-.76-.51-.79.05-6.27c.02-2.38-.12-4.6-.13-6.64l-.06-7.76c0-1.25.07-2.43-.07-3.72-.11-.97.38-1.68-.23-2.76l-.39-2.39.25-1.73c.06-.44-.54-.77-.53-1.21,0-.37.46-.66.73-1.01l-.64-1.81-.06-5.83c-.01-1.24,1.32-2.41,2.53-3.28l2.18.34c.67.1,4.14,4.53,4.98,6.54.83.66,1.39,1.18,1.88,2.13.3.58.87.94,1.08,1.74l1.59,2.19c.57.79.62,1.78,1.32,2.59.59.69,1.1,1.42,1.16,2.45,1.19.54,1.99,1.44,2.06,2.82.9.52,1.31,1.31.64,2.38,1.97.31,2.55,2.19,3.17,4.16l1.74,1.31.4,1.38.99,1.4c.57.8,1.25,1.39.96,2.63,1.1.62,1.93,1.46,2.16,2.69,1.19.8.55,2.22,1.53,2.42Z"/>
    <path class="cls-6" d="M70.3,22.2c.16.19.38.28.75.28l6.2-.08c2.23.76,4.54,1.29,4.43,3.94-.03.77-.41,1.4-1.07,1.51-.14.02-.38-.04-.56.09-.11.08-.2.26-.22.43-2.29.45-4.66.29-6.95-.02-.38-.7-1.27-.57-1.98-.48-2.15-.92-4.12.11-6.09-.45-1.02-.29-2.2.19-3.2,0-.67-.12-1.46-.3-2.13-.1-.76-.6-1.71-1.12-2.77-.62s-3.82-.04-6.01-.08l-5.43-.1c-.82-.64-1.86-.55-2.83-.19-.83.24-2.11.32-2.89.28-1.71-.08-1.28,2.81-1.26,4.63l.02,2.53c-.63-.22-.5,1.56-.18,3.11.39,1.88.01,3.59.03,5.46l.08,8.75c0,.82.16,1.59-.16,2.38-.02.05.02.17.01.23l-.03,1.2c-1.19.15.01,1.91-.27,4.22-.02.19.09.4.17.47.07.06.23.09.34.07l.02.97c-.72-.19-.17.66-.99,2.64-.22.52.28,1.29.24,1.69-.38,1.14-.46,2.1.01,3.15.34.75.07,1.21-.18,1.86-.47,1.21.18,2.43.33,3.64.28,2.36-1.51,4.57,0,7.52.43.84-.29,1.71-.34,2.49l-.25,3.89c-.07,1.14.31,2.38.18,3.46-.03.23.09.7-.04.87-.35.45,0,1.01-.03,1.56-.07,1-.44,2.02.03,2.81l-.06,1.32c.22.88-.15,1.95.01,2.84.99,5.67-.25,7.62,0,8.77.03.14.04.46,0,.59l-.37,1.75c-.52.64-1.07,1-1.4,1.85-.69-.15-1.25-.28-1.78-.14-.66-.16-1.33-1.22-1.46-2.01l-.38-2.29c.3-1.13.23-2.22.45-3.38.18,1.55.03,2.73.57,4.22.19.52-.1,1.68.63,2.07,1.36.72,3.1-.99,3.08-2.62l-.1-8.5c-.01-1.22.45-2.85-.09-4.01-.44-.96-.16-1.16.02-2.06.3-1.54.29-3.43.06-5.04l-.8-1.44c-.07-.76.37-1.31.86-1.8l.04-21.27c0-1.5.16-2.77.33-4.2l-.13-2.79c-.04-.83-.22-1.45-.86-2.04,1.3-1,1.49-4.79,1.33-5.03-.92-1.31-.31-2.28-.03-3.54.16-.72-.5-1.56.21-2.43.57-.7-.14-2.19-.02-2.93.13-.83-.1-1.49-.37-2.07,1.47-2.74-.84-4.8-.14-5.5,1.5-1.5.02-4.84,1.16-8.16,1.43-.81,3.09-.6,4.54-.93s2.45-.59,3.87-.02c.91.37,2.2.29,3.21.44,2.67.38,5.09.19,7.73.04.87-.05,1.96.19,2.83.24l4.9.27c.51.03,1.29.86,1.95.39,1.05-.76,1.96-.45,3.02-.04l3.89.54c1.42.59,2.76.85,4.32.34l1.57-.51.92-.05c.45-1.1-.1-1.82-.7-2.5-.85-.96-1.58-1.01-2.6-1.18-2.45-.4-4.91-.34-7.37-.36-.25-.36-.65-.47-1.14-.47.06-.38.21-.48.28-.62.37,0,.77-.05,1.03.27Z"/>
    <path class="cls-3" d="M33.51,111.79c-.73-.39-.44-1.55-.63-2.07-.54-1.48-.39-2.67-.57-4.22-.23,1.17-.16,2.26-.45,3.38-.04-.23-.39-.56-.17-.96.32-.59,0-1.08,0-1.63l-.03-6.43c0-.53.22-1.03.53-1.31.06,1.35-.68,2.6-.09,3.65.19-2.64,1.26-4.26.69-7.4-.22-1.18-.8-2.17-.41-3.31-.6.14-.58.46-.71.61.05-1.81-.23-3.66.16-5.4.5,2.05,0,3.92.88,4.67-.22-1.64-.46-3.1.05-4.59.44-1.27.34-2.13-.16-3.42-.3-.77-.38-2.44-.08-3.23.64-1.7.71-3,.02-4.69s.72-3.49.17-4c-.07-.3-.12-.95.02-1.24.2-.35.05-.6.04-1.11l-.09-3.3v-.78s0-.26,0-.26c.37-.12.18-.57.29-.75.25-.37.42-.96-.06-1.31l.04-.5-.32-2.3c.38-2.19-.18-4.89.34-6.91.34-1.32-.14-2.23-.09-3.4.09-2.24.26-4.32.23-6.48-.04-2.04.17-3.99,0-6.04-.11-1.3.11-2.66.18-4.05.18,1.29.66,2.7.46,4.04-.15,1.01-.53,2.07-.31,3.24.31,1.66.37,3.2.03,4.88-.31,1.49.6,3.14.41,4.57s-.54,2.47-.24,3.97c.4,1.96-.2,4.73.19,7.62l-.25,1.87.18,2.55c.15,2.18-.29,4.23.03,6.48.1.69.68,1.53.44,2.33l.14.65c.02.11-.38.25-.49.34-.5,1.15-.05,2.45.04,3.65.06.79.02,1.32.39,1.95.61,1.03-.09,1.99-.3,3.01-.75,3.58,1.62,5.12-.31,7.33.73.87.98,1.79.47,2.88-1.44,3.05.62,6.2-.15,8.65-.24.77.09,1.57.02,2.31l-.53,6.48Z"/>
    <path class="cls-6" d="M145.75,79.43l.05-.48h.34c.4,1.4.78,3.14.21,4.68-.24.66-.01.76.12,1.36.46,2.15.06,4.39-.21,6.56.56,1.57.8,3.05.16,4.68.76.9.05,2.21.25,2.99.43,1.69.36,2.88.26,4.5-.29,4.5.05,9.12-.29,13.16-.11,1.33.69,2.85-.43,4.2-.51-.24-1.26-.9-1.51-1.52-.59-1.46-1.48-2.35-2.66-3.36-.62-.54-.94-1.63-1.47-2.31l-1.92-2.47c-.51-.65-.83-1.36-1.6-1.55l-.3-.27c.06-1.17-.87-2.36-1.7-3.13-1.72-1.59-2.82-3.7-3.99-5.76-.54-.94-1.24-1.49-2.04-2.16l-.93-1.9c-.23-.47-1.29-.74-1.44-1.31-.29-1.15-.89-1.74-1.63-2.58s-1.01-2.22-1.71-3.18l-2.48-3.42c-.62-.85-.82-1.79-1.48-2.64l-2.48-3.2c-.08-.11-.69-.1-.67-.21l.1-.6c-.34-1.19-1.15-2-2-2.85-.34-.34-.5-1.13-.87-1.29-.07-1.11-1-1.88-1.58-2.68-.36-.5-.76-1.02-1.4-1.41.02-1.07-.64-1.81-1.14-2.68l-1.35-2.33c-.04-.11,0-.35.04-.51,1.05.27,1.66,1.54,1.79,2.76.93.66,1.55,1.46,1.51,2.61.48.58.95,1.18,1.55,1.56.79.51,1.4,2.62,2.04,3.4,1.84,2.27,3.78,5.17,5.24,7.6l1.67,2.78c.36.6.94.91,1.31,1.54l.86,1.47c.42.73.59,1.66,1.07,2.24.69.82,1.73,1.27,1.89,2.53.12.96.97,1.38,1.71,1.92l1.19,2.11c2.55,2.33,3.6,5.24,4.29,6.13l1.02,1.32c.41.53,1.54.94,1.68,1.78.19,1.07.87,1.39,1.52,2.22l1.77,2.27,1.1,1.7c.38.58.55,1.22.96,1.67,1.03,1.11,2.42,2.17,3.1,3.58.1.21.87.25.89.81.35-.78.13-1.68-.31-2.37-.54-.84.06-1.25.28-1.89.35-1.02.24-2.35.05-3.38-.61-3.28.85-5.8-.36-7.63.24-.44.73-1.1.41-1.79.36-1.26.09-2.44-.55-3.57.68-.87.83-1.83-.09-2.5l.55-2.23-.58-3.26c.2-1.02.05-2.17.35-3.03.48-1.41.79-2.74-.51-3.95,1.03-1.29.89-3.14.33-4.7Z"/>
    <path class="cls-6" d="M90.93,121.71c.78.59,1.24,1.29,1.84,2.13.4.56,1.52,1.08,1.61,1.82.21,1.74,1.46,2.09,1.79,3.62.2.89.43,1.77,1.43,2.03,0,.21.17.55.38.77.13.14.33.26.56.06-.02.58-.08,1.82.32,2.27,1.07.49,1.31,1.28,1.83,2.18.67,1.15,1.2,2.21,2.06,3.57l2.18,3.44c.7,1.1,1.53,1.58,1.64,3.06.05.64,1.11,1.21,1.56,1.58l.03.36c-.61-.08-1.45-.18-1.73-.83l-1.24-2.85c-.92-1-1.7-1.85-2.36-3.11l-.79-1.51-1.29-2.26-2.56-4.36c-.55-.94-.67-2.01-1.73-2.52-1-.48-1.01-1.98-1.54-2.73-.66-.94-.94-1.62-1.35-2.67l-2.15-2.36-.57-1.09-4.64,5.6c-.21.26-.45.72-.32.86l.6.63c.27.29-.79,1.03-.64,1.41l.69,1.8c-.12.99-.38,1.84-.24,2.83-.87,1.29-.67,2.77.16,4.03-.32,1.51-.21,2.98.13,4.48.06,1.14-.1,2.02-.76,2.93.09.63.65,1.6.43,2.18-.42,1.1-.06,1.68-.07,2.79s-.73,3.61.82,4.33c1.25.4,2.69.61,3.15,2.26h-.34c-.02-.34-.29-.44-.6-.53-.16-.86-1.17-1.54-2.17-1.1l-1.72-1.48-.07-9.25c.76-1.17.56-2.47.07-3.71l-.07-7.67c0-.72.19-1.44.45-2.02-.61-.92-.38-1.91-.32-2.94.05-.96-.32-1.89.41-2.72l3.76-4.26c.43-.48.95-.86,1.38-1.03Z"/>
    <path class="cls-4" d="M32.17,213.59l-.51.04c-.22-.65-.12-1.34-.6-2.04-.25-.37-.28-.96-.18-1.33,1.2-.46.66-1.83.62-4.07-.01-.84-.1-1.68-.38-2.37v-3.1c.45-.62.25-1.37-.03-2.06l-.06-2.91.03-4.81c0-.95-.3-1.64.04-2.64.23-.69.04-1.66-.49-2.02v-2.59c.52-.13.55-.67.55-1.28l-.02-5.17c0-.43-.22-.7-.5-.77,0-.3-.03-.72-.02-1.02.29-.07.53-.33.53-.77l-.03-4.14.66-.62c.1.59-.32,1.12-.34,1.67l-.1,4.13.38,2.67c.14.98.16,1.48-.21,2.37-.51,1.23.18,2.92-.02,4.19-.27,1.73-.15,3.26-.03,4.99l.21,3.09c.11,1.68-.73,3.4.25,5.09.34,1.43.26,2.82-.55,4.11.54,1.5.74,2.97.56,4.53.46,1.43-.33,2.84-.13,4.27l.36,2.57Z"/>
    <path class="cls-4" d="M31.82,86.72l.73-1.36c.15-.29-.25-.78-.41-.97.25-2.07-.4-3.86.09-5.68.24-.51-.02-1.24-.02-1.8l-.05-4.65.54-.8c.55.51-.89,2.24-.17,4s.62,2.99-.02,4.69c-.3.78-.22,2.45.08,3.23.5,1.29.6,2.15.16,3.42-.51,1.49-.28,2.95-.05,4.59-.87-.75-.39-2.62-.88-4.67Z"/>
    <path class="cls-4" d="M51.23,219.55c-.29.32-.7.32-1.18.17-2.21-.67-4.37.63-6.29-.17v-.38s-4.85-.22-4.85-.22l-3.17-.66c-.18-.04-.4-.1-.47-.18-.06-.07-.06-.27-.03-.36,1.22.02,2.37.63,3.6.69l5,.28c1.66,1.59,3.97-.57,7.38.83Z"/>
    <path class="cls-4" d="M66.19,218.81c.03.08.03.27-.04.34-.09.1-.25.16-.48.16l-4.11.05c-1.11.01-1.98.31-3.14-.12-.15-.05-.64.04-.82.08-.15.04-.28.25-.17.49h-.27c-.43-.02-.96.07-1.48-.07-2.25-.6-3.32.48-3.93-.19l2.56-.68,2.04.49c1.01-.84,2.1-.44,3.2-.46l6.64-.09Z"/>
    <path class="cls-4" d="M59.21,21.66c.53-.02,1.13-.27,1.79-.26l3.1.03c.16.11.31.46.52.52-.05,1.22-1.64-1.25-4.66.18-1.01.48-1.59.06-2.42-.24-3.59-1.29-7.6.44-6.57-.97.73-.27,1.49-.11,2.39-.06l2.19.11c1.28.07,2.46.75,3.65.7Z"/>
    <path class="cls-5" d="M33.74,113.72l-.05-.53c.53-.14,1.09-.01,1.78.14.33-.85.87-1.21,1.4-1.85l.37-1.75c.37.07.61.26.73.48.16.3.22.88.01,1.16-.46.61-.58,1.32-.93,1.93-.69,1.21-2.37,1.09-3.31.43Z"/>
    <path class="cls-6" d="M32.18,98.56c-.02-.49-.02-1.04-.24-1.6-.18-.46.2-.92.16-1.28l-.44-3.57c.13-.15.11-.47.71-.61-.39,1.15.19,2.13.41,3.31.57,3.14-.5,4.76-.69,7.4-.59-1.05.15-2.31.09-3.65Z"/>
    <path class="cls-6" d="M35.25,217.75c-.03.09-.03.28.03.36.06.08.28.15.47.18l3.17.66,4.85.22c-1.43.22-3.03.66-4.53.48-.78-.1-1.48-.75-2.37-.72-1.06.03-2.04-.49-2.65-1.16h1.03Z"/>
    <path class="cls-4" d="M92.75,193.49c0,.07-.05.2,0,.27l-.68.08-.12-3.97c-.01-.39,0-.71.38-.75l.43,4.38Z"/>
    <path class="cls-4" d="M75.97,218.53c-.37.6-1.2.33-1.81.77-.13-.01-.39-.05-.5.02-.72-.64-2.05.06-3.12-.49,1.07-.64,3.21.18,5.43-.3Z"/>
    <path class="cls-6" d="M67.97,21.97c.11.18.34.2.56.48h-3.15c-.18,0-.42-.04-.49-.12-.07-.07-.04-.3.02-.36,1.82-1.16,2.14.03,3.06,0Z"/>
    <path class="cls-4" d="M90.37,158.41c.41,1,1.82,2.1,1.84,3.35-1.07.05-.73-1.57-1.53-2.08-.54-.34-.84-.73-.88-1.28h.34s.23,0,.23,0Z"/>
    <path class="cls-6" d="M70.54,218.82c1.07.55,2.4-.14,3.12.49-.66.42-1.56.28-2.39.04-1.91-.57-2.85.33-3.29-.32.08,0,.18-.02.25,0,.4.11.73-.09,1.05-.21.3-.11.95-.12,1.25,0Z"/>
    <path class="cls-6" d="M30.89,210.26c.14-.5.61-1.12.47-1.77-.2-.94-.24-1.76-.24-2.61v-2.06c.29.69.37,1.54.39,2.37.04,2.25.58,3.61-.62,4.07Z"/>
    <path class="cls-4" d="M99.16,52.39h.26s.26.26.26.26v.26c.14.33.44.63.77.79.02.07.01.17,0,.24l-.11.67-1.4-1.49c-.27-.28-.68-.43-.93-.6.35-.22.77-.13,1.16-.13Z"/>
    <path class="cls-6" d="M32.17,213.59l.23.51c.06.14.04.37.18.5.07.07.23.1.34.09v.76s.06.77.06.77c-.21-.24-.57-.41-.74-.91l-.58-1.69.51-.04Z"/>
    <path class="cls-4" d="M92.72,176.74c.01.07-.01.18,0,.25v.25s-.01.24-.01.24c-.37.13-.45.47-.46.84-.13,0-.28,0-.5-.11l.35-1.8.63.32Z"/>
    <path class="cls-4" d="M33.96,216.76l-.54-.03-.44-.51-.06-.77c.68.04,1.05.65,1.05,1.31Z"/>
    <path class="cls-6" d="M32.95,62.2l-.04.5-.48,1.01c-.18-.2-.22-.49-.26-.76-.08-.57.08-1.16.07-1.73.15.4.25.92.71.97Z"/>
    <path class="cls-6" d="M32.1,52.37l.05-1.79v-.26c.38.25.55.68.52,1.14-.03.36-.19.72-.57.91Z"/>
    <path class="cls-4" d="M32.96,64.01l-.29-.02-.25-.28.48-1.01c.48.35.31.94.06,1.31Z"/>
    <path class="cls-6" d="M32.67,64.77v-.77s.29.02.29.02c-.11.18.08.63-.29.75Z"/>
    <path class="cls-2" d="M87.13,39.23l-.05.45c-.02.19-.05.46.12.56.11.07.35.04.43.01.38.18.54.58.5.98-.06.62.43,1.08,1.03,1.11v.43c0,.63.43,1.04,1.03,1.13.06.82,1.22.75,1.04,1.95-.04.25,0,.58.21.74.17.12.42.12.6.11,0,.07,0,.17-.03.23-.08.16-.06.46.09.55.11.07.35.03.46-.02.29.23.43.75.69,1.12l1.99,2.87c.28.4.41.72.91.72-.04.47-.61.74-.85,1.25-.34.72-.5,2.23-.01,2.9l2.79,3.85c.43.6,1.23,3.18,2.08,3.62.93.49.86,1.7,1.29,2.35.8,1.21,1.63,2.11,2.27,3.43.24.49.57,1.44.96,1.78.8.7,1.21,1.45,1.8,2.14.56.64.6,1.05,1.03,1.96l.96,2.02c3.46,2.39,2.81,4.48,3.34,5.16.32.4.82.88.8,1.38-.03.91,1.09,1.65,1.3,2.36.51,1.7,1.24,3.03,2.26,4.56-.01-.02.53,1.76,1.98,4.18.45.74.61,1.63,1.23,2.37,1.18,1.41,1.84,3.8,2.19,4.24.54.68.74,1.08,1.07,1.89.16.4.84.85,1.12,1.38.25.48.52,1.31.86,1.66,1.18,1.21,1.46,2.63,2.05,3.1.64.5.6,1.26,1.08,1.82l2,2.36c.33.39.6.66.5,1.29-.05.31-.7.48-.93.83-1.04,1.58-2.28,3.06-3.89,4.12-.02.74-.36,1.2-.81,1.77l-2.04,2.57c-.33.42-.42,1.1-1.06,1.28-.88.24-.83,1.33-1.27,1.77l-2.12,2.1-1.05,1.13c-.55.59-.51,1.06-.81,1.6l-3.81,4.12-.1,1.08c.02-.19-1.29,1.15-2.52,1.61-.4.15-.33,1.13-.32,1.45-.98-.2-.34-1.62-1.53-2.42-.23-1.23-1.06-2.07-2.16-2.69.29-1.24-.39-1.82-.96-2.63l-.99-1.4-.4-1.38-1.74-1.31c-.62-1.97-1.2-3.84-3.17-4.16.66-1.07.26-1.86-.64-2.38-.07-1.37-.87-2.28-2.06-2.82-.06-1.03-.57-1.76-1.16-2.45-.7-.81-.75-1.8-1.32-2.59l-1.59-2.19c-.21-.8-.78-1.16-1.08-1.74-.48-.95-1.04-1.47-1.88-2.13-.84-2.01-4.31-6.44-4.98-6.54l-2.18-.34c-1.2.87-2.54,2.04-2.53,3.28l.06,5.83.64,1.81c-.27.35-.72.64-.73,1.01-.01.44.59.77.53,1.21l-.25,1.73.39,2.39c.61,1.08.12,1.79.23,2.76.15,1.29.06,2.47.07,3.72l.06,7.76c.02,2.04.15,4.26.13,6.64l-.05,6.27.51.79-.5.76-.13,8.57c-2.02.33-3.94-.06-5.87-.08-.9-.01-1.39-.43-2.18-.47l-3.9-.2c-2.35-.12-4.6-.36-6.83.05.38-.71-.52-1.11-.68-1.53-.33-.85-.73-1.39-1.06-2.11-.44-.98-.84-1.7-2.12-1.75l-.16-1.99-1.69-1.84c-.45-1.39-1.22-2.23-2.05-3.44-1.13-1.66-1.41-3.17-2.09-3.87l-.98-1.82c-.31-.57-.15-1.66-.34-2.16-1.91-2.55.43-4.18.79-5.53.27-1.01,1.44-1.32,1.91-1.97,1.13-1.55,2.2-2.89,3.37-4.38l2.93-3.77c.53-.68.55-1.64,1.35-2.32l1.36-1.89c1.2-1.05,1.88-2.31,2.83-3.44,1.19-1.4,2.45-2.5,3.25-4.21,1.32-2.84,3.62-3.02,3.72-4.75.59-.41.9-1.01,1.26-1.6.54-.91,1.46-1.52,1.8-2.62,1.79-.25,2.41-1.67,3.14-3.01l2.17-4.01c1.5-2.77,3.45-1.72,3.7-4.09.09-.85,1.14-1.41,1.43-2.13l.6-1.49c.09-.22.26-.45.22-.59-.08-.27-.33-.44-.61-.44-.24,0-.43.16-.51.41l-.39.29c-.75.22-1.38.94-1.29,1.85.08.79-.45,1.06-.87,1.49-.87.89-1.8,1.84-3.04,2.1-.27.39-.65.99-1.09,1.29.01,1.29-.77,2.06-1.84,2.79l-1.57,2.33c-1.84,1.37-3.94,3.6-5.19,5.57l-1.58,2.5c-.34.55-.33,1.42-1.09,1.5-1.08.12-.74,1.26-1.09,1.75-1.35,1.87-3.54,2.86-4.68,4.86-.38.68-.27,1.55-.93,2.22l-3.04,3.11c-.48.5-.67,1.35-1.29,1.81-.66.49-.8,1.42-1.19,1.89-.87,1.05-1.69,1.79-2.2,3.05l-2.44,2.89c-.52.61-.62,1.2-1.76,1.21.43-1.1-.76-2.08-.8-2.83-.1-1.63-.45-2.57-1.02-4-.38-.96-.18-3.16.33-4.04.55-.95,1.56-1.87,1.7-2.96.35-.35.79-1.04,1.15-1.4l4.61-4.65c.45-.45.51-1.13.9-1.73l.91-1.4c.59-.9.91-2.39,1.94-2.91,2.31-1.17,4.55-3.77,4.15-5.82l-.13-.68,2.6-2.91,2.19-2.16c.61-.6,1.19-.71,1.51-1.7.11-.34.84-.67.91-1.01.06-.29.13-1.21-.33-1.27-1.16-.13-2,1.3-1.7,2.5-1.06.47-2.26.82-2.82,1.79-1.21,2.08-2.61,3.22-4.31,4.78,0,.84-.79,1.6-1.02,2.19-.39,1.03-.6,1.1-1.44,1.65-1.18.78-2.62,3.69-4.25,5.23-.85.8-1.34,2.09-2.03,3.07-1.3.89-2.3,2.06-2.98,3.45-1.17.53-1.89,1.48-1.77,2.69-.17.14-.44.36-.57.52-.23.03-.45.02-.57-.07-.19-.14-.29-.39-.31-.66l-.21-4.19c-.46-1.43-.69-2.62-.78-4.16-.07-1.25-.42-2.47.37-3.56-.53-.81-.66-1.87-.86-2.84l-.44-2.12v-6.7c.02-1.5,1.44-1.26,2.27-3.75.18-.53,1.04-1.52,1.59-1.56,1.05-.07,1.11-.49,1.56-1.16s.69-1.12.96-1.97c.15-.48.83-1.2.93-1.81,1.7-.3,2.4-2.19,2.84-4.13,2.5-1.58,2.84-4.5,5.13-6.19,1.51-1.11,2.91-2.2,3.86-3.9l.27-1.51c.58-1.08,1.77-1.38,2.72-1.99.4-1.68,1.46-3.61,3.01-4.21.65-.25,1.03-.91,1.26-1.53.72-1.97,3.73-4.16,4.62-5.65.5-.83.58-1.23,1.52-1.72.89-.46,1.31-1.81,2.05-2.46,1.23-1.1,3.31-3.81,3.59-4.57.39-1.08.78-1.58,1.83-1.99l1.1-1.13c.34-.35.43-.64.8-.71,1.31-.23.52,1.44,2,1.6ZM74.67,79.62c1.25.2,2.62-2.54,2.6-2.61-.06-.34-.35-.46-.62-.4-.15.04-.26.57-.44.63-.85.3-2.29,1.6-1.54,2.38Z"/>
    <path class="cls-2" d="M70.9,27.87l-1.74,2.19c-.98,1.97-4.05,3.23-3.03,5.33.2.4.81.18.98,0,.38-.41-.01-1.26,1.65-2.6,1.47-.53,2.48-1.55,2.87-3.09.32-.39,1.15-.78,1.26-1.35,2.3.31,4.66.47,6.95.02.03.74.49,1.29.92,1.93l2.41,3.57-1.89,2.18c-1.69,1.95-3.22,3.78-4.65,5.94-.95,1.43-2.68,2.35-3.4,3.98-.57,1.28-1.45,2.71-2.06,2.57-.16-.04-.42-.02-.6.09-.2.12-.31.42-.32.68l-.34.02c-.24.02-.49-.05-.76.19-.13.12-.18.41.1.56l.12.48c-.77-.01-.99,1.84-2.47,3.32l-3.86,3.85-.31,1.5c-1.17.3-1.8,1.33-2.69,1.91-2.99,1.96-3.38,5.49-4.26,6.01-.63.37-.85.46-1.14,1.07l-.88,1.89-4.25,5.6c-1.07.46-2.26,1.29-2.64,2.41-.57,1.68-2.27,4.47-3.24,4.18-.27-.08-.43-.37-.43-.78l-.06-5.38c-.01-.91-.04-1.53-.04-2.44l.02-5.03.25-3.85c.06-.86-.34-1.66-.06-2.55.56-1.8-.63-4.93.06-6.36.55-1.15.22-1.67.17-2.88s.44-3.12.98-4.26l2.27-2.69c.2-.24.72-.63.52-1.06-.04-.09.02-.25.02-.34.25,0,.54-.09.69-.3.11-.16.14-.39.12-.57l-.03-.19c.61-.01,1.06-.48,1.1-1.08l.37.03c1.12-.15,1.41-1.42,2.02-2.28l2.62-3.69c.35-.5,1.18-3.05,3.11-4.41,0-1.69,1.98-1.94,2.92-3.29.11-.74-.84-.92-1.38-.76-.41.12-.77.37-1.15.82l-3.4,4.06c-1.01,1.21-1.54,2.71-4.15,5.13l-2.83,2.61c-1.01.94-1.42,2.54-3.13,2.89-.57-.74-.85-1.82-.49-2.76-.56-1.13-.38-2.23.37-3.15-.49-.82-.25-1.62-.1-2.35.26-1.2-.16-1.93-.42-2.94-.24-.95-.29-2.56.02-3.48s1.61-1.49,1.68-2.47l5.43.1c2.19.04,4.92.59,6.01.08s2.01.02,2.77.62c.67-.2,1.45-.02,2.13.1,1,.19,2.18-.29,3.2,0,1.97.56,3.94-.47,6.09.45Z"/>
    <path class="cls-5" d="M61.29,155.31c-.54.1-1.06-.16-1.57-.18.71-1.1-1.15-3.89-2.61-4.71-.32-.18-.27-.99-.47-1.26l-2.45-3.44c-.35-.93-.58-1.45-1.13-2.32l-1.07-1.67c-.63-.98-.93-1.89-1.39-2.89-.29-.63-1.07-1.17-.78-2.11.25-.83-.53-1.19-.7-1.67-.94-2.66.55-5.42,2.27-7.65,1.63-.78,2.13-3.01,3.48-3.99.7-.51.81-1.15,1.27-1.66,1.32-1.44,2.43-2.73,3.16-4.59l1.39-1.38c.21-1.24,1.01-1.5,1.65-2.25,1.16-1.34,1.95-2.97,3.29-4.2,1.16-1.07,1.9-2.59,2.58-4.09-1.46-.33-1.51.94-1.99,1.64-.8,1.16-1.89,2.27-2.99,3.11-1.23.93-1.63,2.16-2.28,3.5-.24.49-1.02,1.18-1.42,1.58-.86.84-1.38,1.71-2.1,2.58-1.65,1.97-1.87,3.2-3.58,4.6-.61.5-.46,1.02-.88,1.53l-2.66,3.25c-.27.71-1.48,2.07-2.12,1.16-1.31-2.35-1.32-4.25-2.18-6.77-.46-1.34-.21-3.35-.04-4.73l1.83-2.96c.34-.56.39-1.02.92-1.42-.54-.18-.86-.18-1.37-.19-.16.58-.39.91-.74,1.19-.12-1.21.6-2.15,1.77-2.69.68-1.39,1.68-2.56,2.98-3.45.69-.98,1.18-2.28,2.03-3.07,1.63-1.53,3.07-4.44,4.25-5.23.84-.55,1.05-.62,1.44-1.65.22-.59,1.01-1.34,1.02-2.19,1.7-1.56,3.09-2.7,4.31-4.78.56-.97,1.76-1.32,2.82-1.79-.3-1.2.54-2.63,1.7-2.5.46.05.39.97.33,1.27-.07.34-.8.67-.91,1.01-.32,1-.9,1.1-1.51,1.7l-2.19,2.16-2.6,2.91c-.05-.24-.2-.47-.38-.6-1.24,1.4-1.95,3.02-2.68,4.18-.38.6-1.61.99-1.77,1.72-.11.53.56.57.81.55.46-.03.65-.45,1.01-.7,2.46-1.67,2.01-2.51,3.15-4.47.4,2.05-1.84,4.65-4.15,5.82-1.03.52-1.35,2.01-1.94,2.91l-.91,1.4c-.39.59-.45,1.27-.9,1.73l-4.61,4.65c-.36.36-.8,1.05-1.15,1.4-.15,1.09-1.16,2.02-1.7,2.96-.51.88-.71,3.08-.33,4.04.57,1.43.92,2.37,1.02,4,.05.75,1.23,1.73.8,2.83,1.13,0,1.24-.59,1.76-1.21l2.44-2.89c.5-1.26,1.32-2,2.2-3.05.39-.47.53-1.4,1.19-1.89.62-.46.81-1.31,1.29-1.81l3.04-3.11c.65-.67.55-1.54.93-2.22,1.13-2,3.32-3,4.68-4.86.35-.49,0-1.63,1.09-1.75.76-.08.75-.96,1.09-1.5l1.58-2.5c1.25-1.98,3.35-4.2,5.19-5.57l1.57-2.33c1.07-.73,1.85-1.5,1.84-2.79.44-.3.82-.9,1.09-1.29,1.24-.26,2.17-1.21,3.04-2.1.42-.44.95-.71.87-1.49-.09-.91.54-1.63,1.29-1.85.03.46-.08.91.22,1.47.39-.37.37-.78.5-1.18.11-.33-.11-.52-.33-.57.08-.26.27-.41.51-.41.28,0,.53.17.61.44.04.14-.13.37-.22.59l-.6,1.49c-.29.72-1.34,1.27-1.43,2.13-.25,2.37-2.2,1.32-3.7,4.09l-2.17,4.01c-.73,1.34-1.35,2.76-3.14,3.01-.35,1.1-1.26,1.71-1.8,2.62-.35.59-.66,1.19-1.26,1.6-.1,1.73-2.4,1.91-3.72,4.75-.79,1.7-2.05,2.8-3.25,4.21-.96,1.13-1.63,2.39-2.83,3.44l-1.36,1.89c-.81.68-.82,1.64-1.35,2.32l-2.93,3.77c-1.16,1.49-2.24,2.83-3.37,4.38-.47.65-1.64.96-1.91,1.97-.36,1.35-2.7,2.98-.79,5.53.19.5.04,1.59.34,2.16l.98,1.82c.68.7.96,2.21,2.09,3.87.82,1.21,1.6,2.05,2.05,3.44l1.69,1.84.16,1.99c1.28.04,1.69.77,2.12,1.75.32.72.73,1.26,1.06,2.11.16.43,1.06.82.68,1.53ZM79.31,90.99c.8-.33,1.31-1.32.93-1.83-.48-.66-2.41,1.64-1.52,2.83.46-.19.45-.8.59-1ZM69.8,103.98c1.07-.34.8-1.03,1.24-1.63l2.27-3.05c.77-1.03,1.57-1.85,2.6-2.62,1.08-.81,1.65-2.28,2.19-3.56-.29-.4-.92-.26-1.29-.05-.67.39-.6,2.62-3.33,4.06l-1.62,1.74c-1.34.94-1.88,2.57-2.83,3.84-.5.67-1.1,1.24-.58,2.2l1.34-.94ZM52.04,108.77l.91-.74c.39-.64.63-1.41,1.21-1.88.63-.51,1-1.18.8-1.99-1.39.27-2.56,2.06-3.01,3.48-1.28,1.32-3.52,1.97-2.54,3.74,1.1-.73,1.83-1.57,2.63-2.61Z"/>
    <path class="cls-5" d="M47.31,45.04c.2.43-.32.82-.52,1.06l-2.27,2.69c-.54,1.14-1.04,3.03-.98,4.26s.39,1.72-.17,2.88c-.69,1.44.5,4.56-.06,6.36-.28.89.11,1.69.06,2.55l-.25,3.85-.02,5.03c0,.91.03,1.54.04,2.44l.06,5.38c0,.41.16.7.43.78.96.28,2.67-2.5,3.24-4.18.38-1.12,1.56-1.94,2.64-2.41l4.25-5.6.88-1.89c.28-.61.51-.7,1.14-1.07.87-.52,1.27-4.05,4.26-6.01.89-.58,1.51-1.61,2.69-1.91l.31-1.5,3.86-3.85c1.48-1.48,1.7-3.34,2.47-3.32.21.84-.32,1.42-.78,2.18l-1.72,2.84c-1.36.88-2.49,1.84-3.13,3.37-.75,1.77-2.85,2.59-3.88,3.38-2.71,2.09-1.72,5.41-4.33,5.66l-.81,2.03-3.56,4.67c-.44.58-.71,1.37-1.33,1.85-.76.59-2.1,1.04-2.42,2.12-.43,1.43-1.99,3.85-2.31,3.94l-2.63.78.08-3.95c.02-.92.57-2.35.04-3.19s-.8-1.21-.4-2.29c.53-1.45.75-3.36.39-4.87-.07-.29-.64-.58-.63-.83.01-.38.43-.59.58-.84.71-1.15-.09-2.47,0-3.65.12-1.81.4-3.4.22-5.2-.14-1.37.21-2.78.15-4.09-.16-3.46-.19-5.59,2.83-8.18.51-.43.8-1.32,1.62-1.27Z"/>
    <path class="cls-5" d="M87.13,39.23c-1.48-.16-.69-1.83-2-1.6-.37.07-.46.36-.8.71l-1.1,1.13c-1.06.4-1.44.91-1.83,1.99-.27.76-2.36,3.47-3.59,4.57-.74.66-1.16,2-2.05,2.46-.94.49-1.02.88-1.52,1.72-.89,1.49-3.89,3.68-4.62,5.65-.23.62-.61,1.28-1.26,1.53-1.55.6-2.6,2.53-3.01,4.21-.95.61-2.14.91-2.72,1.99l-.27,1.51c-.95,1.7-2.35,2.79-3.86,3.9-2.29,1.68-2.64,4.61-5.13,6.19-.43,1.94-1.13,3.83-2.84,4.13-.09.6-.78,1.33-.93,1.81-.27.85-.51,1.3-.96,1.97s-.52,1.09-1.56,1.16c-.56.04-1.42,1.02-1.59,1.56-.83,2.49-2.25,2.25-2.26,3.75v6.7s.43,2.12.43,2.12c.2.97.33,2.03.86,2.84-.79,1.1-.44,2.31-.37,3.56.09,1.54.32,2.72.78,4.16l.21,4.19c.01.27.11.52.31.66.12.09.34.1.57.07-.12.15-.06.49-.2.63-.75.73-1.82-1.58-1.79-2.18.18-4.93-.86-8.43-.89-9.22l-.26-5.39-.16-8.13c-.03-1.61,2.14-2.15,2.7-5.29l2.33-.8c.33-.63.69-1.33,1.1-1.96.57-.86.56-2.07,1.3-2.85l1.65-.95.91-2.62c.87-.91,1.23-1.79,2.01-2.73l1.95-2.35c1.28-2.2,4.07-2.98,4.97-5.59.45-1.3,1.02-2.59,2.55-2.93,1.84-.41-.42-2.31,3-4.22.4-.22.7-.85,1.33-1,.72-.17.59-1.45.86-1.89l4.25-4.57c.57-.61.62-1.4,1.63-1.78.69-.26.86-1.72,1.39-2.06,2.29-1.48,2.53-3.13,3.16-3.9s1.37-1.71,1.83-2.47c1.38-.7,2.31-1.58,2.98-3.19,1.29.78,1.91,1.82,2.48,2.83Z"/>
    <path class="cls-5" d="M45.28,26.52c-.07.98-1.36,1.53-1.68,2.47s-.26,2.53-.02,3.48c.26,1.01.68,1.74.42,2.94-.16.73-.4,1.53.1,2.35-.74.92-.93,2.02-.37,3.15-.36.94-.08,2.02.49,2.76,1.71-.35,2.12-1.95,3.13-2.89l2.83-2.61c2.62-2.42,3.14-3.92,4.15-5.13l3.4-4.06c.38-.46.74-.71,1.15-.82.53-.15,1.49.03,1.38.76-.94,1.35-2.93,1.6-2.92,3.29-1.94,1.36-2.76,3.91-3.11,4.41l-2.62,3.69c-.61.87-.91,2.13-2.02,2.28,0-.54.87-.85,1.06-1.33,1.65-4.2,4.35-5.02,2.96-6.02l-1.72,2.03c-.84.63-1.34,1.4-2.05,2.11-.86.86-2.01,1.37-2.59,2.56-.41.86-1.31,1.28-1.97,1.9-.36.34-.43.95-.83,1.13-.31.14-.87.3-1.14-.1-.71-1.06-.58-2.36-.55-3.57l.1-3.62.1-2.58c.09-2.27-.5-4.48,0-6.59.7-.55,1.2-1.11,1.65-1.89-.9-.03-1.61.14-2.16-.28.97-.36,2.01-.45,2.83.19Z"/>
    <path class="cls-5" d="M38.33,60.63l-.05,3.1-.12,2.59c-.07,1.55.12,2.83.01,4.41-.14,1.95.61,4.32-.1,6.17-.46,1.21-.44,1.64-.04,2.86.6,1.83.25,4.07.16,6.05-.02.52-.9,1.13-.5,1.84.6,1.05.62,2.57-.37,3.31.13-1.08-.25-2.32-.18-3.46l.25-3.89c.05-.77.77-1.65.34-2.49-1.5-2.95.29-5.15,0-7.52-.14-1.21-.8-2.43-.33-3.64.25-.65.52-1.11.18-1.86-.47-1.05-.4-2.01-.01-3.15.04-.4-.45-1.17-.24-1.69.82-1.98.27-2.83.99-2.64Z"/>
    <path class="cls-5" d="M38.32,33.77l.38,3.1c.09.71.64,1.21.44,2.14-.14.66.15,1.5.22,2.17-1.19,1.36-.78,2.78-.37,4.3.37,1.38.25,4.33-.75,5.6l-.08-8.75c-.02-1.86.36-3.57-.03-5.46-.32-1.55-.45-3.33.18-3.11Z"/>
    <path class="cls-5" d="M37.23,109.13c-.26-1.15.99-3.1,0-8.77-.16-.89.21-1.96-.01-2.84.25.07.73.2.87.47.4.75.02,1.62.07,2.4.15,2.45.26,4.81.02,7.27-.07.72-.3,1.31-.95,1.48Z"/>
    <path class="cls-5" d="M46.88,155.13l-2.53.72c-.72-1.1-1.61-1.03-2.72-.9l-3.21.37c-2.01-2.03-4.4.72-4.41-.84,3.72-1.44,4.59.35,4.74.35.38,0,.74-.1,1.13-.37s1.24-.11,1.72-.26c1.2-.38,1.96-.08,2.8.78.34.35,1.82-.62,2.48.14Z"/>
    <path class="cls-5" d="M56.59,155.34l-6.91-.14c1.62-1.47,3.7.19,6.1-.59.14-.05.55.2.67.26s.25.26.13.46Z"/>
    <path class="cls-5" d="M39.55,26.61c-.19,1.69-.93,2.97-.88,4.13.01.28-.2.47-.38.5-.02-1.82-.45-4.71,1.26-4.63Z"/>
    <path class="cls-5" d="M37.28,96.21c-.48-.8-.1-1.81-.03-2.81.04-.55-.32-1.11.03-1.56.69,1.45.91,3.67,0,4.37Z"/>
    <path class="cls-5" d="M38.07,54.9c-.04,1.58.21,3.16.24,4.76-.11.02-.27-.01-.34-.07-.08-.06-.2-.28-.17-.47.29-2.31-.91-4.07.27-4.22Z"/>
    <path class="cls-5" d="M49.16,155.01l-1.75.57c-.05-.27.03-.4.07-.51.54-.05,1.24-.44,1.68-.06Z"/>
    <path class="cls-5" d="M58.72,155.08c.04.5-.34.53-.67.53-.4,0-.74.01-.95-.31.46-.32,1.06-.24,1.62-.21Z"/>
    <path class="cls-5" d="M49.2,42.55c-.03.61-.49,1.07-1.1,1.08-.09-.6.49-1.14,1.1-1.08Z"/>
    <path class="cls-5" d="M69.89,49.33c0,.18-.04.39-.15.55s-.32.23-.51.21c-.28-.15-.24-.44-.1-.56.27-.24.52-.18.76-.19Z"/>
    <path class="cls-5" d="M71.15,48.54c0,.51-.42.74-.92.77,0-.26.12-.56.32-.68.19-.11.45-.13.6-.09Z"/>
    <path class="cls-5" d="M48.13,43.83c.03.18,0,.41-.12.57-.15.21-.44.3-.69.3-.02-.25.04-.55.26-.73.14-.11.35-.15.54-.15Z"/>
    <path class="cls-5" d="M38.1,53.7c0-.06-.04-.17-.01-.23.31-.02.25.26.01.23Z"/>
    <path class="cls-6" d="M84.7,200.98v2.04c-.23-.07-.45.06-.46.21l-.04.85c-.03.59-.1,1.26.49,1.32l.02.98c-.38.48-.37,1.32-.01,1.81,0,.17-.05.43-.13.59l-.75,1.39c-1.03-.19-1.82.41-2.75.51l-2.78.3h-5.64c-.78-.01-1.33-.04-2.12-.02l-6.54.16c-1.09.36-2.14.63-3.26,0-.84.83-1.83.93-2.82.37l-2.52.39c-.84-.9-1.98-.81-2.8.1l-7.26.04c-.88,0-1.67-.35-2.61-.18l-2.3-.18c-1.04-.08-2.88.62-3.76-.17-1.27-1.53-.9-3.82-.69-5.61.09-.81.13-1.42.79-2.09-1.82-2.64-.21-5.28-.79-7.4-.42-1.53.06-2.99-.12-4.38-.21-1.66-.22-3.03-.18-4.75l.25-11.24c.03-1.29.56-2.07.23-3.51-.77-3.29.33-5.91-.33-8.96v-3.08c0-.77,1.01-1.5,1.75-1.5l5.4.04c1.03,0,1.85.29,2.94.01l2.21.13c.83.05,1.02.21,1.54.68.42.37,1.75.27,2.27.06,1.08-.43,1.75-.71,2.87-.05.63.37,2.06.35,2.76,0,.54-.27.75-.72,1.31-.72s.97.71,1.55.73l4.71.19,2.57.22c1.16.1,2.06.38,3.23,0l2.2-.08c1.34-.05,2.29.36,3.46.71,2.14.64,5.7-.94,5.88.86.09.87.13,1.27.57,2,.4.66.25,2.31.07,3.09-.19.86.78,2.58.29,5.97-.15,1.05.21,1.69.22,2.67l.1,9.69c.71.9.76,2.05.01,2.93-.06.51-.05.97.03,1.47.34,1.32.31,2.59-.11,3.91.8,1.76.74,3.62.34,5.46-.14.66.29,2.23.73,2.03ZM37.28,172.65v2.46c-.51.09-.64.67-.67,1.2l-.23,4.19.2,3.59c-.26.88-.05,1.14.06,2,.15,1.16-.97,2.72-.51,3.98.29.79,1.01,1.4.64,2.39-.49,1.3-.12,2.55-.03,3.89l.2,2.84c.08,1.2-.69,3.26.41,3.6,0,.61-.05,1.39-.05,2.02-.26-.05-.47.09-.48.24v.81c-.03,1.18-.32,2.01-.05,3.14.25,1.07,1.12,1.74,2.34,1.8l3.31.15c.82.04,1.45-.27,2.24.27,1.43.98,2.77-1.08,4.79-.17,1.12.51,2.28.32,3.11-.54l1.75.03c.95.02,1.74.44,2.63.08.48-.19,1.48-.16,1.98-.02.44.12.9.45,1.33-.07h.92c1.48.01,3.01-.22,4.52-.69.72-.22,1.4.08,2.04.07h1.83s3.32-.11,3.32-.11c.54-.02.95-.15,1.29-.23.53-.12,1.24-.13,1.77.01,1.06.29,2.33.34,3.38,0,.18-.06.34.02.53.01l2.07-.09c.47-.02.83-.01,1.14-.32.83-.83.85-1.93.52-3.15l-.37-1.37-.21-5.71v-2.54s.02-1.41.02-1.41c.02-1.76-.19-3.45.15-5.35l-.26-1.54-.07-5.66c-.03-1.91-.73-3.66-.26-5.65.16-.68,0-1.47-.51-1.88.08-.69-.09-1.64.15-2.24.32-.8.15-1.38.02-2.15-.16-.93-.32-2.1-.22-3.05.2-1.89.15-3.78.02-5.9l-5.79.11c-.86.02-2.03.11-2.81-.22-.7-.3-.98-.17-1.63.03-1.73.52-3.72.24-5.55.21-.79-.84-2.04-.62-3.16-.5l-2.8-.55h-1.89c-.89.02-2.04-.05-2.97.21-.73.21-1.02-.14-1.61-.14l-5.14-.05c-1.53-.01-3.04-.27-4.41.07l-.94-.11c-.19-.42-.72-.72-1.23-.55-1.24.41-2.15.05-3.38-.31-.62-.18-1.88.81-1.92,1.43-.06,1,.1,1.79-.37,2.64.54,1.57.65,4.1-.17,5.16.88,2.07.13,3.72,1,3.66Z"/>
    <path class="cls-4" d="M32.4,155.54c-.87,2.74-.23,5.42-.69,8.13.16,1.81.46,4.05-.13,5.07-.37-2.22.04-3.74-.46-4.39v-.77c.18-.03.26-.22.27-.5l.05-5.93c0-.73.36-1.46.95-1.6Z"/>
    <path class="cls-4" d="M92.42,207.69c0-.23-.36-.59-.26-1.01.3-1.26-.19-2.41-.18-3.62.01-2.17.55-4.25.1-6.37-.11-.54-.12-.77.07-1.16,1.14,1.94.36,4.87.33,7.26-.02,1.68.67,3.39-.05,4.9Z"/>
    <path class="cls-4" d="M92.21,179.57l-.12,2.49c-.05,1.06,1.07,2.39-.37,5.18.14.5.57.91.47,1.37-1.02-.39-1.04-1.67-.52-2.57.73-1.29.12-2.65-.14-3.94l.2-2.45c.02-.1.47-.13.47-.07Z"/>
    <path class="cls-4" d="M92.2,211.79l-.03,4.61c0,.83-.85,1.44-1.49,1.16,1.95-2.52.27-5.67,1.52-5.77Z"/>
    <path class="cls-4" d="M92.23,162.28v1.53c.01,1.17.44,2.38-.03,3.38-.06-.1-.28-.28-.26-.52.2-2.75-.88-4.54.3-4.39Z"/>
    <path class="cls-4" d="M84.23,217.91c.01.22-.27.43-.5.4-1.45-.19-2.63.33-3.88.43.65-1.17,2.74-.89,4.38-.83Z"/>
    <path class="cls-4" d="M92.21,167.7l-.19,1.05.19,2.56c-.1.05-.28.04-.35-.03-.39-.37-.86-3.64.35-3.58Z"/>
    <path class="cls-6" d="M31.59,168.73l.2,1.18-.66.62v-6.19c.5.65.09,2.17.46,4.39Z"/>
    <path class="cls-4" d="M92.19,175.7c-.18.03-.39-.01-.51-.12-.13-.12-.32-.43-.25-.68l.77-2.56c.72.77-.63,1.87-.02,3.36Z"/>
    <path class="cls-4" d="M84.7,203.02v2.39c-.6-.06-.52-.73-.5-1.32l.04-.85c0-.15.23-.28.46-.21Z"/>
    <path class="cls-4" d="M92.15,211.03c-.22-.64-.04-1.47.3-2.05.47.61.37,1.61-.3,2.05Z"/>
    <path class="cls-4" d="M69.28,218.82c-.33.12-.65.32-1.05.21-.09-.34.05-.54.39-.54.26,0,.57-.03.66.33Z"/>
    <path class="cls-4" d="M84.7,208.2c-.36-.49-.37-1.33.01-1.81v1.81Z"/>
    <path class="cls-4" d="M67.46,219.04c-.27.02-.55-.04-.77-.22-.03-.24.14-.38.4-.33.24.05.4.24.37.55Z"/>
    <path class="cls-4" d="M90.14,217.51c.06.18.01.42-.13.49-.37.17-.51-.25-.69-.25.19-.29.54-.26.82-.24Z"/>
    <path class="cls-4" d="M32.91,214.69c-.11.01-.26-.02-.34-.09-.14-.13-.12-.37-.18-.5.19-.06.43.02.49.19.05.14.02.29.02.4Z"/>
    <path class="cls-4" d="M87.59,217.72c-.11.24-.32.29-.54.29-.06-.12-.02-.45.14-.52.12-.05.28.23.41.23Z"/>
    <path class="cls-3" d="M90.93,121.71c-.44.16-.96.54-1.38,1.03l-3.76,4.26-1.27-.69-.03-14.08c0-.39,1.24-.75,1.46-.44l3.72,5.35c.66.95,1.59,1.95,1.6,3.18,0,.41-.39,1.05-.33,1.4Z"/>
    <path class="cls-3" d="M79.89,27.13c.06-.69-.18-1.27-1.03-1.36l-.46-1.64c-.31-.14-.87-.27-.89-.74,1.02.17,1.74.22,2.6,1.18.6.68,1.16,1.4.7,2.5l-.92.05Z"/>
    <rect class="cls-3" x="33.19" y="27.62" width=".26" height="4.9"/>
    <path class="cls-3" d="M33.29,25.84c-.18-.48-.1-.97-.09-1.44.06-.08.13-.13.14-.14.18.55.2,1.3-.05,1.57Z"/>
    <path class="cls-3" d="M50.98,20.91c-1.03,1.41,2.98-.32,6.57.97.83.3,1.41.72,2.42.24,3.02-1.42,4.6,1.05,4.66-.18h.29c-.05.07-.08.31-.02.38.07.08.31.11.49.11h3.15c-.23-.27-.45-.29-.56-.47l1.3-.03c-.07.14-.22.24-.28.62.49,0,.89.11,1.14.47-1.46-.02-2.94-.35-4.5.34l2.63.6h-13.4c-.78.01-1.3-.04-2.12-.03l-5.37.05c-2.29.02-4.39-.29-6.7.04-2.09.3-4.56-.16-6.12.06-.27.04-.65-.48-1.17,0,.37-1.02.5-1.71,1-2.53,2.61-.52,5.16-.23,7.85-.2l8.2.09c-.04-.31-.16-.39-.23-.54.2.03.6.04.79,0Z"/>
    <path class="cls-5" d="M72.88,28.35c-.11.57-.94.96-1.26,1.35-.39,1.55-1.4,2.57-2.87,3.09-1.66,1.34-1.27,2.19-1.65,2.6-.17.18-.78.41-.98,0-1.02-2.1,2.06-3.36,3.03-5.33l1.74-2.19c.71-.09,1.59-.22,1.98.48ZM70.02,31.35c.56-.51.82-1.22.77-1.98-.83.91-1.5.76-1.52,1.73,0,.3.34.62.75.25Z"/>
    <path class="cls-4" d="M32.72,70.21l-.57-.81-.03-2.55c-.05-.45.11-.92.56-1.05l.09,3.3c.01.51.16.76-.04,1.11Z"/>
    <path class="cls-6" d="M32.72,70.21c-.13.29-.08.94-.02,1.24l-.54.8v-2.85s.56.81.56.81Z"/>
    <path class="cls-5" d="M89.15,42.34c-.6-.02-1.09-.49-1.03-1.11.55.11,1.03.54,1.03,1.11Z"/>
    <path class="cls-5" d="M90.17,43.9c-.59-.09-1.02-.5-1.02-1.13.55.11.98.56,1.02,1.13Z"/>
    <path class="cls-5" d="M92.02,46.69c-.18.02-.43,0-.6-.11-.22-.15-.25-.49-.21-.74.44.06.78.4.81.84Z"/>
    <path class="cls-5" d="M87.62,40.26c-.08.03-.31.06-.43-.01-.16-.1-.14-.37-.12-.56.31.02.52.27.54.57Z"/>
    <path class="cls-5" d="M92.54,47.45c-.11.06-.35.09-.46.02-.15-.09-.17-.39-.09-.55.41-.06.39.4.55.53Z"/>
    <path class="cls-4" d="M101.49,56.31c-.59-.06-1.12-.61-.94-1.18.27.03.63.11.82.35.16.21.15.58.13.83Z"/>
    <path class="cls-1" d="M62.04,95.04l.13.68c-1.14,1.96-.69,2.8-3.15,4.47-.36.25-.55.66-1.01.7-.25.02-.92-.01-.81-.55.15-.73,1.39-1.12,1.77-1.72.73-1.16,1.44-2.78,2.68-4.18.19.13.34.36.38.6Z"/>
    <path class="cls-5" d="M74.67,79.62c-.75-.78.69-2.08,1.54-2.38.18-.06.29-.6.44-.63.27-.07.56.06.62.4.01.08-1.35,2.81-2.6,2.61Z"/>
    <path class="cls-1" d="M84.85,82.97c.22.05.44.25.33.57-.13.4-.12.81-.5,1.18-.3-.56-.19-1.01-.22-1.47l.39-.29Z"/>
    <path class="cls-1" d="M69.8,103.98l-1.34.94c-.52-.97.08-1.53.58-2.2.95-1.27,1.49-2.9,2.83-3.84l1.62-1.74c2.73-1.44,2.65-3.67,3.33-4.06.36-.21,1-.36,1.29.05-.55,1.28-1.11,2.75-2.19,3.56-1.02.77-1.83,1.59-2.6,2.62l-2.27,3.05c-.45.6-.18,1.29-1.24,1.63Z"/>
    <path class="cls-1" d="M52.04,108.77c-.8,1.04-1.53,1.88-2.63,2.61-.98-1.77,1.26-2.42,2.54-3.74.46-1.42,1.62-3.21,3.01-3.48.2.81-.17,1.48-.8,1.99-.58.47-.82,1.24-1.21,1.88l-.91.74Z"/>
    <path class="cls-1" d="M79.31,90.99c-.15.2-.13.81-.59,1-.88-1.19,1.05-3.49,1.52-2.83.37.51-.13,1.5-.93,1.83Z"/>
    <path class="cls-1" d="M43.36,160.61l.94.11c.05.45.74.77,1.2.53.82-.42,1.23.12,1.91.16l3.05.18c1.51.09,2.87.09,4.39.02l3.07-.14c.42-.02.59-.56.51-.84h1.89c.08.3.4.95.82.96l5.14.09c1.83.03,3.82.31,5.55-.21.43.43,1.2.43,1.63-.03.78.33,1.95.24,2.81.22,1.06,1.61,3.13.1,5.18,1.14-.38.74-.21,1.35-.18,2.07s-.33,1.47-.02,2.24c.11.29.47.37.8.34-.1.95.06,2.12.22,3.05-.5.58-.5,1.55-.02,2.15-.24.6-.07,1.55-.15,2.24-.4,3.39,0,6.79.05,10.34.02,1.29-.35,2.76.24,3.92.38.75.12.89-.11,1.59-.33.99-.33,4.31.77,4.24v1.41c-.72.15-.97.72-.91,1.5.03.36.04.69.29.88.13.1.38.14.59.15l.21,5.71c-.5.73.08,2.64-.15,4.52-.31.31-.67.3-1.14.32.06-.22-.06-.42-.2-.47-.59-.2-1.59-.02-1.87.56-.18,0-.35-.07-.53-.01-.67-.48-2.57-.48-3.38,0-.53-.14-1.24-.14-1.77-.01-.16-.34-.6-.37-1.03-.35l-6.46.18c-2.38.07-5.41.02-5.5,1.13h-.92c-.28-.38-1.03-.38-1.33.07-.51-.14-1.51-.17-1.98.02l-2.03-.46c-.23-.03-.46-.19-.6,0-.05.08-.03.31-.01.38l-1.75-.03c-2.14-.04-5.04-.25-6.04.03-.8.22-1.27-.03-2.05-.06l-5.34-.27c-.65-.03-1.24-.88-1.79-1.24l-.04-4.16c0-.63.05-1.41.05-2.02l-.02-2.52c.28-.85.06-1.34.04-2.16l-.14-7.49c-.58-.27-1.09-1.03-.85-1.33l.83-1.04.08-13.13v-2.46s.08-12.02.08-12.02l5.99-.02Z"/>
    <path class="cls-5" d="M37.29,175.11l-.08,13.13-.83,1.04c-.24.3.27,1.06.85,1.33l.14,7.49c.02.82.24,1.31-.04,2.16l.02,2.52c-1.1-.34-.33-2.4-.41-3.6l-.2-2.84c-.09-1.33-.46-2.59.03-3.89.37-.99-.35-1.61-.64-2.39-.47-1.27.65-2.82.51-3.98-.11-.86-.32-1.11-.06-2l-.2-3.59.23-4.19c.03-.53.15-1.11.68-1.2Z"/>
    <path class="cls-5" d="M83.03,194.98c-1.1.07-1.1-3.26-.77-4.24.23-.7.49-.84.11-1.59-.59-1.15-.22-2.62-.24-3.92-.05-3.55-.45-6.95-.05-10.34.5.41.67,1.2.51,1.88-.47,1.99.24,3.74.26,5.65l.07,5.66.26,1.54c-.34,1.91-.13,3.59-.15,5.35Z"/>
    <path class="cls-5" d="M37.3,204.8l.04,4.16c.55.36,1.14,1.21,1.79,1.24l5.34.27c.78.04,1.25.29,2.05.06,1-.28,3.9-.07,6.04-.03-.83.86-1.99,1.05-3.11.54-2.02-.91-3.36,1.15-4.79.17-.79-.54-1.42-.23-2.24-.27l-3.31-.15c-1.23-.06-2.09-.73-2.34-1.8-.26-1.13.03-1.96.04-3.14v-.81c.01-.15.23-.29.49-.24Z"/>
    <path class="cls-5" d="M58.42,160.64c.07.28-.1.82-.51.84l-3.07.14c-1.52.07-2.89.07-4.39-.02l-3.05-.18c-.68-.04-1.09-.58-1.91-.16-.46.23-1.15-.08-1.2-.53,1.37-.34,2.88-.08,4.41-.07l5.14.05c.59,0,.88.35,1.61.14.92-.26,2.07-.19,2.97-.2Z"/>
    <path class="cls-5" d="M82.03,167.46c-.33.02-.68-.06-.8-.34-.3-.76.05-1.52.02-2.24s-.21-1.33.18-2.07c-2.05-1.04-4.12.47-5.18-1.14l5.79-.11c.13,2.11.19,4-.02,5.9Z"/>
    <path class="cls-5" d="M74.18,209.55c-.34.08-.75.21-1.29.23l-3.32.1h-1.83c-.64.01-1.32-.28-2.04-.06-1.51.47-3.05.7-4.52.69.09-1.11,3.13-1.07,5.5-1.13l6.46-.18c.43-.01.87.01,1.03.35Z"/>
    <path class="cls-5" d="M43.36,160.61l-5.99.02-.09,12.02c-.87.06-.11-1.59-1-3.66.82-1.06.71-3.59.17-5.16.47-.85.32-1.65.37-2.64.04-.62,1.3-1.61,1.92-1.43,1.23.36,2.14.71,3.38.31.51-.17,1.04.13,1.23.55Z"/>
    <path class="cls-5" d="M66.27,161.69l-5.14-.09c-.41,0-.74-.65-.82-.97l2.8.55c1.12-.11,2.37-.33,3.16.5Z"/>
    <path class="cls-5" d="M83.06,209.16c.23-1.88-.35-3.78.15-4.52l.37,1.37c.33,1.21.3,2.31-.52,3.15Z"/>
    <path class="cls-5" d="M83.01,198.93c-.21,0-.46-.05-.59-.15-.25-.19-.26-.52-.29-.88-.06-.79.19-1.35.9-1.5v2.54Z"/>
    <path class="cls-5" d="M79.33,209.56c-1.05.34-2.32.29-3.38,0,.81-.49,2.72-.48,3.38,0Z"/>
    <path class="cls-5" d="M56.95,210.6c-.9.36-1.69-.06-2.63-.08-.02-.07-.04-.31.01-.38.13-.19.37-.03.6,0l2.03.46Z"/>
    <path class="cls-5" d="M81.92,209.48l-2.07.09c.27-.59,1.27-.76,1.87-.56.15.05.27.25.2.47Z"/>
    <path class="cls-5" d="M82.23,172.65c-.48-.59-.48-1.56.02-2.15.13.77.3,1.35-.02,2.15Z"/>
    <path class="cls-5" d="M73.44,161.45c-.42.45-1.2.45-1.63.03.64-.19.92-.33,1.63-.03Z"/>
    <path class="cls-5" d="M60.27,210.51c-.43.52-.89.2-1.33.07.31-.45,1.05-.45,1.33-.07Z"/>
    <g>
      <path class="cls-1" d="M123.85,166.31v.35c0,.24,0,.6.22.72.17.1.44.09.57.15l4.32,6.22,2.31,3.33,2.86,4.12.89,1.41c1.04,1.65,2.24,3.05,3.26,4.76.18.31.7.51.54,1.01-.16.21-.38.5-.74.5-.22-1.1-.94-1.83-1.61-2.81l-12.1-17.75-1.86-2.56-6.09-9.13c-.61-.92-1.11-1.7-1.92-2.51-.46-.47-.71-1.25-1.46-1.38l.05-.81h.52c.61.01.76.51,1.09.99l5.22,7.71c.37.54.97.92.91,1.59-.04.47.29.81.75.98.43.15.8-.15,1.12-.6l1.76-2.44c.1-.13.23-.2.23-.41.66,0,1.16-.42,1.12-1.09.05-.05.1-.13.12-.2,1.61-.14.52-2.8,3.4-3.67,1.43-.43,2.34-1.36,2.56-2.89.06-.43,1.34-.88,1.6-.53.72,1.33-.52,2.57-1.78,3s-1.75,1.76-2.58,2.52c-1.52,1.39-2.6,2.88-3.78,4.49-1.25,1.71-3.21,3.66-1.49,4.91Z"/>
      <path class="cls-5" d="M152.01,122.42c.32.26.8.57.92.89.16.42-.04,1.09-.3,1.39-.8.92-.32,1.84-.33,2.81,0,.7-.09,1.51-.01,2.23.05.59-1.01,1.64-1.6,1.71l-2.75.33c-1,.12-1.23-.42-1.63-.93-.94-1.18-2.42-2.39-2.96-4.01-1.4-1.09-2.15-2.67-3.12-4.14-.39-.6-2.81-2.08-2.68-4.05.45,0,.59.34.8.79.6,1.3,1.71,2.29,2.99,2.94.58,2.02,1.76,3.58,3.09,5.16l1.64,1.93c.96,1.13,1.84,1.82,3.4,1.63,1.08-.13,2.13-.78,2.17-2l.14-3.98.24-2.72Z"/>
      <path class="cls-5" d="M137.38,118.13c-2.18-.54-2.63-2.43-3.29-3.52l-.96-1.57c-.8-.56-1.57-1.22-1.82-2.33-.29-1.31-2.39-1.39-1.93-3.22,1.6,1.07,3.28,4.09,4.71,6.19l1.88,2.75c.43.63,1.29,1.01,1.41,1.71Z"/>
      <path class="cls-5" d="M124.36,99.13c-.39.26-1.74.42-1.83-.12l-.41-2.79c.96.28.22,2.32,2.24,2.91Z"/>
      <path class="cls-5" d="M129.15,107.29c-1.3-.2-1.99-1.56-1.85-2.84.81.21.91,1.41,1.85,2.84Z"/>
      <path class="cls-5" d="M121.44,96.12c-.22.02-.72.14-.92-.11-.38-.46-.39-1.14-.41-1.63l1.33,1.73Z"/>
      <path class="cls-5" d="M125.23,101.39c-.38,0-.74-.17-.9-.53s-.13-.73.03-1.07c.39.47.73,1.02.87,1.6Z"/>
      <path class="cls-5" d="M127.31,104.28c-.9,0-2.21-1.23-2.03-2.21l1.12,1.24c.3.34.96.45.91.98Z"/>
      <path class="cls-3" d="M108.13,148.23c-.45-.36-1.51-.94-1.56-1.58-.11-1.48-.94-1.96-1.64-3.06l-2.18-3.44c-.86-1.36-1.4-2.42-2.06-3.57-.52-.9-.77-1.69-1.83-2.18-.4-.44-.34-1.69-.32-2.27,0-.14-.21-.29-.29-.34-.13-.08-.02-.24.06-.24l.8.04c-.13.36-.25.71-.19,1.1.07.43.75.49.9.86l.38.95c.05.14.45.05.76-.02.07.58.07,1.39.39,1.86l.65.05c.06,0,.14.5.26.56,1.32.61,1.78,2.72,3.27,3.92.57.46.55,1.01.82,1.42.7,1.02,1.63,1.92,2.3,3l.8,1.27,1.07,1.49c.51.71.81,1.27,1.01,2,.15.52,1.07,1.4.37,2.05-.44.4-1.99,0-2.16-.62-.36-1.31-.55-2.41-1.61-3.26Z"/>
      <path class="cls-3" d="M97.59,131.32c-.99-.26-1.23-1.13-1.43-2.03l.88-.83.12,2.04c.16.18.75-.08.84-.38.2.45-.06.99-.41,1.19Z"/>
      <path class="cls-3" d="M100.34,54.61c.2.1.28.3.21.52-.18.58.35,1.13.94,1.18.12.01.34-.05.42.12.05.1.04.25.02.34-.28.72.73.99.93,1.38.68,1.3,1.49,2.13,2.28,3.25.34.48.4,1.18.87,1.72.32.36.1,1.43.01,1.8-.13-.46-.39-.61-.53-.62-.16,0-.38.08-.61.22l-.11-1.25c-.44.05-.91-.12-1.02-.39-.08-.19.02-.79-.21-.93-.71-.45-.69-1.28-1.02-1.88-.25-.46-.83-.95-1.07-1.46-.28-.6-1.84-1.47-1.85-3.1-.74-.7-1.58-1.87-1.74-2.66l.14-.33c.25.17.67.32.93.6l1.4,1.49Z"/>
      <path class="cls-3" d="M107.98,66.27l1.35,2.33c.5.87,1.16,1.61,1.14,2.68-.34-.2-.42-.48-.68-.92-.13-.22-.86-.28-.87-.54-.01-.28.02-.75-.17-.95l-2.02-2.13c-.2-.21-.33-.58-.22-.7l.51-.57.96.79Z"/>
      <path class="cls-3" d="M136.76,109.61c-.21.2-.59.44-.6,1.13-.28-.69-.13-1.31-.13-2.12l-1.23.17.26-2.31c.83.77,1.76,1.95,1.7,3.13Z"/>
      <path class="cls-3" d="M113.45,75.37c-.14-.06-.52.02-.56-.23l-.11-.6c-.44-.17-.99-.25-1.02-.81-.01-.27-.17-.67.11-1.03.57.81,1.5,1.57,1.58,2.68Z"/>
      <path class="cls-2" d="M125.92,158.47c-.02.07-.07.14-.12.2-.59.03-1.13.47-1.12,1.09,0,.22-.13.28-.23.41-.58-.1-.82.26-1.21.7l-1.11,1.22c-.29.32-1,.21-1.31.14.06-.67-.54-1.04-.91-1.59l-5.22-7.71c-.32-.48-.48-.98-1.09-.98-.32-.91.58-1.73.71-2.56.17-1.11-1.14-2-1.45-2.85-.36-.98-.36-1.8-1.3-2.39-.83-.51-1.17-1.79-1.45-2.45,1.07-.29,1.42-1.02,1.92-1.93.9-1.65,2.39-1.83,3.01-2.91l1.1-1.92c.76-.81,1.76-1.14,1.69-2.49-.05-1.03,1.71-.92,2.71-2.19.59-.75.89-1.69,1.28-2.62,1.55-.87,2.66-2.26,3.12-4l1.5-1.16c3.86-2.98,3.35-4.92,3.53-5.04.16-.12.54-.06.76-.47.07-.13.08-.51.28-.62.1-.06.32,0,.38.14.26.64,1.58,1.03,2.29,3.52l.6.85-.59.9c-.09.83-1.15,1.1-1.52,1.54l-2.61,3.13s-.89,2.53-2.48,2.9c-.43.1-.39.7-.56.87-.21.21.07,1.15.45.83.79-.66,2-1.5,2.53-2.28,1.03-1.52,1.83-2.68,3.22-3.91l2.01-1.78c.2-.18.1-.93.67-.85.3.04.83.05.89.57s.53.75.69,1.07c.72,1.35,1.71,2.15,2.85,3.14l1.8,2.85c.63.99,1.54,1.65,2.11,2.78.36.71,1.6,1.22,1.74,2,.17.94.03,1.51,1.23,2.1-.92.58-.95,1.42-1.49,1.95l-1.06,1.03c-2.39.47-2.46,2.23-4.98,3.6-1.09.59-1.33,2.4-2.13,3.2-.46.45-2.07,1.14-2.83,3.33l-1.56.33c-1.4.66-1.69,2.45-2.83,3.36-1,.8-2.89.92-3.39,2.5-.23.73,0,1.78-.53,2.42Z"/>
      <path class="cls-5" d="M124.45,160.17l-1.76,2.44c-.32.45-.69.75-1.12.6-.46-.17-.8-.51-.75-.98.31.07,1.02.18,1.31-.14l1.11-1.22c.39-.43.63-.8,1.21-.7Z"/>
      <path class="cls-5" d="M125.8,158.67c.03.68-.47,1.1-1.12,1.09-.01-.62.53-1.06,1.12-1.09Z"/>
      <path class="cls-1" d="M126.06,121.94c-.44-.49-.32-1.05-.18-1.56,1.55-.24,1.57-1.94,2.49-1.64.28.09.39.48.31.92-.73.85-1.45,1.51-2.62,2.29Z"/>
      <g>
        <path class="cls-1" d="M198.34,71.78l-1.19-.32c-.12,0-.31.06-.64-.13.8-1.08,1.14-2.31,1.12-3.72l-.15-9c0-.47-1.28-.38-1.7-.25-.5.17-.97.63-.88,1.25-.41.19-.57.16-.68.65-2.46.74.65,3.6-.91,9.19-.28.99.01,2.17,0,3.19l1.63.32c-.45,1.33-1.36,1.49-1.14,2.79.02.12-.04.32-.09.42-.29.58-.59,1.27-.72,2.01-.06.37.52.65.75.63l.03.86c-.59.01-.86.41-.83.96.02.52.24.94.79,1.03l.02.84c-.26,0-.59.05-.76.21-.31.29-.38,1.57-.03,2.06.15.21.53.34.86.36l-.05.53c-.27-.02-.59.09-.69.28-.16.29-.09.66-.12,1.02l-.22,2.92v1.5c-.65,1.56-.87,2.74-.03,2.56v.28s.02.47.02.47c-.21-.11-.87.24-.77.51.31.82-.04,1.34-.05,2.09l-.07,4.55c0,.52-.36,1.06.13,1.4l-.09.75c-.13,1.09-.17,2.25-.17,3.38v1.25s0,1.33,0,1.33v3.87c-.18.06-.34.16-.44.28-.43.51.31.84.7,1.66l-.42.9c-.66.11-1.59-.07-2.24.24s-.46,1.21-.79,1.98c-.52-.6-1.05-1.5-1.23-2.22.06-2.33-.26-6.06-.66-6.24-.24-.11-.57-.05-.6.29l-.38,4.69c-1.02.48-1.55,1.28-2.22,2.21-.64-1.05-.24-2.05-.29-3l-.23-4.2c-.03-.54-.91-1.5-1.41-1.42-.53.15-.65,1-.65,1.45v8.8c0,.96.04,1.88-.49,2.82l-.82-2.5c-.14-.43-.74-.64-1.05-.51-.37.16-.53.62-.38,1.05.51,1.47-.51,2.42-.34,3.11.03.13-.42.32-.51.15-.56-1.14-.43-2.38-.54-3.62l-.19-2.06c-.05-.51-.37-.74-.72-.81-.4-.08-.94.23-.81.79.17.74-.03,1.35-.04,2.1l-.07,5.09c0,.36-.42.68-.61.54s-.12-2.45-.58-5.15c-.09-.52.57-1.56.01-2.13-.88-.91-1.87-.35-2.64.34-.53.48-1.18.51-1.77,1.55l-1.35-8.78c-.08-.5-.76-1.32-1.17-.92l-2.24,2.18c-.57,3.65.7,7.34-.1,11.08-.58-.93-.48-1.74-.79-2.62l-.19-2.4-1.8-2.03c-.39-.44-.1-1.32-.07-1.96.03-.72-.93-1.63-1.39-1.12-.6.67-.13,1.91-.23,2.65-.38,2.78-.02,4.7-.64,4.73-.24.01-.48-.22-.43-.57.23-1.84-.48-3.35-.84-5.01l-.17-6.08c-.03-1.01-.66-1.83-1.59-2.44-1,1.78.09,4.58-1.08,7.18-.8,1.78-.73,3.66-.41,5.59.11.67-.47,1.56-.18,2.24.38.87,1,1.87.64,2.85-.26.71-.65,1.24-.45,2.15.21.96.32,2.12.04,3.12l-.71,2.62c-.25.92-.95,1.64-.86,2.72-1.08,2.11-2.31,1.98-4.71,1.71-1.16-.13-.99-.93-1.34-1.63-.64-1.28-1.93-2.2-2.81-3.33l-4.42-5.63c-.86-1.1-1.82-1.93-2.52-3.12-.59-1.01-1.55-1.58-2.38-2.31-.98-.85-1.06-3.59-4.28-5.29-.04-.66.26-1.61-.13-2.21-.76-1.1-2.15-1.88-2.63-3.25-.36-1.04-.98-2.17-1.99-2.67-.16-.57-.8-1.25-1.01-1.78-.33-.83-.16-1.77-1.14-2.25-.82-.41-.93-1.46-1.35-1.97-.65-.78-.7-1.38-.99-2.26-.89-1.37-1.55-2.12-2.03-3.9-.11-.39-1.66-1.82-.94-2.17.63-.3.51,1.35,1.48.96v.29c.03.49.04,1.17.42,1.63.2.24.7.13.92.11.18-.02.49.05.68.11l.41,2.79c.09.55,1.44.39,1.83.12,0,.21.07.51,0,.66-.16.34-.18.71-.03,1.07s.52.54.9.53c.04.18.08.51.05.68-.18.98,1.13,2.2,2.03,2.21l-.02.16c-.13,1.28.56,2.64,1.85,2.84.06.09.17.16.23.2-.46,1.84,1.64,1.91,1.93,3.22.25,1.11,1.02,1.76,1.82,2.33l.96,1.57c.66,1.08,1.12,2.98,3.29,3.52.03.2.08.38.16.53-.14,1.97,2.28,3.45,2.68,4.05.97,1.47,1.73,3.05,3.12,4.14.54,1.61,2.02,2.82,2.96,4.01.4.51.64,1.05,1.63.93l2.75-.33c.59-.07,1.66-1.12,1.6-1.71-.08-.72,0-1.52.01-2.23.01-.97-.47-1.89.33-2.81.26-.3.46-.97.3-1.39-.12-.32-.6-.63-.92-.89l-.09-.49c.65.08-.14-.94.68-2.07.14-.26-.31-.89-.56-1.02l-.08-1.95c.61.1.86-.3.85-.9,0-.53-.2-.99-.82-.88l-.05-6.13c.29,0,.45-.13.51-.27.16-.33-.15-.66-.16-.93l-.1-3.58c0-.23.32-.59.26-.76-.1-.25-.27-.42-.53-.54l.13-2.24c.03-.52.46-1.16-.11-1.6.17-.33.02-.91.05-1.26.06-.1.25-.23.24-.4-.01-.15-.17-.31-.24-.41v-2.16c.43-.08.5-.41.46-.75-.05-.38-.15-.75-.53-.99l.09-1.46c.02-.24.34-.59.18-.97-.32-.78,0-1.43-.06-2.19l-.19-2.89v-.58c.02-.85-.17-1.75-.13-2.67.03-1.01.31-1.97.14-2.92-.02-.11.04-.29.06-.4.24-.32.32-.81.22-1.32-.28-1.43-.14-2.75-.17-4.15s-.11-2.84.02-4.3c.09-.95-.29-1.82-1.21-1.9.14-.25.01-.59.02-.79.18.03.43.02.59-.08.17-.11.27-.35.28-.67l.06-2.77c.01-.58.38-1.18.17-1.64-.04-.1-.06-.3-.04-.4.46-1.27-1.02-2.99-1.92-3.17-.44-.09-.95-.09-.94.52h-.59s-.04-.16-.11-.18c-.15-.05-.19.14-.25.17-.19.02-.55,0-.73.07l-.04-33.07c0-.56.23-.93.63-1.33h49.07c.67,0,1.07.41,1.07,1.07v45.57s.22,1.13.22,1.13ZM193.97,50.13c-1.52,1.33-.78,4.68-.13,5,1.27.62,3.49-1.5,3.49-3.1v-27.36c-1.3-.33-2.46-.3-3.59.08.37,4.03-.88,7.58-.38,11.27-.85,1.08.09,2.75-.03,5.32l-.19,4.26c-.07,1.59-.4,3.09.83,4.52Z"/>
        <path class="cls-4" d="M97.86,52.85c.16.78,1,1.96,1.74,2.66,0,1.62,1.57,2.49,1.85,3.1.23.51.82,1,1.07,1.46.32.6.31,1.43,1.02,1.88.22.14.13.75.21.93.11.27.58.44,1.02.39l.11,1.25c.23-.14.46-.23.61-.22.14,0,.4.16.53.62.09-.38.3-1.44-.01-1.8-.47-.54-.53-1.24-.87-1.72-.78-1.12-1.6-1.95-2.28-3.25-.2-.38-1.21-.66-.93-1.38.21.07.4.17.56.28,1.06.78,1.72,1.84,2.54,2.94.45.6.98,1.2.94,2.08,1.79.82.08,2.25,1.22,2.64.56.19.66.72.84,1.05-.04.17-.08.4-.04.51l-.96-.79-.51.57c-.11.12.02.49.22.7l2.02,2.13c.19.2.16.67.17.95.01.26.74.32.87.54.26.44.34.72.68.92.64.38,1.04.9,1.4,1.41-.28.37-.13.76-.11,1.03.03.57.57.64,1.02.81l.11.6c.05.25.42.17.56.23.36.16.53.95.87,1.29.85.85,1.66,1.66,2,2.85l-.1.6c-.02.11.59.11.67.21l2.48,3.2c.66.85.86,1.79,1.48,2.64l2.48,3.42c.69.96.95,2.32,1.71,3.18s1.34,1.43,1.63,2.58c.14.57,1.21.84,1.44,1.31l.93,1.9c.8.66,1.51,1.22,2.04,2.16,1.17,2.06,2.27,4.17,3.99,5.76l-.26,2.31,1.23-.17c0,.8-.14,1.43.13,2.12.01-.68.39-.93.6-1.13l.3.27-.04,1.87c.39-.13.5-.2.96-.18-.24.87.7,1.16.99,1.51,0,.74.3,1.58.85,1.96.14.1.09.85.25.88l.64.11c.15,2.72,3.54,5.31,3.97,6.53.24.7.84,1.21,1.16,1.67s.76,1.9,1.54,1.5c.66-.69,0-1.84,0-2.73v-63.67c.87-.09,2.47-.07,3,.77v5.4c0,1.21,0,2.2.04,3.43l.09,3.29c.3,1.1-.1,2.07,0,3.08.17,1.67.07,3.09.05,4.72l-.12,10.27.44,1.98c-.29,1-.11,1.37.3,2.24.51,1.07-.32,2.64-.12,3.69.26,1.34.18,2.06-.24,3.31-.3.9-.34,4.02-.04,5.54.33,1.66.72,3.2.44,4.97s-.4,3.37.04,5.11c.33,1.33-1.41,2.46-.08,4.89.57,1.05.08,1.64-.3,2.5-.57,1.26.38,4.5-.83,5.17-.84.47-2.6.48-3.26-.32l-3.42-4.11-.98-2.1c-1.22-2.62-2.86-1.99-3.53-4-.4-1.19-1.53-1.92-2.19-2.9-.82-1.22-1.6-2.3-2.44-3.51l-1.04-1.51c-.76-1.11-1.43-2.13-2.32-3.11l-1.87-2.05c.26-1.28-.25-2.1-.79-3.03s-.97-1.56-2.19-1.65l-.22-2.16-1.78-2.24c-.51-1.04-.96-1.37-2.02-1.55-.74-.12-1.04-1.48-1.44-2l-2.45-3.26c-.3-.41-1.03-1.9-2.49-3.78-.42-.55-.47-2.15-1.23-2.49-1.56-.68-2.03-1.47-2.23-3.19-.11-.94-1.35-2.45-2.11-3.02-.9-.68-1.2-1.25-1.55-2.23-.23-.65-1.94-3.5-2-3.57-.94-1-1.71-1.79-2.06-3.21-.13-.51-.73-1.5-1.12-1.85-.99-.81-1.57-1.7-1.81-2.98-.13-.7-1.24-1.25-1.75-1.75-.17-3.74-4.62-5.04-3.03-8.58.13-.29.13-.67.49-.72.21-.03.43-.02.64.02Z"/>
        <path class="cls-6" d="M198.34,71.78c.91.53,1.89,1.78,1.5,2.94-.31.94-.07,1.65.27,2.44-.03.47-.07,1.57-.28,1.98-.65,1.04-.47,2.15.11,3.11-.38.53-.75,1.2-.14,1.81.24.24-.1.46-.1.6l-.37.09-.27-2.6c-.13-1.27-.07-2.21.05-3.47.18-1.86-.18-3.88-.35-5.58-.63-.73-1.76-.15-2.25.32-.7.68-1.15,1.22-1.15,2.25,0,.94-.71,1.74-.74,2.59l-.21,5.26c-.04.96,0,2.17.2,3.11.26,1.3-.25,5.14-.29,7.79l-.09,5.68c-.03,1.93-.36,3.76.09,5.69.19.82-.65,1.68-.85,2.32.33,1.88.46,3.54-.16,5.42.92.96.95,2.18.2,3.08-.3,1.12.09,2.13.12,3.21.04,1.92-.55,4.01.02,5.94.24.82.75,1.66.12,2.52-1.08,1.48,1.17,2.17-.24,4.64-.35.62,1.74,2.56-.08,4.85.49.67.86,1.37.64,2.17-.58,2.12-1.01,4.57-.42,6.73.65,2.36-.18,3.54.47,6.2.32,1.33-.07,2.27-.03,3.47.07,2.14.64,4.38-.58,6.42l-.15,10.6c-.02,1.36-.12,2.34.25,3.71,0,.67-.71,1.76-.31,2.68s0,1.99-.01,2.94l-.04,7.17-1.59,2.09c-1.41,1.86-3.22,3.27-4.93,4.87-.82.77-1.25,1.75-2.31,2.37l-1.58,1.64c-1.47.56-2.35,1.34-3.25,2.54l-3.08,2.44c-.56.97-.64,1-1.67,1.43-.88.37-1.87,1.69-2.44,2.49l-1.67,2.32c-1.08.15-2.4-.25-3.39.16s-1.61.56-2.63-.04c-.92-.55-2.16.97-5.37.11-1.13-.3-1.35-.87-2.03-1.71s-1.78-1.49-2.28-2.56c-.38-.82-1.5-.73-2.46-2.19l-1.03-1.56c-.32-1.04-1.03-1.84-1.98-2.47-.29-1.32-1.04-2.56-2.18-3.42.37-.94-.43-1.13-.72-1.5l-3.2-4.01c-.85-1.06-1.22-1.88-2.56-2.25-.76-.21-1.49-1.03-2.55-.79-.69.16.26,3.63.62,4.09l3.28,4.17,1.39,2.15c1.22,1.88,2.7,3.22,2.91,3.96.35,1.21.79,1.62,1.48,2.61l3.17,4.53,1.47,1.38c.21.2.07.44-.11.63-1.51-1.03-2.46-2.49-3.53-3.98l-1.49-2.08c-.67-.94-1.01-1.49-1.42-2.6-.32-.84-1.26-1.93-1.9-2.56-.54-.53-.55-.94-.96-1.46l-4.61-5.93-.89-1.96.05-3.39.25-.48c.35,0,.57-.29.74-.5,2.05-.49,5,1.57,5.18,2.26.43,1.75,1.6,2.71,2.71,4.03l2.09,2.48.86,1.48c.72,1.25,1.35,2.29,2.35,3.4.34.38.41,1.02,1.03,1.02-.04.44-.06,1.06.05,1.52.14.59.95.86,1.45,1.02,1.14,1.15,1.67,2.22,1.69,2.24l3.17,3.34c.73.77,2.12-.07,2.93.01l2.57.28,3.84-.02c1.48,0,1.83-1.09,2.16-2.23.27-.94,1.89-1.34,2.4-2.11.65-.97,1.34-1.31,2.12-2l2.88-2.54c.51-.45,1.16-.5,1.45-1.22.25-.63.87-1.01,1.69-.84l5.39-5.46,3.46-3.49c.5-.5,1.46-1.11,1.47-1.95l.1-7.16c.01-.91.41-1.66.13-2.65s-.05-1.75.07-2.7c.16-1.25-.54-3.16.11-4.34.46-.85.52-1.01.48-2.06-.05-1.12.09-2.3-.06-3.52-.17-1.41.18-2.83-.74-4.1l1.07-1.09c-.38-1.3.05-2.57.02-3.8s-.39-2.24.05-3.5c.09-.27-.17-.86-.17-1.24l-.08-19.79-.02-1.87v-5.12s0-2.31,0-2.31c0-1.24-.05-2.18-.04-3.4l.03-5.52.03-.86c.03-.83.24-1.93-.04-2.82s-.07-1.5-.03-2.39l.17-3.26c.1-1.89-.22-3.6.12-5.49l.18-3.71c.01-.27.15-.56.1-.77-.04-.16-.29-.27-.48-.2v-1.3s-.02-.47-.02-.47c.45,0,.8-.5.77-1.06-.08-1.51.18-2.84.21-4.21l.07-3.26.05-.53c-.5-.84-.05-1.72-.08-2.63l-.02-.84.04-1.99-.03-.86.21-2.22c.02-.22-.07-.43-.24-.42.05-.1.11-.3.09-.42.84-.98,1.2-2.27,2.3-3.26.34-.3,1.11-.38,1.05-1.02l1.19.32Z"/>
        <path class="cls-3" d="M152.91,214.27c-.32.04-.39-.12-.41-.27-.02-.22-.06-.53.08-.68.18-.19.32-.43.11-.63l-1.47-1.38-3.17-4.53c-.69-.99-1.13-1.4-1.48-2.61-.22-.74-1.7-2.07-2.91-3.96l-1.39-2.15-3.28-4.17c-.36-.45-1.31-3.92-.62-4.09-.11,1.26,1.73.81,2.08,1.31l8.65,12.51,6.74,9.86,3.91.63,32.67-.05c1.42,0,2.53-.45,3.98-.05.41.12,1.18-.24,1.83.18.48-1.25-.07-2.39-.05-3.66.01-.83-.08-1.55-.53-2.18l.02-24.6c.16.9.55.63.65.1l.15-6.09c.04-1.43.33-2.76-.07-4.19-.19-.68.2-1.39.21-2.04l.05-4.9c.19.14.29.39.3.75l.14,6.37c-.44,3.95-.16,7.81.68,11.63-1.2,1.48-.32,3-.18,4.43.11,1.1-.25,2.06-.01,3.18.93,4.34.02,8.09,1.2,11.59l-.31,2.28c.41,1.18.92,2.48.24,3.66-.45.79-1.35,1.47-1.27,2.56s-.27,2.16-1.18,2.68c-3.01,1.74-4.91-.47-6.76.25-1.17.46-2.08.61-3.32.61h-2.99s-4.82.03-4.82.03c-2.03-.35-3.92-.05-5.93-.06h-2.72s-7.29.02-7.29.02l-2.9.06-3.19-.09c-1.51-.04-3.21-.22-4.34-1.41l-.44-.94c-.07-.15-.42-.14-.65,0Z"/>
        <path class="cls-6" d="M199.41,85.15l-.07,2.13c-.04,1.32-.37,2.84-.03,4.19.18.68-.13,1.38-.04,1.94.3,1.71-.05,3.2-.05,4.92v2.84c0,1.32.49,3.12-.52,5.2,1.06,2.37.13,5,.1,6.14l-.04,1.86c-.01.76-.35,1.69-.28,2.48s.84,1.82.29,2.66c-.78,1.2.03,2.15,0,3.31l-.07,2.79c-.01.52-.73,1.28.17,1.91-.99,2,.17,3.34-.44,5.93-.25,1.09.42,2.24.55,3.24-.07.51-.59,1.19-.28,1.86-.58,1.13-.34,2.21.42,3.18l-.02,5.49c-.47.27-.75.62-.78,1.01-.04.59.2.74.59,1.19.46.53.27,1.56.24,2.28l-.12,3.28c-1.08,3.02.57,4.94.36,5.42-.54,1.21-.09,2.33-.16,3.44s.07,2,.09,3.13l.2,9.7.06,2.26c.02.58-.21,1.8-.04,2.34.3.99.81,1.56.71,2.73-.11,1.24.03,2.72-.44,3.88.15.56.69,1.36.54,2-.31,1.34-.07,2.52.06,3.88l.28,2.87c.04.38-.56,1.11-.04,1.59.55.5.71,1.31.32,1.97s.12,1.09.14,1.68l.17,5.02.24,2.62c.1,1.09-.38,2.01-1.28,2.62l.36,2.04c-.22,1.3-1.57,2.68-2.95,2.75-1.92.09-3.74.2-5.61-.08l-2.8.24c-1.13-.21-2.05-.13-2.87.63-1.13-1.43-2.55.15-3.23-.35s-1.31.35-1.71.26l-2.06-.46c-1.14-.26-2.36-.43-3.52-.07-1.58.49-3.38-.4-5.73.27-.72.2-1.31.72-2.09.07-.48-.4-1.31.07-1.7-.05-.97-.34-1.7-.5-2.69-.1s-2.45-.95-3.44.48c-1.82-1.36-5.37-.21-6.04-1.37l-1.22-2.11c.23-.15.58-.16.65,0l.44.94c1.13,1.19,2.83,1.37,4.34,1.41l3.19.09,2.9-.06,7.29-.03h2.72c2.01.02,3.9-.28,5.93.07l4.82-.04h2.99c1.24.01,2.15-.14,3.32-.6,1.85-.72,3.74,1.48,6.76-.25.9-.52,1.25-1.61,1.18-2.68s.82-1.77,1.27-2.56c.68-1.18.17-2.48-.24-3.66l.31-2.28c-1.18-3.5-.27-7.25-1.2-11.59-.24-1.12.12-2.08.01-3.18-.14-1.43-1.02-2.95.18-4.43-.84-3.82-1.12-7.68-.68-11.63l-.14-6.37c0-.36-.11-.61-.3-.75l-.72-.54c-.31-1.31-.07-2.51-.1-3.84l-.07-2.53c-.09-3.26-.05-6.17,0-9.33.02-1.42-.21-2.71,0-4.2l-.1-3.51c-.03-.93-.33-1.15-.67-1.74-.36-.64-.24-2.13-.07-2.79,1.15-.91.99-2.27.05-3.65-.32-.47-.39-1.91-.02-2.31l.71-.77c.47-.51-1.51-1.13-.76-3.38.13-.16.65-.36.75-.64l-.03-9.23c-.4-.34-.86-.71-.86-1.18,0-.7.25-.81.79-1.32s.41-2,.14-2.69c-.47-1.19.46-2.06.45-3.06-.02-1.69-.63-3.21-.19-4.89.83-.95.91-2.25.49-3.5.37-1.02.11-2.05.13-3.07.05-2.68.15-5.27-.04-7.99l.21-2.48c.18-2.09.04-3.13.67-2.85Z"/>
        <path class="cls-6" d="M99.16,52.39c-.39,0-.81-.09-1.16.13l-.14.33c-.22-.04-.44-.05-.64-.02-.37.06-.36.43-.49.72-1.59,3.53,2.86,4.84,3.03,8.58.51.5,1.62,1.05,1.75,1.75.24,1.28.81,2.17,1.81,2.98.39.36.99,1.34,1.12,1.85.36,1.42,1.12,2.21,2.06,3.21.06.07,1.77,2.91,2,3.57.35.98.65,1.56,1.55,2.23.76.57,2.01,2.08,2.11,3.02.19,1.72.66,2.51,2.23,3.19.76.33.8,1.94,1.23,2.49,1.46,1.88,2.18,3.37,2.49,3.78l2.45,3.26c.39.53.7,1.88,1.44,2,1.06.17,1.51.51,2.02,1.55l1.78,2.24.22,2.16c1.22.09,1.67.76,2.19,1.65s1.06,1.74.79,3.03l1.87,2.05c.9.98,1.56,2,2.32,3.11l1.04,1.51c.84,1.21,1.62,2.29,2.44,3.51.67.99,1.8,1.72,2.19,2.9.67,2.01,2.31,1.38,3.53,4l.98,2.1,3.42,4.11c.66.8,2.42.79,3.26.32,1.2-.67.26-3.91.83-5.17.38-.86.87-1.45.3-2.5-1.32-2.43.42-3.57.08-4.89-.44-1.74-.31-3.39-.04-5.11s-.12-3.31-.44-4.97c-.3-1.52-.26-4.64.04-5.54.42-1.25.49-1.96.24-3.31-.2-1.05.63-2.61.12-3.69-.41-.87-.58-1.25-.3-2.24l-.44-1.98.12-10.27c.02-1.63.12-3.05-.05-4.72-.11-1.02.3-1.98,0-3.08l-.09-3.29c-.03-1.23-.03-2.22-.04-3.43v-5.4c-.53-.85-2.13-.86-2.99-.77-.52.05-.97.33-1.18.64-.23.33-.39,1.37-.17,1.71.86,1.33.84,2.5.43,3.99l-.42,3.98.02.79v2.06c0,.22.03.43.25.52,0,.09,0,.17.03.26l-.54.25-.09-7.98c.01-.52.31-1.07.7-1.66-.97-1.44-1.19-3.13-.57-4.78l1.55-.71c.18-.08.54-.05.73-.07.03.3.33.44.37.01h.59c2.14,0,2.01,1.96,2.87,2.65-.02.09,0,.3.04.4-.06-.07-.33-.02-.39.13l-.57,1.49-.13,3.53c0,.21.12.54-.02.79.67,1.37.82,2.81.18,4.4.74,1.11.95,2.34.06,3.4,1.12,1.56.25,3.06.9,3.87-.02.11-.08.29-.06.4-.28.03-.5.18-.64.35-.17.2-.79,4.71.64,5.24v.58c-.55.03-1.03.76-.76,1.34.43.92-.14,1.58.07,2.4l.74,2.31-.09,1.46c-.36.62.05,1.11.05,1.75v2.16c-.23.03-.27.22-.27.41s.04.38.28.39c-.03.35.11.93-.05,1.26-.25.5-.42,1.17.11,1.6l-.13,2.24c-.39.96-.31,1.8-.23,2.88l.25,3.19.05,6.13-.03,1.78.08,1.95c-.48.9-.3,2.12-.12,3.09l.09.49-.24,2.72-.14,3.98c-.04,1.22-1.09,1.87-2.17,2-1.56.19-2.45-.5-3.4-1.63l-1.64-1.93c-1.33-1.57-2.51-3.13-3.09-5.16-1.27-.65-2.38-1.64-2.99-2.94-.21-.45-.35-.79-.8-.79-.08-.15-.13-.33-.16-.53-.12-.7-.98-1.08-1.41-1.71l-1.88-2.75c-1.43-2.09-3.11-5.11-4.71-6.19-.06-.04-.17-.11-.23-.2-.95-1.43-1.04-2.63-1.85-2.84l.02-.16c.05-.52-.6-.63-.91-.98l-1.12-1.24c.03-.17,0-.5-.05-.68-.14-.58-.48-1.13-.87-1.6.07-.14,0-.45,0-.66-2.03-.59-1.28-2.63-2.24-2.91-.19-.05-.5-.13-.68-.11l-1.33-1.73v-.29c-.03-.63-.62-1.21-1.15-1.64-.9-.73-1.13-1.58-1.72-2.47l-2.75-4.14c-.29-.43-.21-1.17-.52-1.43-.4-.34-.91-.42-1.4-.4.02-.5-.48-.98-.8-1.38-.53-.68.12-2.77-3.34-5.16l-.96-2.02c-.43-.9-.47-1.31-1.03-1.96-.59-.68-1-1.44-1.8-2.14-.39-.34-.72-1.28-.96-1.78-.64-1.32-1.47-2.22-2.27-3.43-.43-.65-.36-1.86-1.29-2.35-.85-.45-1.64-3.03-2.08-3.62l-2.79-3.85c-.49-.68-.33-2.19.01-2.9.24-.51.81-.79.85-1.25.17-.06.46-.21.51-.45.8.1,1.81.24,2.53.68Z"/>
        <path class="cls-2" d="M191.56,116.63l.42-.9.72-.28-.03,5.52c0,1.22.05,2.17.04,3.4l-.02,2.31v5.12s.02,1.87.02,1.87l.08,19.79c0,.38.27.97.17,1.24-.44,1.26-.08,2.28-.05,3.5s-.4,2.5-.02,3.8l-1.07,1.09c.92,1.28.57,2.69.74,4.1.14,1.23,0,2.41.06,3.52.05,1.05-.01,1.21-.48,2.06-.65,1.18.05,3.09-.11,4.34-.12.95-.34,1.74-.07,2.7s-.12,1.74-.13,2.65l-.1,7.16c-.01.83-.97,1.45-1.47,1.95l-3.46,3.49-5.39,5.46c-.82-.17-1.44.2-1.69.84-.28.72-.94.77-1.45,1.22l-2.88,2.54c-.78.69-1.47,1.03-2.12,2-.51.76-2.13,1.17-2.4,2.11-.33,1.14-.69,2.22-2.16,2.23l-3.84.02-2.57-.28c-.82-.09-2.2.75-2.93-.01l-3.17-3.34s-.55-1.09-1.69-2.24l.79-2.03c.44-1.11,1.6-1.59,2.54-2.14,1.48-.86,2.29-2.34,3.38-3.58l1.12-1.78c.3-.48.66-1.29,1.04-1.7l4.78-5.14c.76-.82,2.02-1.38,2.43-2.67.07-.21.7-.41.33-.83-.65-.74-2.78-.2-3.03.82l-.17.71c-.22-.04-.87.05-.92.38-.32,1.85-1.58,1.59-2.19,2.78l-.74.18c-1.37.34-.74,3.44-2.77,3.73-1.07.16-1.35.83-1.67,1.73l-1.63,1.67c-.63,1.14-1.31,2-2.65,2.32-.06.02-2.04,2.17-2.15,3-.62,0-.69-.64-1.03-1.02-1-1.11-1.63-2.15-2.35-3.4l-.86-1.48-2.09-2.48c-1.11-1.31-2.28-2.28-2.71-4.03-.17-.69-3.13-2.75-5.18-2.26.16-.5-.36-.7-.54-1.01-1.01-1.71-2.22-3.11-3.26-4.76l-.89-1.41-2.86-4.12-2.31-3.33-4.32-6.22c.02-.18,0-.48-.1-.6-.18-.2-.43-.28-.69-.28v-.35c-.32-.97.33-1.48.77-2.26.35-.62.31-1.4,1.08-1.8l1.1-1.21c.12-1.17,1.01-2.28,2.14-2.72s1.5-1.7,2.33-2.29c1.21-.87,2.58-1.45,3.22-3.05.46-1.15,1.26-2.07,2.48-2.67l1.71-1.81c1.66-.69,2.69-1.7,3.5-3.31.71-1.42,3.36-2.06,3.69-3.63.18-.84.42-1.34.84-2.08,1.47-2.53,3.48,0,6.04-1.39,1.08-.58,1.1-1.55,1.43-2.52s.99-1.8.85-2.94c-.14-1.24.7-1.96,1.46-2.7l3.53-3.43c.35-.34.23-.95-.03-1.24-.17-.19-.56-.51-.96-.25-1.58,1.02-1.24,1.97-1.8,2.46-.24.21-1.19.53-1.19.06v-4.98s-.53-1.21-.53-1.21c.99-1.89-.59-4.34.8-7.29.65,1.3.64,2.61.54,3.87-.05.67.57.94.65,1.37l.61,3.07c.11.55.53.82,1.03.93.33.07.96-.19,1.14-.69.88-2.31-.18-5.12,1.77-4.36.59.23.52.63.56,1.2l.25,3.68c.04.64.8,1.59,1.32,1.9.64.39,1.16-.34,1.23-.89l.69-5.61c-.23-.23-.68-.55-.72-.87l.09-4.24c0-.4.53-.94.81-.95,1.25-.03,1.42,3.31.98,5.83,1.76,1.36.86,3.49,1.58,5.46.21.57.76.73,1.25.58.36-.11.71-.45.71-.99l.02-3.31c0-.65.72-.86,1.11-.84.79.03.61.72.72,1.25.29,1.32.44,2.37.55,3.66l.24,2.85.71,3.82c.56.25,1.84.27,1.87-.32l.25-5.18c1.59-.1,2.81-1.04,3.24-.47.34.46.23,2.47.96,2.36,1.34-.2,1.13-1.55,1.21-2.46.11-1.17.45-2.16.32-3.29.04-.55.85-.55.76.06-.22.78.06,1.41.59,1.59.58.2,1.39.06,1.4-.71.02-2.64-.34-5.63,1.39-5.47.41.04.62.54.66,1.06l.22,3.36c.03.54.17.86.5,1.19.21.21.8.6,1.15.17,1.31-1.56-.19-4.92,2.02-5.4.5-.11.68-.24.85-.61Z"/>
        <path class="cls-5" d="M120.1,94.09c-.97.38-.85-1.27-1.48-.96-.72.35.84,1.78.94,2.17.49,1.78,1.14,2.52,2.03,3.9.3.89.35,1.49.99,2.26.42.5.53,1.56,1.35,1.97.98.48.81,1.42,1.14,2.25.21.52.85,1.21,1.01,1.78,1.01.5,1.62,1.63,1.99,2.67.48,1.37,1.86,2.15,2.63,3.25.39.6.09,1.54.13,2.21,3.22,1.7,3.3,4.44,4.28,5.29.83.73,1.79,1.29,2.38,2.31.69,1.19,1.65,2.03,2.52,3.12l4.42,5.63c.89,1.13,2.18,2.05,2.81,3.33.35.7.17,1.5,1.34,1.63,2.41.27,3.63.39,4.71-1.71-.09-1.08.61-1.8.86-2.72l.71-2.62c.27-1,.16-2.16-.04-3.12s.19-1.45.45-2.15c.35-.98-.26-1.97-.64-2.85-.29-.68.29-1.57.18-2.24-.32-1.92-.39-3.8.41-5.59,1.17-2.6.08-5.4,1.08-7.18.93.62,1.56,1.43,1.59,2.44l.17,6.08c.36,1.66,1.08,3.18.84,5.01-.04.34.19.58.43.57.62-.03.25-1.95.64-4.73.1-.75-.37-1.99.23-2.65.45-.5,1.42.4,1.39,1.12-.03.65-.32,1.53.07,1.96l1.8,2.03.19,2.4c.31.88.21,1.69.79,2.62.8-3.75-.47-7.43.1-11.08l2.24-2.18c.41-.4,1.1.42,1.17.92l1.35,8.78c.59-1.04,1.24-1.07,1.77-1.55.76-.69,1.75-1.25,2.64-.34.56.57-.1,1.6-.01,2.13.46,2.7.38,5.01.58,5.15s.61-.18.61-.54l.07-5.09c.01-.75.21-1.36.04-2.1-.13-.56.42-.87.81-.79.35.07.67.3.72.81l.19,2.06c.11,1.24-.03,2.47.54,3.62.09.17.54-.02.51-.15-.17-.69.84-1.64.34-3.11-.15-.44.01-.9.38-1.05.32-.14.91.07,1.05.51l.82,2.5c.53-.94.48-1.86.48-2.82v-8.8c0-.45.13-1.3.66-1.45.49-.09,1.38.88,1.41,1.42l.23,4.2c.05.95-.35,1.95.29,3,.67-.93,1.2-1.73,2.22-2.21l.38-4.69c.03-.34.36-.4.6-.29.39.18.72,3.91.66,6.24.17.72.7,1.61,1.23,2.22.33-.77.16-1.69.79-1.98s1.59-.13,2.24-.24c-.17.37-.35.5-.85.61-2.22.48-.71,3.84-2.02,5.4-.36.43-.94.04-1.15-.17-.34-.33-.47-.66-.5-1.19l-.22-3.36c-.03-.52-.25-1.02-.66-1.06-1.73-.16-1.37,2.83-1.39,5.47,0,.78-.82.91-1.4.71-.54-.18-.81-.81-.59-1.59.1-.6-.72-.61-.76-.06.13,1.13-.21,2.13-.32,3.29-.08.9.13,2.26-1.21,2.46-.73.11-.62-1.9-.96-2.36-.42-.57-1.64.38-3.24.47l-.25,5.18c-.03.59-1.31.57-1.87.32l-.71-3.82-.24-2.85c-.11-1.29-.26-2.34-.55-3.66-.12-.54.06-1.22-.72-1.25-.4-.02-1.11.18-1.11.84l-.02,3.31c0,.55-.35.88-.71.99-.49.15-1.04-.01-1.25-.58-.71-1.97.18-4.1-1.58-5.46.44-2.52.27-5.86-.98-5.83-.29,0-.8.54-.81.95l-.09,4.24c.04.32.48.64.72.87l-.69,5.61c-.07.55-.59,1.28-1.23.89-.52-.31-1.27-1.27-1.32-1.9l-.25-3.68c-.04-.57.03-.96-.56-1.2-1.95-.77-.89,2.05-1.77,4.36-.19.49-.81.76-1.14.69-.5-.11-.92-.38-1.03-.93l-.61-3.07c-.09-.43-.7-.7-.65-1.37.1-1.26.11-2.57-.54-3.87-1.39,2.95.19,5.4-.8,7.29l.53,1.21v4.98c0,.48.94.15,1.19-.06.57-.48.23-1.43,1.8-2.46.4-.26.79.06.96.25.26.29.38.89.03,1.24l-3.53,3.43c-.76.74-1.61,1.45-1.46,2.7.13,1.15-.52,1.98-.85,2.94s-.35,1.93-1.43,2.52c-2.56,1.39-4.57-1.14-6.04,1.39-.43.74-.67,1.23-.84,2.08-.33,1.57-2.98,2.21-3.69,3.63-.81,1.61-1.84,2.62-3.5,3.31l-1.71,1.81c-1.21.6-2.02,1.51-2.48,2.67-.64,1.6-2.02,2.18-3.22,3.05-.83.6-1.2,1.85-2.33,2.29s-2.03,1.55-2.14,2.72l-1.1,1.21c-.77.4-.73,1.18-1.08,1.8-.44.78-1.1,1.29-.78,2.26-1.73-1.25.24-3.2,1.49-4.91,1.18-1.62,2.27-3.1,3.78-4.49.83-.76,1.38-2.11,2.58-2.52s2.5-1.67,1.78-3c-.25-.35-1.53.1-1.6.53-.22,1.53-1.13,2.46-2.56,2.89-2.88.87-1.79,3.53-3.4,3.67.52-.64.3-1.69.53-2.42.5-1.58,2.38-1.7,3.39-2.5,1.14-.91,1.43-2.7,2.83-3.36l1.56-.33c.75-2.2,2.37-2.88,2.83-3.33.81-.8,1.04-2.61,2.13-3.2,2.52-1.37,2.59-3.13,4.98-3.6l1.06-1.03c.54-.52.57-1.37,1.49-1.95-1.2-.59-1.06-1.16-1.23-2.1-.14-.78-1.38-1.3-1.74-2-.57-1.13-1.48-1.79-2.11-2.78l-1.8-2.85c-1.14-.99-2.13-1.79-2.85-3.14-.17-.32-.64-.57-.69-1.07s-.59-.53-.89-.57c-.58-.08-.47.67-.67.85l-2.01,1.78c-1.39,1.23-2.18,2.38-3.22,3.91-.53.78-1.74,1.62-2.53,2.28-.38.32-.66-.63-.45-.83.17-.17.13-.77.56-.87,1.59-.37,2.43-2.85,2.48-2.9l2.61-3.13c.37-.44,1.43-.71,1.52-1.54l.59-.9-.6-.85c-.71-2.49-2.03-2.88-2.29-3.52-.05-.13-.27-.2-.38-.14-.2.11-.21.49-.28.62-.21.41-.59.35-.76.47-.18.13.33,2.07-3.53,5.04l-1.5,1.16c-.46,1.74-1.58,3.13-3.12,4-.39.93-.7,1.87-1.28,2.62-.99,1.27-2.76,1.16-2.71,2.19.07,1.34-.93,1.68-1.69,2.49l-1.1,1.92c-.62,1.08-2.1,1.26-3.01,2.91-.5.91-.85,1.63-1.92,1.93-.13-.3-.75-.53-.65-1.06-.01-.32-.08-1.3.32-1.45,1.23-.46,2.53-1.8,2.52-1.61l.1-1.08,3.81-4.12c.31-.54.26-1.01.81-1.6l1.05-1.13,2.12-2.1c.44-.44.39-1.53,1.27-1.77.64-.17.73-.86,1.06-1.28l2.04-2.57c.45-.57.79-1.03.81-1.77,1.61-1.06,2.85-2.54,3.89-4.12.24-.36.88-.52.93-.83.1-.63-.17-.9-.5-1.29l-2-2.36c-.48-.56-.44-1.32-1.08-1.82-.59-.47-.87-1.88-2.05-3.1-.34-.35-.6-1.17-.86-1.66-.28-.53-.96-.99-1.12-1.38-.33-.82-.53-1.21-1.07-1.89-.35-.44-1.01-2.83-2.19-4.24-.62-.74-.78-1.63-1.23-2.37-1.45-2.42-2-4.2-1.98-4.18-1.01-1.53-1.75-2.86-2.26-4.56-.21-.72-1.33-1.45-1.3-2.36.49-.02,1,.06,1.4.4.31.26.23,1,.52,1.43l2.75,4.14c.59.89.82,1.75,1.72,2.47.53.43,1.12,1.01,1.14,1.64ZM126.06,121.94c1.17-.77,1.89-1.44,2.62-2.29.09-.44-.02-.83-.31-.92-.93-.3-.94,1.4-2.49,1.64-.14.52-.26,1.07.18,1.56ZM141.75,143.47l2.72-1.36c.37-.19.36-.73.17-.97-.71-.94-2.1.51-3.21,1.81-.63.74-1.9,1.12-2.31,2.02-.29.65-1.07,1.26-1.19,1.86-.22,1.03,2.61.69,3.82-3.35Z"/>
        <path class="cls-2" d="M193.97,50.13c-1.23-1.44-.9-2.94-.83-4.52l.19-4.26c.11-2.57-.82-4.25.03-5.32-.5-3.69.75-7.24.38-11.27,1.14-.38,2.3-.41,3.61-.08v27.36c-.01,1.6-2.23,3.72-3.5,3.1-.66-.32-1.39-3.67.13-5Z"/>
        <path class="cls-2" d="M194.21,60.25c.11-.48.27-.46.68-.65.71-.32,1.22-1.13,2.2-.72l.04,8.98c0,1.87-.87,3.72-2.92,3.96l.35-3.71c.17-1.82.38-3.46-.27-5.22-.32-.87-.28-1.81-.08-2.64Z"/>
        <path class="cls-5" d="M197.15,71.46c.06.64-.71.71-1.05,1.02-1.1.98-1.46,2.28-2.3,3.26-.23-1.3.69-1.46,1.14-2.79l-1.63-.32c.01-1.02-.28-2.2,0-3.19,1.56-5.58-1.56-8.45.91-9.19-.19.83-.23,1.77.08,2.64.65,1.77.44,3.4.27,5.22l-.35,3.71c2.05-.24,2.93-2.09,2.92-3.96l-.04-8.98c-.97-.41-1.48.39-2.2.72-.08-.61.38-1.08.88-1.25.42-.14,1.69-.23,1.7.25l.15,9c.02,1.41-.32,2.65-1.12,3.72.33.19.52.13.64.13Z"/>
        <path class="cls-2" d="M192.72,114.6c-.47-.04-.74-.43-.99-.8v-3.87c.45.04.51-.27.51-.66s-.05-.7-.53-.67v-1.25c.1.03.27.03.34-.03.09-.07.16-.26.16-.47v-2.37c0-.28-.12-.46-.33-.5l.09-.75c.59-1.78.64-3.68.52-5.67l.25-1.59c.19-.07.44.04.48.2.05.21-.08.49-.1.77l-.18,3.71c-.34,1.89-.03,3.61-.12,5.49l-.17,3.26c-.05.89-.27,1.47.03,2.39s.06,1.99.04,2.82Z"/>
        <path class="cls-5" d="M152.02,79c-.65-.8.21-2.3-.9-3.87.89-1.06.68-2.29-.06-3.4.64-1.59.49-3.03-.18-4.4.92.08,1.3.95,1.21,1.9-.13,1.46-.04,2.83-.02,4.3s-.11,2.72.17,4.15c.1.51.02,1-.22,1.32Z"/>
        <path class="cls-5" d="M192.73,94.66v1.3s-.24,1.59-.24,1.59c.12,1.99.07,3.89-.52,5.67-.5-.34-.14-.88-.13-1.4l.07-4.55c.01-.75.36-1.27.05-2.09-.1-.27.56-.63.77-.51Z"/>
        <path class="cls-5" d="M151.96,85.56l.19,2.89c.05.76-.26,1.41.06,2.19.16.38-.17.73-.18.97l-.74-2.31c-.22-.82.35-1.48-.07-2.4-.27-.58.21-1.31.75-1.34Z"/>
        <path class="cls-5" d="M151.96,79.4c.17.94-.11,1.9-.14,2.92-.03.92.15,1.82.14,2.67-1.44-.53-.81-5.03-.64-5.24.14-.17.36-.31.64-.35Z"/>
        <path class="cls-5" d="M152,61.39c.21.46-.16,1.06-.17,1.64l-.06,2.77c0,.32-.11.55-.28.67-.16.11-.41.11-.59.08l.13-3.53.57-1.49c.06-.15.33-.2.39-.13Z"/>
        <path class="cls-2" d="M193.71,88.92c-.03,1.37-.29,2.7-.21,4.21.03.56-.33,1.06-.77,1.06v-.28c-.01-.87.05-1.71.04-2.56v-1.5s.94-.94.94-.94Z"/>
        <path class="cls-5" d="M151.94,108.97l-.25-3.19c-.09-1.09-.16-1.93.23-2.88.27.12.43.29.53.54.07.17-.26.53-.26.76l.1,3.58c0,.27.32.59.16.93-.07.14-.22.27-.51.27Z"/>
        <path class="cls-5" d="M193.78,85.65l-.07,3.26-.96.94.22-2.92c.03-.36-.04-.72.12-1.02.1-.18.42-.3.69-.28Z"/>
        <path class="cls-5" d="M151.96,61c-.86-.69-.73-2.65-2.87-2.65-.01-.61.5-.61.94-.52.9.18,2.39,1.9,1.92,3.17Z"/>
        <path class="cls-5" d="M193.75,82.49c.02.91-.43,1.79.08,2.63-.33-.01-.71-.15-.86-.36-.35-.49-.28-1.77.03-2.06.17-.16.5-.21.76-.21Z"/>
        <path class="cls-5" d="M151.92,121.93c-.18-.97-.36-2.19.12-3.09.25.13.7.76.56,1.02-.82,1.13-.03,2.15-.68,2.07Z"/>
        <path class="cls-5" d="M192.72,114.6l-.03.86-.72.28c-.39-.82-1.13-1.15-.7-1.66.1-.12.26-.22.45-.28.25.37.53.76.99.8Z"/>
        <path class="cls-5" d="M191.71,107.34c0-1.12.04-2.29.17-3.38.22.04.33.22.33.5v2.37c0,.21-.07.4-.16.47-.07.06-.25.07-.34.03Z"/>
        <path class="cls-5" d="M193.74,78.81c-.23.02-.82-.26-.75-.63.13-.75.43-1.43.72-2.01.17,0,.26.2.24.42l-.21,2.22Z"/>
        <path class="cls-5" d="M192.72,93.92c-.84.19-.61-1,.05-2.56,0,.85-.06,1.69-.05,2.56Z"/>
        <path class="cls-5" d="M193.76,79.67l-.04,1.99c-.55-.09-.77-.51-.79-1.03-.03-.55.24-.95.83-.96Z"/>
        <path class="cls-5" d="M151.96,116.88l.03-1.78c.62-.11.81.34.82.88,0,.6-.24,1-.85.9Z"/>
        <path class="cls-5" d="M151.98,94.83c0-.64-.42-1.12-.05-1.75.38.25.48.61.53.99.04.35-.03.68-.47.75Z"/>
        <path class="cls-5" d="M152.05,100.66c-.54-.43-.36-1.11-.11-1.6.57.44.14,1.08.11,1.6Z"/>
        <path class="cls-5" d="M191.72,109.93v-1.33c.47-.03.52.28.52.67s-.05.71-.52.66Z"/>
        <path class="cls-5" d="M151.99,97.79c-.23-.01-.28-.2-.28-.39s.04-.39.28-.41c.07.1.23.26.24.41.01.17-.18.3-.24.4Z"/>
        <path class="cls-5" d="M148.49,58.34c-.04.43-.34.29-.37-.01.06-.03.11-.23.25-.17.07.02.1.15.11.18Z"/>
        <path class="cls-3" d="M147.39,59.34v63.67c0,.89.65,2.04,0,2.73-.78.39-1.2-1.03-1.54-1.5s-.92-.98-1.16-1.67c-.42-1.22-3.82-3.81-3.97-6.53l-.64-.11c-.16-.03-.11-.78-.25-.88-.55-.38-.84-1.22-.85-1.96-.29-.36-1.23-.65-.99-1.51-.46-.02-.57.05-.96.18l.04-1.87c.77.19,1.09.9,1.6,1.55l1.92,2.47c.53.68.84,1.77,1.47,2.31,1.18,1.02,2.07,1.9,2.66,3.36.25.61,1,1.27,1.51,1.52,1.13-1.34.32-2.87.43-4.2.34-4.03,0-8.65.29-13.16.1-1.62.17-2.81-.26-4.5-.2-.78.51-2.09-.25-2.99.64-1.63.4-3.11-.16-4.68.28-2.17.67-4.41.21-6.56-.13-.61-.36-.71-.12-1.36.57-1.54.18-3.28-.21-4.68-.34-1.2.04-2.55.06-3.82,0-.67-.26-1.28.14-1.84-.03-.09-.03-.18-.03-.26.12-.03.2-.11.24-.18.08-.14-.02-.34-.12-.34h-.38s0-2.06,0-2.06c.18.07.44.01.5-.14.08-.21.02-.54-.12-.63-.08-.05-.3-.03-.41-.02l.42-3.98c.41-1.49.43-2.66-.43-3.99-.22-.34-.05-1.38.17-1.71.21-.3.66-.58,1.18-.64Z"/>
        <path class="cls-4" d="M198.76,73.1c-.08,1.32-.12,2.77-.47,4.32.47,1.98.49,3.93-.02,5.92.46,1.61.4,3.14.47,4.67l-.21,2.48c.19,2.72.09,5.31.04,7.99-.02,1.02.24,2.05-.13,3.07.42,1.25.34,2.55-.49,3.5-.44,1.68.17,3.2.19,4.89.01,1-.92,1.87-.45,3.06.27.69.43,2.17-.14,2.69s-.8.61-.79,1.32c0,.47.46.84.86,1.18l.03,9.23c-.09.28-.62.48-.75.64-.75,2.25,1.23,2.88.76,3.38l-.71.77c-.37.4-.3,1.84.02,2.31.94,1.39,1.1,2.74-.05,3.65-.17.66-.29,2.15.07,2.79.33.59.64.81.67,1.74l.1,3.51c-.21,1.49.02,2.78,0,4.2-.05,3.16-.09,6.06,0,9.33l.07,2.53c.04,1.33-.21,2.54.1,3.84l.72.54-.05,4.9c0,.65-.4,1.36-.21,2.04.4,1.43.11,2.77.07,4.19l-.15,6.09c-.1.52-.49.79-.65-.1l-.02,24.6c.45.63.54,1.35.53,2.18-.02,1.26.53,2.41.05,3.66-.64-.42-1.41-.07-1.83-.18-1.45-.41-2.56.04-3.98.05l-32.67.05-3.91-.63-6.74-9.86-8.65-12.51c-.34-.5-2.18-.05-2.08-1.31,1.06-.25,1.79.57,2.55.79,1.35.37,1.72,1.19,2.56,2.25l3.2,4.01c.29.37,1.1.56.72,1.5,1.14.86,1.89,2.1,2.18,3.42.95.63,1.66,1.43,1.98,2.47l1.03,1.56c.96,1.46,2.08,1.38,2.46,2.19.5,1.07,1.62,1.75,2.28,2.56s.89,1.4,2.03,1.71c3.21.86,4.45-.66,5.37-.11,1.02.6,1.63.45,2.63.04s2.31,0,3.39-.16l1.67-2.32c.58-.8,1.57-2.12,2.44-2.49,1.03-.44,1.11-.47,1.67-1.43l3.08-2.44c.89-1.2,1.78-1.99,3.25-2.54l1.58-1.64c1.05-.62,1.49-1.6,2.31-2.37,1.71-1.61,3.52-3.02,4.93-4.87l1.59-2.09.04-7.17c0-.95.41-2,.01-2.94s.32-2.01.31-2.68c-.36-1.37-.27-2.35-.25-3.71l.15-10.6c1.21-2.04.65-4.27.58-6.42-.04-1.2.36-2.13.03-3.47-.65-2.66.19-3.84-.47-6.2-.6-2.15-.16-4.6.42-6.73.22-.8-.15-1.5-.64-2.17,1.81-2.29-.28-4.23.08-4.85,1.41-2.47-.84-3.16.24-4.64.63-.86.12-1.7-.12-2.52-.57-1.93.02-4.01-.02-5.94-.02-1.07-.41-2.08-.12-3.21.75-.9.72-2.12-.2-3.08.62-1.88.49-3.54.16-5.42.19-.64,1.04-1.5.85-2.32-.45-1.93-.12-3.76-.09-5.69l.09-5.68c.04-2.64.55-6.49.29-7.79-.19-.94-.24-2.15-.2-3.11l.21-5.26c.03-.85.74-1.65.74-2.59,0-1.02.45-1.57,1.15-2.25.49-.48,1.62-1.05,2.25-.32ZM179.25,212.43c.96-.36,1.3-1.01,1.01-1.97l1.21-1.37c1.13-.06,1.47-.85,2.03-1.62.72-.97,1.87-1.58,2.78-2.37l1.23-.57,4.13-4.41c.4-.42.76-.88.83-1.37.05-.34-.32-1.25-.81-1.11-1.33.37-2.27,1.73-3.26,2.6-.72.63-1.51,1.03-1.87,1.99s-1.25.94-2.01,1.21c-1.13.41-1.91,1.76-2.53,2.76-1.01.19-1.47.84-1.36,1.98-2.17-.05-4.69,2.3-4.07,4.37.85.05,1.84.2,2.71-.13Z"/>
        <path class="cls-5" d="M154.52,205.6c-.5-.16-1.31-.43-1.45-1.02.54.06,1.01-.29,1.29-.65.34-.44.38-1.45-.03-1.69-.47.29-.82.81-1.31.81.11-.83,2.08-2.98,2.15-3,1.34-.32,2.02-1.19,2.65-2.32l1.63-1.67c.31-.9.59-1.57,1.67-1.73,2.03-.3,1.4-3.39,2.77-3.73-.02.35-.16,1.05.18,1.42.36.39.9-.15,1.01-.52.14-.46-.03-.84-.46-1.08.61-1.2,1.88-.94,2.19-2.78.06-.32.7-.42.92-.38l-.27.98c.59.26,1.18.11,1.45-.31.19-.29.8-.78.42-1.19-.33-.35-1.09-.22-1.43-.19.25-1.02,2.38-1.56,3.03-.82.37.42-.26.62-.33.83-.42,1.29-1.67,1.85-2.43,2.67l-4.78,5.14c-.38.41-.74,1.22-1.04,1.7l-1.12,1.78c-1.08,1.24-1.9,2.72-3.38,3.58-.94.55-2.1,1.03-2.54,2.14l-.79,2.03ZM158.98,199.32l1.8-2.17c.12-.14-.08-.54-.19-.55-1.13-.09-3.49,2.33-2.67,2.97.26.2.74.12,1.05-.26Z"/>
        <path class="cls-3" d="M199.32,84.75c.02.15.08.31.08.4-.63-.28-.49.76-.67,2.85-.07-1.52-.01-3.06-.47-4.67.51-1.98.49-3.93.02-5.92.35-1.54.39-2.99.47-4.32.18,1.69.54,3.72.35,5.58-.12,1.26-.18,2.2-.05,3.47l.27,2.6Z"/>
        <path class="cls-1" d="M153.07,204.58c-.11-.46-.09-1.08-.05-1.52.49,0,.83-.52,1.31-.81.41.24.37,1.25.03,1.69-.27.35-.74.7-1.29.65Z"/>
        <path class="cls-4" d="M146.07,70.44l-.02-.79c.11,0,.33-.03.41.02.14.09.2.42.12.63-.06.15-.33.2-.5.14Z"/>
        <path class="cls-4" d="M146.32,73.02c-.22-.08-.26-.3-.26-.52h.38c.1,0,.2.19.12.33-.04.07-.12.15-.24.18Z"/>
        <path class="cls-5" d="M124.64,167.53c-.13-.06-.39-.05-.57-.15-.22-.12-.21-.48-.22-.72.25,0,.51.07.69.28.1.12.12.42.1.6Z"/>
        <path class="cls-1" d="M167.74,187.27l.17-.71c.34-.03,1.09-.16,1.43.19.39.41-.23.9-.42,1.19-.27.42-.86.57-1.45.31l.27-.98Z"/>
        <path class="cls-1" d="M164.62,190.42c.42.24.59.62.46,1.08-.11.37-.65.91-1.01.52-.34-.37-.2-1.07-.18-1.42l.74-.18Z"/>
        <path class="cls-1" d="M141.75,143.47c-1.21,4.04-4.04,4.39-3.82,3.35.13-.6.9-1.21,1.19-1.86.41-.9,1.67-1.28,2.31-2.02,1.11-1.29,2.5-2.74,3.21-1.81.18.24.2.78-.17.97l-2.72,1.36Z"/>
        <path class="cls-6" d="M179.25,212.43c-.86.32-1.86.18-2.71.13-.62-2.07,1.9-4.42,4.07-4.37-.11-1.14.35-1.79,1.36-1.98.62-1,1.41-2.35,2.53-2.76.76-.27,1.66-.27,2.01-1.21s1.15-1.36,1.87-1.99c.99-.87,1.93-2.23,3.26-2.6.5-.14.86.77.81,1.11-.06.49-.43.94-.83,1.37l-4.13,4.41-1.23.57c-.91.78-2.06,1.4-2.78,2.37-.56.76-.9,1.55-2.03,1.62l-1.21,1.37c.29.96-.05,1.61-1.01,1.97Z"/>
        <path class="cls-1" d="M158.98,199.32c-.31.38-.79.46-1.05.26-.83-.65,1.53-3.06,2.67-2.97.11,0,.31.4.19.55l-1.8,2.17Z"/>
      </g>
    </g>
    <path class="cls-1" d="M70.02,31.35c-.41.37-.76.05-.75-.25.02-.97.69-.82,1.52-1.73.06.76-.21,1.47-.77,1.98Z"/>
  </g>
</svg>