<?xml version="1.0" encoding="UTF-8"?>
<svg id="_レイヤー_1" data-name="レイヤー 1" xmlns="http://www.w3.org/2000/svg" viewBox="0 0 241.21 245.98">
  <defs>
    <style>
      .cls-1 {
        fill: #97fefe;
      }

      .cls-2 {
        fill: #24e8e6;
      }

      .cls-3 {
        fill: #e9fdfd;
      }

      .cls-4 {
        fill: #5c6969;
      }

      .cls-5 {
        fill: #020606;
      }

      .cls-6 {
        fill: #168483;
      }
    </style>
  </defs>
  <path class="cls-4" d="M222.94,140.92c2.75,2.43.61,3.29.39,6.27-1.25.63-.37,2.06-1.05,4.23.27,1.06.07,2.12-.79,2.83.48,1.3-.33,1.85-.83,2.7-.45.76.21,2.39-.48,3.1-.62.63-.68,1.28-.93,1.98l-.91,2.56-1.99,2.78c.3,1.64-.12,3.09-1.3,3.96-.26-1.1.58-2.27.81-3.37.22-1.04.34-1.79,1.11-2.56s.86-1.71,1.26-2.7l1.48-3.74c.2-2.48,1.38-3.89,1.67-5.79l.6-3.79c.2-1.28.16-1.99.91-3.04.43-.61.46-1.88.7-2.63s-.2-1.56-1.07-1.61c-.14,1.35-.55,2.62-1.29,3.49-.64-.7.23-1.31.4-2.02l.66-2.66.65.02Z"/>
  <path class="cls-1" d="M171.29,14.45c-.38-1.42,2.11-3.24.75-5.17.07-.11.04-.4.03-.54.97-.15,1.78.24,2.05,1.3-.8.42-.77,1.3-1.11,2-.32.67-.89,1.07-.93,1.92-.02.39-.55.58-.79.49Z"/>
  <path class="cls-4" d="M172.08,8.74c0,.14.03.44-.03.54l-.52,1.2c-.11.25-.53,0-.57-.14l-.12-.52c-.21-.92.29-1.71,1.07-2.3.23-.17.14-1,.67-1.04.26.85-.16,1.64-.49,2.26Z"/>
  <path class="cls-4" d="M9.93,110.4c.23-.89.21-2.11.77-2.83.12,1.26-.08,2.5-.57,3.65-.25-.33-.15-.6-.2-.82Z"/>
  <path class="cls-3" d="M194.25,45.68c-.24-.09-.42-.28-.51-.51.25.07.44.27.51.51Z"/>
  <g>
    <path class="cls-4" d="M168.25,110.16c-.14.53.62.39,1.01,1.03v.76s-.25.06-.25.06c-.08-.12-.22-.22-.26-.32-.62-1.62-2.72-1.55-2.7-2.5,1.31.6,2.03.44,2.2.97Z"/>
    <path class="cls-4" d="M165.08,108.74c-2.08-.96-4.11-2.25-5.66-3.92.68-.1,1.04.41,1.55.75l3.24,2.19.69.21c.27.08.27.53.18.77Z"/>
    <path class="cls-4" d="M178.51,56.78c-.45.27-.67-.36-.96-.51-1.29-.72-2.05-1.64-3.1-2.66-.45-.43-.96-.77-.63-1.42l4.68,4.59Z"/>
    <path class="cls-4" d="M136.01,203.58s.1.3.02.34-.42.08-.53.05c-.91-.29-1.63.47-2.37.5l-3.76.15-4.4.27c.03-.3.17-.41.21-.55.57-.07,1.05-.18,1.66-.39.81-.29,1.71-.11,2.47-.11h3.63c.27,0,.47-.1.5-.29.86,0,1.71-.09,2.57.04Z"/>
    <path class="cls-4" d="M114.85,205.74l.81-.9,9.14.06c-1.88.93-4.05.81-6.16.31-1.79-.43-3.08.94-3.8.53Z"/>
    <path class="cls-4" d="M113.58,204.89c.27.28.55.86,1.11.76-.53.61-1.24-.15-1.7-.46-.94.29-2.2.91-2.77-.32l3.36.02Z"/>
    <path class="cls-4" d="M139.06,203.92c-.9-.42-1.81-.25-2.78-.25.36-.68.9-1.05,1.66-.89.51.11.99.55,1.13,1.14Z"/>
    <path class="cls-4" d="M140.85,205.34l-.17.56h-.54c.14-.79-.19-1.53-.8-2.01.42-.11,1.13-.23,1.44.17.23.3.18.92.07,1.27Z"/>
    <path class="cls-4" d="M106.63,204.34s.04.39-.06.45l-3.34.25c.44-.22.94-.25,1.08-.73.81-.29,1.53.01,2.33.03Z"/>
    <path class="cls-4" d="M102.81,204.4c-.59.57-1.51.31-2.37.38-.11-.16-.03-.35,0-.45.43.08.71-.26,1.1-.47.46-.25.98.24,1.27.54Z"/>
    <path class="cls-5" d="M133.44,203.54c-.03.19-.22.29-.5.29h-3.63c.04-.19.22-.28.5-.28h3.63Z"/>
    <path class="cls-3" d="M171.05,111.56c-.52.05-1.34-.12-1.79-.37-.39-.64-1.15-.5-1.01-1.03,1.21.69,2.64.52,2.8,1.4Z"/>
    <path class="cls-3" d="M152.25,201.52c-.43.74-1.23.91-2.08.69.58-.35,1.35-.66,2.08-.69Z"/>
    <path class="cls-3" d="M181.12,115.84c-.62-.17-1.18-.49-1.55-1.02.66,0,1.25.44,1.55,1.02Z"/>
    <path class="cls-3" d="M178.54,114.56c-.18,0-.38.04-.61-.03-.16-.05-.25-.29-.16-.51.34.02.67.21.76.55Z"/>
    <path class="cls-3" d="M182.15,116.88c-.4-.08-.78-.34-.77-.78.33.17.61.43.77.78Z"/>
    <path class="cls-3" d="M179.31,114.81c-.21,0-.44-.05-.52-.26.21,0,.44.05.52.26Z"/>
    <path class="cls-3" d="M171.59,111.69l-.26-.24c.11.06.2.15.26.24Z"/>
  </g>
  <g>
    <path class="cls-4" d="M85.48,183.16c.27-.58,1.17-.78,1.42-1.38l1.1-2.59,1.72-3.36c1.15-1.22,1.37-2.59,1.92-4.13.24-.67,1.08-1.21.82-2.23-.1-.4.5-.85.6-1.16.42-1.39,1.03-2.64,2.02-3.7.38-1.1.98-2.02,2.02-2.63-.1-1.15.21-2.09,1-2.89-.03-1.01.8-1.64,1.2-2.35l1.77-3.1c.76-1.32,1.22-2.68,2.15-3.83.26.02.3.16.3.24,0,.17-.07.52-.18.61-.98.75-.65,2.09-2.01,3.71-.63.76-.68,1.77-1.17,2.44-.73,1.01-1.36,1.93-1.98,2.97-.46.76-.46,1.56-.82,2.3-.51,1.04-1.48,1.97-2.1,3.02-1.66,2.79-1.63,3.71-2.04,4.73l-2.1,5.3c-.42,1.07-1.48,1.72-1.85,2.88-.48,1.49-1.38,2.87-2,4.33l-1.42,1.7c-.63-.22-.37-.64-.35-.91Z"/>
    <path class="cls-4" d="M78.77,196.63l.75-2.13c.57-.83,1.16-1.68,1.51-2.6.28-.74.35-1.5,1.14-1.76l.58-.4-1.43,3.22-1.92,3.26c-.07.12-.05.47-.22.52-.1.03-.29-.03-.4-.11Z"/>
    <path class="cls-4" d="M82.6,189.37c.56-.27.52-1.13.77-1.59.49-.91.95-1.5,1.11-2.57l.51-.99c.14-.12.63.03.58.19-.54,1.82-2.42,5.13-2.54,5.2-.15.08-.44.08-.43-.24Z"/>
    <path class="cls-4" d="M104.54,147.82c.48-1.02,1.13-2.02,1.92-2.83.11.71-.38,1.24-.78,1.88l-.94,1.52c-.18-.14-.2-.37-.2-.58Z"/>
    <path class="cls-3" d="M195.29,46.97c-.44-.24-.8-.59-1.03-1.03.44.23.8.59,1.03,1.03Z"/>
    <g>
      <path class="cls-2" d="M196.56,49.09c.17.06.44.31.49.47.23.69.62,1.14.96,1.05.15-.04.31-.32.24-.44.08.09.03.3.04.41l.03.81c0,.25-.02.5.15.74.14.19.4.27.65.26h.29c-.07.46.28.82.76.82.04.12.28.24.24.43-.03.18.03.44.19.51.2.09.43.03.61.03h.25s-.08.26-.08.26c-.16.5.14,1.01.61,1.25-.03.33.18.6.5.63l.19.2c0,.18.02.37.11.59.06.13.26.23.46.17v.27c-.03.56.45,1,1,1.06-.05.58.43.82.78,1.28l.76,1.03c.12.16.18.55.55.53-.13.54.11.85.62,1.21l.44,1.06c.26.62.95.94,1,1.57.01.17.03.37.13.53.13.2.4.27.66.24.16,1.4,1.1,1.64,1.28,2.55.02.1,0,.25.07.38.08.15.3.22.49.17l1.29,3.03,2.9,6.15c.27.57.24,1.22.98,1.15.12.57.25,1.18.21,1.76-.03.48.46.78.61,1.21l2.02,5.79c.09.27,0,.59.4.57l-.02.97c-.01.61.23,1.58.84,1.83l.28,2.01c.02.11-.01.25.04.39.06.16.26.25.47.23l.25.73c-.32.1-.3.36-.28.62.03.29.16.45.5.43l.04,2c0,.19-.04.38.04.62.05.15.27.26.48.2-.13.55.32,1.03.35,1.6l.16,3.24c.06,1.29-.19,2.59-.85,3.84-1,.17-1.82.7-2.03,1.59-.05.08-.12.18-.27.2-.5.06-.39.89-.82,1.31-.38.37-1.39.41-1.45,1.13h-.72c-.78-.01-1.35.53-1.94.83-.96.49-1.08.79-1.54,1.74-.34.71-1.38,1.39-1.07,2.44.09.17.55.34.73.34.24,0,.42-.45.59-.55l2.2-1.41c.78-.5,1.85-.7,2.06-1.61.06-.25.29-.58.46-.78.72-.08.99-1.1,1.51-1.53.61-.5,1.46-.51,1.84-1.11l.53.03,1.33.04.44,1.57c.39,1.41.23,2.18.8,2.02v8s-.26,1.3-.26,1.3c-.91-.11-.88.75-1.22,1.41-.45.89-2.38,1.56-3,2.62-.18.05-.4.14-.48.23-.09.12-.08.4,0,.5.13.17.55.29.82.11l1.75-1.1.74-.65c.16-.14.88.19.83.42-.13.5-.11.78-.06,1.08.08.43.1,1.1,0,1.54-.1.41-.41.94.12,1.31-.18.53-.27,1.27-.3,1.78-.07.1-.22.25-.22.4s.17.31.23.41l-.04,2.23c-.75.39-1.16,1.37-.83,2.13.19.44.02,1.05.07,1.51-.13-.02-.38,0-.46.17-.12.27.19.27.2.39.04.34.06.99-.02,1.32l-.66,2.66c-.18.71-1.04,1.31-.4,2.02.02.13,0,.42-.16.44-.38.05-.49.26-.6.7l-.47,1.83c-.17.67-.04,1.57-.36,2.3-.26.6-.78,1.03-.7,1.84.07.71-.28,1.33-.97,1.59l-.22,1.91-.31.89c-.1,0-.23,0-.36.06-.12.06-.16.25-.14.41l.07.58c-.46.33-.74.8-.88,1.33l-.41,1.54c-.13-.04-.3-.06-.44,0-.2.09-.13.36-.16.51l-.23,1.22c-.19,0-.44.05-.56.16-.25.22-.22.52-.2.79.02.29-.23.63-.28.87-.1-.02-.3,0-.38.06-.15.13-.15.36-.15.54.02.5-.15,1.01-.66,1.39l-.83,1.41c-.45.75-.6,1.2-1.04,1.9l-1.35,2.15c-.15.24-.64.41-.47.93.11.34-.21.82-.55.89l-.36.07c-.12.02-.2.24-.15.35.04.08.13.15.3.17-.19.48-.68.84-.93,1.42-.23.53-.16,1.36-.88,1.42-.89.06-1.38.96-1.34,1.8l.02.28c-.11-.02-.23-.02-.34.03-.17.08-.16.35-.24.45l-.97,1.21c-.07.03-.27.07-.34.13-.15.13-.09.33-.15.49l-.49,1.22c-.6.04-.83.61-.8,1.14l-.2.2c-.12-.01-.25,0-.4.05-.2.07-.15.35-.25.45l-.46.47c-.07.03-.26.03-.35.11-.15.14-.15.32-.15.51,0,.42-.15.82-.26,1.21-.19-.02-.39-.02-.6.08-.16.08-.19.29-.24.46s-.29.4-.43.51c-.08.03-.26-.02-.38.07-.15.11-.19.32-.15.51.03.15.04.42-.05.56-.14.21-.47.23-.7.18-.1-.02-.27-.01-.39.04-.17.08-.17.28-.24.45l-.2.49c-.09-.02-.29,0-.36.06-.15.14-.16.37-.13.55.02.11.02.32-.01.43-.59-.03-1.23.18-1.34.81-.29.18-.54.43-.71.73-.56.08-.81.6-.78,1.14l-.21.2c-.12,0-.26,0-.4.06-.16.06-.25.27-.2.47-.21.1-.47.41-.74.45-.29.04-.65.17-.81.52-.4.88-1.15,1.24-1.85,1.74l-2.89,2.09-1.12,1.62-2.9,2.02c-.53.37-.93.46-1.45.95-1.21,1.14-2.43,1.18-3.14,2.17-.61.84-1.47.81-2.21,1.29l-1.53,1.01-2.45,1.76s-1.98.51-3.07,1.74l-1.68.55-1.64.96c-.99.58-1.65.67-2.61,1.07-.62.26-1.41.77-2.14.99-.4.12-.63,1.12-1.54.8-.81-.28-1.64.14-2.03.97-1.25-.1-2.27.16-3.07,1.08-1.15-.17-2.2.03-2.93.91l-2.17.04c-1.15,1.48-2.56,1.21-4.11,1.2-.83.2-2.03,1.33-3.15.87s-1.74.64-2.5.8c-1.29.28-2.63.13-3.97.15l-5.9.09c-.79.01-1.51.44-2.14.78l-11.13.16c-1.57.02-3.19-.03-4.75-.33-.89-.17-1.7-.74-2.67-.1-.91.39-1.86.28-2.61-.5-1.74-.07-3.58.13-5.23-.46-.82-.29-1.36-.79-2.46-.61-.95.16-2.06-.1-2.79-.8-.91.86-1.82.82-2.76.19l-2.68-.95-4.06-.79c-.87-.49-1.25-.73-2.43-.77l-2.17-.08c-.14-.27-.24-.66-.39-.8-.19-.17-3.82-.59-4.77.24l-1.91,1.66c-.53-1.73.5-2.69,1.68-3.51l.15-2.33c.03-.42-.26-1.34.17-1.65.85-.61,1.67-1.12,1.95-2.22.12-.49.6-.81.92-.95.03.24-.06.52.17.92,1.67-.83,1.66-2.01,3.39-3.26l1.96-2.35.85-.93c1.01-.56,1.55-1.36,2.28-2.13l5.03-5.35c1.1-1.17,2.13-2.47,3.37-3.54l.34-1.09,1.22-.43c.46-.49.88-1.08,1.45-1.41.03-1.27.88-2.08,1.94-2.76.48-1.2,1.42-2.75,1.82-2.78.99-.06,1.23-.8,1.55-1.54l2.6-2.75.95-1.88c.38-.74.47-1.44,1.1-2.07.21-.21.19-.66.04-.83-.18-.2-.44-.31-.74-.24-.26.06-.34.41-.46.68-.53,1.19-1.78,1.54-2.55,2.35l-3.14,3.31c-.67.71-1.29,1.22-1.97,1.92l-5.55,5.77-3.09,3.1-4.93,5.06c-.62.63-1.2,1.22-1.71,1.81.02-.35-.11-1.3.23-1.57.81-.66.65-1.65,1.08-2.34.74-1.18,1.58-2.09,1.96-3.52.09-.35.84-.72.86-1.14.9-.09,1.52-1.39,2.16-1.91,1.42,0,2.48-.52,3.1-1.95.97-.36,1.87-.94,2.22-2.08,1.14-.12,1.35-1.31,1.96-1.84,1.57-1.34,2.88-2.61,4.26-4.08.56-.6,1.29-.67,1.74-1.69l2.53-2.38c.37-.94.74-.72,1.29-1.31l3.52-3.81c.57-.62,1.09-.86,1.56-1.63.24-.4.99-1.05,1.4-1.3.92-.56,1.19-1.15,1.77-1.97.49-.69,1.63-1.11,1.9-2.12,1.08-.35,1.56-1.18,1.69-2.21,1.24-.9,2.59-1.69,3.5-2.94,1.69-2.33,3.67-4.16,5.78-6.1l2.51-2.84c.7-.79,1.01-1.4,1.89-2.11,2.41-1.95,3.63-4.25,5.27-5.78,1.11-1.04,2.19-2.04,3.19-3.23l6-7.12,4.14-5.16,2.75-2.9c.82-.86,1.19-1.96,2.06-2.85.32-.33.46-1.07.28-1.38-.67-1.14-1.82-.36-4.03-2.08-.46-.36-.82-.59-.82-1.19,0-.5.37-.63.74-.99l2.87-2.8c.32-.32.55-.6.55-.97,1.13-.16,1.78.35,2.69.92l2.75.32c.66.5,1.2.93,2.06.82,1.27-.17,1.48,1.65,5.17.82l.25-.06c.63-.14,1.3-.02,2.12.37-.52,1.13-1.58,1.81-2.42,2.7l-1.49,1.59-3.89,3.62-2.72,2.71-4.21,4.23c-.83.84-1.47,1.56-2.4,2.35-.62.52-1.04,1.45-1.72,2.09-1.25,1.19-2.37,2.71-3.36,4.11-.16.23-1.03.18-.8.75l-.3-.05c-.86.43-1.77,1.18-1.49,2.4-1.26.93-2.15,2.08-3.09,3.33-.34,0-.58.14-.69.25-.24.24-.15.66.05.78.18.11.9.05.93-.17.14-1.04,1.03-1.23,1.6-1.82l2.5-2.62,5.32-5.26c1.01-1.25,2.08-2.38,3.47-3.24.66-1.4,1.78-2.49,3.16-3.27-.13-1.11.92-1.22,1.38-1.7,1.54-1.62,3.02-3.11,4.64-4.64l1-1.33c2.11-2.09,4.02-4.19,6.47-5.89.84.66,1.86.72,2.78,1.15l4.39,2.03c.63.29.92,1.21,1.58,1.28.01.15.04.33.06.44l-.57.03c-.94.04-1.6.99-2.38,1.32-.96.41-1.35.7-1.93,1.57l-2.43,2.13-1.59,1.2c-.9,1.3-1.86,2.06-3.12,2.95l-2.18,2.2-1.57,2.3c-2.35.24-3.25,2.39-5.51,4.24l-1.3,1.07-1.3,1.48-2.19,2.09c-1,.48-1.32,1.02-2.02,1.69-1.47,1.41-3.16,2.41-4.29,4.23-1.39.57-2.54,2.09-3.57,3.1l-3.36,3.31c-.64.63-1.1.87-1.83,1.39l-2.18,2.99c-.22.07-.33.41-.76.46-1.38.19-2.75,1.43-2.89,2.98-.83.21-1.24.88-1.84,1.25-1.09.68-1.88,1.29-2.57,2.38-.4.63-1.17,1.12-1.22,1.87-.01.18-.14.36-.24.48-.4.13-1.19.14-1.58.51l-2.02,1.86c-1.03.95-2.37,3.18-4.7,4.19-.77.33-1.04,1.98-1.74,2.51l-2.79,2.13c-1.06.81-1.69,2.27-2.91,2.98-.86.5-1,1.36-1.68,1.97-.42.38-1.62.36-1.78,1.29-.13.74-1.18.95-1.48,1.32l-2.06,2.55c-.63.77-.64,1.02-1.63,1.42-1.62.65-5.8,6.01-9.6,9.02l-2.33,2.35c-1.95,1.97-4.92,4.45-3.08,6.44l.42,1.07c1.14,1.09,2.88.77,3.8-.45l1.74.81,5.31.09c.15,0,.42.01.54-.05.33.71,1.11.5,1.79.6,1.52.22,2.84.68,4.41.48l2.99.1c2.28.08,4.84.01,7.22.01h4.24c.69,0,1.59-.75,2.19-.58,1.08.3,1.74.33,2.76.1l2.36-.52,4.68-.44,1.86-.75c.15,0,.4-.03.54.03.74.28,1.27-.4,1.93-.6l2.03-.61,1.65-.67c1.17-.47,2.39-.41,3.53-1.18l1.49-.23,2.03-1.1c1.03-.56,1.93-.53,2.97-.99l2.28-1.01,2.65-1.17,3.93-2.01,1.64-.93c1.79-1.02,3.42-2.07,5.2-3.02l2.73-2.16c1.03-.81,1.9-1.47,2.91-2.28l1.56-1.25c2.3-1.84,4.52-3.53,6.09-6.03,2.06-1.34,3.78-2.97,4.88-5l1.36-.15.73-.8c1.58-.5,3.05-1.37,3.9-2.8l1.16-1.94c.38-.64.89-1.1.8-2.01,1.15-.95,2.01-2.11,1.97-3.66,1.07-.74,1.3-1.77,1.08-3.06.47-.62,1.49-1.16,1.7-1.89.43-1.61,1.2-2.99,2.32-4.19-.12-.84.29-1.67.57-2.48l1.06-3.03c.64-1.82.5-3.74,1.73-5.33.41-.54.77-1.37.62-2.09-.19-.95.41-1.37.57-2.08l2.03-9.06.58-4.02c.66-.98.62-2.12.1-3.24.83-1.05.82-2.35.28-3.58.45-.9.16-1.68.15-2.58l-.02-3.83c0-1.11.5-2.42.04-3.49s-.84-5.8-.63-7.35c.15-1.08-.37-1.7-.96-2.48-.04-.63,0-1.63-.05-2.43l-.18-3.51c-.39-.97-1.06-1.72-.89-2.92l-.75-1.03-.22-2.87c-.08-1.04-.34-1.73-.77-2.64l-.48-4.16c-1.62-1.47-.09-2.95-1.62-4.08l-.33-2.66c-1.07-.46-.56-1.89-1-2.35-.69-.72-.69-1.42-1.05-2.25-.4-.93-.69-1.92-.99-2.89-1.75-1.3.2-3.12-1.8-3.69.21-1.45-.59-2.96-1.23-3.38-.73-.49-.6-1.21-.87-1.89-.38-.96-1.35-1.69-.93-3.03-.69-.68-1.47-1.2-1.97-2.01l-.28-2.16c-.53-.57-.67-1.01-1.06-1.61l-.93-1.43c-.52-.8-1.14-1.36-.78-2.56l-1.53-1.79-1.44-2.18c-.16-.24-.16-.7-.32-.81-.18-.12-.6-.16-.79-.08v-.56c.77-.01,1.33-.36,2.17-.89l2.8,2.38c.96,1.17,1.93,1.94,3.1,2.88s1.87,2.63,3.29,3.16ZM210.3,137.44c.51-.97,1.88-1.36,2-3-1.59-.38-3.48,2.07-3.8,3.4-.09.38.67.63,1.03.43.26-.14.51-.35.77-.83Z"/>
      <path class="cls-1" d="M119.01,98.53c-.01.36-.37.73-.77.79-.73.11-.86.72-1.24,1.07-.74.67-1.47,1.07-1.88,2.02-.31.74-1.35.97-1.81,1.44l-1.35,1.39c-.7.72-1.29,1.1-1.81,2.09l-2.76,2.75c-.29.29-1.08,2.64-2.22,2.61-1.24-.03-.86,1.94-1.83,2.13-.89.17-.81,1.14-1.16,1.47-.85.78-1.56,1.48-2.37,2.32-.73.75-1.86,1.2-1.76,2.6-1.53.51-2.44,1.61-3.53,2.66-.53.51-.47,1.18-.48,1.85-.8.33-1.21-.11-1.74-.68s-1.67-.27-2.37-.26l-.8-.92c-1,.13-1.51-.45-2.23-.85s-1.62-.41-2.12-1.27c-1.14.28-2.01-.11-2.58-.98-1.1.27-1.82-.12-2.47-.92-.58-.07-1.36.11-1.87-.2-.52-.37-1.13-.99-1.88-.8-1.06.26-1.62-.55-2.33-.76-1.1-.33-1.86-.26-2.77-1.03l-2.84-.38-.83-.75c-2.18-.57-3.85.47-4.1-1.05.27-1.19.84-2.72,1.87-3.5.78-.59,1.18-1.16,1.81-1.87l1.8-2.06,3.67-3.81,5.09-5.2c.95-.96,1.77-2.02,2.9-2.81l.52-1.42c.1-.26.99-.2,1.31-.4.64-.8,1.11-2.23,2.11-2.69.84-.4.98-.74,1.48-1.47.69-1.03,2.94-3.03,2.9-3.55,0-.08.03-.23-.21-.15.27-.18.65-.63.78-.89,1.22.2,2.45-.34,2.48-1.75l2.77-1.92c.13-1.44,1.3-2.43,2.67-2.71.81-1.39,1.99-2.31,3.38-3.11.08-.55.16-1.17.47-1.47.27-.26.87-.2,1.29-.41.49-.24.45-1.13.1-1.39.01-.2.06-.52.26-.65.14-.09.32-.13.49-.14-.04.18.07.22.18.22.09,0,.34-.03.47-.12l1.63-1.13c.57-.82,1.4-1.26,1.96-1.94,1.31-1.62,2.63-2.99,4.31-4.24l2.68-2.72,3.64-3.54c.71-.69,1.35-1.18,2.03-1.88,1.11-1.13,2.17-2.24,3.3-3.41l1.92-1.97,1.13-.37c.86-.98,2.59-2.51,3.94-3.84l3.88-3.84c1.35-1.33,3.03-2.27,4.03-4,1.21.04,1.5-.93,2.21-1.59l1.75-1.62c1.31-1.21,3.24-2.36,2.75-3.14,1.41-1.04,1.82-2.14,2.46-2.22.03.24.15.26.24.26.1,0,.34.03.46-.08l2.91-2.46,2.73-2.71c1.21-1.2,2.55-2.8,3.84-3.42.02.19-.03.53-.24.79l-1.04,1.25c-1.11.72-1.65,1.49-1.9,2.83-.14.76-1.29,1.27-1.6,1.9s-.32,1.1-.8,1.62c-2.87,3.1-3.72,6.02-4.58,6.47s-.66,1.42-1.03,2.04c-.71,1.18-2.27,1.9-2.65,3.21-.69,2.34-2.53,3.06-3.01,4.22-.3.71-.46,1.31-1.16,1.77-1.17.77-1.09,2.31-2.35,3.25-1.05.79-1.46,1.71-1.89,2.87-.64,1.72-3.14,3.42-3.86,5.14l-1.86,2.58c-.22.92-.21,1.27-.81,1.95-.76.86-1.62,1.87-2.16,2.91-.34.66-.4,1.37-1.11,1.81-.94.57-1.31,2.24-2.25,3.46l-1.64,2.13-.92,1.64c-.65,1.16-1.31,1.86-2.08,2.88-.39.52-.49,1.25-1.03,1.83-.8.87-.97,2.35-2.04,3.61-.94,1.1-1.59,2.89-3.08,3.94l-.34,1.55c-.91,1.3-.36,2.32,0,3.52.27.92.35,1.42.95,2.17,1.54,1.92,3.58,3.39,6.04,3.47Z"/>
      <path class="cls-5" d="M169.91,16.22c.25.77-.63,1.46-.81,2.13-.28,1.05-.69,1.62-1.11,2.58-.35.8-.53,2.17-.75,2.98.52,1.41,2.17,2.14,3.18,3.02l.54.47c.1.08.35-.12.37-.29.08,0,.18.04.33-.05-.31.73.11,1.02.61,1.45l3.63,3.07c.92.78,1.58,1.61,2.42,2.51l1.59,1.7c.53.57.8,1.1,1.22,1.66.85,1.11,2.23,1.95,2.55,3.38l.26,1.12c.05.23.5.35.83.34-.11.56.44.95.65,1.41.55,1.28,1.11,2.33,2.3,3.18l.24,1.49c.92,1.23,1.54,2.91,2.02,3.72.55.92.93,1.43,1.07,2.62l1.76,2.41c.46.64.43,1.19.8,1.9l.77,1.49c.51.98.66,1.73,1.34,2.64l.47,2.27,1.49,1.97c-.06,1.03.1,2,.99,2.65-.06,1.23.4,2.25,1.19,3.19-.1,1.18.28,2.01.82,2.96l.44,3.12c.69.98,1.12,1.49,1.24,2.82.07.78.84,1.8.64,2.79-.18.9.63,1.66.72,2.32.2,1.47.19,2.49,1.04,3.75l.2,2.75c.81,1.01.92,1.77.99,3.05.08,1.37.89,2.91.66,4.33-.15.92-.27,1.36.18,2.27l.24,3.32c.43.95.92,1.6.92,2.71v10.01c.02.37.34.76.48,1.1-.48.75-.71,1.64-.42,2.48.3.89.07,1.56-.03,2.44-.2,1.82.24,3.76-.46,5.53-.41,1.03-.85,1.99-.61,3.19s-.34,1.88-.85,2.79l-.34,3.24-1.04,2.61c-.31.76-.22,1.13-.21,1.95l-1.31,2.39c-.11,1.46-.71,2.57-1.02,3.86s-.55,2.19-1.07,3.38c-.32.75-.43,1.8-.96,2.38-1.1,1.18-1,3.52-3.18,5.71l-.44,2.24c-.99,1.23-1.31,2.51-2.04,3.73l-2.55,4.29c-.51.87-.38,1.17-1.29,1.74l-2.35,1.46-1.67.16c-.58-1.51.46-2.86,1.27-4.14.61-.95.86-1.9,1.76-2.71.96-.86,1.12-2.47,1.76-3.56.94-1.59,2.16-3.01,2.63-4.78.23-.84.24-1.4.87-2.13.38-.44,1.05-1.4,1.21-1.96,0-1.35.51-2.12.94-3.28l.91-2.43c.46-1.22.77-2.43,2.19-3.08-.54-1.62.32-2.9.67-4.29l1.23-4.93c.28-1.13.3-1.92.77-2.96.42-.93.3-2.33.28-3.26l-.02-1.07c.23-.62.95-1.46.9-2.21-.1-1.46.35-2.61.32-3.93l-.08-3.82c-.03-1.53.31-2.73.44-4.16.09-1.04-.53-2.21-.3-3.34.33-1.61-.13-3.1-.32-4.65-.13-1.05-.15-1.86-.5-2.88-.65-1.88.39-4.55-1.6-6.13.16-.69-.17-1.39-.24-2.07.08.01.31.04.39.03s.14-.42.07-.49c-.73-.66-.08-1.9-.28-2.53-.43-1.41-1.28-2.47-.58-4.1-3.13-2.7-2.01-6.48-3.52-9.08-.73-1.27-1.28-2.31-1.93-3.55l-.82-1.55c-.28-.54-.8-1.09-1.11-1.66l-.91-1.65-2.9-4.37-5.42-6.84-3.31-2.92-.61-.63c-1.18-.44-1.58-1.47-2.29-2.17l-4.68-4.59s0-.1.06-.18l-3.75-2.83c-.5-.38-.88-.59-1.38-.98l-3.45-2.67c-.92-.71-2.28-.61-2.78-1.9l-2.3-.27c-.55-.07-1.01.6-1.02,1.01v.27c-.68.29-.59,1.16-.51,1.79l-.71.6c.14,1.06-.28,1.99-.85,2.77-.21-.08-.43,0-.47.14l-.18.72c-.57.6-.63,1.45-.97,2.19l-1.74,3.8c-.45.98-.17,2.07-1.23,2.78-.05.56.06,1.35-.18,1.84l-1.01,2.09c-.95,1.96-2.91,5.02-2.68,6.51.16,1.07-.59,1.49-.89,2.25l-2.17,5.49c-.38.96-.41,1.61-.88,2.53-1.5,2.94-1.98,5.72-2.85,7.22-.36.62-.74,1.2-.95,1.91l-.71,2.35c-.55,1.82,1.88.81,2.64,2.9l1.74.8,3.72,2.22c.21.12.29.29.49.35.29.08.49-.04.36-.47.62.09.76.69,1.35,1.01.45.24,1.02,0,1.22.67-.84.56.8,1.34,2.39,2.23.35.2.59.74,1.1.43.16.81,1.02.96,1.91.94.33,0,.31.57.41.74.16.27.75.32,1.12.19l.73,1.15c1.55,1.67,3.58,2.95,5.66,3.92l.97.45c-.02.95,2.08.88,2.7,2.5-1.08.24-1.96,0-2.91-.71l-2.01-.46c-1.07-.87-2.17-.61-3.26-.99-1.22-.42-2.33-.74-3.6-1.08-1.2-.32-2.25-1.16-3.71-.74-.84-.89-1.9-1.15-3.07-1.05-.88-.99-1.9-.89-3.1-1.15-.59-.13-1.21-1.08-2.06-.77-.93-.02-1.73-.28-2.29-1.08-1.26.28-2.02-.28-2.97-.86l-2.25-.32c-.61-.42-1.25-.91-2-.8-.91.14-1.35-.68-1.95-.87-1.06-.35-2.08-.11-2.84-1.14l-1.64-.39c-.62-1.6-.16-3.41.72-4.84.74-1.19.72-2.45,1.32-3.63l2.01-3.91,1.71-2.6.28-2.64c.33-.61,1.67-1.35,1.58-2.12-.16-1.39.74-1.8,1.11-2.8l.79-2.12c.29-.78,1.02-1.66,1.29-2.45.23-.68.04-2.16,1.92-3.63.04-.88.54-1.68.88-2.43.37-.81.5-1.58,1.13-2.29.29-.33.9-1.08.97-1.5.12-.76.66-1.38.88-1.97.78-2.13,1.68-3.32,2.09-4.16l1.03-2.13.17-1.86c1.29-.56,2.15-1.76,2.22-3.19,1.11-.98,2.01-2.07,1.98-3.64.82-.48.73-1.38,1.13-2.02l.94-1.48c.33-.53,1.56-1.12,1.65-1.74.14-1.07.5-1.44.95-2.26.37-.67.49-1.63,1.16-2.23l.26-1.49c1.71-1.73,1.81-4.19,2.86-5.95.88-1.47,1.42-2.85,2.17-4.35l.95-1.88.98-2.07.86-1.73c.8-1.6,1.23-3.29,2.15-4.76l1.17-1.87c1.4,2.56-.86,3.51-.49,4.66Z"/>
      <path class="cls-5" d="M88.56,188.68c.03.07.04.16.04.22-.11-.03-.24-.03-.35.01-.17.07-.19.32-.26.43-.49.8-1.36,1.59-1.7,2.55-.26.71-.51,1.11-.93,1.75l-1.01,1.52c-.18,1.64-1.21,2.99-2.01,4.44l-1.66,3c-.26.46-.7.72-.63,1.24.02.36-.63.69-.81.94-.4,1.7-1.38,3.08-2.03,4.57-.49,1.12-1,1.72-2.06,2.51-.35.39-.25,1.56-.19,2.06s-.4.92-.65,1.38c-.32.61-.4,1.22-1.16,1.52l-.34,1.81-1.09,1.57c-1.07,1.54-.91,2.92-.27,2.97.4.03.73-.1.89-.52.63-1.68,2.38-2.02,3.16-3.49.85-1.6,3.77-1.66,5.06-.34l3.04.53c1.98,1.03,4.01,1.27,6.08,1.74,1.18.27,2.16,1.1,3.56.84s2.83.35,4.22.58l3.29.54c.81.13,1.36.45,2.1.53l3.26.31,6.86.17c.8.77,1.87.96,2.71.11l3.81.04c.91.01,1.51.09,2.43.06l4.04-.14c1.39-.05,2.71-.29,4.13-.16.87.08,1.44-.17,2.03-.87,1.44,1.34,2.4-.52,5.72.25.68.16,1.44-.61,2.05-.64l1.78-.1c.84-.05,1.85-1.01,2.71-.84,1.15.23,1.91.1,2.86-.51,1.61-1.03,3.65-.94,5.4-1.63l2.01-.79c1.04-.41,1.83-.81,3-.91,1.32-.11,2.34-1.36,3.45-1.8l3.61-1.41,1.91-.95,2.04-1.02,3.52-1.91,2.18-1.64c1.61-.74,3.02-1.65,4.21-3.06.96-.01,1.54-.53,2.2-1.08l6.25-5.09c1.19-.97,1.79-2.5,3.59-2.62l.81-2.09c.27-.04.53-.35.74-.45.12-.06.39,0,.5-.19.06-.1.1-.22.09-.34l.21-.2c.54-.1.78-.62.78-1.14.18-.29.43-.54.71-.73.55-.03,1.16-.26,1.34-.81.04-.11.03-.31.01-.43.19.02.38-.08.44-.23.05-.14.01-.29.05-.38l.2-.49c.19.04.42.01.55-.14.06-.07.09-.25.08-.35.23.05.56.03.7-.18.09-.14.09-.41.05-.56.33.01.57-.24.53-.58.13-.11.37-.34.43-.51.42.05.74-.16.84-.54s.26-.8.26-1.21c.19.03.4-.07.45-.21.06-.15.06-.29.04-.41l.46-.47c.36.07.63-.16.64-.5l.2-.2c.56-.1.61-.68.8-1.14l.49-1.22c.19.04.41-.06.46-.2.06-.16.05-.31.04-.43l.97-1.21c.19.06.45.02.55-.14.05-.08.03-.25.02-.35l-.02-.28c.38.05.51-.24.71-.62l.62-1.18c.72-.06.65-.88.88-1.42.25-.58.74-.94.93-1.42l.21-.59c.35-.07.66-.55.55-.89.22,0,.4-.12.45-.26.07-.2.07-.48.03-.67l1.35-2.15c.44-.69.6-1.14,1.04-1.9l.83-1.41c.5-.38.68-.89.66-1.39.19.02.42-.06.45-.22l.08-.38c.05-.24.3-.58.28-.87.48-.1.67-.49.76-.95l.23-1.22c.39.02.52-.22.6-.52l.41-1.54c.37,0,.69-.21.9-.59.11-.2.19-.47-.03-.74l-.07-.58c.17.12.45.09.46-.08l.03-.39.31-.89c.62,0,.51-.83.72-1.09.63-.78.78-1.48,1.08-2.34.28-.79.92-1.35.75-2.39-.19-1.12,1.39-1.91.77-2.59v-1.77c.15-.02.18-.31.15-.44.74-.87,1.15-2.14,1.29-3.49.88.05,1.32.83,1.07,1.61s-.27,2.03-.7,2.63c-.75,1.05-.71,1.76-.91,3.04l-.6,3.79c-.3,1.89-1.48,3.31-1.67,5.79l-1.48,3.74c-.39,1-.48,1.93-1.26,2.7s-.89,1.52-1.11,2.56c-.23,1.1-1.07,2.27-.81,3.37.2.82-.52,1-.93,1.56l-1.3,1.78c-.44.61-.74,1.14-1.1,1.76l-1.98,3.46c-.7,1.23-2.44,3.19-2.97,5.23-1.17.41-1.78,1.24-1.94,2.43-2.11,1.47-3.59,3.3-5.01,5.42-1.28,1.9-3.8,3.12-4.5,4.49-.49.97-1.13,1.9-2.16,2.41-.64,1.05-1.45,1.9-2.67,2.3-1,1.59-2.34,2.75-3.69,3.88.21.27.08.44,0,.57-.87-.28-3.01,1.23-4.12,2.43-.54.59-1.4,1.04-2.07,1.52l-2.53,1.8-1.84,1-1.92,1.11c-.96.56-1.89.26-2.8.94-.99.75-2.41,1.11-3.3,2.21-1.17-.16-1.98.29-2.76.98-1.59,1.19-3.79,1.71-5.46,2.38-3.37,1.35-5.74,2.61-9.79,3.4l-3.02.59-2.34.98c-.85.35-1.64.61-2.68.69l-2.88.23-.25-.03c-.73-.09-1.52.7-2.29.73l-8.24.26c-2.68.08-5.11.07-7.74.46-.58.09-.96-.18-1.68.13-1.07.46-3.59-1.21-6.41-.43-.64.18-.85.32-1.6.23l-5.07-.61c-.99-.12-1.78-.52-2.84.06-.83-.68-1.75-.86-2.81-.55l-4.84-.68c-1.59-.53-2.94-.97-4.67-1.11-2.46-.2-2.91-1.37-4.23-1.53l-2.7-.33c-1.14.11-1.67-.15-2.58-.57-1.15-.54-2.55-.33-3.9-.56-.49,1.31-1.52,1.89-2.38,2.75l-2.86,2.85c-.5.49-.68,1.17-1.74.91-.67,1.49-1.69,2.63-3.26,3.11-1.24,2.23-2.8,4.22-4.86,5.73-.52.38-1.14.45-1.61,1.01-.29.35-.94.07-1.21-.09-.6-.37-.86-2.59.58-4.19.69-.77.88-1.69,1.36-2.56l2.01-3.61c1.3-2.33,1.85-4.69,3.16-6.63.93-1.38,1.5-2.49,1.87-4.2.16-.74,1.37-1.6.84-2.57-.1.32-.21.48-.41.54.11-.2.05-.49.27-.64.15-.11.35-.11.51-.13.64-.1.5-.74.85-1.24l1.53-2.23c.25-.81.46-1.37.82-2.1l2.04-4.15c.27-.56.83-1.21,1.01-1.74.4-1.15.64-2.09,1.4-3.11.5-.68,1.13-1.43,1-2.25-.03-.21-.17-.48-.1-.79.04-.17.26-.32.46-.41.11.08.3.14.4.11.17-.05.15-.4.22-.52l1.92-3.26,1.43-3.22-.58.4c-.03-.19-.04-.36.04-.57.06-.15.26-.15.38-.2,0,.32.28.32.43.24.12-.07,2-3.38,2.54-5.2.05-.16-.44-.31-.58-.19l.49-1.05c-.02.27-.28.69.35.91l1.42-1.7c.62-1.46,1.52-2.84,2-4.33.38-1.16,1.43-1.82,1.85-2.88l2.1-5.3c.41-1.03.38-1.94,2.04-4.73.62-1.05,1.6-1.97,2.1-3.02.36-.74.37-1.54.82-2.3.62-1.04,1.24-1.96,1.98-2.97.49-.67.54-1.68,1.17-2.44,1.36-1.62,1.03-2.96,2.01-3.71.11-.09.18-.44.18-.61,0-.09-.05-.22-.3-.24.47-.58,1-1.29,1.33-2,0,.21.02.44.2.58l.94-1.52c.4-.65.89-1.17.78-1.88-.01-.08-.03-.17-.13-.29l3.08-3.08.52-2.33c.13-.57-.25-1.15-.73-1.19-.92-.09-1.93-1.3-3.34-2.07-1.66.18-2.6-1.22-4.45-1.99-3.35.05-4.52-3.06-8.32-3.34-.38-.67-1.61-.66-1.98-1.06-.71-.76-1.34-.63-2.18-.99-.97-.41-2-.99-3.14-.92-1.29-1.07-2.72-1.53-3.95-2.08-1.05-.47-1.88-1.3-3.33-.89-.61-.88-1.54-1.19-2.51-1.14-.82.28-1.14-.57-1.68-.65l-2.66-.39-2.06-1.58c-.83.45-1.47.09-2.3-.08l-2.53-.54c-.66-.45-1.04-.84-1.96-.62s-1.71-.37-2.18-1.12c-.42-.66.04-2.11.79-2.29,1.49-.34,2.45.11,3.59.61l3.14.44c.65.8,1.6,1.09,2.66.8.94,1.38,2.31,1.03,3.63,1.31l2.42.92c.82.31,2.19.65,2.91,1.1.89.56,1.26.68,2.34.9.77.16,1.56,1.11,2.62.85.68-.16,1.19.74,1.62.88.86.27,1.5.62,2.22.91l2.19.89c1.16.47,2.16.49,3.25,1.21l1.57,1.04,1.64.31c.88.84,1.87.71,2.94,1.04.89.27,2.35,1.62,3.92,2.01s2.9,1.53,4.09,2.62c1.54-.16,3.02-.06,4.02,1.15,1.1-.07,1.97.42,2.8,1.07.7,1.25.07,2.4-.45,3.55-.43.96-.42,1.81-1.38,2.56-.58.45-1.05,1.16-.98,2.01-.81.43-.86,1.27-1.28,1.87l-1.92,2.73c-.44.62-.63,1.18-1,1.87l-1,1.86c-.27.5-.76,1.31-.96,1.82-2.08,1.39-2.68,4.65-3.94,7.19-.94.93-1.74,1.96-2.05,3.37-.14.64-.77,1.23-.77,2.04,0,1.7-2.04,2.45-1.96,3.61.06.96-.59,1.37-.92,1.93l-2.18,3.67c-.67,1.13-.13,2.46-1.51,3.37-.49.32-.38,1.76-.76,2.2l-1.43,1.66c-.4.47-.1,1.26-.48,1.87-.62.98-1.19,2.04-1.45,3.07Z"/>
      <path class="cls-4" d="M63.1,114.84c.25,1.53,1.93.48,4.1,1.05l.83.75,2.84.38c.91.78,1.67.7,2.77,1.03.7.21,1.27,1.03,2.33.76.76-.19,1.36.44,1.88.8.51.31,1.29.13,1.87.2.65.8,1.37,1.19,2.47.92.58.87,1.44,1.26,2.58.98.51.86,1.43.88,2.12,1.27s1.24.98,2.23.85l.8.92c.7-.01,1.86-.28,2.37.26s.94,1.01,1.74.68c0,.41.41.54.62.74.56.56,1.34.65,2.1.91l2.16.72c.67.23,1.06,1.1,2.08.81.72-.21,1.22.37,1.74.7l1.77,1.12,1.59.38c.46.59,1.24.65,1.66.97.91.69,1.64.84,2.74,1.01.52.08,1.39.76,1.91,1.05s.82.99,1.73.75c.44-.11,1.58.11,1.6.67.04,1.66.27,3.28-.09,4.88-.19.48-1.32.94-.77,2-.76-.06-.96.73-1.34.89-.68.29-.63,1.01-.92,1.48-.77,1.26-1.21,2.57-2.24,3.91-.86,1.12-1.47,2.1-2.17,3.27l-1.93,3.25c-.31.52-.66.72-1,1.37l-1.39,2.65c-.48.92-.6,2.02-1.29,2.87-2.02,2.46-2.23,5.02-3.14,6.67-.69,1.25-1.62,2-2,3.48-.13.52-.86,1.1-1,1.77-.2,1.02-1.13,1.62-1.69,2.45l-.35,2.4c-1.02,1.08-1.44,2.39-2.16,3.58-.77,1.28-1.51,2.31-1.88,3.84l-.93,1.58c-.23.4-.49.8-.87.8.26-1.03.82-2.08,1.45-3.07.38-.61.08-1.4.48-1.87l1.43-1.66c.38-.44.27-1.87.76-2.2,1.39-.92.85-2.25,1.51-3.37l2.18-3.67c.33-.56.98-.97.92-1.93-.08-1.16,1.96-1.91,1.96-3.61,0-.82.63-1.41.77-2.04.31-1.4,1.11-2.44,2.05-3.37,1.26-2.54,1.85-5.8,3.94-7.19.21-.51.7-1.32.96-1.82l1-1.86c.37-.69.57-1.25,1-1.87l1.92-2.73c.42-.6.47-1.44,1.28-1.87-.07-.86.41-1.56.98-2.01.96-.75.95-1.6,1.38-2.56.52-1.15,1.14-2.3.45-3.55-.83-.65-1.71-1.13-2.8-1.07-1-1.2-2.48-1.3-4.02-1.15-1.19-1.08-2.51-2.23-4.09-2.62s-3.03-1.74-3.92-2.01c-1.06-.33-2.06-.2-2.94-1.04l-1.64-.31-1.57-1.04c-1.1-.72-2.09-.73-3.25-1.21l-2.19-.89c-.72-.29-1.37-.63-2.22-.91-.42-.14-.93-1.04-1.62-.88-1.06.25-1.86-.7-2.62-.85-1.08-.22-1.45-.34-2.34-.9-.72-.45-2.09-.79-2.91-1.1l-2.42-.92c-1.32-.28-2.68.07-3.63-1.31-1.06.29-2.01,0-2.66-.8l-3.14-.44c-1.14-.51-2.11-.95-3.59-.61-.75.17-1.21,1.62-.79,2.29.47.75,1.22,1.36,2.18,1.12s1.3.16,1.96.62l2.53.54c.82.18,1.46.53,2.3.08l2.06,1.58,2.66.39c.54.08.87.93,1.68.65.97-.06,1.91.25,2.51,1.14,1.45-.41,2.29.42,3.33.89,1.23.55,2.66,1.01,3.95,2.08,1.13-.07,2.17.5,3.14.92.85.36,1.47.22,2.18.99.37.4,1.6.39,1.98,1.06,3.8.28,4.97,3.39,8.32,3.34,1.86.77,2.79,2.17,4.45,1.99,1.42.76,2.42,1.98,3.34,2.07.48.05.85.63.73,1.19l-.52,2.33-3.08,3.08c1.05-2.7,3.66-3.84,2.69-5.96-.63-.16-1.43-.83-1.97-1.03-1.39-.49-3.29-.93-4.37-1.95l-2-.49c-.72-.64-1.42-.56-2.18-1.02l-1.07-.65c-.46-.28-1.06-1.21-1.68-1.33-.84-.17-1.16-.61-1.9-.8l-2.03-.5c-.46-.39-.74-.69-1.26-.66-1.32.07-2.66-.69-3.72-1.31-.22-.13-.27-.62-.84-.62l-1.76.02c-.55,0-1.29-.36-1.69-.75-.31-.3-.53-.73-1.22-.67-.79-.6-1.68-.95-2.72-.83-.54-.85-1.43-.98-2.36-.75-1.06-.58-2.09-.88-3.12-1.13-1.34-.33-2.57-.89-3.99-1.31l-3.21-.95c-.65-.19-1.11-.8-1.83-.55-1.13-1.14-3.62-.71-4.43-3.12-.28-.83.2-1.25.46-2.02s.43-.9.91-1.32c.66.07,1.45-.3,2.06-.17Z"/>
      <path class="cls-6" d="M171.29,14.45c.21.77-.65,1.29-.96,1.78l-.43-.02c-.37-1.15,1.89-2.1.49-4.66l-1.17,1.87c-.92,1.47-1.35,3.17-2.15,4.76l-.86,1.73-.98,2.07-.95,1.88c-.76,1.5-1.3,2.88-2.17,4.35-1.05,1.77-1.15,4.22-2.86,5.95l-.26,1.49c-.67.6-.79,1.56-1.16,2.23-.46.82-.81,1.19-.95,2.26-.08.62-1.31,1.21-1.65,1.74l-.94,1.48c-.41.64-.32,1.53-1.13,2.02.03,1.57-.87,2.66-1.98,3.64-.08,1.43-.93,2.63-2.22,3.19l-.17,1.86-1.03,2.13c-.41.84-1.31,2.03-2.09,4.16-.22.59-.75,1.22-.88,1.97-.07.41-.68,1.17-.97,1.5-.63.71-.75,1.48-1.13,2.29-.35.75-.85,1.55-.88,2.43-1.89,1.47-1.7,2.95-1.92,3.63-.26.79-1,1.67-1.29,2.45l-.79,2.12c-.37,1-1.27,1.42-1.11,2.8.09.77-1.25,1.52-1.58,2.12l-.28,2.64-1.71,2.6-2.01,3.91c-.61,1.18-.59,2.44-1.32,3.63-.88,1.43-1.34,3.24-.72,4.84l1.64.39c.76,1.03,1.79.79,2.84,1.14.6.2,1.03,1.01,1.95.87.75-.12,1.39.38,2,.8l2.25.32c.95.58,1.71,1.14,2.97.86.56.81,1.36,1.06,2.29,1.08.85-.31,1.48.64,2.06.77,1.2.27,2.22.16,3.1,1.15,1.16-.11,2.23.15,3.07,1.05,1.46-.42,2.52.42,3.71.74,1.26.33,2.37.65,3.6,1.08,1.09.38,2.19.12,3.26.99l2.01.46c.94.71,1.83.95,2.91.71.04.11.18.2.26.32-3.69.83-3.9-.99-5.17-.82-.85.11-1.39-.32-2.06-.82l-2.75-.32c-.91-.58-1.55-1.08-2.69-.92l-1.25-.24c.04-.4-.2-.64-.66-.68l-2.35-.22c-.92-1.57-1.82-.22-3.59-1.64l-2.52-.46c-.54-.43-.89-.91-1.71-.72-.97.23-1.48-.31-2.18-.85l-2.16-.33c-.58-.59-.93-1.03-1.86-.82-.93.12-1.79-.18-2.37-1-1.27.07-2.4-.14-3.35-1.07-.94.21-1.74,0-2.01-1.04-1.13.23-1.98-.12-2.41-.98-.95-.77-.05-1.8.2-2.69.76-2.66,2.68-7.04,4.24-9.21.54-.75.77-1.67,1.59-2.31.2-.16.31-.66.27-.86s-.61-.28-.74-.44c-.66-.83.5-2.28,1.72-3.43.46-.63.12-1.75.17-2.55.94-.34.93-1.26,1.34-1.8.51-.68.62-1.29.93-2.05.16-.39,1.11-.58.78-1.53-.27-.79.23-1.46.77-2.02l.35-1.61c.81-.09.88-.81,1.1-1.26l.99-2.08c.76-1.59,1.47-3.34,2.09-4.37.42-.7.77-1.12.96-2.03.09-.44.79-.93.99-1.61.14-.47,1.09-.98.82-1.79,1.8-.24.28-1.61,1.78-3.02l.56-1.82c.7-.38.65-1.03.77-1.43,1.54-1.78,2.31-3.36,3.16-5.44.24-.58.8-1.12.94-1.92.1-.59,1.39-1.25,1.64-1.88.8-2.03,1.89-3.78,3.12-5.73.33-.53.16-1.81.94-2.32l1.03-1.31c.07-1.22,1.09-3.14,1.92-4.1.33-.38.17-1.5,1.22-1.65-.2-1,.1-1.66.98-2.09-.07-.97,0-1.86.92-2.39-.23-.85.73-1.29.9-1.78.31-.85.13-1.47,1.03-1.93.29-.49.22-1.52.3-2.18.86-.61,1.1-1.42,1.08-2.34.09-.04.17-.14.22-.22.17.01.37-.05.47-.19.07-.1.06-.27.08-.36.11-.61.68-1.01.99-1.51.08.02.22,0,.31-.02l.12.52c.04.15.46.39.57.14l.52-1.2c1.36,1.93-1.13,3.76-.75,5.17Z"/>
      <path class="cls-4" d="M139.09,226.86c-.74,1.75-2.87,1.26-4.63,1.23-1.19-.02-2.39.5-3.61.18-.64-.17-1.11.42-1.57.49-.93.12-2.18.25-2.99,0-1.17-.35-1.74.05-2.78.18-2.19.29-4.56.22-6.8.03-.65-.05-1-.44-1.85-.31-.77.12-1.62-.42-2.48.29-.6.49-1.76.07-2.43-.04l-5.12-.81-3.11-.19c-.82-.05-1.66.23-2.6-.09-1.57-.54-3.14-.8-4.82-.86l-2.38-.91-3.25-.09c-.5-.98-1.39-1.13-2.41-1.29-.82-.14-1.64-.75-2.51-.57-1.18.24-2.28-.04-3.09-.98l-2.91.02c-.22,1.22-1.42,1.57-2.08,2.24l-2.93,3c-.69.7-.9.96-1.73,1.5-.9.59-1.55,2.15-2.99,2.4-1.18,1.81-2.46,3.61-4.15,5.03-.77.64-1.65,1.05-2.25,1.91-.38.55-.91.74-1.48.74-.54,0-.82-.38-1.25-.72-.63-.5-.64-.91-.53-1.63.05-.35-.35-.99-.05-1.47l1.07-1.75c1.03-1.7,2.96-4.3,2.91-5.12-.05-.86.9-1.42,1.2-2.09,1.03-2.3,1.68-4.65,3.06-6.75.74-1.12,1.29-2.25,1.64-3.57l.82-1.45c.2-.05.31-.22.41-.54.52.97-.68,1.83-.84,2.57-.37,1.71-.94,2.82-1.87,4.2-1.3,1.94-1.86,4.3-3.16,6.63l-2.01,3.61c-.48.86-.67,1.78-1.36,2.56-1.43,1.6-1.18,3.82-.58,4.19.27.17.92.44,1.21.09.47-.56,1.1-.64,1.61-1.01,2.06-1.51,3.62-3.49,4.86-5.73,1.57-.48,2.59-1.62,3.26-3.11,1.06.26,1.24-.42,1.74-.91l2.86-2.85c.86-.86,1.89-1.44,2.38-2.75,1.35.23,2.75.02,3.9.56.91.43,1.44.68,2.58.57l2.7.33c1.32.16,1.76,1.33,4.23,1.53,1.73.14,3.08.57,4.67,1.11l4.84.68c1.06-.31,1.98-.13,2.81.55,1.05-.59,1.85-.18,2.84-.06l5.07.61c.74.09.95-.05,1.6-.23,2.82-.78,5.34.9,6.41.43.72-.31,1.1-.05,1.68-.13,2.63-.39,5.06-.38,7.74-.46l8.24-.26c.77-.02,1.55-.81,2.29-.73Z"/>
      <path class="cls-3" d="M144.82,32.35c.49.78-1.44,1.93-2.75,3.14l-1.75,1.62c-.71.66-1,1.63-2.21,1.59-1,1.73-2.68,2.67-4.03,4l-3.88,3.84c-1.35,1.33-3.08,2.86-3.94,3.84l-1.13.37-1.92,1.97c-1.13,1.16-2.19,2.28-3.3,3.41-.69.7-1.32,1.19-2.03,1.88l-3.64,3.54-2.68,2.72c-1.68,1.25-3,2.62-4.31,4.24-.56.69-1.39,1.13-1.96,1.94l-1.63,1.13c-.13.09-.39.12-.47.12-.11,0-.22-.04-.18-.22.43-.98,1.4-1.63,2.25-2.4s1.47-1.63,2.27-2.38l5.48-5.09,1.74-1.86,2.1-2.05c.6-.58,1.68-.84,2.08-1.78.45-1.05,1.52-1.25,2.17-1.95l1.49-1.63,4.22-4.01c.95-.08,1.54-.7,1.63-1.69,2.35-.96,3.43-3.67,5.7-5.08.71-.44,1.12-.29,1.62-1.13.33-.55,1.22-1.55,1.79-1.9.98-.6,1.48-1.49,2.31-2.09.77-.56,1.35-.94,1.99-1.72.8-.96,2.01-1.68,2.95-2.37Z"/>
      <path class="cls-4" d="M186.83,206.63c-.51.73-1.3,1.07-2.07,1.62l-1.19.84c-1.01.71-1.62,1.75-2.88,2.12l-2.2,1.71c-.84.21-1.06.31-1.7.81-1.65,1.29-3.88,1.56-5.64,2.81-1.45,1.03-2.93,1.56-4.62,2.11-.61.2-1.24,1.33-1.9,1.33-1.06,0-1.4.66-2.2.94l-2.48.86-2.08,1.04c-.83.41-1.89.27-2.49,1.19-1.17-.14-2.21.08-2.97.91-1.77.17-3.65.15-5.32.81-.53.21-.94.72-1.66.7l-1.37.62c-2.86-.23-3.99,1.61-4.71-.14l2.88-.23c1.04-.08,1.83-.34,2.68-.69l2.34-.98,3.02-.59c4.05-.79,6.41-2.05,9.79-3.4,1.68-.67,3.87-1.19,5.46-2.38.78-.68,1.58-1.13,2.76-.98.89-1.1,2.31-1.46,3.3-2.21.9-.69,1.84-.39,2.8-.94l1.92-1.11,1.84-1,2.53-1.8c.68-.48,1.53-.93,2.07-1.52,1.11-1.2,3.25-2.72,4.12-2.43Z"/>
      <path class="cls-3" d="M63.1,114.84c-.61-.13-1.4.24-2.06.17,2.5-2.19,1.25-3.16,2.85-4.38.39-.3.78-1.02,1.62-.96,1.16-2.22,3.34-3.84,5.13-5.58.64-.62,1.29-1.23,1.95-1.67.97-1.17,1.74-2.5,3.07-3.39.81-.54,1.12-1.52,1.69-2.08l2.66-2.61,4.8-4.97c1.18-1.22,2.25-2.57,3.52-3.44.24-.08.21.07.21.15.04.52-2.2,2.52-2.9,3.55-.49.73-.63,1.07-1.48,1.47-.99.47-1.47,1.89-2.11,2.69-.32.2-1.21.13-1.31.4l-.52,1.42c-1.13.79-1.95,1.85-2.9,2.81l-5.09,5.2-3.67,3.81-1.8,2.06c-.62.71-1.03,1.28-1.81,1.87-1.03.78-1.6,2.32-1.87,3.5Z"/>
      <path class="cls-4" d="M186.84,206.07c1.35-1.13,2.69-2.29,3.69-3.88,1.22-.4,2.03-1.25,2.67-2.3,1.03-.51,1.66-1.44,2.16-2.41.7-1.37,3.22-2.59,4.5-4.49,1.42-2.12,2.89-3.95,5.01-5.42.15-1.19.77-2.02,1.94-2.43.53-2.04,2.27-4,2.97-5.23l1.98-3.46c.35-.62.65-1.15,1.1-1.76l1.3-1.78c.05.26.41.84.12,1.17l-1.78,1.99c-.25.8-.4,1.17-.81,1.88l-1.19,2.09-2.34,3.7-1.05,1.75-2,2.64-3.48,3.7c-.73.78-1.01,1.91-2.15,2.23-.33,1.28-1.33,1.94-2.31,2.63s-1.63,1.81-2.32,2.83l-1.26,1c-.74,1.31-1.99,1.81-2.91,2.82l-1.58,1.74c-.61.68-1.23,1.2-2.23,1.01Z"/>
      <path class="cls-3" d="M224.39,111.72l-.77.04-.44-1.57c-.12-.43-.17-.57-.7-.57-.37,0-.72.02-.63.54l-.53-.03c-.42-.38-1.07-.1-1.58.47-.39-.47-.23-.87-.28-1.27.15-.02.22-.11.27-.2.53.23.82-.52,1.14-.65,2.72-1.08,2.65-4.25,2.11-4.73-.08-.07-.24-.08-.37-.05l-.16-3.24c-.03-.57-.48-1.05-.35-1.6.04-.17.03-.4-.03-.64-.04-.15-.28-.26-.48-.19l-.04-2c0-.4.11-.78-.22-1.05l-.25-.73c-.04-.13.02-.4-.17-.54-.08-.06-.24-.09-.34-.07l-.28-2.01c-.09-.68-.23-1.4-.84-1.83l.02-.97c0-.09.02-.23.05-.31.49.22.81.86.85,1.46.06,1.06.5,1.85.81,2.77l1.05,3.08.64,3.25c.63,1.16.42,2.36.58,3.63l.28,2.28c.54,2.29.88,4.48.68,6.73Z"/>
      <path class="cls-3" d="M73.13,124.26c-.08.32.08.85.53.86.86.02,1.6.79,2.32.92,1.15.19,1.8.44,2.73.97l3.84.64c.4.39,1.13.76,1.69.75-.06.28.02.63.22.73.25.13,1.78.25,2.38-.13,1.06.62,2.41,1.38,3.72,1.31.04.36.16.69.39,1.04-1.01.18-1.45-.36-2.34-.79s-2.25-.28-3.11-1.12c-1.17.27-2.12-.11-2.84-.99-1.35.12-2.52.04-3.87-.25-1.06-.81-2.49-1.43-3.87-1.38-.77.03-1.02-.8-1.6-1.09l-3.49-1.69c-1.92-.93-3.26-.11-5.74-2.59.73-.25,1.19.36,1.83.55l3.21.95c1.41.42,2.65.98,3.99,1.31Z"/>
      <path class="cls-3" d="M89.1,85.03c.31-.65.96-1.36,1.68-1.85,1.47-.99,2.5-2.22,3.61-3.56,1.61-1.94,3.93-3.53,5.41-5.24.7-.81,1.38-1.78,2.47-2.12.36.27.39,1.15-.1,1.39-.41.2-1.02.15-1.29.41-.31.3-.39.92-.47,1.47-1.38.8-2.56,1.72-3.38,3.11-1.38.28-2.54,1.27-2.67,2.71l-2.77,1.92c-.03,1.41-1.26,1.96-2.48,1.75Z"/>
      <path class="cls-4" d="M177.48,32.06c.5.94,1.44,1.14,1.97,1.92.15.22.37.36.64.41v.41c0,.13.07.24.15.27.11.04.31.04.38,0,.28.09.3.4.43.58l3.33,4.59c0,.75.18,1.19.83,1.31v.56s-.45.16-.45.16c-.33,0-.78-.11-.83-.34l-.26-1.12c-.32-1.42-1.7-2.27-2.55-3.38-.43-.56-.7-1.1-1.22-1.66l-1.59-1.7c-.84-.9-1.5-1.73-2.42-2.51l-3.63-3.07c-.5-.42-.91-.71-.61-1.45.66,1.16,1.95,1.62,3.01,2.37.55.39.96,1.16,1.59,1.53.55.33.97.61,1.23,1.11Z"/>
      <path class="cls-3" d="M222.94,140.92l-.65-.02c.08-.32.06-.98.02-1.32.29-.07.29-.33.26-.56-.05-.46.12-1.07-.07-1.51.56-.59.82-1.37.83-2.13l.04-2.23c.25-.03.29-.21.29-.41s-.05-.39-.3-.4c.03-.51.12-1.25.3-1.78.08-.22.27-.37.27-.66,0-.27,0-.6-.39-.65.1-.44.08-1.11,0-1.54.54-.13.56-.58.63-.9.13-.57-.38-.77-.57-1.14-.46-.88.41-1.81.56-2.59l.24-1.3v-8s.01-1.81.01-1.81c.08-.02.28.09.28.28l-.1,14.39-.23,3.14-1,8.74-.43,2.39Z"/>
      <path class="cls-4" d="M69.77,214.64c.21-1.57.81-2.79,1.98-3.98.12-.61.34-1.5.66-2.13l1.89-3.76c.3-.6.68-1.09.94-1.65.35-.75.42-1.46.94-2.19.75-1.06,1.18-2.42,2.23-3.11.13.82-.5,1.57-1,2.25-.76,1.03-1,1.96-1.4,3.11-.19.53-.74,1.18-1.01,1.74l-2.04,4.15c-.35.72-.56,1.29-.82,2.1l-1.53,2.23c-.34.5-.2,1.14-.85,1.24Z"/>
      <path class="cls-1" d="M185.2,39.95c0,.19.02.49-.08.69-.14.28.44.55.56.37.65-1,1.67-1.24,2.61-.65,1.58,1.01,2.87,2.41,4.18,3.76.22.45.57.82,1.02,1.05.08,0,.18-.02.26,0,.09.24.28.42.51.51.02.07.01.18,0,.26.23.44.59.8,1.03,1.03.08.15.22.34.25.52.02.16.03.36.18.46.1.07.26.07.34.06.33,0,.34.38.49.48l.02.61c-1.42-.53-2.12-2.22-3.29-3.16s-2.14-1.72-3.1-2.88l-2.8-2.38c-.84.53-1.4.88-2.16.89-.65-.11-.83-.56-.83-1.31l.81-.3Z"/>
      <path class="cls-1" d="M170.52,9.83c-.3.51-.88.91-.99,1.51-.26.1-.46.3-.55.55-.05.08-.13.18-.22.22-1.44.58-2.4,2.08-3.76,2.89-1.09.65-1.82,1.44-2.71,2.28-1.25,1.17-2.75,2.02-3.73,3.5-.17.25-.44.38-.66.4l-.03-.95,2.22-2.01c.58-.53,1.2-.8,1.67-1.48.66-.97,1.93-1.35,2.77-2.1,1.86-1.66,5.12-5.05,5.99-4.81Z"/>
      <path class="cls-3" d="M212.82,72.24l-.49-.05-1.29-3.03c-.06-.14-.02-.37-.19-.48-.11-.06-.25-.08-.37-.07-.18-.91-1.11-1.15-1.28-2.55-.03-.24-.04-.52-.24-.66-.16-.11-.38-.12-.55-.11-.05-.63-.75-.95-1-1.57l-.44-1.06c-.51-.36-.75-.67-.62-1.21l.02-.29c.25.11.47.31.68.61l2.02,2.88,2.12,3.53.9,1.96.72,2.11Z"/>
      <path class="cls-3" d="M157.9,21.18c-.28.03-.47.25-.43.54-1.29.61-2.62,2.21-3.84,3.42l-2.73,2.71-2.91,2.46c-.13.11-.36.08-.46.08-.09,0-.21-.02-.24-.26l1.07-1.24c.48-.56,1.16-.78,1.59-1.25,1.86-2.03,3.82-3.41,4.31-3.96l1.46-1.61,2.17-1.84.03.95Z"/>
      <path class="cls-1" d="M97.43,133.61c-.54.12-1.04,0-1.52-.32-.93-.64-2.03-.7-3.09-1.1-.52-.2-1.28-.94-1.87-.83-.24-.34-.35-.68-.39-1.04.52-.03.8.27,1.26.66l2.03.5c.75.18,1.07.63,1.9.8.62.12,1.22,1.05,1.68,1.33Z"/>
      <path class="cls-1" d="M185.18,37.69c.29.62.75.98.55,1.36-.08.15-.32.27-.51.3-.01-.07,0-.4-.07-.58-1.2-1.3-2.58-2.41-4.1-3.11-.13-.18-.15-.48-.43-.58-.15-.05-.29-.31-.53-.27v-.41s0-.32,0-.32c1.18-.14,1.69.92,2.49,1.64s2.08.98,2.6,1.97Z"/>
      <path class="cls-4" d="M171.32,27.1c-.02.17-.27.37-.37.29l-.54-.47c-1-.87-2.66-1.6-3.18-3.02.22-.81.4-2.18.75-2.98.42-.95.84-1.52,1.11-2.58.17-.67,1.06-1.36.81-2.13l.43.02c.12,1.06-.29,1.85-.96,2.73-.35.47.02,1.81-1.11,2.01l-.16,1.94c-.04.51-.37,1.64.26,1.99,1.1.62,2.31,1.14,2.96,2.2Z"/>
      <path class="cls-1" d="M212.82,72.24c.59.68.75,1.35,1.2,2.2l1.4,2.67c.37.71.43,1.44.92,1.96l-.13.42c-.74.07-.72-.58-.98-1.15l-2.9-6.15.49.05Z"/>
      <path class="cls-1" d="M217.42,82.12c.92,1.09.97,2.38,1.43,3.76.28.85,1,1.68.65,2.63-.03.08-.05.22-.05.31-.4.02-.31-.3-.4-.57l-2.02-5.79c-.15-.43-.64-.74-.61-1.21.62-.08.72.54,1,.87Z"/>
      <path class="cls-3" d="M188.29,40.35c-.93-.6-1.96-.35-2.61.65-.12.19-.7-.08-.56-.37.1-.2.07-.49.08-.69l.02-.61c.19-.03.43-.15.51-.3.2-.38-.27-.74-.55-1.36.78.13,1.18.81,1.82,1.32.53.42,1.2.67,1.29,1.34Z"/>
      <path class="cls-3" d="M206.37,60.9l-.57.02-.76-1.03c-.35-.47-.82-.7-.78-1.28s-.4-1.11-1.01-1.06v-.27c.02-.39-.17-.71-.56-.76l-.19-.2c.04-.18.02-.42-.14-.55-.08-.07-.26-.09-.36-.07-.47-.24-.78-.75-.61-1.25.59-.11.77.37,1.09.79l3.36,4.41c.32.42.54.75.54,1.26Z"/>
      <path class="cls-3" d="M217.42,82.12c-.27-.33-.38-.95-1-.87.04-.58-.09-1.19-.21-1.76l.13-.42c.75.81,1.14,1.97,1.08,3.05Z"/>
      <path class="cls-3" d="M179.59,33.52l-.14.46c-.53-.78-1.47-.99-1.97-1.92.88-.11,1.91.65,2.11,1.47Z"/>
      <path class="cls-3" d="M201.22,53.68l-.79-.03c.03-.19-.2-.31-.24-.43-.03-.14.06-.43-.07-.63-.12-.19-.44-.2-.7-.19h-.29c.06-.5-.29-.91-.8-.99l-.03-.81,2.36,2.12c.34.3.57.58.57.98Z"/>
      <path class="cls-1" d="M224.39,111.72l.03.26v1.81c-.57.16-.4-.61-.8-2.02l.77-.04Z"/>
      <path class="cls-1" d="M198.25,50.17c.07.13-.09.4-.24.44-.34.09-.73-.36-.96-1.05.09-.02.2-.04.27-.03.37.07.68.35.93.63Z"/>
      <path class="cls-3" d="M197.32,49.53c-.08-.01-.18,0-.27.03-.05-.16-.32-.41-.49-.47l-.02-.61c.16.11.53,0,.7.29.13.22.14.5.08.76Z"/>
      <path class="cls-1" d="M201.22,53.68v.26s0,.26,0,.26c-.17,0-.41.06-.61-.03-.15-.07-.22-.34-.19-.51l.79.03Z"/>
      <path class="cls-2" d="M180.08,34.08v.32c-.27-.04-.49-.19-.64-.41l.14-.46c.16.14.44.29.49.55Z"/>
      <path class="cls-1" d="M206.37,60.9v.25s-.02.29-.02.29c-.37.02-.43-.36-.55-.53l.57-.02Z"/>
      <path class="cls-3" d="M196.05,48.01c-.08.01-.24,0-.34-.06-.15-.1-.15-.3-.18-.46.18-.04.37.03.45.17.06.1.07.24.07.35Z"/>
      <path class="cls-3" d="M201.47,54.19h-.25s0-.26,0-.26c.14-.03.29.13.25.26Z"/>
      <path class="cls-3" d="M193.48,45.16c-.44-.23-.8-.59-1.02-1.05.33.34.86.53,1.02,1.05Z"/>
      <path class="cls-1" d="M131.35,87.11c-.95.47-1.53,1.39-2.36,2.11l-1.92,1.67c-.78,1.41-1.65,2.47-3.32,2.92-1.26.34-.9,1.42-2.03,2.85,1.16.27,2.91-.18,3.72-1.17.95-1.16,1.55-2.3,2.94-3.06.32-.17.6-.75.94-.82.09.83-.5,1.42-1.21,1.83-1.28.73-1.53,3-3.82,3.62-.72.19-1.33,0-1.82.58s-.78,1.03-.67,1.8c.09.66.7.84,1.27,1.26,2.45,1.8,4.59,2.28,6.8,3.3l2.1.97c1.41.65,2.49,1.94,4.24,1.86.55.9,1.4,1.15,2.38.95.76.26,1.22.92,1.64,1.5.39.54,1.17.29,1.63.44l3.71,1.23c.95.32,1.51,1.5,2.67,1.69l2.17.34c.28-.89.89-1.36,1.84-1.23l1.32-1.58c.45-.54.89-1.41,1.53-1.28l1.25.24c0,.37-.22.66-.55.97l-2.87,2.8c-.38.37-.74.5-.74.99,0,.6.35.84.82,1.19,2.21,1.72,3.36.93,4.03,2.08.18.31.04,1.05-.28,1.38-.86.89-1.24,1.99-2.06,2.85l-2.75,2.9-4.14,5.16-6,7.12c-1.01,1.2-2.08,2.2-3.19,3.23-1.64,1.52-2.86,3.83-5.27,5.78-.88.71-1.18,1.32-1.89,2.11l-2.51,2.84c-2.11,1.94-4.09,3.77-5.78,6.1-.91,1.25-2.26,2.04-3.5,2.94-.13,1.03-.61,1.86-1.69,2.21-.27,1.01-1.41,1.43-1.9,2.12-.58.82-.86,1.41-1.77,1.97-.4.25-1.16.9-1.4,1.3-.47.77-.99,1.01-1.56,1.63l-3.52,3.81c-.54.59-.92.37-1.29,1.31l-2.53,2.38c-.44,1.01-1.17,1.08-1.74,1.69-1.37,1.47-2.69,2.74-4.26,4.08-.62.53-.83,1.72-1.96,1.84-.35,1.14-1.25,1.72-2.22,2.08-.63,1.43-1.69,1.94-3.1,1.95-.65.52-1.26,1.82-2.16,1.91l.02-.49.03-.46c0-.06,0-.15-.04-.22.38,0,.64-.41.87-.8l.93-1.58c.37-1.53,1.11-2.56,1.88-3.84.72-1.19,1.13-2.5,2.16-3.58l.35-2.4c.56-.83,1.48-1.43,1.69-2.45.14-.67.87-1.25,1-1.77.38-1.48,1.31-2.23,2-3.48.91-1.65,1.12-4.21,3.14-6.67.69-.84.81-1.95,1.29-2.87l1.39-2.65c.34-.65.69-.84,1-1.37l1.93-3.25c.69-1.16,1.31-2.15,2.17-3.27,1.03-1.34,1.47-2.64,2.24-3.91.29-.47.24-1.19.92-1.48.38-.16.58-.95,1.34-.89-.55-1.06.57-1.51.77-2,.37-1.61.13-3.22.09-4.88-.01-.56-1.15-.79-1.6-.67-.91.23-1.2-.45-1.73-.75s-1.38-.97-1.91-1.05c-1.1-.18-1.84-.32-2.74-1.01-.42-.32-1.2-.38-1.66-.97l-1.59-.38-1.77-1.12c-.52-.33-1.02-.9-1.74-.7-1.01.29-1.4-.58-2.08-.81l-2.16-.72c-.76-.25-1.54-.35-2.1-.91,1.43.19,1.93-1,2.22-2.28.15-.66.82-1.22.86-2.03,4.3-.04,4.34-4.33,6.82-6.32,1.28-1.03,2.84-1.83,3.34-3.58,1.2.09,1.6-.71,2.15-1.49l.86-1.22c.51-.72,1.45-1.7,2.2-2.06.81-.38,1.11-.29,1.66-1.05.78-1.07,1.59-2.42,2.64-3.15l2.31-1.6c.8-.95.87-2.42.78-3.55-.31-.21-.87.03-1.06.21-.17-1.92,2.72-1.69,2.99-4.5.79.02,1.21-.73,1.69-.89,1.29-.43,2.05-1.11,2.37-2.41.15-.6,1.07-.9,1.45-1.27l2.4-2.29c.25-.24.34-.6.86-.45.29.08.16.35.14.61ZM130.44,132.57c-.65.7-2.01,1.64-1.89,2.5.05.35.23.44.62.39.3-.04.46-.24.71-.46l2.89-2.53,4.37-4.17,7.48-7.17,3.44-3.29c1.21-1.16,3.43-2.58,2.78-3.55-.52-.78-1.46.39-3.07.73-.28.08-.33.99-.55,1.19-.85.75-1.57,1.83-2.57,2.34-1.19.61-2.12,1.15-2.94,2.28-.46.64-1.13,1.04-1.5,1.86l-1.62,1.37c-.53.81-1.17,1.22-1.82,1.86l-1.99,1.96-4.35,4.69Z"/>
      <path class="cls-5" d="M182.16,118.15c.47.93,1.17,1.88.98,3.05-.33,2.03-1.9,3.44-3.75,4.01-.51.16-.62,1.12-.89,1.44-.91.27-1.59,1.32-2.22,1.82-.86.68-1.13,1.09-1.89,1.87l-1.87,1.94-3.25,2.35c-.84,1.11-1.41,2.31-2.64,3.09l-2.39,2.29c-.64.61-2.08.89-2.34,1.9s-1.13.97-1.75,1.12c-.83,1.19-1.68,2.31-3.11,2.84-.35,1.19-1.09,2.02-2.14,2.53l-4.49,4.32c-1.05,1.01-2.3,1.66-3.2,2.98-.25.37-.9,1.05-1.29,1.22-.86.2-1.56.44-1.77,1.32-.15.63-.85.78-1.17,1.15-.99,1.18-1.86,2.22-3.14,3.1-.56.39-1.09,1.35-1.7,1.56-1.09.39-1.25,1.08-1.88,1.82-1.88,2.18-3.72,2.44-4.01,3.98l-1.3.96c-1.12,1.68-2.45,2.86-4.07,3.95l-1.87,2.22c-1.89,1.2-3.46,2.53-4.65,4.41-.6.95-1.63,1.48-2.4,2.24l-4.55,4.46c-1.43,1.4-2.46,2.82-4.25,3.83-.93.53-1.29,2.09-2.05,2.76l-1.41,1.25c-.1.06-.18.17-.21.25-1.21.47-3.68,2.48-3.84,2.79-.54,1.03-1.27,1.25-1.97,2.03-.52.57-.65,1.67-1.64,2.06-.16.66,1.09,1.7,1.63,1.33.21-.15.58-.1.77-.06-.04.1-.11.29,0,.45.86-.08,1.78.18,2.37-.38l1.5-.1c-.13.48-.64.51-1.08.73l3.34-.25c.1-.06.11-.42.06-.45l3.13.06c1.05.02,2.05.48,3.14.04.25-.1.63.24.68.46l-3.36-.02c.57,1.23,1.84.6,2.77.32.45.31,1.17,1.07,1.7.46l.16.09c.72.41,2.01-.95,3.8-.53,2.11.5,4.28.62,6.16-.31l-9.14-.06c-.02-.1.09-.24.27-.24l7.45-.04,1.81-.23c-.05.14-.18.25-.21.55l4.4-.27,3.76-.15c.74-.03,1.46-.79,2.37-.5.11.03.45,0,.53-.05s.01-.32-.02-.34c.07-.05.23-.06.26.09.98,0,1.88-.17,2.78.25.08-.04.21-.02.29-.02.6.48.93,1.22.8,2-.35.43-.85.61-1.45.86l-1.45.61c-.35.15-.5.31-.47.57-.14-.05-.39-.03-.54-.03-.52-.49-1.07-.14-1.72.08-2.01.68-3.89.17-6.33.88-.67.2-1.56-.01-2.15.61-.94-.82-2.08-.75-2.96,0l-6.6-.04-4.32-.06c-2.23-.03-4.5.42-6.66-.09-1.27-.3-2.56-1.04-3.76-.39-.13.07-.39.06-.54.05.11-.13.05-.53-.22-.51-2.63.26-5.46-1.18-7.46-.72-.4.09-1.08.88-1.6.65-1.7-.76-1.97-3.26-.77-4.53l4.15-4.4c.53-.56.78-.76,1.55-1.13.68-.33,1.44-1.19,2.02-1.78l3.46-3.51c.4-.41.45-1.43,1.41-1.39.84-.94,1.83-1.63,2.95-2.19.97-1.78,2.39-3.1,3.7-4.56.58-.65.81-1.11,1.87-1.32.46-.09.76-1.28,1.15-1.56,1.44-1.03,2.25-2.37,3.56-3.47l3.29-2.79c.59-1.01,1.28-1.52,2.15-2.35l1.28-1.23c1.04-.52,1.48-1.45,2.19-2.26s1.7-1.53,2.65-2.21c.32-.23.9-.27.79-.79.1-.12.23-.3.24-.48,1.25-.19,1.63-1.63,2.49-2.47,1.09-1.07,2.8-1.62,3.55-3.13,1.02-2.07,2.25-2.07,2.48-2.89.43-.06.53-.39.76-.46.76-.25,1.2-1.08,1.82-1.67l5.95-5.6c1.23-1.16,2.13-2.26,3.64-3.14l2.01-2.3c1.25-.77,2.17-1.73,3.22-2.67.49-.44,1.04-.57,1.47-1.19,1.46-2.13,3.84-3.38,5.5-5.26l1.95-2.2,2.47-1.42,1.71-2.42,2.05-1.8c1-.87,1.95-1.56,2.71-2.73l1.25-.73c.73-1.16,1.8-1.63,2.81-2.4.59-.45.88-1.4,1.63-1.71,1.08-.45,2.08-1.1,2.54-2.05l.57-.03Z"/>
      <path class="cls-6" d="M186.27,177.7c.19-.35.11-.87.05-1.22.12-.11.23-.25.3-.4l1.67-.16,2.35-1.46c.92-.57.78-.87,1.29-1.74l2.55-4.29c.73-1.22,1.04-2.5,2.04-3.73l.44-2.24c2.17-2.2,2.08-4.53,3.18-5.71.53-.57.63-1.62.96-2.38.51-1.19.77-2.12,1.07-3.38s.9-2.4,1.02-3.86l1.31-2.39c-.01-.82-.1-1.19.21-1.95l1.04-2.61.34-3.24c.51-.92,1.08-1.64.85-2.79s.21-2.16.61-3.19c.7-1.77.26-3.72.46-5.53.1-.89.33-1.55.03-2.44-.29-.85-.06-1.73.42-2.48-.14-.34-.47-.73-.47-1.1v-10.01c-.02-1.11-.5-1.76-.93-2.71l-.24-3.32c-.45-.9-.33-1.34-.18-2.27.23-1.42-.58-2.97-.66-4.33-.07-1.28-.18-2.04-.99-3.05l-.2-2.75c-.85-1.27-.84-2.28-1.04-3.75-.09-.67-.91-1.42-.72-2.32.2-.99-.57-2-.64-2.79-.13-1.33-.55-1.84-1.24-2.82l-.44-3.12c-.54-.95-.92-1.78-.82-2.96-.79-.93-1.25-1.96-1.19-3.19-.89-.65-1.05-1.62-.99-2.65l-1.49-1.97-.47-2.27c-.68-.91-.84-1.66-1.34-2.64l-.77-1.49c-.37-.71-.33-1.26-.8-1.9l-1.76-2.41c-.14-1.19-.52-1.7-1.07-2.62-.48-.8-1.09-2.48-2.02-3.72l-.24-1.49c-1.19-.84-1.75-1.9-2.3-3.18-.2-.47-.76-.86-.65-1.41l.45-.16c.19-.08.61-.04.79.08.16.11.16.57.32.81l1.44,2.18,1.53,1.79c-.37,1.2.25,1.76.78,2.56l.93,1.43c.39.59.53,1.04,1.06,1.61l.28,2.16c.5.81,1.28,1.33,1.97,2.01-.42,1.34.55,2.07.93,3.03.27.68.13,1.4.87,1.89.65.43,1.44,1.94,1.23,3.38,1.99.57.05,2.39,1.8,3.69.3.97.59,1.96.99,2.89.36.83.36,1.53,1.05,2.25.44.46-.07,1.89,1,2.35l.33,2.66c1.53,1.13,0,2.61,1.62,4.08l.48,4.16c.44.91.7,1.6.77,2.64l.22,2.87.75,1.03c-.17,1.2.5,1.96.89,2.92l.18,3.51c.04.8,0,1.8.05,2.43.6.78,1.11,1.4.96,2.48-.21,1.55.16,6.23.63,7.35s-.05,2.38-.04,3.49l.02,3.83c0,.9.29,1.68-.15,2.58.53,1.24.55,2.53-.28,3.58.52,1.12.56,2.25-.1,3.24l-.58,4.02-2.03,9.06c-.16.71-.77,1.13-.57,2.08.15.73-.21,1.56-.62,2.09-1.24,1.6-1.1,3.51-1.73,5.33l-1.06,3.03c-.29.82-.7,1.64-.57,2.48-1.12,1.2-1.89,2.58-2.32,4.19-.21.74-1.23,1.28-1.7,1.89.22,1.29-.01,2.32-1.08,3.06.04,1.54-.82,2.71-1.97,3.66.09.9-.42,1.37-.8,2.01l-1.16,1.94c-.85,1.43-2.32,2.29-3.9,2.8l-.73.8-1.36.15Z"/>
      <path class="cls-6" d="M191.43,195.26l-.81,2.09c-1.8.12-2.39,1.64-3.59,2.62l-6.25,5.09c-.67.54-1.25,1.06-2.2,1.08-1.19,1.41-2.6,2.31-4.21,3.06l-2.18,1.64-3.52,1.91-2.04,1.02-1.91.95-3.61,1.41c-1.11.44-2.13,1.69-3.45,1.8-1.17.1-1.96.5-3,.91l-2.01.79c-1.76.69-3.79.6-5.4,1.63-.95.61-1.71.75-2.86.51-.86-.17-1.87.79-2.71.84l-1.78.1c-.61.04-1.37.8-2.05.64-3.31-.76-4.27,1.1-5.72-.25-.59.7-1.16.95-2.03.87-1.42-.13-2.74.11-4.13.16l-4.04.14c-.93.03-1.52-.05-2.43-.06l-3.81-.04c-.83.85-1.91.65-2.71-.11l-6.86-.17-3.26-.31c-.74-.07-1.3-.4-2.1-.53l-3.29-.54c-1.39-.23-2.78-.85-4.22-.58s-2.38-.57-3.56-.84c-2.07-.47-4.1-.71-6.08-1.74l-3.04-.53c-1.29-1.32-4.21-1.26-5.06.34-.78,1.47-2.54,1.82-3.16,3.49-.15.41-.48.55-.89.52-.64-.05-.81-1.43.27-2.97l1.09-1.57.34-1.81c.76-.31.84-.92,1.16-1.52.25-.47.71-.89.65-1.38l.49-.24-.15,2.33c-1.18.82-2.21,1.78-1.68,3.51l1.91-1.66c.95-.83,4.58-.41,4.77-.24.15.14.25.53.39.8l2.17.08c1.17.04,1.55.28,2.43.77l4.06.79,2.68.95c.94.63,1.85.67,2.76-.19.72.69,1.84.95,2.79.8,1.1-.18,1.64.32,2.46.61,1.65.59,3.5.39,5.23.46.75.79,1.7.89,2.61.5.96-.64,1.78-.07,2.67.1,1.56.3,3.18.35,4.75.33l11.13-.16c.63-.33,1.35-.76,2.14-.78l5.9-.09c1.34-.02,2.68.13,3.97-.15.76-.16,1.35-1.28,2.5-.8s2.32-.67,3.15-.87c1.54,0,2.96.28,4.11-1.2l2.17-.04c.73-.88,1.77-1.08,2.93-.91.79-.92,1.82-1.18,3.07-1.08.39-.83,1.22-1.25,2.03-.97.91.32,1.14-.69,1.54-.8.73-.22,1.52-.72,2.14-.99.96-.41,1.63-.49,2.61-1.07l1.64-.96,1.68-.55c1.09-1.23,3.06-1.73,3.07-1.74l2.45-1.76,1.53-1.01c.74-.48,1.6-.46,2.21-1.29.72-.99,1.93-1.03,3.14-2.17.52-.49.92-.58,1.45-.95l2.9-2.02,1.12-1.62,2.89-2.09c.7-.51,1.45-.86,1.85-1.74.16-.35.52-.48.81-.52Z"/>
      <path class="cls-1" d="M78.5,208.86c-.22-.71.27-1.2.64-1.87.42-.75.4-1.79,1.38-2.02-.03.45.16.96-.56,1.22-.37.22.01.83.44.38l5.62-5.61,2.87-2.77,1.58-1.79c1.34-1.52,2.39-3.17,3.92-4.6.64-.6,1.03-1.83,1.87-2.14,1.42-.53,1.68-1.76,2.15-2.89.66-.77,1.76-1.29,2.2-2.46.56-1.48,3.72-2.19,2.41-3.82l-3.5,3.67-13.02,13.37-3.82,4.01c-.34.36-.33,1.18-1.14.92.48-.7.88-1.66,1.48-2.36l1.41-1.66c.5-.59,1.09-1.17,1.71-1.81l4.93-5.06,3.09-3.1,5.55-5.77c.68-.7,1.29-1.21,1.97-1.92l3.14-3.31c.78-.82,2.02-1.17,2.55-2.35.12-.27.2-.61.46-.68.3-.07.57.03.74.24.15.17.17.62-.04.83-.64.63-.73,1.33-1.1,2.07l-.95,1.88-2.6,2.75c-.33.74-.56,1.48-1.55,1.54-.4.02-1.34,1.58-1.82,2.78-1.06.69-1.91,1.49-1.94,2.76-.57.33-.99.92-1.45,1.41l-1.22.43-.34,1.09c-1.24,1.07-2.27,2.37-3.37,3.54l-5.03,5.35c-.73.78-1.27,1.57-2.28,2.13l-.85.93-1.96,2.35c-1.73,1.25-1.72,2.44-3.39,3.26-.23-.39-.13-.68-.17-.92ZM79.71,206.91v.17s0,.17,0,.17v.17s0-.17,0-.17v-.34Z"/>
      <path class="cls-1" d="M171.05,111.56c.09,0,.2-.07.27-.1l.26.24c.58.83,1.51.92,2.45,1.21,1.31.4,2.44,1.04,3.74,1.11-.09.22,0,.46.16.51.22.07.42.03.61.03h.26c.08.21.3.25.52.26h.26c.37.53.93.86,1.55,1.03.04.08.18.22.26.26-.02.44.36.7.77.78.13.28.19.6-.05.83-.65-.07-.95-.99-1.58-1.28l-4.39-2.03c-.92-.43-1.94-.49-2.78-1.15-2.46,1.7-4.37,3.8-6.47,5.89l-1,1.33c-1.62,1.53-3.1,3.02-4.64,4.64-.46.48-1.52.59-1.38,1.7-1.38.78-2.5,1.87-3.16,3.27-1.39.86-2.46,1.99-3.47,3.24l-5.32,5.26-2.5,2.62c-.57.59-1.46.79-1.6,1.82-.03.22-.75.28-.93.17-.21-.12-.3-.54-.05-.78.11-.11.35-.26.69-.25.94-1.24,1.83-2.4,3.09-3.33-.29-1.22.62-1.97,1.49-2.4.11.3.1.81-.31.91l-.54.13c-.2.05-.44.5-.04.98,1.22-.64,1.23-1.82,2.25-1.82-.36-.26-.73-.11-1.06-.16-.24-.58.63-.52.8-.75.99-1.4,2.1-2.92,3.36-4.11.67-.64,1.1-1.56,1.72-2.09.93-.78,1.57-1.51,2.4-2.35l4.21-4.23,2.72-2.71,3.89-3.62,1.49-1.59c.84-.9,1.9-1.57,2.42-2.7-.82-.4-1.49-.51-2.12-.37v-.76c.44.24,1.27.41,1.79.37Z"/>
      <path class="cls-1" d="M186.27,177.7c-1.1,2.03-2.82,3.66-4.88,5-1.58,2.5-3.8,4.19-6.09,6.03l-1.56,1.25c-1.01.81-1.89,1.47-2.91,2.28l-2.73,2.16c-1.78.95-3.41,2-5.2,3.02l-1.64.93-3.93,2.01-2.65,1.17-2.28,1.01c-1.04.46-1.93.43-2.97.99l-2.03,1.1-1.49.23c-1.14.77-2.37.71-3.53,1.18l-1.65.67-.05-.83.17-.56c.46.09.85-.07,1.36-.22l4.44-1.27,2.39-.96,1.13-.68c.85.22,1.65.05,2.08-.69.89-.04,1.64-.42,2.46-.89l1.79-1.02,5.1-2.68,4.69-2.52c1.46-.78,2.5-1.96,3.76-2.9l3.15-2.34,4.44-3.77c1.65-1.4,2.7-2.99,3.5-3.53.94-.63,1.82-1.64,2.56-2.52l2.38-2.84c.08-.02.14-.03.24-.02.05.35.14.87-.05,1.22Z"/>
      <path class="cls-6" d="M129.32,166.89c.11.52-.47.56-.79.79-.95.68-1.92,1.37-2.65,2.21s-1.14,1.74-2.19,2.26l-1.28,1.23c-.87.83-1.56,1.34-2.15,2.35l-3.29,2.79c-1.3,1.11-2.12,2.45-3.56,3.47-.39.28-.69,1.47-1.15,1.56-1.06.21-1.29.67-1.87,1.32-1.31,1.46-2.73,2.78-3.7,4.56-1.12.56-2.12,1.25-2.95,2.19-.96-.04-1.01.98-1.41,1.39l-3.46,3.51c-.58.59-1.34,1.45-2.02,1.78-.77.38-1.02.58-1.55,1.13l-4.15,4.4c-1.2,1.27-.93,3.77.77,4.53.52.23,1.2-.56,1.6-.65,2-.46,4.83.98,7.46.72.27-.03.33.38.22.51l-5.31-.09-1.74-.81c-.92,1.22-2.65,1.54-3.8.45l-.42-1.07c-1.85-1.99,1.13-4.48,3.08-6.44l2.33-2.35c3.81-3.02,7.99-8.38,9.6-9.02,1-.4,1.01-.65,1.63-1.42l2.06-2.55c.3-.37,1.35-.58,1.48-1.32.17-.93,1.36-.91,1.78-1.29.68-.61.82-1.47,1.68-1.97,1.22-.71,1.85-2.17,2.91-2.98l2.79-2.13c.69-.53.97-2.18,1.74-2.51,2.34-1.02,3.68-3.25,4.7-4.19l2.02-1.86c.4-.37,1.19-.38,1.58-.51Z"/>
      <path class="cls-6" d="M136.24,207.91l-1.86.75-4.68.44-2.36.52c-1.01.22-1.67.19-2.76-.1-.6-.17-1.5.58-2.19.58h-4.24c-2.38,0-4.94.06-7.22-.01l-2.99-.1c-1.56.2-2.89-.27-4.41-.48-.67-.1-1.46.11-1.79-.6,1.2-.65,2.49.09,3.76.39,2.17.51,4.43.06,6.66.09l4.32.06,6.6.04c.87-.75,2.01-.82,2.96,0,.58-.63,1.48-.42,2.15-.61,2.43-.72,4.31-.2,6.33-.88.64-.22,1.19-.57,1.72-.08Z"/>
      <path class="cls-6" d="M181.58,118.18c-.46.95-1.46,1.6-2.54,2.05-.75.31-1.04,1.26-1.63,1.71-1.01.77-2.07,1.24-2.81,2.4l-1.25.73c-.76,1.18-1.72,1.86-2.71,2.73l-2.05,1.8-1.71,2.42-2.47,1.42-1.95,2.2c-1.67,1.88-4.04,3.13-5.5,5.26-.43.62-.97.75-1.47,1.19-1.06.94-1.97,1.9-3.22,2.67l-2.01,2.3c-1.51.88-2.41,1.99-3.64,3.14l-5.95,5.6c-.62.59-1.06,1.42-1.82,1.67l2.18-2.99c.73-.52,1.19-.76,1.83-1.39l3.36-3.31c1.03-1.02,2.18-2.54,3.57-3.1,1.13-1.81,2.82-2.82,4.29-4.23.71-.67,1.02-1.21,2.02-1.69l2.19-2.09,1.3-1.48,1.3-1.07c2.26-1.85,3.17-4,5.51-4.24l1.57-2.3,2.18-2.2c1.26-.88,2.22-1.64,3.12-2.95l1.59-1.2,2.43-2.13c.58-.87.97-1.16,1.93-1.57.78-.34,1.44-1.28,2.38-1.32Z"/>
      <path class="cls-6" d="M88.58,189.37l-.02.49c-.01.42-.76.78-.86,1.14-.38,1.43-1.22,2.34-1.96,3.52-.43.69-.27,1.68-1.08,2.34-.33.27-.2,1.22-.23,1.57l-1.41,1.66c-.6.7-1,1.66-1.48,2.36.06.13.06.25.05.34-.49-.03-.93.28-.98.79l-.57.25c-.07-.51.37-.77.63-1.24l1.66-3c.8-1.44,1.83-2.8,2.01-4.44l1.01-1.52c.42-.64.67-1.04.93-1.75.34-.96,1.21-1.74,1.7-2.55l.59.02Z"/>
      <path class="cls-1" d="M216.46,111.76c-.51.82-2.2,1.42-1.66,2.49s1.41-.39,2.7-.71c-.21.91-1.28,1.11-2.06,1.61l-2.2,1.41c-.17.11-.35.55-.59.55-.18,0-.65-.17-.73-.34-.31-1.05.73-1.73,1.07-2.44.45-.95.58-1.26,1.54-1.74.58-.3,1.16-.84,1.94-.83Z"/>
      <path class="cls-4" d="M80.6,204.04l-.07.93c-.98.23-.96,1.27-1.38,2.02-.37.67-.86,1.16-.64,1.87-.32.14-.79.45-.92.95-.28,1.1-1.1,1.61-1.95,2.22-.43.3-.14,1.23-.17,1.65l-.49.24c-.06-.51-.16-1.67.19-2.06,1.05-.78,1.57-1.39,2.06-2.51.65-1.49,1.62-2.87,2.03-4.57.19-.26.83-.58.81-.94l.57-.25-.03.46Z"/>
      <path class="cls-1" d="M224.16,123.08c-.15.77-1.02,1.7-.56,2.59.19.37.7.58.57,1.14-.07.31-.09.77-.63.9-.06-.31-.07-.58.06-1.08.05-.23-.67-.56-.83-.42l-.74.65-1.75,1.1c-.27.17-.69.06-.82-.11-.08-.1-.09-.38,0-.5.07-.09.3-.18.48-.23.61-1.06,2.54-1.73,3-2.62.34-.67.3-1.53,1.22-1.41Z"/>
      <path class="cls-1" d="M210.3,137.44c-.25.48-.51.69-.77.83-.36.2-1.12-.06-1.03-.43.32-1.33,2.21-3.77,3.8-3.4-.12,1.65-1.49,2.03-2,3Z"/>
      <path class="cls-4" d="M217.76,156.2l.22-1.91c.69-.26,1.04-.88.97-1.59-.08-.81.44-1.24.7-1.84.32-.74.19-1.64.36-2.3.52.03.8-.39,1.07-.75.62.68-.96,1.46-.77,2.59.18,1.04-.47,1.59-.75,2.39-.3.86-.46,1.56-1.08,2.34-.21.26-.11,1.1-.72,1.09Z"/>
      <path class="cls-3" d="M217.18,111.76l.61.3c.23.11.26.5.17.7-.17.2-.4.53-.46.78-1.28.32-2.18,1.73-2.7.71-.54-1.07,1.14-1.67,1.66-2.49h.72Z"/>
      <path class="cls-6" d="M138.08,157.92c-.23.83-1.46.82-2.48,2.89-.75,1.51-2.46,2.07-3.55,3.13-.86.84-1.24,2.28-2.49,2.47.04-.75.82-1.24,1.22-1.87.7-1.09,1.48-1.7,2.57-2.38.6-.38,1.01-1.04,1.84-1.25.15-1.55,1.51-2.8,2.89-2.98Z"/>
      <path class="cls-1" d="M219.45,109.32c.05.41-.1.8.28,1.27.51-.57,1.16-.85,1.58-.47-.38.6-1.23.61-1.84,1.11-.52.43-.8,1.45-1.51,1.53.09-.19.06-.58-.17-.7l-.61-.3c.06-.72,1.06-.77,1.45-1.13.43-.42.32-1.25.82-1.31Z"/>
      <path class="cls-1" d="M219.72,109.12c.21-.89,1.04-1.42,2.03-1.59.65-1.25.91-2.55.85-3.84.13-.03.29-.02.37.05.54.47.61,3.65-2.11,4.73-.32.13-.61.88-1.14.65Z"/>
      <path class="cls-6" d="M140.68,205.9l.05.83-2.03.61c-.66.2-1.19.88-1.93.6-.04-.27.12-.43.47-.57l1.45-.61c.6-.25,1.1-.43,1.45-.86h.54Z"/>
      <path class="cls-1" d="M221.08,146.03v1.77c-.27.36-.55.79-1.07.75l.47-1.83c.11-.44.22-.64.6-.7Z"/>
      <path class="cls-3" d="M148.09,136.43l.3.05c.33.05.7-.1,1.06.16-1.01,0-1.02,1.18-2.25,1.82-.4-.48-.15-.93.04-.98l.54-.13c.41-.1.41-.61.31-.91Z"/>
      <path class="cls-1" d="M223.34,135.38c-.01.76-.27,1.55-.83,2.13-.33-.76.08-1.74.83-2.13Z"/>
      <path class="cls-6" d="M206.4,177.25l-.62,1.18c-.2.38-.33.67-.71.62-.05-.84.45-1.74,1.34-1.8Z"/>
      <path class="cls-1" d="M220.27,91.62c-.62-.25-.85-1.22-.84-1.83.61.43.75,1.15.84,1.83Z"/>
      <path class="cls-6" d="M216.14,159.47c.14-.53.42-1,.88-1.33.22.27.13.54.03.74-.21.38-.53.6-.9.59Z"/>
      <path class="cls-1" d="M204.26,58.61c-.54-.06-1.03-.5-1.01-1.06.6-.05,1.05.47,1.01,1.06Z"/>
      <path class="cls-1" d="M223.66,130.56c-.53-.37-.22-.89-.12-1.31.4.05.38.38.39.65,0,.29-.19.44-.27.66Z"/>
      <path class="cls-1" d="M223.18,110.19l-1.33-.04c-.1-.52.25-.54.63-.54.53,0,.58.14.7.57Z"/>
      <path class="cls-6" d="M195.81,191.4c-.18.55-.79.77-1.34.81.12-.63.76-.84,1.34-.81Z"/>
      <path class="cls-1" d="M221.53,96.03c-.34.02-.47-.14-.5-.43-.02-.26-.04-.52.28-.62.33.27.21.65.22,1.05Z"/>
      <path class="cls-6" d="M202.54,182.88c-.19.46-.24,1.04-.8,1.14-.03-.53.2-1.1.8-1.14Z"/>
      <path class="cls-1" d="M199.12,52.39c-.25,0-.51-.07-.65-.26-.17-.23-.14-.49-.15-.74.51.08.86.49.8,1Z"/>
      <path class="cls-1" d="M200.18,53.21c-.48,0-.83-.36-.76-.83.25,0,.57,0,.7.19.13.2.04.49.07.63Z"/>
      <path class="cls-6" d="M193.75,192.94c0,.52-.24,1.04-.78,1.14-.03-.54.22-1.06.78-1.14Z"/>
      <path class="cls-1" d="M209.2,66.06c-.25.03-.53-.04-.66-.24-.1-.16-.12-.36-.13-.53.17-.01.39,0,.55.11.21.14.21.42.24.66Z"/>
      <path class="cls-6" d="M214.9,162.75c-.09.46-.28.85-.76.95-.02-.27-.05-.57.2-.79.12-.11.37-.16.56-.16Z"/>
      <path class="cls-1" d="M223.37,133.15c-.07-.1-.23-.26-.23-.41s.16-.3.22-.4c.25.02.3.19.3.4s-.05.38-.29.41Z"/>
      <path class="cls-1" d="M222.09,98.85c-.21.05-.42-.06-.48-.2-.09-.24-.04-.43-.04-.62.2-.07.44.04.48.19.07.24.07.47.03.64Z"/>
      <path class="cls-1" d="M203.26,57.29c-.19.06-.4-.04-.46-.17-.1-.22-.11-.41-.11-.59.39.05.59.37.57.76Z"/>
      <path class="cls-6" d="M208.97,172.94c-.17-.52.32-.69.47-.93.05.19.04.47-.03.67-.05.14-.23.27-.45.26Z"/>
      <path class="cls-6" d="M199.68,187.01c-.11.38-.43.59-.84.54.05-.17.08-.39.24-.46.21-.1.42-.1.6-.08Z"/>
      <path class="cls-1" d="M202.5,56.32c-.32-.03-.53-.3-.5-.63.1-.02.29,0,.36.07.16.14.18.38.14.55Z"/>
      <path class="cls-6" d="M208.42,173.83l-.21.59c-.17-.01-.26-.08-.3-.17-.05-.11.03-.33.15-.35l.36-.07Z"/>
      <path class="cls-1" d="M221.07,94.24c-.21.03-.41-.07-.47-.23-.05-.13-.03-.27-.04-.39.11-.02.27,0,.34.07.18.14.12.41.17.54Z"/>
      <path class="cls-6" d="M203.53,181.03c.01.12.02.27-.04.43-.05.14-.27.24-.46.2.07-.16,0-.36.15-.49.08-.07.27-.11.34-.13Z"/>
      <path class="cls-1" d="M222.57,139.02c.03.23.03.49-.26.56-.01-.12-.32-.12-.2-.39.08-.18.33-.2.46-.17Z"/>
      <path class="cls-6" d="M192.77,194.27c0,.12-.03.24-.09.34-.11.19-.38.13-.5.19-.05-.2.04-.41.2-.47.14-.05.27-.06.4-.06Z"/>
      <path class="cls-6" d="M213.86,164.56l-.08.38c-.03.15-.27.24-.45.22,0-.18,0-.4.15-.54.08-.07.28-.08.38-.06Z"/>
      <path class="cls-1" d="M211.04,69.16c-.19.05-.41-.01-.49-.17-.07-.13-.05-.28-.07-.38.12-.01.26,0,.37.07.18.1.13.34.19.48Z"/>
      <path class="cls-6" d="M215.73,161.01c-.08.3-.2.54-.6.52.03-.15-.04-.41.16-.51.14-.07.31-.05.44,0Z"/>
      <path class="cls-6" d="M217.44,157.09l-.03.39c-.01.17-.29.2-.46.08-.02-.17.02-.35.14-.41.13-.07.26-.07.36-.06Z"/>
      <path class="cls-6" d="M201.54,184.22c-.02.34-.28.57-.64.5.1-.1.05-.38.25-.45.15-.05.28-.06.4-.05Z"/>
      <path class="cls-6" d="M198.41,188.07c.04.34-.2.59-.53.58-.04-.19,0-.4.15-.51.12-.09.3-.04.38-.07Z"/>
      <path class="cls-6" d="M205.07,179.33c0,.1.03.27-.02.35-.1.16-.36.19-.55.14.08-.1.06-.37.24-.45.1-.05.23-.06.34-.03Z"/>
      <path class="cls-6" d="M200.44,185.18c.01.12.01.26-.04.41-.05.14-.26.24-.45.21,0-.19,0-.37.15-.51.09-.08.28-.08.35-.11Z"/>
      <path class="cls-6" d="M197.13,189.38c.01.11-.01.28-.08.35-.13.15-.36.18-.55.14.07-.17.07-.37.24-.45.12-.06.29-.07.39-.04Z"/>
      <path class="cls-6" d="M196.31,190.36c-.04.1,0,.25-.05.38-.06.15-.25.25-.44.23-.03-.18-.02-.41.13-.55.07-.07.27-.08.36-.06Z"/>
      <path class="cls-2" d="M155.09,108.9c-.64-.12-1.08.74-1.53,1.28l-1.32,1.58c-.94-.13-1.56.34-1.84,1.23l-2.17-.34c-1.17-.18-1.72-1.37-2.67-1.69l-3.71-1.23c-.46-.15-1.24.1-1.63-.44-.42-.58-.87-1.25-1.64-1.5-.98.21-1.83-.05-2.38-.95-1.75.08-2.84-1.21-4.24-1.86l-2.1-.97c-2.2-1.02-4.35-1.5-6.8-3.3-.57-.42-1.18-.59-1.27-1.26-.11-.77.18-1.21.67-1.8s1.1-.39,1.82-.58c2.29-.62,2.54-2.89,3.82-3.62.72-.41,1.3-1,1.21-1.83-.08-.73.13-1.28.79-1.86l.46-1.27c.21-.58.72-.81.78-1.38.03-.25.15-.53-.14-.61-.52-.14-.61.21-.86.45l-2.4,2.29c-.38.37-1.3.66-1.45,1.27-.32,1.3-1.09,1.98-2.37,2.41-.48.16-.9.91-1.69.89-.27,2.81-3.15,2.59-2.99,4.5-.11.1-.3.16-.45.21-2.46-.09-4.5-1.56-6.04-3.47-.6-.75-.68-1.24-.95-2.17-.36-1.2-.91-2.22,0-3.52l.34-1.55c1.49-1.04,2.14-2.84,3.08-3.94,1.07-1.25,1.24-2.74,2.04-3.61.54-.58.63-1.31,1.03-1.83.77-1.02,1.43-1.72,2.08-2.88l.92-1.64,1.64-2.13c.93-1.22,1.3-2.88,2.25-3.46.71-.43.77-1.14,1.11-1.81.54-1.04,1.4-2.05,2.16-2.91.61-.68.59-1.03.81-1.95l1.86-2.58c.73-1.72,3.22-3.41,3.86-5.14.43-1.16.84-2.08,1.89-2.87,1.26-.94,1.18-2.48,2.35-3.25.7-.46.86-1.06,1.16-1.77.48-1.15,2.32-1.87,3.01-4.22.39-1.31,1.94-2.03,2.65-3.21.37-.62.21-1.61,1.03-2.04.86-.46,1.71-3.38,4.58-6.47.48-.52.49-1,.8-1.62s1.45-1.15,1.6-1.9c.25-1.34.8-2.1,1.9-2.83l1.04-1.25c.21-.25.27-.59.24-.79-.03-.29.15-.51.43-.54.22-.02.49-.15.66-.4.98-1.48,2.48-2.33,3.73-3.5.89-.84,1.62-1.63,2.71-2.28,1.36-.8,2.32-2.31,3.76-2.89.02.92-.21,1.73-1.08,2.34-.08.66,0,1.68-.3,2.18-.91.46-.73,1.08-1.03,1.93-.18.49-1.13.93-.9,1.78-.91.52-1,1.42-.92,2.39-.88.42-1.19,1.09-.98,2.09-1.04.15-.88,1.27-1.22,1.65-.83.96-1.85,2.88-1.92,4.1l-1.03,1.31c-.78.5-.6,1.79-.94,2.32-1.23,1.95-2.32,3.7-3.12,5.73-.25.63-1.53,1.29-1.64,1.88-.14.81-.7,1.35-.94,1.92-.85,2.08-1.62,3.67-3.16,5.44-.12.4-.07,1.04-.77,1.43l-.56,1.82c-1.5,1.41.02,2.78-1.78,3.02.27.8-.67,1.32-.82,1.79-.21.67-.9,1.17-.99,1.61-.19.91-.54,1.33-.96,2.03-.62,1.04-1.33,2.78-2.09,4.37l-.99,2.08c-.21.45-.29,1.16-1.1,1.26l-.35,1.61c-.54.56-1.04,1.22-.77,2.02.33.95-.62,1.15-.78,1.53-.31.76-.42,1.37-.93,2.05-.41.54-.4,1.46-1.34,1.8-.05.79.3,1.92-.17,2.55-1.22,1.14-2.38,2.6-1.72,3.43.12.16.69.24.74.44s-.06.7-.27.86c-.82.64-1.05,1.56-1.59,2.31-1.56,2.17-3.48,6.55-4.24,9.21-.26.9-1.15,1.92-.2,2.69.43.85,1.28,1.21,2.41.98.27,1.04,1.07,1.25,2.01,1.04.95.93,2.08,1.15,3.35,1.07.57.82,1.44,1.12,2.37,1,.93-.21,1.28.23,1.86.82l2.16.33c.7.55,1.21,1.08,2.18.85.82-.19,1.17.29,1.71.72l2.52.46c1.77,1.41,2.67.07,3.59,1.64l2.35.22c.46.04.7.28.66.68Z"/>
      <path class="cls-3" d="M94.65,126.44c-.21-.21-.61-.34-.62-.74,0-.67-.05-1.34.48-1.85,1.09-1.05,2-2.15,3.53-2.66-.1-1.39,1.02-1.85,1.76-2.6.82-.83,1.52-1.53,2.37-2.32.35-.33.28-1.29,1.16-1.47.98-.19.6-2.15,1.83-2.13,1.14.02,1.93-2.32,2.22-2.61l2.76-2.75c.52-.99,1.11-1.37,1.81-2.09l1.35-1.39c.45-.47,1.49-.7,1.81-1.44.41-.95,1.14-1.35,1.88-2.02.39-.35.51-.96,1.24-1.07.4-.06.76-.43.77-.79.14-.05.33-.11.45-.21.19-.17.75-.42,1.06-.21.09,1.13.02,2.6-.78,3.55l-2.31,1.6c-1.05.73-1.86,2.08-2.64,3.15-.56.76-.86.66-1.66,1.05-.76.36-1.7,1.34-2.2,2.06l-.86,1.22c-.55.78-.95,1.58-2.15,1.49-.51,1.75-2.06,2.55-3.34,3.58-2.49,1.99-2.53,6.27-6.82,6.32-.04.81-.71,1.37-.86,2.03-.29,1.28-.79,2.48-2.22,2.28Z"/>
      <path class="cls-4" d="M157.14,49.81c.06.87-.15,1.79-1.08,2.31.25,1.11-.07,1.99-.91,2.65,0,1.14-.79,2.04-.98,3.07-.16.88-.19,1.59-1.14,2.05l.03,2.3c-1.06.23-.89,1.38-1.21,1.88-.56.85-.84,1.15-1.1,2.18-.12.49-.66,1.27-.84,1.86l-1.29,4.2c-.16.52-1.2,1.06-.71,1.99l-.85,1.05c.26.89-.7,1.54-.85,2.11-.27,1-.31,2.04-.97,3.02-.36.54-.34,1.32-1,1.85-.47.38-.16,1.52-.29,1.99-.53.8-.87,1.59-1.15,2.51-.51,1.68-1.67,3.25-1.91,5.01-.11.84,1.14.8,1.46,1.12.81.8,1.94,1.41,2.78,2.12.78.66,1.37.98,2.39,1,.47.33,1.04,1.28,1.64,1.37.13.43-.07.55-.36.47-.2-.06-.29-.22-.49-.35l-3.72-2.22-1.74-.8c-.76-2.09-3.19-1.09-2.64-2.9l.71-2.35c.22-.72.59-1.29.95-1.91.88-1.5,1.35-4.28,2.85-7.22.47-.92.5-1.58.88-2.53l2.17-5.49c.3-.76,1.05-1.18.89-2.25-.22-1.49,1.74-4.56,2.68-6.51l1.01-2.09c.24-.5.13-1.28.18-1.84,1.06-.71.78-1.8,1.23-2.78l1.74-3.8c.34-.74.4-1.6.97-2.19l.18-.72c.04-.14.26-.22.47-.14Z"/>
      <path class="cls-4" d="M186.62,176.08c-.07.15-.18.29-.3.4-.1-.01-.16,0-.24.02-.37-.55-.61-2.02-.14-2.68,1.01-1.4,1.66-2.76,2.5-4.22.31-.54,1.24-.82,1.43-1.69.56-2.56,2.59-4.36,3.44-7.03.29-.9.42-1.61.99-2.48.51-.79,1.42-1.8,1.44-2.81.03-1.59,1.67-3.99,1.91-5.24.27-1.42,1.01-1.89,1.58-2.88s.02-2.78,1.06-3.7c-.32-.88-.04-1.51.67-1.93-.18-1.41.43-2.54.68-3.82l.57-2.82c.21-1.04.04-2.09.92-2.62.02.93.15,2.33-.28,3.26-.47,1.03-.49,1.82-.77,2.96l-1.23,4.93c-.35,1.39-1.21,2.67-.67,4.29-1.43.65-1.73,1.86-2.19,3.08l-.91,2.43c-.44,1.16-.94,1.93-.94,3.28-.16.55-.83,1.52-1.21,1.96-.63.73-.64,1.28-.87,2.13-.47,1.77-1.7,3.19-2.63,4.78-.64,1.09-.8,2.7-1.76,3.56-.9.81-1.16,1.76-1.76,2.71-.82,1.28-1.86,2.63-1.27,4.14Z"/>
      <path class="cls-4" d="M203.11,131.51c-.01-.63.1-1.26.12-2.02l.09-3.3.43-1.11.14-5.85c.03-1.4.03-2.51-.03-3.92l-.18-4.48c-.02-.42-.21-.85-.42-1.16l.07-2.87c0-.44-.25-.7-.57-.76l-.06-3.37c-.01-.8-.91-1.48-.72-2.31,1.99,1.58.95,4.25,1.6,6.13.35,1.02.38,1.83.5,2.88.19,1.55.65,3.05.32,4.65-.23,1.14.39,2.3.3,3.34-.13,1.43-.47,2.63-.44,4.16l.08,3.82c.03,1.32-.43,2.47-.32,3.93.05.75-.66,1.59-.9,2.21Z"/>
      <path class="cls-4" d="M201.72,98.3c-.67-.85-.87-1.93-.38-3.11-.9-1.16-1.07-2.43-.85-3.83-1.14-1.3-1.86-2.78-2.45-4.37.11-1.35.23-2.98-.54-4.06l-.94-2.15c-.29-.66-2.09-2.49-1.81-3.37.07-.22-.51-.53-.75-.62-2.02-3.56-4.47-7.64-7.25-10.71-.55-.61-.82-1.42-1.36-1.98l-3.04-3.16c-.42-.44-.88-.75-.96-1.35l3.31,2.92,5.42,6.84,2.9,4.37.91,1.65c.31.57.82,1.12,1.11,1.66l.82,1.55c.66,1.24,1.2,2.29,1.93,3.55,1.51,2.6.39,6.38,3.52,9.08-.71,1.63.15,2.69.58,4.1.19.63-.45,1.87.28,2.53.07.07.02.47-.07.49s-.32-.02-.39-.03Z"/>
      <path class="cls-4" d="M173.89,52.01c-1.65-.05-3.16-1.72-5.16-3.19l-2.4-1.76c-.64-1.03-1.7-1.44-2.95-1.42-.84-1.02-1.79-1.84-3.15-1.97-.32.3-.64.65-1.02.7.01-.41.47-1.08,1.02-1.01l2.3.27c.5,1.28,1.86,1.18,2.78,1.9l3.45,2.67c.51.39.89.6,1.38.98l3.75,2.83Z"/>
      <path class="cls-4" d="M155.25,101.8c-.51.31-.75-.24-1.1-.43-1.59-.88-3.23-1.67-2.39-2.23.46,1.56,3.23,1.31,3.5,2.66Z"/>
      <path class="cls-4" d="M158.7,46.44c-.07-.64-.17-1.5.51-1.79-.02.6-.04,1.4-.51,1.79Z"/>
      <path class="cls-4" d="M88.6,188.9l-.03.46-.59-.02c.07-.11.09-.36.26-.43.11-.05.24-.04.35-.01Z"/>
      <path class="cls-1" d="M82.56,127.65l-3.84-.64c-.93-.53-1.59-.78-2.73-.97-.73-.12-1.47-.89-2.32-.92-.45-.01-.61-.55-.53-.86,1.03.25,2.07.55,3.12,1.13.94-.23,1.82-.1,2.36.75,1.04-.12,1.93.23,2.72.83.69-.05.91.37,1.22.67Z"/>
      <path class="cls-1" d="M86.84,129c-.59.38-2.12.27-2.38.13-.2-.11-.28-.45-.22-.73l1.76-.02c.57,0,.61.49.84.62Z"/>
      <path class="cls-2" d="M168.98,11.9c.09-.25.29-.45.55-.55-.02.09,0,.27-.08.36-.1.14-.3.2-.47.19Z"/>
      <path class="cls-2" d="M185.22,39.34l-.02.61-.81.3-3.33-4.59c1.52.71,2.9,1.81,4.1,3.11.07.18.06.51.07.58Z"/>
      <path class="cls-2" d="M180.63,35.08c-.08.04-.27.04-.38,0-.08-.03-.15-.15-.15-.27.24-.03.39.22.53.27Z"/>
      <path class="cls-4" d="M105.69,195.95l1.41-1.25c.76-.67,1.12-2.23,2.05-2.76,1.78-1.01,2.82-2.43,4.25-3.83l4.55-4.46c.77-.75,1.8-1.29,2.4-2.24,1.19-1.88,2.76-3.21,4.65-4.41l1.87-2.22c1.62-1.09,2.96-2.27,4.07-3.95l1.3-.96c.29-1.54,2.13-1.8,4.01-3.98.64-.74.79-1.43,1.88-1.82.61-.22,1.14-1.18,1.7-1.56,1.28-.88,2.16-1.92,3.14-3.1.31-.37,1.01-.52,1.17-1.15.21-.88.91-1.12,1.77-1.32.38-.17,1.04-.86,1.29-1.22.9-1.32,2.15-1.97,3.2-2.98l4.49-4.32c1.05-.51,1.79-1.34,2.14-2.53,1.44-.53,2.28-1.65,3.11-2.84.63-.15,1.51-.15,1.75-1.12s1.7-1.29,2.34-1.9l2.39-2.29c1.23-.78,1.81-1.98,2.64-3.09l3.25-2.35,1.87-1.94c.76-.79,1.03-1.19,1.89-1.87.63-.5,1.31-1.55,2.22-1.82.27-.32.39-1.28.89-1.44,1.85-.57,3.43-1.98,3.75-4.01.19-1.17-.51-2.12-.98-3.05,1.19-.05,2.01,1.54,1.83,2.87-.29,2.16-1.7,3.82-3.68,4.56-.64.24-.92.95-1.3,1.3l-2.39,2.19c-.77.71-1.05,1.01-1.75,1.74l-2.25,2.33c-.83.86-2.58,1-3.78,3.24-.82,1.51-2.76,1.98-4.21,4.3l-2.26,1.73c-.35.83-1.01,1.02-1.87,1.07-.45,1.52-2.03,2.38-3.01,3.36-.7.69-1.13,1.32-1.92,2.01l-3.42,2.97-2.25,2.17-3.69,3.5c-.2.19-1,.18-1.1.42-.34.89-.79,1.66-1.8,1.83-.59,1.57-1.97,2.35-3.16,3.3-.69.55-1.1,1.45-2,1.87-.68.32-1.03,1.08-1.53,1.54l-2.12,1.97c-.71.66-1.31.72-1.72,1.78-.17.44-1.16.77-1.49,1.23-1.08,1.5-2.38,2.6-3.85,3.67l-2.11,2.47c-1.51,1.01-2.98,2-3.92,3.59-.71,1.21-1.8,1.98-2.81,2.88l-3.52,3.16c-1.74,1.96-3.3,3.93-5.69,5.15l-1.53,2.29c-.56.83-1.19,1.49-2.16,1.27Z"/>
      <path class="cls-4" d="M105.49,196.2c-.56,1.39-2.18,2.11-3.24,3.2-.75.76-1.21,1.41-2.12,2.11-.49.38-.52,1.66-1.72,1.67l1.27,1.23c-.55.37-1.8-.67-1.63-1.33.99-.39,1.12-1.49,1.64-2.06.7-.78,1.43-1,1.97-2.03.16-.31,2.63-2.31,3.84-2.79Z"/>
      <path class="cls-5" d="M203.25,109.68c-.31-.44-.15-.94-.23-1.58l-.27-2.05c.32.06.57.32.57.76l-.07,2.87Z"/>
      <path class="cls-3" d="M130.44,132.57l4.35-4.69,1.99-1.96c.65-.64,1.28-1.05,1.82-1.86l1.62-1.37c.38-.82,1.04-1.22,1.5-1.86.82-1.13,1.75-1.67,2.94-2.28,1-.51,1.72-1.59,2.57-2.34.22-.2.27-1.11.55-1.19,1.61-.34,2.54-1.52,3.07-.73.65.97-1.58,2.4-2.78,3.55l-3.44,3.29-7.48,7.17-4.37,4.17-2.89,2.53c-.26.22-.41.42-.71.46-.4.05-.57-.04-.62-.39-.12-.86,1.24-1.79,1.89-2.5Z"/>
      <path class="cls-3" d="M131.35,87.11c-.06.57-.57.8-.78,1.38l-.46,1.27c-.66.58-.87,1.13-.79,1.86-.34.07-.63.65-.94.82-1.39.76-1.99,1.9-2.94,3.06-.8.99-2.55,1.44-3.72,1.17,1.13-1.43.77-2.51,2.03-2.85,1.67-.45,2.54-1.51,3.32-2.92l1.92-1.67c.83-.72,1.41-1.65,2.36-2.11Z"/>
      <path class="cls-3" d="M80.53,204.97l.07-.93c.27.07.75.03.86-.25.13-.31.12-.68.15-1,0-.09,0-.21-.05-.34.8.26.8-.56,1.14-.92l3.82-4.01,13.02-13.37,3.5-3.67c1.31,1.63-1.85,2.34-2.41,3.82-.44,1.17-1.54,1.69-2.2,2.46-.47,1.13-.73,2.36-2.15,2.89-.84.31-1.23,1.54-1.87,2.14-1.52,1.43-2.58,3.08-3.92,4.6l-1.58,1.79-2.87,2.77-5.62,5.61c-.43.44-.82-.16-.44-.38.72-.27.52-.77.56-1.22Z"/>
      <polygon class="cls-3" points="79.71 206.91 79.71 207.08 79.71 207.25 79.71 207.42 79.7 207.25 79.7 207.08 79.71 206.91"/>
      <path class="cls-1" d="M81.61,202.8c-.03.32-.03.69-.15,1-.11.28-.59.32-.86.25l.03-.46c.05-.51.49-.81.98-.79Z"/>
    </g>
    <g>
      <path class="cls-5" d="M33.72,106.29c0,.24-.13.63-.28.78-1.09-.03-.02,2.71-.97,4.44-.6,1.1-.58,1.86.03,3.01.67,1.27-1.19,2.74-.06,6.47.9,2.98.09,5.75.88,8.45.36,1.21.35,2.34.62,3.53.43,1.84.98,3.58.92,5.51-.03,1.01.42,1.86.81,2.75l.37,2.99c.63,1.31.71,2.52,1.08,3.82l.99,1.86-.05,1.03c-.48.34.97.99.78,2.05-.22,1.19.54,1.9.78,2.79.27,1,.52,1.54,1,2.42.44.8.33,2.06,1.27,2.72-.25.98.13,1.65.88,2.15-.04,1.02.31,1.93.95,2.63.75.83.93,1.78,1.39,2.74.37.75.8,1.24,1.01,2.17.29,1.28,2.02,2.86,2.01,4.85-.69.1-.83-.54-1.1-.98l-1.17-1.89c-.64-1.04-1.31-1.79-1.9-2.83l-.94-1.66c-.23-.41-.66-1.19-.97-1.49-1.11-1.07-1.51-2.95-2.01-3.74s-.72-1.28-1-2.24c-.18-.61-.8-1.42-1.15-2.04l-.94-1.64c-1.52-2.64-1.54-4.59-2.07-5.38-.49-.72-.97-1.1-.65-2.19l-.94-1.15c-.17-1.63-.69-3.02-1.06-4.57-.23-.98-.13-1.77-.74-2.69l-.54-3.29c-.68-1.26-.84-2.21-.5-3.67.27-1.15-.78-2.4-1.05-3.48l-.16-3.82.3-1.06-1.34-3.02c1.01-1.33.58-2.63.17-4-.57-1.93.38-4.19-.15-5.86.7-1.08.6-1.95.33-3.2.63-1.19.79-3.08.13-4.39-.88.61-2.07.09-3.01.39l-6.22,1.95c-1.14.36-2.14.23-3.18,1.02l-1.59.41c-.12,1.18-.21,2.34.14,3.33l.25.72c.23.65-.17,1.4-.19,1.99-.63.02-.69.46-.87,1.04-.19.63-.78,1.26-.45,1.96l.94.54c.42.67-.22,1.44-.26,2.04-.1,1.36.66,2.7.34,4.04-.18.77.03,1.38,0,2.06-.09,1.79.38,3.28.63,4.94.11.74-.05,1.35.25,2.21.35.98-.04,3.11.93,7.04l1.48,5.98c.35,1.4.02,2.73.99,4.05.8,1.08,1.25,2.46,1.14,3.89.77.88.79,2.03,1.21,2.99l.8,1.83.91,2.66c.65,1.89,1.69,3.51,2.33,5.42l1.32,2.78c.34.71.75,1.36,1.46,1.39l-.04.31c-.09.67.36,1.08.64,1.61l2.2,4.08,1.63,2.24c.74,1.01,1.38,2.25,2.58,2.6-.04.09-.01.29-.14.43.72.91,1.46,1.81,1.84,2.98.26.81,1.45.76,1.83,1.18.76.85,1,1.94,2,2.47,1.29.68,2.24,1.92,3.1,3.07s1.84.74,3.2,3.26c.62,1.15,1.74,1.67,2.73,2.42l2.64,2.01c.75.57,1.35.96,1.78,1.87.28.58,1.36.28,1.73.54l2.76,1.92c.35.25.9.41,1.27.28.28-.09.72-.49.85-.86.49-1.34,1.58-2.01,2.32-3.13.59-.89.79-2.16,1.91-2.73.29-.14.28-1.07.45-1.33l1.17-1.93c.42-.7.93-1.09.97-1.91l1.5-.4c1.62.28,2.63,2.31,1.86,3.79l-.86,1.67c-1.08.99-1.76,1.89-2.21,3.29l-1.54,1.72-.76,1.57c-.58,1.21-1.36,1.82-2.09,2.88-.61.88-.72,2.52-1.92,2.97l-1.73.65-2.51-2.43c-.75-.73-2.37-.87-3.06-1.74-1.04-1.32-3.8-2.41-4.33-2.98l-2.08-2.27c-.78-.85-1.92-1.31-2.63-2.27-.57-.77-1.49-.9-2.06-1.57l-2.61-3.03c-.83-.96-3.41-2.78-3.89-3.66-2.07-3.83-5.14-4.04-6.73-8.17-.52-1.34-1.69-2.14-2.44-3.23-.87-1.25-2.1-3.7-3.09-5.45l-1.48-2.62c-.23-.4-.56-.6-.95-.6.19-.96-.81-.73-1.29-2.57.13.05.27.18.51.23.06-1.12-.74-1.87-.94-2.92l-.14-.74c-.03-.15-.24-.27-.46-.18v-.27c1.21-.12-.35-.64-.67-2.2-.29-1.39-1.13-2.4-1.78-3.63l-.3-2.49c-.49-.68-.59-1.31-.94-1.98s-.95-1.1-.76-2.11-.15-1.99-.96-2.6l.11-1.33c-.8-.61-.5-1.73-.76-2.44-.41-1.16-.43-2.2-.77-3.37-.38-1.33-1.07-2.59-.79-4.1.16-.86-.51-1.58-.67-2.34-.9-4.25.07-7.33-.68-11-.12-.25-.64-.45-.67.17-.46-1.28-.58-2.41-.15-3.98.12-.44-.33-1.42.26-1.73v2.18c.03.09.11.13.15.13l.15-1.48c.08-.86.27-1.57-.11-2.46.27-.35-.29-.73-.5-.23-.48-1.57-.25-5.62.23-7.47.05.22-.05.5.2.82.49-1.15.69-2.39.57-3.65.11-.32.19-.9.27-1.23,1.27-1.01,2.76-1.12,4.25-1.57s2.67-.99,4.3-1.13c.47-.04,1.2-1.05,1.74-.88,1.21.4,1.93-.02,2.93-.58,2.42-1.33,4.66-.88,6.07-1.65,1.03-.56,2.12-.62,3.11.04.69.46,1.77,1.75,1.24,2.83-.46.93-.95,1.86-.91,2.88Z"/>
      <path class="cls-3" d="M129.55,29.23l-.8-.27c0-.38.32-.51.59-.79l3.48-3.46c-1.59-.66-2.74.28-3.7,1.44l-1.13,1.96-1.49.96c-.76.05-1.74.02-2.57.17-1.37.25-2.39.04-3.62-.02-.09-.41.25-.94.73-.93,2.77.08,3.25-2.23,5-3.91,1.22-.64,2.27-1.26,3.25-2.21,1.16-1.13,3.41-1.36,4.09-2.38l1.55-2.29,2.14-.65c.43-.13.28-1.15.18-1.61l-5.12-.04c-1.28-.01-2.56-.35-3.85-.18-.95.13-1.47-.33-2.22-.67-.94-.43-2.15-.04-3.21-.15-2.29-.25-4.63-.55-6.85.18-1.63.54-4.29,2.33-5.47,3.44-.92.86-1.24,1.65-2.59,1.99-1.94.49-3.28,3.04-5.86,4.09l-1.37,1.09c-.03,1.15-.61,1.3-1.48,1.57-3.1.96-3.74,3.93-5.24,4.74-1.04.56-2.25.95-3.06,1.81-.23-.02-.5.03-.64.17-.29-.15-.58-.09-1.01-.36.47-.2.77-1.05,1.18-1.3.98-.57,1.61-1.21,2.44-1.99,2.09-1.95,5.44-4.81,6.84-6.49.67-.8,1.09-.83,1.9-1.31,1.37-.82,2.45-2.41,3.67-3.63.91-.9,2.47-1.24,3.03-2.83-.8-.19-1.94-.07-2.62.25-1.33.61-2.44.36-3.8.18-1.81-.24-3.55.78-5.13,1.4l-2.45.96c-.78.31-2.31.24-3.13.09-1.58-.3-2.45.11-3.76.78-1.62.83-3.86.94-5.41,2.04-1.95,1.38-4.46,2.22-6.87,2.5-.46.05-1.64,1.19-3.56,2.06l-2.5,1.14-2.59,1.76c-1.91,1.3-3.48.54-4.18,1.69-.59.98-1.67.89-2.38,1.54l-3.87,3.57c-1.37,1.26-3.16,1.19-3.79,2.42-.74,1.45-2.14,2.01-3.41,2.86-2.31,1.55-4.29,3.73-6.19,5.82l-2.57,2.84c-1.63,2.53-3.66,4.56-5.58,6.85-.53.63-.73,1.56-1.38,2.18-.84.81-1.13,1.91-1.55,2.89-.57.51-1.42,1.26-2.04,1.72-2.33,1.75-2.22,3.49-2.8,4.51-.67,1.17-1.76,3.33-2,4.27l-1.6,2.64c-.41.68-.39,1.13-.89,1.78-.38.49-1.1,1.43-1.16,2.05-.24,2.28-1.54,3.8-1.98,5.26-.31,1.02-.25,1.65-.93,2.57-.49.67-.74,2.42-.39,3.15.31.64.86-.24,1.05-.53l2.11-3.08,4.73-3.47c-.15-1.26,1.72-2.24,2.37-1.58,1.31,1.32-2.71,2.95-3.74,5.38-.64,1.51-1.96,2.69-3.42,3.56-1.78,1.05-2.77,2.9-4.13,4.38-.45.49-1.11.79-.92,1.67.17.83-.49,1.5-.58,2.23l-.71,6c-.53-.11-.65,1.06-1.78.88l.76-2.2c-.04-1.66.24-3.27.88-4.82-.4-1.63.06-3.04,1.23-4.2-.36-1.39.35-2.42.65-3.65s-.2-2.86.64-4.03c.64-.89.66-1.76.84-2.86l1.6-3.14c.34-1.72,1.12-2.99,2.16-4.35l1.76-3.39c1.14-2.19,1.82-4.54,3.16-6.68-.12-1.5.71-2.61,2.18-2.94l1.73-1.52c.61-2.12,2.32-3.55,3.11-4.69l1.69-2.47c1.6-1.55,2.67-3.31,3.9-5.16,1-1.49,2.61-2.63,3.37-4.29.51-1.12.96-1.92,2.25-2.25,1.02-.26,1.84-1.25,2.64-1.9l3.13-2.58c.69-.56.94-1.79,1.86-2l1.9-.42c1.67-.88,2.79-2.42,3.79-3.93.6-.91,1.75-.68,2.62-1.11.65-.32,1.1-1.92,2.11-1.86,1.39.09,2.39-.06,3.41-1.05,2.51-2.44,4.71-1.84,6.16-3.09,2.3-1.98,4.7-2.02,7.3-2.98,2.47-2.19,5.6-2.25,7.73-3.38.96-.51,1.51-1.13,2.8-.87,1.64.33,3.61.57,5.21-.16,3.08-1.4,4.33-2.77,8.22-1.96,1.28-.08,2.79-.87,4.26-.82.95.03,2.14-.83,3.07-.6,1.26.31,2.18.11,3.41,0s2.37-.07,3.62-.26c2.68-.4,4.54.71,7.19-.19.88-.3,1.69.97,2.31,1.08l3.89.3,4.48.2c1.19.36,2.26.67,3.46.96l2.11,1.01c0,1.09-.68,1.72-1.4,2.43l-10.48,10.47Z"/>
      <path class="cls-5" d="M77.78,44.64l-1.3.17c-.24.03-3.03,1.57-3.91,2.37-.45.41-1.37.37-1.96.6-1.39,1.62-2.95,2.83-4.99,3.54-.9,1.11-1.96,2.02-3.25,2.62-.15.87-.7,1.34-1.29,1.83-1.34,1.11-2.32,2.52-3.54,3.67s-2.43,1.74-3.24,3.28c-.19.36-.98.69-.76,1.25-.07,0-.17-.04-.3-.08-.7.27-1.79,1.21-2.78.78-1.08-.47-.8-2.25.02-2.98.5-.46,1.45-1.1,1.57-1.64.19-.89.68-1.09,1.03-1.69,1.41-2.41,3.09-4.52,5.62-5.9.89-.49,1.71-1.45,2.54-2.16l2.83-2.41c.23-.2,1.1-.1,1.22-.46.47-1.42,1.63-1.43,2.67-1.87l2.6-2.23c.49-.42,1.17-.69,1.84-.72.19-.13.26-.65.34-.83.12-.26.73-.13.91-.24l3.24-1.88,1.94-.88c1.85-.58,3.48-1.22,5.19-2.09.57-.29,1.26-.19,1.72-.91.27-.43,1.95.21,1.85-.63.13.07.41-.03.53-.02.05.04.12.16.19.18.44.1,1.5-2.05,5.52-1.66.99.1,1.39-.41,2.08-.8l3.89-.51c.75-.1.96-.83,2.01-.75,1.22.1,2.97.22,4.11-.36,1.03-.52,1.79-.93,2.95-.11.71.33,1.53.48,1.97-.44h8.68c.94-.48,1.91,0,2.85-.04,2.86-.14,5.92-.61,7.79-.31,1.48.24,3.45-.44,4.83.46.91.59.31,2.21-.28,2.79-.85.83-1.7.94-3.02.68-.76-.15-2.05.27-2.75-.21-.81-.55-.94-.26-1.74-.1-3.3.68-6.74-.52-6.95-.3-1.09,1.14-2.2-.07-2.96.04-1.8.27-3.1.82-5.02.73-1.35-.07-3.06.38-4.41-.04-.54.53-1.18.92-1.96.8-1.56-.24-2.97.26-4.38.67-1.27.37-2.48.32-3.71.53-1.5.25-4.63,1.02-4.94,1.19-1.77.98-4.04,1.05-5.5,1.98-.85.54-1.44,1.08-2.58.94-2.99.4-3.4,2.51-4.95,2.63-.98.08-1.83.63-2.04,1.53Z"/>
      <path class="cls-4" d="M128.75,28.96l.8.27c.43.97,2.93-.43,4.71.43.49.24,1.05.88,1.67.92.42,2.46-.55,4.07-2.96,4.61-.53.02-1.35-.75-2-.47-.71.3-1.3-.06-1.97-.06l-10.78-.1c-1.5-.01-2.98-.18-4.29.59-1.02-.56-1.99-.41-2.87.33-1.51-.44-3,.13-4.37.08-1.84-.06-3.12.39-4.79.97-.86.3-2.3.16-3.22.26-.87.09-1.09.5-1.72.72-1.33.45-3.04,0-4.3.9l-2.58.75c-.74.46-1.44.46-2.23.72-.4.13-1.03.78-1.4,1.05-.54.4-.97.15-1.45.27l-2.04.5-2.1,1.81c-1.17.26-2.3.4-3.08,1.12.21-.89,1.06-1.45,2.04-1.53,1.55-.12,1.97-2.23,4.95-2.63,1.14.14,1.72-.4,2.58-.94,1.46-.92,3.74-1,5.5-1.98.3-.17,3.43-.94,4.94-1.19,1.23-.21,2.44-.16,3.71-.53,1.42-.41,2.82-.91,4.38-.67.78.12,1.42-.27,1.96-.8,1.35.42,3.06-.03,4.41.04,1.92.1,3.22-.46,5.02-.73.76-.11,1.87,1.1,2.96-.04.21-.22,3.64.99,6.95.3.8-.17.92-.46,1.74.1.7.47,1.99.06,2.75.21,1.32.26,2.18.16,3.02-.68.59-.58,1.2-2.19.28-2.79-1.38-.9-3.35-.22-4.83-.46-1.87-.3-4.92.17-7.79.31-.95.04-1.92-.44-2.85.04h-8.68c-.44.93-1.26.78-1.97.45-1.15-.82-1.92-.41-2.95.11-1.14.58-2.89.46-4.11.36-1.04-.08-1.25.65-2.01.75l-3.89.51c-.69.4-1.09.9-2.08.8-4.02-.39-5.08,1.76-5.52,1.66-.07-.02-.14-.13-.19-.18.38-.97,1.54-1.13,2.21-1.86.13-.15.41-.19.64-.17,1.35.5,2.42-1,4.58-.83.68.05.96-.71,1.38-.88,1.33-.54,2.71-.05,4.07-.38.7-.17,1.36-.8,2.23-.55,2.15-.59,4.29-.39,6.55-.3,1.75-1.08,3.78-1.08,5.68-.76,1.7-.35,3.32-.24,4.85-.16,1.23.06,2.25.27,3.62.02.83-.15,1.82-.12,2.57-.17.65-.04,1.58.19,2.25-.12Z"/>
      <path class="cls-3" d="M48.99,64.72c.29.17.84.31.96.8-.63-.16-.91.73-1.24,1.06-1.96,1.92-4.76,7.07-5.66,9.87-.24.74-.91,1.19-1.38,1.72l-1.09,1.24c-.53,1.37-1.22,2.6-2.32,3.65.12,1.94-.88,3.4-1.6,4.99-.4.87-.29,1.57-1.08,2.37l-.51,2.52c-1.26,1.85-1.84,2.4-1.45,3.91.23.89-.45,1.93-.52,2.86-2.98-.67-3.8.73-5.6.75-.13-.64.66-.95.83-1.3.41-.87.5-1.56,1.33-2.09.64-.41,1.84-2.01,2.15-3.02,1.9-1.03,2.63-3.01,3.38-4.86.37-.93.82-1.56,1.03-2.7.13-.7.82-1.38.71-2.32-.26-2.1,2.3-3.48,2.77-5.1.31-1.07,1.29-1.69,1.77-2.7l1.81-3.81c1.56-2.44,2.92-4.84,4.83-7.06.26-.3.29-.84.87-.79Z"/>
      <path class="cls-4" d="M87.58,35.15c.1.85-1.58.2-1.85.63-.46.72-1.15.62-1.72.91-1.71.87-3.34,1.51-5.19,2.09l-1.94.88-3.24,1.88c-.19.11-.79-.03-.91.24-.08.18-.15.69-.34.83-.67.03-1.35.31-1.84.72l-2.6,2.23c-1.03.44-2.19.46-2.67,1.87-.12.35-.99.26-1.22.46l-2.83,2.41c-.83.71-1.65,1.67-2.54,2.16-2.53,1.38-4.22,3.49-5.62,5.9-.35.59-.83.8-1.03,1.69-.12.54-1.06,1.19-1.57,1.64-.81.74-1.09,2.51-.02,2.98.99.43,2.08-.51,2.78-.78.15.94-.75.92-1.49,1.11-.69.19-1.14.67-1.8.5-.12-.49-.66-.63-.96-.8-.28-.89-.44-2.21.05-3.17.36-.72,1.03-1.12,1.83-1.3l.22-1.8,1.8-.34c-.51-1.1.43-1.48.68-1.97.56-1.08,1.34-1.45,2.04-2.15l2.07-2.06c.7-.7,1.33-1.22,2.03-1.9l2.81-2.77c1.33,0,1.91-1.35,2.79-1.85l1.68-.94c.51-.29,1.03-.75,1.31-1.24.95.17,1.6-.15,1.97-.97.53-.13,1.29-.01,1.68-.72.45-.81,2.01-.97,2.64-1.57s1.09-.73,1.84-1.08l2.27-1.05c.94-.44,1.94-.47,2.79-.86,1.18-.55,1.94-1.31,3.48-1.49.76-.09,1.79-.76,2.61-.34Z"/>
      <path class="cls-4" d="M67.45,193.19l.03-.49.02-.37c.62-.06,1.79-.4,2.42-.01,2.26,1.41,2.08,4.33.62,6.28-.6.8-1.7,1.78-1.88,2.62-.25,1.18-.89,1.29-1.44,2.05-1.16,1.62-1.77,3.61-3.57,4.77-.11,1.48-1,2.64-2.09,3.51l-2.01.44c-1.33-.61-2-2.01-3.01-2.91-1.65-.09-2.63-1.5-3.61-2.03-1.02-.55-1.7-1.22-2.57-1.86-.57-.42-1.24-.52-1.72-1.16-1.67-2.23-3.2-2.93-5.07-4.96-1.92-.29-2.09-2.51-4.18-4-.82-.58-1.25-.79-1.87-1.64-.34-.48-1.25-.8-1.47-1.56s-1.03-1.11-1.41-1.64c-.73-1.01-1.33-1.85-2.4-2.57l-.56-.93c-.67-.48-1.34-.91-1.71-1.66-.93-1.86-2.06-3.5-3.45-5.05l-.99-1.61c-.43-.71-.61-1.44-1-2.1-.74-1.24-1.55-2.22-2.04-3.65-.15-.43-.76-.84-.65-1.37.39,0,.72.2.95.6l1.48,2.62c.99,1.74,2.22,4.2,3.09,5.45.76,1.09,1.93,1.89,2.44,3.23,1.59,4.12,4.66,4.33,6.73,8.17.47.88,3.05,2.69,3.89,3.66l2.61,3.03c.57.67,1.49.8,2.06,1.57.71.95,1.85,1.42,2.63,2.27l2.08,2.27c.52.57,3.28,1.66,4.33,2.98.68.87,2.31,1.01,3.06,1.74l2.51,2.43,1.73-.65c1.19-.45,1.3-2.09,1.92-2.97.74-1.06,1.51-1.68,2.09-2.88l.76-1.57,1.54-1.72c.45-1.4,1.13-2.3,2.21-3.29l.86-1.67c.76-1.48-.24-3.51-1.86-3.79l-1.5.4Z"/>
      <path class="cls-4" d="M33.43,107.06c-.39.46-.14.88.12,1.47.19.44-.25,1.19-.3,1.68l-.28,2.78c.28,1.93.21,3.53.01,5.48-.09.87.38,4.09.55,6.39.05.67.1,1.25-.37,1.84,1.83,2.38.65,5.16,1.18,6.06.75,1.27,1.13,2.46.9,3.98s.27,2.53.9,3.73c.43.81.03,2.04.1,2.97,1.14,1.11,1.11,2.55,1.07,4.04.79.62,1.31,1.67.8,2.42l-.99-1.86c-.37-1.3-.45-2.51-1.08-3.82l-.37-2.99c-.39-.89-.84-1.74-.81-2.75.06-1.93-.49-3.67-.92-5.51-.28-1.19-.27-2.32-.62-3.53-.8-2.71.02-5.48-.88-8.45-1.13-3.73.73-5.2.06-6.47-.61-1.14-.63-1.91-.03-3.01.95-1.74-.13-4.47.97-4.44Z"/>
      <path class="cls-4" d="M19.53,164.85c-.99-.59-1.46-1.55-1.63-2.79l-1.31-2.72c-.48-4.23-2.27-5-1.95-6.9.28-1.61-1.68-1.9-1.02-3.58-.95-.83-.93-1.9-.97-3.06-.07-2.43-1.63-4.67-1.39-7.55l-.69-2.31c0-1.47-.33-2.68-.6-4.13l.52-2.23c-.55-1.53-.29-3.34-.58-4.15.03-.62.55-.42.67-.17.75,3.67-.23,6.75.68,11,.16.75.83,1.47.67,2.34-.29,1.5.4,2.77.79,4.1.34,1.16.36,2.21.77,3.37.25.71-.05,1.83.76,2.44l-.11,1.33c.81.62,1.15,1.63.96,2.6s.4,1.42.76,2.11.45,1.3.94,1.98l.3,2.49c.65,1.23,1.49,2.24,1.78,3.63.33,1.56,1.88,2.08.66,2.2Z"/>
      <path class="cls-1" d="M50.44,176.21c.21.25.48.42.79.51l.26.52c-.25.58.52.7,1.52,1.85l1.66,1.91,2.01,1.89c.48.45,1.02.97,1.5,1.3.23.45.59.81,1.03,1.04.04.08.18.22.26.26.15.35.42.63.77.77.04.08.15.22.23.26-.03.55.26.93.67,1.55-1.21.9-2.36,1.79-2.19,2.56-.29-.04-.59.16-.88.42l-2.57,2.28c-.74.65-1.26,1.07-1.93,1.71l-2.16,2.05c-.32.3-.47.94-1.08.81-.23-.05-.4-.3-.33-.58l5.32-4.89,4.79-4.69c-.94-1.53-2.26-2.19-3.3-3.33l-6.87-7.46c-.46-.5-.68-1.17-.53-1.79.47.19.71.67,1.03,1.03Z"/>
      <path class="cls-1" d="M63.34,189.15c.52.18.9.49,1.41.86l1.67,1.21c.43.31,1.1.55,1.08,1.12l-.02.37-.7.04-2.38-1.85-1.5-1.04c-.97-.67-1.63.22-2.21.67-.79.6-1.29,1.01-1.46,1.99-.41.33-1.08,1.02-1.54,1.19-.96.36-1.09.89-1.64,1.6-1.71,2.2-4.14,2.42-4.11,4.01-.42-.3-1.49-.35-1.51-1.13,1,.49,1.3-.42,1.93-.88,1.48-1.07,2.4-1.33,4.05-3.55.53-.71,2.97-1.13,2.54-3.1,1.38.25,1.52-2.46,4.38-1.49Z"/>
      <path class="cls-4" d="M33.11,99.73c.86.51,1.73,1.71,2.09,2.7.27.75-.41,1.3-.77,1.73-.59.71.28,2.29-.72,2.12-.04-1.01.45-1.94.91-2.88.53-1.07-.54-2.36-1.24-2.83-.99-.66-2.08-.6-3.11-.04-1.41.77-3.65.32-6.07,1.65-1,.55-1.72.97-2.93.58-.54-.18-1.27.84-1.74.88-1.63.13-2.85.7-4.3,1.13s-2.99.55-4.25,1.57c.22-.83,1.73-1.77,1.85-1.75,1.13.18,1.25-.98,1.78-.88,1.09.22,2.11-.03,2.92-.96l1.97-.08c.53-.81,1.65-1.2,2.55-.96,1.29.35,1.66-.49,2.52-.85.79-.33,2.19-.37,2.95-.38,1.8-.02,2.62-1.42,5.6-.75Z"/>
      <path class="cls-4" d="M76.48,44.82c.13.6-.41.76-.79,1.09-.63.55-1.05.98-2,.83-.58,1.19-1.81,1.65-3.07,1.84-.78,1.34-2.15,1.98-3.37,2.85-2.74,1.17-4.22,3.42-4.85,3.98l-1.21,1.06-2.97,3.21-2.62,2.49c-.51.89-.98,1.8-2.07,1.83-.21-.56.57-.89.76-1.25.81-1.54,2.07-2.18,3.24-3.28s2.21-2.56,3.54-3.67c.59-.49,1.14-.96,1.29-1.83,1.29-.61,2.35-1.52,3.25-2.62,2.03-.71,3.6-1.92,4.99-3.54.59-.23,1.51-.19,1.96-.6.89-.8,3.67-2.34,3.91-2.37Z"/>
      <path class="cls-4" d="M49.41,175.18c-.15-.07-.44-.05-.56.06-.15.14-.25.33-.31.68-.2-.11-.32-.28-.4-.48,0-2-1.72-3.57-2.01-4.85-.21-.93-.65-1.42-1.01-2.17-.47-.96-.64-1.91-1.39-2.74-.64-.71-.98-1.61-.95-2.63-.76-.49-1.13-1.17-.88-2.15-.94-.66-.83-1.92-1.27-2.72-.48-.88-.73-1.42-1-2.42-.24-.89-1-1.6-.78-2.79.19-1.06-1.27-1.7-.78-2.05.34.31,1.11.4,1.16.93l.21,2.14c.35.63.96,1.05.84,1.95-.11.76.51,1.26.72,1.82.34.9.26,1.86,1.22,2.5-.11,1.04.13,2,1.05,2.51-.19,1.66,1.52,3.27,1.77,4.05.29.91.41,1.48.94,2.21l1.2,1.64c.38.51.35,1.45,1.16,1.73-.15,1.65,1.31,1.76,1.07,2.78Z"/>
      <path class="cls-3" d="M58.96,190.64c.43,1.97-2.01,2.39-2.54,3.1-1.66,2.21-2.57,2.47-4.05,3.55-.63.46-.94,1.36-1.93.88,0-.08-.07-.18-.1-.25.62.13.77-.51,1.08-.81l2.16-2.05c.67-.63,1.19-1.05,1.93-1.71l2.57-2.28c.3-.26.59-.46.88-.42Z"/>
      <path class="cls-3" d="M63.34,189.15c-2.86-.97-3,1.74-4.38,1.49-.17-.77.99-1.66,2.19-2.56-.41-.63-.7-1.01-.67-1.55.61.21.83,1.01,1.42,1.44.53.39,1.31.52,1.44,1.19Z"/>
      <path class="cls-4" d="M20.56,168.73c-.35-1.36-1.65-2.32-1.02-3.61.22-.08.43.04.46.18l.14.74c.2,1.05,1,1.8.94,2.92-.25-.05-.39-.17-.51-.23Z"/>
      <path class="cls-4" d="M10.01,119.72c0-.7-.11-1.22-.31-1.86.21-.51.77-.12.5.23.38.9.19,1.6.11,2.46l-.15,1.48s-.13-.04-.17-.13v-2.18Z"/>
      <path class="cls-3" d="M53.01,179.09c-1-1.14-1.77-1.27-1.52-1.85.63.46,1.38,1,1.52,1.85Z"/>
      <path class="cls-3" d="M51.23,176.73c-.31-.09-.58-.27-.79-.51.38-.03.63.19.79.51Z"/>
      <path class="cls-3" d="M59.22,185.24c-.44-.23-.8-.59-1.03-1.04.42.28.8.6,1.03,1.04Z"/>
      <path class="cls-3" d="M60.25,186.27c-.35-.15-.62-.42-.77-.77.33.16.61.45.77.77Z"/>
      <path class="cls-2" d="M49.94,176.98l6.87,7.46c1.04,1.13,2.36,1.8,3.3,3.33l-4.79,4.69-5.32,4.89c-.92.33-1.36-.11-1.91-.7-.51-.55-.79-.67-.86-1.63-.04-.49-1.04-1.1-1.21-1.65-1.4.22-1.38-.61-1.89-1.36-.61-.9-1.71-2.05-2.6-2.59-.75-.45-1.11-.45-1.46-1.38-.17-.45-.83-1.09-1.19-1.53l-1.67-.64c.26-1.04-.1-1.38-.7-1.91-.5-.43-.81-1.11-1.62-.87.13-.14.1-.34.14-.43.1-.19.18-.42.13-.58-.08-.24-.29-.47-.51-.58-1.55-.73-1.98-2.64-2.62-3.12-.6-.45-.59-1.38-.97-1.81-.54-.61-.77-1.04-1.08-1.88-.14-.39-.96-.67-.87-1.47.07-.59-.63-1.17-1.13-1.07l.04-.31c.06-.46-.54-.66-.7-1.12l-.51-1.44c-.75-.61-.59-1.19-.84-1.93-.19-.59-1.08-1.12-.93-1.96.37-1.98-2.26-2.5-2.06-5.84-1.37-1.3-2.94-7.11-2.81-7.52.2-.7-.49-.91-.7-1.27-.75-1.28-.16-3-.68-4.28-.24-.61-.96-.98-.75-1.96.19-.83-.32-1.52-.72-2.2l-.39-2.74c-.49-.83-.67-1.45-.71-2.4l-.32-6.92c-.04-.89-1.2-1.56-.68-2.76.26-.6-.07-1.42-.07-2.08l-.07-7.5c.23-.49.88-.47,1.36-.76.5-.31,1.26-1.02,1.44-1.5.6-1.66,2.05-2.34,2.45-2.83,1.56-1.94,3.1-3.7,5.12-5.2.47-.35.86-.77.81-1.38.39.14,1.33-.3,1.7.21.26.35.39,1.14.07,1.62-.59.89-.22,1.71-.27,2.63-.2,3.85-.2,7.51.03,11.37.06.97-.52,2.09.12,2.98.22.3.89.49.79,1.02-.17.9-1.24,1.34-.9,1.73l.56.63c.61,1.11.13,2.54.36,3.71.49.25,1.08.56,1.02,1.15-.05.47-.16.89-.66,1.29l.57,1.15c.46.93-.24,2.42.22,3.3,1.57,1.63.05,2.9,1.63,5.14l.26,3.1c.63,1.14,1.23,1.99,1.2,3.46-.02,1.06,2.21,1.35,1.72,4.64,1.15.02.82,1.27,1.16,1.66.6.69.78,1.42,1.04,2.18.19.55,1.42,1,.71,2.17,1.17.19,1.3,1.11,1.1,2.02.95.25,1.28,1.03,1,1.94l.95.5.2.99c.4.4.78,1.27,1.14,1.57.64.55.75.99.9,1.79l1.14,1.27c.46.52.73.88.96,1.52.43,1.22,1.91,1.94,1.96,3.39l1.19,1.16c.49.47,1.61.01,1.78-.55Z"/>
      <path class="cls-6" d="M48.15,175.44c.07.2.2.36.4.48.06-.34.16-.54.31-.68.12-.12.42-.13.56-.06-.15.62.06,1.29.53,1.79-.16.56-1.29,1.03-1.78.55l-1.19-1.16c-.05-1.45-1.53-2.17-1.96-3.39-.23-.64-.5-1-.96-1.52l-1.14-1.27c-.16-.79-.26-1.24-.9-1.79-.36-.31-.74-1.17-1.14-1.57l-.2-.99-.95-.5c.28-.9-.05-1.68-1-1.94.19-.92.07-1.83-1.1-2.02.71-1.16-.52-1.62-.71-2.17-.26-.76-.44-1.49-1.04-2.18-.34-.39,0-1.64-1.16-1.66.49-3.29-1.74-3.59-1.72-4.64.03-1.47-.58-2.32-1.2-3.46l-.26-3.1c-1.58-2.24-.05-3.51-1.63-5.14-.46-.88.24-2.36-.22-3.3l-.57-1.15c.51-.4.61-.82.66-1.29.07-.59-.53-.89-1.02-1.15-.23-1.17.25-2.6-.36-3.71l-.56-.63c-.35-.39.73-.83.9-1.73.1-.53-.57-.72-.79-1.02-.65-.89-.07-2-.12-2.98-.23-3.85-.23-7.52-.03-11.37.05-.92-.32-1.74.27-2.63.32-.49.19-1.27-.07-1.62-.38-.51-1.31-.07-1.7-.21-.76-.28-1.2-.03-2.02.42-.95.52-2.52.38-3.15,1.5l-1.07-.08c-1.93-.14-2.67,1.23-4.76,1.19-.4,1.28.18,2.55-.43,3.01-.34-.99-.26-2.14-.14-3.33l1.59-.41c1.04-.78,2.04-.66,3.18-1.02l6.22-1.95c.93-.29,2.12.22,3.01-.39.66,1.31.5,3.2-.13,4.39.27,1.25.37,2.12-.33,3.2.53,1.66-.42,3.93.15,5.86.41,1.37.84,2.67-.17,4l1.34,3.02-.3,1.06.16,3.82c.28,1.08,1.33,2.33,1.05,3.48-.35,1.46-.19,2.41.5,3.67l.54,3.29c.6.92.5,1.72.74,2.69.37,1.55.89,2.94,1.06,4.57l.94,1.15c-.32,1.08.16,1.47.65,2.19.53.79.56,2.74,2.07,5.38l.94,1.64c.36.62.97,1.43,1.15,2.04.28.96.5,1.43,1,2.24s.9,2.67,2.01,3.74c.31.3.74,1.08.97,1.49l.94,1.66c.59,1.04,1.26,1.79,1.9,2.83l1.17,1.89c.27.44.41,1.08,1.1.98Z"/>
      <path class="cls-6" d="M14.9,114.97c-.02.97.11,1.93-.9,2.58.41.41.87.42,1.1.34l.07,7.5c0,.65.33,1.48.07,2.08-.52,1.2.64,1.87.68,2.76l.32,6.92c.04.96.22,1.57.71,2.4l.39,2.74c.4.68.91,1.37.72,2.2-.22.98.5,1.35.75,1.96.52,1.29-.07,3.01.68,4.28.21.35.9.57.7,1.27-.12.42,1.45,6.23,2.81,7.52-.21,3.34,2.42,3.86,2.06,5.84-.16.84.74,1.37.93,1.96.24.75.09,1.32.84,1.93l.51,1.44c.16.46.77.66.7,1.12-.71-.03-1.12-.69-1.46-1.39l-1.32-2.78c-.64-1.91-1.68-3.53-2.33-5.42l-.91-2.66-.8-1.83c-.42-.96-.45-2.1-1.21-2.99.1-1.43-.35-2.81-1.14-3.89-.97-1.32-.64-2.65-.99-4.05l-1.48-5.98c-.97-3.93-.59-6.06-.93-7.04-.3-.86-.13-1.47-.25-2.21-.25-1.66-.72-3.15-.63-4.94.04-.68-.17-1.29,0-2.06.31-1.34-.44-2.69-.34-4.04.04-.6.68-1.37.26-2.04l-.94-.54c-.33-.7.26-1.34.45-1.96.18-.58.24-1.02.87-1.04Z"/>
      <path class="cls-1" d="M26.28,106.22c.04.61-.34,1.03-.81,1.38-2.02,1.5-3.56,3.26-5.12,5.2-.39.49-1.84,1.16-2.45,2.83-.18.49-.94,1.2-1.44,1.5s-1.13.27-1.36.76c-.23.08-.69.08-1.1-.34,1-.65.88-1.61.9-2.58.01-.59.41-1.34.19-1.99.52-1.05,1.48-1.58,2.25-2.42.45-.49.74-1.37,2.77-2.18.57,1.05-1.01,1.6-1.7,1.95-.51.81-.84,1.58-1.66,2.27-1,.86-1.99,3.14-1,3.31,1.04.18,1.91-1.99,2.04-2.12l3.8-3.88c.54-.55,1.39-.77,1.31-1.86-.73.21-1.25.14-1.78.1.63-1.12,2.2-.98,3.15-1.5.82-.44,1.25-.69,2.02-.42Z"/>
      <path class="cls-6" d="M50,197.34c-.08.28.1.53.33.58.03.06.09.17.1.25.03.78,1.09.83,1.51,1.13.55.39,1,1.26,2.06,1.28.34.1.53,1.02.49,1.53.81.18,1.68.52,2.46.39.08.77.62,1.14,1.27,1.09.08.37.32.71.63.8.74.2,1-.08,1.34-.65l.96-1.62,1.59-1.75c.29-.31.15-.78-.03-1.15l1.39-1.3c.88-.82,1.1-2.14,1.61-3.11.37-.69,1.18-1.19,1.05-2.08l.7-.04-.03.49c-.05.82-.55,1.21-.97,1.91l-1.17,1.93c-.16.27-.16,1.19-.45,1.33-1.13.56-1.32,1.84-1.91,2.73-.74,1.12-1.84,1.79-2.32,3.13-.13.37-.57.77-.85.86-.38.13-.92-.04-1.27-.28l-2.76-1.92c-.37-.26-1.45.05-1.73-.54-.43-.91-1.03-1.31-1.78-1.87l-2.64-2.01c-.98-.75-2.1-1.27-2.73-2.42-1.36-2.52-2.36-2.12-3.2-3.26s-1.8-2.38-3.1-3.07c-1-.53-1.24-1.62-2-2.47-.38-.42-1.57-.37-1.83-1.18-.38-1.17-1.12-2.08-1.84-2.98.81-.23,1.12.44,1.62.87.6.53.96.87.7,1.91l1.67.64c.36.44,1.02,1.08,1.19,1.53.35.92.71.92,1.46,1.38.89.54,1.99,1.69,2.6,2.59.51.76.49,1.58,1.89,1.36.17.55,1.17,1.16,1.21,1.65.08.96.36,1.08.86,1.63.55.59.99,1.02,1.91.7Z"/>
      <path class="cls-6" d="M35.04,182.65c-1.19-.34-1.84-1.59-2.58-2.6l-1.63-2.24-2.2-4.08c-.28-.52-.73-.94-.64-1.61.5-.1,1.19.48,1.13,1.07-.09.81.72,1.08.87,1.47.3.85.53,1.27,1.08,1.88.38.43.37,1.35.97,1.81.64.48,1.07,2.4,2.62,3.12.22.1.44.34.51.58.05.16-.03.39-.13.58Z"/>
      <path class="cls-2" d="M20.03,108.06c-.02.12.03.26.08.31-2.03.81-2.33,1.7-2.77,2.18-.77.84-1.73,1.37-2.25,2.42l-.25-.72c.61-.46.03-1.73.43-3.01,2.09.04,2.83-1.33,4.76-1.19Z"/>
      <path class="cls-1" d="M90.32,33.27c-.68.73-1.84.89-2.21,1.86-.12,0-.4.08-.53.02-.81-.42-1.85.26-2.61.34-1.54.18-2.31.94-3.48,1.49-.84.4-1.85.43-2.79.86l-2.27,1.05c-.75.34-1.19.47-1.84,1.08s-2.2.76-2.64,1.57c-.39.7-1.15.58-1.68.72-.37.83-1.02,1.14-1.97.97-.28.49-.8.95-1.31,1.24l-1.68.94c-.88.49-1.46,1.85-2.79,1.85l-2.81,2.77c-.69.68-1.32,1.21-2.03,1.9l-2.07,2.06c-.7.7-1.48,1.07-2.04,2.15-.25.49-1.2.87-.68,1.97l-1.8.34-.22,1.8c-.8.18-1.47.58-1.83,1.3-.49.96-.33,2.28-.05,3.17-.57-.05-.61.49-.87.79-1.91,2.22-3.27,4.62-4.83,7.06l-1.81,3.81c-.48,1.02-1.46,1.63-1.77,2.7-.47,1.63-3.02,3.01-2.77,5.1.11.93-.58,1.62-.71,2.32-.21,1.13-.66,1.77-1.03,2.7-.74,1.86-1.47,3.84-3.38,4.86-.31,1.01-1.51,2.62-2.15,3.02-.83.53-.93,1.22-1.33,2.09-.16.35-.96.66-.83,1.3-.75,0-2.15.04-2.95.38-.86.36-1.23,1.2-2.52.85-.9-.24-2.01.14-2.55.96l-1.97.08c-.82.94-1.83,1.18-2.92.96l.71-6c.09-.73.76-1.4.58-2.23-.18-.88.48-1.19.92-1.67,1.36-1.49,2.35-3.34,4.13-4.38,1.47-.86,2.78-2.04,3.42-3.56,1.03-2.43,5.05-4.06,3.74-5.38-.66-.66-2.52.32-2.37,1.58l-4.73,3.47-2.11,3.08c-.2.29-.74,1.17-1.05.53-.36-.73-.1-2.48.39-3.15.68-.92.62-1.55.93-2.57.44-1.46,1.74-2.98,1.98-5.26.06-.62.78-1.56,1.16-2.05.5-.65.48-1.11.89-1.78l1.6-2.64c.24-.94,1.32-3.09,2-4.27.59-1.02.48-2.76,2.8-4.51.62-.47,1.47-1.21,2.04-1.72.42-.98.71-2.08,1.55-2.89.65-.62.85-1.55,1.38-2.18,1.93-2.29,3.95-4.33,5.58-6.85l2.57-2.84c1.89-2.09,3.87-4.28,6.19-5.82,1.27-.85,2.67-1.41,3.41-2.86.62-1.23,2.42-1.16,3.79-2.42l3.87-3.57c.71-.66,1.78-.57,2.38-1.54.7-1.16,2.27-.39,4.18-1.69l2.59-1.76,2.5-1.14c1.92-.88,3.1-2.01,3.56-2.06,2.41-.28,4.92-1.12,6.87-2.5,1.55-1.1,3.78-1.2,5.41-2.04,1.3-.67,2.18-1.08,3.76-.78.81.16,2.35.22,3.13-.09l2.45-.96c1.58-.62,3.32-1.64,5.13-1.4,1.36.18,2.48.42,3.8-.18.69-.31,1.83-.44,2.62-.25-.57,1.59-2.12,1.93-3.03,2.83-1.23,1.21-2.3,2.8-3.67,3.63-.81.48-1.22.51-1.9,1.31-1.4,1.67-4.75,4.53-6.84,6.49-.83.78-1.46,1.42-2.44,1.99-.42.24-.71,1.09-1.18,1.3.43.27.72.21,1.01.36Z"/>
      <path class="cls-1" d="M120.31,29.23c-1.53-.08-3.15-.18-4.85.16-1.9-.32-3.94-.32-5.68.76-2.26-.08-4.41-.28-6.55.3-.88-.25-1.54.39-2.23.55-1.36.33-2.74-.16-4.07.38-.43.17-.7.93-1.38.88-2.16-.17-3.22,1.33-4.58.83.81-.86,2.02-1.25,3.06-1.81,1.49-.8,2.13-3.78,5.24-4.74.87-.27,1.44-.41,1.48-1.57l1.37-1.09c2.58-1.05,3.92-3.61,5.86-4.09,1.36-.34,1.68-1.13,2.59-1.99,1.18-1.11,3.84-2.9,5.47-3.44,2.22-.73,4.56-.43,6.85-.18,1.05.12,2.27-.28,3.21.15.74.34,1.27.8,2.22.67,1.29-.17,2.57.17,3.85.18l5.12.04c.1.46.25,1.48-.18,1.61l-2.14.65-1.55,2.29c-.69,1.01-2.93,1.24-4.09,2.38-.98.95-2.03,1.57-3.25,2.21-1.75,1.68-2.23,3.99-5,3.91-.48-.01-.82.52-.73.93Z"/>
      <path class="cls-1" d="M128.75,28.96c-.67.31-1.6.08-2.25.12l1.49-.96,1.13-1.96c.96-1.16,2.11-2.1,3.7-1.44l-3.48,3.46c-.28.28-.6.41-.59.79Z"/>
      <path class="cls-2" d="M66.78,192.74c.13.89-.68,1.39-1.05,2.08l-2.47.93c-.28,1.67-1.25,1.8-1.55,2.84-1.07-.02-1.63.37-1.97,1.42-.37,1.15-1.7,2.31-2.8,2.49-.78.13-1.65-.21-2.46-.39.04-.5-.15-1.43-.49-1.53-1.05-.02-1.51-.89-2.06-1.28-.03-1.59,2.41-1.81,4.11-4.01.55-.7.67-1.24,1.64-1.6.46-.17,1.13-.86,1.54-1.19.18-.98.68-1.39,1.46-1.99.58-.44,1.24-1.34,2.21-.67l1.5,1.04,2.38,1.85Z"/>
      <path class="cls-3" d="M21.11,108.14c.53.04,1.05.12,1.78-.1.08,1.1-.77,1.31-1.31,1.86l-3.8,3.88c-.13.13-.99,2.3-2.04,2.12-.99-.17,0-2.45,1-3.31.82-.7,1.14-1.47,1.66-2.27.69-.34,2.27-.9,1.7-1.95-.05-.05-.09-.19-.08-.31l1.07.08Z"/>
      <path class="cls-1" d="M65.73,194.81c-.51.97-.74,2.29-1.61,3.11l-1.39,1.3c-.49.46-.91.95-1.47,1.48l-2.29,2.15c-.19.18-.78.3-.74.74-.66.06-1.19-.32-1.27-1.09,1.1-.18,2.43-1.34,2.8-2.49.33-1.05.9-1.44,1.97-1.42.3-1.04,1.26-1.17,1.55-2.84l2.47-.93Z"/>
      <path class="cls-2" d="M62.73,199.22c.18.37.31.84.03,1.15l-1.59,1.75-.96,1.62c-.34.57-.6.84-1.34.65-.31-.08-.55-.42-.63-.8-.04-.43.55-.56.74-.74l2.29-2.15c.56-.52.98-1.02,1.47-1.48Z"/>
    </g>
  </g>
</svg>