<?xml version="1.0" encoding="UTF-8"?>
<svg id="_レイヤー_1" data-name="レイヤー 1" xmlns="http://www.w3.org/2000/svg" viewBox="0 0 202.04 126.69">
  <defs>
    <style>
      .cls-1 {
        fill: #fff;
      }
    </style>
  </defs>
  <path class="cls-1" d="M115.09,104.25c-.26,3.38-15.77,2.81-23.83,2.01l-9.42-.94-28.48-3.11-12.1-1.41,67.98-.85c10.93-.14,21.01-.47,31.07-3.46-7.29-.46-14.04-.12-21.15.3l-.39-3.13-10.75-8.11-14.99-11.18-.1-24.68c0-1.24-.51-2.48-1.47-4.14l14.78-15.8,1.99-3.42,18.18-18.61c10.99-.79,21.51-1.65,32.2-1.21l19.77.8c6.94,9.43,14.36,17.69,23.66,24.59l-.4,22.2c-.02,1.23.09,2.54-.23,3.23-.38.81-2.73,1.59-3.41,2.28l-21.12,21.66-13.31,13.46-4.11,1-31.08,17.03-26.77,13.95c1.67-2.91,4.02-3.96,7.03-5.86l-4.08-1.4,7.83-.97c8.47-5.76,16.74-10.88,25.75-16.12l-23.05,1.91ZM196.93,32.26c-3.24-6.59-7.72-11.78-13.95-15.49,4.03,6.16,8.33,11.24,13.95,15.49Z"/>
  <path class="cls-1" d="M56.42,53.62L0,52.11l10.62-1.02,29.92-2.11c11.04-.78,26.83-3.63,29.82,1.88-4.59,2.89-9,2.9-13.94,2.77Z"/>
  <path class="cls-1" d="M79.66,28.78l-21.12-.34-26.63-.32c-2.79-.03-6.5-.74-9.53-1.19,12.23-.26,24.33-.74,37.01-1.82,9.88-1.4,19.04-1.85,29.03-1.83l2.93,2.32c-3.58,2.44-7.21,3.26-11.69,3.19Z"/>
  <path class="cls-1" d="M56.82,77.5c-14.11-1.65-27.57-1.9-41.35-2.2l12.38-.98,38.4-2.08c4.03-.22,8.17-.28,10.68,3.42-6.6,2.33-13.29,2.65-20.12,1.85Z"/>
  <path class="cls-1" d="M101.33,5.68l-22.3-.94,23.3-3.07c8.61-1.14,16.18-2.7,25.72-.73l-4.27,4.27c-7.81.71-14.8.79-22.45.47Z"/>
</svg>