<?xml version="1.0" encoding="UTF-8"?>
<svg id="_レイヤー_1" data-name="レイヤー 1" xmlns="http://www.w3.org/2000/svg" viewBox="0 0 210.13 158.17">
  <defs>
    <style>
      .cls-1 {
        fill: #fff;
      }
    </style>
  </defs>
  <path class="cls-1" d="M50.25,137.81l-9.49-4.9-8.86-6.02c13.68,4.5,26.4,8.9,40.93,7.5-7.85-2.53-16.1-.7-23.79-5.68,17.73,2.92,36.27,4.25,52.63-3.49-28.7,5.72-51.24.72-73.98-15.29-3.45-2.43-6.11-5.17-8.94-8.31-2.75-3.05-6.41-5.57-8.02-9.04,11.38,6.14,20.69,12.72,32.72,15.84l-9.05-5.59,12.06,3.76c14.6,5.64,29.97,6.67,45.31,3.66,6.75-1.33,13.34-2.61,19.61-6.19-14.62,3.75-29.97,7.02-44.85.28,14.47.83,27.51,2.56,41.08-1.71l16.75-7.53-1.86-3.03c6.51-2.84,10.61-12.9,17.99-12.84,3.15.03,6.72,1.8,10.35-.91L193.56,5.74c2.38-4.04,4.63-6.08,9.29-5.7,3.31.27,7.63,3.11,7.27,7.49-.69,8.27-3.98,15.69-8.34,22.65l.32-6.61-19.74,30.08-14.35,22.09c-1.61,2.48-5.15,5.46-5.63,8.2-.39,2.22-.62,2.98-1.96,4.91,1.65,2.19,5.51,6.46,5.72,9.78l-8.46,17.1-2.93-.49c-.68-.11-3.99,22.19-18.36,29.08,4.22-6.15,10.05-11.32,11.93-19.33-5.18,6-9.13,12.58-15.7,16.48l-18.99,11.29,11.54-3.3-8.9,6.39c-1.03-.89-3.54-1.4-5.37-.93-13.29,3.43-33.81,5.54-44.7-1.06,9.87.49,18.74,1.9,27.95-.06,14.71-3.14,29.09-8.38,39.73-19.27-20.73,11.8-43.47,15.96-66.54,11.52-8.03-1.55-15.3-3.78-21.77-8.29l4.66.05ZM199.08,20.98l-26.28,39.47,1.8,1.2,26.28-39.47-1.8-1.2ZM135.64,96.03l14.43,9.69c2.18,1.3,5.16.21,7.92-1.91,1-1.42,2.37-4.2.84-7.03-2.19-4.05-8.6-2.68-13.1-4.38-.49-.18,1.59-1.98,1.33-2.43-1.24-2.17-5.16-5.1-8.26-6.27l-6.99,6.81,3.66,1.69-6.11.3,5.34,2.34,2.49-1.3c.5-.26.97,1.85.43,1.99l-1.98.51Z"/>
  <path class="cls-1" d="M109.38,89.7c-2.81.48-6.12.41-9.38-.41-10.45-2.62-20.68-5.19-30.15-10.38-12.34-6.76-23.24-15.7-30.98-27.48l20.17,16.9c11.71,7.7,23.65,14.61,37.22,18.49l13.12,2.87Z"/>
  <path class="cls-1" d="M76.41,98.93c-5.8,2.17-21.21-3.59-25.59-7.71s-8.49-7.7-10.75-12.79c11.61,9.4,21.93,16.85,36.34,20.51Z"/>
  <path class="cls-1" d="M37.28,89.16c-9.37-4-17.89-10.64-24.43-18.43-4.97-5.92-10.44-11.22-12.85-18.92l12.33,15.04,24.95,22.31Z"/>
  <path class="cls-1" d="M177.34,129.51l-5.14-.17c.11-3.01.03-5.88.99-7.18,1.21-1.63,4.39-2.42,5.96-1.87,1.8.63,3.2,3.01,3.11,5.29-.06,1.64-3.02,3.99-4.93,3.93Z"/>
  <path class="cls-1" d="M22.65,117.63l-1.69,1.49,5.12,4.43c-8.5-3.16-15.9-9.54-22.12-17.02,5.11.34,7.4,4.6,10.92,6.62l7.77,4.47Z"/>
  <circle class="cls-1" cx="89.29" cy="41.9" r="3.15"/>
  <path class="cls-1" d="M154.38,155.94c-.56,1.02-3.47.02-4.13-1.38-.55-1.17.91-3.63,2.47-4.27.81-.33,2.9.78,3.04,1.58s-.27,2.05-1.38,4.07Z"/>
  <path class="cls-1" d="M200.31,99.94c-1.43.56-3.22.65-3.86-.03s-.17-3.43.69-3.8l2.98-1.29c.78-.34,2.13,1.56,2.13,2.41s-1.15,2.39-1.94,2.7Z"/>
  <circle class="cls-1" cx="120.77" cy="67.58" r="2.81"/>
  <circle class="cls-1" cx="68.48" cy="60.85" r="2.54"/>
</svg>