<?xml version="1.0" encoding="UTF-8"?>
<svg id="_レイヤー_1" data-name="レイヤー 1" xmlns="http://www.w3.org/2000/svg" viewBox="0 0 154.5 185.09">
  <defs>
    <style>
      .cls-1 {
        fill: #fff;
      }
    </style>
  </defs>
  <path class="cls-1" d="M72.03,184.02l.25-2.14c.07-.6-.92-1.08-1.9-1.63-12.96-7.18-24.77-16.1-34.54-27.23l-7.33-7.52c-6.71-6.87-13.29-15.54-14.61-24.37-1.12-7.45-5.11-14.42-7.18-22.32C1.99,80.79,1.35,62.77.41,44.28c-.06-1.17-.73-3.05-.21-3.84l1.43-2.13c.23-.34,1.15.64,1.79,1.38l29.38-13.72c2.4-1.12,5.01-1.84,7.23-2.31,10.43-5.07,20.58-10.45,30.09-17.18l5.62-3.98-2.5-2.12c3.89,1.75,6.46,1.72,10.11-.37l-.68,5.4,24.74,14.08,43.38,20.26,3.38,1.21c.81.29-.16,2.23-.43,3.24-.98,30.79-4.93,65.21-20.45,91.89l-7.16,10.54c-.51.75-2.77,1.65-3.65,1.91-10.21,13.84-25.12,24.74-40.18,32.76l1.84,2.14c.4.47-.94,1.88-1.49,1.62-2.28-1.12-7.2-1.82-10.64-1.03ZM42.92,148.82c10.66,10.53,21.9,18.56,34.4,25.94l15.21-9.91c14.54-9.47,25.93-21.67,34.39-36.99l8.85-20.43c6.39-18.76,8.91-38.23,9.24-58.12l-2.16-3.5-26.74-12.6-35.8-19.39c-2.28-1.24-5.5.03-7.33,1.65-2.1,1.86-5.36,2.4-7.53,3.62l-14.97,8.4c-1.42.79-3.29,1.15-5.05.83-10.87,7.03-22.62,12.77-34.63,17.94l4.34,4.1c-2.75-.58-3.69-1.18-6.21-2.78.81,23.1,3.04,46.86,11.87,68.73,3.37,8.33,7.46,16.43,13.31,22.85l8.8,9.66ZM25.93,134.19l-9.85-23.48-6.32-16.93c1.78,14.27,6.08,32.11,16.17,40.41Z"/>
  <path class="cls-1" d="M134.46,76.09c-6.56,39.93-21.17,68.01-56.91,88.51-16.89-8.34-30.32-21.07-40.57-36.92-13.39-20.7-17.42-50.46-19.44-75.68,9.35-2.37,17.85-5.85,26.32-10.59l33.68-18.85,18.16,10.41c13.24,8,26.84,14.65,41.38,19.3.29.34,1.72,1.59,1.35,1.74l-2.04.81-1.93,21.28Z"/>
</svg>