<?xml version="1.0" encoding="UTF-8"?>
<svg id="_レイヤー_1" data-name="レイヤー 1" xmlns="http://www.w3.org/2000/svg" viewBox="0 0 143.2 176.91">
  <defs>
    <style>
      .cls-1 {
        fill: #fff;
      }
    </style>
  </defs>
  <path class="cls-1" d="M110.32,158.27c-22.11,4.52-44.01,4.46-66.11,2.05-5.95-.65-10.57-1.81-16.61-3.68.91-3.05,1.9-4.23,3.98-6.76,3.38-4.11,6.47-10.84,8.93-15.49.37-.69,2.99-1.65,2.67-2.32l-1.51-3.18,17.25-57.94c3.43-11.52,5.29-23.39,10.09-34.26l6.24.05,7.96,28.35c.8,2.83,1.11,4.86,1.97,7.75l15.18,51.01,1.21,7.43,6.75,12.85,4.9,8.66c.4.7.83,2.61.65,3.29-.22.86-1.98,1.86-3.55,2.18ZM61.73,71.61c7.43,1.53,14.68,1.54,21.26-.49l-1.83-3.48-16.48.52c-1,.03-2.91.3-3.45.92-.43.5-.11,2.38.51,2.53ZM45.1,134.77c19.07,4.99,37.32,4.72,55.68-.68-.39-1.23-1.37-3.23-1.84-3.69l-13.98,2.63c-12.42,1.08-24.52.36-36.81-1.78-1.33-.23-3.1-.38-3.61.35-.4.58-.05,2.49.56,3.18Z"/>
  <path class="cls-1" d="M139.55,157.76c1.73-4.57-13.04-9.65-21.43-11.8-.71-.18-1.79-1.24-2.11-1.68s1.55-1.17,2.22-1.02c9.89,2.18,24.33,5.51,24.95,13.94.57,7.73-14.98,13.6-24.77,15.4-32.67,6.02-65.86,5.79-98.29-1.19C11.98,169.67-.23,164.06,0,157.17c.28-8.27,14.34-11.35,23.52-13.66,1.91-.48,3.55-.46,4.81,1.51-9.1,2.89-20.95,4.41-24.83,12.41,1.65,3.47,4.93,5.42,8.41,6.73,14.51,5.46,29.61,6.99,45.18,7.99l24.93.17,35.61-4.03c6.21-.7,20.05-5.59,21.93-10.53Z"/>
  <path class="cls-1" d="M83.13,22.67c0,6.25-5.07,11.32-11.33,11.32s-11.33-5.07-11.33-11.32,5.07-11.32,11.33-11.32,11.33,5.07,11.33,11.32ZM70.55,16.72l.09-1.58c-3.69.2-7.13,3.23-5.08,7.24l5-5.66Z"/>
  <path class="cls-1" d="M26.61,47.18c-4.15.71-7.55-.9-10.57-3.57C3.04,32.13,3.82,9.01,19.16,0c-7.02,7.46-10.62,16.1-8.99,26.49,1.38,8.76,7.61,15.42,16.44,20.69Z"/>
  <path class="cls-1" d="M118.12,47.22c5.65-4.51,11.47-8.63,14.09-15.78,2.8-7.6,2.63-16.83-1.66-23.88l-5.44-6.76c13.83,8.83,15.74,27.9,5.47,40.14-3.44,3.26-6.63,6.98-12.47,6.28Z"/>
  <path class="cls-1" d="M103.23,39.03c5.53-4.6,9.5-8.39,10.35-13.99.93-6.19-.89-12.97-6.33-16.45-1.52-.98-2.73-1.67-2.9-3.44,8.26,2.3,12.86,9.84,12.55,18.41-.24,6.75-5.44,15.64-13.66,15.48Z"/>
  <path class="cls-1" d="M39.43,38.47c-3.38,1.02-7.32-1.88-9.53-5.08-6.79-9.85-3-25.23,9.44-28.15-5.9,4.59-10,9.38-10.22,16.12-.23,7.07,3.55,11.98,10.3,17.11Z"/>
  <path class="cls-1" d="M91.6,31.64c5.71-5.66,6.4-11.94,1.46-17.81,4.31,1.05,5.66,5.23,5.45,9.14-.19,3.51-1.73,8.17-6.91,8.67Z"/>
  <path class="cls-1" d="M50.37,31.26c-3.57-.75-5.13-4.06-5.83-7.01s.52-6.67,3.26-8.72c-2.64,6.19-2.18,11.14,2.57,15.73Z"/>
</svg>