<?xml version="1.0" encoding="UTF-8"?>
<svg id="_レイヤー_1" data-name="レイヤー 1" xmlns="http://www.w3.org/2000/svg" viewBox="0 0 176.49 140.14">
  <defs>
    <style>
      .cls-1 {
        fill: #fff;
      }
    </style>
  </defs>
  <path class="cls-1" d="M108.95,90.99c-1.16,1.87-1.75,3.49-2.17,5.52-.96,1.42-3.27,4.51-4.77,5.61-3.43,2.52-5.15,5.71-7.98,8.62l-18.09,18.55-4.71,3.09c-1,.65-.02,3.63.33,5.95-2.02,1.38-6.98,2.19-9.64,1.6-4.47-4.44-2.59-10.49,1.43-14.37l3.89-3.76c2.17-2.1,4.75-3.78,5.36-6.68.99-4.67,6.19-6.5,8.14-9.81l15.33-26.06c.46-3.08,1.33-6.44,2.67-9.37l10.11-22.08,3.36.51c.74.11,0-2.61-.15-3.39l4.8-10.28c-1.61.54-2.97,2.24-3.71,3.96l-3.34,7.75-13.2-.33-14.15,14.35c-1.41,1.43-2.75,3.59-4.13,4.22-1.78.81-5.1.08-5.97-1.42-2.03-3.47.72-6.42,3.05-8.98l16.9-18.52,22.11-2.66c5.29-.64,10.12-.65,15.93-.29-8.41-4.55-13.16-14.15-9.06-22.81,2.51-5.3,7.58-8.44,12.11-9.47,6.07-1.38,12.45.52,16.33,4.94,3.99,4.55,5.04,10.76,3.01,16.29-1.84,5.01-6.06,9.98-12.42,10.62l-9.91,1,6.09,3.53c1.96,1.14,2.66,2.07,3.44,4.38l4.97,7.33-5.04-2.63,7.12,10.46c.24-3.25,3.05-4.1,6.13-5.34l12.92-5.2c2.53-1.02,5.29-3.34,8.58-2.1,1.46.55,2.24,4.13,1.72,5.8-.68,2.18-2.66,2.96-5.07,4.38l-13.94,8.18-5.71,1.26c-2.55,1.79-5.85,1.48-8.14-.78l-8.48-8.34,3.63-8.4c.46-1.06.2-2.73-.69-3.36-4.24,11.71-8.89,22.24-14.93,33.3l17.72,13.51c2.69,2.05,4.86,4.37,4.69,7.86-.14,2.86-2.4,5.69-5.11,7.35l-23.52,14.44c-1.24,1.48-3.14,4.16-4.85,4.21-2.49.07-5.05-1.12-5.83-2.62-1-1.93-.66-5.87.92-7.11l18.33-14.47,4.79-.96-4.24-.68-25.39-12.15c2.09,3.02,5.83,4.77,8.45,5.86Z"/>
  <path class="cls-1" d="M51.75,123.3l-24.94.34h-11.96c-3.8,0-8.11-.8-9.32-5.03-1.07-3.77.91-8.45,3.56-10.77,3.14-2.75,7.1-3.8,11.45-3.49-.89-6.48,2.32-11.91,7.96-14.48,7.75-3.53,15.54.17,18.66,7.99l2.39,8.23c1.53.41,4.86,1.34,6.07,2.48,1.4,1.31,1.7,4,2.01,6.14.65,4.49-1.79,8.55-5.87,8.6ZM28.03,121.54l23.54.04c.81-.23,3.43-1.5,3.13-2.32l-1.03-2.82,1.64-3.82c.33-.78-1.03-2.94-1.8-3.37-1.89-1.05-5.63-1.1-7.59-.69l1.65-5.86-3.84,3.65c-.78.74-3.51-.29-3.99-.6,2.05-1.66,4.18-3.59,4.4-5.28.23-1.78-.85-4.99-2.05-6.14-3.04-2.91-6.8-3.75-10.98-2.52-2.65.78-5.96,3.57-7.5,6.86s-.62,6.33.91,10.07c-1.94-.94-3.9-2.11-5.13-2.32-.62-.11-8.23,2.39-10.73,6.28-1.2,1.87-1.09,5.54,1.18,7.01,2.55,1.65,8.28,1.16,10.59-.75,2.7-2.23,4.21-4.42,8.26-4-1.28,1.57-3.37,2.76-5.28,3.55l4.63,3.02Z"/>
  <path class="cls-1" d="M40.42,38.85l-27.52.26,1.7-1.75c16.22.01,31.66-.67,47.4-3.35l15.62-2.61c2.5-.42,5.64.28,8.07,1.26-9.66,11.03-28.24,1.2-45.27,6.2Z"/>
  <path class="cls-1" d="M54.88,57.61l-54.88-.72,9.59-1.19,29.14-2.12c7.41-.54,14.44-1.78,22.08-.14.42,2.64-2.66,4.22-5.93,4.17Z"/>
  <path class="cls-1" d="M40.84,78.98l-31.73-.38-.49-.75,29.03-.37,20.79-.92c6.8-.3,13.48-1.95,20.09,1.48-11.35,5.98-25.55,1.09-37.68.95Z"/>
  <path class="cls-1" d="M61.34,68.04l-17.51-.83,11.53-2.17c2.78-.52,5.67-1.13,8.69-.16.99.32-1.46,3.22-2.71,3.16Z"/>
  <path class="cls-1" d="M45.87,125.75c-.87,3.91-4.13,3.05-6.57,2.39l-9.25-2.5,15.82.11Z"/>
</svg>