<?xml version="1.0" encoding="UTF-8"?>
<svg id="_レイヤー_1" data-name="レイヤー 1" xmlns="http://www.w3.org/2000/svg" viewBox="0 0 180.6 164.65">
  <defs>
    <style>
      .cls-1 {
        fill: #fff;
      }
    </style>
  </defs>
  <path class="cls-1" d="M116.13,87.24l2.36,4.47-1.93,6.33c-1.45,4.73-7.57,7.61-10.92,11.28l-11.83,12.93-.59-.78,6.02-9.09-15.21,15.49c-6.12-15.53-23.31-23.56-38.89-18.92s-24.6,18.58-22.44,34.6c-15.7-12.67-20.35-34.67-6.7-49.71l-2.03-3.2,3.65,1.94,6.85-5.01c.71-.52.4-2.58,0-3.63-.05-.16,1.05-1.04,1.19-.76l1.35,2.66,2.86-.94c.77-.25.96-1.64,1.22-2.78l22.05-13.83,20.37-11.63c3.76-2.15,6.77-4.73,11.36-5.5l-8.24,6.37,14.61-7.32c.89-1.63,2.09-3.53,3.23-4.26,1.57-1,5.05-1.02,6.49.22,11.5,9.93,20.1,21.92,25.6,35.93-.56,3.16-3.83,5.78-6.33,6.95l-3.28-2.65-.82.85ZM116.6,86.08l-2.42-4.05-17.58-23.84c-1.43-1.95-1.9-5.17-2.26-7.38-1.44,2.24-2.2,4.64-.98,6.26l22.51,29.68.73-.66ZM31.65,96.99l39.73-25.23c3.05-2.11,5.95-3.87,8.18-6.87-17.98,8.06-33.52,18.27-49.83,28.75l-1.01,2.79c-.18.51,2.46.86,2.92.57ZM108.71,94.88c-.26-.83-.89-2.44-1.16-2.12l-1.2,1.45c-7.3,6.8-16.1,14.67-22.34,22.65,9.36-6.72,16.59-14.27,24.71-21.98Z"/>
  <path class="cls-1" d="M89.37,124.24l7.9,14.16,6.57,12.35c2.35,4.41,4.59,8.13,6,13.39l-18.53.49-80.4-.11c.45-2.38,1.84-4.95,3.3-6.35,4.27-.06,7.73-.68,11.55-2.67,3.44.63,4.07,5.59,7.96,3.94-8-9.84-10.59-22.43-4.15-33.43,4.87-8.32,14.22-14.12,24.09-14.13,7.79-.01,15.79,3.05,21.13,8.57,10.17,10.53,9.59,26.41-.02,37.7l4.13.56,5.3-8.31,7.12,1.97,1.47,5.98,4.63.23c-.79-2.6-3.12-5.26-4.52-7.93l-7.06-13.46-1.51-6.97,5.03-6ZM46.94,147.37c4.86,3.18,9.56,2.71,13.43.22l-1.85-3.37,3.13,1.76c3.39-3.45,4.11-9.21.79-13.04l-2.64,1.64.64-3.53c.11-.63-1.84-1.19-2.43-1.68-3.27-2.72-9.26-.72-10.88,2.33.05.41.28,2.32.24,1.97s-2.12-.46-2.34-.19c-1.97,2.29-2.91,8.48.33,11.65l3.12-2.31c-1.67-3.58-.99-7.11,2.19-8.86,2.3-1.27,6.56-.94,8.39,1.68,1.37,1.96,1.69,6.3-.66,8.07-2.59,1.95-5.98,1.54-9.16.44l-2.3,3.23Z"/>
  <path class="cls-1" d="M180.6,21.56c0,11.91-9.65,21.56-21.56,21.56s-21.56-9.65-21.56-21.56S147.13,0,159.04,0s21.56,9.65,21.56,21.56ZM146.45,14.24l7.37-7.79c-4.82-.14-11.28,6.27-8.93,10.27.15.26.43.24.54-.02.11-.28.77-2.2,1.02-2.45Z"/>
  <path class="cls-1" d="M14.93,144.78l2.55,4.95c-2.33,2.39-6.2,4.03-9.73,3.69l-5.7-6.59-.41-5.53c-.64-1.25-1.82-3.22-1.61-4.24.53-2.57,5.39-5.07,7.3-4.42,1.03.35,2.14,2.36,2.85,3.74l1.76-1.92,4.33,4.97c.44.51,1.37,2.09.99,2.55l-2.32,2.8Z"/>
  <path class="cls-1" d="M22.9,85.3l-10.29,5c-1.64-.69-3.86-2.82-3.91-4.15s1.15-4.22,2.41-5.03l8.59-5.56c1.79-.72,5.8,4.04,4.42,5.32l-1.68,1.56c-.29.27-.05.78.46,2.86Z"/>
  <path class="cls-1" d="M137.07,39.86c-.47,3.42-9.87,10.78-15.83,14.3l12.38-14.46c.36-.42,1.76-1.06,2.21-1.08s1.3.79,1.24,1.24Z"/>
  <path class="cls-1" d="M144.99,51.47c-3.32,1.32-6.1,3.95-9.69,4.1l11.26-7.75c.8-.55,2.52-.94,3.5-.99l9.27-3.12c-2.08,2.51-3.5,3.45-5.91,4.41l-8.43,3.35Z"/>
  <path class="cls-1" d="M131.62,32.74c-7.06,3.4-9.5,10.57-16.51,14.4l15.63-19.61.89,5.21Z"/>
  <path class="cls-1" d="M34.62,46.9c-2.5-3.61,1.05-9.58,4.52-9.63,2.75,3.43-1.49,9.32-4.52,9.63Z"/>
  <path class="cls-1" d="M12.95,62.47l-3.38-8.31c-.2-.49-.19-2.81.25-3.07l2.41-1.42c1.77,4.32,3.07,8.02.73,12.8Z"/>
  <path class="cls-1" d="M128.57,127.12c-2.76,3.16-5.08,4.77-8.77,5.24,1.02-4.09,3.16-5.96,7.22-7.76l1.55,2.52Z"/>
  <path class="cls-1" d="M140.12,137.76c-1.48,4.97-6.43,5.6-10.73,3.85,3.4-2.18,6.67-3.33,10.73-3.85Z"/>
  <path class="cls-1" d="M145.95,153.78c-1.5,4.11-6.78,2.24-7.71.28,2.74-1.69,6.78-2.28,7.71-.28Z"/>
</svg>