<?xml version="1.0" encoding="UTF-8"?>
<svg id="_レイヤー_1" data-name="レイヤー 1" xmlns="http://www.w3.org/2000/svg" viewBox="0 0 134.06 194.57">
  <defs>
    <style>
      .cls-1 {
        fill: #fff;
      }
    </style>
  </defs>
  <path class="cls-1" d="M72.13,174.21l-.12,20.3-14.65.06-.25-20.06c-2.6-.44-5.25-1.19-6.17-2.48-1.27-1.77-1.85-4.95-1.39-6.93,1.72-7.53.04-10.74,2.97-12.23l-4.82-.3c-3.79-3.02-6.3-6.67-7.69-11.37-17.35-6.18-31.63-18.89-37.23-36.66C-.25,94.98.63,85.3.04,75.35c-.59-9.94,5.22-19.31,15.9-19.53l14.33-.3c6.73.9,12.26.42,18.82.3l34.34-.63c5.96,2.92,11.93.34,17.83.05,6.42-.32,13.26.12,19,2.14,6.98,2.46,9.01,8.84,8.83,15.35l-.55,19.88c-.6,21.7-19.36,40.83-38.6,49.06-2.8,5.53-4.73,10.51-10.31,10.89-1.46,4.21-.95,8.7.22,13.08,1.18,4.42-1.63,9.04-7.72,8.56ZM106.65,66.48l-6.76-1.21-17.2-1.05-39.35-.87-2.97-1.62c-.53-.29-2.12,1.77-2.84,1.81l-17.33.93.56,3.26,55.03-.22,30.87-1.02ZM55.22,122.92l24.8-25.7-12.99-.69,5.38-17.11-23.45,25.02,12.94.37-6.69,18.12ZM21.58,118.98l-9.52-19.98c-1.04,8.18,3.33,16.16,9.52,19.98ZM79.59,144.17l-28.91.02c.87.75,3.26,3.13,4.5,3.54,6.37,2.12,19.5,1.2,24.41-3.56ZM76.82,153.48l-8.02.72-14.69.15c7.5,4.26,21.27-.65,21.56,1.46l.63,4.56.52-6.9Z"/>
  <path class="cls-1" d="M102.11,53.99c-7.74-1.16-13.89-1.17-21.88.28l.14-43.94c.02-5.99,5.84-10.02,10.69-10.3s11.03,3.21,11.13,9.35l.52,34.14-.6,10.47ZM97.81,44.27l.8-33.11c.03-1.41-1.97-3.97-3.41-4.97l.42,25.33c.08,4.68.34,9.04,2.2,12.75Z"/>
  <path class="cls-1" d="M49.8,53.11c-7.63-.28-14.36-.09-22.4.93l-.1-43.12c1.02-4.05,3.17-7.62,6.16-9.36,3.45-2.01,7.86-2.14,11.26-.03,4.67,2.92,5.69,8.34,5.3,13.66l-.21,37.92ZM45.4,43.21l.54-29.88c.05-2.65-1.54-5.63-3.04-6.52l.39,30.71c.02,1.68.76,3.89,2.11,5.69Z"/>
  <path class="cls-1" d="M123.89,118.27c.69-3.21,1.66-5.11,2.71-7.45,5.71-12.67,4.81-25.55,5.06-40.06,3.52,11.06,2.7,22.98.53,34.31-1.01,5.26-3.98,10.08-8.3,13.2Z"/>
</svg>