<?xml version="1.0" encoding="UTF-8"?>
<svg id="_レイヤー_1" data-name="レイヤー 1" xmlns="http://www.w3.org/2000/svg" viewBox="0 0 188.49 170.6">
  <defs>
    <style>
      .cls-1 {
        fill: #fff;
      }
    </style>
  </defs>
  <rect class="cls-1" x="109.13" y="45.48" width="23.29" height="80.71" transform="translate(-.49 .7) rotate(-.33)"/>
  <path class="cls-1" d="M85.01,125.65l-19.42-.17-.23-39.77-.19-39.29c7.35-1.17,15.07-1.23,22.52-.15l.46,44.64.4,32.47c0,.67-.62,2.35-.94,2.93s-1.9-.3-2.6-.66Z"/>
  <path class="cls-1" d="M13.48,109.89l-1.97-3.09C5.19,106.6.04,101.85,0,95.58c-.04-5.9,4.99-11.28,11.57-11.16,5.39.1,9.59,4.86,9.93,9.57.41,5.68-2.53,10.84-8.05,12.37l.04,3.53ZM16.73,95.59l1.56,1.49c.26-2.46-.16-5.91-1.68-7.43-1.11-1.11-3.87-1.89-5.87-2.34l-1.74,5.04c4.45,5.28,6.99,2.54,7.73,3.25Z"/>
  <path class="cls-1" d="M166.68,49.58c-4.52-3.19-5.48-8.59-3.87-13.09s6.08-7.89,11.68-7.11c6.99.97,11.14,8.45,8.48,15-2.37,5.85-10.29,9.43-16.29,5.2ZM179.91,41c1.18-4.35-1.99-8.69-6.75-8.67l-2.59,4.49c-.42.73.85,3,1.71,3.13,4.01.59,5.24-1.13,7.63,1.05Z"/>
  <path class="cls-1" d="M173.77,129.99c-5.22-2.33-6.81-8.23-4.97-12.86,1.65-4.14,6.67-8.25,11.14-6.79,6.43,2.1,9.05,7.23,7.61,12.79-1.45,5.57-7.59,9.62-13.78,6.86ZM183.54,119.32c1.14-2.45-1.06-4.8-2.57-5.25-1.73-.52-4.53.24-5.09,2.15-.36,1.23,1.59,3.5,2.59,4.26s4.5.07,5.08-1.16Z"/>
  <path class="cls-1" d="M25.9,46.07c.5,1.62-.59,5.23-1.88,6.02-2.95,1.8-8.43,1.47-7.98,2.77l-.83-2.43c-.7-2.05-1.65-5.09-1.32-7.23.26-1.7,2.85-4.26,4.61-4.44l5.58-.59,1.82,5.9Z"/>
  <path class="cls-1" d="M60.76,162.39c-5.86.46-11.14-3.9-14.8-7.03-.05-.34.79-1.92,1.18-1.71l1.92,1.02c4.05,2.15,7.98,4.58,11.71,7.72Z"/>
  <path class="cls-1" d="M120.28,3.35c-4.71,1.23-9.89.04-14.77-2.28,4.73-1.71,10.17-1.65,14.77,2.28Z"/>
  <path class="cls-1" d="M24.3,131.09c-5.91-1.42-6.71-7.42-8.76-11.51l1.39-1.17c.21-.18,1.22.8,1.35,1.05l6.02,11.62Z"/>
  <path class="cls-1" d="M61.06,7.53c5.06-1.88-.58,5.82-11.19,7.3,2.19-3.9,7.98-6.11,11.19-7.3Z"/>
  <path class="cls-1" d="M187.1,92.76c1.35,5.11-1.33,13.32-1.98,13.24l-1.72-.21c.28-4.35.41-9,3.7-13.04Z"/>
  <path class="cls-1" d="M184.79,69.13c3.57,1.3,5.04,12.23,2.24,15.29-1.58-5.22-2.24-9.65-2.24-15.29Z"/>
  <path class="cls-1" d="M86.29,169.49c-5.45,2.65-10.8.2-15.26-3.48,5.25.29,9.86,1.34,15.26,3.48Z"/>
  <path class="cls-1" d="M146.31,13.3c-.97,1.09-3.31.82-4.64-.01l-8.65-5.45c5.55-.7,9.76,1.64,13.29,5.46Z"/>
  <path class="cls-1" d="M128.76,165.29c-3.71,3.82-8.35,5.03-13.54,3.9,4.07-2.96,8.34-4.07,13.54-3.9Z"/>
  <path class="cls-1" d="M141.56,160.55c-.14-1.01.95-2.87,2.03-3.46l9.82-5.35c-2.03,5.27-6.49,7.01-11.85,8.81Z"/>
  <path class="cls-1" d="M90.64,1.26c-3.6,2.5-8.96,2.85-14.22,2.6,3.71-2.95,8.32-4.65,14.22-2.6Z"/>
  <path class="cls-1" d="M38.86,24.46l-9.37,8.91c.42-6,5-7.8,8.15-10.62l1.22,1.71Z"/>
  <path class="cls-1" d="M12.84,64.52c.17,5-.72,9.27-2.59,13.86-1.69-4.58-1.53-9.92,2.59-13.86Z"/>
  <path class="cls-1" d="M37.63,147.47c-4.14-.67-7.16-4.69-9.05-8.8,3.97,1.26,7.46,4.22,9.05,8.8Z"/>
  <path class="cls-1" d="M161.66,26.23l-4.84-1.34c-1.11-.31-1.97-3.17-1.88-4.68,3.45.42,5.22,2.48,6.72,6.01Z"/>
  <path class="cls-1" d="M169.25,137.33c-.8,2.88-3.74,5.98-7.09,7.87.34-3.92,2.53-6.41,7.09-7.87Z"/>
</svg>