<?xml version="1.0" encoding="UTF-8"?>
<svg id="_レイヤー_1" data-name="レイヤー 1" xmlns="http://www.w3.org/2000/svg" viewBox="0 0 194.39 163.86">
  <defs>
    <style>
      .cls-1 {
        fill: #fff;
      }
    </style>
  </defs>
  <path class="cls-1" d="M83.18,149.45c.32-1.47,1.47-2.72,2.59-3.55l.96-2.33c.25-.6,2.28-.55,2.97-.67l8.73-1.5c5.36-.92,10.24-3.48,15.29-.11l-3,3.93c6.05-1.21,14.04-4.18,14.67-7.58.46-2.47-4.51-3.8-11.78-1.94l-15.24,3.9-6.58,1.03c-1.99-4.72-7.32-.36-14.23-5.03,2.21-3.16,4.52-4.86,7.9-7.16l-15.69-2.89c1.88-3.67,3.37-5.71,7.03-7.63l-14.43-1.79c-2.3-5.73-12.25,1.65-14.13-10.13l5.97-4.53-4.6-1.39c-.95-.29-1.36-1.95-1.48-3.07-8.6-1.28-13.31-6.72-21.95-8.86l1.85,3.45-2.79.63c-.62.14-2.14-1.37-1.75-1.86l1.95-2.45c-2.4-1.74-5.9-4.62-7.19-7.79-1.65-4.03.59-8.55,2.86-11.71l3.63-5.06,6.29-5.7c12.02-9.06,25.79-13.45,39.69-17.96l-8.49.32c3.37-2.11,5.98-2.74,9.21-3.33,10.94-1.98,21.18-3.93,32.58-3.7l-3.78,2.74,22.16-2.74-.31-1.98c-.07-.43,10.96-2.36,18.63-.28l14.83,4.02c6.89,1.87,12.83,4.67,17.18,10.52,2.35,3.16,1.6,8.08.21,11.38,1.95,5.59-1.33,9.89-6.93,11.62l5.7-10.47c-9.25,7.5-18.25,13.94-29.53,17.29l-21.25,6.31-49.56,9.77-14.11,2.9c19.85.44,38.27-4.14,57.21-8.64l12.56-2.99c9.31-2.21,17.47-4.7,25.88-9.95-1.85,2.92-4.65,5.08-7.1,7.1l1.74,3.38c.34.66-1.3,1.79-2.26,2.41.89,2.65.85,6.28-1.64,8.39l-11.54,9.81-14.69,5.17,9.7.07c6.65.05,8.83,6.57,9.99,6.12l3.59-1.4c.38.64-.38,2.78-1.41,4.2-1.54,2.11-3.27,6.02-5.28,7.2l-10.2,5.95,3.88,3.06c2.29,1.81-.71,9.18-10.03,11.93l-14.16,4.19,3.81,3.46c-1.51,2.27-4.44,4.77-6.84,5.33-10.17,2.37-19.49,4.24-29.88,4.99,2.28-2.73,4.93-2.52,7.61-2.99l-1.96-2.52c-.39-.5.77-2.92,1.41-3.09l17.57-4.58-12.05-1.23ZM71.25,79.27c2.22.26,4.42.33,5.62.14l21.49-3.49c3.4-.55,6.76-2.46,10.28-1.25-15.31,5.31-30.26,7.87-45.39,10.83,15.9.03,30.72-4.66,45.68-9.42l15.7-4.99,17.93-6.03c7.48-2.52,12.08-12.9,9.45-14.03l-2.54-1.09,1.28-3.38c.25-.67-1.46-1.96-1.81-2.24l-.95,2.95c-1.39-5.2-5.66-8.84-11.48-8.81l-22.31.11c4.31-1.78,8.34-1.54,13.21-2.56-10.45-1-21.73-.61-31.88,3.63l-8.45,3.52c-9.68,4.04-19.39,8.17-27.73,14.17.26,2.14-.43,3.37-1.68,4.25l-1.86,1.32c-.22.16.81,1,1.15.94l22.68-8.01c6.89-2.43,13.46-2.84,21.25-3.84l-11.9,4.25c12.44-2.28,23.89-3.3,36.3-3.74,6.94-.24,15.54-.09,18.87,4.47.37.51-.51,2.45-1.07,2.85l-6.66,4.72,5.17-7.54c-5.55-2.78-11.26-3.11-16.71-2.28-.33,1.34-.58,2.73-1.23,2.91l-2.54.7c-2.17,2.18-5.01,5-7.99,6.62-13.31,7.22-27.49,11.57-41.82,14.31ZM96.82,84.39c7.71-1,14.81-2.7,21.73-5.4l29.09-11.34c9-3.51,21.75-9.88,21.65-17.64-.09-7.04-7.29-10.17-15.49-11l-8.13-.82,6.75,4.98,4.45,3.06c7.33,13.78-12.2,23-26.94,26.14-7.5,1.6-14.28,4.31-21.55,6.69l-19.36,6.33,7.79-1.01ZM37.28,69.11c2.99-5.8,8.08-9.28,13.24-13.6-6.63,2.44-11.93,5.5-18.63,9.01,2.38-4.1,6.36-6.54,10.44-8.48l15.21-7.23c-10.15,2.01-18.63,7.02-27,12.75-4.11,2.81-7.08,9.42-5.38,14.24,1.09,3.1,6.03,4.37,8.68,4.75l3.2-10.33.24-1.11ZM38.05,70.78l-1.99,7.55c.19.88.73,2.38,1.24,3s2.74-.73,3.21-1.46l4.28-6.69,9.66-7.89c-1.34-6.68,3.48-10.91,9.77-13.97-10.55,2.65-19.3,10.51-26.23,18.85l.08.6ZM104.32,60.44c3.67-.55,7.45-.68,10.59-2.14-10.6-1.57-19.63,1.45-28.46,4.81l17.87-2.68ZM111.17,64.3c-1.46-1.53-3.82-2.98-4.8-2.78l-27.92,5.81c.46-4.9,4.84-4.56,8.2-7.26-8.64,1.33-17.97,2.91-25.13,9.36,11.01.75,20.65.13,30.46-.81l9.91-.95c2.9-.28,6.07-1.72,9.29-3.38ZM72.14,74.89l-6.86-1.44c-3.48-.73-5.91-1.72-8.98-4.24-2.79,1.33-5.37,3.23-7.51,6.18,5.4,1.26,9.09,1.25,13.65.69l9.69-1.19ZM61.57,84.74l-21.45.42.03,1.3,19.98.16,1.44-1.89ZM130.37,89.87l8.3-4.44c-4.41-.94-7.72.14-11.93.78l-11.24,1.72,14.87,1.94ZM142.48,90.68c.52-1.35.77-2.85.15-3.02-.47-.13-1.99-.03-2.43.23l-4.66,2.76,4.02,2.06c.73.38,2.6-1.2,2.92-2.03ZM112.4,104.31l20.15-11.56c-13.66-1-25.79,2.39-38.71,4.56l-14.06,2.37-18.97,2.58c-2.44.33-4.56,1.28-6.64,3.12,2.26,2.77,5.95,4.92,8.96,4.28,12.43-8.78,35.76-13.84,50.94-12.14-14.94,3.46-29.06,3.25-42,8.74l17.62-1.26,18.74-2.01-12.37,4.98-9.57,2.5c7.15.02,14.21-1.64,20.51-4.24l4.81-1.99.62.07ZM112.46,104.99l-3.32,1.53c3.53.02,5.93-.16,8.39-.96l14.13-4.58c.09-3.25,2.76-4.34,6.44-5.82-3.59-2.49-6.22-.05-9.54,1.72l-15.11,8.07c-.12.06-.48.03-.99.03ZM83.37,96.14l-15.04.37-5.72,3.57c7.87-.5,14.05-.42,20.76-3.93ZM60.81,97.28l-10.83-.33c3.17,3.27,8.02,2.68,10.83.33ZM116.61,108.28l-18.16,4.54c6.3.17,12.23-.94,18.16-4.54ZM104.13,122.92l-6.5,3.14c3.59.54,7.1.18,10.33-.87l17.36-5.64-5.6-1.18,11.9-3.56-5.34-2.75c-4.97,2-10.13,1.1-14.83,1.83l-26.78,4.17c-2.71.42-4.87.92-6.91,2.68,7.26.41,13.42-.49,20.25-1.03l15.88-1.25c-3.2,2.77-6.51,2.89-9.75,4.46ZM99.47,135.42c6.22-.09,10.36-1.23,15.02-2.83l-5.03-.99c2.51-1.18,4.98-1.3,7.91-.56l-.16-2.52c-.11-1.67,5.64.26,6.2-.35l1.99-2.18c3.95-.68,9.91-2.81,9.93-8.54l-9.52,5.9c-2.02,1.25-6.86,2.83-9.23,3.11l-17.14,2.02c-5.63.66-11.26.49-15.79,4.64l21.14-2.92,1.44,2.38-6.75,2.86ZM98.53,122.12l-8.56.28-15.69.37c4.31.72,8.81,1.82,12.9,1.17l11.35-1.81ZM103.04,147.21c2.54-1.03,5.84-3.04,7.39-5.57l-22.97,3.02c4.95,3.7,14.1-1.03,14.83.72l.75,1.83Z"/>
  <path class="cls-1" d="M191.11,132.31l-18.02-8.25c-.5,3.37-.94,4.77-3.36,7.06l-11.24-18.29c3.2-1.01,5.72-1.49,8.76-1.78l13.95-1.31-4.43,6.95,17.61,7.77-3.28,7.85Z"/>
  <path class="cls-1" d="M21.07,123.97l-17.82,8.07-3.25-7.82,17.24-7.25-2.37-4.44c-.29-.55-.99-2-.5-2.29s1.94-.63,2.67-.52l19.05,2.87-12.14,18.62c-1.89-2.43-2.04-3.31-2.89-7.23Z"/>
  <path class="cls-1" d="M59.47,29.95c-8.67-1.28-13.8-2.76-22.33-5.15l6.55-4.84-13.78-13.08,6.37-6.03,12.98,14.09c1.46-3.42,1.97-4.89,4.92-6.24l5.29,21.24Z"/>
  <path class="cls-1" d="M156.52,27.98l5.83-19.5c.24-.81,2.95-.86,3.29-.13l2.03,4.46,14.29-12.8,5.74,6.04-15.13,13.05c1.99,1.21,3.67,2.45,5.46,4.64l-21.51,4.25Z"/>
  <path class="cls-1" d="M16.94,67.97l-1.44,1.28c-.37.32-1.9.19-1.86-.3.56-6.64,10.49-14.69,17.37-16.44-5.37,5.04-9.89,9.76-14.07,15.46Z"/>
  <polygon class="cls-1" points="127.77 27.48 112.73 28.57 116.38 24.71 127.44 26.17 127.77 27.48"/>
</svg>