<?xml version="1.0" encoding="UTF-8"?>
<svg id="_レイヤー_1" data-name="レイヤー 1" xmlns="http://www.w3.org/2000/svg" viewBox="0 0 257.8 245.98" width="257.8" height="245.98">
  <defs>
    <style>
      .cls-1 {
        fill: #fff;
      }
    </style>
  </defs>
  <path class="cls-1" d="M177.88,159.6l.14,9.85-.96.05-.27,4.81-.09,37.64-.65-.4v-50.48c-.01-.47.51-2.07.94-1.91l.88.44Z"/>
  <path class="cls-1" d="M221.91,229.75l-5.98-.03c-.04-1.96.76-3.92,2.16-4.79l2.14-1.33c.57-.35,2.15,1.12,2.09,1.78l-.41,4.37Z"/>
  <path class="cls-1" d="M202.53,230.03l1.17,2.39c.42.75-.87,2.5-1.59,2.98-.61.41-2.54.74-2.94.12-.45-.71-.71-3.03-.59-3.34l1.92-2.23,2.04.08Z"/>
  <path class="cls-1" d="M178.31,213.39c-.09.07-.65-.61-.89-.89l.02-12.16c0-.4.69-1.71.75-1.73.15-.36.64,1.25.64,1.7l.02,10.89c0,.47-.41,1.82-.54,2.18Z"/>
  <path class="cls-1" d="M230.52,214.16c1.02,2.03-1.43,4.56-2.93,4.55-.59-.06-1.49-1.73-1.15-2.22l1.42-2.04.91-1.07c.25-.29,1.55.4,1.74.78Z"/>
  <path class="cls-1" d="M177.68,133.33l.19,8.99-1.45.05c-.28-.04-.42-1.13-.41-1.43l.06-7.59,1.61-.03Z"/>
  <path class="cls-1" d="M177.93,147.08l-.29,5.32-1.57.25-.08-4.13c0-.46.59-2.03,1.02-1.88l.93.44Z"/>
  <circle class="cls-1" cx="224.14" cy="208.77" r="1.56"/>
  <path class="cls-1" d="M177.9,192.45c-.25-1.75-.04-3.87-.02-5.66.67.11,1.12,2.11,1.03,2.77l-1.01,2.89Z"/>
  <rect class="cls-1" x="176.05" y="219.56" width=".7" height="8.01"/>
  <polygon class="cls-1" points="112.16 202.85 112.09 207 110.31 206.97 110.37 202.85 112.16 202.85"/>
  <polygon class="cls-1" points="199.73 116.16 199.74 115 203.31 115.59 202.83 116.16 199.73 116.16"/>
  <polygon class="cls-1" points="47.12 180.73 47.17 181.31 47.17 181.91 47.12 182.49 47.06 181.91 47.06 181.31 47.12 180.73"/>
  <rect class="cls-1" x="173.32" y="180.86" width=".63" height=".63" transform="translate(-77.25 175.84) rotate(-45)"/>
  <polygon class="cls-1" points="168.08 176.09 168.56 175.65 169.21 176.31 169.65 176.75 170.09 177.19 170.54 177.63 171.21 178.29 170.74 178.73 170.09 178.07 169.65 177.63 169.21 177.19 168.76 176.75 168.08 176.09"/>
  <rect class="cls-1" x="164.47" y="175.55" width=".63" height=".63" transform="translate(-76.09 168.03) rotate(-45)"/>
  <path class="cls-1" d="M202.53,230.03l-2.04-.08-22.28-.13.11-16.42c.14-.36.55-1.71.54-2.18l-.02-10.89c0-.45-.49-2.07-.64-1.7l-.29-6.16,1.01-2.89c.09-.66-.36-2.66-1.03-2.77l.15-17.34-.14-9.85-.24-7.2.29-5.32-.06-4.76-.19-8.99c-.01-.69-.6-1.92-.89-2.32l.92-3.37.09-2.14.36-3.4c.07-.66,1.48-1.61,2.08-1.93l28.92.04c.34,1.66.48,3.03.48,4.74l-.12,76.44-.19,13.3.15,15.04-6.94.31Z"/>
  <path class="cls-1" d="M144.71,120.19c.03,2.3,2.37,4.67,4.6,4.74l-.06,105.06-31.72-.02.06-108.67,1.69,1.56,20.46-.12.15-2.56h4.82Z"/>
  <path class="cls-1" d="M112.21,12.82l.64,15.98c7.3.53,14,1.16,20.44,3.34l8.45,2.87c11.6,3.94,24.72,14.05,32.87,23.18,2.66-1.85,4.57-3.13,7.68-4.32l-5.82,6.66c7.03,9.3,12.46,19.02,14.81,29.74-1,1.31-1.16,4.09-.79,5.61l1.91,8.02.4,5.19c.03.34-.34,1.69-.67,1.76l-1.18.25-.58-5.6-1.18-8.67-1.99,3.33c-1.81-12.33-7.49-23.96-15.32-34.06l-2.83-.87c.11-1.07-.07-2.99-.83-3.75-7.98-7.97-15.3-13.82-26.13-18.81-9.09-4.19-19.06-6.73-28.99-6.6l-1.8,6.91-1.19-7.01c-21.97.35-43.15,10.17-57.55,26.91l1.56,3.45-3.73-.81c-10.74,14.43-16.66,30.81-16.89,48.84l6.1.41.25,1.24-6.35.86,1.4,11.82c3.68,14.78,10.44,28.27,21.02,39.28.95.1,2.87.24,3,.94l.5,2.63c9.08,8.06,19.59,13.92,31.47,17.28,1.38.31,3.3,1.49,3.49,2.56l.31,1.74-1.29.09h-1.61s-.48-1.92-.48-1.92l-.12,1.85-1.84-.35-5.76-2.22-.48,2.52-1.96-.74.69-2.62-2.07-.96c-.3-.14-1.59.44-1.39.7l1.62,2.49c-9.09-3.21-17.45-9-25.3-15.48l-7.04,5.09c1.94-3.48,2.73-4.57,4.65-7.2-14.29-14.78-23.75-33.32-25.41-53.97-.08-1.05-.79-3.2-1.32-3.62l-15.74-.49v-1.32s16.71-.51,16.71-.51c.3-19.68,6.77-38.47,18.56-53.74-2.8-2.73-4.57-4.38-7.05-7.82l9.18,5.14c16.61-18.43,37.71-28.81,62.67-29l.65-9.37v-6.81s1.63,0,1.63,0ZM88.76,191.35c-.39-1.11-1.65-1.84-2.2-1.49l2.2,1.49Z"/>
  <path class="cls-1" d="M61.36,94.23l-1.65-1.04c8.12-20.29,28.14-33.88,50.52-34.54l1.42-5.59.94,5.42,10.58,1.62c.04.11.6,1.53.57,1.47-3.44-.36-6.11-.8-8.88-.73l-8.08.19c-12.47.29-24.09,6.45-32.93,14.99-5.47,5.29-9.5,11.61-12.49,18.19Z"/>
  <path class="cls-1" d="M185.72,151.43c-3.09,6.18-7.12,11.92-12.14,16.85l1.61-5.22c.16-.52-.36-2.37-.91-2.5l-1.75-.43c.75-.75,1.95-2.07,2.48-2.96l2.44-4.07,3.48-4.74c.55.15,1.3-.99,1.49-.72l1.11,1.61,2.2,2.18Z"/>
  <path class="cls-1" d="M119.62,114.39l-.4,1.71h-7.06s-.21,10.89-.21,10.89c-.87-.96-1.63-2.57-1.58-3.61l.33-6.92-9.92-.15-2.85-.05c.37.48-.18-.23-1.03-1.32l13.5-.34.06-13.49,1.53-.02.44,13.77,7.2-.47Z"/>
  <path class="cls-1" d="M192.69,119.67l-.94,7.93c-.09.8-1.32,2.34-1.98,2.76l-3.36,9.74-1.3-.71-1.79,1.56c1.96-6.06,4.45-12.22,4.76-18.56l1.44,1.54,1.24-7.82-2.39.37-.23-1.08,3.22-1.1.94,4.21.38,1.15Z"/>
  <polygon class="cls-1" points="145.99 120.81 145.8 124.06 119.8 124.21 117.66 122.23 117.66 120.8 145.99 120.81"/>
  <path class="cls-1" d="M192,133.76l-1.62,5.77c-1.32,4.25-2.85,8.27-4.66,11.9l-2.2-2.18-1.11-1.61c-.18-.27-.94.87-1.49.72l2.4-7.42,1.79-1.56,1.3.71,1.7-.3,2.18-6.3,1.71.26ZM184.85,148.74c2.08-.54,2.26-3.16.27-3.58l-.27,3.58Z"/>
  <path class="cls-1" d="M112.36,191.53l-.09,5.87-.1,5.45h-1.8s.08-5.57.08-5.57l.06-4.68-8.57.71,3.55.85.99.61h-7.46c-.61.01-1.81-2.23-2.36-1.95l-2.24,1.16.29-.88-.31-1.74c-.01-.21,1.32-1.39,1.83-1.31l8.78,1.34c2.55.39,5.27.2,7.35.13Z"/>
  <path class="cls-1" d="M91.19,193.12l.6.07h1.61s1.01.79,1.01.79l2.24-1.16c.55-.28,1.74,1.96,2.36,1.96h7.46s-.99-.62-.99-.62l-3.55-.85,8.57-.71-.06,4.68c-3.7.16-8.03.18-11.81-.51l-6.96-1.28c-.73-.13-2.21-.81-2.81-1.09l.49-1.63,1.84.35Z"/>
  <path class="cls-1" d="M195.02,116.17l-.39,5.21c-.03.39.7,1.94,1.09,1.95l1.36-.1-.45,4.32c-.46-.22-2.35-.48-2.59.2l-.63,1.77,3.11.76-1.17,4.28-3.35-.8-1.71-.26-.52-3.14c.66-.42,1.89-1.96,1.98-2.76l.94-7.93.81-1.82.68-1.51c.11-.25.45-.17.85-.17Z"/>
  <path class="cls-1" d="M194.4,103.8c.62,3.2.48,6.69.61,10.42l4.73.78v1.16s-4.72.01-4.72.01c-.4,0-.73-.08-.85.17l-.68,1.51-.81,1.82-.38-1.15-.94-4.21-3.22,1.1.21-3.16,2.62-1.16,1.18-.25c.33-.07.69-1.42.67-1.76l-.4-5.19,2-.09Z"/>
  <path class="cls-1" d="M57.39,125.85l-1.11.23-.67-3.54-.43-5.9-5.93-.84c.7-.38,2-.94,2.68-1.03l2.93-.4c.73-.1.63-2.06.57-2.6l1.29-.04.26,2.96,3.99.66-3.77,1.57.17,8.94Z"/>
  <path class="cls-1" d="M112.26,197.4l.09-5.87,6.45-.2-1.63,2.41c-2.67-.33-2.21-.28-.35-.04l1.55,1.62c.35.36-1.18,1.47-1.67,1.54l-4.44.53Z"/>
  <polygon class="cls-1" points="190.97 111.09 188.35 112.24 188.17 106.62 187.22 100.14 189.21 96.82 190.39 105.49 190.97 111.09"/>
  <path class="cls-1" d="M61.36,94.23c-1.71,3.75-2.91,8.68-3.9,13.1l-.98,3.46-.96-1.74.43-3c.68-4.71,2.16-8.91,3.75-12.88l1.65,1.04Z"/>
  <path class="cls-1" d="M194.4,103.8l-2,.09-1.91-8.02c-.36-1.52-.21-4.3.79-5.61.06.14.79,1.49.88,1.98l2.23,11.56Z"/>
  <path class="cls-1" d="M82.4,162.32l-2.28-.93c-.32-.13,1.28-1.32,1.5-1.08l1.08,1.17.87.85,13.72,5.51c2.38-.65,1.77,1.47.09,1.73l-11.2-4.31c-.83-.32-2.55-1.67-3.11-2.24l-.67-.68Z"/>
  <path class="cls-1" d="M56.28,126.08l1.11-.23,1.52,3.31,2.71,8.46c-.09.02-2.06-1.37-2.22-1.85l-3.13-9.69Z"/>
  <path class="cls-1" d="M113.68,169.87c-5.05,2.31-9.56,1.14-14.04-.39,4.78-.34,8.81-.43,14.04.39Z"/>
  <path class="cls-1" d="M156.57,120.82l.12,2.4c.04.36,1.34-.06,1.38-.42l.1-1.98h2.28s0,6.02,0,6.02c-2.84-.08-5.81-3.1-5.85-6.02h1.97Z"/>
  <path class="cls-1" d="M166.16,104.13c.3,1.1-2.03,2.33-1.43.09l-3.05-9.78,1.11-1.29,3.38,10.99Z"/>
  <polygon class="cls-1" points="188.09 122.4 188.38 116.48 190.76 116.11 189.53 123.93 188.09 122.4"/>
  <path class="cls-1" d="M119.22,116.1l.4-1.71c3.33-.22,6.47.17,9.51,1.49l-9.9.22Z"/>
  <polygon class="cls-1" points="89.36 192.77 88.86 194.39 83.12 193.07 83.59 190.55 89.36 192.77"/>
  <rect class="cls-1" x="62.53" y="138.07" width="1.66" height="7.63" transform="translate(-57.15 43.79) rotate(-26.79)"/>
  <path class="cls-1" d="M167.29,116.59l-2.4-.46c-.19-1.22.32-3.23.92-5.8l1.63,3.84c.17.4-.05,1.95-.14,2.42Z"/>
  <path class="cls-1" d="M167.29,116.59c-.33,1.71-.88,3.69-1.54,5.17l-.86-5.62,2.4.46Z"/>
  <polygon class="cls-1" points="112.21 12.82 110.58 12.83 110.33 8.52 112.03 8.48 112.21 12.82"/>
  <rect class="cls-1" x="73.62" y="153.47" width="1.37" height="5.01" transform="translate(-90.27 103.42) rotate(-46.82)"/>
  <path class="cls-1" d="M81.16,192.33l-1.14-.4-1.62-2.49c-.2-.26,1.09-.84,1.39-.7l2.07.96-.69,2.62Z"/>
  <path class="cls-1" d="M69.04,151.66l-2.42-4.5,3.43,3.19c.26.58.33.73.32.71l1.57,2.23-2.08-.82c-.15-.06-.76-.75-.81-.81Z"/>
  <path class="cls-1" d="M79.56,160.65l-3.66-2.66c2.46-.13,3.38.86,3.66,2.66Z"/>
  <path class="cls-1" d="M143.48,70.28l-2.35-.91c-.3-.12,1.29-1.29,1.53-1.05l1.13,1.14.91.92-.5.38-.72-.47Z"/>
  <path class="cls-1" d="M158.17,120.82l-.1,1.98c-.04.36-1.34.78-1.38.42l-.12-2.4h1.6Z"/>
  <path class="cls-1" d="M171.5,170.08c-.44-.36-.7-.57-.51-.77.23-.25,1.1-1.2,1.06-.92-.07.42-.22,1.96-.55,1.69Z"/>
  <polygon class="cls-1" points="56.49 110.8 56.73 111.72 55.43 111.76 55.53 109.07 56.49 110.8"/>
  <path class="cls-1" d="M167.22,174.23c.94.09.59.06-.38-.04-2.07-.2-1.92-.18.38.04Z"/>
  <polygon class="cls-1" points="66.58 145.34 66.64 145.92 66.64 146.53 66.58 147.11 66.52 146.53 66.52 145.92 66.58 145.34"/>
  <polygon class="cls-1" points="164.78 169.23 164.84 169.81 164.84 170.41 164.78 170.99 164.73 170.41 164.73 169.81 164.78 169.23"/>
  <polygon class="cls-1" points="166.1 167.97 168.31 165.69 168.75 166.12 166.97 167.99 166.1 167.97"/>
  <rect class="cls-1" x="160.93" y="91.5" width=".63" height=".63" transform="translate(-17.7 140.91) rotate(-45)"/>
  <rect class="cls-1" x="139.7" y="67.61" width=".63" height=".63" transform="translate(-7.02 118.9) rotate(-45)"/>
  <rect class="cls-1" x="160.05" y="89.73" width=".63" height=".63" transform="translate(-16.7 139.76) rotate(-45)"/>
  <path class="cls-1" d="M88.76,191.35l-2.2-1.49c.55-.36,1.81.38,2.2,1.49Z"/>
  <polygon class="cls-1" points="91.79 193.19 91.19 193.12 91.31 191.27 91.79 193.19"/>
  <polygon class="cls-1" points="94.42 193.98 93.41 193.19 94.7 193.1 94.42 193.98"/>
  <polygon class="cls-1" points="190.29 133.5 188.11 139.8 186.41 140.1 189.77 130.36 190.29 133.5"/>
  <path class="cls-1" d="M184.85,148.74l.27-3.58c1.99.42,1.81,3.04-.27,3.58Z"/>
  <path class="cls-1" d="M193.42,129.51l.63-1.77-.63,1.77Z"/>
</svg>