<?xml version="1.0" encoding="UTF-8"?>
<svg id="_レイヤー_1" data-name="レイヤー 1" xmlns="http://www.w3.org/2000/svg" viewBox="0 0 241.21 245.98">
  <path d="M54.4,150.54l-13.45-53.33-6.74-25.3c-6.41-1.03-12.77-1.34-18.89-2.96-3.54-.93-3.94-5.93-3.39-8.82,1.73-9.09,13.22-5.83,23.78-4.24l10.33,1.56,3.58,11.04,19.43-1.11,48.06-2.59,21.7-.91c15.47-.65,30.45-.47,46.44.55l7.35-31.96c.51-2.22,3.73-2.97,5.7-2.99l27.98-4.74c1.57-.27,3.44.29,4.89,1-2.47,6.42,4.99,11.07-1.31,12.62l-11.31,2.79-13.43,3.05-12.05,65.04-7.89,41.37c-.68,3.59-1.65,6.96-5.84,8.24-3.59,1.09-8.11,1.59-12.18,1.59l-24.59-.02-46.73-1.25-34.67-.03c-5.43-1.67-5.55-3.72-6.79-8.63ZM147.26,103l30.1.03,4.72-23.76-36.28,1.89,1.07,14.81.38,7.03ZM104.97,104.84l26.81-1.25.19-22.01-29.33.78,1.89,15.77.45,6.71ZM79.83,105.94l9.51-.81.05-22.55-35.27.39,6.24,24.41,19.47-1.45ZM164.44,143.98l6.29.26,4.05-26.42-26.42,1.8v24.3s16.08.06,16.08.06ZM134.06,143.98l-.98-8.43-.95-16.01h-13.82s-11.69.74-11.69.74l.33,8.14.09,16.3,27.02-.74ZM91.11,129.78l-.69-9.15h-19.75s-7.1-.39-7.1-.39l5.4,25.17,23.95-.37-1.81-15.27Z"/>
  <path d="M105.64,177.58l-18.67,3.38c-9.31,1.68-27.09-1.39-27.49-6.41-.31-3.89,8.02-6.71,13.91-7.64,7.31-1.15,14.46-1.2,21.74.55,9.14,2.19,17.95,2.86,27.38,1.54l31.59-4.43c6.05-.85,11.86.32,17.76,1.05,3.41.42,6.65.68,9.27,2.96,2.4,2.1,3.1,6.55.38,8.15-6.32,3.71-13.02,4.62-20.09,4.66-7.01.03-13.64-.29-20.54-1.19l-20.84-2.74c-4.57-.6-9.53-.76-14.37.12Z"/>
  <path d="M187.67,205.48c0,10.48-8.5,18.97-18.97,18.97s-18.97-8.5-18.97-18.97,8.5-18.97,18.97-18.97,18.97,8.5,18.97,18.97ZM171.87,210.83c2.64-.66,3.81-3.77,2.85-6.09l-2.82-6.83c-3.22-.75-6.26-.71-9.08.81l.25,11.38c.02,1.04,1.7,2.51,2.66,2.27l6.13-1.54Z"/>
  <path d="M93.58,205.62c0,10.49-8.51,19-19,19s-19-8.51-19-19,8.51-19,19-19,19,8.51,19,19ZM80.8,206.3c-.78-2.75-2.18-5.76-3.72-8.1-3.23-.91-6.58-.5-9.72,1.02l3.44,13.79c4.44,1.85,10.89-3.6,10-6.71Z"/>
</svg>