<?xml version="1.0" encoding="UTF-8"?>
<svg id="_レイヤー_1" data-name="レイヤー 1" xmlns="http://www.w3.org/2000/svg" viewBox="0 0 241.21 245.98">
  <path d="M205.14,56.14l.54,15.9c5.79-1.8,10.51-1.15,15.49.68l1.34,17.95-.04,21.65.02,37.07.69,24.07.54,20.8c.06,2.46-.53,5.92-1.74,7.97-1.93,3.28-6.18,4.59-9.69,4.12l-19.1-2.58c-24.56-3.32-35.78-4.31-60.95-.67-1.97.29-3.59.58-5.28,1.47-5.59,2.57-11.76,1.62-17.12-1.7-12.98-1.79-25.83-3.59-39.17-3.12s-24.91,3.41-37.47,5.63c-4.01.71-8.32.02-11.1-3.03l-1.24-9.26.03-27.44,1.04-24.05c.47-10.8.37-21.06-.05-31.82l-1.38-34.8c-.15-3.74,1.42-6.57,5.42-7.36,2.48-.5,5.47-.43,8.69-.36l-.94-16.38c-.18-3.19,1.75-6.25,5.21-6.67,24.12-2.93,49.34-2.16,68.33,14.34l5.37,5.27,6.68,8.61-1.55.85c-.43.23-.33,1.69-.12,2.2l4.24,10.32c1.37,5.59.88,11.41.54,17.15-.62,10.61-.38,20.68.09,31.36l1.77,40.61,7.32-2.22c20.99-6.37,43.6-9.74,64.04-.34l-.02-12.32-1.17-28.53-1.18-22.42-.77-45.7c-19.06-5.52-35.01-5.61-52.45,4.79l-15.78,10.88.13-5.08c-.06-.63-2.3-.58-2.96-.34-1.29-.11-1.07-1.27.45-.99l3.58-6.2c16.61-19.09,44.02-23.53,67.52-16.3l9.92,3.05c1.2.37,2.25,1.31,2.31,2.95ZM113.01,174.36c-.36-15.65-.07-30.37,1.06-45.64.6-8.2.4-15.91,0-24.06l-1.22-24.8-9.41-8.62c-13.34-12.22-40.08-14.73-58.58-15.34.63,6.46-.02,12.21-.36,18.61-.84,15.74-.77,31.08-.1,46.89l2.15,45.73c6.97-2.09,13.88-3.75,21.04-3.34,4.99.79,9.71,1,14.85.98,11.15-.81,22.09,2.42,30.57,9.59ZM204.81,115.54l-.23,22.71,1.88,23.64.16,16.08c.03,2.84-1.17,5-2.93,6.45-1.89,1.56-4.51,2.03-7.11,1.3-10.92-3.07-21.5-6.3-33-7.29-6.68-.58-13.5-1.18-20.03.29l-18.96,6.58c-1,1.5-2.24,3.43-3.47,4.34-2.04,1.5-4.7-.51-5.04-2.7-.4-2.56-1.62-4.49-4.34-5.44-14.17-4.98-32.95-9.23-47.24-4.76l-20.56,6.44c-2.47.77-8.02.94-8.91-2.47-1.76-6.75-1.84-14.05-1.47-21.25l2.57-49.8c.62-11.97-.2-23.35-1.05-35.24l-5.12,1.15-.03,26.27-.85,35.27,1.52,25.43,1.43,28.68c12.84-3.37,25.55-3.77,38.64-3.15,12.94.61,25.12,1.76,37.66,4.9,1.96.49,4.76,1.46,6.59,1.51,3.56.1,7.73.58,10.99-.07,11.54-2.31,22.4-5.43,34.34-5.73,11.25-.28,22.04,1.11,33,3.46,6.03,1.29,11.76,1.82,18.19,1.27l.34-33.91c.16-15.62-.25-30.5-1.3-46.04-.77-11.41.28-22.52.56-33.98l-5.31-1.22-.9,37.29Z"/>
</svg>