<?xml version="1.0" encoding="UTF-8"?>
<svg id="_レイヤー_1" data-name="レイヤー 1" xmlns="http://www.w3.org/2000/svg" viewBox="0 0 241.94 246.13">
  <defs>
    <style>
      .cls-1 {
        fill: #fff;
      }
    </style>
  </defs>
  <path class="cls-1" d="M108.04,130.09c.07,1.04-1.94,3-3.04,3.06l-28.54,1.57.86,22.61c11.27-.7,22.05-.54,33.18.86,1.29,5.39,1.93,10.31.36,15.83-16.29,2.15-32.3,2.24-48.56,1.6-2.73-.11-4.17-2.45-4.37-4.97-2.36-29.88-3.21-59.24-2.05-89.21.79-1.75,3.5-2.92,5.38-3.09,14.92-1.36,29.18-2.08,44.04-.98,1.82.13,2.72,1.97,2.78,3.45l.31,8.2c.03.73-.11,2.51-.41,3.14-.36.76-2.05,1.47-3.08,1.53l-30.39,1.79,1.14,20.79,23.03-.36c2.97-.05,5.57.49,8.51,1.13l.84,13.08Z"/>
  <path class="cls-1" d="M147.84,136.18l-.11,36.92c-4.41,3.75-14.39,4.04-18.46,0l-2.55-45.39-.18-47.03c.73-.94,2.53-2.82,3.57-3.49l24.32-1.84c9.67-.73,19.45,2.86,26.24,9.9l3.93,5.16c4.94,6.49,4.83,15.09,3.46,23.02-2.32,9.45-8.89,16.6-17.95,20.07-6.95,2.38-13.65,2.96-22.27,2.67ZM160.45,117.96c6.37-2.14,9.92-7.85,9.05-13.8-.88-6.01-5.39-11-11.96-10.84l-12,.29,1.34,25.45c4.48.35,9.16.38,13.57-1.1Z"/>
  <path class="cls-1" d="M23.47,77.18c-8.58,16.45-12.85,40.47-10.34,59.07.15,1.11.04,3.56-.5,4.39-1.79,2.78-6.66,2.93-10.9.64-4.99-29.22.94-53.81,15.86-79.16,10.58-17.98,25.29-32.83,43.1-43.63l5.08.36c3.37-3.13,6.28-5.96,10.42-7.55l7.14-2.73c22.99-8.8,52.29-9.65,74.68.34.99,3,.37,6.83-1.61,9.63-1.49,2.11-5.55,1.73-8.15,1-23.77-6.66-48.18-4.34-70.91,4.8-3.36,1.35-7.55.3-9.9,3.77-1.62,2.39-3.71,4.64-6.27,6.37-16.2,10.9-28.74,25.53-37.69,42.69Z"/>
  <path class="cls-1" d="M164.52,233.74c.52,1.29-1.14,4.25-2.21,4.95-18.15,6.81-37.35,9.14-56.64,6.18-24.31-3.74-46.54-13.39-65.23-29.25-15.52-13.17-30.46-36.42-34.38-56.44,2.92-3.42,7.18-4.34,10.92-3.62,6.12,17.07,14.81,32.5,28.11,44.83,19.47,18.04,44.28,28.2,70.81,30.15,12.6.93,24.91-.76,37.2-3.09l8.23-1.56,3.19,7.86Z"/>
  <path class="cls-1" d="M177.49,229.53l-2.72-5.67c-1.19-2.47-.12-5.63,2.3-7.14,7.73-4.82,14.09-10.44,20.35-17.02,23.73-24.93,33.82-58.9,27.32-92.79-1.98-10.34-4.84-19.86-8.43-29.76-.62-1.71-1.19-3.92-.89-5.9.54-3.59,8.56-6.84,10.62-3.49,16.73,27.25,19.3,64.77,9.81,94.85-8.21,26.02-24.11,49-47.26,63.53-3.35,2.1-6.79,3.36-11.11,3.39Z"/>
  <path class="cls-1" d="M194.01,60.22c-7.72-.45-13.54-3.74-19.04-8.85-5.02-4.67-6.77-11.13-6.94-18.28-.13-5.42,1.33-10.25,3.54-15.29l.72-1.63c.18-.41,1.03-.27,1.85-.24,1.44-4.37,4.94-7.29,9.09-9.06,10.56-4.5,22.34-2.12,30.8,5.61,10.94,10,12.51,26.41,3.13,38.46-5.43,6.98-14.38,9.79-23.15,9.28Z"/>
</svg>