<?xml version="1.0" encoding="UTF-8"?>
<svg id="_レイヤー_1" data-name="レイヤー 1" xmlns="http://www.w3.org/2000/svg" viewBox="0 0 241.21 245.98">
  <path d="M139.25,221.58h-16.54s-24.98-1.12-24.98-1.12l-10.53-.22-26.03-.05c-3.23,0-6.28-.4-9.39-.86l-9.67-1.42c-2.9-.43-5.78-2.76-5.97-5.75-.34-5.2-.03-10.08.09-15.26.25-11.04-.25-21.81-.82-32.88-.35-6.61-.6-12.78-.35-19.38.26-6.79-.14-13.36-.27-20.14l-.14-7.28c-.05-2.64-.7-5.3-.47-7.94.34-4.04,1.56-7.95,3.01-11.68s5.02-5.86,8.87-5.64l7.12-.16,7.39-.32c-.8-12.91.28-26.38,3.98-38.55,1.56-5.13,3.71-9.65,6.61-14.14,3.89-6.02,8.81-10.93,15.17-14.44,18.8-10.38,42.04-13.62,62.45-6.32,4.52,1.62,8.5,3.85,12.27,6.84,10.74,8.53,17.85,20.63,20.46,34.11,1.24,6.4,2.04,12.57,2.12,19.06l.15,12.86,8.02.19,9.59-.14c2.84.44,5.57,2.09,6.27,5.06,1.23,5.23,1.66,10.44,1.91,15.85l-.11,18.35-.57,21.88-1,25.08v10.52s.2,19.54.2,19.54c.02,2.47-1.03,4.93-2.67,6.65l-3.54,2.98c-1.62,1.36-3.81,2.04-6.04,2.07l-6.7.07-10.78.72-13.71.52-13.71.76-11.7.58ZM155.35,90.82h7.1c-.14-12.05-.78-24.69-4.81-35.94-1.61-4.5-3.9-8.45-7.1-12.02-3.46-3.87-7.9-6.51-12.67-8.53-14.04-5.95-29.44-5.06-40.68,5.77-3.62,3.49-6.46,7.4-8.76,11.93-6.04,12.18-6.62,25.56-6.77,38.96l15.8.09h24.2s33.69-.26,33.69-.26ZM81.68,47.55l4.33-6.81c1.81-2.85,4.05-5.13,6.52-7.51l.87-2c-1.25.4-2.15.75-3.08,1.48-5.02,3.88-8.99,8.95-11.45,14.83-1.15,2.76-2.18,5.37-2.06,8.62l4.87-8.6ZM175.32,73.11l.32-7.53c-.52-7.74-3.4-17.61-8.86-23.35.33,2.56,1.53,4.39,2.23,6.63,2.29,6.55,4.07,13.1,4.99,19.99.22,1.55.13,2.95,1.32,4.26ZM200.43,97.05l-4.49.11c2.21,1.22,3.53,1.98,5.16,3.88.01-1.41-.23-2.61-.67-3.99ZM183.25,210.11l7.8-.03c4.12-.02,6.72-2.12,6.71-6.28l-.09-30.09c-.02-6.79.13-13.15.5-19.92l1.17-21.2.16-4.62c.18-5.02.16-9.89-.26-14.87l-.57-8.57-.64-.68c-.27.92-.37,1.35-1.14,1.67-.44.19-.89-.17-1.25-.68-1.47-2.05,1.39-2.86-.01-3.8-2.15-1.44-4.75-1.8-7.3-1.9l-3.51-.15-4.85.23c-1.38.07-3.17-.32-4.53-.03-2.7.58-5.1.67-7.84.35l-3.79-.44-14.47-.08-18.03.02-32.5-.08-16.15.2-4.28.24-6.03.43c-2.89.48-5.95.54-8.85.18l-3.15-.39-12.36.36c-1.06.03-2.67.48-3.14,1.47-1.04,2.16-2.36,4.69-2.19,7.15l.57,8.6.51,11.04.13,16.41.07,14.53.98,21.23-.16,24.71c-.01,2.27,1.23,3.62,3.46,4.11l5.26,1.14c3.05.66,6.16.44,9.29.34l7.27-.23h15.31s15.88.89,15.88.89c21.5,1.21,43.26,1.34,64.77-.11l17.25-1.16ZM199.95,211.31c.02-.13-.36-.61-.42-.53l-.36.47-2.13,2c1.24.36,2.7-.75,2.91-1.94Z"/>
  <path d="M130.25,191.13l-12.58-.04-12.95-.2c-1.37-.02-2.47,0-3.31-1.1s-.68-2.17-.23-3.56l8.82-27.66c-6.62-4.96-10-12.22-7.56-20.17,2-6.51,7.3-11.26,13.37-12.82,7.2-1.84,14.39.46,19.15,5.68,6.04,6.62,6.54,16.38.86,23.28l-4.21,4.13,4.69,13.31,4.76,14.02c.43,1.28.5,2.52-.3,3.64-.68.95-1.89,1.3-3.23,1.33l-7.26.15ZM113.4,155.2c-.77-1.58-1.8-2.73-2.84-3.99-3.11-3.73-3.93-8.26-2.85-13.24-2.83,3.05-2.35,8.46-.18,11.92,1.44,2.28,3.4,3.95,5.87,5.31ZM128.06,155.15c5.86-2.61,9.57-10.37,6.37-15.76l.08,2.85c-.05,3.49-1.54,6.76-3.84,9.27-1.05,1.15-2.31,2.1-2.61,3.64ZM135.77,185.92c-.62-1.99-.7-3.67-2.45-4.99.25,2.02.11,3.32-1.84,4.41l4.28.58ZM121.4,184.56l-4.4-.23h-4.97c-1.03,0-2.01.54-2.91-.12-.72-.52-1.05-1.34-1.62-2.57l-1.56,4.39,20.17-.43c-1.56-.63-3.14-.94-4.71-1.03Z"/>
  <path d="M49.75,110.7c-2.04,3.68-.59,6.09-1.97,8.98-1.37-1.18-.94-2.6-1.02-4.06-.16-2.85.93-5.77,2.71-5.94.26-.03.41.79.28,1.02Z"/>
  <path d="M51.96,202.3l.65.86c.16.21-.62.73-.92.66-1.29-.29-2.43-1.64-2.61-3.01-.25-1.91-.66-3.73.54-5.59,1.5,1.93.54,4.69,2.34,7.08Z"/>
  <path d="M193.35,198.55c-.16,3.31-2.82,5.97-4.18,4.42,3.35-3.19,1.74-6.37,3.64-8.13.83,1.23.6,2.42.53,3.71Z"/>
</svg>