<?xml version="1.0" encoding="UTF-8"?>
<svg id="_レイヤー_1" data-name="レイヤー 1" xmlns="http://www.w3.org/2000/svg" viewBox="0 0 241.21 245.98">
  <defs>
    <style>
      .cls-1 {
        fill: #fff;
      }
    </style>
  </defs>
  <path class="cls-1" d="M129.07,220.67c-5.57,4.7-12.21,4.79-17.83.72-3.37-2.44-5.47-6.31-3.39-10.56,1.78-3.62,5.32-4.6,6.07-6.08.82-1.61-4.6-3.25-1.57-8.09-12.49-1.85-24.26-5.95-34.42-13.55-1.61,3.64-4.97,2.74-7.67,4.1-1.83.92,2.1,5.33-.37,10.7-.84,1.83-3.16,3.51-5.61,4.18-5.18,1.42-10.16-.64-13.69-4.6-3.87-4.32-4.52-11.22-.54-15.63,2.25-2.49,5.59-3.02,8.8-2.28,3.54.82,1.83-5.03,6.4-8.44-7.26-9.65-12.48-20.42-14.48-32.79-4.65.79-6.56-3.63-7.89-2.73-1.71,1.17-3.27,6.53-8.55,7.17-3.43.42-6.32-1.27-8.47-4.01-4.58-5.83-4.09-14.85,1.57-19.85,1.97-1.74,4.74-2.38,7.33-2.02,1.96.27,3.95,2.34,5.53,4.17l1.55,1.8c.99,1.15,3.72-3.29,8.06-3.39,1.45-12.73,5.31-24.72,12.77-35.36-2.43-1.07-3.63-2.43-4.22-4.55l-.99-3.6c-3.64,1.2-6.32,1.97-9.46.35-2.06-1.06-4.6-3.41-5.03-6.4-1.26-8.69,5.34-17.02,14.01-17.24,5.76-.15,9.53,4.29,9.04,9.59l-.48,5.12,3.95.44c1.87.21,3.33.75,4.81,2.74,10.22-9.15,22.52-15.05,36.28-16.93-3.48-5.04,2.7-7.08,2.1-8.96-.54-1.7-6.57-3.59-6.67-9-.06-3.15,1.71-5.7,4.21-7.6,5.77-4.39,13.54-4.2,18.68,1.08,1.93,1.98,2.86,4.61,2.46,7.45-.69,4.83-6.26,6.03-6.29,8.04-.04,2.9,5.02,3.81,2.12,8.62,16.51.6,31.7,6.04,44.02,17.11,2.87-3.7,7.4-1.47,8.01-2.85.97-2.2-1.71-7.19,1.53-11.51,2.12-2.83,5.96-3.95,9.63-3.13,8.48,1.9,13.54,11.47,10.08,19.52-1.92,4.47-7.32,5.64-11.49,4.07-.49-.18-1.95-.52-2.11-.09l-.68,1.87c-.8,2.19-1.21,4-3.1,5.61,7.12,10.58,11.61,22.82,12.57,35.77,2.27.29,3.66,1.22,5.2,2.67l1.05.98c.97.91,2.87-5.08,8.26-6.3,3.78-.86,7.09,1.22,9.02,4.39,5.32,8.75.66,20-5.95,21.29-5.08.99-9.01-2.36-10.98-7.24-2.47,2.06-4.33,3.47-7.16,3.19-2.12,12.24-7.02,23.32-14.9,33.04,3.23,3.3,2.23,6.34,3.39,7.98.54.76,6.76-2.01,10.61,2.48,5.21,6.09.96,17.03-6.95,19.72-4.21,1.43-9.08.91-12.23-2.13-3.79-3.65-.73-9.85-1.37-11.7-.44-1.26-4.74-.05-6.47-4.27-12.08,8.44-23.2,11.95-38.24,13.27,2.55,4.6-1.99,5.18-2.3,7.94-.19,1.72,5.33,2.87,5.93,8.26.33,2.99-1.12,5.49-3.45,7.46ZM178.43,125.15c0-30.74-24.92-55.66-55.66-55.66s-55.66,24.92-55.66,55.66,24.92,55.66,55.66,55.66,55.66-24.92,55.66-55.66Z"/>
  <path class="cls-1" d="M122.86,147.02c-9.37-.18-16.43-6.46-18.13-15.32-1.15-6-.43-11.85,3.49-16.78l.87-5.55c2.6-4.8,7.22-7.47,11.91-8.12,5.56-.78,10.46,1.45,14.61,5.24,2.09,2.89,3.11,6.28,3.85,9.93,4.35,5.99,5.62,13.8,2.24,20.41-3.62,7.08-10.76,10.34-18.83,10.19Z"/>
</svg>